<svg xmlns="http://www.w3.org/2000/svg" viewBox="0 0 41.13 397.34"><defs><style>.cls-1{fill:#3c1642;}.cls-2{fill:#086375;}</style></defs><g id="Layer_2" data-name="Layer 2"><g id="Layer_7" data-name="Layer 7"><g id="Layer_1-2" data-name="Layer 1"><path class="cls-1" d="M31.75,67.92a18,18,0,0,0-.22-4.22C31.34,67.27,31.73,73.81,31.75,67.92ZM31.4,51.85C31,51.46,31,50.24,31,48.91,31.52,48.93,31.36,50.65,31.4,51.85Zm0,20.32a43,43,0,0,1,.07,6.77A13.25,13.25,0,0,1,31,76.86C31.74,78.14,30.94,72.86,31.44,72.17Zm-.44-25c-.36-.1-.18-1.57-.54-1.67-.45.13.25.72,0,1.69a6.9,6.9,0,0,1-.56-2.92c.22.45.36.34.35-.45C31,43.87,30.93,45.67,31,47.22Zm.05,38.11a27.25,27.25,0,0,1,.07,6.76C30.57,90.27,31.19,87.59,31.05,85.33Zm-.34-15.65c.23.42.5,4.42-.13,4.24C30.42,72,30.79,71.36,30.71,69.68Zm-.52.45c-.86.34-.17-6.69-.46-10.14C30.62,63.16,29.74,66.68,30.19,70.13Zm.57,37.66,0,2.54c-.63.43-.26-1.65-.38-2.52ZM30.45,112c.23.67.52,5-.12,5.09C30.38,114.58,30.42,114.08,30.45,112Zm-.05,44.89c-.62-1.38-.43-5.51-.44-8.44A77.05,77.05,0,0,1,30.4,156.93Zm-.11,40.24c-1-.57.16-4.51-.25-7.61C30.42,189.63,30.18,195,30.29,197.17Zm.1,8.89c-1-1.3-.25-4.72-.42-6.33C30.74,200.22,30.17,204.15,30.39,206.06ZM28,40.2c-.79-2.81.52-5.75-.1-8.89C28.7,32.24,27.88,36.88,28,40.2Zm1.76,135a17.08,17.08,0,0,1-.4-4.63C29.74,171.35,29.7,173.34,29.71,175.18ZM27.35,0c-.22,1.62.1,2.34-.13,4.24C27,3.83,26.72-.18,27.35,0ZM21.19,366.27c.51,1.87,0,5,.07,7.2C20.48,372.25,21.19,368.34,21.19,366.27ZM15.92,47.71c-.31.07-.37-.49-.7-.38.64-1.69.75-4.61,1.15-6.85C16.9,42.54,16.17,44.15,15.92,47.71ZM14.83,27a13,13,0,0,1,0,4.24C14.35,30.25,14.61,28.41,14.83,27Zm-.95,43.26c.75,1.7-.25,5.9,0,0ZM17,364c.36.34.21,2.93,0,3.39C16.49,366.73,17.22,365.45,17,364ZM13.81,97.39c-.52-1.06-.19-2-.21-3.8A10,10,0,0,1,13.81,97.39Zm2.65,253.08c.41.7.1,3.23.23,4.64a31.07,31.07,0,0,1-.78-7.57c.6.7.07,2.33.39,4.21C16.51,351.67,16.44,351,16.46,350.47ZM14,116.86c-.77-2.85-.46-5.78-.64-10.13C14.09,109.73,13.88,112.39,14,116.86Zm.52,66.45c-.87-2.07-.06-6.11-.28-9.3C14.86,176.49,14.33,179,14.54,183.31ZM12.48,70.79c.42,1.39.11,4.64.25,6.76C12.31,76.15,12.62,72.9,12.48,70.79Zm.75,171.46c-.85-.83-.3-2.73-.41-5.05A10.08,10.08,0,0,1,13.23,242.25Zm-2.3,48.42c-.42-1.12-.11-4.08-.24-5.91A19.45,19.45,0,0,1,10.93,290.67ZM9.21,227.26c.16,1.18-.24,1.11-.15,2.12C8.67,229,8.5,227.05,9.21,227.26ZM30.82,63.74c.37,1.68.11,2.89.23,5.07-.17,0-.14-.51-.18-.84-.15-.07-.17.18-.17.44C30.42,67.94,30.54,65.12,30.82,63.74ZM28.14,41.88c-.15.49-.49-.23-.33,1.72.49,0,.48-1.86.53.39.23-.15.13-1.07.16-1.7a1.25,1.25,0,0,1,.36.82c.24-.16,0-.75-.19-.84.6-1.34.92,1.7,1.08,2.9,0,1.06-.59.16-.7,0,.15,1.62.31,2.41-.5,2.57,0-1.09.13-.53.35-.45.07-1.34-.33-1.47-.21-3-1,2.22-.39,10.51.13,11.85.32.15-.58,2,0,3,.45-.35.59-1.39.49-3,.36-.59.14,4,.24,5.49-.34,0-.14-1.39-.54-1.24-.14,1.37.28,1.31.54,1.66,0,9.53.18,17.15-.06,27.53.33-1.58.39.08.54,1.24-.3.17-.34-.31-.36-.83-.48.68,0,2.48.37,2.52a8.55,8.55,0,0,0-.32,3c-.15,4.61.1,2.84-.37-2.52-.39,1.45,0,4.65-.11,6.78-.66-.58-.48-1.37-.2-2.53-1.65,2.24,0,10.71-.7,16.56.48-2,.25-5.75.26-8.91.59.76.12,1.7.21,3.38,1.25-1.14-.38-7.44.95-9-.25,12.27-.87,22.84-.87,33.94.11.93-.33.62-.33,1.29,1,8.4-.36,15.55-.07,27.53.66-.3-.1,1.43.38,2.52-.15,1.15-.4-1-.71-.81.19,3.64,1,4.11.26,8.46-.13-2.12.19-3.43,0-4.66-.24,4.92-.13,12.06,0,16.52.4-3.13,0-7.55.33-2.56a33.74,33.74,0,0,1,.22,4.64c-.35.76-.35-.29-.7.47.38,5.92.18,10.6,1,15.18-.36-.09-.07-1.86-.37-2.09-.6,1.18.36,3.66-.13,4.66.06.57.44.32.71.38-.2,1.85.2,1,.2,2.95-.31-.36-.3-1.54-.72-1.65.09,4.45-.29,9.73.16,14.82.2-.09.14-.78.16-1.29.66,1-.24,4.16.24,6.34.67-2.23,0-9.22.57-12.74.21-4,.25,5,.24,6.34-.09,10.48-1,21.08-.7,33.07-.83-2.38-.22-8.42-.48-12.25-.65.94.19,5.46-.65,5.12,0,1.32.56,1.18.38,2.94-.23-.13-.28-.72-.53-.81a21.22,21.22,0,0,1,0,4.23c.24-.14.13-1.06.16-1.7.33,1.1.32,5.78-.13,4.24.16,13-1.61,29.87-.92,46.22.41-.29-.06-2.6.32-3,.11-.83.15,2.81,0,3.39.78-.7.46-5.26.45-7.23s-.14-4.07-.06-6.34c.88,6,.53,12.65.56,20.29-.17-.25-.66-1-.52.46-.42-1.12-.11-4.08-.24-5.92-.24,4.14-.09,9.15-.39,13.15.4-.2,0-2.25.33-2.56,0,5.29-.47,14.58-.17,17.8.44.85-1.19,4.56-1.34,6-.24,2.47.87,6.6-.79,7.67a5.06,5.06,0,0,0,.15-1.7c-.44.62-.36,2.46-.84,3,.7-1.62,1.14,6.17.24,5.92a22.17,22.17,0,0,1,.38,3.36,2.14,2.14,0,0,1-.54-1.24c-.44.61-1.05,3-.31,3.83-.16,1.83-1.18,1.7-.82,4.71-1.05.5-1.48,2.41-1.71,4.77-.44-.34,0-2.95-.39-3.37-.39,2.05-1,1.34-1.19,3.46-.22-.08-.24-1.25,0-1.27-.29-.89-.61,1.6-1,1.76.42,2.14.07,2.15.21,3.8-1.54-4.61-1.95-13.47-2.31-19.77a10.05,10.05,0,0,1,.67-3,10.51,10.51,0,0,1-.37-2.1c-.24.1-.31,1.78-.35,0a15.39,15.39,0,0,0-.32,3.4c-.77-.1-.87-4.24-.78-7.15-.36-3.22-1.17-6.28-.81-10.54a16.75,16.75,0,0,0-.89-1.64c.26,3.11.09,7.3.8,9.27-.81-.92-.31,1.65-.5,3-.9-2.5-.05-9.42-.66-12.67-.49,3.57-2.09-3.51-1.11-6.28-.27,0-.56-1.11-.73-2.5.22.17.36.52.36,1.25.83-3.46.59-9.4.55-14.86.71.23.5,2.78.57,4.63.53-11.91-1.14-29.72-1-44,0-2.21.36-4.44.29-6.37a8.89,8.89,0,0,1,.67-2.59c-.15-7,.08-10.57.18-16.95,0-.47-.18-.22-.18,0-.2-6.29.16-15.33.13-21.19.37,8.29.31,21.3.16,31.75,1.07-5.55.43-13.52.48-21.2,0-4.94.16-9.84.2-14.41,0-4.77-.47-10.17,0-12.71-.27-17,0-29-.29-44a55.9,55.9,0,0,0-.1,6.78c-.31-.94-.33-4.64-.26-7.61,0-1.29.19-5.95.32-3.4.12,2-.21,2.57,0,3.81.28-5.11.27-9.63-.12-11.43.79-3.11.07-12.59.14-20.34.08-10.4-.44-22.25,0-34.3-.07-.66-.31.39-.36-.4a10.75,10.75,0,0,1,.51-1.73c-.08-.66-.55-.32-.37-1.67.17,0,.15.51.19.84.48-3.16-.1-8.76.76-11.06-.89-1.33,0-7.93-.3-11.84,1.12-.09.35,1.9.39,3.79.79-4.44.09-5.42.58-11.47a28,28,0,0,0-.63,7.24c-1.06-2.83-.16-8.65.05-12.29a38.13,38.13,0,0,0-1,4.72c-.29-3.3,1.65-6.25,1.3-9.82.51,2.72-.49,5.22.09,8.47,1-6.93.91-14.43,2.23-20.89.12-1.31-.49-.78-.37-2.1.53,1.1.6-1.38.86-2.16.3.2-.17,2-.15,3,.69.35.11-2.24.5-2.57.48.74-.07,2.56-.14,3.39.43,0,1.45-3.81,1-6,1.33.93,1.18-3.89,1.35-5.17.4.43.09,2.66.22,3.8.24-.53.24-1.63.5-2.15,1,.4.44,3.16.92,4.18.39-2.14.4-5.13.62-7.66-.35.29,0,2.14-.68,1.73.55-3,.75-7.71,1.67-7.72,0,.48.18.22.18,0,.28,3.33-.77,6.45-.25,10.18.58-.79,0-1.85.14-3.82.67,1.86.16-.47.69-.47.28,2.45-.43,2.85-.13,4.24.32.1.36-.42.17-.43,1.37,2.49,1,11.77,1.93,16,.38-.87-.33-2.62.31-3.41-.89,0,0-1.26-.39-3.79C27.52,38.39,27.34,40.75,28.14,41.88ZM27.15,332c0,1.19-.83,2.47-.32,3.41C26.81,334.26,27.62,332.87,27.15,332ZM14.62,308.66c-.13-1.9.45-3.36-.22-4.22C14.3,305.94,14.3,308.85,14.62,308.66Zm-1-46.1c.36-.12,0,4.88-.1,6.36.55-1.5.6-6.31.26-8.49C13.78,261.06,13.13,262.2,13.61,262.56ZM29.44,82l-.53,0c-.13,1,.23,2.82.37,1.67C28.76,83.4,29.68,83.08,29.44,82Zm-.58,11.9c.18-1.52.73-2.18.48-4.69C28.52,90.89,29.22,91.76,28.86,93.93Zm-.33-14.38C28,79.44,28,84,28.4,83.37A11.08,11.08,0,0,0,28.53,79.55Zm-.29,39c.55,1.38-.33,3.71.57,4.2C28.94,120.36,28.8,118.22,28.24,118.53Zm-.52-66.46c0-.33.14-.5.35-.44.09-1.91-.52-3.59-.06-5.08C27.32,46.76,27.81,51.84,27.72,52.07ZM28,112.19c0,1.55,0,3.1.05,4.66.44,0,.56.77.7-.47C28,116.61,28.38,111.54,28,112.19Zm.33,14.38c.72-.68.22-2.29.49-3.42C28.14,123.11,28.66,125.81,28.33,126.57Zm-1.1,196.56c.26,1.89-.49,3.8.22,4.22C27.37,326.22,27.55,322.19,27.23,323.13Zm-1.82,27.64c-.12-1.28.19-3.66-.22-4.22C25.33,348.68,24.69,349.58,25.41,350.77Zm-1.06-1.21c.23-1.36.09,1.73.54,1.24-.31-2.32.11-4.19-.24-5.91C24.67,346.48,23.87,348.31,24.35,349.56ZM14.92,119.34c-.12-1.28.19-3.66-.22-4.22C14.82,116.4,14.51,118.78,14.92,119.34Zm.83,196c0,.76.19,2.11-.34,1.72,0,2.1.05,6.52.76,5.46C15.51,321.75,16.46,317.8,15.75,315.36Zm.58,22c0-4.91-.93-3.19,0,0Zm-2.1-83.3c0,1.12-.07,2.5.37,2.52-.19-1.19.26-2.92,0-3C14.54,253.94,14.43,254.11,14.23,254.05ZM14,329.87c0-.51.19-.27.35,0,.1-1.3-.26-3.63.13-4.25.09,1.45.48.52.2,2.11.79,0,.61-4.53.12-5.09-.1.89.24,2.77-.14,3-.06-1.77-.56.29-.72-1.22C13.82,326.26,13.66,329.33,14,329.87Zm.72-182.57c-.66-.31-.19-4-.4-4.21C15.09,142.05,14.18,146.33,14.69,147.3Zm14.52,63.49c.67.49,0,1.74.38,2.94-.21-.06-.31.11-.35.44C29,213.71,29.14,212.36,29.21,210.79Zm.23-162.21c.2.07.1.42,0,.42a23.91,23.91,0,0,1,.22,4.22c-.51-.13-.09-2.39-.36-1.24-.44,0-.07-1.43,0-1.7s-.16-.75-.36-.82.33,1.95-.34.87c-.2,1.38.57.28.37,1.67-.59-.24-.59-2-.57-3.78C28.84,48.79,29.24,49.2,29.44,48.58Zm.9,136.73c-.73,0-1-1.3-.91-3.33.32-.92,0,3.39.73,2.92-.38-8.18-.09-10.81,0-18.64.69-.3.24,2.31.39,3.37-.12,0-.2-.54-.18-.84C30.09,172.38,30.46,179.62,30.34,185.31ZM26.47,16.57c-.26,3.3-.68,6.16-.51,1.73a29.87,29.87,0,0,0,.31-3.83c.15-.09.17.15.18.41.15.07.17-.17.18-.43.48,1.4-.27,3.5-.12,5.51C26,19.21,26.69,17.94,26.47,16.57Zm2.3,269.2c.32,1.22-.8-2.06-.21-2.95C28.82,283.57,28.61,284.11,28.77,285.77Zm-2.95,70.06c0,.49,0,.75.18.83.09,1.16-.65.44-.69,1.32C25.09,358,25.28,355.45,25.82,355.83ZM17.41,38.72c.61,1.3-.51,2.11-.31,3.84C16.56,41.42,17.49,40.18,17.41,38.72ZM13.78,77.06c0-.53-.36-.4-.35,0,0-2,0-4.59.09-7.2.57.74-.28,5.08.75,4.61C14.23,75.47,13.43,79.05,13.78,77.06Z"/><circle class="cls-2" cx="20.74" cy="376.5" r="19.5"/><path class="cls-2" d="M29.43,395.53a14.7,14.7,0,0,0,1.32-.67l-1.79.87C28.52,395.9,28.5,396,29.43,395.53Zm4.74-3a6.45,6.45,0,0,1,.74-.72C34.94,391.82,34.48,392.21,34.17,392.49ZM28,396.07l-1.05.4-1.22.31c.25-.09.37-.16.69-.25-.2.1.14,0,.56-.11A9.63,9.63,0,0,1,28,396.07Zm7.31-4.71s.37-.4.36-.46-.13.22-.41.42c.17-.18.31-.42.65-.79-.09.14,0,.12.14-.08C36.14,390.5,35.73,391,35.34,391.36Zm-11.79,5.78a11.51,11.51,0,0,1-2.36.2C21.82,397.22,22.77,397.32,23.55,397.14Zm5.27-1.46a6.88,6.88,0,0,1-1.4.5C28,395.93,28.27,395.89,28.82,395.68Zm-.18,0c-.14,0,2.14-.95,3.11-1.68A16.17,16.17,0,0,1,28.64,395.67Zm-12.89,1-.87-.22c-.12-.12.57.11.87.17Zm-1.43-.44a9.59,9.59,0,0,1-1.66-.62ZM2.53,386.48c.33.37,1,1.65,1.66,2.43A16,16,0,0,1,2.53,386.48ZM.32,372.88c.1.21-.3,1.55-.25,2.63a6.27,6.27,0,0,1,0-1.05Zm.75-3C1,370.32.66,371.46.53,372A10.12,10.12,0,0,1,1.07,369.87ZM36.69,389.3a10.82,10.82,0,0,1,.88-1.2,9.72,9.72,0,0,0,.84-1.33,6,6,0,0,1-.6,1.07C37.47,388.31,37,388.84,36.69,389.3ZM.45,380.49c.1.34.28.91.43,1.55A10.18,10.18,0,0,1,.45,380.49Zm40.68-4c-.05.56,0,.8-.09,1.45A6.79,6.79,0,0,1,41.13,376.5Zm-.93-2.37a16,16,0,0,1,.17,2.37C40.24,376.1,40.31,374.81,40.2,374.13Zm-6.29,16s.08-.14,0-.15a16.56,16.56,0,0,0,1.58-1.51A11.54,11.54,0,0,1,33.91,390.13Zm3.73-5.37a5,5,0,0,1-.63,1.18C37.14,385.64,37.43,385.15,37.64,384.76Zm-9.82,9.05c-.47.27-1.75.6,0,0Zm11.75-20.34a6,6,0,0,1,.17,1.07A8.93,8.93,0,0,1,39.57,373.47ZM19.48,395.13a7.22,7.22,0,0,1,1.19,0A8,8,0,0,1,19.48,395.13Zm18.88-25.81c.12.19.36,1,.54,1.39l-.45-1a11.42,11.42,0,0,0-.54-1.2,4.92,4.92,0,0,1,.57,1.21A2.37,2.37,0,0,0,38.36,369.32ZM13.53,393.78c.88.22,1.72.6,3.06.88-.47-.07-.9-.17-1.39-.29ZM2,377.58c.1.65.2,1.92.41,2.9a7.75,7.75,0,0,1-.24-1.22A12.92,12.92,0,0,1,2,377.58Zm25.6,16.12a12.3,12.3,0,0,1-2,.69C26,394.27,27,393.94,27.61,393.7ZM9.68,361.54c-.13.25-.69.51-1.2,1a4.83,4.83,0,0,1,.42-.45A7.85,7.85,0,0,1,9.68,361.54ZM24,358.47c-.36,0-1.24-.23-1.82-.2A7.32,7.32,0,0,1,24,358.47ZM6.68,365.08c.2-.29.24-.23.44-.47C7.08,364.72,6.69,365.18,6.68,365.08Zm24,29.71c-.51.3-.91.46-1.59.8,0,0,.16-.09.26-.15s-.07,0-.15.05A15.76,15.76,0,0,1,30.7,394.79Zm5.64-5c-.13.12,0-.1-.43.41,0,.06.48-.43,0,.15a3.59,3.59,0,0,0,.41-.43.63.63,0,0,1-.16.24.52.52,0,0,0,.18-.22c.37-.3-.31.51-.57.83s-.1,0-.08-.05c-.35.44-.56.62-.67.59.28-.25.15-.11.15-.07.35-.31.32-.4.68-.76-.54.55-2.68,2.43-3.05,2.72,0,.06-.6.38-.84.59a2.37,2.37,0,0,0,.89-.54,2.62,2.62,0,0,1-.53.42l-1.05.65c0-.05.4-.27.33-.29-.41.24-.37.27-.46.36A19.41,19.41,0,0,1,22,397.09c.55,0,0,.06-.43.09-.06,0,.11,0,.29-.06a2.5,2.5,0,0,0-.88.09l-1-.06c-1.6-.11-1,0,.87,0-.5-.06-1.61-.07-2.35-.14a2.45,2.45,0,0,1,.88,0c-.19-.06-.52-.08-.93-.15s-.9-.15-1.43-.22a14.36,14.36,0,0,1-1.65-.36,8.65,8.65,0,0,1-1.56-.51,14.66,14.66,0,0,0,3,.86,4.58,4.58,0,0,1-1.14-.24,4.74,4.74,0,0,0,1.46.38,7.9,7.9,0,0,1,1.57.3,22.59,22.59,0,0,1-5.83-1.54,23.14,23.14,0,0,1-4.89-2.95c-.26-.19-.15-.16-.32-.31-.55-.47-1.1-.91-1.6-1.41a20.83,20.83,0,0,1-1.41-1.64,22.17,22.17,0,0,1-1.34-2c-.21-.37-.46-.74-.67-1.16L2,384.76c0,.12-.2-.45-.37-.79s.16.29.18.23a10.59,10.59,0,0,1-.92-2.77A10.71,10.71,0,0,0,1.28,383a22,22,0,0,1-1-5.58c0,1.08.24,2.59,0,.88,0-.43-.09-.88-.11-1.6,0-.26,0,.1.08-.16A25.34,25.34,0,0,1,.8,371.3s-.16.63-.14.71c.18-.38.27-1.24.42-1.56s0-.12-.05-.15c.25-.59.1-.34.33-1,0,.13-.15.51-.11.57a16.64,16.64,0,0,1,1-2.29,25,25,0,0,1,1.26-2.33,3,3,0,0,0-.25.37,3.87,3.87,0,0,1,.49-.81c.25-.33.54-.69.74-1a19.33,19.33,0,0,0-2.38,3.72c-.63,1.24.72-1.61,1-1.95a20.42,20.42,0,0,1,1.61-2.24A22.18,22.18,0,0,1,11.55,358,28.05,28.05,0,0,0,8,360.32c.31-.13,1.5-1.16,1.48-1,.39-.23.31-.27.84-.57,0,.05-.19.16-.2.21a7.69,7.69,0,0,1,1.27-.73,2.51,2.51,0,0,0-.54.25c.31-.22,1.78-.91,1.32-.63a19.53,19.53,0,0,1,7.28-1.75,22.15,22.15,0,0,1,8.22,1.2c-.08-.08-.84-.31-1-.38a7.45,7.45,0,0,1,1.1.38,5,5,0,0,0-1-.43l-1.37-.34a19.63,19.63,0,0,0-2.16-.38,17.69,17.69,0,0,1,6.7,2c-.09,0-.33-.07.11.13-.38-.1-1.25-.64-1.87-.81.67.23,1.36.64,2.07,1s1.33.8,1.91,1.17c0-.08-.66-.4-.73-.49a11.07,11.07,0,0,1,1.3.88,14.22,14.22,0,0,1,1.36,1.1c.43.4.86.77,1.19,1.12l.79.85a10.88,10.88,0,0,1,1.15,1.72,8,8,0,0,1,1.3,2.26,2.59,2.59,0,0,0-.27-.51,7.52,7.52,0,0,1,.38.95c-.15-.54,1,1.83.84,1.81.21.46.25.61.44,1.06a1.39,1.39,0,0,1-.21-.37,3.57,3.57,0,0,0,.14.6,2.1,2.1,0,0,0,.2.64,14.74,14.74,0,0,0,.27,1.57,4.36,4.36,0,0,0,0,1.6c-.07-.1-.14-1-.21-1.09.05.67-.06.45,0,1.15a1.07,1.07,0,0,1-.06-.42c-.08-.28,0,.53,0,.59.09.69,0,.7.09,1.24a24.11,24.11,0,0,0-1.55-6.2l-.28-.94c-.12-.22-.19-.28-.34-.59,0,.05.22.54,0,0,.09.25.4,1,.43,1a19,19,0,0,1-1.11-2c-.29-.42-.58-.84-.88-1.29s-.7-.87-1.1-1.43l-.43-.31a11.49,11.49,0,0,1,1,1.23c.34.42.63.81.81,1.06-.23-.19.24.47.45.85a23.2,23.2,0,0,0-2.4-3.2c.35.44.12.27-.27-.09-.19-.17-.41-.41-.63-.63a6.53,6.53,0,0,1-.59-.59,2.92,2.92,0,0,1-.64-.45c.06,0,.15.07.32.23a9.9,9.9,0,0,0-1.6-1.35,12.26,12.26,0,0,0-1.07-.68,8.91,8.91,0,0,0-1.13-.62c.05,0,.25.05.51.17l.79.47a17.13,17.13,0,0,0-6.17-2.34,19.81,19.81,0,0,0-7.13.09c-.67.14-1.35.3-1.94.45a7,7,0,0,1-.79.2,18.53,18.53,0,0,0-4.7,2.47c-.12.1,0,.06,0,0a19.31,19.31,0,0,0-2.54,2.23,18.87,18.87,0,0,0-2.07,2.55,18.49,18.49,0,0,1,7.43-6.53,16.23,16.23,0,0,0-5.41,3.88,16.72,16.72,0,0,0-1.5,1.77,16.25,16.25,0,0,0-1.24,1.86,21.3,21.3,0,0,0-1,2c-.24.68-.46,1.27-.63,1.63A18.86,18.86,0,0,0,2,378a18.42,18.42,0,0,0,1.72,6.47c0-.14-.21-.43-.35-.8l-.44-1.19c.16.26.5,1.38.94,2.21.09.18.28.61.43.89s.24.42,0,.08c-.31-.53-.34-.74-.54-1.07.17.36.32.73.5,1l.53.89a6.23,6.23,0,0,0,.83,1.14,16.45,16.45,0,0,0,4.59,4.46,19.44,19.44,0,0,0,4.69,2.27,20.44,20.44,0,0,0,5.51.93c.21,0-.12,0,.13,0a4.89,4.89,0,0,0,.55.05,1.76,1.76,0,0,1,.52-.07s-.16,0-.26,0a26,26,0,0,0,3.48-.34,10.3,10.3,0,0,1,1.51-.44,17.52,17.52,0,0,0,2-.77c.05.06-.09.14-.3.23l-.79.26c.34-.1.61-.18.85-.27l.67-.31a18.57,18.57,0,0,0,1.79-.94l-.9.46c-.34.15-.72.32-1.17.55.76-.48,2.44-1.26,3.36-2l-.61.37-.7.36c.22-.14.44-.26.67-.38l.64-.4a5.83,5.83,0,0,0,1.29-.93,4.81,4.81,0,0,1-1,.81c-.37.24-.72.54-1.15.83A20.56,20.56,0,0,0,36.11,388c.26-.33.1-.24.37-.57-.16.32.33-.31.47-.53a3.7,3.7,0,0,1-.56.79c0,.14.46-.57.53-.65-.05.25-.49.67-.65.89a2.6,2.6,0,0,0,.51-.51,6.82,6.82,0,0,0,.67-1.05c0,.18.19-.08.42-.42s.42-.81.53-1a6.22,6.22,0,0,1-.55,1.13,4.38,4.38,0,0,0,.39-.6c.08.19-.45.94-.58,1.26a14.4,14.4,0,0,0,1.26-2.22c-.08.07-.31.64-.33.49.55-.85,1-2.36,1.17-2.32,0,.15,0,.08,0,0-.18.54-.38,1-.6,1.56s-.52,1-.76,1.58a9.15,9.15,0,0,0,.57-1.15c-.2.6.09-.13.15-.1-.33.76-.47.84-.64,1.28,0,.05.1-.11.08-.12A10.64,10.64,0,0,1,37.42,388l-.93,1.31-.85,1c.24-.19.58-.69.82-.84-.09-.06.26-.34.74-1.07C37,388.76,36.54,389.42,36.34,389.76Zm0-26.33c.27.31.43.73.68.95C36.78,364.06,36.59,363.6,36.35,363.43Zm-6.93-3.59a7.94,7.94,0,0,0-1.21-.56A8.86,8.86,0,0,0,29.42,359.84Zm-14.11-1.2a13,13,0,0,1,1.94-.46,5.77,5.77,0,0,0-1.23.23,6.14,6.14,0,0,0-1.35.43A5,5,0,0,0,15.31,358.64Zm9.34,38.13,0-.07c-.33,0-1,.18-.57.14C24.17,396.76,24.3,396.85,24.65,396.77Zm-4.1.3a8.73,8.73,0,0,0,1.62,0C21.59,397,21.3,397.11,20.55,397.07Zm4.92-.6a3.08,3.08,0,0,0-.72.12c-.36.05-.69.11-.58.12l.69-.08A4.53,4.53,0,0,0,25.47,396.47Zm-13.14-1.29a12.62,12.62,0,0,0-1.34-.57C11.72,395,12.39,395.29,12.33,395.18Zm21.49-3c.09-.07.14-.1.14-.07.5-.43.87-.87,1.29-1.18C35.14,390.94,33.89,392.15,33.82,392.19Zm-19.45,3.75-1.51-.54c0,.05-.28,0,.12.13C12.94,395.42,14.57,396.07,14.37,395.94Zm-4.49-2.06a6.59,6.59,0,0,0,1,.66C10.91,394.47,10.08,394.05,9.88,393.88Zm24.34-32.63c.5.42.93.91,1.08,1A9.23,9.23,0,0,0,34.22,361.25ZM39.43,369a8.39,8.39,0,0,0-.61-1.29C39.14,368.35,39.22,368.64,39.43,369Zm-.27-.33c-.15-.43.23.54.21.37-.31-.72-.58-1.29-.86-1.8A15.25,15.25,0,0,0,39.16,368.66ZM12.78,393.55l.68.32a3.33,3.33,0,0,0,.56.18C13.62,393.94,13,393.59,12.78,393.55Zm18.55-32.76c.19.15.55.39.41.37l1,.73c.3.25.51.42.42.27S32,361.19,31.33,360.79Zm5,4.86c-.94-1.25-.7-.75,0,0Zm-23.55-6.11a3.13,3.13,0,0,0,.7-.38c-.33.17-.84.36-.84.4S12.8,359.51,12.79,359.54ZM34.63,364c-.11-.12,0-.07,0,0-.27-.31-.79-.83-.92-1,.34.31.18,0,.49.45.1-.11-1-1-1.16-1.11.2.2.67.57.69.64-.42-.37,0,.11-.35-.19C33.86,363.15,34.49,363.88,34.63,364ZM5.94,388.07c.1.05.81.95.89,1C7,389.36,6.14,388.3,5.94,388.07ZM1.79,368.38c0-.19.26-.54.4-.94,0,0,.05,0,.1-.12A10.74,10.74,0,0,1,1.79,368.38Zm33.07,23.16s-.1.11-.11.1a10.37,10.37,0,0,1-1.09,1c0-.07.63-.54.31-.31,0-.05.36-.34.44-.39a1.49,1.49,0,0,0,.18-.23s-.48.49-.25.17c-.37.3,0,.12-.4.42a5.09,5.09,0,0,1,.92-.93C34.75,391.54,34.68,391.67,34.86,391.54ZM0,377c.1,0,.15.44.18,1.15,0,.32-.07-1.18-.15-1a28.37,28.37,0,0,0,.37,3.27c.07.46.21.9.33,1.4l.19.79c.09.28.2.57.32.89,0,.13-.33-.74-.42-1.09a1,1,0,0,1,.09.27A23.23,23.23,0,0,1,0,377Zm40.23,5.08c-.34,1.07-.78,1.95-.22.55.13-.4.23-.67.37-1.25,0,0,0,.05,0,.14s0,0,.05-.14a9.27,9.27,0,0,1-.54,1.8C39.9,382.91,40.15,382.54,40.23,382.08ZM22.7,356a5.45,5.45,0,0,1-1,0C21.94,356,22.13,356,22.7,356Zm17.36,14.56a.81.81,0,0,0,.09.27c.11.38,0,.17,0,.46C40.15,371.32,40,370.49,40.06,370.59ZM36,388.1c-.19.38-.44.51-.81.93C35.35,388.72,35.68,388.48,36,388.1ZM25.8,394.48c.16-.05.11-.08,0,0,.63-.12,1.36-.47,2.15-.72-.2.15-1.51.52-1.33.59C26.31,394.44,25.18,394.58,25.8,394.48Z"/></g></g></g></svg>