<svg xmlns="http://www.w3.org/2000/svg" viewBox="0 0 2138.37 1086.01"><defs><style>.cls-1{fill:#8dcee2;stroke:#003245;stroke-miterlimit:10;stroke-width:0.5px;}.cls-2{fill:#003245;}</style></defs><g id="Layer_2" data-name="Layer 2"><g id="Layer_2-2" data-name="Layer 2"><rect class="cls-1" x="4.04" y="0.25" width="2129.39" height="261"/><rect class="cls-2" x="5.15" y="196.25" width="2129.39" height="884"/><path class="cls-2" d="M1038.51,1086c19,0,52.55,0,68.11-.11C1048.9,1085.8,943.43,1086,1038.51,1086Zm259.35-.17c6.2-.18,25.88-.2,47.45-.19-.12.06-1.93.1-4.9.13l-11.76,0Zm-328,0c-37,.11-64.57.1-109.28,0,12.22-.07,18.38-.23,33.64-.27C873.5,1086,958.8,1085.6,969.87,1085.85Zm402.72-.22c1.56-.18,25.3-.09,26.87-.27-2.1-.23-11.54.12-27.32,0,11.37-.15,24.31-.28,47.25-.28-7.42.11-5.6.18,7.19.17a5.47,5.47,0,0,1-1.31.11l-3.63.09-12.71.1Zm-615,0c-23.06.19-84.43.13-109.24,0C677.84,1085.42,721,1085.73,757.59,1085.65Zm252.54-.16c-6.77.11-71.35.24-68.49-.07Zm-7.35-.27c-5.51-.42,108-.08,163.58-.22C1115.22,1085.44,1058.41,1085,1002.78,1085.22Zm-607.65.29h-41c-7.08-.31,26.64-.13,40.64-.19A3.51,3.51,0,0,1,395.13,1085.51Zm-68.6-.15-44.8.13-25.66,0c-6.9,0-11.47-.08-11.69-.17ZM.07,677.16c.31,22.37.21,89,.22,136.22C.09,770.34.14,737.92.07,677.16ZM173.56,191.22c-9.25.51-72.79-.08-122.75.13.13,0,1.59,0,4.13-.06l10.55,0,33.92,0Zm143.4,0c-20.92.5-76.09.12-102,.21C222.87,191,286.18,191.29,317,191.18ZM1485.79,1084.1c45.35-.39,92.72.26,143.41,0C1614.28,1084.48,1539.43,1084.07,1485.79,1084.1ZM.41,382.61c.17,16.37.21,44.18.2,74.77C.4,444.41.42,412.45.41,382.61Zm2134,701.19-68.45-.06C2072.78,1083.62,2137.35,1083.49,2134.42,1083.8Zm.59-119.64c.26,30.21,0,80.85,0,116.09C2134.66,1060.65,2135,997.49,2135,964.16ZM1364.6,1078.09c-1.15-.16,8-.19,6.16-.35,27.32.32,74.35.37,110.46.58C1448,1078.58,1422,1078.21,1364.6,1078.09Zm333.81-.55c-9.13.08-46.68.18-68.3,0C1646.43,1077.31,1676,1077.43,1698.41,1077.54Zm-698-.47c-27.56.37-95.24-.13,0,0ZM2132.9,927.33c.18,5.52.1,47.33,0,54.63C2132.66,971.54,2133,951,2132.9,927.33ZM563,1077c17-.26,32.38-.1,61.26-.11C606.88,1077.08,581.8,1077.13,563,1077ZM2132.65,709.11c.2,11.3,0,52.09.11,75-.27-44.67-.38-63.2-.39-122.26.3,11.42,0,37.71.2,68C2132.67,728.48,2132.64,717.18,2132.65,709.11Zm-1883.86,368c45.85-.39,93.22-.23,163.42-.32C363.81,1077.18,320.78,1077.07,248.79,1077.14ZM8,251.46c.43,33.44,0,98.55.14,150.11C7.84,361.61,8.1,321.74,8,251.46Zm984.17,824.91c-22.49.21-74.92.06-109.09.12C905.61,1076.28,958,1076.44,992.17,1076.37ZM901.11,199.76c-13.44.42-44.18.15-81.62.2C824.32,199.82,871.31,199.55,901.11,199.76Zm781.35,1.15c-18,.21-65.83.05-95.47.12C1613.21,200.8,1647.87,200.85,1682.46,200.91Zm-1023.38.86c19.13-.08,17.91.11,34.27.07C687.68,202,655.76,202.12,659.08,201.77Zm446.86,883.77c-27.09.19-46.69,0-81.81.12a1.38,1.38,0,0,1,.38,0l1,0,3.41,0,8.75,0c1.07-.07-2.85-.08-7-.08C1038.13,1085.34,1083.6,1085.4,1105.94,1085.54Zm352.68-1.34c-7.91-.08,3.77-.25-27.63-.17-.83.25,30,.25-6.31.27,2.32.12,17.24.07,27.47.08-2.85.08-5.67.16-13.32.18,2.67.12,12.07,0,13.51-.1,21.69.3-27.43.46-46.76.55-17,0-2.59-.3-.72-.35-26.22.07-38.93.15-41.48-.25,17.47,0,8.49.06,7.2.17,21.61,0,23.77-.17,47.63-.1-35.92-.49-169.63-.2-191.23.06-2.48.16-33.07-.29-47.84,0,5.64.23,22.42.3,48.37.25,9.39.18-64.27.07-88.62.12.42-.17,22.45-.07,20-.27-22.07-.07-21.08.14-26.83.27l-444.27,0c25.61.17-1.18.19-20,.27-2.81-.15,5-.17,13.32-.18-5.48-.12-15.47-.12-24.18-.06s-16.13.16-16.46.25c-12.51-.17-24-.14-48.13-.16-74.46-.08-46,0,40.6-.19-23.33-.2-75,0-109.43,0,9.36-.34,22.1-.24,40.79-.11-36.11-.82-172.75,0-267.18-.35,33.1.25,92.76.13,143.79.13-12.33.3-27.48.07-54.49.11,18.34.63,120-.19,144.47.48L.81,1084.59v-26.21c-.06-15,.16-10.05.17-20.85-.53-135.61.17-250.9,0-444.23-.33,4.76.05-23.06-.19-40.64.07-18.64.2,15.22.35,13C1.08,506.93.68,499.32,1,429.23c.07,34.17-.09,55.33,0,75.11V237.8c-.2,50.53,0,121.76-.16,41.36-.05-20.28-.16-41.25-.12-75,0-1.93,0-3.29.06-4.21,0-1.27,0-1.94.05-2.21,0-.54,0,.51.07,1.54,0,2.1.09,4,.17-6.33v-.71l134.36-.16c40-.06,77.3-.14,114.23-.35-1.4.18-29.95,0-33.79.18,19.18.3,59.13-.18,75.27.07,9.24,0,5.24-.23,6.16-.36,29.8.1,16.59-.1,47.64-.1-5.9.16-24.85.15-26.63.36,71.68,0,156.91.15,239-.08-1.34-.1-12.57-.07-20.67-.08,15.83-.33,67,.12,102.28-.12-36.11-.34-148.85,0-205.59-.28-64.11-.11,81.36-.13,102.28-.13,169.06.05,340.17.51,533.73.36-38.51.41-136,.11-197.7.24,15.17.32,88-.1,82.64.32,21.23,0,19-.28,47.44-.19-2.16.12-11.72.14-13.13.27,28.77-.12,36.72-.05,68.31,0-2.33-.12-17.24-.07-27.47-.08,17.73-.17,93.22-.16,68.45.06,209.88-.08,482,.81,745.77.46-4.64-.21-42,0-48.13-.16-13.55-.06,45.32-.07,54.64,0-11.23-.38-84.93-.22-116.63-.22l-102.42,0c96.26-.44,204.13-.26,327.45-.28-4,.08-15.26.33,7.38.26-18,.21-65.82.05-95.47.12l212.25.19c-3.27-.19-36.27,0-41.32-.16l96.87,0c0,39.1-.06,80-.08,115.81,0,34.6,0,64.24,0,82.17.22,13.7-.59,73.6-.67,97-.12,39.79.44,106.5-.39,123.77.06-6.2.09-15.6.07-27.47-.22,10.12-.18,39.69-.42,48.66.35-26.17.57,99.51.12,95.43.18,23.9.11,31.4.19,54.3-.12-3.58-.21-10.2-.27-20-.21,9.77-.52,48.16-.15,61.78-.08,29.49-.59,27.48-.41,76-.53,8-.74,38.85-.86,76.86-.21-5.48,0-47.6-.19-54.29-.2,33-.52,21.61-.6,55.85-.05-.68-.08-5.72-.08-10.64,0-2.45,0-4.88,0-6.71s0-3.07.07-3.16c-.15-14.42-.31,25.8-.52,28.35.21,34.55,0,34.73.11,61.3-.77-74.39-1-217.3-1.16-318.94.1-17.46.14-39,.34-48.47,0-12.94-.2-16.82-.19-33.83-.12,1.64-.15,28.69-.17.38-.07,13.47-.25,52.09-.16,55-.19-.82-.3-17.93-.36-40.71s0-51.22,0-74.7c-.18-52-.59-101.29-.41-170-.15-9.18-.31-18.8-.44-26.44.13,50.1,0,117.76.4,149.53-.41-14.88-.16,26.63-.25,48.36-.45-40.22,0-152-.33-204.4-.25,57.64-1-56.7-.56-101.37-.07-.23-.13-4.72-.2-11.95s-.1-17.19-.16-28.38c.11,2.81.18,8.41.18,20.17.07-17.1.16-38.18.25-62H1960.22c3.62-.36,44.71-.26,74.61-.29-192.15-.27-479.54.57-709.74.49l-102.81-.14c-21.19,0-27-.23-41.66-.34l-273.54-.08c-7.72,0-3.61.09.19.08l-341.84-.06,512.38-.08c-89.61-.53-218.18-.21-342.18-.24l-232.52-.1c-77.06,0-164.08.24-205.06,0L7.86,199c0,142.68,0,269.89.08,414.81.12-14.65.06-67.54.06-109.4.15,15.11.16,74.89.12,122.75,0,20.89-.09,96-.16,55-.06-31.66.11-41.48,0-61.49C7.8,703,7.81,776,8,805c-.16,21.62-.2,62.36-.18,111.73,0,48.53.07,105.54.11,160.73h603.7c10.66,0-6.28-.15,6.51-.18l27.81.25c10.65,0,5.29-.27,27-.18l-.37,0-1,0-3.4,0-8.72,0c50.94.25,141.31,0,178.45.38,21.46-.44,128,0,191.05-.15,1.44.57-30.64.18-61.11.2,71.64.39,87.48.05,185.07.29-31.89-.2-65.37-.38-116.81-.31,45.66-.54,139.57-.09,198.24,0l-76.14-.5c53.34-.15,101,.82,158.44.65-43.87.25-84.24-.25-136.6,0,111.83.52,232.86.46,337.08,1.12,21.16.06,12.63-.24,33.83-.18-17.62.26,22.26.29,35,.42-3.3.16-33.1-.08-47.94-.07-5.63.35,36.15.05,41.52.25-12,.24-41.36,0-54.83-.07.21,0,4.17.13,10.54.2l25,.21c19.67.13,43.6.2,61.11.08-15,.67,62.78.59,83.33.68-6.85.2-42.85,0-61.26.11l34.66.25c-6.47.51-50.91.22-67.43.46l123.63.31c-4.65-.18-34.55,0-28-.34l80.46.35,31.48.2,9.31.13,2.52.07a4.81,4.81,0,0,1,.88.08c-7.72,0-3.61.09.16.09-53.81.14-104-.38-164.23-.12,12.71.29,29.87,0,61.65.07-30.07.33,7.45.08,7.49.35-39.42.14-46-.22-68.45-.07-1.6.16,6.81.18,7,.09-40.07.68-189.83.49-257.78,1,14.07.19,42.3-.17,55,.15-.21-.22,4.88-.21,15.11-.18s25.61.1,46,0C1515,1083.89,1476.84,1083.8,1458.62,1084.2ZM2138,411.56c0,19.22-.41,39.91-.16,55C2137.82,447.52,2138.23,425.14,2138,411.56Zm-165.33-212.5c-30.55.07-54.1-.22-68.1.11C1928.83,199.22,1975.74,199.22,1972.66,199.06Zm-743.91.5c-1-.08,18.75-.09,41.67-.06l60.95.12c-24.12-.28-101.81-.3-136.9-.13C1204.67,199.48,1223,199.8,1228.75,199.56Zm-418,885.29-.53-.27c-15.64-.06-45.51.12-27,.19C788.64,1084.51,793.86,1085,810.71,1084.85Zm-191.92-.29c24.43.09,35.08.37,75.64.24C667.79,1084.39,653.71,1084.74,618.79,1084.56Zm232-.16c1.83-.26-72.21-.28-61.64-.07C803.9,1084.43,839.85,1084.52,850.81,1084.4Zm-629-.15c-22.34.27-60-.17-67.78.28C192.29,1084.6,226.76,1084.53,221.82,1084.25Zm1072.43-.26c5.36,0,8.06.07,7.15.17,30.82,0,57.83-.26,82,0C1379.86,1083.79,1298,1084,1294.25,1084Zm-970.16.14-75.15,0c-.42.22-12.51.28,7.5.35C252.68,1084.11,334.59,1084.32,324.09,1084.13Zm-232,.16c11,.36,37,.12,55.13.25.17-.09-2.44-.13-6.63-.16l-16.14,0C112.08,1084.35,98.13,1084.37,92.06,1084.29ZM2138,268c.13,30.48-.24,61.26.11,68.15C2138.1,317.81,2138.2,252.82,2138,268Zm-.91,446c-.06-20.66.1-59.09-.11-68.14C2137.08,680.19,2136.76,694.77,2137.12,714Zm-.53-19.48c.12-22.07,0,27.85.27,20-.15-37.36.06-67.57-.12-95.42C2136.76,644.69,2136.35,674.33,2136.59,694.5ZM208.69,1077.59c20.65-.06,59.05.09,68.1-.11C256.14,1077.54,217.78,1077.39,208.69,1077.59ZM2080.88,198.5c12.17,0,34-.1,27.7.16h23.56c0,16.47.06,34.43.09,46.68.05,12.88.13,19.76.27,13-.1-3.81-.12-12.26-.12-23.3,0-10.44,0-23.33,0-36.71h-25.81Zm51.7,298.9c0-79.14-.46-51.51,0,0ZM1091.47,199.26l27,0,9.71-.05c2.41,0,3.85-.06,3.93-.12-9.57.05-21.36,0-30.83,0l-11.91,0c-3,0-4.89,0-5,.05C1089.64,199.1,1092.38,199.16,1091.47,199.26ZM2131.4,376.71c0-8.3.1-4.38.18-.34.05-20.89-.13-58.6.06-68.49.05,23.28.24,8.25.1,34,.05-.1.09-1.31.13-3.39s.05-5,.08-8.52c0-7,0-16.44.06-26.1,0-19.31-.08-39.65-.21-44.14,0,14.27.13,44.67-.07,48,0-28.57-.28,4.57-.36-19.82C2131.33,318.49,2131.25,368,2131.4,376.71ZM7.93,832.52c.32,5,.09,64.15.19,68C7.73,917.37,8.18,848.31,7.93,832.52Zm385.4-640.75c7.88-.34,28.05,0,47.49-.19-.91.1,1.78.15,7.15.17C440.52,191.88,418.75,191.8,393.33,191.77Zm957.27,893.08c-.56.05-2.24.06-3.8.06s-3,0-3-.06c-17.77.1-41.7.12-68.11.11,2.21-.26,38.7,0,20.13-.18.61-.22,23.06,0,27.32,0,6,0,12.1-.08,13.32-.18-.88-.17-31.51.16-14-.17-22.29-.1-4.64.28-27,.18,3.8-.29,32.23-.29,61-.28C1347.25,1084.55,1340.63,1084.75,1350.6,1084.85ZM.1,219.23a23.69,23.69,0,0,1,.23,3.91c.06,2.49.11,6.13.14,10.77.08,9.3.1,22.67.08,39.09-.16,14.83,0-54.72-.36-47.11.19,132,0,174.42,0,300.71-.35,4.83-.12-37.33-.2-54.34.06-.3.11,8.68.1,13.51Zm1867,864.13c-53.16-.13-99.32-.33-27.86-.25,19.6,0,33.53.19,61.84.16,1.41.07-2.51.08-6.67.09-1.09.07,2.82.08,7,.08-22.64.24-56.5-.13-89-.06C1824.51,1083.11,1845.05,1083.47,1867.05,1083.36ZM1603.39,192c19.6-.16-33.21.39-47.68.1C1567.82,192,1576.61,192.06,1603.39,192Zm533.94,603.57c0,8,0,12.14.09,13.51,0,18.75-.33,7-.35,21.19,0,0,0-.72,0-1.84s0-2.71,0-4.59c0-3.74,0-8.63,0-13.32C2137.1,801.14,2137.19,792.56,2137.33,795.56ZM1509.6,1078.83c-20.92.31-34-.25-61.86-.15C1466.15,1078.41,1486.13,1078.87,1509.6,1078.83ZM891,1077c8.52,0,6.54-.18-.34-.18l116.28.05c-12.07.28-82-.14-74.47.38C916.57,1077.25,858.85,1076.85,891,1077Z"/><path class="cls-2" d="M439.06,99.71l18.66-22.65a112.94,112.94,0,0,1-30.9,11.28"/><path class="cls-2" d="M444.05,89.13a2,2,0,0,0-.41.58C444.06,89.28,444.68,88.38,444.05,89.13Zm-1.64,2.13c0,.1-.09.27-.24.44C442.08,91.61,442.29,91.42,442.41,91.26Zm2.15-2.63a5.28,5.28,0,0,1,.7-.88c-.05.12,0,.22-.11.35C445.13,87.81,444.73,88.62,444.56,88.63ZM442,91.92c.05.07-.14.23-.08.3s0-.13.18-.22a.82.82,0,0,1-.2.46c0-.09,0-.1-.12,0C441.65,92.36,441.85,92.13,442,91.92ZM446,87a3.13,3.13,0,0,1,.71-.88C446.65,86.44,446.24,86.68,446,87Zm-1.59,2.07c0-.09.37-.65.47-.53C444.74,88.81,444.6,88.84,444.44,89.07Zm.14,0c.21.1-.67.89-1,1.38C443.76,89.92,444.31,89.61,444.58,89.09Zm3.89-4.94.27-.33c.16,0-.13.25-.2.38Zm.51-.5c0-.12.43-.73.57-.64Zm4.78-5.78c0,.28-.51.78-.81,1.16A8.07,8.07,0,0,1,453.76,77.87ZM455.67,81c0-.27.7-.31,1.13-.65C456.83,80.4,456,80.76,455.67,81Zm-1.35.69c.09-.33.7-.4.92-.57C455.26,81.3,454.59,81.46,454.32,81.65ZM441.84,93.31c-.15.49-.71.66-.93,1.16C440.85,94.21,441.5,93.75,441.84,93.31Zm14-17.68a2,2,0,0,1-.42.66A1.65,1.65,0,0,1,455.83,75.63Zm-18.14,23c.21-.17.23-.32.47-.52C438.16,98.15,437.79,98.71,437.69,98.58ZM428,88.32a3.86,3.86,0,0,1-1.17.27C427,88.36,427.71,88.39,428,88.32ZM445,94.25c.07,0,0,.12.09.16a6.76,6.76,0,0,0-.95.7C444.22,94.76,444.53,94.67,445,94.25Zm-2,2.84a1.38,1.38,0,0,1,.44-.55C443.41,96.75,443.16,97,443,97.09Zm4.78-5.42c0-.34.67-.72,0,0Zm-19.56-4.46c0,.1-.47.15-.55.12C427.72,87.19,428,87.32,428.19,87.21Zm22.45,1c0,.22-.18.29-.36.53A1.12,1.12,0,0,1,450.64,88.18Zm-20.3-1.6c-.09.13-.51.15-.73.23a3.75,3.75,0,0,1,1.17-.48c-.08.18-.37.11-.65.26C430.15,86.64,430.26,86.6,430.34,86.58Zm22.32-.94a5.44,5.44,0,0,1-1,1.41A6,6,0,0,1,452.66,85.64Zm3.28-9.25c.16-.29.65-.43,1.07-.63l6.69-3.32L458.86,78a2,2,0,0,0-.18.23,1.38,1.38,0,0,1,.14-.27l4.06-6.06L457,75.8C456.76,76,456.4,76.1,455.94,76.39Zm-7.87,15.43a6.13,6.13,0,0,1,.67-.91A5.24,5.24,0,0,1,448.07,91.82Zm-1-11.58c0-.25.38-.24.72-.42A1.07,1.07,0,0,1,447,80.24Zm-7.63,2.27c.14-.15.63-.23.9-.37A2,2,0,0,1,439.4,82.51Zm9.48-4.17c-.16.12-.19,0-.33.11C448.56,78.34,448.84,78.17,448.88,78.34Zm-5.1,11.48c.11-.28.29-.39.5-.69,0,0,0,.09-.06.13s0,0,.08,0S444,89.68,443.78,89.82ZM442,93.06c.08,0,.07.11.25-.17-.09-.08-.29.16-.06-.13-.06,0-.14.11-.21.19a.16.16,0,0,1,0-.16c-.06,0-.08.09-.05.14-.26.07,0-.37.1-.55s.13.07.14.11c.14-.24.2-.36.37-.26-.11.15-.08,0-.12,0-.15.16-.09.24-.27.41a3.44,3.44,0,0,0,1.23-1.55c0-.07.33-.17.31-.38-.12,0-.26.08-.41.3-.13,0,.4-.53.54-.74.06,0-.12.2,0,.24.17-.15.08-.21.07-.3,1-1.22,1.79-2.24,2.94-3.53-.24.15-.07-.08,0-.25.08,0,0,.09,0,.16.17,0,.26-.32.2-.38.15,0,.21-.15.38-.33.52-.57.28-.39-.2.38.23-.12.5-.6.74-.86.07.18-.05.26-.23.36.56,0,1.15-1.37,1.9-2a5.93,5.93,0,0,0-1,1.11c0-.2.16-.24.32-.47-.36-.06-.72,1-1.14,1,1.36-1.54,2.6-2.81,3.77-4.24.08-.13.13,0,.21-.11.69-1.25,1.71-2,2.93-3.54-.16-.06.17-.16.19-.38s0,.18.06.21c.35-.49.24-.68.84-1.13-.2.3-.4.42-.48.61.27-.29.58-.65.89-1l2.5,3c-.46.24-.91.5-1.24.69.51-.16,1.13-.6.42-.13a3.59,3.59,0,0,1-.67.42c-.16,0,0-.1-.15-.12a17.06,17.06,0,0,0-2.19,1.4c0-.09.28-.15.28-.24-.25,0-.52.36-.73.32s0,.12,0,.19c-.31.09-.14.12-.43.26,0-.09.2-.18.17-.28-.67.35-1.52.65-2.26,1.11,0,0,.13,0,.21-.06-.08.22-.66.25-1,.51.41,0,1.42-.67,2-.78s-.75.42-1,.51c-1.63.73-3.38,1.23-5.25,2.07a10.13,10.13,0,0,1,1.89-.91c-.21-.08-.84.4-.87.19-.21.08-.13.21-.42.28,0-.06.08-.11.07-.18a2.49,2.49,0,0,1-.66.29s.18,0,.28-.07c-.14.14-.88.43-.68.23-2,.86-4.87,1.44-7.46,2.45.08.08.42-.15.51-.08s-.44.18-.54.18c.17.15.88-.17,1.2-.28s.64-.25,1-.35a15.63,15.63,0,0,1-3.23,1.2c0-.05.1-.21-.12-.1.16-.16.66-.23.95-.36-.69.15-1.49.45-2.17.57.06.08.37-.12.44-.05-.86.26-2.4.58-2.91.79-.11.15-.83-.08-1.07,0-.42,0-1,.49-1.31.13a.66.66,0,0,0,.29,0c-.13-.08-.43,0-.55-.08.31.11-.94.54-.95.3a2.38,2.38,0,0,1-.53.22.28.28,0,0,1,.17-.17c-.12-.09-.55-.15-.65.07-.3,0-.34-.22-.81,0-.14-.24-.48-.28-.88-.25,0-.12.49-.1.53-.22-.35,0-.27-.2-.63-.16,0-.06.19-.11.21,0,.13-.1-.29-.09-.34-.19-.33.18-.35.09-.61.18a12.09,12.09,0,0,1,3.08-1.28,1.1,1.1,0,0,1,.53,0c.12-.06.14-.14.31-.18,0-.05-.3,0,0-.09-.15,0-.55,0-.57.06,0-.18.63-.38,1.1-.47a5.19,5.19,0,0,1,1.63-.64,2.64,2.64,0,0,0,.21-.29,6.29,6.29,0,0,0-1.43.59c.1-.24-.28,0-.51,0,.34-.32,1.5-.4,2-.69-.6,0,.41-.66.92-.55,0-.06.14-.18.34-.29,0,.06-.05.12-.17.15a8.18,8.18,0,0,0,2.38-.57c0,.18-.4.26-.69.36,1.92-.44,4.57-1.76,6.77-2.56.34-.12.72-.17,1-.3s.3,0,.45,0c1.06-.45,1.63-.62,2.61-1,.07,0,0,0,0,0,.93-.44,2.33-1,3.21-1.37a43.32,43.32,0,0,1-4.79,2.09,13.28,13.28,0,0,0,3.26-1.24c.75-.32,1.5-.62,2.19-.93a12.84,12.84,0,0,1,1.9-.89c1.62-.83,2.93-1.51,4.26-2.22l6-3.24-4.33,5.29c-.5.62-1,1.25-1.55,2A5.29,5.29,0,0,0,458,79a4.61,4.61,0,0,1-.76,1c-.14.17-.66.74-.42.39s.32-.29.4-.49A6.14,6.14,0,0,0,456,81.42a19.86,19.86,0,0,0-2.19,2.6c-1.12,1.32-2.27,2.93-3.64,4.42,0,.09.1,0,0,.11a1.46,1.46,0,0,1-.28.14c-.06.1.07.13-.11.27,0,0,0-.09.06-.13-.43.33-.92,1.14-1.32,1.3,0,.31-.84,1-1.2,1.57-.23-.16.13-.3.32-.55-.62.45-.59.69-1.33,1.39a3,3,0,0,0,.89-.83c-.09.53-.88,1.14-1.31,1.57a3.86,3.86,0,0,0,.69-.45c-.29.47-1,.55-1.29,1.06.19-.43.65-.59.88-1.1-.93.72-1.7,1.71-2.65,2.33-.16.15,0,.18-.15.33,0-.22-.26.08-.39.15s.25-.24.34-.36c-.09-.16-.26.27-.37.25s.29-.32.39-.42c-.09-.06-.68.26-.83.62-.15-.33-.64.31-.8.45,0-.12.26-.36.36-.53-.11,0-.22.17-.33.2-.15-.21.25-.48.27-.68a10.71,10.71,0,0,0-.94.88c.1,0,.24-.27.32-.11-.43.3-1,.87-1.14.73,0-.07,0-.06,0,0,.3-.47.83-.71,1.13-1.27-.2,0-.2.24-.43.47.07-.35-.08,0-.19,0,.21-.36.39-.3.48-.53,0-.06-.11,0-.08,0,0-.53,1.06-1.67,1.33-2.36-.17,0-.22.39-.43.39.18.13-.14.15-.32.55C441.73,93.61,442,93.33,442,93.06Zm-8-4.66c-.19.06-.46-.09-.58.07C433.61,88.42,433.89,88.55,434,88.4Zm2.88-4.1c.29-.12.56-.06.65-.26C437.28,84.09,436.82,84.23,436.88,84.3ZM444,81.58c0,.07-.75.29-1,.34a2.85,2.85,0,0,0,1.33-.43C444.21,81.53,444,81.45,444,81.58Zm2,6.1.11.08c.13-.11.25-.4.1-.27C446.27,87.61,446.06,87.51,446,87.68Zm1.38-1.44c-.2.17-.38.16-.59.53C447.11,86.68,447.07,86.46,447.37,86.24Zm-1.47,1.9c.09.1.58-.49.43-.47A1.45,1.45,0,0,0,445.9,88.14Zm4.2-5c0-.27.46-.43.33-.63C450.16,82.82,450,83.12,450.1,83.17Zm-7,8.64s-.08,0-.11,0c-.22.23-.28.54-.53.66C442.66,92.56,443.1,91.83,443.14,91.81ZM449.47,84l.49-.61c-.09-.07,0-.18-.19,0C450,83.46,449.33,84.05,449.47,84Zm1.46-1.9c-.21,0-.28.26-.45.36C450.6,82.59,450.79,82.16,450.93,82.12ZM435.46,88c-.29.16-.66.06-.68.25C435,88.19,435.63,88.05,435.46,88Zm-4.64.76c.2-.08.61-.1.68-.23C431.16,88.67,431,88.55,430.82,88.77Zm.14-.31c.23,0-.28.09-.18.18.37-.16.7-.14,1-.3C431.48,88.41,431.13,88.3,431,88.46Zm21.79-3.28c-.11.18-.42.44-.4.58C452.46,85.57,452.77,85.32,452.75,85.18Zm-16.85-.29c-.12,0-.32.15-.3,0-.33.11-1,.32-.81.44C434.87,85.13,435.56,85.18,435.9,84.89ZM432.44,86c.78-.22.45-.36,0,0Zm12.89-4.81c-.17.07-.39.13-.35.24.16-.12.47-.12.45-.19S445.34,81.26,445.33,81.21Zm-11.85,3.91c.08,0,0,0,0,.09.22,0,.56-.22.69-.16-.23.09-.05.14-.32.14.06.19.76,0,.81-.19-.14,0-.42.18-.48.1.28-.1-.08-.13.15-.23A2.71,2.71,0,0,0,433.48,85.12Zm22.29-3.51c.09.15-.39.54-.37.61C455.13,82.23,455.76,81.82,455.77,81.61Zm-2.3.12c0,.19-.27.13-.42.31A.07.07,0,0,0,453,82C453,81.9,453.22,81.84,453.47,81.73ZM442.44,92s0-.07.05,0a2.53,2.53,0,0,1,.4-.58c.09.1-.23.32-.06.22.08.07-.14.19-.18.22s0,.12,0,.16.15-.3.16-.06c.19-.14-.08-.13.11-.27.09.12-.1.35-.29.58C442.58,92.06,442.55,91.94,442.44,92Zm15-11.94c-.08-.17.08-.32.39-.47s-.5.27-.35.39c.57-.35,1-.57,1.35-.77l-3-3.69-1,1.2c-.17-.07.2-.33.28-.49,0,0,0,.1-.05.13a10.52,10.52,0,0,0,.75-.88l3.13,3.8C458.45,79.53,457.94,79.82,457.48,80.05ZM439.62,96.59c.4-.39.78-.69.28-.14a2.61,2.61,0,0,0-.47.44s0,0,0-.08-.05,0-.08,0c.06-.26.43-.41.61-.69C440,96.33,439.72,96.38,439.62,96.59Zm2-10.12c-.17.14.27-.3.46-.22C442,86.36,441.88,86.34,441.62,86.47ZM430,89.06c-.08,0-.12,0-.13.08-.18.07-.1-.14-.25-.12S430,88.92,430,89.06Zm13.71,6.11c0-.26.32-.19.46-.44C444.17,95,443.86,95,443.72,95.17Zm4.77-4.36c-.05.08,0,.11.07,0-.22.26-.49.6-.79.92,0-.19.6-.61.35-.72C448.23,90.94,448.76,90.61,448.49,90.81Z"/><path class="cls-2" d="M417.67,89.6a14.57,14.57,0,0,1-17.74-6.55,14.06,14.06,0,1,1,22.22,3.65"/><path class="cls-2" d="M401.74,89.57a4,4,0,0,0,.93.63C401.93,89.62,400.52,88.6,401.74,89.57Zm3.64,2.12a1.73,1.73,0,0,1,.75.21C406.07,92,405.67,91.81,405.38,91.69Zm-4.45-2.9a6.13,6.13,0,0,1-1.28-1.27,4.93,4.93,0,0,1,.47.32C399.73,87.75,400.87,88.59,400.93,88.79Zm5.6,3.28c.05-.07.4.09.45,0s-.2,0-.41-.14a2.53,2.53,0,0,1,.76.11c-.13,0-.11.06.08.12C407.36,92.33,406.91,92.19,406.53,92.07Zm-7.86-5.95a5.09,5.09,0,0,1-1-1.52C398.06,85,398.26,85.67,398.67,86.12Zm2.87,3c-.13,0-.94-.69-.8-.77C401.13,88.62,401.19,88.82,401.54,89.09Zm0-.18c.07-.22,1.37,1.06,2.19,1.43A9.79,9.79,0,0,1,401.53,88.91Zm-5.24-8.24-.16-.66c.13-.14.16.41.24.63Zm-.15-1.11c-.08-.17-.31-1.3-.14-1.33C396.06,78.9,396.08,79,396.14,79.56Zm2-11.22a19.09,19.09,0,0,1-.83,2A9,9,0,0,1,398.14,68.34Zm7.7-7c0,.3-1.12.41-1.77.95a2.54,2.54,0,0,1,.67-.44Zm2.2-.75c-.27.3-1.16.41-1.54.59C406.55,61,407.57,60.77,408,60.63Zm.42,31.26c.72,0,1.37.46,2.18.39a1.52,1.52,0,0,1-.89,0C409.34,92.13,408.87,92,408.46,91.89Zm-7.34-27.22a5.42,5.42,0,0,1-.75,1A3.64,3.64,0,0,1,401.12,64.67Zm17.21,26.58c-.4.08-.54.22-1,.32C417.4,91.48,418.32,91.09,418.33,91.25Zm5.07-5.58c-.14.42-.75.84-1.07,1.21C422.37,86.53,423.13,86.05,423.4,85.67ZM407.77,88.5c0-.08.13,0,.14-.13a6.44,6.44,0,0,0,1.24.71C408.71,89.08,408.43,88.81,407.77,88.5Zm4.14.64a1.6,1.6,0,0,1-.84-.07A1.56,1.56,0,0,1,411.91,89.14Zm-7.77-3.36c-.37-.09-.81-.83,0,0Zm18.72-1.15c0,.11-.32.51-.41.56C422.43,85,422.73,84.91,422.86,84.63ZM401,81.6c.2.14.2.33.35.64A1.43,1.43,0,0,1,401,81.6Zm23.13.56c0,.18-.28.61-.38.89a9.63,9.63,0,0,1,.47-1.5c.08.19-.14.46-.25.83C424.06,82.39,424.11,82.25,424.17,82.16ZM400.07,78a16.73,16.73,0,0,1,.49,1.91,2.92,2.92,0,0,1-.32-.82C400.19,78.74,400.14,78.39,400.07,78ZM405,66.35c-.2.39-.91.76-1.32,1.24a1.64,1.64,0,0,1,.51-.58Zm-.7,19.1a4.8,4.8,0,0,1-1-.85C403.56,84.74,404,85.19,404.29,85.45ZM416.05,65c-.22.17-.52-.1-1-.15A1.35,1.35,0,0,1,416.05,65Zm6.58,5.89c-.21-.12-.37-.64-.6-.88C422.31,70.15,422.45,70.53,422.63,70.87Zm-9.53-5.42c.22,0,.2.08.38.08C413.41,65.61,413.05,65.61,413.1,65.45Zm-10.34,24.6a7.33,7.33,0,0,1-1.1-.76s.13.06.21.1,0-.06-.07-.1A4.11,4.11,0,0,1,402.76,90.05Zm5.29,1.77c-.11-.08.09-.1-.39-.21-.05.11.41.25-.13.09,0,.07.25.12.4.17a.28.28,0,0,1-.23,0c0,.07.18.06.22,0,.28.25-.48.09-.79,0s0-.16.05-.17c-.4-.09-.6-.14-.56-.34.25.1.11.08.07.12.31.15.38,0,.72.2a13.72,13.72,0,0,0-2.75-1.15c-.07,0-.39-.35-.66-.36,0,.15.23.32.61.48,0,.07-.19,0-.47-.19l-.77-.47c.05-.07.32.16.34.05-.27-.21-.32-.11-.43-.11A14.71,14.71,0,0,1,398.36,85c.14.4-.09,0-.28-.21,0-.08.11,0,.19.14,0-.22-.34-.56-.42-.53a3.28,3.28,0,0,0-.27-.74c-.46-1.12-.34-.66.36.55-.08-.38-.52-1.09-.7-1.62.2.09.25.28.3.59a5,5,0,0,0-.44-1.74,8.19,8.19,0,0,1-.51-2.38,7.58,7.58,0,0,0,.38,2.23c-.19-.15-.13-.42-.25-.83a1.7,1.7,0,0,0,.17,1.11,2.24,2.24,0,0,1,.27,1.18,16.43,16.43,0,0,1-.88-4.41,20.83,20.83,0,0,1,.25-4.18c0-.23.09-.14.13-.3.17-2.13,1-3.8,2.57-6.37-.18,0,.2-.3.28-.58s-.06.25,0,.26c.52-.74.39-1,1.29-1.7a6.58,6.58,0,0,0-.76.9,19.18,19.18,0,0,1,3-2.89c-.73.37-1.5,1.21-.58.32a8.72,8.72,0,0,1,.94-.75c.21,0,0,.12.19.08a25.27,25.27,0,0,1,3.42-1.89c0,.09-.45.17-.48.26.34,0,.86-.39,1.15-.35.13,0,.05-.12,0-.19.48-.06.25-.11.73-.22-.07.09-.37.16-.37.27a24.31,24.31,0,0,1,3.72-.53s-.19,0-.32,0c.25-.2,1.05.05,1.61,0a15.28,15.28,0,0,0-3.26,0c-.52,0-.2,0,.3-.09a10.79,10.79,0,0,1,1.32-.11,17.22,17.22,0,0,1,2,.07c.68.12,1.36.18,2,.37A22.15,22.15,0,0,1,419.71,62c-.62-.11-2-.79-3-1,.18.22,1.34.34,1.18.53.31.12.33,0,.73.18-.05,0-.2,0-.24,0a3.68,3.68,0,0,1,1,.4c0-.07-.22-.16-.37-.21.29,0,1.35.57,1,.49a13.41,13.41,0,0,1,4.28,3.45,18.2,18.2,0,0,1,3,5.31c.08-.11-.22-.61-.17-.74s.27.66.29.8a1.53,1.53,0,0,0-.14-.79c-.13-.35-.32-.72-.42-.94-.19-.46-.5-.91-.77-1.43a11.23,11.23,0,0,1,2,4.74c-.06-.06-.22-.2-.1.14-.18-.25-.24-1-.43-1.43.14.5.24,1.07.37,1.62s.16,1.12.18,1.61c.1-.06-.08-.55,0-.64a21.41,21.41,0,0,1,0,4.41c.1.23-.47,1.07-.58,1.4-.15.58-.22,1.62-.67,1.75a1.05,1.05,0,0,0,.15-.39c-.14.12-.26.54-.43.62.31-.31-.26,1.5-.48,1.34a6.36,6.36,0,0,1-.27.77.47.47,0,0,1,0-.33c-.16.08-.55.51-.51.76-.27.36-.45.2-.77.84-.29-.06-.64.23-1,.62,0-.13.41-.53.39-.67-.36.31-.39.09-.71.44,0,0,.12-.26.17-.23.06-.2-.33.19-.43.15-.24.41-.31.35-.53.64a39.46,39.46,0,0,0,1.91-3.8c.15-.18.27-.43.4-.51s0-.25.08-.45c-.07,0-.21.32-.09,0a3,3,0,0,0-.33.64c-.18-.11.14-.89.33-1.46a16.26,16.26,0,0,1,.29-2.15,2.42,2.42,0,0,0-.19-.36,5.16,5.16,0,0,1-.1,1,3.93,3.93,0,0,0-.05.86c-.15-.23-.17.3-.29.55-.06-.54.48-1.84.36-2.51-.21.67-.4-.74-.19-1.26-.06,0-.13-.22-.16-.49.05,0,.08.1.08.25a6.36,6.36,0,0,0-.15-2.89c.2,0,.23.51.3.87a9.47,9.47,0,0,0-1.3-3.89,13,13,0,0,0-2.82-3.29c-.33-.25-.62-.59-.93-.79s-.21-.26-.34-.4a15.48,15.48,0,0,0-3-1.41c-.09,0-.05,0,0,0A15.7,15.7,0,0,0,412,64.2a12.25,12.25,0,0,1,6.1,1.33,8.52,8.52,0,0,0-4-1.34,13.57,13.57,0,0,0-2.89-.16,10.79,10.79,0,0,0-1.42.21,5.12,5.12,0,0,1-1.08.19,11.9,11.9,0,0,0-4,2A11.4,11.4,0,0,0,402,69.57a3,3,0,0,0,.32-.44c.15-.2.32-.44.48-.64-.05.2-.51.76-.81,1.27-.17.2-.62,1-.42.54s.31-.41.38-.66a5.38,5.38,0,0,0-1,2c-.46.48-.87,2.39-1,3.93a13.51,13.51,0,0,0,1.17,6.61c.07.11,0-.11.11,0s0,.09.05.35c.08.1.15,0,.24.24,0,0-.08-.07-.12-.12.19.61.95,1.43,1.1,1.9.17,0,.43.33.73.67a7.22,7.22,0,0,0,1,.93c-.16.23-.36-.16-.64-.42a2.72,2.72,0,0,0,.74.74c.25.2.54.4,1,.78a7.84,7.84,0,0,0-1.11-1,13.13,13.13,0,0,1,2.08,1.36c-.2-.22-.45-.43-.7-.68a3.39,3.39,0,0,1,.76.62,1.8,1.8,0,0,0,.84.58c-.57-.09-.9-.57-1.55-.76a18.22,18.22,0,0,0,3.83,2.13c.26.09.19-.08.45,0-.25.07.25.22.41.3-.05.07-.42-.12-.61-.17-.11.15.46.15.51.24-.18.11-.53-.14-.7-.19a1.58,1.58,0,0,0,1.23.48c-.25.3.82.42,1.1.45-.1.09-.6,0-.85,0,.11.08.36.11.47.18-.12.26-.73,0-1,.11a8.16,8.16,0,0,0,1.75.31c-.07-.09-.5,0-.4-.19.68.21,1.79.18,1.81.42-.12,0-.05,0,0,0a5.09,5.09,0,0,1-1.17,0,5,5,0,0,0-1.24-.08c.18.16.44,0,.9.08-.45.15.11,0,.11.18-.59,0-.68-.14-1-.08,0,.07.09.09.1,0a4.22,4.22,0,0,1-1.79,0l-1.14-.19c-.36-.07-.69-.14-.95-.17.17.16.64.12.78.34,0-.21.29.08.93.12A11.37,11.37,0,0,0,408.05,91.82Zm19.8-12.93c0,.3-.31.56-.23.81C427.67,79.42,428,79.12,427.85,78.89Zm-3.22-5.1c-.12-.36-.05-.68-.25-.8C424.42,73.28,424.56,73.84,424.63,73.79Zm-5-7.22c0-.08.76.56.95.77a3.07,3.07,0,0,0-1.29-1C419.43,66.39,419.53,66.63,419.66,66.57Zm-20.15,20,.1-.09c-.13-.22-.48-.55-.33-.29C399.43,86.19,399.3,86.4,399.51,86.58ZM398,83.91a2.94,2.94,0,0,0,.5,1.12C398.42,84.55,398.14,84.45,398,83.91Zm2.14,3c.06,0-.11-.26-.28-.46s-.32-.41-.31-.31A2,2,0,0,0,400.1,86.91Zm-3.59-9.07c-.15-.34,0-.93-.18-1C396.31,77.39,396.38,77.93,396.51,77.84Zm9.2,13c.07,0,.1.08.07.12a5.58,5.58,0,0,1,1.17.47C407,91.25,405.76,90.88,405.71,90.84Zm-9-11.42-.16-1.16c-.11,0-.16-.18-.17.13C396.6,78.32,396.67,79.6,396.74,79.42Zm-.25-3.6c-.19.17-.08.58-.16.86C396.5,76.69,396.4,76,396.49,75.82Zm31.54.89c.05.47-.13.93,0,1.05C428.06,77.48,428.12,76.48,428,76.71Zm-1.85,6.43c.1-.29.37-.8.32-1C426.35,82.66,426.14,82.81,426.18,83.14Zm-.13-.37c.18-.28-.13.38,0,.32.16-.53.4-.92.47-1.33C426.39,82.12,426.05,82.45,426.05,82.77Zm-26.22-5.29c0,.26,0,.74.12.84C399.86,78.07,399.94,77.59,399.83,77.48Zm25.28-2.39c0,.15.07.42-.06.35,0,.22,0,.55.07.8s.06.42.15.31C425.14,76.39,425.31,75.57,425.11,75.09Zm-.14,4.5c.18-1-.1-.69,0,0Zm-6.68-14c.2.09.43.23.49.13-.23-.06-.49-.31-.53-.25S418.32,65.56,418.29,65.61ZM424.63,78c0-.1.06,0,.09,0,.06-.25,0-.72.11-.84,0,.29.13.11,0,.43.23,0,.19-.91.07-1,0,.17.05.56-.05.59,0-.35-.14,0-.17-.25A7.24,7.24,0,0,0,424.63,78Zm-23.86-6c.11.11-.22.76-.18.83C400.35,73,400.79,72.2,400.77,72Zm8.53-11.33c.1-.18.44-.06.73-.2,0,.06,0,.08.12.07A2.73,2.73,0,0,1,409.3,60.66Zm-2.95,30.91s-.11,0-.1,0a5.24,5.24,0,0,1-1-.38c.09-.09.57.23.33,0,.05-.09.34.13.4.17s.19,0,.22,0-.48-.11-.16-.16c-.3-.18-.13.1-.43-.08.12-.11.52.06.93.24C406.36,91.41,406.23,91.46,406.35,91.57Zm-3.27-28.71c.1.16-.14.4-.58.7-.24.08.71-.52.51-.6a19.13,19.13,0,0,0-3.5,3.39c-.18,0,.32-.52.47-.75,0,0-.06.13-.1.19A17.49,17.49,0,0,1,403.08,62.86ZM414.28,92c-.81,0-1.51-.1-.43-.09a3.87,3.87,0,0,0,.94,0s0,0-.1.06.05,0,.12,0a4.43,4.43,0,0,1-1.36.09C413.63,91.92,414,92.11,414.28,92ZM425.94,67.7c.25.21-.47-.33-.48-.6C425.62,67.22,425.66,67.37,425.94,67.7Zm-.21,16.58c-.07.1-.09.16-.07.2-.13.25-.19,0-.31.18C425.3,84.63,425.66,84.14,425.73,84.28Zm-16.29,5.13c-.3.09-.4-.22-.75-.29C409,89.07,409.13,89.37,409.44,89.41Zm-6.24-4.56c.08.06.12,0,.06-.07.25.3.65.61,1,1-.21,0-.68-.72-.79-.47C403.31,85.16,403,84.5,403.2,84.85Z"/><path class="cls-2" d="M419.06,53.27,417.72,57c-1.92-7.58-12.86-10.94-18.7-5.74-2,1.78-3.32,4.21-5.29,6s-5.08,2.93-7.29,1.41c-1.37-.93-2-2.64-3.37-3.63-2.94-2.17-7,.15-10,2.27s-7.47,4-9.91,1.23"/><path class="cls-2" d="M411,52.93c.16.07.38.28.55.28C411.14,52.85,410.2,52.57,411,52.93Zm1.92,1.27c.1,0,.22.1.34.24C413.15,54.52,413,54.32,412.9,54.2Zm-2.44-1.61a9.92,9.92,0,0,1-.93-.37,1.25,1.25,0,0,1,.34,0c-.12.06,0,.11.19.16S410.44,52.51,410.46,52.59Zm3,2c.07,0,.18.13.26.08s-.11,0-.17-.17a.65.65,0,0,1,.4.21c-.09,0-.1,0,0,.11C413.75,54.93,413.57,54.76,413.41,54.61Zm-4.74-2.78a3.71,3.71,0,0,1-1-.2C408,51.5,408.33,51.79,408.67,51.83Zm2.2.76c-.09,0-.64-.18-.55-.31C410.58,52.37,410.64,52.5,410.87,52.59Zm0-.15c0-.1.27,0,.54.16a6.3,6.3,0,0,0,.83.53C411.7,53.08,411.41,52.55,410.87,52.44Zm-5.48-1-.37,0c-.08-.15.23-.09.36-.13Zm-.63,0c-.1,0-.68.26-.72.1A3.43,3.43,0,0,1,404.76,51.4Zm-5.43,3.22c0-.29.52-.77.83-1.09C400,53.89,399.71,54.1,399.33,54.62Zm-5.83,6c0-.28.95-.53,1.46-1.1C395,59.57,394,60.31,393.5,60.57Zm-2,.92c.23-.33,1.07-.46,1.39-.7C392.91,61,392,61.3,391.53,61.49Zm23.11-6.56a.85.85,0,0,1,.39.52,1.32,1.32,0,0,0,.31.61C415.08,56,415,55.31,414.64,54.93Zm-17.56,2.24a2.93,2.93,0,0,1,.5-.78A2.23,2.23,0,0,1,397.08,57.17Zm23.65-3.3c-.15.27-.12.42-.3.73C420.41,54.51,420.6,53.79,420.73,53.87Zm-56.61,5.75a1.67,1.67,0,0,1-.61-.35c-.18-.18-.35-.38-.51-.53a1.07,1.07,0,0,1,.52.39A4.8,4.8,0,0,0,364.12,59.62Zm52-7.63c.05-.06.14,0,.19-.06a2.94,2.94,0,0,0,.32.6c.12.23.25.46.34.68C416.62,53,416.6,52.56,416.12,52Zm2.52,3.5a1.61,1.61,0,0,1-.17-.35,2.07,2.07,0,0,1-.2-.47A1.11,1.11,0,0,1,418.64,55.49ZM412.7,48.8c-.4,0-1.08-.6,0,0Zm-47.76,10c-.08.06-.43-.12-.45-.22S364.71,58.8,364.94,58.83ZM407.3,47.21c.23-.1.42,0,.8,0A1.81,1.81,0,0,1,407.3,47.21ZM367,59c-.1.11-.52.07-.74.07a11.85,11.85,0,0,1,1.19-.28c-.09.17-.37.09-.66.18C366.81,59,366.92,59,367,59Zm36.21-11.46a5.35,5.35,0,0,1,2.12-.45C404.7,47.32,404.13,47.23,403.21,47.51Zm-10,8.28c.08-.39.69-.77,1-1.25C394.07,55,393.7,55.23,393.23,55.79Zm19.53-7.35c-.31,0-.89-.42-1.34-.53A4.7,4.7,0,0,1,412.76,48.44ZM386.25,56c.26,0,.35.34.59.58C386.77,56.6,386.37,56.33,386.25,56Zm-10.17-3.1a4.31,4.31,0,0,1,1.21-.54A5.44,5.44,0,0,1,376.08,52.89Zm12.05,3.62c-.07,0,0-.09-.08-.1S388.22,56.35,388.13,56.51Zm23.49-3.45c-.27-.05-.36-.24-.67-.34,0,0,.08,0,.13,0s0-.05,0-.07S411.48,52.88,411.62,53.06Zm2.84,1.69c0-.09.11,0-.09-.27-.1.07.07.31-.13,0,0,0,.06.15.11.23a.16.16,0,0,1-.14,0s.06.09.11.07c0,.26-.31-.08-.47-.17s.09-.11.12-.11c-.19-.15-.3-.21-.17-.37.12.12,0,.08,0,.11.13.16.22.11.35.29a1.88,1.88,0,0,0-.56-.78,2,2,0,0,0-.75-.44c-.07,0-.15-.32-.35-.29,0,.13.07.26.27.39,0,.13-.47-.37-.7-.45,0-.07.2.09.24,0-.16-.14-.21-.05-.29,0a11.54,11.54,0,0,0-3.87-1.64c.22.15,0,.09-.21.1,0-.08.06-.09.14-.07-.08-.14-.38,0-.4,0-.1-.1-.21-.1-.44-.14-.69-.14-.44,0,.4,0a2.94,2.94,0,0,0-1-.14c.1-.16.22-.13.39,0-.15-.24-.57-.22-1.06-.22a12.81,12.81,0,0,1-1.49.12,6.7,6.7,0,0,0,1.38,0c-.12.13-.26,0-.52.08.18.26,1.14-.1,1.37.23a8.28,8.28,0,0,0-4.89.83c-.11.08-.12,0-.21,0-.25.18-.44.42-.67.59a8.22,8.22,0,0,0-.74.57A10.39,10.39,0,0,0,398.4,55c.16.06-.18.18-.21.42s0-.2-.05-.23c-.38.56-.27.76-.94,1.3a6.69,6.69,0,0,0,.54-.71c-.6.69-1.49,1.83-2.15,2.53.54-.41,1.06-1.17.43-.34a4.33,4.33,0,0,1-.66.75c-.18,0,0-.11-.19-.06a17.05,17.05,0,0,1-2.79,2.18c0-.09.4-.21.41-.3-.31,0-.75.45-1,.42-.12.06,0,.13,0,.19-.45.11-.22.14-.68.28.06-.1.35-.18.34-.29a9.05,9.05,0,0,1-3.82.35s.21.07.35.1c-.3.13-1.15-.26-1.77-.44a3.64,3.64,0,0,0,1.63.55,15.25,15.25,0,0,0,1.89.1c.54,0,.2,0-.31.08a7.8,7.8,0,0,1-1.45,0,6.66,6.66,0,0,1-2.24-.75,6.84,6.84,0,0,1-1.77-1.46c-.9-1-1.42-2-2-2.45.33,0,.79.86,1.35,1.49,0-.28-.68-.82-.47-.88-.14-.18-.23-.08-.37-.32.06,0,.13.05.18,0a2.44,2.44,0,0,1-.4-.46s.07.13.12.2c-.17-.1-.55-.44-.35-.41a3,3,0,0,0-2.2-.73,7.29,7.29,0,0,0-3.55,1.31c.1.06.38-.23.48-.18s-.39.26-.49.29c.2.1.82-.34,1.11-.47a6.53,6.53,0,0,1,.92-.42c-.78.53-1.78,1-2.89,1.7,0-.06.05-.23-.13-.06.1-.2.58-.41.83-.6-.64.32-1.34.83-2,1.2.1.05.33-.24.42-.2-.34.24-1.05.7-1.63,1s-1.2.62-1.48.81c-.12.17-1,.13-1.29.19-.49.14-1.28.66-1.61.31a.89.89,0,0,0,.36-.06c-.16-.07-.53,0-.67,0,.4.13-1.28.51-1.26.24a2.19,2.19,0,0,1-.76.11.52.52,0,0,1,.29-.13,1,1,0,0,0-.87-.13c-.41-.11-.33-.32-1-.44,0-.27-.38-.52-.77-.82.1,0,.55.28.66.23-.33-.28-.14-.33-.47-.58,0,0,.23.08.21.12.18,0-.2-.27-.15-.39-.38-.13-.34-.2-.57-.38a7.81,7.81,0,0,0,1.56.47,5,5,0,0,0,1.73,0,1.76,1.76,0,0,1,.53.11c.14,0,.17-.13.35-.15,0-.06-.32,0,0-.09a2.63,2.63,0,0,0-.58,0c0-.18.66-.31,1.14-.42a10.88,10.88,0,0,1,1.61-.82,2.29,2.29,0,0,0,.16-.31,10.82,10.82,0,0,0-1.37.77c.08-.25-.28,0-.51,0,.33-.31,1.47-.52,1.9-.91-.58.14.29-.71.8-.75,0-.06.1-.21.27-.37,0,.06,0,.12-.13.18a3.09,3.09,0,0,0,1-.48l1.29-.91c.07.18-.38.41-.67.63,1-.6,2.18-1.46,3.61-2.21a8.47,8.47,0,0,1,5.07-1.1,3.3,3.3,0,0,1,.82.21c.27.09.52.19.75.29a1.76,1.76,0,0,1,.53.44A5.8,5.8,0,0,1,385,54.74c.37.44.67.87,1,1.33.06.07.06,0,0,0a10.3,10.3,0,0,0,1.08,1.21,2.43,2.43,0,0,0,1.06.54,2.39,2.39,0,0,1-1.58-.9c-.57-.62-1.16-1.61-2-2.5a16.67,16.67,0,0,0,2.42,3,2.81,2.81,0,0,0,1.65.67,10,10,0,0,0,1.81-.3,7.29,7.29,0,0,0,1.63-.9,8.93,8.93,0,0,0,1.3-1.17,34.41,34.41,0,0,0,2.42-3,6.37,6.37,0,0,0-.81,1,4.89,4.89,0,0,1,.84-1.17c.16-.19.78-.87.48-.47s-.36.36-.46.58a15.64,15.64,0,0,0,1.47-1.73,21,21,0,0,1,3.52-2.47,12.24,12.24,0,0,1,7-.92c.13,0-.07-.08.09-.07a1.54,1.54,0,0,1,.34.17c.13,0,.09-.13.35,0,0,0-.11,0-.18,0,.61.25,1.78.36,2.15.76a2,2,0,0,1,1,.26c.43.21.88.49,1.26.63-.12.26-.39-.09-.74-.25a4.23,4.23,0,0,0,.89.55,9.11,9.11,0,0,1,1,.73,3.89,3.89,0,0,0-1.16-.91A4.55,4.55,0,0,1,415,50.78a4,4,0,0,0-.62-.8c.6.35.77,1.12,1.35,1.54-.47-.3-.73-.78-1.33-1.1a10.5,10.5,0,0,1,2.47,3.4c.12.23.2,0,.31.29-.21-.12,0,.32,0,.49-.09,0-.14-.38-.24-.53-.17,0,.18.39.13.5-.17-.07-.21-.45-.3-.58a1.73,1.73,0,0,0,.34,1.12c-.38,0,.07.76.06,1-.12,0-.16-.45-.3-.62,0,.11.08.29,0,.4-.23,0-.34-.46-.53-.57a4.43,4.43,0,0,0,.21.61c0,.23.1.46.15.67.07-.07-.11-.35.07-.34,0,.29.09.65.11.92l.21,2.23,1.34-2.15c.14-.23.27-.38.37-.35s0,.06,0,0a2.6,2.6,0,0,1-.15.42l-1.32,2.92-.75-3a4.75,4.75,0,0,0-.35-1.24c-.1.18.09.3.16.62-.25-.24,0,.09-.14.13-.19-.35,0-.48-.18-.67-.08,0-.06.1,0,.08a2.8,2.8,0,0,1-.78-.92,4.76,4.76,0,0,0-.94-1c0,.16.3.28.25.47.18-.13.1.16.42.42C414.89,55.09,414.71,54.77,414.46,54.75ZM371.1,60.5c-.22.11-.54,0-.68.21C370.65,60.62,371,60.68,371.1,60.5Zm2.22-5c.29-.24.61-.26.67-.5C373.72,55.13,373.24,55.44,373.32,55.49Zm9.4-2.49c0,.06-1.19-.4-1.56-.43l2,.69C383.06,53.2,382.86,52.93,382.72,53Zm26.54-1.43,0-.13c-.13-.09-.45,0-.28,0C409.11,51.35,409.1,51.56,409.26,51.57ZM407.49,51a1.68,1.68,0,0,0,.7.23C408,51,407.81,51.17,407.49,51Zm2.21.46c.06-.12-.63-.38-.56-.23S409.58,51.52,409.7,51.49Zm-6-.45c-.18.17-.58.05-.57.3C403.48,51.23,403.8,51.18,403.72,51Zm9.78,2.47a.07.07,0,0,1,0,.11c.18.23.47.31.54.56C414.13,54,413.51,53.54,413.5,53.51Zm-8.84-2.72a4,4,0,0,0-.7.15c0,.1-.09.16.1.15C404,50.89,404.76,50.85,404.66,50.79Zm-2.09.64c.16.13.34-.06.52-.06C403,51.21,402.71,51.47,402.57,51.43Zm-29.83,8.23c-.31.25-.73.28-.73.47C372.21,60,373,59.63,372.74,59.66Zm-5.59,1.54c.29,0,.8-.07.91-.19C367.61,61.13,367.4,61,367.15,61.2Zm.24-.29c.3,0-.37.06-.25.16a7.25,7.25,0,0,0,1.23-.26C368.05,60.9,367.63,60.75,367.39,60.91Zm35.36-13.07c.26-.09.76-.12.85-.24C403.35,47.68,402.84,47.72,402.75,47.84Zm-30.34,8.61c-.11.07-.28.25-.29.1-.3.22-.95.62-.7.68C371.45,57,372.16,56.85,372.41,56.45Zm-3.29,1.95c.78-.32.42-.41,0,0Zm15.33-4.13c-.19-.18-.47-.41-.53-.32.27.14.5.5.55.45S384.4,54.3,384.45,54.27ZM370,57.35c.08,0,.07,0,0,.08.2-.08.51-.34.65-.31-.2.14,0,.15-.29.22.1.18.75-.25.77-.4-.14.05-.38.29-.46.22.26-.16-.11-.1.1-.26A3.52,3.52,0,0,0,370,57.35Zm27.58-6.68c-.07-.17.57-.6.59-.66C398.51,50,397.66,50.43,397.62,50.67Zm-7.33,10.84c-.09.2-.44.08-.74.2,0-.05,0-.07-.12-.07A3.88,3.88,0,0,1,390.29,61.51Zm23.27-7.31s-.06,0,0-.05a5.9,5.9,0,0,1-.49-.39c.11-.09.29.21.21.05.09-.08.16.14.18.18s.1,0,.14,0-.25-.15,0-.15c-.11-.19-.13.06-.24-.12.13-.09.3.12.49.32C413.65,54.07,413.53,54.1,413.56,54.2Zm-17.81,4.66c-.12-.14,0-.37.35-.68.19-.09-.5.53-.31.58,1.16-1.34,1.51-1.73,2.46-2.88.17.06-.22.37-.32.56,0,0,0-.11.06-.16C397.52,56.77,396.69,58,395.75,58.86Zm23.73-2.15c-.27.55-.55,1-.23.26a4,4,0,0,0,.31-.65c.05,0,0,0,0,.09s.05,0,.07-.06c0,.28-.29.59-.38.95C419.19,57.13,419.44,57,419.48,56.71Zm-40.9,0c-.15.14.23-.3.39-.18C378.89,56.6,378.8,56.56,378.58,56.69ZM366,61.32a.26.26,0,0,0-.19,0c-.29,0-.09-.17-.3-.21C365.53,61.09,366.1,61.2,366,61.32Zm51-7.67c-.27-.13-.14-.42-.38-.67C416.82,53.08,416.78,53.42,417,53.65Zm-5.54-5.46c.11,0,.11,0,0-.08a10.32,10.32,0,0,1,1.37.65c-.2.06-.93-.54-.95-.26C411.7,48.41,411.06,48,411.42,48.19Z"/><path class="cls-2" d="M398.72,70c-.42-3-5-3.47-7.31-1.52s-3.2,5.08-4.72,7.7-4.55,5-7.36,3.9c-3.22-1.3-3.54-6-6.46-7.91-3.38-2.16-7.66.76-10.45,3.63s-6.56,6.15-10.28,4.68"/><path class="cls-2" d="M392.23,71.83a1.08,1.08,0,0,0,.26-.43C392.19,71.69,391.82,72.45,392.23,71.83Zm1.08-1.28c0-.09,0-.15.12-.19C393.49,70.47,393.35,70.49,393.31,70.55Zm-1.44,1.69a3.73,3.73,0,0,1-.45.81c0-.11,0-.2,0-.32C391.52,73,391.72,72.24,391.87,72.24Zm1.66-1.95c0-.09.1-.08.07-.17s0,.07-.13.06a.31.31,0,0,1,.18-.23c0,.07,0,.1.07.07C393.78,70.18,393.64,70.23,393.53,70.29Zm-2.64,3.55a3.21,3.21,0,0,1-.45,1C390.44,74.49,390.76,74.17,390.89,73.84Zm1-2c0,.07-.21.56-.33.46C391.67,72.09,391.79,72.06,391.9,71.87Zm-.15,0c-.2-.1.46-.75.69-1.07C392.35,71.2,391.91,71.39,391.75,71.85Zm-2.63,5.38c-.08.14-.15.28-.24.43s.12-.32.16-.47Zm-.5.69c0,.15-.48.93-.62.84A9.83,9.83,0,0,0,388.62,77.92Zm-8.27,5c.39-.11,1.46-.1,2.15-.31A4.84,4.84,0,0,1,380.35,82.88Zm-6.69-5.57c.26,0,.31.68.7,1.14C374.26,78.48,373.84,77.6,373.66,77.31Zm-.68-1.2c.31,0,.39.59.55.79C373.33,76.92,373.16,76.31,373,76.11Zm20.92-6.75c.27-.27.64,0,1-.14C394.77,69.41,394.26,69.26,393.9,69.36ZM376.23,80.8a10.25,10.25,0,0,1,.92.64A2.11,2.11,0,0,1,376.23,80.8ZM397,70.25c0-.1,0-.15,0-.26S397.1,70.25,397,70.25ZM353.24,81c-.35.09-.84-.19-1.2-.3C352.31,80.59,352.87,81,353.24,81ZM391.78,67c0-.06.05-.13,0-.2.38,0,.93-.19,1.37-.2C392.8,66.8,392.45,66.7,391.78,67Zm4-.94a3,3,0,0,1-.86,0A1.14,1.14,0,0,1,395.75,66Zm-7.41,3.6c0,.36-.63.88,0,0ZM353.71,80c-.06.11-.41,0-.46-.06C353.36,79.83,353.5,80.06,353.71,80Zm32.45-6.27c-.05-.21.09-.31.22-.58A1.09,1.09,0,0,1,386.16,73.73Zm-30.6,5.92c-.07.14-.44.14-.63.21a4.26,4.26,0,0,1,1-.47c0,.17-.31.11-.54.27C355.4,79.71,355.49,79.66,355.56,79.65Zm29.21-3.38A7.42,7.42,0,0,1,385.4,75,3,3,0,0,1,384.77,76.27Zm-6.58,1c.35.1.5.66.83.86C378.7,78.05,378.58,77.72,378.19,77.27Zm9.8-7.76a11,11,0,0,1-.58,1.1A4.72,4.72,0,0,1,388,69.51Zm-17.24.18c.2-.21.62,0,1.14.07A2.79,2.79,0,0,1,370.75,69.69ZM362,72.94c.09-.21.54-.52.79-.75A2.85,2.85,0,0,1,362,72.94Zm12.42-3c-.27-.14-.21-.2-.45-.32C374.14,69.56,374.61,69.79,374.46,69.92Zm17.89,1.37c-.05.22-.19.29-.32.54,0,0,0-.08,0-.12s-.05,0-.07,0S392.2,71.38,392.35,71.29Zm1.39-1.84c-.07,0,0-.12-.21,0,0,.11.23,0,0,.14,0,0,.11,0,.18,0s0,.09-.05.11.07,0,.07-.07c.17.11-.1.26-.17.35s-.08-.13-.08-.16-.17.16-.27,0c.08-.06,0,0,.07.06s.1-.13.24-.16a.43.43,0,0,0-.28,0,1.66,1.66,0,0,0-.32.17,2.19,2.19,0,0,0-.21.23,1,1,0,0,0-.13.24c0,.07-.28.07-.25.26s.22,0,.35-.16-.32.34-.42.5c-.06-.05.09-.15,0-.2s0,.17,0,.24a17.58,17.58,0,0,0-2,3.35c.19-.19.09,0,0,.24-.08,0,0-.08,0-.16-.16,0-.17.36-.1.41-.13.08-.16.19-.28.41-.38.7-.18.44.09-.42a6.84,6.84,0,0,0-.52,1c-.1-.16,0-.26.15-.41-.55.17-.78,1.63-1.62,2.56a2.66,2.66,0,0,0,.5-.63c.15-.26.29-.54.42-.79.07.19-.12.29-.25.56.39,0,.55-1.22,1-1.3-.25.47-.51.93-.79,1.39a14.8,14.8,0,0,1-1,1.37,14.29,14.29,0,0,1-2.41,2.31c-.14.14-.15,0-.26.09a5.33,5.33,0,0,1-2.4,1.27,7.14,7.14,0,0,1-3.65,0c0,.18-.33-.13-.63-.11-.24-.15.26,0,.26-.1-.82-.3-1.07-.18-1.8-1,.43.27.64.53.93.61a9.06,9.06,0,0,1-1.54-1.22,15,15,0,0,1-1.08-1.3c.27.57.93,1.24.24.47a3.22,3.22,0,0,1-.57-.74c0-.17.1,0,.1-.16a19.7,19.7,0,0,0-1.5-2.16c.09,0,.15.25.24.24,0-.23-.35-.46-.32-.65s-.12,0-.18,0c-.09-.25-.12-.1-.26-.34.1,0,.18.15.28.12a4.71,4.71,0,0,0-1.11-1.48s0,.07.06.12c-.19.05-.26-.35-.49-.35a1.22,1.22,0,0,0,.36.41,1.76,1.76,0,0,1,.43.64c.23.4-.41-.45-.49-.52a3,3,0,0,0-1-.82,2.25,2.25,0,0,0-1.54-.05c.22-.27.86-.18,1.19-.2-.08-.16-.51,0-.48-.18-.14,0-.12.15-.3.12,0-.06.07-.08.07-.14a1.58,1.58,0,0,1-.46.08c0,.06.12,0,.19,0a.56.56,0,0,1-.33.12c-.12,0-.22,0-.15,0a12.59,12.59,0,0,0-2.69,1.14,11,11,0,0,0-2.8,2.3c.11,0,.27-.29.38-.26s-.27.32-.36.37c.23,0,.64-.48.86-.68a8.68,8.68,0,0,1,.69-.64,23.05,23.05,0,0,1-2.2,2.3c0-.06,0-.23-.15,0,.07-.21.49-.51.68-.76-.53.46-1.13,1.09-1.7,1.5.09.05.28-.27.38-.24-.66.64-2,1.6-2.48,2-.07.18-.86.22-1.12.32s-1,.8-1.36.49a.62.62,0,0,0,.31-.1c-.15,0-.46.11-.6,0,.17,0-.06.21-.36.34s-.67.21-.68.09a2.48,2.48,0,0,1-.62.24.39.39,0,0,1,.21-.18c-.14-.08-.6-.14-.75,0-.37,0-.35-.23-.93-.16-.09-.27-.43-.37-.84-.51.08-.1.53.09.61,0-.35-.12-.21-.29-.56-.37,0-.06.22,0,.22,0,.15,0-.24-.2-.24-.3-.37,0-.34-.07-.61-.11a11.12,11.12,0,0,0,3-.52,1,1,0,0,1,.48,0c.11-.06.12-.14.26-.2,0,0-.27,0,0-.08-.13,0-.5,0-.5.09,0-.17.5-.4.9-.57a6.8,6.8,0,0,1,1.26-1,1.83,1.83,0,0,0,.07-.32c-.34.32-.88.61-1.05.89,0-.24-.25.05-.44.09.21-.35,1.18-.66,1.49-1.09-.49.2.12-.71.58-.78,0-.06,0-.22.18-.38a.2.2,0,0,1-.09.19,5.82,5.82,0,0,0,1.79-1.43c.1.15-.23.4-.43.6A11,11,0,0,0,361.07,75c.37-.42.85-1,1.32-1.42A14.11,14.11,0,0,1,365.65,71c.35-.2.79-.3,1.11-.48s.35,0,.53,0a7.07,7.07,0,0,1,3.37-.54c.1,0,0,0,0,0a5.7,5.7,0,0,1,2.27.55,7,7,0,0,1,1.82,1.3,7.1,7.1,0,0,0-2.8-1.55,7.36,7.36,0,0,0-3.46,0c.58,0,1.24-.08,2-.06a6.14,6.14,0,0,1,2.34.49,6.69,6.69,0,0,1,2.3,1.85,6.85,6.85,0,0,1,1.29,1.93c.75,1.27,1.23,2.31,1.81,3.09a3.24,3.24,0,0,0,2,1.45c-.08-.08-.42-.15-.67-.29a.6.6,0,0,1,.32.09c.15,0,.3.11.45.13s.61.1.34.12-.25-.09-.4,0a1.51,1.51,0,0,0,1.24-.05c.4.14,1.49-.51,2.28-1.26a7.77,7.77,0,0,0,1.48-1.79c.41-.7.83-1.56,1.3-2.42,0-.1-.1,0-.05-.09s0-.07.23-.2c0-.11-.1-.11,0-.29,0,0,0,.09,0,.14.33-.41.62-1.33,1-1.59-.1-.3.65-1.22,1-1.83.25.15-.13.33-.29.62.6-.55.53-.81,1.35-1.58a3,3,0,0,0-.94.94c.07-.58.95-1.3,1.51-1.7a3.53,3.53,0,0,0-.82.45c.4-.53,1.1-.54,1.66-1-.39.43-.91.54-1.23,1.08l.82-.56a5.82,5.82,0,0,1,.92-.49,3.8,3.8,0,0,1,1.89-.35c.23,0,.11-.15.35-.16-.17.15.27.12.41.18,0,.08-.36,0-.52,0s.39,0,.46.07c-.12.13-.44,0-.59,0a1.45,1.45,0,0,0,1,.15c-.14.33.62.3.81.39-.07.1-.41,0-.59,0,.08.06.25.07.32.15-.08.23-.48.09-.63.21.32.09.74.11,1.08.24,0-.1-.3-.06-.22-.21.42.19,1,.46.9.67-.06,0,0,0,0,0-.39-.07-.73-.44-1.26-.35.09.16.25,0,.5.1-.26.11.05,0,0,.18-.3,0-.34-.15-.52-.1,0,.07,0,.09.05,0a2.49,2.49,0,0,1-.91.29,2.17,2.17,0,0,0-.94.44c.12,0,.26-.17.39,0-.06-.22.13,0,.4-.19C394.07,69.21,393.79,69.22,393.74,69.45ZM359.5,80.62c-.17.13-.49.08-.57.28C359.12,80.78,359.44,80.81,359.5,80.62Zm1-4.89c.2-.24.46-.29.44-.51C360.75,75.37,360.42,75.69,360.49,75.73Zm6.23-5.13c.06.07-.83.39-1.07.52a5.86,5.86,0,0,0,1.47-.64C367,70.52,366.74,70.46,366.72,70.6Zm24,2.61-.12,0c-.09.12-.14.41,0,.27C390.51,73.32,390.73,73.38,390.75,73.21Zm-1,1.64c.15-.21.33-.25.44-.64C389.93,74.36,390,74.56,389.79,74.85Zm.93-2.07c-.1-.08-.43.54-.29.5A1,1,0,0,0,390.72,72.78Zm-3.31,5.88c-.05.31-.53.5-.43.72C387.33,79.06,387.56,78.7,387.41,78.66Zm5.35-8.85s.06,0,.09,0,.23-.29.42-.26C393.16,69.44,392.76,69.81,392.76,69.81Zm-4.67,7.81c-.16.26-.34.5-.51.75.08.07,0,.21.19,0C387.59,78.33,388.24,77.57,388.09,77.62Zm-1.72,2.23c.22,0,.36-.28.56-.4C386.82,79.33,386.53,79.8,386.37,79.85Zm-25.57-.17c-.21.27-.61.32-.56.51C360.39,80.05,361,79.64,360.8,79.68Zm-4.64,2.12c.22-.1.69-.17.74-.32C356.55,81.67,356.32,81.55,356.16,81.8Zm.14-.32c.26,0-.3.12-.18.2a5.82,5.82,0,0,0,1-.44C356.87,81.37,356.49,81.3,356.3,81.48Zm28.43-4.8c.09-.16.37-.38.32-.51C385,76.34,384.7,76.55,384.73,76.68Zm-24.82,0c-.09.07-.21.25-.25.11-.24.23-.77.67-.53.7C359.12,77.27,359.75,77.05,359.91,76.66Zm-2.61,2.16c.62-.4.29-.45,0,0Zm11-8.63c-.21.06-.47.12-.44.23.21-.12.56-.1.55-.17S368.33,70.24,368.33,70.19Zm-10.42,7.53c.07,0,.06,0,0,.07.18-.09.4-.38.53-.36-.16.15,0,.14-.22.23.12.16.64-.29.63-.45-.12.07-.29.31-.38.25.21-.17-.12-.08,0-.25C358.32,77.36,357.93,77.62,357.91,77.72Zm23.79,1.11c0-.16.44-.19.45-.27C382.34,78.7,381.77,78.69,381.7,78.83Zm-8.81-3.43c-.17,0-.12-.2-.29-.25,0,0,.06-.06,0-.1S372.79,75.2,372.89,75.4ZM393.26,70s0,0,0,0a1.39,1.39,0,0,1-.25.23c-.07-.1.13-.13,0-.13s.08-.08.11-.08a.11.11,0,0,0,0-.11c-.05-.07-.11.15-.12,0-.13,0,.06.14-.06.16s.05-.22.21-.3C393.17,69.88,393.19,70,393.26,70Zm-18.53,9.19c.16-.1.32.07.57.43,0,.2-.41-.57-.49-.39a15.88,15.88,0,0,0,1.32,1.58A6.71,6.71,0,0,0,378,82.17c0,.19-.59-.2-.82-.34,0,0,.15,0,.21.08l-.68-.5c-.24-.21-.51-.44-.76-.68A8.83,8.83,0,0,1,374.73,79.19Zm21.71-10c-.24-.21-.54-.4-.1-.19.1.07.17.17.29.25s0,0-.05,0,0,0,0,.06c-.15,0-.23-.23-.45-.27C396.27,69,396.3,69.23,396.44,69.23ZM365.55,75.8c-.09.18.11-.34.31-.3C365.81,75.62,365.72,75.62,365.55,75.8Zm-10.34,6.33c-.09,0-.14,0-.16.07-.23,0-.11-.15-.28-.14C354.77,82,355.27,82,355.21,82.13Zm38.31-15.39c-.2.19-.41,0-.71.11C393,66.66,393.27,66.8,393.52,66.74Zm-5.84,3.92c0-.09,0-.11-.08,0a11.63,11.63,0,0,1,.71-1.11c0,.19-.56.75-.29.81C387.92,70.46,387.43,70.92,387.68,70.66Z"/><path class="cls-2" d="M398.85,85.62c-.85-2.48-4.46-2.94-6.65-1.49s-3.28,4-4.27,6.46-2.09,5-4.29,6.44c-3,1.92-7,1.07-10.13-.56s-5.94-4-9.3-5.1-7.71-.59-9.51,2.46"/><path class="cls-2" d="M392.75,87.5c.07-.1.22-.24.23-.35C392.71,87.36,392.37,88,392.75,87.5Zm1-1.06c0-.08,0-.13.1-.17C393.92,86.38,393.82,86.41,393.76,86.44Zm-1.34,1.36a3.23,3.23,0,0,1-.4.66c0-.1,0-.18,0-.28C392.11,88.4,392.27,87.79,392.42,87.8ZM394,86.23c0-.09.07-.09,0-.18s0,.08-.11.06,0-.18.15-.21,0,.09.06.07C394.18,86.13,394,86.16,394,86.23Zm-2.42,2.85a2,2,0,0,1-.37.8C391.16,89.61,391.45,89.36,391.55,89.08Zm.88-1.6c0,.07-.18.46-.3.36C392.22,87.64,392.34,87.64,392.43,87.48Zm-.13,0c-.2-.11.42-.61.62-.87C392.84,86.94,392.44,87.06,392.3,87.44Zm-2.06,4.46-.14.36c-.17,0,0-.26.06-.39Zm-.32.58c0,.11-.19.78-.35.72C389.75,92.84,389.78,92.77,389.92,92.48ZM385.29,99a13.48,13.48,0,0,1,1.23-1.16A5.36,5.36,0,0,1,385.29,99Zm-7.51,1.54c.13-.23.8.15,1.39.07A5.12,5.12,0,0,1,377.78,100.5Zm-1.56-.29c.28-.18.82.13,1.12.14C377.21,100.53,376.56,100.25,376.22,100.21Zm18-14.88c.24-.26.56,0,.85-.11C395,85.42,394.59,85.23,394.27,85.33Zm-12.4,14.93a3.42,3.42,0,0,1,.85-.33C382.61,100.09,382.23,100.17,381.87,100.26Zm15.3-14.06c0-.11-.07-.13-.09-.26S397.32,86.16,397.17,86.2Zm-41.66,6.93c-.09.27-.43.56-.59.83C354.85,93.71,355.3,93.33,355.51,93.13Zm36.84-10.31c0-.07,0-.12,0-.19.35,0,.85-.14,1.26-.12C393.28,82.72,393,82.61,392.35,82.82ZM396,82a2.53,2.53,0,0,1-.78-.06A1,1,0,0,1,396,82Zm-7,3c0,.34-.64.78,0,0Zm-34,7.13c0,.1-.3.41-.38.43C354.59,92.41,354.86,92.36,355,92.14Zm31.92-3.29c-.05-.2.08-.3.19-.56A1.1,1.1,0,0,1,386.91,88.85Zm-30.11,1.9c-.07.12-.47.27-.66.42a2.52,2.52,0,0,1,1.06-.76c-.06.19-.36.18-.62.39C356.62,90.84,356.72,90.78,356.8,90.75Zm29.06.76a4.52,4.52,0,0,1,.42-1.39A4,4,0,0,1,385.86,91.51Zm-5.76,5.17c.23-.23.74-.07,1.09-.23C380.94,96.67,380.62,96.6,380.1,96.68Zm8.59-11.81a8.23,8.23,0,0,1-.6,1A4.46,4.46,0,0,1,388.69,84.87Zm-15.83,9.22c.21-.12.37.14.66.27A.78.78,0,0,1,372.86,94.09Zm-6.12-4.21c.21,0,.62.26.9.37A2.42,2.42,0,0,1,366.74,89.88Zm8.38,4.3c-.15,0-.1-.11-.22-.15C375,94,375.22,94,375.12,94.18ZM392.85,87c-.05.18-.17.23-.3.43,0,0,0-.07,0-.1s0,0-.06,0S392.7,87.07,392.85,87Zm1.28-1.62c-.06,0,0-.13-.18,0,0,.12.2.06,0,.13,0,.06.1,0,.16,0s0,.09-.05.11.06,0,.06-.07c.15.12-.08.27-.15.34s-.06-.14-.06-.16-.15.15-.25,0c.08,0,.06,0,.07.06s.08-.13.21-.14c-.28-.19-.84.31-.89.54,0,.07-.25,0-.23.2s.21,0,.32-.1c.1,0-.29.28-.38.41-.06-.06.08-.12,0-.18s0,.14,0,.21A11.21,11.21,0,0,0,391,89.42c.17-.15.09,0,.06.21-.08,0-.06-.07,0-.14-.14,0-.13.3-.05.35-.12.06-.15.15-.24.34-.29.58-.14.36.05-.36-.17.14-.26.59-.39.86-.13-.14,0-.23.09-.35-.51.12-.58,1.41-1.1,2.2a4.41,4.41,0,0,0,.58-1.23c.09.16-.07.25-.15.49.36-.05.33-1.05.72-1.12A42.47,42.47,0,0,1,388,95.44c-.07.16-.13,0-.19.15a5.4,5.4,0,0,1-1.32,1.81,12.8,12.8,0,0,1-2.34,1.71c.12.12-.26.11-.4.3s.12-.16.06-.22c-.61.33-.64.56-1.49.63a5.24,5.24,0,0,0,.84-.29,13,13,0,0,1-3,.62c.58.08,1.39-.14.47,0a3.08,3.08,0,0,1-.85.1c-.14-.09.05-.09-.08-.17-1.07.09-1.88-.07-2.7,0,0-.09.32,0,.37,0-.17-.19-.64,0-.78-.2-.1,0-.08.1-.11.16-.3-.13-.18,0-.51-.08.08,0,.28,0,.32-.1-.74-.17-1.56-.54-2.39-.77,0,.06.11.08.19.12-.23.1-.62-.33-1-.37.27.32,1.43.62,2,.94s-.85-.22-1-.32a43.79,43.79,0,0,1-4.6-2.68c.41,0,1.11.63,1.67.87-.05-.21-.76-.39-.6-.54-.17-.11-.23,0-.43-.15,0,0,.13,0,.17,0a2.43,2.43,0,0,1-.55-.33c0,.06.12.11.2.17-.19,0-.78-.39-.53-.37-1.66-1-3.45-2.69-5.53-3.23,0,.11.32.1.33.2s-.35-.08-.41-.14c0,.21.59.34.83.44a8,8,0,0,1,.77.34c-.8-.14-1.59-.59-2.44-.78,0,0,.15-.13,0-.14.15-.08.47.11.69.13a11.19,11.19,0,0,0-1.53-.44c0,.1.27,0,.3.13a6.05,6.05,0,0,0-2.14-.14c-.08.11-.57-.24-.76-.24s-.71.39-.95,0a.31.31,0,0,0,.2,0c-.1-.09-.3,0-.41-.08.23.08-.58.54-.65.33-.11.17-.17.17-.29.29a.23.23,0,0,1,.06-.19c-.12-.07-.46,0-.43.18-.19.1-.37-.13-.58.19a.59.59,0,0,0-.73.14c-.05-.11.26-.3.24-.4-.28.12-.31,0-.55.15,0,0,.07-.17.12-.14,0-.15-.27.08-.37,0a2.84,2.84,0,0,1-.3.49,3.93,3.93,0,0,1,2-2.45,1.18,1.18,0,0,1,.51,0c.1-.07.11-.16.27-.21,0,0-.3,0,0-.08a1.32,1.32,0,0,0-.55.14c-.07-.19.57-.49,1-.6a3.48,3.48,0,0,1,1.68-.54,3,3,0,0,0,.25-.25,3.85,3.85,0,0,0-1.52.45c.11-.24-.29,0-.52,0,.35-.35,1.57-.38,2.1-.54-.63-.08.58-.59,1.07-.32,0-.06.2-.13.44-.16,0,0-.09.08-.22.08.59.21,1.6.26,2.52.48-.08.17-.49,0-.8,0A21.76,21.76,0,0,1,369.59,92c.29.18.53.43.79.57s.15.23.24.35c.9.52,1.31.84,2.08,1.33.06,0,.05,0,0,0,.8.42,1.85,1.09,2.58,1.38a18.73,18.73,0,0,1-3.92-2.12,9.12,9.12,0,0,0,2.55,1.64,17,17,0,0,0,1.77.87c.61.24,1.33.33,1.63.52a9.86,9.86,0,0,0,2.92.23,4.92,4.92,0,0,0,2.4-.76c-.11,0-.44.21-.72.32a3.09,3.09,0,0,1,.76-.44c.14,0,.59-.35.37-.15s-.27.12-.37.25a2.18,2.18,0,0,0,1.05-.84c.43-.11,1.06-1.16,1.55-2.08.71-1.22,1.16-2.85,2-4.53,0-.1-.09,0-.06-.09a1.14,1.14,0,0,1,.23-.2c0-.1-.11-.1,0-.27,0,0,0,.08,0,.14.31-.4.58-1.26,1-1.48-.1-.3.65-1.11,1-1.66.23.16-.12.3-.3.56.6-.46.54-.71,1.35-1.35a2.34,2.34,0,0,0-.94.79c.08-.55,1-1.14,1.5-1.47a3.19,3.19,0,0,0-.79.35c.4-.47,1.08-.4,1.58-.79-.37.35-.83.41-1.17.89a12,12,0,0,1,1.64-.84,3.65,3.65,0,0,1,1.73-.23c.21,0,.11-.14.33-.14-.17.15.24.12.36.19s-.33,0-.47,0,.35,0,.42.08c-.11.12-.4,0-.54,0a1.23,1.23,0,0,0,.94.18c-.13.33.56.31.73.4-.08.09-.38,0-.54,0,.07.07.22.07.29.14-.08.25-.44.09-.57.21a9.74,9.74,0,0,1,1,.25c0-.11-.27,0-.19-.21.37.18.89.44.79.65-.05,0,0,0,0,0-.35-.07-.65-.41-1.12-.33.08.15.22,0,.44.09-.24.13.05,0,0,.19-.28,0-.31-.16-.47-.11s0,.09,0,0a1.77,1.77,0,0,1-.81.28,1.75,1.75,0,0,0-.82.39c.11.06.22-.17.34,0-.05-.21.12,0,.36-.17C394.42,85.18,394.18,85.19,394.13,85.41ZM360,92.6c-.14,0-.33-.17-.42,0C359.73,92.54,359.92,92.73,360,92.6Zm3.57-2.86c.32,0,.52.25.7.13C364.05,89.76,363.57,89.65,363.58,89.74Zm6.7,2.87c0,.09-.63-.38-.81-.52a2.59,2.59,0,0,0,1.06.72C370.45,92.77,370.39,92.54,370.28,92.61Zm21.1-4.08-.12-.06c-.08.1-.12.35,0,.23C391.15,88.6,391.37,88.68,391.38,88.53Zm-.81,1.35c.12-.17.28-.2.37-.53C390.66,89.47,390.77,89.64,390.57,89.88Zm.77-1.73c-.11-.08-.4.43-.27.41S391.35,88.25,391.34,88.15Zm-2.34,5c0,.26-.32.51-.16.68C389,93.53,389.15,93.21,389,93.19Zm4.25-7.51s.06,0,.08,0,.21-.27.39-.21C393.62,85.36,393.27,85.68,393.25,85.68Zm-3.91,6.58-.27.67c.1,0,.07.17.19,0C389.07,92.89,389.47,92.2,389.34,92.26Zm-.89,2.12c.22,0,.22-.31.36-.45C388.66,93.85,388.59,94.3,388.45,94.38Zm-27.36-1.8c-.23,0-.46-.12-.51.06C360.72,92.61,361.21,92.66,361.09,92.58Zm-3.36.2c.13-.09.41-.15.45-.25C358,92.65,357.79,92.56,357.73,92.78Zm0-.3c.18,0-.19.11-.08.18.22-.19.48-.18.66-.33C358.14,92.4,357.84,92.3,357.75,92.48Zm28.17-.56c.05-.17.26-.45.2-.56C386.07,91.53,385.86,91.81,385.92,91.92Zm-23.48-2.11c-.12,0-.35,0-.27-.11-.34,0-1.07-.06-.9.12C361.4,89.65,362,89.94,362.44,89.81Zm-3.58.23c.8-.15.48-.32,0,0Zm12.41,3.37c-.14-.08-.3-.21-.36-.11.17,0,.33.28.37.22A.07.07,0,0,1,371.27,93.41ZM360,89.29c.09,0,.05,0,0,.09.22,0,.62-.09.72,0-.24,0-.08.12-.35.06,0,.19.76.14.85,0-.14,0-.46,0-.49,0,.29,0,0-.15.2-.18A2.23,2.23,0,0,0,360,89.29ZM383.91,95c-.09-.13.3-.39.27-.45C384.42,94.57,383.91,94.83,383.91,95Zm-8.4,4.72c-.13.14-.28-.09-.5-.07,0,0,0-.08-.05-.11C375.06,99.5,375.26,99.62,375.51,99.71Zm18.2-13.8s0,0,0,0-.12.13-.25.22c-.05-.13.16-.12,0-.14s.09-.06.11-.06a.14.14,0,0,0,0-.11c0-.07-.09.15-.1,0-.12,0,.05.13-.07.14s.06-.21.2-.27C393.62,85.78,393.64,85.88,393.71,85.91ZM380,100.65c0-.18.24-.25.62-.27.18.07-.64.05-.54.22.77-.09,1.29-.17,1.8-.26a9.35,9.35,0,0,0,1.76-.51c.12.14-.41.24-.61.33,0,0,.09-.08.15-.1A11.41,11.41,0,0,1,380,100.65Zm16.58-15.44c-.23-.2-.49-.38-.09-.19a3.48,3.48,0,0,0,.27.24s0,0-.05,0,0,0,0,0c-.15,0-.23-.2-.43-.24C396.37,85,396.41,85.2,396.54,85.21Zm-31.07,9c-.18,0,.34,0,.38.14C365.73,94.36,365.69,94.28,365.47,94.21Zm-8.21-1.06c-.06,0-.07.06-.06.09s-.13-.1-.21,0S357.22,93,357.26,93.15ZM393.94,82.7c-.18.2-.37,0-.64.07C393.45,82.59,393.71,82.77,393.94,82.7Zm-5.58,3.24c0-.08,0-.1-.08,0a8.41,8.41,0,0,1,.72-1c0,.18-.57.67-.3.75C388.59,85.77,388.12,86.18,388.36,85.94Z"/><path class="cls-2" d="M415.71,92.66a85.83,85.83,0,0,0-23.11,41.49l26-23.11L404.7,189.68,421.9,157a55.7,55.7,0,0,1,1.31,26.65,82.05,82.05,0,0,0-1.62-93.23"/><path class="cls-2" d="M399,124.61l-.67.59-.18.15h0a.15.15,0,0,1,0,.08s0,0,.09-.06l1.73-1.56C400.85,123,400.94,122.9,399,124.61Zm-1,.93c-.15.18-.14.12-.12,0C398.09,125.43,398,125.52,398,125.54Zm3.82-3.34c1.46-1.37,2.58-2.35,4.41-3.93-.47.46-.67.74-1.27,1.31C405.69,118.68,402.37,121.9,401.84,122.2Zm-3.91,3.29c-.12.06,0-.07-.13,0s.05,0-.05.15-.12-.09-.05-.28c0,.06.08,0,.11,0S397.93,125.42,397.93,125.49Zm12.56-10.84.22-.22.43-.4,1-.93,2.42-2.16,4.35-3.8c-1.22,1.16-2.61,2.39-4.09,3.69l-2.27,2Zm-10.15,9.13a20.62,20.62,0,0,1,2.79-2.43C401.93,122.47,401.43,122.79,400.34,123.78Zm.38-.16c.09,0-.13.23-.56.62l-.77.71-.9.79a8,8,0,0,0-.74.67,2.16,2.16,0,0,1,.54-.61l.13-.1.21-.18.42-.38C399.62,124.64,400.18,124.14,400.72,123.62Zm18.55-1.17-.38,2.18c-.22.35.19-1.42.29-2.18Zm-.72,3.64a29.47,29.47,0,0,1-.81,4.37C418.15,128.27,418.23,127.84,418.55,126.09Zm-6.84,38.57c.05-1.22.73-4.76,1.17-7.27C412.58,159.69,412.24,161.42,411.71,164.66Zm-1.18,8.52a1.21,1.21,0,0,1-.23.64c-.07.07-.09,0-.27.45A9.8,9.8,0,0,1,410.53,173.18Zm.45-.89a.71.71,0,0,1-.12.51,1.36,1.36,0,0,0-.21.34,1.35,1.35,0,0,1,.15-.51A1.86,1.86,0,0,0,411,172.29Zm-12.71-49.86c.68-2.31,2.06-4.44,3.11-6.91a17.93,17.93,0,0,1-1.25,2.75C399.52,119.58,398.77,121.1,398.27,122.43ZM410,173.38c-.1.08-.07-.23,0-.57C410.1,172.81,410,173.1,410,173.38Zm7-79.46c-1,1-1.38,1.45-2.52,2.61A17.22,17.22,0,0,1,417,93.92Zm7.88,1.84c-1-1.29-2.41-3.63-3.47-5.21C422.12,91.32,423.86,94.26,424.85,95.76Zm-31.93,33c-.13.15.05-.49-.09-.3.42-1.05.8-2.35,1.35-3.73l.68-1.71c.2-.51.42-1,.63-1.44-.29.87-.56,1.6-.95,2.55C394,125.32,393.56,126.75,392.92,128.76Zm7.38-18.06c-.24.44-1.16,2.29-1.78,3.3A19.47,19.47,0,0,1,400.3,110.7Zm3.22,15.88c1-1.13,3.89-3.37,0,0ZM426.73,97c-.21-.22-1.3-2.23-1.52-2.56a4.83,4.83,0,0,1,.68,1C426.12,95.87,426.39,96.41,426.73,97Zm-10.66,19.25c-.07-.1,0-.34.07-.72-.11.08-.23.18-.39.32.15-.17.32-.35.5-.52A6.7,6.7,0,0,1,416.07,116.21Zm16-8.58c-.26-.56-1.12-2.62-1.67-3.74.56,1.09,1,1.85,1.39,2.72s.74,1.88,1.3,3.4c-.35-.53-.73-1.93-1.38-3.45A7.16,7.16,0,0,0,432,107.63Zm-18.26,21.88c.24-2.47.77-5,1.38-8.72C414.87,123.39,414.42,125.67,413.77,129.51Zm-11.33,64.75c0-.77.38-2.81.8-5.06s.89-4.72,1.22-6.73c-.18,1.44-.45,3-.8,4.9S402.88,191.59,402.44,194.26Zm1.65-67.71c.84-.89,3-2.71,4.37-4C407.62,123.47,405.45,125.3,404.09,126.55Zm18.21,42a6.69,6.69,0,0,1-.28-1.64c0-.37-.09-.77-.14-1.21l-.05-.44-.06-.36a1,1,0,0,1,.1.26c0,.07,0,.16.07.25a1.09,1.09,0,0,1,0,.22l0,.31A18.5,18.5,0,0,1,422.3,168.53Zm14.14-8.76a17,17,0,0,1-.55,2.35c-.32.95-.65,2-.91,2.75C435.32,163.45,436,161.65,436.44,159.77ZM420.81,165c0-.13,0,.1,0,.07C420.78,165.3,420.79,165.4,420.81,165Zm-22.63-39.31a.35.35,0,0,1,.09-.15l1.44-1.29s-.31.33-.51.52c0,.07.14-.07.31-.22a6,6,0,0,1-.45.45l-.7.62C398.29,125.64,398.21,125.68,398.18,125.66Zm-.4-1.88c-.09.19-.1.13-.15.22a1.63,1.63,0,0,0-.13.3l-.27.75s0,0,.11-.09l.15-.3c0-.08.05-.1,0,0s-.08.23-.18.52a.12.12,0,0,0,.05,0s0,0,.08-.18.21-.58.3-.83a2.34,2.34,0,0,1-.16.69,1.42,1.42,0,0,0,.2-.68c.27-.51.2-.15,0,.45l-.15.5a.32.32,0,0,0,0,.16l0,.18c-.05.15-.17.06-.19,0-.06.31-.05.39-.34.61.08-.24.08-.14.15-.17.11-.27,0-.27.15-.61a4.66,4.66,0,0,0-.63,1.61,3.81,3.81,0,0,0-.12.74v.15l.08-.08.22-.27c.08-.13.1-.09.17-.12a.78.78,0,0,0,.33-.33c.05-.2,0-.18-.28.08.07-.18.56-.54.78-.77,0,.15-.2.23-.26.41a.9.9,0,0,0,.31-.45l17.74-15.74c-1.86,1.54.1-.22,1.53-1.54.17,0-.42.48-1,1a25.9,25.9,0,0,0,3.08-2.86c.74-.56,1.48-1.22,2.86-2.44l-.15.84c-1.15,6.32-.88,5,.06-.68L419.69,107c.54-.43,1.33-1.12,2.26-2-.41,2.31-.9,5.16-1.27,7.3a18.29,18.29,0,0,1,.61-3.78c-.58,2.12-1.25,5.9-2,10.49-.23,1.41-.48,2.92-.73,4.4s-.5,2.82-.76,4.07c.43-1.75.93-4.93,1.42-7.65a20.12,20.12,0,0,1-.46,2.91,6.63,6.63,0,0,0,.37-1.41l.2-1.08c.08-.51.17-1,.26-1.58.5-2.93,1-5.83,1.41-7.25-2.18,11.85-4,22.07-6,32.79a10.9,10.9,0,0,1-.28,1.09c-1,7.27-2.45,13.34-4.21,23.65.21-.23-.24,1.22-.29,2.18-.21,1,0-.83-.05-.72-.06.39-.11.74-.16,1.06l0,.23v.61a3.85,3.85,0,0,1-.26,1.13c.05-.48.21-.88.19-1.14-.29,1.28-.6,3.23-.73,4.14.33-1.28.32-1.8.26-1a2,2,0,0,1-.07.71c-.19.62-.18.51-.32,1,0,.06,0,.1,0,.14.39-.82.75-1.55,1.08-2.23a14.6,14.6,0,0,0,.78-1.87c0,.21-.16.36-.2.59s.15-.18.24-.41.16-.42.24-.44,0-.2,0-.29c.18-.24,0-.2.19-.49,0,.12-.06.28,0,.41.75-1.42,1.58-3,2.42-4.58l1.55-2.94,1.84-3.6a3.69,3.69,0,0,0-.38.63l-.5.95.06-.17.16-.34.45-.89c.34-.65.76-1.43,1.2-2.25l1.35-2.53c.44-.78.87-1.53,1.25-2.22-.2.29-.45.69-.74,1.16-.15.25-.31.48-.48.8l-.55,1c-.77,1.44-1.65,3.13-2.57,4.87l-1.57,3c-.49.91-.95,1.75-1.34,2.41-1.66,3.05,2-3.92,2.52-4.92l2.9-5.47c.25-.46.5-1,.75-1.4l.72-1.2,1.45-2.41.72-1.2.18-.3c.06-.08.13-.29.16-.07l.2.74.81,2.94c.25,1,.51,1.92.77,2.88s.51,1.93.72,3l.33,1.56.24,1.47.23,1.43.11.94c.15,1.26.25,2.53.32,3.82a62.3,62.3,0,0,1-.09,7.95c0-1.08.09-3,.07-5.07a48.53,48.53,0,0,0-.36-6c0,.43.12,1.66.18,2.75s.09,2,0,1.89a23.6,23.6,0,0,1,.12,2.66c0-.13-.07-.66-.13-.74a33.53,33.53,0,0,1-.12,3.82,13.57,13.57,0,0,0,.12-1.53c.08,1-.35,5.22-.32,3.82-.16,1.51-.4,3.06-.73,4.79l-3.7-1.53c.67-1.08,1.37-2.19,2.08-3.32l1.09-1.72c.34-.59.65-1.21,1-1.83l2-3.76q.85-2,1.74-4a41.23,41.23,0,0,0,1.57-4.2,45.09,45.09,0,0,0,1.35-4.32c.37-1.48.74-3,1.1-4.44s.5-3,.74-4.51c-.14.23-.35,2.19-.5,2.5-.15.7.36-2.37.47-2.85a16.5,16.5,0,0,0-.57,2.61c-.1.62-.21,1.27-.31,1.87s-.27,1.14-.36,1.55c-.19.79-.4,1.63-.61,2.51a26,26,0,0,1-.73,2.71c1.13-4.93,2.59-10.45,3-17,0,.21.08.81.16-.38,0,.95-.28,3.46-.42,5,.22-1.75.39-3.69.58-5.62s.11-3.85.2-5.56c-.1.18,0,1.92-.12,2.18,0-1.12.11-2.46,0-3.88s-.14-2.92-.21-4.36a19.78,19.78,0,0,0-.19-2.09c-.09-.67-.17-1.32-.25-1.91-.15-1.19-.28-2.19-.4-2.86s-.49-3.87-.7-5.1c-.05-.26-.1-.54-.17-.83s-.18-.59-.27-.9c-.18-.62-.38-1.26-.56-1.86a9.22,9.22,0,0,1-.56-2.8c.06.33.19.81.37,1.42,0-.55-.48-2.06-.57-2.54.31,1.36-2.1-4.86-1.82-4.74-.58-1.14-.74-1.5-1.28-2.6a4.6,4.6,0,0,1,.57.91,12.29,12.29,0,0,0-1.3-3,16.28,16.28,0,0,0-1.7-3.69,12.14,12.14,0,0,0-1.68-3.78c.3.16,1.28,2.21,1.54,2.47a8.8,8.8,0,0,1-.56-1.38,4.93,4.93,0,0,0-.7-1.37,2.89,2.89,0,0,1,.6.93c.22.33.09,0-.11-.42a7.89,7.89,0,0,1-.5-1c-1.12-1.51-1-1.56-1.87-2.74,2.71,3,6.55,9.83,8.76,14.92a25.78,25.78,0,0,1,.76,2.53c.26.66.41.83.73,1.7,0-.1-.47-1.49.07,0-.22-.7-.86-2.71-1-2.84a9,9,0,0,1,.94,2l.72,1.89c.25.66.4,1.36.58,2l1.35,4.1c.39,1.45.72,3,1.06,4.9.17.47.35,1,.51,1.38-.64-2.68-1.24-6.36-2-8,.42.74-.33-1.42-.61-2.58a43.6,43.6,0,0,1,1.53,5.14c.42,2.13.89,4.34,1.21,5.75-.08-.79-.11-1,0-.82a5.56,5.56,0,0,1,.37,1.45,36.78,36.78,0,0,1,.63,4.87,7.86,7.86,0,0,1,.33,2.21,4.29,4.29,0,0,1-.15-1.1c0,1.54.09,3.63.14,5.94,0,1.16,0,2.37-.07,3.6a32.16,32.16,0,0,1-.17,3.68,5.06,5.06,0,0,1,0-1.52c0-.79,0-1.77,0-2.59,0,2.65-.39,5.6-.64,8.76A98.49,98.49,0,0,1,436,159c-.2.84-.39,1.68-.59,2.52l-.79,2.48-.79,2.48c-.13.41-.25.83-.4,1.24l-.49,1.2c-.65,1.59-1.28,3.17-1.95,4.71s-1.5,3-2.23,4.37c-.23.43-.44.87-.7,1.3l-.78,1.22c-.52.81-1,1.59-1.47,2.33a20,20,0,0,1-1.22,1.7l-5,6.8,2.13-8,.05-.19a58.58,58.58,0,0,0,.88-7.32,54.58,54.58,0,0,0,0-7c-.05-.4-.06-.18-.05,0-.06-.67-.13-1.36-.21-2.09-.05-.36-.1-.73-.14-1.1s-.08-.49-.11-.75c-.07-.48-.14-.77-.2-1.15s-.15-.74-.24-1.1-.19-.74-.29-1.11c0,0,0-.06,0,0l0,.06-.06.12-.13.23-.25.47c-.33.62-.65,1.21-.92,1.73.39-.78.84-1.68,1.33-2.64l.09-.18.06.18.11.39c.08.26.14.53.22.81q.19.83.36,1.71c.05.35.11.71.17,1.07l.22,1.79c.12,1.2.21,2.41.25,3.6a54.8,54.8,0,0,1-.19,7,39.55,39.55,0,0,0,.25-8.32c0-.77-.13-1.56-.21-2.36l-.15-1.19-.08-.57-.06-.39c-.09-.55-.17-1-.25-1.38s-.18-.85-.29-1.27l-.21-.82c-.08-.21-.13-.77-.28-.3l-.78,1.44-2,3.72-2.89,5.57-1.36,2.6c-.57,1.07-1.07,2-1.46,2.66L401.85,198c1.85-10.53,3.5-19.95,5.38-30.67-.1.39-.26,1.29-.45,2.37-.24,1.38-.53,3-.77,4.42,0-.29.1-.81.21-1.49l.35-2.1c.22-1.22.47-2.65.7-3.92.21-1.11,1-5.1.6-2.91-.27,1.69-.45,2.19-.57,3.27.84-4.38,1.53-8.26,1.7-9.82.67-2.64,1.94-10.81,3.13-17.47.77-4.38,1.59-9.06,2.44-13.92q.62-3.51,1.24-7.11c.24-1.29.48-2.59.73-3.89l-.22.18c-.24.24,0,.08-.25.34a2.18,2.18,0,0,1-.43.22c-.25.25-.22.38-.62.67a1.6,1.6,0,0,1,.3-.33c-.49.36-1.27,1.06-2,1.7-1.35,1.19-2.66,2.33-3.48,2.91-.72.94-5.17,4.6-7.67,6.92-.24-.16,1.18-1.17,2.41-2.27-1.52,1.21-2.41,2-3.42,2.9l-2.22,2-3.31,2.88c.84-.67,1.75-1.42,2.82-2.33l1.74-1.5,1.63-1.46c-.2.23-.45.48-.72.75l-.56.53-.68.63c-.95.86-2,1.79-3.08,2.72-.53.45-1.1,1-1.58,1.35l-1.45,1.18-2.59,2.1c1-.75,2.4-1.79,3.91-3-1.54,1.34-2.88,2.32-4.12,3.24l-.23.17-.12.09-.06,0s0,0,0-.08l.23-.79c.14-.51.29-1,.43-1.54.28-1,.53-2,.76-2.93-.31,1.37-.68,2.9-1.11,4.52l-.08.3c0,.08-.11.29,0,.16l.44-.36.91-.75c.62-.53,1.3-1.12,2-1.78l-2.11,1.68-1,.85c-.08.08,0-.07,0-.11l.05-.19.1-.39.2-.76c.52-2,1.06-4,1.59-5.81s1.19-3.79,1.88-5.46c.54-1.42,1.18-2.75,1.78-4,.5-1,.17-.67.67-1.72-.26.94.61-1,1-1.63,0,.19-.8,1.61-1.12,2.35,0,.35.82-1.79,1-2a25.93,25.93,0,0,1-1.26,2.7A39,39,0,0,0,399.4,115c-.09.87,1.81-2.88,2.44-3.8-.12.36-1.12,2-1.55,2.92.28-.38.73-1.22,1-1.58.07.43-1.22,2.45-1.47,3.31.9-1.62,2.15-3.88,3.31-5.74-.2.17-.93,1.6-.9,1.21,1.38-2.21,3.71-5.55,3.91-5.42-.23.34-.08.18,0,0a68.91,68.91,0,0,0-4.63,7.45c.43-.53.77-1.39,1.65-2.84-.66,1.47.24-.33.35-.26-1,1.86-1.34,2-1.83,3.15,0,.12.25-.27.21-.3-.17.51-.55,1.33-1,2.32s-1,2.18-1.55,3.43c-.26.63-.53,1.26-.8,1.88s-.48,1.26-.71,1.86-.43,1.18-.6,1.72l-.13.4c0,.13-.08.27-.09.29l-.06.3c.09,0,.52-1.73.91-2.22-.21-.06.38-1,1.15-3A35.44,35.44,0,0,0,397.78,123.78Zm36.09,0a28.45,28.45,0,0,0-.51-2.87A24.87,24.87,0,0,0,433.87,123.73Zm4.27,20.09a30.54,30.54,0,0,0-.3,3.73A35.65,35.65,0,0,0,438.14,143.82Zm-12.27,38.65a21,21,0,0,1,1.18-2c.33-.53.72-1.09,1-1.62s.54-1,.69-1.28c-.18.28-.44.73-.74,1.27s-.72,1.13-1.1,1.76c-.79,1.26-1.59,2.59-2.06,3.44A10.48,10.48,0,0,0,425.87,182.47Zm-17.26-65.61.11.08c.65-.54,1.8-1.67,1-1C409.61,116.2,409.25,116.21,408.61,116.86Zm11.94-10.41c-1.65,1.41-2.35,1.84-5.32,4.57a29.9,29.9,0,0,0,2.44-2C418.47,108.27,419.37,107.44,420.55,106.45Zm-13.41,12a16,16,0,0,0,2.51-2.19A32.53,32.53,0,0,0,407.14,118.47Zm9.88,13.1c-.08,1.21-.65,3.18-.5,3.63C416.91,133.17,417.2,131.33,417,131.57Zm-20.58-4a.75.75,0,0,1,.18-.3,4.48,4.48,0,0,0,.15-.68,1.86,1.86,0,0,1,.24-.68,2.13,2.13,0,0,0-.37.87Zm21.48-1.41-.69,4c.1,0,0,.69.24-.37C417.24,129.91,418.11,125.57,417.92,126.11Zm-2.11,12.37a21.62,21.62,0,0,0,.65-2.91C416.29,135.5,416,137.85,415.81,138.48Zm19.07-7.22a23.59,23.59,0,0,0-.49-3.57c.06.48.21,1.57.32,2.44S434.85,131.66,434.88,131.26Zm-5-23c.41,1,1,3,1.31,3.39A28.18,28.18,0,0,0,429.86,108.21Zm.61.88c.35,1.12-.54-1.39-.5-1,.76,1.84,1.22,3.39,1.82,4.75C431.31,111.61,431,110.06,430.47,109.09Zm-16.86,22.6c.17-1.11.61-3.14.59-3.64C414,129.16,413.6,131.19,413.61,131.69ZM438,137.87c0-.33,0-.8,0-1.14s0-.55.06-.38c-.1-1.86-.32-5.76-.45-4.81a18.88,18.88,0,0,1,.19,2.62C437.89,135.38,438,136.79,438,137.87Zm-2.45-19.23c.88,4.24.8,2.72,0,0Zm-13.12,59.87a11.19,11.19,0,0,0-.18,2.13c.1-1,.37-2.46.29-2.5C422.54,178.42,422.5,178.56,422.46,178.51Zm15-53.48c.05.45,0,.24-.08,0,.12,1.14.48,3.19.45,3.74a12.63,12.63,0,0,1-.29-1.85,7.86,7.86,0,0,0,.14,2.09c.06.53.14,1.06.22,1.5a7.17,7.17,0,0,0,.13.9c0-.79-.33-2.43-.24-2.63.21,1.56.1-.26.32,1.07C437.89,128.2,437.58,125.49,437.44,125ZM409.3,155.7c-.11-.29.56-3.42.55-3.63C410.2,151.2,409.33,154.84,409.3,155.7Zm3.25,14.24a23.38,23.38,0,0,1,1.11-2.32c0,.07.11-.05.26-.3C413.79,167.7,413.2,168.73,412.55,169.94ZM397.34,126c.07-.05,0,0,0,.07a1.65,1.65,0,0,1-.09.58c-.22.29.06-.35-.11,0s.05-.24.08-.3,0-.08-.09,0,0,.28-.19.32c-.17.41.21-.19.05.19s-.11-.19,0-.63A.36.36,0,0,0,397.34,126ZM410,174c-.38,1.07-.46,1.17-.37.73s-.09.56.28-.52a5.47,5.47,0,0,1,.13-1c.08-.35.15-.7.26-1.22.18,0,0,.21.05.3s-.06,0,0,0a4.49,4.49,0,0,0-.17.83C410.14,173.4,410.12,173.64,410,174Zm-2.38-69.42c-1.69,2.27-3.12,4.27-1,1.14.59-.86,1.12-1.39,2-2.63.07,0-.05.14-.17.32s.12-.1.25-.28c-.61,1-1.83,2.38-2.75,3.85A22.12,22.12,0,0,1,407.66,104.6Zm23.3,58a14.4,14.4,0,0,1-.74,2.4C430.36,164.4,430.56,164,431,162.63ZM428,104.28a2.3,2.3,0,0,0-.34-.63c-.43-.9,0-.41-.31-1.1C427.43,102.54,428.28,104.52,428,104.28Zm-31.71,16c-.27,1.12-.84,1.67-1.31,3.12A24.26,24.26,0,0,1,396.31,120.24ZM408,122.67c-.34.32-.21.3.07,0l-4.72,4.16c.39-.54,3.36-2.89,2.89-2.81C406.85,123.5,409.32,121.58,408,122.67Z"/><path class="cls-2" d="M1705.55,125.83c4.2,8.38,8.44,16.85,10.62,26s2.17,19.16-1.93,27.52-12.84,14.56-21.91,13.71c-5.86-.55-11.23-3.88-15.45-8.15s-7.44-9.47-10.62-14.61l-9.91,27a333.76,333.76,0,0,1-.72-61.45l34.66,18.61a3.1,3.1,0,0,0,2.43.52,3.17,3.17,0,0,0,1.48-1.95l11.58-28.51"/><path class="cls-2" d="M1717.25,175.68c.16-.45.35-1.07.5-1.68a12.31,12.31,0,0,0,.35-1.57A25,25,0,1,0,1717.25,175.68Zm1.76-12.55c0-.3-.07-1.26-.13-2.31A16,16,0,0,1,1719,163.13Zm-3,15.7a24.4,24.4,0,0,1-2.65,4.74c.35-.5.46-.79.86-1.44-.25.46.22-.19.68-1.09S1715.87,179.07,1716,178.83Zm2.77-19.33c0-.07-.13-1.22-.2-1.29,0,.1.11.55.14,1.32-.08-.56-.17-1.18-.32-2.27.07.35.08.26,0-.36A13.13,13.13,0,0,1,1718.78,159.5ZM1710,187.45a20.45,20.45,0,0,1-2,1.8,22.92,22.92,0,0,1-2.24,1.61A34.42,34.42,0,0,0,1710,187.45Zm6.65-10.49a16.72,16.72,0,0,1-.67,1.74,6.1,6.1,0,0,1-.68,1.35A32.73,32.73,0,0,0,1716.67,177Zm-.19.31c0,.06,0-.23.23-.72s.41-1.22.64-2a37.39,37.39,0,0,0,1.06-5A32.4,32.4,0,0,1,1716.48,177.27Zm-22.76,17.17c-.69-.05-1.39,0-2.08-.14-.17-.06.17,0,.63,0l1.43.07Zm-3.45-.4a14.81,14.81,0,0,1-2.19-.51,8.45,8.45,0,0,1-1.75-.66A21.07,21.07,0,0,0,1690.27,194Zm-23.72-20.84v0s.12.11.22.27l1.8,2.83c-.57-.83-1-1.57-1.57-2.39l-.33-.51c0-.06-.08-.11-.12-.18Zm-11.31,25.71a9.71,9.71,0,0,1,.17,1.23c0,.34.08.74.12,1.17q0,.33.06.69c0,.12,0,.24,0,.37v.28l0-.08c.69-1.8,1.55-4,2.3-6.14C1658.06,195.79,1654.89,207,1655.24,198.91Zm-1-10.38c.1.49.18,1.39.26,2.32s.13,1.6.19,2.34.14,1.49.19,2.05c-.07-.26-.23-1.8-.38-3.65C1654.45,190.53,1654.35,189.33,1654.28,188.53Zm63.37-34.4c-.51-2.12-.9-4.37-1.69-6.67A45.76,45.76,0,0,1,1717.65,154.13ZM1662.51,184c.22-.74.67-2,1.17-3.34C1663.52,181.22,1663,182.64,1662.51,184Zm43.84-58.54,1.43,2.91C1707.62,128.06,1706.22,125.34,1706.35,125.43Zm-2.74,4.15c.47-1.35,1.43-3.54,2.05-5.09C1705.4,125.39,1704.2,128.12,1703.61,129.58ZM1716.93,160c0,.06-.08-.37-.11-.28a40.93,40.93,0,0,0-.55-5.14A35,35,0,0,1,1716.93,160Zm-3.55-15.18a31.42,31.42,0,0,1,1,3C1714.11,147.18,1713.71,145.85,1713.38,144.85Zm1.16,31.79a13.92,13.92,0,0,1-.81,2C1713.53,178.94,1713.71,178.67,1714.54,176.64Zm-11.1-45.24c.06-.26.82-2.09,1-2.4C1704.28,129.48,1703.83,130.35,1703.44,131.4Zm-2.28,59.44c.7-.34,1.34-.62,2.49-1.26a11.45,11.45,0,0,1-1.19.68A9,9,0,0,1,1701.16,190.84ZM1699.61,141c.16-.51.92-2.28,1.31-3.29-.73,2-1,2.8-2.08,5.39.13-.53.66-1.65,1.16-3A9,9,0,0,0,1699.61,141Zm-12.35,50.07a19.73,19.73,0,0,0,7.26,1.2A16.66,16.66,0,0,1,1687.26,191.05Zm-28.67-1.91c.44-1.52,1.6-4.38,2.41-6.68C1660.42,184.26,1659.71,186,1658.59,189.14Zm55.65-12.21a22.85,22.85,0,0,1-2.24,4.45A30.52,30.52,0,0,0,1714.24,176.93Zm-58.8-16.1c.1.64,0,2.09,0,3.85A37.38,37.38,0,0,1,1655.44,160.83Zm10.2-18.26c-.78-.36-2.75-1.47-4-2.11C1662.76,141,1664.2,141.78,1665.64,142.57Zm-9.57,29.67c0-.91,0-.85,0-1.62A5.84,5.84,0,0,1,1656.07,172.24Zm61.94.2a27.86,27.86,0,0,1-1.06,3.88,6.24,6.24,0,0,1,.18-.64c0-.05-.06.13-.12.32C1717.11,175.65,1717.77,173.51,1718,172.44Zm-.11-17a5.41,5.41,0,0,0,.17,1.33c.06,0-.16-1.44.11.29,0-.12-.11-.83-.18-1.32a4.61,4.61,0,0,1,.14.63,2.81,2.81,0,0,0-.12-.64c-.1-1,.34,1.29.44,2.22s-.06.13-.08.05a5.93,5.93,0,0,1,.13,2c-.07-.84,0-.41,0-.35-.08-1.05-.15-1.14-.27-2.29,0,.87.27,2.9.33,4.87s0,3.84,0,4.37c0,.12-.19,1.59-.22,2.31a11.85,11.85,0,0,0,.29-2.34,32.67,32.67,0,0,1-.49,4.29s.16-1.08.09-1a4.76,4.76,0,0,0-.14,1.3,33.07,33.07,0,0,1-3.52,10,27.46,27.46,0,0,1-7.33,8.41c1-.77,0,.1-.77.63-.13.05.18-.18.52-.42a11.28,11.28,0,0,0-1,.68c-.34.27-.66.46-.66.49-.56.28-1,.61-2.11,1.13a13.5,13.5,0,0,1-1.83.79l1.25-.53a23.63,23.63,0,0,0,2.32-1.27,24.62,24.62,0,0,1-5,2.23c.43-.22,1-.39,1.9-.73a29.13,29.13,0,0,1-5.37,1.39,18.75,18.75,0,0,1-7.68-.5,17.26,17.26,0,0,0,3.18.63c.63,0,1.3.07,2,.09s1.33,0,2-.11a5.37,5.37,0,0,1-1.08.11,14.79,14.79,0,0,1-1.64,0,5.31,5.31,0,0,0,1.34.06,14.35,14.35,0,0,0,2.15-.19c1.54-.21,3-.69,3.65-.8a20.08,20.08,0,0,1-13.79-.4,30.77,30.77,0,0,1-10.71-7.37,8.25,8.25,0,0,1-.67-.76,48.89,48.89,0,0,1-5-6.27c-.77-1.12-1.54-2.3-2.33-3.56l-1-1.65-.36-.6c-.21.6-.45,1.24-.7,1.92a16.35,16.35,0,0,1-.62,1.82c-.32.82.21-.69.13-.61-.93,2.62-1,3-2.19,6.07.54-1.52.92-2.45,1.22-3.33-1.29,3.52-3.17,8.64-4.35,11.83.87-2.22,2-5.4.72-1.82l-.51,1.45c-.21.56-.44,1.21-.73,2s.09-.38-.29.52l-1.88,5.19-.88,2.41-.43,1.17-.22.59c0,.08,0,0,0,0v-.15l0-.3c-.34-3.2-.66-6.18-1-9.16,0,.1.23,2.49.3,2.74,0-.83-.17-2-.28-3.18,0-.44-.09-.88-.13-1.27s0-.56,0-.75c0-.44-.07-.25-.1-.29-.09-1.41-.09-.78-.2-2.25.06.27.13,1.17.18,1.25-.28-3.39-.47-7.43-.69-11.32a6.93,6.93,0,0,0,0,1c-.11-.75-.12-3.18-.22-4.85,0,1.72.28,7.06.38,9.75.15,3-.26-3.85-.29-4.84-.34-8-.36-16.16-.12-25.34,0,1.83-.12,6.46-.09,9.38.08-.72,0-4.17.11-3.92,0-1-.06-.9,0-2.25,0,.1,0,.56.06.62,0-1.36,0-1.74.07-3.24,0,.11,0,.82-.06,1.31a23.25,23.25,0,0,1,.11-3.25c.08-2.34.19-4.85.35-7.48.09-1.31.18-2.65.28-4q.21-2.78.44-5.63l9.8,5.32,8.75,4.68c-.17-.15-1.75-.94-2-1.11-.55-.32,1.9,1,2.28,1.21-.42-.33-3.51-1.95-4.83-2.65l-4.27-2.29c4.06,2.06,8.54,4.51,13.68,7.27-.18-.08-.68-.27.28.22-.78-.36-2.75-1.46-4-2.11l8.83,4.79c-.12-.12-1.52-.81-1.71-1l6.5,3.52c1.12.59,2.27,1.24,3.13,1.67a2,2,0,0,0,1,.25.66.66,0,0,0,.43-.21,5.34,5.34,0,0,0,.85-1.48c.4-.84.82-1.73,1-2.24.74-1.73,1.8-4.71,2.3-5.39-.13.27-.3.68-.51,1.2.23-.42.75-1.72,1-2.09a31.48,31.48,0,0,1,1.67-4.2c.38-1.06.53-1.38.92-2.4a6.43,6.43,0,0,1-.29.9,18.46,18.46,0,0,0,1.13-2.69c.55-1.28.63-1.15,1.45-3.29a23.18,23.18,0,0,0,1.57-3.29c0,.26-.85,2.08-.92,2.4.63-1.43.5-.9,1.13-2.4a4.69,4.69,0,0,1-.37.9c-.22.65.53-1.1.63-1.19.56-1.53.61-1.53,1.06-2.7-1.14,3.34-3.64,9.62-5.4,14.09-.34.76-.73,1.7-.95,2.09-.22.58-.25.76-.55,1.51.05-.07.54-1.25,0,0,.26-.59,1-2.26,1-2.4.06.11-1.12,3-2,5.1-.89,2.3-1.63,4.47-3,7.51a4,4,0,0,1-.76,1.29,5,5,0,0,0,1.12-1.87l.73-1.83c.47-1.19.9-2.29,1.14-3-.17.69.51-1.16.92-2.1-.3.9-1,2.57-1.69,4.3l-1,2.56a4.56,4.56,0,0,1-1.5,2.24,3.54,3.54,0,0,0,.69-.59c.1-.11.11-.1.06,0a2,2,0,0,1-.41.49,2.37,2.37,0,0,1-1.1.57,4,4,0,0,1-2.68-.59c-.68-.36-1.31-.72-1.77-1a16.91,16.91,0,0,1-1.72-.82,6.18,6.18,0,0,1,.86.41c-2.27-1.34-6.28-3.45-10-5.42a34,34,0,0,1,3.15,1.61c-3.42-1.87-7.59-4.08-12-6.4l-12.1-6.39c-.09,1.24-.17,2.4-.25,3.51-.11,1.68-.25,3.38-.31,4.84-.06,1-.13,1.28-.19,2-.21,5.33-.29,8.05-.35,12.91,0,.36,0,.17,0,0,0,4.79.07,11.67.27,16.13-.33-6.3-.45-16.22-.15-24.18-.28,4.23-.27,10.3-.17,16.15.06,3.76.18,7.49.36,11,.16,3.64.53,7.73.62,9.66.1,1.13.19,2.21.29,3.26l.12,1.18,0,.56.2-.54,2-5.42c1.84-5,3.61-9.86,5.58-15.26-.27.64-1.11,3-1.8,4.86.11-.34.4-1.18.77-2.19l1.28-3.47c.27-.74.94-2.53,1.34-3.6.52.86.74,1.22,0,.1l0-.05c-.74,2.06-1,2.68-1.46,4,.51-1.37,1-2.7,1.47-4l2.6,4.19c.54.84,1,1.5,1.27,1.92a58.45,58.45,0,0,0,3.63,5.24,42.17,42.17,0,0,0,6.13,6.49,24.58,24.58,0,0,0,10.83,5.47,18.91,18.91,0,0,0,12.64-2.09c.43-.23-.26.11.24-.18.78-.41.32-.18,1.13-.6.41-.26.17-.19,1-.74a5.1,5.1,0,0,1-.5.38,22.66,22.66,0,0,0,3.39-2.71c.56-.54,1.07-1.1,1.52-1.59l1.1-1.27c.12-.22.4-.63.77-1.15s.8-1.21,1.2-2a25.21,25.21,0,0,0,2.07-4.69,9.18,9.18,0,0,1-1,2.65,23.07,23.07,0,0,0,1.4-3.58,37.52,37.52,0,0,0,1.07-4.64,44.38,44.38,0,0,1-1.33,5.27c.29-1,.68-2.59,1-4.25a41.43,41.43,0,0,0,.64-4.8c-.12,1-.26,2.25-.49,3.51a39.67,39.67,0,0,0,.58-7.35,44.59,44.59,0,0,1-.27,6.37,40.9,40.9,0,0,0,.33-8,59.2,59.2,0,0,0-1-7.72c-.21-1-.17-.57-.4-1.54.26.79-.18-1-.32-1.62.09.13.38,1.51.55,2.19.15.24-.4-1.66-.42-1.91a20.48,20.48,0,0,1,.6,2.51,10.76,10.76,0,0,0-.29-1.65,25.64,25.64,0,0,0-.76-2.79c.38.63-.73-2.88-1.08-3.79.17.28.69,1.91,1,2.74-.08-.41-.36-1.2-.45-1.58a25.67,25.67,0,0,1,1.08,3c-.42-1.59-1.14-3.77-1.8-5.59,0,.22.56,1.54.37,1.28-.34-1.1-.86-2.49-1.28-3.6a15,15,0,0,1-.7-2c.15.34.09.15,0,0,1,2.34,1.79,4.61,2.77,7.3-.12-.6-.46-1.35-1-2.77.57,1.31-.1-.34,0-.36.69,1.74.7,2.07,1.08,3.07.06.06-.06-.32-.08-.32a43.66,43.66,0,0,1,1.74,5.39c.63,2.35,1.09,4.93,1.35,6.54,0-.68-.33-2-.36-2.62-.12,0-.14-1-.64-2.86C1717.33,152.76,1717.67,154.56,1717.9,155.41Zm-24.82-2a19.67,19.67,0,0,0,1-2.3C1693.75,151.92,1693.35,152.83,1693.08,153.43ZM1678,148.65c-1.28-.67-2.23-1.26-2.85-1.5C1676.11,147.71,1678.06,148.76,1678,148.65Zm-22.11-3.27c-.06.08.2-3.72.3-4.84-.16,1.13-.38,4.8-.41,6.45A15.49,15.49,0,0,0,1655.84,145.38Zm55.81,40-.07,0c-.48.61-1.5,1.67-.85,1C1710.86,186.14,1711.15,186.05,1711.65,185.38Zm-7.28,6,1.38-.76a21.61,21.61,0,0,0,1.76-1.26C1706.4,190.06,1705.89,190.54,1704.37,191.37Zm8.4-7.62c.06-.07-2.26,2.73-1.92,2.34A18.18,18.18,0,0,0,1712.77,183.75Zm-27.37,8.44c-1.05-.36-2.6-1.39-3-1.49A11.68,11.68,0,0,0,1685.4,192.19Zm33.15-28.88c0-.26,0-.39,0-.35,0-1.49-.18-2.78-.23-4,0,.09.07,1.11.11,2.14S1718.55,163.22,1718.55,163.31Zm-28.34,30.41a23.14,23.14,0,0,1-3.57-1s-.6-.15.32.21c-.07-.08.84.25,1.73.49A7.88,7.88,0,0,0,1690.21,193.72Zm-10.27-4.78a17.52,17.52,0,0,0,2.19,1.58C1682.2,190.48,1680.37,189.36,1679.94,188.94Zm8.49-36.45c1.28.64,2.55,1.45,2.81,1.46C1690.56,153.63,1687.8,152.1,1688.43,152.49Zm10.23-12.14c-.35.91-1.07,2.58-1.18,3C1698.07,141.83,1698.4,141.23,1698.66,140.35Zm-.22.9c-.42,1,.48-1.22.29-.9-.63,1.66-1.21,3-1.67,4.2C1697.52,143.42,1698.14,142.16,1698.44,141.25Zm-12.91,49.17a17.24,17.24,0,0,0,2.91,1.13C1687.53,191.29,1685.92,190.57,1685.53,190.42Zm-3-39.47c.51.28,1.43.74,1.13.66a34.29,34.29,0,0,0,3.72,1.88C1686.82,153.28,1684.22,151.75,1682.53,151Zm13.33-.68c-1.4,3.47-.81,2.3,0,0Zm-40.38,1.58a16.4,16.4,0,0,0,0-1.92c0,.9-.12,2.22-.08,2.25C1655.44,151.93,1655.46,151.8,1655.48,151.85Zm37.53,3.87c-.57.17-.3.08,0,0a2.39,2.39,0,0,1-1.2.12,4.08,4.08,0,0,1-1.12-.32,10.51,10.51,0,0,1-1.31-.7c1,.51.32.15,1.52.74-.13-.09-3.08-1.71-3.5-1.85.58.33,1.87,1,2,1.09-1.2-.63.15.16-.87-.37.66.35,1.4.81,2.27,1.2a3.7,3.7,0,0,0,1.35.3A2,2,0,0,0,1693,155.72ZM1670.68,176c.18.16,1.72,2.47,1.85,2.59A31.15,31.15,0,0,1,1670.68,176Zm-16.51,8.95c-.11-.37-.08-1.33-.19-2.25,0,0,0-.09,0-.34C1654.06,182.67,1654.1,183.7,1654.17,184.91Zm64.5-24.33a1,1,0,0,1,0,.33c.08.86.11,2,.1,3.3,0-.11,0-1.88,0-1,0,0,0-1.12,0-1.32a3.55,3.55,0,0,0-.07-.64s.11,1.52,0,.67c0,1.08.08.23.07,1.31-.06-.19-.09-1.56-.18-2.94C1718.61,160.74,1718.67,161.06,1718.67,160.58Zm-58.75,30.67a10.66,10.66,0,0,1,.77-2.43c.28-.64-.89,2.44-.68,2.13,2.1-5.88,2.83-7.75,4.9-13.36a25,25,0,0,1-.84,2.43,4.6,4.6,0,0,1,.19-.61C1663.32,182,1661.42,187.17,1659.92,191.25Zm51.83-54.34c1,2.33,1.78,4.39.48,1.24-.37-.85-.59-1.48-1.16-2.7,0-.07.07.1.15.28s0-.13-.12-.31c.5,1,1.08,2.46,1.69,3.88C1712.5,138.79,1712.2,137.86,1711.75,136.91Zm-48.35,1.92a18.92,18.92,0,0,1-2-1C1661.92,138,1662.27,138.25,1663.4,138.83Zm36.67-2.08a4.11,4.11,0,0,0,.22-.6c.32-.82.2-.27.45-.89A8.77,8.77,0,0,1,1700.07,136.75Zm16.06,16.53a26.36,26.36,0,0,1,.49,2.87C1716.43,155.3,1716.37,154.36,1716.13,153.28Zm-3.83,27.86c.2-.33.12-.28,0,0a27.3,27.3,0,0,0,2.35-4.78c-.08.57-1.54,3.44-1.31,3.17C1713,180.19,1711.48,182.36,1712.3,181.14Z"/><path class="cls-2" d="M1690.78,96.78a13.52,13.52,0,0,0-8.9,12.49,14.9,14.9,0,0,0,8.29,13.12,16.68,16.68,0,0,0,15.68-.84c3.3-2,6-5.41,6.07-9.27a12.38,12.38,0,0,0-2.93-7.49c-4.26-5.52-12-8.82-18.45-6.14"/><path class="cls-2" d="M1687.63,109.3c0-.16.07-.42-.08-.56C1687.41,109.2,1687.65,110.09,1687.63,109.3Zm.19-2.16c-.17-.11-.12-.29,0-.46C1688,106.77,1687.84,107,1687.82,107.14Zm-.33,2.73a2.12,2.12,0,0,1,.17.93c-.1-.09-.26-.11-.33-.24C1687.74,110.68,1687.26,110,1687.49,109.87Zm.37-3.43c-.17-.08,0-.25-.15-.33s.06.14-.1.23a.53.53,0,0,1-.07-.52c.07.11.15.13.19,0C1688,106,1687.91,106.22,1687.86,106.44Zm-.21,5.32c.25.15.37.69.4.94C1687.67,112.55,1687.83,112.05,1687.65,111.76Zm-.53-2.22c.11.06.28.61,0,.62C1687,109.89,1687.17,109.78,1687.12,109.54Zm-.26.07c-.44.06-.09-1-.13-1.51C1687.11,108.64,1686.61,109.09,1686.86,109.61Zm2.27,5.28.26.3c-.2.26-.26-.12-.39-.19Zm.32.62c.15,0,.72.4.52.63A7.4,7.4,0,0,1,1689.45,115.51Zm6.14,3.27a.77.77,0,0,1-.63.13l-.77-.18A6.23,6.23,0,0,1,1695.59,118.78Zm6.61-1c.12.51-.72.25-1.14.6C1701,118.23,1701.9,118,1702.2,117.8Zm1.26-.74c.1.55-.61.5-.8.7C1702.55,117.38,1703.27,117.33,1703.46,117.06ZM1687,104.77a.68.68,0,0,1,.34-.68c.2-.18.43-.33.47-.64C1688,103.83,1687.22,104.22,1687,104.77Zm11.7,14.35c-.15.21-.45.25-.78.28C1698,119.17,1698.37,119.17,1698.68,119.12Zm-6.78-19c-.29,0-.35.19-.69.19C1691.23,100.22,1691.83,99.85,1691.9,100.15Zm.4-1.58c-.36.32-1.09.37-1.56.55C1690.86,98.68,1691.84,98.65,1692.3,98.57Zm-11.47,5.14c-.15,0-.12-.2-.29-.23.49-.32.85-1,1.34-1.46C1681.84,102.63,1681.33,102.85,1680.83,103.71Zm2.61-5.2a2.62,2.62,0,0,1-.76.95C1682.64,99.06,1683.09,98.73,1683.44,98.51Zm-4.73,11.4c.39.48,0,1.76,0,0Zm13.66-13.53c0,.2-.74.29-.89.23C1691.59,96.33,1692,96.6,1692.37,96.38Zm-11.59,21.16c-.37-.15-.35-.48-.59-.94A1.77,1.77,0,0,1,1680.78,117.54ZM1696,95.84c-.2.18-.88,0-1.26.11a3.68,3.68,0,0,1,2.08-.34c-.22.28-.65,0-1.17.13C1695.68,95.84,1695.87,95.82,1696,95.84ZM1684.25,122c-.87-.29-1.34-1-2.18-2A17.54,17.54,0,0,1,1684.25,122Zm17.64,4.28c-.47.56-1.67.39-2.54.59C1700,126.44,1700.72,126.61,1701.89,126.23ZM1678,110.09c.21.42.16,1.43.34,2.06A5.83,5.83,0,0,1,1678,110.09Zm36.87,5.63c.33.39-.14.92-.39,1.63A2.61,2.61,0,0,1,1714.89,115.72Zm-3-14.71c.38.13.85.91,1.21,1.32A4.22,4.22,0,0,1,1711.9,101Zm2.45,20.14c.18-.38.33-.24.49-.57C1714.94,120.8,1714.59,121.42,1714.35,121.15Zm-27.15-12.44c.18.25,0,.4.09.71-.09,0-.08-.08-.1-.12s-.08,0-.08.06S1687.06,108.89,1687.2,108.71Zm-.28-3.64c-.1,0-.21-.16-.28.19.22.11.35-.18.21.17.12,0,.13-.13.19-.22.06.06.12.12.1.2s.06-.11,0-.16c.37-.06.29.45.29.66s-.28-.1-.32-.14c0,.27,0,.42-.4.3,0-.18.09-.06.19,0,.11-.19-.05-.29.1-.49-.31.06-.52.47-.63.89a1.48,1.48,0,0,0,.05,1c.15,0-.35.27-.09.47.23,0,.34-.16.35-.42.19,0-.08.62,0,.86-.16,0,0-.22-.24-.23-.1.21.11.22.23.29a10.06,10.06,0,0,0,.54,4.24c.06-.3.19-.06.33.09-.12.08-.17,0-.22-.06-.17.19.18.37.34.3-.11.19,0,.28.06.51.27.71.26.4-.35-.29-.07.29.32.7.48,1-.33.09-.34-.08-.3-.32-.27.36,0,.8.32,1.21a7,7,0,0,1,1.07,1.33c-.07-.43-.57-.84-.89-1.3.32-.06.22.21.44.41.37-.51-.9-.94-.45-1.52a9.55,9.55,0,0,0,3.69,4.24c.16,0,0,.2.11.25a7.76,7.76,0,0,1,2,.68,6.23,6.23,0,0,0,2.6.6c0-.33.25.06.46-.18.2.09-.18.2-.16.35.68-.07.73-.48,1.54-.17-.38.11-.63,0-.84.07a7.72,7.72,0,0,0,3-.41c-.6-.06-1.34.29-.49,0a3,3,0,0,1,.78-.32c.18.14,0,.19.18.32a5.16,5.16,0,0,0,2.29-1.53c.08.17-.26.2-.23.34.33.17.48-.47.75-.34.07-.08-.07-.22-.13-.34.31-.08.09-.17.35-.35,0,.17-.13.27,0,.45a5.27,5.27,0,0,0,1.84-1.63c-.09-.06-.14,0-.2.1-.13-.34.54-.41.55-.83-.44.06-.92,1.1-1.58,1.22-.54.32.53-.6.65-.75,1.11-1.07,2.24-2.25,2.1-3.55.42.27,0,.94,0,1.42.18,0,.2-.18.24-.33s0-.27.25-.21c0-.17-.25-.19-.13-.39.11,0,.13.11.25.14-.08-.24,0-.29,0-.53-.12,0-.08.13-.09.2-.15-.14-.15-.69.07-.52a10,10,0,0,0-.72-3.27,8.76,8.76,0,0,0-2.82-3.66c-.1.19.39.32.32.5s-.46-.3-.5-.42c-.08.19.07.4.27.59s.42.4.56.53a6.21,6.21,0,0,1,.8.87c-1-.59-1.75-1.57-2.91-2.43.09,0,.34-.15.09-.26.29,0,.65.43.95.61a7.81,7.81,0,0,0-.94-.86c-.36-.25-.69-.53-1-.78-.06.18.38.21.33.4a10.24,10.24,0,0,0-3-1.59c-.21.17-.62-.83-.89-1a3.52,3.52,0,0,0-.83-.13.54.54,0,0,1-.56-.55.41.41,0,0,0,.32.12c-.08-.23-.45-.25-.53-.5.26.36-1.24.47-1.18,0a2.23,2.23,0,0,1-.65.21.43.43,0,0,1,.23-.28c-.12-.21-.63-.51-.76-.12-.36,0-.41-.54-1-.29-.19-.51-.63-.6-1.17-.6,0-.23.64-.14.68-.36-.48-.09-.4-.44-.91-.4,0-.11.26-.18.29-.07.18-.19-.44-.21-.54-.4-.44.35-.49.2-.85.4a4.37,4.37,0,0,1,2-1.38,11.3,11.3,0,0,1,1.38-.38c.46-.07.92-.15,1.33-.19.28.11.63.17.77.38.2,0,.28-.18.55-.15,0-.12-.45-.18,0-.17-.21-.09-.84-.3-.89-.22,0-.39,1.18-.37,2-.18a5.16,5.16,0,0,1,2.87.3,6,6,0,0,0,.57-.28c-.43-.08-.92-.22-1.37-.32a2.58,2.58,0,0,0-1.21,0c.33-.33-.41-.26-.77-.4a3,3,0,0,1,1.71.14,8.32,8.32,0,0,0,1.81.45c-.89-.58,1.33-.64,1.86.17.06-.11.4-.11.8,0-.09.08-.21.1-.4,0a30.14,30.14,0,0,0,3.47,2.42c-.25.24-.78-.24-1.23-.5,2.63,2,6.78,5,8.37,9.2.25.65.31,1.37.48,2,.09.41-.11.58-.15.88a9,9,0,0,1,.17,2.82,12.17,12.17,0,0,1-.55,2.62c0,.15.06.09.08,0a9.89,9.89,0,0,1-1.35,3.08,17.75,17.75,0,0,1-1.93,2.47,18.86,18.86,0,0,0,2.42-3.82,13,13,0,0,0,1.21-5.14c-.27.9-.42,2-.71,3a12,12,0,0,1-1.3,3.22,15.59,15.59,0,0,1-2.7,3.2c-1,.93-2.1,2-2.87,2.18a17.92,17.92,0,0,1-5.81,2.43,23.54,23.54,0,0,1-5.89.53,6,6,0,0,0,1.9.1,4.86,4.86,0,0,1-2.14.06c-.37,0-1.66-.31-.94-.27.55,0,.71.19,1.07.1a18.45,18.45,0,0,0-3.19-.47,9.93,9.93,0,0,0-2.22-.9,13.85,13.85,0,0,1-3-1.5,16.59,16.59,0,0,1-6.32-7.25c-.12-.15-.09.17-.22,0a1.58,1.58,0,0,1,0-.56c-.12-.15-.3,0-.36-.37.08,0,.12.11.18.19-.16-.9-.88-2.36-.59-3.1-.53-.28-.42-2.22-.52-3.33.56,0,.19.53.23,1.08.36-1.26,0-1.56.42-3.22a3.65,3.65,0,0,0-.48,2c-.53-.84.09-2.52.46-3.46a4.74,4.74,0,0,0-.75,1.23c0-1,1.16-1.59,1.29-2.57,0,.79-.66,1.34-.55,2.3.84-1.79,1.56-3.72,3-4.83.23-.25-.1-.3.14-.55.07.38.44-.14.66-.23.1.13-.36.39-.47.59.24.26.35-.45.56-.4.1.29-.38.51-.53.67.21.1,1.1-.4,1.25-.94.39.57,1-.36,1.31-.51.09.21-.38.48-.49.74.16,0,.33-.21.51-.22.31.39-.28.68-.23,1,.43-.26.86-.74,1.31-1-.18-.09-.32.33-.51,0,.64-.31,1.46-.88,1.76-.51-.07.08,0,.1,0,.07-.42.5-1.23.6-1.55,1.35.33.07.25-.28.57-.53,0,.5.12,0,.32.18-.23.44-.54.27-.61.57.1.12.19.06.12,0a2.76,2.76,0,0,1-.4,1.46,5.31,5.31,0,0,0-.33.83,1.71,1.71,0,0,0-.1.75c.24,0,0-.5.41-.47-.38-.21.12-.2.18-.69C1686.93,104.37,1686.67,104.71,1686.92,105.07Zm12.24-3.25c-.22-.06-.33-.54-.58-.35C1698.81,101.53,1698.93,102,1699.16,101.82Zm7.71-3c.46.27.59.74,1,.63C1707.56,99.19,1706.93,98.7,1706.87,98.86Zm8,10.22c-.14.06-.43-1.47-.57-1.9a7.71,7.71,0,0,0,.65,2.57C1714.87,109.55,1715.09,109.13,1714.83,109.08Zm-28.08,2.4-.26.07c0,.17.23.42.25.22C1686.47,111.79,1686.91,111.61,1686.75,111.48Zm.38,2c0-.28.2-.49-.09-.82C1686.78,113,1687.15,113,1687.13,113.44Zm-.91-2.26c-.28,0-.09.81.08.65S1686.34,111.27,1686.22,111.18Zm3.2,5.88c.36,0,.39.55.74.26C1689.89,117,1689.56,116.83,1689.42,117.06Zm-3.37-10.44c0-.05.09-.07.19,0,.14-.3,0-.68.28-.83C1686.19,105.67,1686.08,106.59,1686.05,106.62Zm2.5,9.72a8.07,8.07,0,0,0,.59.58c.16-.15.29-.1.18-.3C1689.07,116.94,1688.6,116.13,1688.55,116.34Zm2,1.58c.12-.37-.25-.33-.32-.55C1690,117.64,1690.54,117.7,1690.54,117.92Zm10.19-15.42c-.38,0-.58-.52-.79-.23C1700.16,102.3,1700.82,102.73,1700.73,102.5Zm-5-2.19c.26,0,.71.12.84-.06C1696.19,100.29,1696,100,1695.77,100.31Zm.27-.52c.27.13-.36,0-.26.25.47-.12.83.09,1.2,0C1696.66,100,1696.31,99.57,1696,99.79Zm-11,22.32c-.31-.2-.68-.78-.94-.75C1684.43,121.57,1684.81,122.16,1685.07,122.11Zm20-23.79c-.16-.12-.53-.2-.31-.38-.49-.29-1.58-.8-1.47-.35.17-.11.44.06.75.26A2,2,0,0,0,1705,98.32Zm-5.52-2c1.28.33,1-.23,0,0Zm15.4,15.52c0-.36,0-.8-.24-.79.13.37-.07.93.07.94S1714.81,111.8,1714.92,111.81Zm-13.07-16c.13.06,0,.11-.06.16.32.18,1,.26,1.08.51-.39-.11-.23.16-.59-.13-.06.18.2.37.5.49a1.15,1.15,0,0,0,.77.14c-.21-.15-.74-.23-.72-.42.47.17.05-.29.46-.18C1702.83,96.07,1702,95.69,1701.85,95.78ZM1691.91,126c-.18.3-1.12-.23-1.21-.17C1690.55,125.37,1691.56,126.2,1691.91,126Zm12.51-8.9c-.14-.32.24-.18.26-.45.06.08.12.1.17.08C1704.88,116.89,1704.65,117,1704.42,117.11Zm-17.36-10.76c.09,0,0,.08,0,.06a1.91,1.91,0,0,1-.11.67c-.24-.09.06-.38-.12-.24-.21-.07,0-.23.08-.26a.28.28,0,0,0-.12-.19c-.17,0,0,.35-.22.08-.18.18.25.13.09.32-.28-.13-.17-.41-.05-.69C1686.77,106.28,1686.93,106.4,1687.06,106.35Zm13.26,12.12c.1.34-.08.54-.44.58-.19-.11.57-.15.4-.48a6.59,6.59,0,0,1-3.14.44c-.05-.34.39-.13.56-.21,0,.06-.08.1-.13.09A9.25,9.25,0,0,0,1700.32,118.47Zm-11.16-17.35c-.54.27-1.1.46-.4,0,.19-.14.42-.09.66-.3.06.05,0,.08,0,.11s.07,0,.11,0c-.07.33-.59.26-.82.56C1688.63,101.23,1689,101.35,1689.16,101.12Zm16.56,6.41c-.27-.09.55.07.4.38C1705.93,107.87,1706,107.73,1705.72,107.53Zm-10.92-7c-.09,0-.14,0-.15.1-.21,0-.11-.33-.28-.33C1694.37,100.16,1694.86,100.25,1694.8,100.52Zm-12.24,1.34c.1.45-.49.36-.62.82C1681.84,102.28,1682.42,102.21,1682.56,101.86Zm-3.71,10.06c0-.15-.2-.09-.17,0a12.81,12.81,0,0,1-.15-2.17c.27.22,0,1.54.47,1.35C1679,111.42,1678.78,112.53,1678.85,111.92Z"/></g></g></svg>