<svg xmlns="http://www.w3.org/2000/svg" viewBox="0 0 401.93 473.43"><defs><style>.cls-1{fill:#3c1642;}.cls-2{fill:#086375;}</style></defs><g id="Layer_2" data-name="Layer 2"><g id="Layer_7" data-name="Layer 7"><g id="Layer_1-2" data-name="Layer 1"><path class="cls-1" d="M103.67,210.79c1.73-3.39,4.79-9.39,6.17-12.19C104.57,208.91,95,227.8,103.67,210.79Zm23.54-46.41c.52-1.13,2.3-4.65,4.27-8.51,0,0-.16.36-.42.89s-.63,1.27-1.06,2.11C129.15,160.55,128.08,162.65,127.21,164.38ZM97.4,223.05l-9.92,19.56c1.08-2.2,1.63-3.31,3-6.05C88.67,240.31,96.34,225,97.4,223.05ZM134,151c.11-.3,2.28-4.54,2.39-4.84-.25.35-1,2.08-2.49,4.89,1-2,2.15-4.38,4.24-8.48-.65,1.34-.47,1,.69-1.27a5.92,5.92,0,0,1-.41.91c-.27.56-.67,1.35-1.13,2.28ZM78.06,261c-2,4.14-7.64,15.11-9.92,19.54C70.76,275.25,74.76,267.56,78.06,261ZM101,215.81c-.59,1.23-6.43,12.79-6.24,12.25Zm-.73,1.29c-.59.93,9.8-19.33,14.82-29.29C110.52,197,105.26,207.12,100.25,217.1ZM45.09,325.83l-3.73,7.33c-.71,1.23,2.4-4.78,3.66-7.29Zm-6.27,12.25-4,8c-.86,1.71-1.71,3.36-2.33,4.59s-1.06,2-1.1,2.07C35.08,345.42,35.82,344,38.82,338.08Zm66.69,45.73c-4.49.08-17.85.05-27.33.05Zm130.29,0c-1.86.13-14.61,0-24.63,0H235.8Zm28.77,0c-4.19.13-15.26,0-20.47.05C245.69,383.76,258.4,383.84,264.57,383.81ZM143.9,130.57c4-8.16,8.49-16.56,13-25.66C155.67,107.62,148.77,121,143.9,130.57Zm20.71,253.32c-3.28.05-8.86.05-15,.05C152.21,383.89,158.63,383.9,164.61,383.89ZM202.79,14.5c-2.39,4.68-3.44,6.76-6.24,12.24C197.15,25.51,203,13.94,202.79,14.5Zm9.66,20.4c-2.8-5.38-7.35-14.46-10.56-20.76C203.76,17.6,209.42,28.94,212.45,34.9Zm-80.9,116.66c-.14.19.68-1.45.48-1.14l10.17-19.69C139.24,136.7,136.79,141.31,131.55,151.56Zm30.22-59.77c-.82,1.64-4.21,8.37-6.21,12.22C157,101.06,159.71,95.78,161.77,91.79ZM98.22,216.59c-2.42,5-8.68,17,0,0ZM216.27,41.25c-.54-1-4.32-8.46-5-9.77C212.31,33.31,214.1,37,216.27,41.25ZM58.45,294.85c1.49-3.08,2.92-5.81,5.55-11C62.45,287,60.19,291.49,58.45,294.85ZM236.16,80.25c-1.07-2-4.74-9.31-6.84-13.39,4.12,8,5.83,11.26,11.2,21.82-1.1-2-3.43-6.74-6.22-12.13C234.4,76.79,235.43,78.81,236.16,80.25ZM29.92,351.06c4.08-8.25,8.42-16.7,14.78-29.27C40.38,330.49,36.45,338.17,29.92,351.06Zm161,34.73c-6.71.11-19.77,0-30.12,0C168.83,385.75,176.83,385.82,190.93,385.79ZM97.31,218c-2,4-6.79,13.41-9.88,19.53ZM381.78,386c-2.69.11-8.86,0-16.37.06C366.38,386,375.81,385.9,381.78,386Zm-57.3-133.39c1.69,3.2,6,11.77,8.71,17.06C330.75,265,327.61,258.75,324.48,252.56Zm8.74,133.9,6.88,0C339,386.52,332.55,386.55,333.22,386.46ZM109.7,198.68c-2.46,4.85-4.23,8.36-7.41,14.65,0,0,.17-.38.42-.87l.79-1.57a12.45,12.45,0,0,0-.66,1.25C103.49,210.79,107.64,202.66,109.7,198.68Zm31.75-63.24c-.73,1.4.29-.7-2.54,4.92,0,.18,2.77-5.33-.52,1.16.24-.4,1.58-3.08,2.52-4.91-.25.52-.48,1-1.17,2.41.27-.47,1.09-2.16,1.2-2.43,2-3.85-2.39,5-4.13,8.43-1.54,3-.3.43-.14.09-2.37,4.69-3.5,7-3.83,7.39,1.59-3.13.79-1.51.7-1.27l4.3-8.53c-3.37,6.37-15.46,30.32-17.36,34.21-.19.47-3.07,5.89-4.35,8.56.56-1,2.11-4,4.45-8.62.9-1.66-5.82,11.5-8,15.86,0-.09,2-4,1.76-3.6-2,3.94-1.88,3.79-2.38,4.83L71.55,273.41c2.36-4.56-.07.23-1.76,3.6a21.45,21.45,0,0,1,1.17-2.4c-.52,1-1.43,2.76-2.21,4.32s-1.43,2.9-1.44,3c-1.18,2.22-2.21,4.27-4.41,8.59-6.79,13.31-4.17,8.23,3.65-7.28-2.13,4.17-6.83,13.42-10,19.57.78-1.71,1.95-4,3.68-7.31-3.46,6.37-15.7,30.9-24.36,47.76,3.06-5.9,8.46-16.58,13.1-25.71-1.06,2.24-2.48,4.92-4.93,9.76,1.81-3.21,10.86-21.48,13.24-25.79l-42,82.5H29c3,0,2,0,4.18,0,27.21-.13,50.35.05,89.14,0-1-.08,4.63,0,8.15,0,3.74,0-3.05.05-2.6.08,11.78,0,13.31-.12,27.37,0h38.41c-10.14-.05-24.43,0-8.3,0l15,0c2.46,0-1,0,1.5.09l49.16-.13c-.28,0-6,0-6.78,0,3.85.08,11.87,0,15.11,0,1.85,0,1-.06,1.23-.09,6,0,3.33,0,9.56,0-1.18,0-5,0-5.34.08h48c-.27,0-2.52,0-4.15,0,3.18-.09,13.46,0,20.52,0l-41.25-.08c-12.86,0,16.33,0,20.53,0l80.13.1q-5.09-10-10.49-20.63l4.91,9.53L388.68,384H375.89c1.12,0,3.8,0,6.69,0h6.17c-.15-.31-.24-.51-.18-.45-.91-1.77-1.32-2.56-1.81-3.5s-1.14-2.17-2.42-4.72c.22.37,1.1,2.08,1.25,2.32-2.61-5.15-3.34-6.57-6.21-12.22.19.43,1.55,3.09,2.48,4.92-1.65-3.15-8.51-16.65-6.21-12.25-19-37.56-43.74-86.25-67.68-133.46.38.86,3.82,7.51,4.34,8.63,1.22,2.43-4.13-8.1-5-9.77.94,2.05,7.67,15.22,10.55,20.89s6,11.76,9.32,18.32c-8.85-17.17-18.61-36.49-29.83-58.55.39.71,1.46,2.69-.61-1.35,1.69,3.2,6,11.77,8.7,17.06l-19.24-38c.25.6,3.3,6.48,3.72,7.41l-26.09-51.39c-1.29-2.42-6.55-13.23-8.66-17.43-3.59-7.13-9.78-19-11.17-22.18l2.48,4.92-4.32-8.75c2.3,4.72-9.18-17.74-8.7-17.06-2.2-4.27-2.88-5.6-5-9.69.35.62,1,1.8,1.87,3.54-.84-1.77-4.26-8.67-5.58-11.07-2.66-5.28-2.36-5-6.82-13.65-.6-1.48-3.36-7-6.79-13.84.54.95,4.32,8.51,5,9.69-3-5.92-1.85-3.92-4.95-10.06.08.12.54,1,1,1.89l.6,1.21c.17.33.28.55.28.57,1.34,2.56-2.28-4.65-2.46-5.13-3.16-6.18-3.17-6.21-5.6-10.95,6.93,13.22,20,38.76,29.25,56.92,1.56,3.13,3.51,7,4.33,8.71l3.11,6c-.12-.31-2.57-5.15,0-.09l-5-9.85c.12.13,1.7,3.18,3.78,7.24l6.79,13.36c4.77,9.28,9.34,18.06,15.55,30.38l2.5,4.67c-4.58-8.94-10.71-21.06-13.68-26.7,1.45,2.62-2.38-4.78-4.34-8.68,3.76,7.14,13.82,27.18,18.65,36.53-5.18-10.34,5.39,10,9.34,18.07,0,0,.46.83,1.13,2.11l2.62,5.06c-.28-.49-.81-1.48-1.87-3.58,5,10,13.71,27.15,21.72,42.91-.41-.61-4.12-8-6.84-13.32L356.73,316.6c3.23,6.37,6.5,12.83,9.32,18.41,1.92,3.79,2.4,4.86,3.71,7.49,9,17.82,14.29,28.16,22,43.35H383c-1.55,0-.72,0,0,0l-68.59,0,77.29,0-12.65-24.91,12.54,24.84-43,0-46.66,0c-15.46,0-32.92.05-41.14,0l-142.55,0h22l-24.63,0c-4.19,0-19.26,0-11,0h12.34c-16.54,0-31.17,0-37,0-5-.05-15.22-.05-27.29,0l-39.45,0h-.75c15.35-30.19,32.82-64.59,50.6-99.58,1-1.91-.6,1.1.55-1.19,1.78-3.39.74-1.4,2.59-4.94,1-1.91.42-1,2.41-4.85,0,0-.18.38-.42.86l-.79,1.57c4.69-9.09,12.83-25.29,16.3-31.88,1.86-3.89,11.64-22.91,17.34-34.2.25-.19-2.75,5.5-5.52,11,6.6-12.77,8-15.65,16.89-33.08-2.94,5.69-6,11.66-10.69,20.86,4-8.22,12.67-25,18-35.45-2.07,4-4.48,8.63-7,13.56,4.81-9.56,9.35-18,14.54-28.27-4,7.85-7.65,15.07-12.41,24.44l30.89-60.17c1.94-3.78,1.09-2.29,3-6.07-1.54,3.18,2.09-4,3.28-6.21-.27.61-3,5.91-4.38,8.57-.43,1,3.3-6.46,3.83-7.4-1,2.16-3.76,7.39-5,9.8,0,0,.41-.73,1-1.86l2.31-4.45c1.82-3.5,4-7.77,5.58-10.92-1.22,2.77,5.83-11.16,7.72-14.83-.58,1.25-3.88,7.67-5.54,11l3.2-6.17c-.47,1.22-4.58,9.13-6,12.12,3.16-6.18,7.56-14.79,11.3-22.08-.46.81-3.14,6.17-2.62,5,2.23-4.33,5.09-9.88,7.39-14.36l2.91-5.61c.37-.7.67-1.26.87-1.65a4.05,4.05,0,0,1,.35-.59c-.7,1.39-.31.66,0,0C170,78.27,165.36,87.19,160,98c1.22-2.24,2.71-5.34,5.61-11-2.65,5.42.7-1.33.76-1.3-3.59,7-4.19,8.22-6.23,12.24a10.44,10.44,0,0,0,.65-1.24c-3.49,7.25-17.14,34-23.22,46.22,1.32-2.49,3.81-7.58,5-9.82a21.67,21.67,0,0,1,1.33-2.72l4.18-8.23C146.51,125.31,143,132.13,141.45,135.44ZM262,134.09c-1.75-3.44-3.54-7.19-5-9.86C258.79,127.64,260.73,131.68,262,134.09Zm35.67,66.76c2.8,5.46,4.87,9.71,6.22,12.17C301.71,208.67,297.45,200.28,297.69,200.85Zm67.73,133c.07.18-1.72-3.34-3.8-7.45l-5.52-10.91c2.14,4.34,9.19,18.24,12.42,24.5C367.59,338.19,366,334.87,365.42,333.87ZM82.71,251.41l-.11.07c-1.43,2.79-4.11,8.15-2.41,4.84C80.63,255.32,81.21,254.44,82.71,251.41ZM65.2,285.71c2.24-4.36,3.27-6.23,6.93-13.5C69.62,276.93,68.42,279.48,65.2,285.71Zm21.06-41.52c.1-.36-6.63,12.88-5.62,11C82,252.58,85.29,246.16,86.26,244.19ZM29.05,356.69c-2,4-5.48,10.71-6.09,12.15C26.45,362,29.56,355.84,29.05,356.69Zm97.42-191.87c.49-1,.75-1.44.69-1.26,2.81-5.51,5.2-10.38,7.44-14.67C134.2,149.48,126.82,164.16,126.47,164.82ZM38.32,338.38q-3.41,6.72-6.82,13.45c0,.1-1.08,2.27.76-1.31C31.83,351.15,39.32,336.52,38.32,338.38Zm-21,41.53c1.08-1.93,3.39-6.61,5.07-9.84a8.28,8.28,0,0,0-.64,1.17l-1.48,2.88C19.1,376.33,17.83,378.82,17.27,379.91ZM275.06,159.78c-2.8-5.44-5.52-11-6.22-12.18C270.51,150.87,276.4,162.51,275.06,159.78ZM234.72,79.89c1.89,3.69,5.35,10.58,6.22,12.18C237.8,85.93,236.55,83.29,234.72,79.89Zm1.89,3.43c2,4-2.54-5-1.87-3.55,3.4,6.68,6.16,12.08,8.7,17.06C241.1,92.24,238.5,86.9,236.61,83.32Zm-210.23,275c1.86-3.7,5.38-10.55,6.16-12.19C30.68,349.79,27.16,356.63,26.38,358.28ZM287.73,181.56c-1.1-2.18-3.11-6.08-2.48-5-3.09-6.07-9.57-18.81-8.09-15.71C278.38,163.09,284.07,174.55,287.73,181.56Zm-32.31-63.44c7.2,14.15,4.79,9.16,0,0ZM377.83,358.46l-2.46-4.83-.89-1.73c-.23-.42-.37-.68-.39-.69l2.8,5.52,1.08,2.13c.27.54.45.88.47.9C378,358.81,377.72,358.31,377.83,358.46ZM266.65,139.58c.75,1.48.38.79,0,.08,1.89,3.74,5.36,10.46,6.21,12.26-2.12-4.16-.8-1.45-3.11-6.08a5.26,5.26,0,0,0,.28.62c.18.38.44.9.76,1.54l2.35,4.67c1.76,3.46,3.63,7.09,4.06,7.87-1.28-2.55-4.08-8-4.34-8.59,2.6,5.11-.35-.84,1.88,3.51C272,150,267.48,141.12,266.65,139.58ZM74.34,385.77c-1,.08-12.87,0-13.64.05C57.31,385.72,71.17,385.84,74.34,385.77ZM279.9,384c1.58-.09,5.63,0,9.53,0a6.88,6.88,0,0,0,1.43,0C289.37,384,285,384,279.9,384ZM131.78,154.83c0,.11-.19.41-.33.69s-.28.53-.29.54L125,168.26c.15-.43,3.51-6.93,1.79-3.63,0-.13,2.09-4.12,2.48-4.88.54-1.08,1.09-2.18,1.17-2.41-.11.14-2.82,5.66-1.31,2.49-2.05,4-.36.86-2.41,4.85.28-.72,2.87-5.8,5.48-10.94C131.41,155.4,130.85,156.61,131.78,154.83Zm65.62,229a3,3,0,0,1-.79.06l-2.16,0-7.84,0c-3,0,11,0,9.45-.09H135.72c-1-.09,7.49,0,10.91,0,.06,0-1.75,0-2.71,0Zm-19-321.53c-4.86,9.5-9.1,17.73-2.59,5,1.79-3.51,3.07-6,5.66-11a10.69,10.69,0,0,1-.59,1.2,9.92,9.92,0,0,0,.66-1.24c-2,4.08-5.17,10.09-8.1,15.91C174.47,69.86,176.42,66.23,178.39,62.28ZM329.68,267.71c-1.82-3.49,3.11,5.9,4.36,8.52ZM227.26,65.32c-.72-1.43-1.11-2.17-1.25-2.41-1.71-3.35-.56-1.29-1.85-3.83a3.25,3.25,0,0,1,.18.33l.42.82,1.2,2.38A20.53,20.53,0,0,1,227.26,65.32Zm-82.37,60.39c-1.83,3.78-3.15,6.06-5.66,11C140.85,133.43,142.77,129.91,144.89,125.71ZM88.26,236.17c.77-1.53.56-1.19-.07,0l10.58-20.79c-1,2.19-7.48,14.64-6.69,13.36C90.64,231.62,85.3,241.9,88.26,236.17Z"/><path class="cls-2" d="M268.88,149.34c.1-.34.4-.89,0-1.29C268.35,149,268.39,151,268.88,149.34Zm.78-4.72c-.49-.26-.45-.62-.32-1C270.06,143.83,269.69,144.26,269.66,144.62Zm-1.56,5.81a2.6,2.6,0,0,1-.44,2c-.16-.28-.58-.51-.62-.81C268.07,152.26,267.33,150.43,268.1,150.43Zm1.35-7.3c-.52-.17-.14-.52-.65-.69-.67-.14.3.3-.11.49-.37-.32-.67-.65-.57-1.06.28.22.49.25.53,0C269.64,142.16,269.46,142.66,269.45,143.13Zm-3,10.9c.43.56-.05,1.59-.43,2C265.41,155.25,266.52,154.73,266.49,154Zm.76-4.6c.3.21.36,1.46-.53,1.15C266.64,150,267.22,149.94,267.25,149.43Zm-.79-.08c-1.27-.25.28-2,.14-3.08C267.63,147.53,266.08,148.18,266.46,149.35Zm-2.17,11c-.05.24-.11.49-.16.74-.95-.13-.25-.58-.35-.88Zm-.78,1.09c.27.28.35,1.65-.58,1.4C263.2,162.11,263.3,162,263.51,161.41Zm-3.64,12.79c-.79-.65-.18-1.75,0-2.59C260.27,172.53,260,173.06,259.87,174.2Zm-3.35,11.44c-1.4-.57.59-1.23.24-2.28C257.3,183.53,256.52,185,256.52,185.64Zm-.57,2.57c-1.36-.78,0-1.44-.1-2C256.93,186.69,255.79,187.58,256,188.21Zm9.64-48.31c-.92-1.12,1.21-1.43.57-2.57C267.31,137.93,265.76,138.93,265.59,139.9Zm-8.16,39.23a1.37,1.37,0,0,1-.21-1.48C257.77,178.05,257.55,178.6,257.43,179.13Zm10.49-50.94c-.44.38,0,.71-.53,1.16C267.1,129.14,267,127.89,267.92,128.19Zm-38,102c.59.74-.36,1.44-.46,2.08C228.45,231.65,229.78,230.82,229.94,230.23Zm17.68-93c-.46-.1-.5-.29-1-.39,1.06-.22,1.45-1,2.21-1.49C249.44,136.13,248.26,136.3,247.62,137.21Zm.06-6.34a.89.89,0,0,1-.27,1.23C246.74,131.6,247.25,131.18,247.68,130.87Zm-4.81,12c.95.79-.82,1.58,0,0Zm-18.86,85c.5.24.08.92-.22,1C223.12,228.47,224.27,228.4,224,227.88Zm16.62-77.34c-.67-.51-.12-.65,0-1.17C241,149.79,241,150.28,240.63,150.54Zm-16.26,73.28c.53.36-.12,1-.05,1.41a2.73,2.73,0,0,1-.52-2.47c.81.44-.08.7.23,1.36C224.34,224.18,224.3,224,224.37,223.82Zm15-67.64c-.88-1.12-.19-1.83-.1-3.15C240.05,154.17,239.54,154.85,239.37,156.18Zm-4.52,19.17c-1.08-.94.41-1.77.35-2.77C235.86,173.53,234.9,174,234.85,175.35Zm6-32.93c.5.56-.2,1.36-.18,2C240.14,143.88,240.84,143.07,240.81,142.42Zm-12.53,49.22c-1.16-.58-.22-.9-.18-1.61C228.49,190.24,229,191.28,228.28,191.64Zm-7.17,12.89c-.51-.49.17-1.21.13-1.78C221.77,203.4,221.46,204,221.11,204.53Zm2.56-18.78c.13.4-.43.22-.39.54C222.75,186,222.65,185.4,223.67,185.75Zm44.21-38c.4.62-.08.86-.07,1.54-.25-.07-.17-.21-.2-.32-.21-.08-.25,0-.28.06C267,148.81,267.36,148.06,267.88,147.78Zm-2.14-7.32c-.26.08-.7-.26-.62.36.71.21.85-.34.73.32.36.05.28-.25.37-.42.21.11.43.23.45.38.37.05.07-.21-.2-.31,1-.15,1.2.85,1.34,1.26-.11.29-.87-.19-1-.27.09.52.25.81-.93.53.06-.31.23-.1.54,0,.21-.35-.36-.55-.06-.92-1.59.24-1.4,2.84-.77,3.43.46.17-1,.35-.19.86.68.08,1-.16,1-.66.55,0-.12,1.19-.1,1.66-.48-.14-.09-.45-.68-.57-.31.34.3.49.65.69-.82,2.71-1.1,5-2.27,7.84.61-.32.56.17.68.57-.45-.07-.46-.23-.46-.38-.74,0-.15.72.35.87-.55.08-.51.31-.7.72-.59,1.25-.09.85-.35-.87-.68.25-.38,1.32-.69,1.89-.91-.43-.58-.58-.09-.8-2.57,0-.9,3-2.33,4.44.87-.39.82-1.54,1.08-2.44.8.46.05.54,0,1,1.9.18,0-2.27,2.09-2.17-1.34,3.4-3.08,6.16-3.95,9.33.08.31-.52,0-.59.24.84,2.81-1.74,4.29-2.28,7.83,1,.18-.26.36.35.87-.3.27-.51-.43-1-.52,0,1.12,1.11,1.58-.29,2.52,0-.66.54-.9.3-1.35a14.81,14.81,0,0,0-1.32,4.71c.83-.73.6-2.15.67-.6,0,.39.26.86,0,1.42-.57.07-.48-.23-1-.15.07,1.84-.58,3.1.3,4.75-.52-.17.05-.56-.38-.75-.95.1.24,1.19-.55,1.28,0,.19.62.27,1,.4-.44.44.21.37.06.92-.42-.23-.31-.56-.9-.76-.23,1.3-1.2,2.66-.95,4.29.3.06.26-.17.33-.3.88.54-.68,1.09-.15,1.91,1.15-.37.67-2.65,1.83-3.41.61-1,0,1.54-.15,1.9-1,3-3.13,5.61-3.65,9.16-1-1,.36-2.49.28-3.69-1,0-.16,1.63-1.34,1.2-.11.37.72.56.32,1-.33-.13-.36-.32-.71-.44.19.6,0,.68-.27,1.22.35.05.27-.25.36-.42.39.44,0,1.77-.53,1.16-.8,3.77-4.7,7.87-5,12.81.62.09.12-.76.69-.72.24-.19,0,.86-.21,1,1.17.11,1.07-1.32,1.22-1.88a9.76,9.76,0,0,1,.41-1.84c.8,2.06-.24,3.82-.8,6-.22-.14-.87-.54-.79-.08-.51-.49.18-1.21.13-1.78-.67,1.08-.86,2.57-1.6,3.59.58.1.15-.65.67-.6-.42,1.51-1.84,4-1.65,5,.55.42-2.09.83-2.42,1.18-.55.61.73,2.23-1.76,1.87a.45.45,0,0,0,.36-.42c-.69,0-.72.55-1.46.52,1.14-.18,1.16,2.21-.12,1.78.39.56.16.64.29,1.12a1.38,1.38,0,0,1-.68-.57c-.68,0-1.77.42-.76,1-.38.46-1.83,0-1.56,1-1.55-.28-2.32.09-2.85.67-.6-.27.27-.83-.29-1.12-.73.43-1.6,0-2,.51-.32-.11-.26-.45.08-.37-.34-.37-1,.21-1.63.09.43.78-.07.64,0,1.17-1.86-1.93-1.75-4.63-1.77-6.57.36-.23.58-.58,1.21-.59-.06-.26-.48-.45-.37-.74-.35-.07-.59.38-.51-.14-.25.19-1,.72-.73.85-1.1-.34-.92-1.56-.55-2.36-.27-1.06-1.2-2.26-.34-3.33-.37-.28-.73-.56-1.16-.83.13,1-.45,2.12.42,3-1.1-.59-.57.35-1,.65-1.1-1.07.67-2.7.06-3.87-1,.82-2.75-1.85-1.12-2.25a1.47,1.47,0,0,1-.85-1c.3.14.48.29.42.5,1.48-.65,1.59-2.45,2-4,1,.35.51,1,.46,1.55,1.72-3.18.72-8.93,2.07-12.94.21-.62.86-1.13.92-1.71.14-.36.81-.29,1.18-.46a21.55,21.55,0,0,1,1.59-4.77c0-.15-.24-.14-.25-.07.2-1.87,1.44-4.31,1.87-6a37.3,37.3,0,0,1-2.3,9.12c2-1.15,1.7-3.68,2.38-5.85.43-1.4,1-2.75,1.43-4s.13-3.08,1.07-3.6c1-5,2.37-8.26,3.08-12.68-.42.16-.48,1.15-.69,1.89-.38-.39-.1-1.46.24-2.27.15-.36.74-1.62.73-.85,0,.61-.52.65-.25,1.11.81-1.35,1.15-2.64.73-3.31,1.39-.57,1.11-3.57,1.82-5.75,1-2.93,1.14-6.52,2.71-9.79-.05-.22-.47,0-.48-.26a2.73,2.73,0,0,1,.87-.29c-.07-.22-.78-.31-.4-.62.24.07.16.2.2.31.95-.7.55-2.54,2-2.85-1.19-.74.59-2.27.5-3.5,1.63.43.35.68.27,1.24,1.49-1,.56-1.51,1.75-3-.74.4-1.42.85-1.48,1.82-1.32-1.24.44-2.54,1-3.49a6.51,6.51,0,0,0-1.82.94c-.16-1.06,2.87-1.12,2.65-2.28.52,1-1.12,1.3-.54,2.45,2-1.56,2.46-3.75,4.89-5.06.27-.32-.65-.42-.37-.74.67.52,1-.16,1.41-.28.42.18-.41.52-.45.79,1,.38.33-.6.93-.53.64.4-.31.7-.47.91.62.16,2.39-.51,1.9-1.31,1.84.8,2-.64,2.36-.93.55.28-.07.79,0,1.17.4-.05.49-.37.9-.41,1.44.52.38,1.07,1,1.56.73-.45,1-1.3,1.5-1.94-.53-.06-.21.6-1.12.22,1-.63,1.7-1.89,3-1.53,0,.16.24.14.25.07.14,1.07-1.61,1.53-1.16,2.81.9,0,.14-.53.5-1,.82.8.28-.06,1,.15.21.81-.85.64-.52,1.16.44.15.55,0,.28-.06,1.77,1.26.5,3.76,1.51,5.33.62-.09-.27-.88.72-.84-1.28-.35.15-.35-.26-1.24C265.11,139.21,264.67,139.82,265.74,140.46Zm-24.47,82.39c-.06.35-1.39.38-.73.85C240.6,223.35,241.88,223.28,241.27,222.85ZM225,211.15c-.05-.6.91-.78,0-1.29C224.77,210.24,224.55,211.07,225,211.15Zm2.2-13.56c.52.11-.36,1.4-.66,1.77a1.86,1.86,0,0,0,1.05-2.32C227.58,197.23,226.56,197.29,227.23,197.59Zm37.19-45.15-.76-.2c-.26.22.1.89.4.62C263.33,152.56,264.69,152.84,264.42,152.44Zm-1.77,3.16c.38-.36,1.23-.32,1.06-1.14C262.4,154.6,263.34,155.13,262.65,155.6Zm.67-4.23c-.74-.24-1.15,1.06-.5,1C263.19,152.23,263.61,151.66,263.32,151.37Zm-3.52,11c.68.62-.77.93.49,1.43C260.66,163.17,260.62,162.51,259.8,162.37Zm4.52-19.17c.08-.08.24-.09.54,0,.28-.51-.47-1.23.32-1.47C264.17,141.53,264.47,143.17,264.32,143.2ZM260,160.47l-.3,1.34c.64.19.75.45,1.05.15C259.55,161.71,260.55,160.43,260,160.47Zm-.67,4.23c1.1.1.51-.56,1-.78C259.29,163.64,259.82,164.62,259.28,164.7Zm-17.19,55.65c.24.64-1,.88,0,1.29C242.05,221.28,242.64,220.21,242.09,220.35Zm-4.81,7.15c-.08-.41.56-1,0-1.29C237.33,226.87,236.33,226.87,237.28,227.5Zm-1.45-.77c.44-.3,0,.53.68.57-.26-.79.49-1.15.13-1.78C236.55,226,235.25,226.18,235.83,226.73Zm4.65-69.48c-.07-.42.56-1,0-1.29C240.58,156.37,239.94,156.92,240.48,157.25Zm-14.36,56.26c-.11.21.12.69-.62.36-.12.61-.45,1.88.66,1.86C225.26,215.24,227,214.5,226.12,213.51Zm-.91,6.51c.32-1.42-1.09-1.28,0,0Zm3.58-24.61c-.07.32-.3.68.34.87-.19-.42.61-.73.19-.86C229.25,195.5,229.08,195.51,228.79,195.41Zm-6.39,21.53c.08-.14.29,0,.5.13.25-.33-.09-1.14.53-1.16,0,.45.65.34.12.69,1.15.3,1.24-1,.58-1.41-.21.22.13.89-.44.79.05-.53-.83-.14-.94-.64C222.46,215.85,222,216.66,222.4,216.94Zm15.53-51.81c-.93-.35,0-1.2-.24-1.36C238.92,163.79,237.27,164.65,237.93,165.13Zm15.94,24c.94.41-.15.49.32,1-.29-.1-.46-.09-.54,0C253.31,189.83,253.64,189.51,253.87,189.09Zm13.21-46.2c.28.1.11.16,0,.13a1.65,1.65,0,0,1,0,1.29c-.74-.25,0-.72-.43-.5-.63-.19,0-.44.11-.49a.79.79,0,0,0-.46-.38c-.49-.12.32.68-.56.11-.4.31.8.31.4.62-.84-.3-.68-.8-.52-1.3C266.2,142.71,266.74,143,267.08,142.89Zm-9.54,39.38c-1.06-.3-1.31-.76-1.06-1.31.53-.14-.23,1,.83,1.12.09-2.49.72-3.12,1.45-5.32,1,.19.15.75.29,1.11-.17,0-.25-.23-.2-.31C258.19,178.48,258.16,180.7,257.54,182.27Zm7.79-49.7c-.64.83-1.47,1.48-.87.29.17-.33.72-.44.75-1,.23,0,.24.11.23.19.21.08.25,0,.28-.06.59.6-.66.9-.6,1.53C264.39,133.12,265.54,133.05,265.33,132.57Zm-18,77.73c.37.48-1-.9-.06-.92C247.53,209.7,247.19,209.77,247.28,210.3Zm-9.82,18.81c-.08.13,0,.23.2.31,0,.37-1-.14-1.1.1C236.23,229.42,236.71,228.78,237.46,229.11Zm13-93.86c.78.61-.91.39-.76,1C249,135.67,250.48,135.69,250.48,135.25Zm-8.29,9.47c0-.17-.48-.25-.51-.13a16.59,16.59,0,0,1,.71-2c.76.44-.82,1.34.72,1.62C243,144.46,241.53,145.16,242.19,144.72Z"/><path class="cls-2" d="M145.91,382.4c1.59,1.17,4.53,3.1,6.15,3.53C147,382.78,137.9,376.56,145.91,382.4ZM170.15,394c.79-.33,2.71.31,4.84.93C174.73,395.66,172.06,394.56,170.15,394Zm-29.72-16.2a46.34,46.34,0,0,1-4.29-3.26c-1.3-1.21-2.68-2.5-4.24-4.22,1,.75,1.85.83,3.08,1.82-1.18-.31,0,.85,1.62,2.2S140.19,377.17,140.43,377.79Zm37.28,17.84c.28-.46,2.59.35,2.87-.15-.05-.72-1.24.14-2.72-.63a14.68,14.68,0,0,1,4.87.28c-.8.16-.67.41.61.67C183.14,396.79,180.22,396.16,177.71,395.63Zm-52.4-33.73c-2-1.47-5.55-6.76-6.61-9.1a22.9,22.9,0,0,1,3.2,4.29c.53.82,1,1.69,1.61,2.51A28.16,28.16,0,0,0,125.31,361.9Zm19.08,17.55a16.48,16.48,0,0,1-3.33-2.06c-1.37-1-2.47-2.2-2.06-2.45C141.5,376.79,142.11,377.83,144.39,379.45Zm-.14-1.08c.15-.67,2.4.89,5.29,2.86a58.43,58.43,0,0,0,9.19,5.24,15.34,15.34,0,0,1-3.79-1.36,27.61,27.61,0,0,1-3.59-2.08C149,381.52,146.74,379.76,144.25,378.37ZM108.3,329c-.46-1.33-.79-2.7-1.19-4,.74-.95,1,2.54,1.68,3.85Zm-1.39-6.91a21.74,21.74,0,0,1-1.32-4.42c-.36-1.92-.53-3.75-.06-3.86.3,2.08.48,3.32.65,4.46S106.58,320.44,106.91,322.09Zm10.85-71.42a10.2,10.2,0,0,1-.76,2.38c-.42.94-1,2-1.48,3.2-1.14,2.3-2.34,4.93-3.27,7.14.28-1.07.61-2,.94-3a29.15,29.15,0,0,1,1.17-2.89l1.47-3.12Zm49.59-42c-.17.87-1.92,1.44-4.13,2.27a29.52,29.52,0,0,0-7.05,3.27c-.1-.3,1.87-1.33,4.25-2.53S165.7,209.37,167.35,208.69Zm14-4.35a5,5,0,0,1-1.94,1.15,21,21,0,0,1-2.73.81,33,33,0,0,0-5.18,1.42c.21-.66,1.9-1.36,3.94-1.89l3.16-.78C179.59,204.79,180.57,204.6,181.32,204.34Zm8.43,189a12.9,12.9,0,0,1,3.4,0c1.13.09,2.27.28,3.43.49a29.26,29.26,0,0,0,3.54.42,12.74,12.74,0,0,0,3.68-.23,3.62,3.62,0,0,1-2.08.57,30.61,30.61,0,0,1-3.55-.13C195.48,394.2,192.37,393.65,189.75,393.33ZM137.33,228.14a20.09,20.09,0,0,1-2,2.58l-2.95,3.12C132.77,232.43,135.12,230.19,137.33,228.14Zm113.2,151.79a17.34,17.34,0,0,0-2.79,1.48c-.42.26-.84.52-1.34.79a17.21,17.21,0,0,1-1.79.76C245.1,382.43,250.28,379,250.53,379.93Zm3.61-13.71a13.4,13.4,0,0,1-3.79,3.18c-1.53,1-3.25,1.82-4.52,2.7.42-1,1.93-1.94,3.63-2.92A49.14,49.14,0,0,0,254.14,366.22Zm-71.4,7.34c0-.48.76-.38.74-.89a14.23,14.23,0,0,0,3.77,1.9l4.48,1.51C189,376.46,187.05,375.07,182.74,373.56Zm26.15.68a11.68,11.68,0,0,1-5.3.32,4.67,4.67,0,0,1,2.46-.51A18.73,18.73,0,0,1,208.89,374.24ZM158.67,358.6a5.46,5.46,0,0,1-2.94-1.94C155.38,356.08,155.89,356.27,158.67,358.6Zm93.9.75c0,.73-2.82,2.65-3.43,2.81C249.34,361,251.34,360.88,252.57,359.35ZM137.42,333.29c1.24.82,1.43,2,2.53,3.93a9.7,9.7,0,0,1-1.5-1.78,9.54,9.54,0,0,1-.63-1.06A7.64,7.64,0,0,1,137.42,333.29Zm126.66,12.78a5.89,5.89,0,0,1-1.36,2.31c-.76.89-1.65,1.82-2.17,2.58.84-1.65,1.48-2.75,2.16-4,.35-.62.74-1.25,1.22-1.95s1-1.54,1.65-2.51c.22,1.26-1.59,2.55-2.7,4.73C263.18,347.34,263.66,346.56,264.08,346.07ZM129.81,310.68a25,25,0,0,1,1.82,5.27c.22,1,.5,2,.81,3.08.16.54.31,1.11.5,1.69l.66,1.8C131.45,319.36,130.85,316.07,129.81,310.68Zm30.75-71.92c-.68,1.3-2.24,2.34-3.89,3.58-.85.59-1.75,1.2-2.56,1.88a16.74,16.74,0,0,0-2.31,2.1C153.48,243.59,156.27,242.07,160.56,238.76Zm-1.12,117.79a9.87,9.87,0,0,1-3.12-2.06c-1.16-.95-2.28-2.11-3.27-2.91C154.69,352.28,157.25,355.23,159.44,356.55ZM230,233.27a2.83,2.83,0,0,1-2.49-.19,21.68,21.68,0,0,0-3.47-1.32,5.65,5.65,0,0,1,2.47.07A9.48,9.48,0,0,1,230,233.27Zm36.62,42.23a10.29,10.29,0,0,1-1.48-2.74c-.25-.59-.51-1.2-.75-1.79a15,15,0,0,0-.85-1.57,7,7,0,0,1,1,1.19,12.22,12.22,0,0,1,.8,1.48c.25.53.48,1.09.71,1.66S266.41,274.91,266.59,275.5Zm-55-41c1.35-.06,1.16.55,2.29.61C213.4,235.57,211.22,235.46,211.59,234.46ZM152.53,385c-2.66-1-4.2-2.35-7.26-4.28.15-.21.82.31,1.31.56.21-.12-.1-.37-.45-.62A11,11,0,0,1,149,382.3,37.77,37.77,0,0,1,152.53,385Zm34.54,8.23c-.73-.35.49-.66-2.59-.95-.22.7,2.78,1.24-.76.66.15.41,1.64.5,2.63.71a2,2,0,0,1-1.4.31c.2.4,1.19.21,1.38-.05,2,1.23-3,1-4.91.69-1.67-.39-.06-.92.16-1-2.62-.32-3.9-.48-3.83-1.71,1.67.43.76.41.55.69,2.06.67,2.42.07,4.69.78a15.94,15.94,0,0,0-3.9-1.6c-1.67-.59-3.66-1.07-5.57-1.67l-5.37-1.5a29,29,0,0,0-3.33-.74c-.43.34-2.67-2.07-4.35-1.94a2.67,2.67,0,0,0,1.19,1.34,15.45,15.45,0,0,0,2.9,1.34c.33.43-1.18-.16-3.05-1s-4-2-5.13-2.57c.14-.21.65,0,1.15.22s1,.33,1,0c-1.87-1.18-2.06-.62-2.76-.55a100.66,100.66,0,0,1-17.88-12.55,87.86,87.86,0,0,1-15-17.27c1.09,2.38-.59.26-1.8-1.22.22-.49.67.16,1.19.82,0-1.3-2.22-3.35-2.7-3.14-.27-1.33-.91-2.29-2-4.44-.9-1.65-1.37-2.79-1.67-3.37s-.32-.64-.12-.26.65,1.22,1.35,2.41,1.7,2.7,3,4.47a25.47,25.47,0,0,0-2.31-4.51,56.34,56.34,0,0,1-2.72-5.23c1.28.44,1.62,1.66,2.08,3.52.28-2.17-1.63-5.95-3.52-10.58s-3.88-10.06-4.27-14.77c-.09,3.37,1.73,9.08,3.47,13.83-1.29-.84-1.06-2.53-2-5a4.22,4.22,0,0,0,.13,2.78c.16.6.37,1.27.62,1.95s.58,1.39.88,2.1l.9,2.12c.29.69.59,1.35.82,2a5.9,5.9,0,0,1,.51,3.12,97.54,97.54,0,0,1-4.87-13.68,101.62,101.62,0,0,1-2.57-13.54,108.63,108.63,0,0,1,.29-26.61c0-1.51.6-.92.78-2A54.84,54.84,0,0,1,113,266.22a128.06,128.06,0,0,1,11.72-21.13c-.53-.09-.17-.54.37-1.2a6.66,6.66,0,0,0,1.58-2.39c1.31-1.34-.44,1.57.07,1.67.83-1.19,1.4-2.19,1.93-3s1-1.6,1.48-2.35a13.6,13.6,0,0,1,1.88-2.3,25,25,0,0,1,3.25-2.76c-1.15,1.25-2.09,2.24-3,3.07a11,11,0,0,0-2,2.45A122.32,122.32,0,0,1,150,220.83c-4.51,2.26-9.7,7.18-3.64,1.94l2.48-2.09a33.71,33.71,0,0,1,3.53-2.34c1.3-.2-.13.7,1.17.5,2-1.27,3.84-2.52,5.75-3.51l2.77-1.5,2.74-1.32c1.77-.91,3.56-1.63,5.26-2.47s3.43-1.56,5.11-2.43c0,.55-2.83,1-3.06,1.57,1.06.14,2.4-.49,3.74-1s2.65-1.07,3.52-.92c.87-.32.35-.77.35-1.18,3-.35,1.56-.67,4.63-1.32-.5.56-2.36,1-2.4,1.61a80,80,0,0,1,11.41-1.71c4-.28,8.2-.53,12.32-.67-.12-.31-1.25-.24-2.06-.3.8-.46,2.49-.36,4.41-.12a32.13,32.13,0,0,0,5.86.45,14.18,14.18,0,0,0-3.91-.82c-.83-.09-1.73-.17-2.68-.24l-2.94-.07c-2-.08-4.09.05-6,0a48.93,48.93,0,0,1-5.19,0c-1.63.11-1.93.09-1.43,0a27,27,0,0,1,3.36-.42c1.57-.15,3.42-.29,5-.3s2.92-.08,3.45,0a85.32,85.32,0,0,1,12.91,1.3,98.36,98.36,0,0,1,12.8,3.24,121.6,121.6,0,0,1,25.22,11.69,19.68,19.68,0,0,1-3.61-1.53c-1.41-.66-2.94-1.56-4.6-2.39s-3.34-1.74-5.05-2.46c-.84-.37-1.67-.73-2.47-1.06s-1.6-.56-2.34-.79c1.1,1.33,8.23,3.14,7.19,4.12,1.87.95,2.1,0,4.46,1.63-.35.2-1.22-.19-1.52.08a21.34,21.34,0,0,1,3,1.42c.82.46,1.63,1,2.93,1.89,0-.41-1.33-1.09-2.2-1.61a21.17,21.17,0,0,1,4.43,2.31c1.47,1,2.4,1.9,1.2,1.47,8.71,5.7,17.21,14.49,23.85,25a117.3,117.3,0,0,1,14.56,35.27c.5-.57-.93-4-.57-4.7-.11-1.35,1.24,4.29,1.22,5.23.47-.65.19-2.75-.31-5.05s-1.37-4.77-1.9-6.25c-.25-.72-.51-1.47-.77-2.24s-.61-1.52-.93-2.31l-1-2.4q-.54-1.2-1.05-2.46a47.43,47.43,0,0,1,3.39,6.59,62.91,62.91,0,0,1,2.51,7.47,94.52,94.52,0,0,1,2.82,17.09c-.28-.38-1.09-1.43-.73.78a20.25,20.25,0,0,1-.72-4.23c-.09-.87-.19-1.79-.29-2.66s-.28-1.7-.45-2.41c.79,6.52,1.46,14.49.62,20.79.62-.3.08-3.55.61-4A84.4,84.4,0,0,1,295,316.14c-1,5.25-2.42,10-3,12.46.08.73-.84,2.34-2.07,3.92l-1.78,2.33a14.08,14.08,0,0,0-1.34,1.85c-.89,1.69-1.75,4.1-2.72,6.19s-2.2,3.72-3.72,3.76a6.85,6.85,0,0,0,1.5-2.15,7.4,7.4,0,0,0-1.69,1.74,5.34,5.34,0,0,1-1.74,1.57c1.07-.79.28,1.48-1.14,3.69s-3.31,4.4-3.71,3.84c-.93,2.14-1.62,2.5-2.81,4.33a3.2,3.2,0,0,1,.61-2,7.63,7.63,0,0,0-2.47,1.51,4,4,0,0,0-1.73,2.49,6.91,6.91,0,0,1-2.67,1.4,5.71,5.71,0,0,0-1.39.8,16.47,16.47,0,0,0-1.87,1.81,3.91,3.91,0,0,0-3,.31,28.29,28.29,0,0,0-4,2.15c0-.83,3.39-2.58,3.4-3.49-2.61,1.44-2.47,0-4.93,1.69-.11-.34,1.15-1.37,1.38-1.12.71-1.12-2.3.68-2.86.27a11.06,11.06,0,0,1-2.16,1.92c-.55.37-1.06.62-2,1.31,1-1.3,2.33-2.87,3.84-4.41.72-.82,1.49-1.65,2.3-2.49s1.57-1.76,2.4-2.63a104.33,104.33,0,0,0,8.76-10.94c1.1-1,2.26-2.3,3.18-2.62.5-1,.32-1.47,1.11-2.62-.35-.07-1.7,1.69-.45-.26-.78.81-3,3.08-2.94,3.41-.41-.38.1-1.71,1-3.3.47-.79.94-1.7,1.49-2.58l.81-1.31.75-1.27c1.56-3.93,2.17-7.89,4.47-12.8a17.86,17.86,0,0,0-.63-2.4c-.78,3.86-3.05,8.6-3.29,11.27-.29-.8-.62-.38-1,.41a14.68,14.68,0,0,1-1.43,2.58c.19-1.69,1.56-4.27,2.8-7.07a27.31,27.31,0,0,0,2.58-7.82c-1,2-1.44.69-1.31-1.38a16.78,16.78,0,0,1,.45-3.47,7.79,7.79,0,0,1,1.15-3c-.38-.11-.59-1.49-.56-3.16.29.26.44.71.28,1.57a14.33,14.33,0,0,0,1.2-3.5c.15-.68.32-1.38.42-2.12s.17-1.51.25-2.3a59.37,59.37,0,0,0-.14-10c.54.09.79.93.94,2s.07,2.46.14,3.6a51.09,51.09,0,0,0-.91-12.14,64.35,64.35,0,0,0-4.08-13.15,87,87,0,0,0-15.12-23.18c-.86-1-1.74-2-2.55-3.06a29,29,0,0,0-2.61-2.68c-1.19-1.06-1.1-1.85-1.75-2.81-3.43-2.6-6.12-4.42-8.79-6.12a69.25,69.25,0,0,0-9-4.81c-.56-.18-.35.14-.08.25a108.31,108.31,0,0,0-12.62-4,66.48,66.48,0,0,0-12.72-1.88,62.81,62.81,0,0,1,18.42,2.73,74.59,74.59,0,0,1,9.82,3.8,75.44,75.44,0,0,1,8.83,5.06,31.86,31.86,0,0,0-10.33-6.59,81.27,81.27,0,0,0-13.63-4.21,84.25,84.25,0,0,0-9.05-1.62,70.45,70.45,0,0,0-8.86-.46,57.7,57.7,0,0,0-9,.95c-1.39.29-2.7.5-3.85.7a15.49,15.49,0,0,1-3,.32,78.34,78.34,0,0,0-25.76,12,67.91,67.91,0,0,0-18.32,19.12c.94-.73,3.09-4.21,5.25-6.63-.44,1.17-3.27,4.76-5.38,7.78l-2.2,3.23c-.68,1.05-1.1,1.58-.41.14a12.14,12.14,0,0,1,1.44-2.3,6.78,6.78,0,0,0,1-1.78c-3.91,5.09-6.23,10.38-6.54,12.66a15.79,15.79,0,0,0-2,3.79c-.31.85-.63,1.79-1,2.8s-.56,2.11-.85,3.24a89.74,89.74,0,0,0-2,14.78,69.36,69.36,0,0,0,2,20.47,90.79,90.79,0,0,0,8,20.62c.5.67.16-.65.71.17a16.31,16.31,0,0,1,.47,2.24c.56.63.93-.11,1.59,1.46-.21.14-.52-.42-.79-.73a15.42,15.42,0,0,0,1.68,3c.35.52.71,1.07,1.1,1.59l1.2,1.56c.78,1.06,1.6,2,2.26,2.95a14.19,14.19,0,0,1,.86,1.34,6.26,6.26,0,0,1,.6,1.18,4.55,4.55,0,0,1,2.05,1.29c.84.7,1.81,1.63,2.83,2.66a39.32,39.32,0,0,0,6.74,5.45c-.43.72-1,.49-1.72-.1A27.46,27.46,0,0,0,155.2,359a26.33,26.33,0,0,0,2.53,2.59c.81.66,1.58,1.19,2.4,1.75,1.69,1.07,3.61,2.21,6.86,4.37-1-.87-2-1.75-3.17-2.64a46.12,46.12,0,0,0-4.25-2.94,12.41,12.41,0,0,1,3.13,1.21q.84.44,1.71,1c.59.34,1.19.7,1.79,1.09,2.39,1.56,4.93,3.18,7,4.23a29.1,29.1,0,0,0-2.25-1.89c-.8-.66-1.63-1.32-2.5-2a9.53,9.53,0,0,1,2.63,1.51c.83.58,1.62,1.26,2.42,1.94a13.09,13.09,0,0,0,5.65,3.07,9.51,9.51,0,0,1-2.51-.61c-.8-.32-1.57-.71-2.36-1.1s-1.57-.85-2.43-1.21a21.29,21.29,0,0,0-2.8-1,53.4,53.4,0,0,0,12.3,6.28c4.36,1.64,8.78,2.93,13,4.36,1.73.32,1.1-.65,2.83-.34-1.51.68,1.77,1.05,2.83,1.42-.14.23-.84.14-1.64,0a16.93,16.93,0,0,0-2.34-.45c-.55,1,3,.41,3.42,1-1,.74-3.47-.33-4.58-.5,0,.32,1.25,1,2.9,1.46a13.32,13.32,0,0,0,2.66.49A7.35,7.35,0,0,0,203,382c-.65,1,.71,1.42,2.48,1.61s3.91,0,4.82.07a4.17,4.17,0,0,1-2.28.48c-1.06.07-2.26.06-3.07.15.77.38,2.33.29,3.1.61-.24.76-1.37,1.06-2.62,1.13a11.11,11.11,0,0,0-3.37.45,54.57,54.57,0,0,0,11.24.24c-.49-.47-3.13.33-2.64-.72,1.11.08,2.37.11,3.65.13s2.56-.09,3.72-.1c2.31,0,4.11-.08,4.27.61-.69.21-.27.33.07.26a20.86,20.86,0,0,1-3.62.77c-1.23.13-2.46.2-3.71.29s-2.51.06-3.8.18a30.55,30.55,0,0,0-4,.52c1.23.75,2.77-.12,5.71-.3-2.67,1.33.72.17.82.95-3.64.89-4.35-.23-6.41.39-.13.48.67.49.67.21-1.81,1.19-6.34,1.68-11.23,1.69s-10.08-.63-13.44-.62c1.22.9,4.11.25,5.17,1.43.08-.66.56-.58,1.53-.36a13.11,13.11,0,0,0,4.43.46,12.73,12.73,0,0,1-3.62.26A10.49,10.49,0,0,0,187.07,393.21Zm103.28-63c-.57,1.79-2.5,3.18-2.31,4.81C288.66,333.34,290.6,331.73,290.35,330.24ZM276.5,295.37c-.32-2.33.28-4.25-.83-5.2,0,.94.18,2.3.3,3.4S276.27,295.51,276.5,295.37Zm-25.4-49.46c.12-.25,1.23.77,2.44,2a41.87,41.87,0,0,1,2.91,3.6,13,13,0,0,0-2.86-4c-.72-.72-1.5-1.43-2.23-2a15.83,15.83,0,0,0-2.08-1.42C249.88,244.54,250.33,246.13,251.1,245.91ZM130.65,364.46l.55-.57c-.88-1.29-3.24-3.2-2.19-1.67C130,362.13,129.26,363.42,130.65,364.46Zm-10.63-16c.47,1.13.75,2,1.15,3a12.86,12.86,0,0,0,2.34,3.72,8,8,0,0,0-1.42-3.22A15.59,15.59,0,0,1,120,348.49Zm14.36,18c.35-.21-.77-1.61-1.87-2.87s-2.21-2.37-2.1-1.77a21.8,21.8,0,0,0,1.84,2.64A10.1,10.1,0,0,0,134.38,366.46Zm-26-55.31c-1.14-2.11,0-5.93-1.43-6.63a27.93,27.93,0,0,0,.42,5C107.64,310.75,108,311.44,108.37,311.15Zm63.23,77.5c.48.22.68.45.5.72,2.84,1.12,5.64.91,7.75,2.19,0-.53-2-1.16-4.06-1.68S171.75,388.77,171.6,388.65ZM110.45,321c-.27-1.2-.58-2.4-.81-3.61l-.65-3.64c-.66.05-1-1.11-.91.89.55-.28,1,1.61,1.38,3.41S110.28,321.59,110.45,321Zm-2.86-22.66c-1.15,1.08-.32,3.67-.68,5.48C108,303.87,107,299.56,107.59,298.36ZM294,316.81a14.86,14.86,0,0,1-.93,4.06c-.34,1.15-.59,2-.17,2.48l1-4.43C294.24,317.34,294.35,316.12,294,316.81Zm-19.44,37.65c.26-.41.62-.88,1-1.38l1.12-1.56A5.66,5.66,0,0,0,278,349C276.33,351.83,274.8,352.4,274.55,354.46Zm-.19-2.4c.72-.74.4-.18,0,.52s-.94,1.53-.45,1.44c1.73-3,3.8-5.06,4.72-7.55a16.88,16.88,0,0,1-2.39,2.86A6.57,6.57,0,0,0,274.36,352.06ZM128.09,307.78c.19.79.24,1.94.37,3a4.21,4.21,0,0,0,.7,2.22,21.24,21.24,0,0,1-.48-2.94A4.22,4.22,0,0,0,128.09,307.78Zm150.15-3.95c-.13,1,.09,2.72-.67,2.15,0,1.34-.32,3.39-.36,5s0,2.68.61,2.1C277.07,311.93,279.14,307.05,278.24,303.83Zm-5.77,27.52c1.27-2.91,1.23-4,1-3.82a2.76,2.76,0,0,0-.5,1.18A12.17,12.17,0,0,0,272.47,331.35Zm-29.06-92.59c1.15.78,2.5,1.83,2.9,1.33-1.37-.62-2.78-2.4-3.06-2.07C243.56,238.29,243.64,238.55,243.41,238.76Zm29.07,82.52c.24-.59.38-.24.51.13.59-1.51.83-4.44,1.53-5.06-.28,1.78.6.8-.34,2.63,1.24.27,2.23-5.37,1.55-6.19-.29,1.07-.32,3.48-1,3.61.4-2.18-.89.16-.72-1.72C273.47,317,272.25,320.51,272.48,321.28ZM133,273.37c.41.37,0,1.52-.39,2.69a10.48,10.48,0,0,0-.76,2.47C130.28,279.42,133.17,274.74,133,273.37Zm56.27-68.67c.66-1.09,2.8-.34,4.69-1.1-.07.31.22.45.76.47C194,204.48,191.78,204.5,189.23,204.7ZM176.16,392.78c-.19.25-.69,0-.66-.18a17.86,17.86,0,0,1-3.05-.65,36.2,36.2,0,0,1-3.57-1.18c.46-.61,3.72,1.15,2.09.17.27-.6,2.22.62,2.61.82.61.07,1.23.15,1.43-.11.06-.5-3.13-.5-1.18-.91-2-1-.7.67-2.72-.31.33-.36,1.15-.32,2.24-.07.54.12,1.14.29,1.78.48l2,.56C176.09,391.82,175.28,392.22,176.16,392.78Zm-26.22-175.4c.57,1-1,2.3-3.74,4.17-.75.24.37-.57,1.52-1.48s2.42-1.85,1.8-2.1c-1.39.94-2.6,1.88-3.74,2.74s-2.18,1.65-3.14,2.45l-2.75,2.23-2.51,2.17a92.7,92.7,0,0,0-10.58,10.71c-1.1-.26,2.16-3.18,3.2-4.57.15.1-.38.86-.73,1.2,1.08-1,2.35-2.36,3.82-3.85s3.14-3.12,5-4.72,3.8-3.25,5.78-4.81S147.93,218.56,149.94,217.38Zm76.38,171.43a38.11,38.11,0,0,1-5.79.73c-.89,0-.32-.19,3-.8.92-.16,1.72-.26,2.62-.37a14.34,14.34,0,0,0,3.19-.74c.2.17-.15.31-.53.45,0,.25.33.15.72,0-1.89,1.33-5.34,1.13-8.33,2C222.19,389,224.36,389.72,226.32,388.81Zm62.17-130.1c1.29,1.53-2.52-2.43-2.43-4.07C287,255.5,287.08,256.44,288.49,258.71Zm-18.37,102.1c-.55.53-.74.89-.68,1.13-1.12,1.39-1.16-.18-2.12.76C267.1,362.43,269.9,359.86,270.12,360.81ZM193.81,377.9c-1.81.69-2.67-1.06-4.92-1.18a3.12,3.12,0,0,1,2.33.36A7.79,7.79,0,0,0,193.81,377.9ZM152.4,353.13c.52.39.72-.05.34-.4.45.42.92.88,1.42,1.36l1.63,1.4c1.11,1,2.38,1.94,3.59,3-.61.06-1.79-1-2.86-1.82s-2-1.62-2.27-.84a9.58,9.58,0,0,1-.89-1.05c-.32-.46-.66-1-.92-1.37C151.92,352.56,151.68,352.11,152.4,353.13Z"/><path class="cls-2" d="M272.44,166.39c.11.56.17,1.58.74,1.94C273.11,166.56,271.82,163.58,272.44,166.39Zm2.05,7.58c.57.08.73.66.83,1.31C274.58,175.4,274.67,174.53,274.49,174Zm-2.06-9.71a6.89,6.89,0,0,1-.84-3.2c.31.31.8.39,1,.81C271.34,161.52,273.08,163.77,272.43,164.26Zm3.07,11.83c.55-.05.41.7,1,.65s-.44-.28-.18-.81a1.78,1.78,0,0,1,1.08,1.27c-.37-.17-.57-.07-.48.31C275.87,177.68,275.76,176.81,275.5,176.09Zm-4-18.22c-.72-.54-1-2.39-.91-3.18C271.65,155.34,271,156.85,271.52,157.87Zm2.24,7.35c-.38-.13-1.2-1.95-.26-2.08C273.93,164,273.47,164.44,273.76,165.22Zm.72-.39c1.23-.44.95,3.16,1.7,4.74C274.55,168.31,275.52,166.34,274.48,164.83Zm-5.37-17.7-.38-1.18c.85-.47.6.67.88,1ZM269,145c-.4-.23-1.47-2.14-.55-2.44C268.72,143.77,268.76,144,269,145Zm-5.38-16.77c.81-.5.69,0,.78.23C263.76,128.51,263.87,128.33,263.6,128.23Zm-1.45-1.2c.11-.85.21-.82.28-.67s.11.45.32,0C262.56,127.07,262.33,126.77,262.15,127Zm-.59.38c.05-1.66.35-.53.46-.85C261.91,127.85,261.8,127,261.56,127.41Zm19.05,51.29c1.4,1.18-.28,2.94.85,4.33C280.15,182.78,281,180.31,280.61,178.7ZM263.85,126c.36-.5.5-.41.57-.21C264,126.38,263.93,126.17,263.85,126Zm20.36,72.36c.24-.84-.28-1.15,0-2.13C284.54,196.43,285.16,198.38,284.21,198.39Zm-97.32-48.06c-.41,1.16-2.16,1.41-3.07,2.07C183.72,151.08,186,150.9,186.89,150.33Zm110.82,21.45c.45-.12.6.16,1.07,0-.77,1.05-.68,2.59-1.08,3.85C296.73,174.71,297.7,173.69,297.71,171.78Zm3.39,10.5a2.54,2.54,0,0,1-.39-2.2C301.56,180.49,301.32,181.51,301.1,182.28Zm-2.75-22.8c-1.3-.64-.33-3.14,0,0ZM184.51,144.32c.14.56-1.12,1.09-1.47,1C182.93,144.5,184.07,145.06,184.51,144.32ZM295,145.47c.9.34.56.95.84,1.86A2.08,2.08,0,0,1,295,145.47ZM190.12,140c0,.71-1.36,1-1.89,1.55a6.42,6.42,0,0,1,2.78-3.06c.14,1-1,.72-1.58,1.65C189.62,140.37,189.88,140.1,190.12,140ZM291.9,135.6c1.55,1.11,1.53,2.75,2.42,4.9C292.85,139.26,292.79,137.81,291.9,135.6Zm-17-38.73a6.24,6.24,0,0,1,1.91-1.33c.74,1.31,1.19,4,2,5.33-1.06-.65-1.37-2.54-2.3-4.68C276.07,96.37,275.53,96.59,274.93,96.87Zm25.41,61.89c-.78-.59-.71-2.38-1.16-3.44C300,155.9,299.89,157.7,300.34,158.76ZM238.2,109.38c-.12-1.35,1.14-1,2.2-1.62A2.27,2.27,0,0,1,238.2,109.38Zm-24.62,8c.24-.84,1.86-1.13,2.64-1.75C215.76,116.63,214.67,117,213.58,117.37Zm29.52-16.69c-.49.46-.68-.1-1.13.23C241.91,100.31,242.79,99.66,243.1,100.68Zm31.1,67.42c-.71-.69-.43-1.36-.84-2.36.25-.05.26.2.36.34.22,0,.22-.13.2-.26C274.39,166,274.48,167.35,274.2,168.1Zm6,9.82c.18-.27.74,0,.35-.92-.74.1-.57,1-.82-.05-.34.13-.11.55-.09.87-.25,0-.5-.09-.6-.31-.35.14.05.36.34.36-.77.81-1.5-.59-1.84-1.13-.07-.51.86-.23,1-.21-.37-.75-.67-1.08.51-1.38.12.52-.14.29-.48.31,0,.67.64.63.57,1.38,1.25-1.34-.38-5.23-1.26-5.73-.49,0,.64-1.16-.34-1.42-.62.3-.73.84-.43,1.59-.45.38-.6-1.88-.89-2.58.49-.09.34.63.92.43.06-.7-.55-.54-1-.64-.87-4.61-2.07-8.19-2.95-13.24-.3.88-.57.11-.93-.39.41-.2.53,0,.62.26.61-.5-.36-1.17-.86-1.06.39-.5.2-.81.09-1.54-.36-2.26-.5-1.32.86,1,.39-.83-.57-2.22-.71-3.27,1,0,.88.47.62,1.13,2.13-1.73-1.35-5.13-1.2-8.18-.41,1.18.42,2.84.84,4.35-1-.12-.41-.75-.76-1.52-1.66,1.06,1.56,3.38-.19,4.64-1.24-5.91-1.83-11.2-3.58-16.4-.3-.39.37-.45.28-.77a9.67,9.67,0,0,1-1.54-2.7,13.61,13.61,0,0,1-.46-1.45c-.06-.25-.13-.5-.19-.76A5.15,5.15,0,0,1,266,128a3.12,3.12,0,0,0-.32-2.22c-.75.8.05-.32-.56.13.11-.33.5-.38.85-.77-.21-.16-.54,0-.74.07s-.27,0,0-.91c.26.09,0,.74.31.57a3.44,3.44,0,0,0-.71-2,4.9,4.9,0,0,0-.49.29c.05.18.16.22.27.2.09.27.23.2-.09.2l-.08.09c-.24.22-.56.72-.74.63.12-.61.26-.66.38-1.27-.55.51-.92.71-1.29,1a2.85,2.85,0,0,0-.92,1.49c0-.59.19-.19.24-.7s-.19-.26-.29,0-.19.43-.28.07a4.66,4.66,0,0,0,.05,1.12c-.29-.21-.12.37-.39.49,0-.5.16-.56.11-1.21a6.11,6.11,0,0,1-1.27.42,2.41,2.41,0,0,0-.66.29,9.49,9.49,0,0,0-1.66,1c.16.26.44,0,.69,0-.08,1.11-2.06.47-2.79,1.56.72.25,1.77-.21,2.89-.71l.86-.37.42-.18.11,0h0l.07,0a.66.66,0,0,1,.56.18c.31,0,.16.21-.06.36l-.18.11-.1,0-.22.1-1,.41c-4.87,1.86-10.27,2.73-15.54,5.63.57-1.62,3.7-2,5.28-3.17-.82-.7-2.37,1.38-2.73.16-.61.27-.19,1-1.11,1.13-.08-.35.16-.54,0-.9-.67.69-1,.59-1.9.94.21.29.57,0,.87-.14-.3.67-2.43,1.64-2,.71-5.81,2.93-14.61,4.28-21.42,9.06.42.48,1.13-.68,1.56-.27.45,0-1.15.86-1.49.84.86.86,2.66-.62,3.54-1.08a23.76,23.76,0,0,1,2.78-1.55c-2,2.55-5.27,3.6-8.61,5.48,0-.28-.05-1.09-.58-.58.2-.82,1.73-1.11,2.45-1.73-2,.68-4.12,2-6.09,2.64.37.47,1-.57,1.36-.2-2.32,1.29-6.75,2.95-7.91,4.17,0,.77-2.89-.41-3.63-.23-1.27.31-2.21,2.82-3.95.95a1,1,0,0,0,.86-.24c-.61-.41-1.35.16-2-.31,1.24.48-1.8,3.06-2.39,1.85-.36.85-.67.8-1.15,1.39a1.27,1.27,0,0,1,.12-1c-.61-.4-2.12-.56-1.9.62-.92.28-1.68-1.06-2.7.2a3,3,0,0,0-3.41-.86c-.21-.65,1.29-.78,1.15-1.41-1.21.05-1.41-.95-2.46-.56-.14-.31.35-.66.54-.37.16-.61-1.18-.34-1.59-.83-.6,1.13-.88.69-1.49,1.32a11,11,0,0,1,2.77-4.58,49.64,49.64,0,0,1,4.1-3.78c.62-.05,1.27-.31,1.85,0,.29-.32.17-.78.65-1-.23-.27-1,.08-.28-.44-.47.06-1.83.22-1.77.51-.55-1,1.23-2.25,2.61-2.91,1.16-1.34,1.93-3.2,4.14-3.84a11.84,11.84,0,0,0,.08-1.59c-1.22,1.15-3.26,2-3.6,3.48-.21-1.3-1,0-1.73.16.43-1.85,4.21-2.58,5.25-4.21-2,.31,0-3.66,2-3.1-.18-.35.11-1,.62-1.59a.62.62,0,0,1-.31.79c2.21.21,4.75-1.66,7.27-3.06.4,1-.93,1.36-1.74,1.91,5.86-2.31,13-8.85,20-11.92,1.06-.48,2.34-.54,3.22-1.06.64-.26,1.1.26,1.66.33a60.23,60.23,0,0,1,8.22-3.48c.21-.16,0-.29-.11-.24,2.9-1.62,7.48-3,10.32-4.23a155.17,155.17,0,0,1-15.21,6.92c3.32.25,6.73-2.35,10.47-3.88,2.4-1,4.86-1.78,7.09-2.67,3-1.13,6.61-3.39,8.38-3.27,6.22-2.59,11.59-4.56,16.77-6.47,1.93,4.58,3.76,9.08,6,13.92,0-.9-1.08-3.09-1.81-4.91.6.23,1.7,2.91,2.47,5.11.36,1,1.4,4.49.56,2.76-.67-1.29-.44-2-1.1-2.67,1.09,3.91,2.22,7,3.26,8.09a4.87,4.87,0,0,0,.07,1.17c.09.46.17.88.25,1.23a21.31,21.31,0,0,0,.88,2.51,62.39,62.39,0,0,1,2.29,5.88c1.56,5.26,4.12,11.07,5.11,17.42.19.31.39-.32.57.07a3.48,3.48,0,0,1-.5,1.07c.21.31.85,0,.76.72-.25.06-.28-.21-.38-.36-.29,1.8,1.25,4.47.29,5.95,1.48.37,1,4.07,1.84,6-1.64.41-.73-.86-1-1.82-.63,2.53.49,2.82.42,6.09a5.77,5.77,0,0,0,.14-3.93c1.87,1.12,1.18,4.42,1.24,6.36a9.83,9.83,0,0,0,1-2.74c.79,1.63-1.77,3.72-.92,5.46-1-1.26.23-2.84-1-4.35-.8,3.88.11,7.71-1.32,11.37-.06.7.8.28.74,1-.88-.44-.77.85-1.08,1.31-.47,0,.07-1.09,0-1.55-1.06,0,0,1.17-.52,1.43-.78-.26-.12-1.32-.09-1.77-.64.14-1.79,2.3-1,3.3-2-.17-1.44,2.25-1.6,2.93-.63-.12-.34-1.32-.61-1.88-.33.33-.24.89-.58,1.21-1.54,0-.89-1.5-1.69-1.9-.41,1.16-.21,2.67-.34,4,.51-.22-.12-1.08.88-1-.57,1.63-.57,4-1.93,4.23-.09-.23-.28-.08-.26,0-.63-1.61.68-3.39-.37-5.14-.8.52.15.92.09,1.94-1.14-.79-.22.26-1,.38-.6-1.16.43-1.52-.13-2.15-.47,0-.49.29-.22.26-2.18-.94-2.4-5.61-4.13-7.44-.49.53.71,1.21-.18,1.76,1.31-.24.05.63.89,1.76C281.4,179.48,281.47,178.27,280.19,177.92ZM206.42,149c-.5.33-1.7-.46-1.72.44C205.2,149.1,206.41,149.8,206.42,149Zm1.34-22.27c.78-.65,1.87-.24,1.8-1.34C208.79,125.61,207.44,126.34,207.76,126.71Zm21-12.32c.28.44-2.31,1.13-3.09,1.3,1.06.39,3.38-.62,4.2-1.57C229.53,114.28,228.57,113.66,228.71,114.39Zm45.55,44.48.76-.2c.07-.51-.66-1.28-.73-.67C275.09,158,273.78,158.45,274.26,158.87Zm-.6-5.91c-.07.79-.77,1.31-.11,2.42C274.55,154.28,273.41,154.13,273.66,153Zm2.21,6.79c.76-.13.26-2.35-.26-1.89C275.42,158.37,275.43,159.5,275.87,159.75ZM271.23,141c-1-.41-.06-1.91-1.42-1.73C270,140.43,270.48,141.37,271.23,141Zm8.67,31.85c0,.17-.16.29-.47.32,0,.95,1.09,1.6.54,2.46C281,175.32,279.79,173,279.9,172.83Zm-7.41-28.94c-.23-.73-.49-1.46-.74-2.19-.63.18-.91-.13-.93.52C271.91,141.77,272.05,144.36,272.49,143.89Zm-2.56-6.68c-.94.65,0,1.18-.19,1.84C270.72,138.76,269.57,137.72,269.93,137.21Zm-59.56,9.65c-.63.81-2,.3-1.68,1.33C209.12,147.8,211,147.06,210.37,146.86Zm-13.43,4.69c.46-.5,1.74-.71,1.67-1.38C197.79,150.9,196.9,150.31,196.94,151.55Zm-.3-1.69c.77-.06-.68.58-.12,1,.76-1,1.91-.95,2.4-1.84C198.24,149.48,196.82,148.93,196.64,149.86Zm93.58-15.12c.37.59.3,1.93,1,2C290.81,136.18,290.89,134.85,290.22,134.74Zm-84.74-4.87c-.37.15-.82.8-1,0-.94.58-2.95,1.73-1.94,2.39C202.38,131.19,204.88,131.43,205.48,129.87Zm-9.57,6.43c2.18-1.34.74-2,0,0Zm37.25-23c-.53.27-1.24.46-1,1.07.44-.53,1.55-.3,1.39-.7C233.41,113.72,233.26,113.61,233.16,113.32Zm-35.63,18c.26-.1.27.17.27.45.67-.22,1.47-1.3,2-1-.6.5.12.76-.82.81.61,1,2.52-.38,2.42-1.15-.47.1-1.09,1-1.47.57.77-.53-.54-.65,0-1.25C199.06,130.13,197.55,130.75,197.53,131.29Zm88.32-10.85a.7.7,0,0,1,.62.35,2.24,2.24,0,0,1,.32.68c.16.5.23,1,.4,1-.47.46-.57,0-.66-.52S286.37,120.75,285.85,120.44Zm-25.29,5.47c.17,1-.29.1-.32.74-.08-.3-.15-.44-.23-.47C260,125.78,260.28,125.91,260.56,125.91ZM277.69,175c-.3,0-.19-.18-.05-.21a4.34,4.34,0,0,1-.71-2c.77-.08.36,1.13.65.5.65-.1.23.68.18.82a.76.76,0,0,0,.61.3c.49-.12-.66-.86.42-.52.17-.73-.86,0-.69-.71.89-.05,1,.81,1.18,1.68C278.55,174.74,277.93,174.65,277.69,175Zm-14.84-48.16c.48-1.37.78-1.87.94-1.83-.17.58-.35.17-.79,1.48.16-.18.3-.32.38-.4.29.18.2.77.29,1.26-.75.93-.3.18-.49.34.12-.18.23-.27.21-.22.14-.46-.16-.53-.31-.69A.32.32,0,0,1,262.85,126.85ZM284.55,190c.17-1.69.61-3.2.64-1,0,.61-.43,1.11-.21,2-.22.07-.26-.05-.3-.18-.22,0-.23.12-.22.25-.81-.6.17-1.78-.19-2.75C285.13,188.61,284.14,189.39,284.55,190Zm-56.54-50c-.33.7.38-1.52,1.18-.94C229,139.62,228.65,139.47,228,140.05Zm-32.93,13.36a.32.32,0,0,0-.22.45c-.43.42-.7-.71-1.11-.53C193.58,153,194.82,152.62,195.08,153.41Zm101.24,23.4c-1-.52.57-1.22.13-2.06C297.35,175.2,296.07,176.08,296.32,176.81Zm1.39-20.88c.13.26.56.09.51-.13.19,1.06.54,2.38.7,3.77-.91-.2-.18-2.73-1.64-2.14C297.22,156.91,298,154.78,297.71,155.93Z"/><path class="cls-1" d="M201.69,472.08c85.93,0,160.12-35.55,194.82-87H6.88C41.58,436.53,115.76,472.08,201.69,472.08Z"/><path class="cls-1" d="M342.84,428.06l-4,2.51c-1.47.88-2.88,1.74-3.74,2.34C341.91,429.19,353.5,421,342.84,428.06Zm-30.78,16.46a17.36,17.36,0,0,1-2.15,1.13c-1,.45-2.34,1-3.69,1.52C306.18,446.9,309.7,445.62,312.06,444.52Zm38.53-21.45c4-3,7-5.15,11.62-8.93-1.22,1.09-1.73,1.78-3.33,3.05,1-1-.74.32-2.86,2A66,66,0,0,1,350.59,423.07ZM302.8,448.54c-.13.24-3.18,1.28-3.31,1.52.34.12,1.42-.66,3.46-1.29-1.39.67-3,1.4-5.9,2.49.9-.46.66-.41-1,.15C296,451.12,299.65,449.76,302.8,448.54Zm69.82-43.44c1.08-1.1,3-3.19,5-5.22l2.79-3,1.22-1.32.95-1.09a57.72,57.72,0,0,1-4.53,5.25c-.88.92-1.82,1.83-2.72,2.74S373.51,404.26,372.62,405.1Zm-26.3,21.32c.35-.31,2.31-1.69,4.15-3s3.51-2.49,3.45-2.25c-1.63,1.22-2.76,2-3.87,2.76S347.83,425.37,346.32,426.42Zm1-.34c.21,0-.43.49-1.61,1.33s-3,1.91-4.95,3.16-4.26,2.5-6.39,3.76-4.26,2.34-5.89,3.27C334.34,434,341.18,430.45,347.29,426.08Zm30.43-35.74h-5.66c-1-.31,3.68-.13,5.61-.19A1.21,1.21,0,0,1,377.72,390.34Zm-9.48-.16c-1.5.11-11.23.26-11.35-.06Zm-100.1,0c3.09-.31,12.29-.22,18.82-.22C281,390.14,276.54,390.08,268.14,390.16Zm-89.72-.06c1.28-.5,10.06.08,17-.12a15.23,15.23,0,0,1-2,.09l-4.69,0Zm-19.81,0c2.89-.51,10.51-.12,14.1-.21C171.61,390.33,162.86,390,158.61,390.15Zm130.2,64.91c-1.45.55-2.93,1.05-4.44,1.52s-3.07.83-4.65,1.24c-3.13.85-6.41,1.51-9.71,2.53a64.42,64.42,0,0,1,7.5-2.09l5.7-1.52C285.15,456.21,287.06,455.6,288.81,455.06Zm-61.37-65.25c2.26-.17,6.11-.2,10.33-.2C236,389.82,231.57,389.81,227.44,389.81Zm-25.73,78.71c3.57.05,5.16-.08,9.35-.09C210.14,468.63,201.31,468.83,201.71,468.52Zm-16,2.67c2.09,0,4.88.06,7.75.19s5.83.16,8.26.19a64.55,64.55,0,0,1-7.3.07Zm120.87-16c.21.09-1,.58-.67.64-1.85.51-4.3,1.34-6.91,2.2s-5.37,1.72-7.8,2.36C295.48,458.7,299,457.91,306.55,455.18Zm-44.46,13.58c1.25-.28,6.33-1.56,9.3-2.07A67.61,67.61,0,0,1,262.09,468.76Zm90-36.09c.75-.62,1.82-1.39,2.83-2.08s1.92-1.37,2.42-1.69.56-.32-.18.24S354.91,430.85,352.11,432.67ZM180.47,473c.78-.13,6.56.33,7.58.41C186.59,473.6,183.75,473.06,180.47,473Zm218.25-85.46a45.1,45.1,0,0,1-3.09,4.49l-2,2.69-1.18,1.56-.3.39-.23.28-.47.57.58-.78.85-1.2,2-2.69ZM150.34,469.62c.79,0,2.57.33,4.56.65s4.18.63,5.75.83a148.26,148.26,0,0,1-16.83-2.39,24.5,24.5,0,0,1,3.7.56c1.62.28,3.55.64,5.64.91A22.67,22.67,0,0,0,150.34,469.62ZM357.5,382c6.33-.38,12.88-.22,22.58-.31C373.39,382,367.44,381.9,357.5,382Zm-148.18.27c4.62-.44,13.62,0,20.74-.14C224.54,382.39,219,382.12,209.32,382.23ZM353.46,432.6c2.54-1.89,8.56-6.17,12.3-9.21-1.2,1-3.26,2.7-5.54,4.4S355.46,431.26,353.46,432.6Zm-275.56-51c1.86-.43,6.1-.15,11.28-.2A97.88,97.88,0,0,1,77.9,381.57ZM28,416.29a61.56,61.56,0,0,1-4.56-4.15c-1.82-1.77-3.68-3.8-5.19-5.28,1.38,1.26,2.92,2.79,4.54,4.43S26.16,414.62,28,416.29Zm83.38-36.73c-2.64.08-2.47-.12-4.74-.07C107.39,379.29,111.8,379.21,111.34,379.56Zm224,53.6c1.53-1,2.88-1.8,4.35-2.68s3-1.87,5-3.16a9.49,9.49,0,0,1-1.49,1.05c-.08.14.37-.13.85-.43-.39.33-1.89,1.29-3.62,2.37S336.65,432.45,335.32,433.16Zm-43,20.66c1-.27-.41.4,3.61-1.05,0-.27-3.94,1.08.72-.53a33.52,33.52,0,0,0-3.56,1.13,8.56,8.56,0,0,1,1.66-.76,5,5,0,0,0-1.71.69c-2.89.64,3.39-1.6,5.81-2.61,2.17-.8.43.15.21.29,3.31-1.32,4.91-2,5.37-1.75-2.21.87-1.1.35-1,.2-2.76,1-3,1.28-6,2.35,1.19-.31,3.14-1,5.44-1.77s4.89-1.92,7.45-3,5-2.23,6.95-3.2,3.45-1.77,4.08-2.14c.25-.25,4.15-1.73,5.79-2.92a40.15,40.15,0,0,0-6,2.72c-1.2.43,7.79-3.89,10.61-5.61,0,.17-2.63,1.52-2.25,1.53a9.65,9.65,0,0,0,3.06-2,193.34,193.34,0,0,0,24.51-16c1.89-1.47,3.8-2.93,5.65-4.51.94-.78,1.89-1.55,2.83-2.36l2.8-2.49c1.91-1.64,3.71-3.48,5.65-5.28l2.82-2.87,1.44-1.47,1.41-1.55c-2.42,2.44,0-.25,1.59-2.16.36-.19-.33.61-1.06,1.44a17.79,17.79,0,0,0,2.2-2.38,8.62,8.62,0,0,0,1.22-1.85c.6-.59,1.14-1.18,1.79-1.94l.54-.63.27-.33c.65-.78.75-1,.65-.83l-.36.56-.36.55-.11.16-.05.09-.15.19-1.3,1.63.9-1,.71-.83c.18-.22.38-.48.57-.74s.34-.51.51-.75l.24-.35c0-.05.12-.14.07-.15h-.19a3.89,3.89,0,0,1,.58-.17s0,.12-.09.21a5.79,5.79,0,0,1-.67.74,4.58,4.58,0,0,0,.75-.64c.13-.14.27-.29.4-.45a.5.5,0,0,0,.1-.11h-.11l-.25,0c-.72-.05-1.75,0-2.78,0l-10.53.09c-3.69,0-7.31,0-10.58-.08,4.58.24,12.82.13,19.87.13-1.7.3-3.79.06-7.53.1a20.8,20.8,0,0,0,3.72.25h2.82c.91,0,2.44,0,2.3,0,.89,0,2.08-.08,1.71.25l-1.71-.05-8.76-.07-18.93-.14c-12.4-.1-24.48-.17-36.85-.17-2.07.05-1.39-.17-2.88-.17-18.74.52-34.67-.18-61.38,0,.66.33-3.18-.05-5.61.19-2.58-.08,2.1-.2,1.79-.36-8.11.1-9.16.5-18.85.13,4.72-.06,7.65.1,10.38,0-11-.12-26.9-.07-36.83,0,7,.2,16.83,0,5.72.16-2.8,0-5.7.16-10.36.11-1.7-.17.66-.17-1-.35-13.2.19-23.63.09-33.85.52.19-.18,4.14,0,4.67-.18-2.65-.3-8.17.18-10.4-.07-1.28,0-.73.22-.85.35-4.12-.1-2.29.11-6.59.11.82-.16,3.44-.15,3.68-.36-9.9,0-21.68-.15-33,.08a21.9,21.9,0,0,0,2.85.08c-2.18.33-9.26-.12-14.13.12,5,.33,20.57,0,28.41.28,8.86.1-11.24.13-14.13.12-23.36,0-47-.5-73.75-.35,5.32-.41,18.8-.11,27.32-.24-2.1-.32-12.16.1-11.42-.32-2.93,0-2.62.28-6.56.19.3-.12,1.62-.14,1.82-.27-4,.12-5.08,0-9.44,0a34.5,34.5,0,0,0,3.8.08c-2.45.17-12.88.16-9.46-.06-7.25,0-15,0-23.21-.09l-6.2-.06-3.07,0-1,0L15,388.91l-.58,0,.29.44.59.9c.42.62.91,1.26,1.39,1.93l2,2.43c.69.84,1.36,1.7,2.09,2.53,2.89,3.3,5.89,6.56,9.1,9.66a166.25,166.25,0,0,0,20.68,17.09c-.39-.53-4.63-3.31-5.15-4-.7-.59.52.35,2.05,1.5s3.42,2.49,3.92,2.88c-.49-.62-2.84-2.29-5.37-4.27l-3.85-3L39,414.42c-3.22-2.68-6.72-5.81-10.24-9.28a217.84,217.84,0,0,0,35.13,26.75c-.51-.21-1.95-.77.73.73-2.23-1.05-7.62-4.65-11-6.88a223.83,223.83,0,0,0,24.7,14.78c-.3-.39-4.41-2.21-4.91-2.73,5.12,2.73,12.27,6.32,19.11,9.24,3.43,1.42,6.72,2.82,9.63,3.86,1.45.54,2.78,1,4,1.46l3.07,1c1.81.43,9.34,3.7,12.42,4.6,5.17,1.7,14.17,3.23,16.3,4.53-.82-.25-2.07-.55-3.65-.9,1.3.52,5.25,1.38,6.41,1.87-1.72-.53,1.65,0,5.37.69s7.82,1.37,7.5,1.57l7.39.91a15.9,15.9,0,0,1-2.75-.13,38.42,38.42,0,0,0,4,.87,22,22,0,0,0,4.42.39c4,.56,3.68,1,10.34,1.45a12.27,12.27,0,0,0,3.68.85c1.84.23,4.2.53,6.81.67-.77.24-6.54-.4-7.48-.25,4.53.47,2.94.76,7.66,1a10.46,10.46,0,0,1-2.83-.12c-1,0-.11.14,1.06.3a21.47,21.47,0,0,1,2.83.39c4.78,0,4.8.16,8.47.13a179.6,179.6,0,0,1-20.67-.18c-8-.45-16.42-1.48-23.4-2.49-2.37-.51-5.32-1-6.57-1.48-1.77-.31-2.32-.26-4.64-.73.2.16,3.88.93,0,.19l4.26,1a29.88,29.88,0,0,0,3.21.59c-.3.37-9.46-1.25-15.8-2.82a178.4,178.4,0,0,1-22.91-6c-1.26-.28-2.57-.58-3.63-.77,3.31,1.11,7.25,2.29,10.88,3.36s7,1.9,9.21,2.24c-2.11-.14,3.55,1.1,6.48,1.85-1.4-.18-3.37-.63-5.67-1.18-1.15-.29-2.39-.57-3.66-.92l-3.91-1.1c-5.31-1.5-10.75-3.31-14.25-4.38,3.77,1.42,1.81,1-1.82,0a84.94,84.94,0,0,1-11.65-4.45,28.75,28.75,0,0,1-5.35-1.86,13,13,0,0,1,2.66,1c-1.75-.88-3.83-1.87-6.15-2.94s-4.82-2.32-7.45-3.64c-5.25-2.64-10.94-5.69-16.24-8.87.62-.05,5.51,3,9.23,4.93A220.8,220.8,0,0,1,30.1,416.4a165.16,165.16,0,0,1-18.49-19l-.54-.63-.76-1-1.53-2-3.06-4.07-3-4.16-1.47-2.07-.73-1-.37-.51L0,381.61s.19,0,.28,0c3.3,0,6.53-.13,9.83-.15h9.21c4.91,0,9.9.18,14.2.15,2.93,0,3.74.23,5.76.33,15.6-.07,23.58,0,37.79.09,1.07,0,.5-.09,0-.09,14-.1,34.16.08,47.23.07-18.47.18-47.48.15-70.8.08,12.39.53,30.15.21,47.28.24l32.13.1c10.65,0,22.67-.24,28.33,0l98.16-.15c-2-.12-9.33,0-15.11,0,2.08-.16,10.34-.16,17-.13,2.88,0,13.26.1,7.59.16-4.37.06-5.73-.1-8.49,0,11.38.14,21.46.14,25.47-.06,6.93.4,28.07,0,45.35.07l36.86-.07,20.83,0c2.48,0,5,0,7.38,0l3.64.06,1.82,0h.22c.07,0,0,0,0,.07l-.07.09-.26.38-.54.76c-1.44,2-2.87,4-4.31,6.05l-4.44,5.87c-.63.87-.41.64-.22.45s.18-.18.14-.11a1.2,1.2,0,0,1-.15.24l-.17.25-.19.23c-1.84,2-.73.84-2.7,2.84a15.3,15.3,0,0,1-2.34,3,10.8,10.8,0,0,1,1.2-1.47c-1.25,1.29-2.69,2.86-4.24,4.54s-3.25,3.38-5,5-3.34,3.24-4.9,4.55-2.9,2.46-3.95,3.23a79.33,79.33,0,0,1-8.6,7.17c-2.07,1.59-4.38,3.15-6.55,4.72l-6.2,4.17c-.46-.34,3.48-2.49,7-4.94-4.22,2.69-6.77,4.37-9.75,6.22l-2.33,1.47-2.71,1.59-3.26,1.88-4.08,2.16c2-1,4.07-2,6.35-3.26l3.67-2.09c1.3-.79,2.69-1.67,4.2-2.64a92.15,92.15,0,0,1-11.19,6.95c-2.26,1.19-4.55,2.43-6.8,3.49s-4.35,2.12-6.22,2.94l2.26-.9,2.38-1.07c1.62-.75,3.35-1.49,5.08-2.37-6.54,3.62-12.95,5.63-20.24,8.93,2.74-1.36,5.48-2.41,8.28-3.7l4.34-2c1.48-.74,3-1.55,4.6-2.44-14,6.8-29.8,12.91-43.85,16.44-2.83.78-1.61.72-4.46,1.47,2.28-.93-3,.59-4.79.87.42-.22,4.45-1.13,6.43-1.69.65-.55-4.84,1.32-5.61,1.3a75.72,75.72,0,0,1,7.33-2,32.55,32.55,0,0,0-4.84.94c-2.64.65-5.89,1.33-8.2,2.05,1.87-1.11-8.56,1.45-11.38,1.83a34.6,34.6,0,0,1,3.53-.83c1.64-.36,3.47-.75,4.7-1.06-1.18.14-3.56.68-4.71.8.76-.71,6.8-1.7,8.93-2.55-4.64,1-11.13,2.37-16.66,3.32.65.05,4.66-.91,3.84-.41-1.65.24-3.52.59-5.43.86l-5.52.77c-3.42.42-6,.62-6.07.4,1-.17.48-.16,0-.08,7.29-1.12,14.17-1.86,22.19-3.85-1.75.13-4,.86-8.29,1.64,4-1.13-1,.11-1.07-.15,5.26-1.2,6.23-1,9.2-1.81.18-.2-1,0-1,.13,1.3-.48,3.53-1.08,6.27-1.81s6-1.6,9.32-2.63a188.62,188.62,0,0,0,18-6.12c-1.87.45-5.4,2-7.14,2.28.18.39-2.64.84-7.91,2.63,1.14-.42,2.94-1.05,4.75-1.66A35.7,35.7,0,0,0,292.3,453.82Zm-180.43.79c2.49.81,5.07,2,7.11,2.4C116.49,456.24,113.69,455,111.87,454.61ZM61.93,439c-1.87-1-3.45-2.09-4.79-3a24.36,24.36,0,0,0-3.38-2c1.42.94,3.53,2.27,5.24,3.33A15.44,15.44,0,0,0,61.93,439Zm-29.3-57.19c.26.18-10.89,0-14.18-.05,3.33.27,14.07.3,18.92.13C36,381.85,33.42,381.52,32.63,381.76ZM368,410.55l.23.15c1.65-1.32,4.4-4.26,2.56-2.58C370.4,408.82,369.58,409,368,410.55Zm18-18.44c-2.18,2.46-3.23,3.43-6.81,7.53a36.17,36.17,0,0,0,3.27-3.33C383.37,395.15,384.38,393.86,386,392.11Zm-21.78,22.33c0,.43,7.52-6.23,6.3-5.44C368.92,410.25,365.27,413.44,364.17,414.44Zm-10.4-25.36c-3.09.27-8.29-.17-9.36.28C349.69,389.43,354.45,389.35,353.77,389.08ZM313.24,446c-.67.28-1,.38-1,.23l-5.42,2.35a39.46,39.46,0,0,1-4.9,1.86C302.57,450.69,312.8,446.24,313.24,446ZM367.9,389l-10.38,0c-.06.22-1.73.28,1,.35C358,388.94,369.35,389.15,367.9,389Zm-32.06.16c1.52.36,5.11.11,7.62.25C343.55,389,337.52,389.29,335.84,389.12ZM93.54,447.75c1.95.71,3.86,1.55,5.41,2.22a14.06,14.06,0,0,0,3.27,1.08C99.84,450.29,91.71,446.8,93.54,447.75Zm58.21,17.57c-2.81-.37-7.94-1.55-9.19-1.6,2.31.42,3.94.82,5.33,1.11A24.13,24.13,0,0,0,151.75,465.32Zm-2.72.08c-3-.63,3.77.59,2.75.19-2.54-.34-4.82-.75-6.93-1.2s-4.07-.79-5.94-1.15l5.31,1.25A33.78,33.78,0,0,0,149,465.4Zm202.93-83c2.85-.06,8.16.09,9.41-.11C358.51,382.37,353.21,382.21,352,382.42Zm-276.5,63.3,2.59,1.3c.78.38,1.25.64.79.57,4.25,2.11,13.4,6,11.34,4.74A58.14,58.14,0,0,1,84,449.74C81.23,448.36,78,446.85,75.46,445.72Zm46.15,17.5c-5.32-1.45-7-2-6.6-1.75A47.47,47.47,0,0,0,121.61,463.22Zm-70-81.15c-2.51,0-5.58,0-5.62.19,2.65-.1,6.52.13,6.61,0C51.85,382.23,51.47,382.17,51.6,382.07Zm53.59,77.23c-1.09-.39-.54-.29,0-.18l-5-1.81a34.37,34.37,0,0,1-3.91-1.57,47.29,47.29,0,0,1,4.48,1.58c0-.22-2.36-1.13-4.86-2.14s-5.16-2-5.79-2.13c1.83.81,5.83,2.24,6.19,2.6-3.72-1.48.49.49-2.71-.71l3.3,1.37,3.54,1.35,3,1.1C104.26,459.05,104.89,459.23,105.19,459.3Zm184.42-77c.69-.33,8.86-.09,9.39-.2C301.33,382.5,291.79,382,289.61,382.3Zm-141.55,7.26c-1.09.34-3.88,0-6.56.19.12-.1-.25-.15-1-.17C141.54,389.45,144.55,389.53,148.06,389.56Zm157.79,58.61a1.93,1.93,0,0,1,.86-.35l8.46-3.71c-.17.35-4.79,2.15-2.43,1.26,0,.23-2.84,1.3-3.4,1.47a7.93,7.93,0,0,0-1.61.85c.18.11,3.91-1.76,1.83-.56,2.83-1.08.47-.5,3.29-1.62a10.83,10.83,0,0,1-2.52,1.39c-1.4.6-3.2,1.33-5,2.05C306.39,448.28,307.14,447.76,305.85,448.17Zm-101-58c0-.37,2.89-.49,7.43-.46,2,.16-7.56,0-6.51.37,18.23-.19,24.1-.05,41.55,0,.66.34-5.16.11-7.51.19a10.35,10.35,0,0,1,1.87-.09C233.7,390,217.55,390.19,204.87,390.13Zm33.31,76.61c1.81-.16,3.56-.36,5-.54l3.24-.37c1.26-.12.41,0-4.43.69-2.66.36-4.58.36-8.42.86-.2-.05.33-.12.9-.19.14-.1-.4,0-1,0,3-.6,7.69-.73,12.06-1.48C244,466.21,241.16,466.32,238.18,466.74ZM26.35,402.27c1,.89.13.16-1.11-1a30,30,0,0,1-3.32-3.64c.59.56,1.07,1.08,1.7,1.79l1.11,1.22ZM162.82,466.8a8.92,8.92,0,0,0,1.85.12c2.56.25.92.43,2.84.68C167.45,467.7,162,467,162.82,466.8Zm124.43-5.74c2.67-1.17,4.6-1.11,8.22-2.49C293.14,459.69,290.35,460.06,287.25,461.06Zm77.31-37.4c-.93.75-.62.7.14.11-1.83,1.38-3.84,3-6.12,4.62l-3.46,2.49-3.67,2.44c.61-.61,3.06-2.12,5.1-3.63s3.82-2.78,3.24-2.68C361.58,425.7,368.22,421,364.56,423.66Z"/></g><circle class="cls-1" cx="202.01" cy="13.58" r="11.5"/><path class="cls-1" d="M208,26.65a3.69,3.69,0,0,0,.9-.5C208.09,26.51,206.67,27.22,208,26.65Zm3.23-2.13c0-.13.22-.33.45-.55C211.74,24.07,211.4,24.32,211.2,24.52ZM207,27a5.5,5.5,0,0,1-1.56.5,2.42,2.42,0,0,1,.45-.26c-.12.13.11.07.4,0A2.2,2.2,0,0,1,207,27ZM212,23.7c0-.08.23-.3.18-.38s-.07.17-.28.29a2.1,2.1,0,0,1,.38-.6c0,.12,0,.12.13,0C212.48,23.11,212.2,23.43,212,23.7Zm-8,3.94a4.31,4.31,0,0,1-1.61.14C202.74,27.62,203.39,27.78,203.92,27.64Zm3.57-1.05c-.07.09-1,.48-1,.32C206.94,26.72,207.12,26.75,207.49,26.59Zm-.15-.08c-.16-.16,1.42-.67,2-1.2C208.88,25.91,208,26.08,207.34,26.51Zm-8.72.77-.59-.14c-.06-.18.4,0,.6.06Zm-1-.34c-.17,0-1.17-.29-1.12-.44Zm-8-6.61a14.35,14.35,0,0,1,1.17,1.6A7.8,7.8,0,0,1,189.7,20.33Zm-1.48-9.2c.23.18-.23,1-.13,1.79a1.8,1.8,0,0,1,0-.71C188.12,11.83,188.18,11.39,188.22,11.13Zm.49-2c.12.36-.24,1.08-.3,1.46C188.26,10.41,188.6,9.53,188.71,9.1ZM212.47,22c.23-.62.89-1,1.11-1.67,0,.15-.12.42-.34.73S212.69,21.67,212.47,22ZM188.4,16.25a5,5,0,0,1,.36,1A2.75,2.75,0,0,1,188.4,16.25Zm26.89-2.67c-.08.36,0,.52-.08.94C215.16,14.42,215.13,13.54,215.29,13.58Zm-1.64-1.42a4.37,4.37,0,0,1,.11,1.42C213.55,13.34,213.72,12.57,213.65,12.16Zm-4.41,8.91c-.06-.05,0-.13-.07-.17a4.83,4.83,0,0,0,1-.69C210.05,20.57,209.72,20.67,209.24,21.07Zm1.87-3a1.16,1.16,0,0,1-.32.64C210.77,18.46,211,18.22,211.11,18Zm-5.35,4.72c-.2.27-.95.27,0,0Zm6.78-10.87c.1,0,.13.52.1.6C212.5,12.38,212.64,12.14,212.54,11.88Zm-11.2,11.56c.18-.13.33,0,.63,0A1.12,1.12,0,0,1,201.34,23.44ZM211.78,9.6c.14.08.22.53.34.75a5.73,5.73,0,0,1-.68-1.17c.19.05.2.36.38.64C211.86,9.79,211.81,9.68,211.78,9.6Zm-13.6,13.16a11,11,0,0,1,1.65.35,2.44,2.44,0,0,1-.76-.06ZM192,14.16c.21.33.11,1,.26,1.54a1.55,1.55,0,0,1-.18-.64C192,14.81,192,14.53,192,14.16Zm13.58,8.29a3.13,3.13,0,0,1-1,.4C204.73,22.71,205.24,22.6,205.55,22.45Zm-9.33-16.7c0,.26-.32.31-.58.6A1,1,0,0,1,196.22,5.75Zm7.41-1.19c-.19.09-.62-.1-.91-.06A1.52,1.52,0,0,1,203.63,4.56Zm-8.41,3.51c.08-.16.16-.08.24-.21C195.49,8,195.34,8.2,195.22,8.07ZM208.77,26a6,6,0,0,1-1.06.58s.1-.08.16-.13-.05,0-.11,0A3.32,3.32,0,0,1,208.77,26Zm3.5-3.7c-.11.06-.06-.12-.32.23.08.1.37-.23,0,.16.07,0,.19-.16.29-.26a.25.25,0,0,1-.05.2c.07,0,.11-.13.09-.18.32-.13-.09.45-.25.68s-.13-.07-.13-.11c-.22.31-.34.45-.51.33.18-.17.11-.06.14,0,.24-.19.17-.3.43-.52a12.09,12.09,0,0,0-2,1.82c0,.08-.45.16-.55.39.13,0,.35,0,.63-.29.08,0-.09.14-.33.31s-.56.33-.7.43c0-.07.26-.19.18-.26-.29.13-.23.22-.26.32a12.86,12.86,0,0,1-6.08,1.82c.37.06,0,.1-.28.15-.05-.08.07-.09.19-.1-.17-.11-.58,0-.59.12a2.53,2.53,0,0,0-.69-.1c-1.08-.1-.66,0,.58-.07-.33-.1-1.07,0-1.56-.11.15-.14.32-.1.58,0-.47-.39-2.44-.29-3.66-.94a5.76,5.76,0,0,0,1.94.61c-.21.13-.39-.05-.77-.12.18.41,1.69.24,2,.61a14.32,14.32,0,0,1-7.11-3.13c-.18-.11-.06-.15-.18-.25-1.62-1.07-2.52-2.56-3.73-5-.13.12-.12-.31-.31-.5s.17.16.23.1c-.32-.75-.59-.79-.65-1.81a5.06,5.06,0,0,0,.31,1,18.47,18.47,0,0,1-.68-3.69c-.08.72.17,1.71-.05.59a6.34,6.34,0,0,1-.1-1.06c.08-.17.09.07.17-.11a27.78,27.78,0,0,1,.19-3.47c.08,0-.09.42,0,.49.21-.23.12-.84.3-1,0-.13-.08-.1-.14-.14.19-.38,0-.24.18-.66.05.11,0,.36,0,.42a21.17,21.17,0,0,1,1.45-3.08c-.05,0-.12.13-.19.23,0-.3.58-.77.79-1.24a12.09,12.09,0,0,0-1.68,2.45c-.46.82.45-1.1.66-1.34a11.92,11.92,0,0,1,2.47-2.8,17.65,17.65,0,0,1,3.3-2.23c-.42.4-1.68,1-2.34,1.62.27,0,1-.79,1.05-.56.26-.15.15-.26.52-.43,0,.07-.1.15-.09.21a2.75,2.75,0,0,1,.84-.48c-.06,0-.24.07-.37.14.18-.2,1.16-.65.88-.4a11.87,11.87,0,0,1,4.82-1,17.12,17.12,0,0,1,5.36.83c0-.12-.55-.19-.61-.3s.62.17.73.25c0-.12-.31-.25-.63-.37s-.69-.16-.91-.21c-.42-.13-.91-.14-1.42-.24a9.28,9.28,0,0,1,4.45,1.21c-.07,0-.26.05,0,.16-.28,0-.83-.41-1.25-.5.44.17.88.44,1.35.66a11.89,11.89,0,0,1,1.23.8c0-.11-.43-.26-.45-.37a16.59,16.59,0,0,1,3,2.61c.23.06.41,1,.57,1.25.27.46,1,1.12.71,1.52a.67.67,0,0,0-.15-.33c0,.16.18.5.12.67,0-.41.84,1.08.57,1.13a4.48,4.48,0,0,1,.34.65.48.48,0,0,1-.22-.21c-.05.16-.05.68.17.8.05.39-.18.42,0,1-.24.15-.28.55-.27,1-.12-.06-.09-.59-.2-.66,0,.42-.21.3-.19.72-.06,0-.1-.24,0-.25-.1-.16-.1.33-.21.37a3,3,0,0,1,.09.72c-.36-.88-.77-2.46-1.29-3.49a2,2,0,0,1,0-.57c-.08-.13-.17-.14-.25-.31-.05,0,.07.32-.08,0a2.92,2.92,0,0,0,.19.59c-.18.06-.5-.6-.74-1.06l-.59-.64A3.31,3.31,0,0,1,210,7c-.12,0-.24-.05-.36-.06a5.2,5.2,0,0,1,.59.64,3.47,3.47,0,0,0,.52.51c-.25,0,.08.29.16.51-.39-.26-.87-1.36-1.38-1.65.29.53-.75-.1-.93-.55-.05,0-.23,0-.42-.13.05,0,.12,0,.2.06a4.42,4.42,0,0,0-1.93-1.46c.12-.15.48.09.74.25a7.31,7.31,0,0,0-3.28-1.18,12.19,12.19,0,0,0-3.74.16c-.35.07-.72.09-1,.18s-.3,0-.46,0a11.62,11.62,0,0,0-2.51,1.29c-.06,0,0,0,0,0a11.5,11.5,0,0,0-2.46,2.52,8.9,8.9,0,0,1,3.93-3.49,6.16,6.16,0,0,0-2.94,2,10.1,10.1,0,0,0-1.51,1.93,10.12,10.12,0,0,0-.52,1.11,3,3,0,0,1-.37.87,10.71,10.71,0,0,0-.4,3.84,9.17,9.17,0,0,0,1,3.47c0-.15-.26-.66-.41-1.07a8.81,8.81,0,0,1,.55,1.16c.06.21.43.91.19.55s-.15-.41-.3-.57a3.76,3.76,0,0,0,1,1.64c.12.58,1.35,1.69,2.44,2.41a9.85,9.85,0,0,0,2.53,1.2,13.58,13.58,0,0,0,3,.52c.11,0-.07-.08.07-.08a2.24,2.24,0,0,1,.29.12c.11,0,.05-.14.28-.11,0,0-.08,0-.14.06.55.12,1.48-.16,1.9-.05a1.59,1.59,0,0,1,.8-.3,6,6,0,0,0,1.11-.4c.13.25-.26.22-.57.33a1.9,1.9,0,0,0,.86-.26l1-.48a5.29,5.29,0,0,0-1.18.45c.33-.44,1.3-.7,1.83-1.06-.25.06-.52.16-.81.24a2.56,2.56,0,0,1,.78-.32,1.47,1.47,0,0,0,.77-.42c-.27.42-.78.47-1.16.91a13,13,0,0,0,3.1-2.15c.17-.18,0-.19.16-.36,0,.24.27-.12.39-.22.05.08-.23.31-.34.44.1.15.28-.32.38-.32,0,.19-.3.38-.4.5.1.06.73-.38.83-.81.2.33.65-.51.77-.73.05.12-.19.5-.29.7.12-.06.21-.26.31-.32.21.2-.21.61-.21.85a7.36,7.36,0,0,0,.87-1.32c-.11,0-.2.39-.31.25.42-.48.76-1.4,1-1.33,0,.1,0,.06,0,0a4.78,4.78,0,0,1-.41,1,3.79,3.79,0,0,0-.48,1c.2-.08.17-.35.38-.71,0,.43.08-.07.2,0-.17.5-.36.5-.43.8.06.05.12,0,.08-.06a3.33,3.33,0,0,1-.57,1.5l-.56.87c-.19.28-.37.52-.49.73.21-.07.33-.48.57-.51-.17-.13.18-.21.43-.73C212.63,21.58,212.3,22,212.27,22.3Zm-.12-17.21c.17.2.17.56.39.64C212.38,5.53,212.36,5.15,212.15,5.09Zm-5.48-.46c-.3-.11-.47-.35-.67-.26C206.22,4.5,206.66,4.71,206.67,4.63Zm-7.53-.47a2.84,2.84,0,0,1,1-.22,2.29,2.29,0,0,0-1.37.3C198.9,4.2,199.12,4.28,199.14,4.16Zm5.48,23,0-.13c-.23,0-.63.16-.37.16C204.28,27,204.39,27.22,204.62,27.12Zm-2.74.11a2.45,2.45,0,0,0,1.08.08C202.57,27.12,202.38,27.32,201.88,27.23Zm3.25-.45c0-.11-1,.07-.86.13A1.58,1.58,0,0,0,205.13,26.78Zm-8.66-.9c-.35,0-.73-.44-.93-.29C196,25.86,196.47,26,196.47,25.88Zm14.1-2c.06-.05.1-.05.13,0,.33-.28.51-.64.83-.79C211.38,23,210.62,23.83,210.57,23.85Zm-12.75,2.5-1-.36c-.05.1-.22.07,0,.2C196.89,26,197.93,26.49,197.82,26.35Zm-3-1.32c0,.24.41.32.6.51C195.54,25.4,195,25.19,194.85,25ZM210.77,3.66c.36.24.55.65.73.61C211.32,4.09,210.67,3.46,210.77,3.66Zm3.1,5.15c-.1-.25-.28-.73-.42-.8C213.68,8.41,213.63,8.64,213.87,8.81Zm-.33-.14c-.06-.28.16.33.21.2a10.47,10.47,0,0,0-.57-1.12C213.33,8.05,213.32,8.49,213.54,8.67ZM197.71,22.78c.2.08.55.3.68.23C198.17,23,197.84,22.74,197.71,22.78ZM207.81,5c.1.09.32.18.19.25.15.11.38.27.56.38s.32.19.31.06C208.67,5.68,208.25,5.09,207.81,5Zm2.83,2.61c-.53-.69-.52-.32,0,0Zm-12.87-3c.17-.09.38-.18.35-.27-.17.12-.48.15-.45.22S197.76,4.48,197.77,4.54Zm11.61,2.4c-.06-.07,0-.07.06-.06-.13-.18-.45-.41-.47-.54.19.15.15,0,.29.21.15-.16-.47-.64-.61-.61.09.12.39.27.35.36-.24-.19-.06.14-.28,0C209,6.51,209.26,6.92,209.38,6.94ZM194.05,19.8c.14-.05.46.49.53.48C194.56,20.54,194.23,19.86,194.05,19.8ZM189.38,8.17c-.11-.17.17-.37.2-.66,0,0,.09,0,.13,0A2.57,2.57,0,0,1,189.38,8.17Zm22.06,15.46c0,.05-.05.09-.07.07a4.17,4.17,0,0,1-.7.69c0-.11.41-.38.17-.26-.07-.08.23-.23.28-.26s.1-.15.08-.2-.27.37-.2.07c-.27.18,0,.16-.22.33-.06-.15.24-.41.54-.69C211.31,23.55,211.3,23.69,211.44,23.63ZM188,13.91c.18,0,.25.3.26.77-.06.22,0-.79-.21-.67a17.08,17.08,0,0,0,.81,4.28c-.13.13-.25-.49-.34-.72,0,0,.08.11.09.18A16.68,16.68,0,0,1,188,13.91Zm26.55,3.26c-.25.68-.6,1.21-.22.33a4.32,4.32,0,0,0,.29-.79s0,0,0,.1.05,0,.07-.08c0,.33-.24.73-.37,1.15C214.26,17.68,214.54,17.48,214.55,17.17ZM203.3,0c.29-.06-.48.17-.67,0A3.07,3.07,0,0,1,203.3,0Zm11,9.8c0,.1,0,.15.09.16.08.24-.13.14-.1.32C214.28,10.3,214.19,9.77,214.34,9.81Zm-3.76,10.3c0,.29-.32.24-.5.49C210.12,20.37,210.44,20.34,210.58,20.11Zm-5.9,3c.09,0,0-.1,0-.08.33-.05.71-.25,1.13-.36-.07.17-.81.22-.66.44C205,23.15,204.34,23.07,204.68,23.08Z"/></g></g></svg>