<svg xmlns="http://www.w3.org/2000/svg" viewBox="0 0 2138.37 1086.01"><defs><style>.cls-1{fill:#8dcee2;stroke:#003245;stroke-miterlimit:10;stroke-width:0.5px;}.cls-2{fill:#003245;}</style></defs><g id="Layer_2" data-name="Layer 2"><g id="Layer_2-2" data-name="Layer 2"><rect class="cls-1" x="4.04" y="0.25" width="2129.39" height="261"/><rect class="cls-2" x="5.15" y="222.25" width="2129.39" height="858"/><path class="cls-2" d="M1048,1086c18.82,0,52.09,0,67.52-.11C1058.27,1085.8,953.7,1086,1048,1086Zm257.11-.17c6.15-.18,25.65-.2,47-.19-.12.06-1.92.1-4.85.13l-11.67,0Zm-325.16,0c-36.63.11-64,.1-108.34,0,12.12-.07,18.23-.23,33.35-.27C884.38,1086,969,1085.6,979.92,1085.85Zm399.24-.22c1.55-.18,25.09-.09,26.64-.27-2.08-.23-11.43.12-27.09,0,11.28-.15,24.11-.28,46.85-.28-7.35.11-5.55.18,7.13.17a5.42,5.42,0,0,1-1.3.11c-.83,0-2.06.06-3.6.09l-12.6.1Zm-609.69,0c-22.86.19-83.71.13-108.3,0C690.41,1085.42,733.22,1085.73,769.47,1085.65Zm250.36-.16c-6.71.11-70.73.24-67.9-.07Zm-7.28-.27c-5.47-.42,107.06-.08,162.17-.22C1124,1085.44,1067.7,1085,1012.55,1085.22Zm-602.41.29H369.51c-7-.31,26.41-.13,40.29-.19A3.51,3.51,0,0,1,410.14,1085.51Zm-68-.15-44.42.13-25.43,0c-6.84,0-11.37-.08-11.6-.17ZM.07,699c.31,22.18.21,88.19.22,135C.09,791.39.14,759.25.07,699Zm172-481.79c-9.17.51-72.16-.08-121.69.13.13,0,1.59,0,4.1-.06l10.46,0,33.63,0Zm142.17,0c-20.74.5-75.43.12-101.17.21C221,217,283.76,217.29,314.27,217.18ZM1491.39,1084.1c45-.39,91.92.26,142.17,0C1618.77,1084.48,1544.57,1084.07,1491.39,1084.1ZM.41,407c.17,16.22.21,43.79.2,74.12C.4,468.27.42,436.59.41,407Zm2134,676.79-67.86-.06C2073.32,1083.62,2137.33,1083.49,2134.42,1083.8Zm.59-118.64c.26,30,0,80.16,0,115.09C2134.66,1060.82,2135,998.21,2135,965.16Zm-763.77,112.93c-1.13-.16,7.92-.19,6.11-.35,27.09.32,73.71.37,109.51.58C1453.93,1078.58,1428.12,1078.21,1371.24,1078.09Zm330.93-.55c-9.05.08-46.28.18-67.71,0C1650.65,1077.31,1680,1077.43,1702.17,1077.54Zm-692-.47c-27.31.37-94.42-.13,0,0ZM2132.9,928.65c.18,5.47.1,46.92,0,54.16C2132.66,972.48,2133,952.07,2132.9,928.65ZM576.53,1077c16.89-.26,32.1-.1,60.73-.11C620.06,1077.08,595.2,1077.13,576.53,1077ZM2132.65,712.31c.2,11.21,0,51.64.11,74.31-.27-44.28-.38-62.65-.39-121.2.3,11.32,0,37.38.2,67.37C2132.67,731.51,2132.64,720.31,2132.65,712.31ZM265.06,1077.14c45.45-.39,92.42-.23,162-.32C379.09,1077.18,336.43,1077.07,265.06,1077.14ZM8,277c.43,33.16,0,97.7.14,148.81C7.84,386.19,8.1,346.66,8,277Zm994,799.39c-22.3.21-74.28.06-108.15.12C916.21,1076.28,968.19,1076.44,1002,1076.37ZM893.37,225.76c-13.31.42-43.79.15-80.91.2C817.26,225.82,863.84,225.55,893.37,225.76ZM1668,226.91c-17.89.21-65.27.05-94.64.12C1599.33,226.8,1633.7,226.85,1668,226.91Zm-1014.56.86c19-.08,17.76.11,34,.07C681.79,228,650.15,228.12,653.43,227.77Zm461.39,857.77c-26.87.19-46.29,0-81.11.12a1.38,1.38,0,0,1,.38,0l1,0,3.38,0,8.67,0c1.06-.07-2.83-.08-7-.08C1047.59,1085.34,1092.67,1085.4,1114.82,1085.54Zm349.63-1.34c-7.84-.08,3.74-.25-27.39-.17-.82.25,29.69.25-6.25.27,2.3.12,17.08.07,27.23.08-2.83.08-5.62.16-13.21.18,2.65.12,12,0,13.4-.1,21.5.3-27.2.46-46.36.55-16.86,0-2.56-.3-.72-.35-26,.07-38.59.15-41.11-.25,17.31,0,8.41.06,7.13.17,21.42,0,23.57-.17,47.22-.1-35.61-.49-168.16-.2-189.58.06-2.46.16-32.78-.29-47.42,0,5.58.23,22.22.3,47.94.25,9.32.18-63.71.07-87.85.12.42-.17,22.26-.07,19.81-.27-21.88-.07-20.9.14-26.6.27l-440.44,0c25.39.17-1.17.19-19.8.27-2.79-.15,5-.17,13.2-.18-5.43-.12-15.34-.12-24-.06s-16,.16-16.32.25c-12.4-.17-23.76-.14-47.71-.16-73.82-.08-45.57,0,40.24-.19-23.12-.2-74.38,0-108.48,0,9.28-.34,21.91-.24,40.44-.11-35.8-.82-171.26,0-264.88-.35,32.82.25,92,.13,142.55.13-12.22.3-27.24.07-54,.11,18.18.63,118.93-.19,143.23.48L.81,1084.59v-15.66c0-1.8,0-2.91.06-3.89.05-2,.1-3.41.11-8.77-.53-134.44.17-248.74,0-440.39-.33,4.71.05-22.86-.19-40.29.07-18.49.2,15.09.35,12.86C1.08,530.25.68,522.7,1,453.22c.07,33.87-.09,54.85,0,74.46V263.44c-.2,50.1,0,120.71-.16,41C.86,284.34.75,263.55.79,230.1c0-1.94,0-3.3.06-4.22,0-1.25,0-1.92.05-2.19,0-.53,0,.5.07,1.53,0,2.08.09,4,.17-6.27v-.71l133.24-.16c39.65-.06,76.63-.14,113.24-.35-1.39.18-29.69,0-33.5.18,19,.3,58.62-.18,74.62.07,9.16,0,5.2-.23,6.11-.36,29.54.1,16.44-.1,47.23-.1-5.85.16-24.64.15-26.41.36,71.07,0,155.57.15,237-.08-1.32-.1-12.45-.07-20.49-.08,15.7-.33,66.47.12,101.4-.12-35.79-.34-147.56,0-203.81-.28-63.56-.11,80.65-.13,101.39-.13,167.6.05,337.24.51,529.13.36-38.18.41-134.86.11-196,.24,15,.32,87.25-.1,81.93.32,21,0,18.82-.28,47-.19-2.15.12-11.62.14-13,.27,28.52-.12,36.4-.05,67.71,0-2.3-.12-17.09-.07-27.23-.08,17.57-.17,92.42-.16,67.86.06,208.07-.08,477.85.81,739.34.46-4.61-.2-41.61,0-47.72-.16-13.43-.06,44.93-.07,54.17,0-11.13-.38-84.2-.22-115.62-.22l-101.54,0c95.43-.44,202.37-.26,324.63-.28-4,.08-15.13.33,7.31.26-17.87.21-65.25.05-94.64.12l210.41.19c-3.24-.19-35.95,0-41-.16l114.42.07c0,71.11,0,144.53,0,177.92.22,13.58-.59,72.95-.67,96.15-.12,39.46.44,105.59-.39,122.7.06-6.14.09-15.46.07-27.23-.22,10-.18,39.35-.42,48.25.35-26,.57,98.64.12,94.6.18,23.7.11,31.13.19,53.83-.12-3.54-.21-10.11-.27-19.8-.21,9.69-.52,47.75-.15,61.26-.08,29.23-.59,27.24-.41,75.37-.53,7.88-.74,38.51-.86,76.19-.21-5.43,0-47.19-.19-53.82-.2,32.7-.52,21.42-.6,55.37-.05-.68-.08-5.67-.08-10.55,0-2.43,0-4.83,0-6.65s0-3,.07-3.13c-.15-14.3-.31,25.57-.52,28.1.21,34.25,0,34.44.11,60.77-.77-73.74-1-215.43-1.16-316.18.1-17.31.14-38.67.34-48.06,0-12.82-.2-16.67-.19-33.54-.12,1.63-.15,28.45-.17.38-.07,13.36-.25,51.65-.16,54.47-.19-.81-.3-17.77-.36-40.35s0-50.78,0-74.06c-.18-51.52-.59-100.41-.41-168.57-.15-9.1-.31-18.64-.44-26.22.13,49.68,0,116.75.4,148.25-.41-14.75-.16,26.4-.25,47.94-.45-39.87,0-150.66-.33-202.64-.25,57.15-1-56.21-.56-100.49-.07-.23-.13-4.68-.2-11.84s-.1-17.05-.16-28.14c.11,2.78.18,8.33.18,20,.06-12.36.13-26.86.21-43l-87.63-.08-100.07,0c3.59-.36,44.33-.26,74-.29-190.49-.27-475.4.57-703.62.49l-101.92-.14c-21,0-26.82-.23-41.3-.34l-271.18-.08c-7.66,0-3.58.09.19.08l-338.89-.06,508-.08c-88.84-.53-216.3-.21-339.23-.24l-230.52-.1c-76.39,0-162.66.24-203.28,0L7.86,225c0,141.44,0,267.55.08,411.21.12-14.52.06-67,.06-108.46.15,15,.16,74.25.12,121.69,0,20.72-.09,95.18-.16,54.51-.06-31.38.11-41.11,0-61C7.8,724.66,7.81,797,8,825.76c-.16,20.26-.19,57.45-.18,102.79,0,44.51.07,97,.1,148.93l68.08,0H624.77c10.56,0-6.22-.15,6.45-.18l27.58.25c10.56,0,5.24-.27,26.74-.18l-.37,0-1,0-3.37,0-8.65,0c50.51.25,140.1,0,176.91.38,21.28-.44,126.94,0,189.41-.15,1.42.57-30.37.18-60.59.2,71,.39,86.73.05,183.48.29-31.61-.2-64.81-.38-115.8-.31,45.26-.54,138.36-.09,196.52,0l-75.47-.5c52.88-.15,100.07.82,157.07.65-43.5.25-83.52-.25-135.43,0,110.87.52,230.86.46,334.18,1.12,21,.06,12.52-.24,33.53-.18-17.46.26,22.08.29,34.67.42-3.28.16-32.82-.08-47.53-.07-5.58.35,35.84.05,41.15.25-11.84.24-41,0-54.35-.07.22,0,4.14.13,10.45.2l24.75.21c19.49.13,43.22.2,60.58.08-14.9.67,62.23.59,82.61.68-6.8.2-42.48,0-60.73.11l34.36.25c-6.41.51-50.47.22-66.85.46l122.56.31c-4.6-.18-34.25,0-27.76-.34l79.76.35,31.21.2,9.23.13,2.49.07a4.81,4.81,0,0,1,.88.08c-7.65,0-3.58.09.16.09-53.35.14-103.14-.38-162.81-.12,12.6.29,29.61,0,61.11.07-29.8.33,7.39.08,7.43.35-39.08.14-45.61-.22-67.86-.07-1.59.16,6.75.18,6.9.09-39.72.68-188.2.49-255.56,1,14,.19,41.94-.17,54.54.15-.2-.22,4.83-.21,15-.18s25.39.1,45.6,0C1520.36,1083.89,1482.52,1083.8,1464.45,1084.2ZM2138,417.33c0,19.05-.41,39.57-.16,54.51C2137.82,453,2138.23,430.79,2138,417.33Zm-182.3-192.27c-30.29.07-53.64-.22-67.52.11C1912.23,225.22,1958.74,225.22,1955.69,225.06Zm-737.49.5c-1-.08,18.58-.09,41.3-.06l60.43.12c-23.92-.28-100.94-.3-135.72-.13C1194.32,225.48,1212.5,225.8,1218.2,225.56ZM822.13,1084.85l-.52-.27c-15.51-.06-45.12.12-26.75.19C800.25,1084.51,805.42,1085,822.13,1084.85Zm-190.27-.29c24.22.09,34.78.37,75,.24C680.45,1084.39,666.49,1084.74,631.86,1084.56Zm230-.16c1.81-.26-71.59-.28-61.11-.07C815.38,1084.43,851,1084.52,861.89,1084.4Zm-623.57-.15c-22.15.27-59.45-.17-67.19.28C209.05,1084.6,243.22,1084.53,238.32,1084.25ZM1301.5,1084c5.31,0,8,.07,7.09.17,30.55,0,57.33-.26,81.25,0C1386.37,1083.79,1305.19,1084,1301.5,1084Zm-961.78.14-74.51,0c-.42.22-12.41.28,7.43.35C268.91,1084.11,350.12,1084.32,339.72,1084.13Zm-230,.16c10.91.36,36.67.12,54.66.25.16-.09-2.42-.13-6.58-.16l-16,0C129.53,1084.35,115.7,1084.37,109.68,1084.29ZM2138,275c.13,30.22-.24,60.73.11,67.56C2138.1,324.39,2138.2,260,2138,275Zm-.91,442.17c-.06-20.48.1-58.58-.11-67.56C2137.08,683.65,2136.76,698.09,2137.12,717.14Zm-.53-19.31c.12-21.88,0,27.61.27,19.8-.15-37,.06-67-.12-94.61C2136.76,648.45,2136.35,677.84,2136.59,697.83ZM225.3,1077.59c20.48-.06,58.55.09,67.52-.11C272.34,1077.54,234.32,1077.39,225.3,1077.59ZM2063,224.5c12.07,0,33.76-.1,27.46.16l41.72,0c0,13.36.08,26,.11,34.06,0,8.6.13,12.26.24,6.77-.07-2.92-.11-8.6-.12-16.12,0-6.92,0-15.52,0-25l-34.48,0C2085.52,224.37,2073.39,224.4,2063,224.5Zm69.61,277.93c0-78.46-.46-51.07,0,0ZM1082.1,225.26l26.76,0,9.63-.05c2.39,0,3.82-.06,3.9-.12-9.49.05-21.18,0-30.57,0L1080,225c-3,0-4.84,0-5,.05C1080.28,225.1,1083,225.16,1082.1,225.26ZM2131.4,382.78c0-8.23.1-4.34.18-.34.05-20.71-.13-58.09.06-67.9.05,23.09.24,8.18.1,33.72.05-.09.09-1.3.13-3.36s.05-5,.08-8.44c0-7,0-16.3.06-25.88,0-19.14-.08-39.31-.21-43.76,0,14.15.13,44.29-.07,47.57,0-28.33-.28,4.53-.36-19.65C2131.33,325.07,2131.25,374.11,2131.4,382.78ZM7.93,853c.32,5,.09,63.59.19,67.37C7.73,937.15,8.18,868.68,7.93,853ZM390,217.77c7.81-.34,27.81,0,47.08-.19-.9.1,1.77.15,7.09.17C436.76,217.88,415.18,217.8,390,217.77Zm967.38,867.08c-.55.05-2.22.06-3.76.06s-3,0-3-.06c-17.61.1-41.34.12-67.52.11,2.19-.26,38.36,0,20-.18.6-.22,22.85,0,27.08,0,6,0,12-.08,13.2-.18-.87-.17-31.23.16-13.88-.17-22.1-.1-4.6.28-26.74.18,3.77-.29,31.95-.29,60.42-.28C1354,1084.55,1347.48,1084.75,1357.36,1084.85ZM.1,245a23,23,0,0,1,.23,3.87c.06,2.47.11,6.07.14,10.68.08,9.22.1,22.47.08,38.74-.16,14.71,0-54.24-.36-46.7.19,130.82,0,172.92,0,298.12-.35,4.79-.12-37-.2-53.87.06-.3.11,8.6.1,13.39Zm1869.26,838.32c-52.7-.13-98.46-.33-27.62-.25,19.43,0,33.24.19,61.3.16,1.4.07-2.49.08-6.6.09-1.09.07,2.79.08,6.94.08-22.44.24-56-.13-88.19-.06C1827.19,1083.11,1847.55,1083.47,1869.36,1083.36ZM1589.6,218c19.43-.16-32.93.39-47.26.1C1554.33,218,1563.05,218.06,1589.6,218Zm547.73,580c0,7.92,0,12,.09,13.39,0,18.59-.33,7-.35,21,0,0,0-.71,0-1.83s0-2.69,0-4.54c0-3.71,0-8.56,0-13.21C2137.1,803.54,2137.19,795,2137.33,798ZM1515,1078.83c-20.75.31-33.76-.25-61.34-.15C1471.92,1078.41,1491.73,1078.87,1515,1078.83ZM901.69,1077c8.44,0,6.49-.18-.34-.18l115.28.05c-12,.28-81.26-.14-73.83.38C927.07,1077.25,869.85,1076.85,901.69,1077Z"/><path class="cls-2" d="M439.06,125.71l18.66-22.65a112.94,112.94,0,0,1-30.9,11.28"/><path class="cls-2" d="M444.05,115.13a2,2,0,0,0-.41.58C444.06,115.28,444.68,114.38,444.05,115.13Zm-1.64,2.13c0,.1-.09.27-.24.44C442.08,117.61,442.29,117.42,442.41,117.26Zm2.15-2.63a5.28,5.28,0,0,1,.7-.88c-.05.12,0,.22-.11.35C445.13,113.81,444.73,114.62,444.56,114.63ZM442,117.92c.05.07-.14.23-.08.3s0-.13.18-.22a.82.82,0,0,1-.2.46c0-.09,0-.1-.12,0C441.65,118.36,441.85,118.13,442,117.92Zm4-4.92a3.13,3.13,0,0,1,.71-.88C446.65,112.44,446.24,112.68,446,113Zm-1.59,2.07c0-.09.37-.65.47-.53C444.74,114.81,444.6,114.84,444.44,115.07Zm.14,0c.21.1-.67.89-1,1.38C443.76,115.92,444.31,115.61,444.58,115.09Zm3.89-4.94.27-.33c.16,0-.13.25-.2.38Zm.51-.5c0-.12.43-.73.57-.64Zm4.78-5.78c0,.28-.51.78-.81,1.16A8.07,8.07,0,0,1,453.76,103.87Zm1.91,3.09c0-.27.7-.31,1.13-.65C456.83,106.4,456,106.76,455.67,107Zm-1.35.69c.09-.33.7-.4.92-.57C455.26,107.3,454.59,107.46,454.32,107.65Zm-12.48,11.66c-.15.49-.71.66-.93,1.16C440.85,120.21,441.5,119.75,441.84,119.31Zm14-17.68a2,2,0,0,1-.42.66A1.65,1.65,0,0,1,455.83,101.63Zm-18.14,23c.21-.17.23-.32.47-.52C438.16,124.15,437.79,124.71,437.69,124.58ZM428,114.32a3.86,3.86,0,0,1-1.17.27C427,114.36,427.71,114.39,428,114.32ZM445,120.25c.07,0,0,.12.09.16a6.76,6.76,0,0,0-.95.7C444.22,120.76,444.53,120.67,445,120.25Zm-2,2.84a1.38,1.38,0,0,1,.44-.55C443.41,122.75,443.16,123,443,123.09Zm4.78-5.42c0-.34.67-.72,0,0Zm-19.56-4.46c0,.1-.47.15-.55.12C427.72,113.19,428,113.32,428.19,113.21Zm22.45,1c0,.22-.18.29-.36.53A1.12,1.12,0,0,1,450.64,114.18Zm-20.3-1.6c-.09.13-.51.15-.73.23a3.75,3.75,0,0,1,1.17-.48c-.08.18-.37.11-.65.26C430.15,112.64,430.26,112.6,430.34,112.58Zm22.32-.94a5.44,5.44,0,0,1-1,1.41A6,6,0,0,1,452.66,111.64Zm3.28-9.25c.16-.29.65-.43,1.07-.63l6.69-3.32L458.86,104a2,2,0,0,0-.18.23,1.38,1.38,0,0,1,.14-.27l4.06-6.06L457,101.8C456.76,102,456.4,102.1,455.94,102.39Zm-7.87,15.43a6.13,6.13,0,0,1,.67-.91A5.24,5.24,0,0,1,448.07,117.82Zm-1-11.58c0-.25.38-.24.72-.42A1.07,1.07,0,0,1,447,106.24Zm-7.63,2.27c.14-.15.63-.23.9-.37A2,2,0,0,1,439.4,108.51Zm9.48-4.17c-.16.12-.19,0-.33.11C448.56,104.34,448.84,104.17,448.88,104.34Zm-5.1,11.48c.11-.28.29-.39.5-.69,0,0,0,.09-.06.13s0,0,.08,0S444,115.68,443.78,115.82Zm-1.8,3.24c.08,0,.07.11.25-.17-.09-.08-.29.16-.06-.13-.06,0-.14.11-.21.19a.16.16,0,0,1,0-.16c-.06,0-.08.09-.05.14-.26.07,0-.37.1-.55s.13.07.14.11c.14-.24.2-.36.37-.26-.11.15-.08,0-.12,0-.15.16-.09.24-.27.41a3.44,3.44,0,0,0,1.23-1.55c0-.07.33-.17.31-.38-.12,0-.26.08-.41.3-.13,0,.4-.53.54-.74.06,0-.12.2,0,.24.17-.15.08-.21.07-.3,1-1.22,1.79-2.24,2.94-3.53-.24.15-.07-.08,0-.25.08,0,0,.09,0,.16.17,0,.26-.32.2-.38.15,0,.21-.15.38-.33.52-.57.28-.39-.2.38.23-.12.5-.6.74-.86.07.18-.05.26-.23.36.56,0,1.15-1.37,1.9-2a5.93,5.93,0,0,0-1,1.11c0-.2.16-.24.32-.47-.36-.06-.72,1-1.14,1,1.36-1.54,2.6-2.81,3.77-4.24.08-.13.13,0,.21-.11.69-1.25,1.71-2,2.93-3.54-.16-.06.17-.16.19-.38s0,.18.06.21c.35-.49.24-.68.84-1.13-.2.3-.4.42-.48.61.27-.29.58-.65.89-1l2.5,3c-.46.24-.91.5-1.24.69.51-.16,1.13-.6.42-.13a3.59,3.59,0,0,1-.67.42c-.16,0,0-.1-.15-.12a17.06,17.06,0,0,0-2.19,1.4c0-.09.28-.15.28-.24-.25,0-.52.36-.73.32s0,.12,0,.19c-.31.09-.14.12-.43.26,0-.09.2-.18.17-.28-.67.35-1.52.65-2.26,1.11,0,0,.13,0,.21-.06-.08.22-.66.25-1,.51.41,0,1.42-.67,2-.78s-.75.42-1,.51c-1.63.73-3.38,1.23-5.25,2.07a10.13,10.13,0,0,1,1.89-.91c-.21-.08-.84.4-.87.19-.21.08-.13.21-.42.28,0-.06.08-.11.07-.18a2.49,2.49,0,0,1-.66.29s.18,0,.28-.07c-.14.14-.88.43-.68.23-2,.86-4.87,1.44-7.46,2.45.08.08.42-.15.51-.08s-.44.18-.54.18c.17.15.88-.17,1.2-.28s.64-.25,1-.35a15.63,15.63,0,0,1-3.23,1.2c0-.05.1-.21-.12-.1.16-.16.66-.23.95-.36-.69.15-1.49.45-2.17.57.06.08.37-.12.44-.05-.86.26-2.4.58-2.91.79-.11.15-.83-.08-1.07,0-.42,0-1,.49-1.31.13a.66.66,0,0,0,.29,0c-.13-.08-.43,0-.55-.08.31.11-.94.54-.95.3a2.38,2.38,0,0,1-.53.22.28.28,0,0,1,.17-.17c-.12-.09-.55-.15-.65.07-.3,0-.34-.22-.81,0-.14-.24-.48-.28-.88-.25,0-.12.49-.1.53-.22-.35,0-.27-.2-.63-.16,0-.06.19-.11.21,0,.13-.1-.29-.09-.34-.19-.33.18-.35.09-.61.18a12.09,12.09,0,0,1,3.08-1.28,1.1,1.1,0,0,1,.53,0c.12-.06.14-.14.31-.18,0-.05-.3,0,0-.09-.15,0-.55,0-.57.06,0-.18.63-.38,1.1-.47a5.19,5.19,0,0,1,1.63-.64,2.64,2.64,0,0,0,.21-.29,6.29,6.29,0,0,0-1.43.59c.1-.24-.28,0-.51,0,.34-.32,1.5-.4,2-.69-.6,0,.41-.66.92-.55,0-.06.14-.18.34-.29,0,.06-.05.12-.17.15a8.18,8.18,0,0,0,2.38-.57c0,.18-.4.26-.69.36,1.92-.44,4.57-1.76,6.77-2.56.34-.12.72-.17,1-.3s.3,0,.45,0c1.06-.45,1.63-.62,2.61-1,.07,0,0,0,0,0,.93-.44,2.33-1,3.21-1.37a43.32,43.32,0,0,1-4.79,2.09,13.28,13.28,0,0,0,3.26-1.24c.75-.32,1.5-.62,2.19-.93a12.84,12.84,0,0,1,1.9-.89c1.62-.83,2.93-1.51,4.26-2.22l6-3.24-4.33,5.29c-.5.62-1,1.25-1.55,2A5.29,5.29,0,0,0,458,105a4.61,4.61,0,0,1-.76,1c-.14.17-.66.74-.42.39s.32-.29.4-.49a6.14,6.14,0,0,0-1.19,1.49,19.86,19.86,0,0,0-2.19,2.6c-1.12,1.32-2.27,2.93-3.64,4.42,0,.09.1,0,0,.11a1.46,1.46,0,0,1-.28.14c-.06.1.07.13-.11.27,0,0,0-.09.06-.13-.43.33-.92,1.14-1.32,1.3,0,.31-.84,1-1.2,1.57-.23-.16.13-.3.32-.55-.62.45-.59.69-1.33,1.39a3,3,0,0,0,.89-.83c-.09.53-.88,1.14-1.31,1.57a3.86,3.86,0,0,0,.69-.45c-.29.47-1,.55-1.29,1.06.19-.43.65-.59.88-1.1-.93.72-1.7,1.71-2.65,2.33-.16.15,0,.18-.15.33,0-.22-.26.08-.39.15s.25-.24.34-.36c-.09-.16-.26.27-.37.25s.29-.32.39-.42c-.09-.06-.68.26-.83.62-.15-.33-.64.31-.8.45,0-.12.26-.36.36-.53-.11,0-.22.17-.33.2-.15-.21.25-.48.27-.68a10.71,10.71,0,0,0-.94.88c.1,0,.24-.27.32-.11-.43.3-1,.87-1.14.73,0-.07,0-.06,0,0,.3-.47.83-.71,1.13-1.27-.2,0-.2.24-.43.47.07-.35-.08,0-.19,0,.21-.36.39-.3.48-.53,0-.06-.11,0-.08,0,0-.53,1.06-1.67,1.33-2.36-.17,0-.22.39-.43.39.18.13-.14.15-.32.55C441.73,119.61,442,119.33,442,119.06Zm-8-4.66c-.19.06-.46-.09-.58.07C433.61,114.42,433.89,114.55,434,114.4Zm2.88-4.1c.29-.12.56-.06.65-.26C437.28,110.09,436.82,110.23,436.88,110.3Zm7.09-2.72c0,.07-.75.29-1,.34a2.85,2.85,0,0,0,1.33-.43C444.21,107.53,444,107.45,444,107.58Zm2,6.1.11.08c.13-.11.25-.4.1-.27C446.27,113.61,446.06,113.51,446,113.68Zm1.38-1.44c-.2.17-.38.16-.59.53C447.11,112.68,447.07,112.46,447.37,112.24Zm-1.47,1.9c.09.1.58-.49.43-.47A1.45,1.45,0,0,0,445.9,114.14Zm4.2-5c0-.27.46-.43.33-.63C450.16,108.82,450,109.12,450.1,109.17Zm-7,8.64s-.08,0-.11,0c-.22.23-.28.54-.53.66C442.66,118.56,443.1,117.83,443.14,117.81Zm6.33-7.79.49-.61c-.09-.07,0-.18-.19,0C450,109.46,449.33,110.05,449.47,110Zm1.46-1.9c-.21,0-.28.26-.45.36C450.6,108.59,450.79,108.16,450.93,108.12ZM435.46,114c-.29.16-.66.06-.68.25C435,114.19,435.63,114.05,435.46,114Zm-4.64.76c.2-.08.61-.1.68-.23C431.16,114.67,431,114.55,430.82,114.77Zm.14-.31c.23,0-.28.09-.18.18.37-.16.7-.14,1-.3C431.48,114.41,431.13,114.3,431,114.46Zm21.79-3.28c-.11.18-.42.44-.4.58C452.46,111.57,452.77,111.32,452.75,111.18Zm-16.85-.29c-.12,0-.32.15-.3,0-.33.11-1,.32-.81.44C434.87,111.13,435.56,111.18,435.9,110.89ZM432.44,112c.78-.22.45-.36,0,0Zm12.89-4.81c-.17.07-.39.13-.35.24.16-.12.47-.12.45-.19S445.34,107.26,445.33,107.21Zm-11.85,3.91c.08,0,0,0,0,.09.22,0,.56-.22.69-.16-.23.09-.05.14-.32.14.06.19.76,0,.81-.19-.14,0-.42.18-.48.1.28-.1-.08-.13.15-.23A2.71,2.71,0,0,0,433.48,111.12Zm22.29-3.51c.09.15-.39.54-.37.61C455.13,108.23,455.76,107.82,455.77,107.61Zm-2.3.12c0,.19-.27.13-.42.31a.07.07,0,0,0-.1-.05C453,107.9,453.22,107.84,453.47,107.73Zm-11,10.26s0-.07.05,0a2.53,2.53,0,0,1,.4-.58c.09.1-.23.32-.06.22.08.07-.14.19-.18.22s0,.12,0,.16.15-.3.16-.06c.19-.14-.08-.13.11-.27.09.12-.1.35-.29.58C442.58,118.06,442.55,117.94,442.44,118Zm15-11.94c-.08-.17.08-.32.39-.47s-.5.27-.35.39c.57-.35,1-.57,1.35-.77l-3-3.69-1,1.2c-.17-.07.2-.33.28-.49,0,0,0,.1-.05.13a10.52,10.52,0,0,0,.75-.88l3.13,3.8C458.45,105.53,457.94,105.82,457.48,106.05Zm-17.86,16.54c.4-.39.78-.69.28-.14a2.61,2.61,0,0,0-.47.44s0,0,0-.08-.05,0-.08,0c.06-.26.43-.41.61-.69C440,122.33,439.72,122.38,439.62,122.59Zm2-10.12c-.17.14.27-.3.46-.22C442,112.36,441.88,112.34,441.62,112.47ZM430,115.06c-.08,0-.12,0-.13.08-.18.07-.1-.14-.25-.12S430,114.92,430,115.06Zm13.71,6.11c0-.26.32-.19.46-.44C444.17,121,443.86,121,443.72,121.17Zm4.77-4.36c-.05.08,0,.11.07,0-.22.26-.49.6-.79.92,0-.19.6-.61.35-.72C448.23,116.94,448.76,116.61,448.49,116.81Z"/><path class="cls-2" d="M417.67,115.6a14.06,14.06,0,0,1-12.91-24.84,14.06,14.06,0,0,1,17.39,21.94"/><path class="cls-2" d="M401.74,115.57a4,4,0,0,0,.93.63C401.93,115.62,400.52,114.6,401.74,115.57Zm3.64,2.12a1.73,1.73,0,0,1,.75.21C406.07,118,405.67,117.81,405.38,117.69Zm-4.45-2.9a6.13,6.13,0,0,1-1.28-1.27,4.93,4.93,0,0,1,.47.32C399.73,113.75,400.87,114.59,400.93,114.79Zm5.6,3.28c.05-.07.4.09.45,0s-.2,0-.41-.14a2.53,2.53,0,0,1,.76.11c-.13,0-.11.06.08.12C407.36,118.33,406.91,118.19,406.53,118.07Zm-7.86-5.95a5.09,5.09,0,0,1-1-1.52C398.06,111,398.26,111.67,398.67,112.12Zm2.87,3c-.13,0-.94-.69-.8-.77C401.13,114.62,401.19,114.82,401.54,115.09Zm0-.18c.07-.22,1.37,1.06,2.19,1.43A9.79,9.79,0,0,1,401.53,114.91Zm-5.24-8.24-.16-.66c.13-.14.16.41.24.63Zm-.15-1.11c-.08-.17-.31-1.3-.14-1.33C396.06,104.9,396.08,105,396.14,105.56Zm2-11.22a19.09,19.09,0,0,1-.83,2A9,9,0,0,1,398.14,94.34Zm7.7-7c0,.3-1.12.41-1.77,1a2.54,2.54,0,0,1,.67-.44Zm2.2-.75c-.27.3-1.16.41-1.54.59C406.55,87,407.57,86.77,408,86.63Zm.42,31.26c.72,0,1.37.46,2.18.39a1.52,1.52,0,0,1-.89,0C409.34,118.13,408.87,118,408.46,117.89Zm-7.34-27.22a5.42,5.42,0,0,1-.75,1A3.64,3.64,0,0,1,401.12,90.67Zm17.21,26.58c-.4.08-.54.22-1,.32C417.4,117.48,418.32,117.09,418.33,117.25Zm5.07-5.58c-.14.42-.75.84-1.07,1.21C422.37,112.53,423.13,112.05,423.4,111.67Zm-15.63,2.83c0-.08.13,0,.14-.13a6.44,6.44,0,0,0,1.24.71C408.71,115.08,408.43,114.81,407.77,114.5Zm4.14.64a1.6,1.6,0,0,1-.84-.07A1.56,1.56,0,0,1,411.91,115.14Zm-7.77-3.36c-.37-.09-.81-.83,0,0Zm18.72-1.15c0,.11-.32.51-.41.56C422.43,111,422.73,110.91,422.86,110.63Zm-21.82-3c.2.14.2.33.35.64A1.43,1.43,0,0,1,401,107.6Zm23.13.56c0,.18-.28.61-.38.89a9.63,9.63,0,0,1,.47-1.5c.08.19-.14.46-.25.83C424.06,108.39,424.11,108.25,424.17,108.16Zm-24.1-4.2a16.73,16.73,0,0,1,.49,1.91,2.92,2.92,0,0,1-.32-.82C400.19,104.74,400.14,104.39,400.07,104ZM405,92.35c-.2.39-.91.76-1.32,1.24a1.64,1.64,0,0,1,.51-.58Zm-.7,19.1a4.8,4.8,0,0,1-1-.85C403.56,110.74,404,111.19,404.29,111.45ZM416.05,91c-.22.17-.52-.1-1-.15A1.35,1.35,0,0,1,416.05,91Zm6.58,5.89c-.21-.12-.37-.64-.6-.88C422.31,96.15,422.45,96.53,422.63,96.87Zm-9.53-5.42c.22,0,.2.08.38.08C413.41,91.61,413.05,91.61,413.1,91.45Zm-10.34,24.6a7.33,7.33,0,0,1-1.1-.76s.13.06.21.1,0-.06-.07-.1A4.11,4.11,0,0,1,402.76,116.05Zm5.29,1.77c-.11-.08.09-.1-.39-.21-.05.11.41.25-.13.09,0,.07.25.12.4.17a.28.28,0,0,1-.23,0c0,.07.18.06.22,0,.28.25-.48.09-.79,0s0-.16.05-.17c-.4-.09-.6-.14-.56-.34.25.1.11.08.07.12.31.15.38,0,.72.2a13.72,13.72,0,0,0-2.75-1.15c-.07,0-.39-.35-.66-.36,0,.15.23.32.61.48,0,.07-.19,0-.47-.19l-.77-.47c.05-.07.32.16.34.05-.27-.21-.32-.11-.43-.11a14.71,14.71,0,0,1-4.92-5.05c.14.4-.09,0-.28-.21,0-.08.11,0,.19.14,0-.22-.34-.56-.42-.53a3.28,3.28,0,0,0-.27-.74c-.46-1.12-.34-.66.36.55-.08-.38-.52-1.09-.7-1.62.2.09.25.28.3.59a5,5,0,0,0-.44-1.74,8.19,8.19,0,0,1-.51-2.38,7.58,7.58,0,0,0,.38,2.23c-.19-.15-.13-.42-.25-.83a1.7,1.7,0,0,0,.17,1.11,2.24,2.24,0,0,1,.27,1.18,16.43,16.43,0,0,1-.88-4.41,20.83,20.83,0,0,1,.25-4.18c0-.23.09-.14.13-.3.17-2.13,1-3.8,2.57-6.37-.18,0,.2-.3.28-.58s-.06.25,0,.26c.52-.74.39-1,1.29-1.7a6.58,6.58,0,0,0-.76.9,19.18,19.18,0,0,1,3-2.89c-.73.37-1.5,1.21-.58.32a8.72,8.72,0,0,1,.94-.75c.21,0,0,.12.19.08a25.27,25.27,0,0,1,3.42-1.89c0,.09-.45.17-.48.26.34,0,.86-.39,1.15-.35.13,0,.05-.12,0-.19.48-.06.25-.11.73-.22-.07.09-.37.16-.37.27a24.31,24.31,0,0,1,3.72-.53s-.19,0-.32,0c.25-.2,1.05,0,1.61,0a15.28,15.28,0,0,0-3.26,0c-.52.05-.2,0,.3-.09a10.79,10.79,0,0,1,1.32-.11,17.22,17.22,0,0,1,2,.07c.68.12,1.36.18,2,.37A22.15,22.15,0,0,1,419.71,88c-.62-.11-2-.79-3-1,.18.22,1.34.34,1.18.53.31.12.33,0,.73.18-.05,0-.2,0-.24,0a3.68,3.68,0,0,1,1,.4c0-.07-.22-.16-.37-.21.29,0,1.35.57,1,.49a13.41,13.41,0,0,1,4.28,3.45,18.2,18.2,0,0,1,3,5.31c.08-.11-.22-.61-.17-.74s.27.66.29.8a1.53,1.53,0,0,0-.14-.79c-.13-.35-.32-.72-.42-.94-.19-.46-.5-.91-.77-1.43a11.23,11.23,0,0,1,2,4.74c-.06-.06-.22-.2-.1.14-.18-.25-.24-1-.43-1.43.14.5.24,1.07.37,1.62s.16,1.12.18,1.61c.1-.06-.08-.55,0-.64a21.41,21.41,0,0,1,0,4.41c.1.23-.47,1.07-.58,1.4-.15.58-.22,1.62-.67,1.75a1.05,1.05,0,0,0,.15-.39c-.14.12-.26.54-.43.62.31-.31-.26,1.5-.48,1.34a6.36,6.36,0,0,1-.27.77.47.47,0,0,1,0-.33c-.16.08-.55.51-.51.76-.27.36-.45.2-.77.84-.29-.06-.64.23-1,.62,0-.13.41-.53.39-.67-.36.31-.39.09-.71.44,0,0,.12-.26.17-.23.06-.2-.33.19-.43.15-.24.41-.31.35-.53.64a39.46,39.46,0,0,0,1.91-3.8c.15-.18.27-.43.4-.51s0-.25.08-.45c-.07,0-.21.32-.09,0a3,3,0,0,0-.33.64c-.18-.11.14-.89.33-1.46a16.26,16.26,0,0,1,.29-2.15,2.42,2.42,0,0,0-.19-.36,5.16,5.16,0,0,1-.1,1,3.93,3.93,0,0,0-.05.86c-.15-.23-.17.3-.29.55-.06-.54.48-1.84.36-2.51-.21.67-.4-.74-.19-1.26-.06,0-.13-.22-.16-.49.05,0,.08.1.08.25a6.36,6.36,0,0,0-.15-2.89c.2,0,.23.51.3.87a9.47,9.47,0,0,0-1.3-3.89,13,13,0,0,0-2.82-3.29c-.33-.25-.62-.59-.93-.79s-.21-.26-.34-.4a15.48,15.48,0,0,0-3-1.41c-.09,0-.05,0,0,0A15.7,15.7,0,0,0,412,90.2a12.25,12.25,0,0,1,6.1,1.33,8.52,8.52,0,0,0-4-1.34,13.57,13.57,0,0,0-2.89-.16,10.79,10.79,0,0,0-1.42.21,5.12,5.12,0,0,1-1.08.19,11.9,11.9,0,0,0-4,2A11.4,11.4,0,0,0,402,95.57a3,3,0,0,0,.32-.44c.15-.2.32-.44.48-.64-.05.2-.51.76-.81,1.27-.17.2-.62,1-.42.54s.31-.41.38-.66a5.38,5.38,0,0,0-1,2c-.46.48-.87,2.39-1,3.93a13.51,13.51,0,0,0,1.17,6.61c.07.11,0-.11.11,0s0,.09.05.35c.08.1.15,0,.24.24,0,0-.08-.07-.12-.12.19.61.95,1.43,1.1,1.9.17,0,.43.33.73.67a7.22,7.22,0,0,0,1,.93c-.16.23-.36-.16-.64-.42a2.72,2.72,0,0,0,.74.74c.25.2.54.4,1,.78a7.84,7.84,0,0,0-1.11-1,13.13,13.13,0,0,1,2.08,1.36c-.2-.22-.45-.43-.7-.68a3.39,3.39,0,0,1,.76.62,1.8,1.8,0,0,0,.84.58c-.57-.09-.9-.57-1.55-.76a18.22,18.22,0,0,0,3.83,2.13c.26.09.19-.08.45,0-.25.07.25.22.41.3-.05.07-.42-.12-.61-.17-.11.15.46.15.51.24-.18.11-.53-.14-.7-.19a1.58,1.58,0,0,0,1.23.48c-.25.3.82.42,1.1.45-.1.09-.6,0-.85,0,.11.08.36.11.47.18-.12.26-.73,0-1,.11a8.16,8.16,0,0,0,1.75.31c-.07-.09-.5,0-.4-.19.68.21,1.79.18,1.81.42-.12,0-.05,0,0,0a5.09,5.09,0,0,1-1.17,0,5,5,0,0,0-1.24-.08c.18.16.44,0,.9.08-.45.15.11,0,.11.18-.59,0-.68-.14-1-.08,0,.07.09.09.1,0a4.22,4.22,0,0,1-1.79,0l-1.14-.19c-.36-.07-.69-.14-.95-.17.17.16.64.12.78.34,0-.21.29.08.93.12A11.37,11.37,0,0,0,408.05,117.82Zm19.8-12.93c0,.3-.31.56-.23.81C427.67,105.42,428,105.12,427.85,104.89Zm-3.22-5.1c-.12-.36-.05-.68-.25-.8C424.42,99.28,424.56,99.84,424.63,99.79Zm-5-7.22c0-.08.76.56.95.77a3.07,3.07,0,0,0-1.29-1C419.43,92.39,419.53,92.63,419.66,92.57Zm-20.15,20,.1-.09c-.13-.22-.48-.55-.33-.29C399.43,112.19,399.3,112.4,399.51,112.58ZM398,109.91a2.94,2.94,0,0,0,.5,1.12C398.42,110.55,398.14,110.45,398,109.91Zm2.14,3c.06,0-.11-.26-.28-.46s-.32-.41-.31-.31A2,2,0,0,0,400.1,112.91Zm-3.59-9.07c-.15-.34,0-.93-.18-1C396.31,103.39,396.38,103.93,396.51,103.84Zm9.2,13c.07,0,.1.08.07.12a5.58,5.58,0,0,1,1.17.47C407,117.25,405.76,116.88,405.71,116.84Zm-9-11.42-.16-1.16c-.11,0-.16-.18-.17.13C396.6,104.32,396.67,105.6,396.74,105.42Zm-.25-3.6c-.19.17-.08.58-.16.86C396.5,102.69,396.4,102,396.49,101.82Zm31.54.89c.05.47-.13.93,0,1.05C428.06,103.48,428.12,102.48,428,102.71Zm-1.85,6.43c.1-.29.37-.8.32-1C426.35,108.66,426.14,108.81,426.18,109.14Zm-.13-.37c.18-.28-.13.38,0,.32.16-.53.4-.92.47-1.33C426.39,108.12,426.05,108.45,426.05,108.77Zm-26.22-5.29c0,.26,0,.74.12.84C399.86,104.07,399.94,103.59,399.83,103.48Zm25.28-2.39c0,.15.07.42-.06.35,0,.22,0,.55.07.8s.06.42.15.31C425.14,102.39,425.31,101.57,425.11,101.09Zm-.14,4.5c.18-1-.1-.69,0,0Zm-6.68-14c.2.09.43.23.49.13-.23-.06-.49-.31-.53-.25S418.32,91.56,418.29,91.61ZM424.63,104c0-.1.06,0,.09,0,.06-.25,0-.72.11-.84,0,.29.13.11,0,.43.23,0,.19-.91.07-1,0,.17.05.56-.05.59,0-.35-.14,0-.17-.25A7.24,7.24,0,0,0,424.63,104Zm-23.86-6c.11.11-.22.76-.18.83C400.35,99,400.79,98.2,400.77,98Zm8.53-11.33c.1-.18.44-.06.73-.2,0,.06,0,.08.12.07A2.73,2.73,0,0,1,409.3,86.66Zm-2.95,30.91s-.11,0-.1,0a5.24,5.24,0,0,1-1-.38c.09-.09.57.23.33,0,.05-.09.34.13.4.17s.19,0,.22,0-.48-.11-.16-.16c-.3-.18-.13.1-.43-.08.12-.11.52.06.93.24C406.36,117.41,406.23,117.46,406.35,117.57Zm-3.27-28.71c.1.16-.14.4-.58.7-.24.08.71-.52.51-.6a19.13,19.13,0,0,0-3.5,3.39c-.18,0,.32-.52.47-.75,0,0-.06.13-.1.19A17.49,17.49,0,0,1,403.08,88.86ZM414.28,118c-.81,0-1.51-.1-.43-.09a3.87,3.87,0,0,0,.94,0s0,0-.1.06.05,0,.12,0a4.43,4.43,0,0,1-1.36.09C413.63,117.92,414,118.11,414.28,118ZM425.94,93.7c.25.21-.47-.33-.48-.6C425.62,93.22,425.66,93.37,425.94,93.7Zm-.21,16.58c-.07.1-.09.16-.07.2-.13.25-.19,0-.31.18C425.3,110.63,425.66,110.14,425.73,110.28Zm-16.29,5.13c-.3.09-.4-.22-.75-.29C409,115.07,409.13,115.37,409.44,115.41Zm-6.24-4.56c.08.06.12,0,.06-.07.25.3.65.61,1,1-.21,0-.68-.72-.79-.47C403.31,111.16,403,110.5,403.2,110.85Z"/><path class="cls-2" d="M419.06,79.27,417.72,83c-1.92-7.58-12.86-10.94-18.7-5.74-2,1.78-3.32,4.21-5.29,6s-5.08,2.93-7.29,1.41c-1.37-.93-2-2.64-3.37-3.63-2.94-2.17-7,.15-10,2.27s-7.47,4-9.91,1.23"/><path class="cls-2" d="M411,78.93c.16.07.38.28.55.28C411.14,78.85,410.2,78.57,411,78.93Zm1.92,1.27c.1,0,.22.1.34.24C413.15,80.52,413,80.32,412.9,80.2Zm-2.44-1.61a9.92,9.92,0,0,1-.93-.37,1.25,1.25,0,0,1,.34,0c-.12.06,0,.11.19.16S410.44,78.51,410.46,78.59Zm3,2c.07,0,.18.13.26.08s-.11,0-.17-.17a.65.65,0,0,1,.4.21c-.09,0-.1,0,0,.11C413.75,80.93,413.57,80.76,413.41,80.61Zm-4.74-2.78a3.71,3.71,0,0,1-1-.2C408,77.5,408.33,77.79,408.67,77.83Zm2.2.76c-.09,0-.64-.18-.55-.31C410.58,78.37,410.64,78.5,410.87,78.59Zm0-.15c0-.1.27,0,.54.16a6.3,6.3,0,0,0,.83.53C411.7,79.08,411.41,78.55,410.87,78.44Zm-5.48-1-.37,0c-.08-.15.23-.09.36-.13Zm-.63,0c-.1,0-.68.26-.72.1A3.43,3.43,0,0,1,404.76,77.4Zm-5.43,3.22c0-.29.52-.77.83-1.09C400,79.89,399.71,80.1,399.33,80.62Zm-5.83,5.95c0-.28.95-.53,1.46-1.1C395,85.57,394,86.31,393.5,86.57Zm-2,.92c.23-.33,1.07-.46,1.39-.7C392.91,87,392,87.3,391.53,87.49Zm23.11-6.56a.85.85,0,0,1,.39.52,1.32,1.32,0,0,0,.31.61C415.08,82,415,81.31,414.64,80.93Zm-17.56,2.24a2.93,2.93,0,0,1,.5-.78A2.23,2.23,0,0,1,397.08,83.17Zm23.65-3.3c-.15.27-.12.42-.3.73C420.41,80.51,420.6,79.79,420.73,79.87Zm-56.61,5.75a1.67,1.67,0,0,1-.61-.35c-.18-.18-.35-.38-.51-.53a1.07,1.07,0,0,1,.52.39A4.8,4.8,0,0,0,364.12,85.62Zm52-7.63c.05-.06.14,0,.19-.06a2.94,2.94,0,0,0,.32.6c.12.23.25.46.34.68C416.62,79,416.6,78.56,416.12,78Zm2.52,3.5a1.61,1.61,0,0,1-.17-.35,2.07,2.07,0,0,1-.2-.47A1.11,1.11,0,0,1,418.64,81.49ZM412.7,74.8c-.4,0-1.08-.6,0,0Zm-47.76,10c-.08.06-.43-.12-.45-.22S364.71,84.8,364.94,84.83ZM407.3,73.21c.23-.1.42,0,.8.05A1.81,1.81,0,0,1,407.3,73.21ZM367,85c-.1.11-.52.07-.74.07a11.85,11.85,0,0,1,1.19-.28c-.09.17-.37.09-.66.18C366.81,85,366.92,85,367,85Zm36.21-11.46a5.35,5.35,0,0,1,2.12-.45C404.7,73.32,404.13,73.23,403.21,73.51Zm-10,8.28c.08-.39.69-.77,1-1.25C394.07,81,393.7,81.23,393.23,81.79Zm19.53-7.35c-.31,0-.89-.42-1.34-.53A4.7,4.7,0,0,1,412.76,74.44ZM386.25,82c.26,0,.35.34.59.58C386.77,82.6,386.37,82.33,386.25,82Zm-10.17-3.1a4.31,4.31,0,0,1,1.21-.54A5.44,5.44,0,0,1,376.08,78.89Zm12.05,3.62c-.07,0,0-.09-.08-.1S388.22,82.35,388.13,82.51Zm23.49-3.45c-.27,0-.36-.24-.67-.34,0,0,.08,0,.13,0s0,0,0-.07S411.48,78.88,411.62,79.06Zm2.84,1.69c0-.09.11,0-.09-.27-.1.07.07.31-.13,0,0,0,.06.15.11.23a.16.16,0,0,1-.14,0c0,.05.06.09.11.07,0,.26-.31-.08-.47-.17s.09-.11.12-.11c-.19-.15-.3-.21-.17-.37.12.12,0,.08,0,.11.13.16.22.11.35.29a1.88,1.88,0,0,0-.56-.78,2,2,0,0,0-.75-.44c-.07,0-.15-.32-.35-.29,0,.13.07.26.27.39,0,.13-.47-.37-.7-.45,0-.07.2.09.24,0-.16-.14-.21,0-.29,0a11.54,11.54,0,0,0-3.87-1.64c.22.15,0,.09-.21.1,0-.08.06-.09.14-.07-.08-.14-.38,0-.4,0-.1-.1-.21-.1-.44-.14-.69-.14-.44,0,.4,0a2.94,2.94,0,0,0-1-.14c.1-.16.22-.13.39,0-.15-.24-.57-.22-1.06-.22a12.81,12.81,0,0,1-1.49.12,6.7,6.7,0,0,0,1.38,0c-.12.13-.26,0-.52.08.18.26,1.14-.1,1.37.23a8.28,8.28,0,0,0-4.89.83c-.11.08-.12,0-.21,0-.25.18-.44.42-.67.59a8.22,8.22,0,0,0-.74.57A10.39,10.39,0,0,0,398.4,81c.16.06-.18.18-.21.42s0-.2-.05-.23c-.38.56-.27.76-.94,1.3a6.69,6.69,0,0,0,.54-.71c-.6.69-1.49,1.83-2.15,2.53.54-.41,1.06-1.17.43-.34a4.33,4.33,0,0,1-.66.75c-.18,0,0-.11-.19-.06a17.05,17.05,0,0,1-2.79,2.18c0-.09.4-.21.41-.3-.31,0-.75.45-1,.42-.12.06,0,.13,0,.19-.45.11-.22.14-.68.28.06-.1.35-.18.34-.29a9.05,9.05,0,0,1-3.82.35s.21.07.35.1c-.3.13-1.15-.26-1.77-.44a3.64,3.64,0,0,0,1.63.55,15.25,15.25,0,0,0,1.89.1c.54,0,.2,0-.31.08a7.8,7.8,0,0,1-1.45,0,6.66,6.66,0,0,1-2.24-.75,6.84,6.84,0,0,1-1.77-1.46c-.9-1-1.42-2-2-2.45.33,0,.79.86,1.35,1.49,0-.28-.68-.82-.47-.88-.14-.18-.23-.08-.37-.32.06,0,.13,0,.18,0a2.44,2.44,0,0,1-.4-.46c0,.05.07.13.12.2-.17-.1-.55-.44-.35-.41a3,3,0,0,0-2.2-.73,7.29,7.29,0,0,0-3.55,1.31c.1.06.38-.23.48-.18s-.39.26-.49.29c.2.1.82-.34,1.11-.47a6.53,6.53,0,0,1,.92-.42c-.78.53-1.78,1-2.89,1.7,0-.06.05-.23-.13-.06.1-.2.58-.41.83-.6-.64.32-1.34.83-2,1.2.1,0,.33-.24.42-.2-.34.24-1.05.7-1.63,1s-1.2.62-1.48.81c-.12.17-1,.13-1.29.19-.49.14-1.28.66-1.61.31a.89.89,0,0,0,.36-.06c-.16-.07-.53,0-.67,0,.4.13-1.28.51-1.26.24a2.19,2.19,0,0,1-.76.11.52.52,0,0,1,.29-.13,1,1,0,0,0-.87-.13c-.41-.11-.33-.32-1-.44,0-.27-.38-.52-.77-.82.1,0,.55.28.66.23-.33-.28-.14-.33-.47-.58,0,0,.23.08.21.12.18,0-.2-.27-.15-.39-.38-.13-.34-.2-.57-.38a7.81,7.81,0,0,0,1.56.47,5,5,0,0,0,1.73,0,1.76,1.76,0,0,1,.53.11c.14,0,.17-.13.35-.15,0-.06-.32,0,0-.09a2.63,2.63,0,0,0-.58,0c0-.18.66-.31,1.14-.42a10.88,10.88,0,0,1,1.61-.82,2.29,2.29,0,0,0,.16-.31,10.82,10.82,0,0,0-1.37.77c.08-.25-.28,0-.51,0,.33-.31,1.47-.52,1.9-.91-.58.14.29-.71.8-.75,0-.06.1-.21.27-.37,0,.06,0,.12-.13.18a3.09,3.09,0,0,0,1-.48l1.29-.91c.07.18-.38.41-.67.63,1-.6,2.18-1.46,3.61-2.21a8.47,8.47,0,0,1,5.07-1.1,3.3,3.3,0,0,1,.82.21c.27.09.52.19.75.29a1.76,1.76,0,0,1,.53.44A5.8,5.8,0,0,1,385,80.74c.37.44.67.87,1,1.33.06.07.06,0,0,0a10.3,10.3,0,0,0,1.08,1.21,2.43,2.43,0,0,0,1.06.54,2.39,2.39,0,0,1-1.58-.9c-.57-.62-1.16-1.61-2-2.5a16.67,16.67,0,0,0,2.42,3,2.81,2.81,0,0,0,1.65.67,10,10,0,0,0,1.81-.3,7.29,7.29,0,0,0,1.63-.9,8.93,8.93,0,0,0,1.3-1.17,34.41,34.41,0,0,0,2.42-3,6.37,6.37,0,0,0-.81,1,4.89,4.89,0,0,1,.84-1.17c.16-.19.78-.87.48-.47s-.36.36-.46.58a15.64,15.64,0,0,0,1.47-1.73,21,21,0,0,1,3.52-2.47,12.24,12.24,0,0,1,7-.92c.13,0-.07-.08.09-.07a1.54,1.54,0,0,1,.34.17c.13,0,.09-.13.35,0,0,0-.11,0-.18,0,.61.25,1.78.36,2.15.76a2,2,0,0,1,1,.26c.43.21.88.49,1.26.63-.12.26-.39-.09-.74-.25a4.23,4.23,0,0,0,.89.55,9.11,9.11,0,0,1,1,.73,3.89,3.89,0,0,0-1.16-.91A4.55,4.55,0,0,1,415,76.78a4,4,0,0,0-.62-.8c.6.35.77,1.12,1.35,1.54-.47-.3-.73-.78-1.33-1.1a10.5,10.5,0,0,1,2.47,3.4c.12.23.2.05.31.29-.21-.12,0,.32,0,.49-.09,0-.14-.38-.24-.53-.17,0,.18.39.13.5-.17-.07-.21-.45-.3-.58a1.73,1.73,0,0,0,.34,1.12c-.38,0,.07.76.06,1-.12,0-.16-.45-.3-.62,0,.11.08.29,0,.4-.23,0-.34-.46-.53-.57a4.43,4.43,0,0,0,.21.61c0,.23.1.46.15.67.07-.07-.11-.35.07-.34,0,.29.09.65.11.92l.21,2.23,1.34-2.15c.14-.23.27-.38.37-.35s0,.06,0,0a2.6,2.6,0,0,1-.15.42l-1.32,2.92-.75-3a4.75,4.75,0,0,0-.35-1.24c-.1.18.09.3.16.62-.25-.24,0,.09-.14.13-.19-.35,0-.48-.18-.67-.08,0-.06.1,0,.08a2.8,2.8,0,0,1-.78-.92,4.76,4.76,0,0,0-.94-1c0,.16.3.28.25.47.18-.13.1.16.42.42C414.89,81.09,414.71,80.77,414.46,80.75ZM371.1,86.5c-.22.11-.54,0-.68.21C370.65,86.62,371,86.68,371.1,86.5Zm2.22-5c.29-.24.61-.26.67-.5C373.72,81.13,373.24,81.44,373.32,81.49Zm9.4-2.49c0,.06-1.19-.4-1.56-.43l2,.69C383.06,79.2,382.86,78.93,382.72,79Zm26.54-1.43,0-.13c-.13-.09-.45,0-.28,0C409.11,77.35,409.1,77.56,409.26,77.57ZM407.49,77a1.68,1.68,0,0,0,.7.23C408,77,407.81,77.17,407.49,77Zm2.21.46c.06-.12-.63-.38-.56-.23S409.58,77.52,409.7,77.49Zm-6-.45c-.18.17-.58,0-.57.3C403.48,77.23,403.8,77.18,403.72,77Zm9.78,2.47a.07.07,0,0,1,0,.11c.18.23.47.31.54.56C414.13,80,413.51,79.54,413.5,79.51Zm-8.84-2.72a4,4,0,0,0-.7.15c0,.1-.09.16.1.15C404,76.89,404.76,76.85,404.66,76.79Zm-2.09.64c.16.13.34-.06.52-.06C403,77.21,402.71,77.47,402.57,77.43Zm-29.83,8.23c-.31.25-.73.28-.73.47C372.21,86,373,85.63,372.74,85.66Zm-5.59,1.54c.29,0,.8-.07.91-.19C367.61,87.13,367.4,87,367.15,87.2Zm.24-.29c.3,0-.37.06-.25.16a7.25,7.25,0,0,0,1.23-.26C368.05,86.9,367.63,86.75,367.39,86.91Zm35.36-13.07c.26-.09.76-.12.85-.24C403.35,73.68,402.84,73.72,402.75,73.84Zm-30.34,8.61c-.11.07-.28.25-.29.1-.3.22-.95.62-.7.68C371.45,83,372.16,82.85,372.41,82.45Zm-3.29,2c.78-.32.42-.41,0,0Zm15.33-4.13c-.19-.18-.47-.41-.53-.32.27.14.5.5.55.45S384.4,80.3,384.45,80.27ZM370,83.35c.08,0,.07,0,0,.08.2-.08.51-.34.65-.31-.2.14,0,.15-.29.22.1.18.75-.25.77-.4-.14,0-.38.29-.46.22.26-.16-.11-.1.1-.26A3.52,3.52,0,0,0,370,83.35Zm27.58-6.68c-.07-.17.57-.6.59-.66C398.51,76,397.66,76.43,397.62,76.67Zm-7.33,10.84c-.09.2-.44.08-.74.2,0,0,0-.07-.12-.07A3.88,3.88,0,0,1,390.29,87.51Zm23.27-7.31s-.06,0,0,0a5.9,5.9,0,0,1-.49-.39c.11-.09.29.21.21,0,.09-.08.16.14.18.18s.1.05.14,0-.25-.15,0-.15c-.11-.19-.13.06-.24-.12.13-.09.3.12.49.32C413.65,80.07,413.53,80.1,413.56,80.2Zm-17.81,4.66c-.12-.14,0-.37.35-.68.19-.09-.5.53-.31.58,1.16-1.34,1.51-1.73,2.46-2.88.17.06-.22.37-.32.56,0,0,0-.11.06-.16C397.52,82.77,396.69,84,395.75,84.86Zm23.73-2.15c-.27.55-.55,1-.23.26a4,4,0,0,0,.31-.65c.05,0,0,0,0,.09s.05,0,.07-.06c0,.28-.29.59-.38,1C419.19,83.13,419.44,83,419.48,82.71Zm-40.9,0c-.15.14.23-.3.39-.18C378.89,82.6,378.8,82.56,378.58,82.69ZM366,87.32a.26.26,0,0,0-.19,0c-.29,0-.09-.17-.3-.21C365.53,87.09,366.1,87.2,366,87.32Zm51-7.67c-.27-.13-.14-.42-.38-.67C416.82,79.08,416.78,79.42,417,79.65Zm-5.54-5.46c.11,0,.11,0,0-.08a10.32,10.32,0,0,1,1.37.65c-.2.06-.93-.54-.95-.26C411.7,74.41,411.06,74,411.42,74.19Z"/><path class="cls-2" d="M398.72,96c-.42-3-5-3.47-7.31-1.52s-3.2,5.08-4.72,7.7-4.55,5-7.36,3.9c-3.22-1.3-3.54-6-6.46-7.91-3.38-2.16-7.66.76-10.45,3.63s-6.56,6.15-10.28,4.68"/><path class="cls-2" d="M392.23,97.83a1.08,1.08,0,0,0,.26-.43C392.19,97.69,391.82,98.45,392.23,97.83Zm1.08-1.28c0-.09,0-.15.12-.19C393.49,96.47,393.35,96.49,393.31,96.55Zm-1.44,1.69a3.73,3.73,0,0,1-.45.81c0-.11,0-.2,0-.32C391.52,99,391.72,98.24,391.87,98.24Zm1.66-1.95c0-.09.1-.08.07-.17s0,.07-.13.06a.31.31,0,0,1,.18-.23c0,.07,0,.1.07.07C393.78,96.18,393.64,96.23,393.53,96.29Zm-2.64,3.55a3.21,3.21,0,0,1-.45,1C390.44,100.49,390.76,100.17,390.89,99.84Zm1-2c0,.07-.21.56-.33.46C391.67,98.09,391.79,98.06,391.9,97.87Zm-.15,0c-.2-.1.46-.75.69-1.07C392.35,97.2,391.91,97.39,391.75,97.85Zm-2.63,5.38c-.08.14-.15.28-.24.43s.12-.32.16-.47Zm-.5.69c0,.15-.48.93-.62.84A9.83,9.83,0,0,0,388.62,103.92Zm-8.27,5c.39-.11,1.46-.1,2.15-.31A4.84,4.84,0,0,1,380.35,108.88Zm-6.69-5.57c.26,0,.31.68.7,1.14C374.26,104.48,373.84,103.6,373.66,103.31Zm-.68-1.2c.31,0,.39.59.55.79C373.33,102.92,373.16,102.31,373,102.11Zm20.92-6.75c.27-.27.64,0,1-.14C394.77,95.41,394.26,95.26,393.9,95.36ZM376.23,106.8a10.25,10.25,0,0,1,.92.64A2.11,2.11,0,0,1,376.23,106.8ZM397,96.25c0-.1,0-.15,0-.26S397.1,96.25,397,96.25ZM353.24,107c-.35.09-.84-.19-1.2-.3C352.31,106.59,352.87,107,353.24,107ZM391.78,93c0-.06.05-.13,0-.2.38,0,.93-.19,1.37-.2C392.8,92.8,392.45,92.7,391.78,93Zm4-.94a3,3,0,0,1-.86,0A1.14,1.14,0,0,1,395.75,92Zm-7.41,3.6c0,.36-.63.88,0,0ZM353.71,106c-.06.11-.41,0-.46-.06C353.36,105.83,353.5,106.06,353.71,106Zm32.45-6.27c-.05-.21.09-.31.22-.58A1.09,1.09,0,0,1,386.16,99.73Zm-30.6,5.92c-.07.14-.44.14-.63.21a4.26,4.26,0,0,1,1-.47c0,.17-.31.11-.54.27C355.4,105.71,355.49,105.66,355.56,105.65Zm29.21-3.38a7.42,7.42,0,0,1,.63-1.29A3,3,0,0,1,384.77,102.27Zm-6.58,1c.35.1.5.66.83.86C378.7,104.05,378.58,103.72,378.19,103.27Zm9.8-7.76a11,11,0,0,1-.58,1.1A4.72,4.72,0,0,1,388,95.51Zm-17.24.18c.2-.21.62,0,1.14.07A2.79,2.79,0,0,1,370.75,95.69ZM362,98.94c.09-.21.54-.52.79-.75A2.85,2.85,0,0,1,362,98.94Zm12.42-3c-.27-.14-.21-.2-.45-.32C374.14,95.56,374.61,95.79,374.46,95.92Zm17.89,1.37c-.05.22-.19.29-.32.54,0,0,0-.08,0-.12s-.05,0-.07,0S392.2,97.38,392.35,97.29Zm1.39-1.84c-.07,0,0-.12-.21,0,0,.11.23,0,0,.14,0,0,.11,0,.18,0s0,.09-.05.11.07,0,.07-.07c.17.11-.1.26-.17.35s-.08-.13-.08-.16-.17.16-.27,0c.08-.06,0,0,.07.06s.1-.13.24-.16a.43.43,0,0,0-.28,0,1.66,1.66,0,0,0-.32.17,2.19,2.19,0,0,0-.21.23,1,1,0,0,0-.13.24c0,.07-.28.07-.25.26s.22,0,.35-.16-.32.34-.42.5c-.06-.05.09-.15,0-.2s0,.17,0,.24a17.58,17.58,0,0,0-2,3.35c.19-.19.09,0,0,.24-.08,0,0-.08,0-.16-.16,0-.17.36-.1.41-.13.08-.16.19-.28.41-.38.7-.18.44.09-.42a6.84,6.84,0,0,0-.52,1c-.1-.16,0-.26.15-.41-.55.17-.78,1.63-1.62,2.56a2.66,2.66,0,0,0,.5-.63c.15-.26.29-.54.42-.79.07.19-.12.29-.25.56.39,0,.55-1.22,1-1.3-.25.47-.51.93-.79,1.39a14.8,14.8,0,0,1-1,1.37,14.29,14.29,0,0,1-2.41,2.31c-.14.14-.15,0-.26.09a5.33,5.33,0,0,1-2.4,1.27,7.14,7.14,0,0,1-3.65,0c0,.18-.33-.13-.63-.11-.24-.15.26,0,.26-.1-.82-.3-1.07-.18-1.8-1,.43.27.64.53.93.61a9.06,9.06,0,0,1-1.54-1.22,15,15,0,0,1-1.08-1.3c.27.57.93,1.24.24.47a3.22,3.22,0,0,1-.57-.74c0-.17.1,0,.1-.16a19.7,19.7,0,0,0-1.5-2.16c.09,0,.15.25.24.24,0-.23-.35-.46-.32-.65s-.12,0-.18,0c-.09-.25-.12-.1-.26-.34.1,0,.18.15.28.12a4.71,4.71,0,0,0-1.11-1.48s0,.07.06.12c-.19.05-.26-.35-.49-.35a1.22,1.22,0,0,0,.36.41,1.76,1.76,0,0,1,.43.64c.23.4-.41-.45-.49-.52a3,3,0,0,0-1-.82,2.25,2.25,0,0,0-1.54-.05c.22-.27.86-.18,1.19-.2-.08-.16-.51,0-.48-.18-.14,0-.12.15-.3.12,0-.06.07-.08.07-.14a1.58,1.58,0,0,1-.46.08c0,.06.12,0,.19,0a.56.56,0,0,1-.33.12c-.12,0-.22,0-.15,0a12.59,12.59,0,0,0-2.69,1.14,11,11,0,0,0-2.8,2.3c.11,0,.27-.29.38-.26s-.27.32-.36.37c.23,0,.64-.48.86-.68a8.68,8.68,0,0,1,.69-.64,23.05,23.05,0,0,1-2.2,2.3c0-.06,0-.23-.15,0,.07-.21.49-.51.68-.76-.53.46-1.13,1.09-1.7,1.5.09.05.28-.27.38-.24-.66.64-2,1.6-2.48,2-.07.18-.86.22-1.12.32s-1,.8-1.36.49a.62.62,0,0,0,.31-.1c-.15,0-.46.11-.6,0,.17,0-.06.21-.36.34s-.67.21-.68.09a2.48,2.48,0,0,1-.62.24.39.39,0,0,1,.21-.18c-.14-.08-.6-.14-.75,0-.37,0-.35-.23-.93-.16-.09-.27-.43-.37-.84-.51.08-.1.53.09.61,0-.35-.12-.21-.29-.56-.37,0-.06.22,0,.22,0,.15,0-.24-.2-.24-.3-.37,0-.34-.07-.61-.11a11.12,11.12,0,0,0,3-.52,1,1,0,0,1,.48,0c.11-.06.12-.14.26-.2,0,0-.27,0,0-.08-.13,0-.5,0-.5.09,0-.17.5-.4.9-.57a6.8,6.8,0,0,1,1.26-1,1.83,1.83,0,0,0,.07-.32c-.34.32-.88.61-1.05.89,0-.24-.25.05-.44.09.21-.35,1.18-.66,1.49-1.09-.49.2.12-.71.58-.78,0-.06,0-.22.18-.38a.2.2,0,0,1-.09.19,5.82,5.82,0,0,0,1.79-1.43c.1.15-.23.4-.43.6a11,11,0,0,0,1.13-1.07c.37-.42.85-1,1.32-1.42A14.11,14.11,0,0,1,365.65,97c.35-.2.79-.3,1.11-.48s.35,0,.53,0a7.07,7.07,0,0,1,3.37-.54c.1,0,0,0,0,0a5.7,5.7,0,0,1,2.27.55,7,7,0,0,1,1.82,1.3,7.1,7.1,0,0,0-2.8-1.55,7.36,7.36,0,0,0-3.46,0c.58,0,1.24-.08,2-.06a6.14,6.14,0,0,1,2.34.49,6.69,6.69,0,0,1,2.3,1.85,6.85,6.85,0,0,1,1.29,1.93c.75,1.27,1.23,2.31,1.81,3.09a3.24,3.24,0,0,0,2,1.45c-.08-.08-.42-.15-.67-.29a.6.6,0,0,1,.32.09c.15,0,.3.11.45.13s.61.1.34.12-.25-.09-.4,0a1.51,1.51,0,0,0,1.24-.05c.4.14,1.49-.51,2.28-1.26a7.77,7.77,0,0,0,1.48-1.79c.41-.7.83-1.56,1.3-2.42,0-.1-.1,0-.05-.09s0-.07.23-.2c0-.11-.1-.11,0-.29,0,0,0,.09,0,.14.33-.41.62-1.33,1-1.59-.1-.3.65-1.22,1-1.83.25.15-.13.33-.29.62.6-.55.53-.81,1.35-1.58a3,3,0,0,0-.94.94c.07-.58.95-1.3,1.51-1.7a3.53,3.53,0,0,0-.82.45c.4-.53,1.1-.54,1.66-1-.39.43-.91.54-1.23,1.08l.82-.56a5.82,5.82,0,0,1,.92-.49,3.8,3.8,0,0,1,1.89-.35c.23,0,.11-.15.35-.16-.17.15.27.12.41.18,0,.08-.36,0-.52,0s.39,0,.46.07c-.12.13-.44,0-.59,0a1.45,1.45,0,0,0,1,.15c-.14.33.62.3.81.39-.07.1-.41,0-.59,0,.08.06.25.07.32.15-.08.23-.48.09-.63.21.32.09.74.11,1.08.24,0-.1-.3-.06-.22-.21.42.19,1,.46.9.67-.06,0,0,0,0,0-.39-.07-.73-.44-1.26-.35.09.16.25,0,.5.1-.26.11.05,0,0,.18-.3,0-.34-.15-.52-.1,0,.07,0,.09.05,0a2.49,2.49,0,0,1-.91.29,2.17,2.17,0,0,0-.94.44c.12,0,.26-.17.39,0-.06-.22.13,0,.4-.19C394.07,95.21,393.79,95.22,393.74,95.45ZM359.5,106.62c-.17.13-.49.08-.57.28C359.12,106.78,359.44,106.81,359.5,106.62Zm1-4.89c.2-.24.46-.29.44-.51C360.75,101.37,360.42,101.69,360.49,101.73Zm6.23-5.13c.06.07-.83.39-1.07.52a5.86,5.86,0,0,0,1.47-.64C367,96.52,366.74,96.46,366.72,96.6Zm24,2.61-.12,0c-.09.12-.14.41,0,.27C390.51,99.32,390.73,99.38,390.75,99.21Zm-1,1.64c.15-.21.33-.25.44-.64C389.93,100.36,390,100.56,389.79,100.85Zm.93-2.07c-.1-.08-.43.54-.29.5A1,1,0,0,0,390.72,98.78Zm-3.31,5.88c-.05.31-.53.5-.43.72C387.33,105.06,387.56,104.7,387.41,104.66Zm5.35-8.85s.06,0,.09,0,.23-.29.42-.26C393.16,95.44,392.76,95.81,392.76,95.81Zm-4.67,7.81c-.16.26-.34.5-.51.75.08.07,0,.21.19,0C387.59,104.33,388.24,103.57,388.09,103.62Zm-1.72,2.23c.22,0,.36-.28.56-.4C386.82,105.33,386.53,105.8,386.37,105.85Zm-25.57-.17c-.21.27-.61.32-.56.51C360.39,106.05,361,105.64,360.8,105.68Zm-4.64,2.12c.22-.1.69-.17.74-.32C356.55,107.67,356.32,107.55,356.16,107.8Zm.14-.32c.26,0-.3.12-.18.2a5.82,5.82,0,0,0,1-.44C356.87,107.37,356.49,107.3,356.3,107.48Zm28.43-4.8c.09-.16.37-.38.32-.51C385,102.34,384.7,102.55,384.73,102.68Zm-24.82,0c-.09.07-.21.25-.25.11-.24.23-.77.67-.53.7C359.12,103.27,359.75,103.05,359.91,102.66Zm-2.61,2.16c.62-.4.29-.45,0,0Zm11-8.63c-.21.06-.47.12-.44.23.21-.12.56-.1.55-.17S368.33,96.24,368.33,96.19Zm-10.42,7.53c.07,0,.06,0,0,.07.18-.09.4-.38.53-.36-.16.15,0,.14-.22.23.12.16.64-.29.63-.45-.12.07-.29.31-.38.25.21-.17-.12-.08,0-.25C358.32,103.36,357.93,103.62,357.91,103.72Zm23.79,1.11c0-.16.44-.19.45-.27C382.34,104.7,381.77,104.69,381.7,104.83Zm-8.81-3.43c-.17,0-.12-.2-.29-.25,0,0,.06-.06,0-.1S372.79,101.2,372.89,101.4ZM393.26,96s0,0,0,0a1.39,1.39,0,0,1-.25.23c-.07-.1.13-.13,0-.13s.08-.08.11-.08a.11.11,0,0,0,0-.11c-.05-.07-.11.15-.12,0-.13,0,.06.14-.06.16s.05-.22.21-.3C393.17,95.88,393.19,96,393.26,96Zm-18.53,9.19c.16-.1.32.07.57.43,0,.2-.41-.57-.49-.39a15.88,15.88,0,0,0,1.32,1.58,6.71,6.71,0,0,0,1.86,1.36c0,.19-.59-.2-.82-.34,0,0,.15,0,.21.08l-.68-.5c-.24-.21-.51-.44-.76-.68A8.83,8.83,0,0,1,374.73,105.19Zm21.71-10c-.24-.21-.54-.4-.1-.19.1.07.17.17.29.25s0,0-.05,0,0,0,0,.06c-.15,0-.23-.23-.45-.27C396.27,95,396.3,95.23,396.44,95.23Zm-30.89,6.57c-.09.18.11-.34.31-.3C365.81,101.62,365.72,101.62,365.55,101.8Zm-10.34,6.33c-.09,0-.14,0-.16.07-.23,0-.11-.15-.28-.14C354.77,108,355.27,108,355.21,108.13Zm38.31-15.39c-.2.19-.41,0-.71.11C393,92.66,393.27,92.8,393.52,92.74Zm-5.84,3.92c0-.09,0-.11-.08,0a11.63,11.63,0,0,1,.71-1.11c0,.19-.56.75-.29.81C387.92,96.46,387.43,96.92,387.68,96.66Z"/><path class="cls-2" d="M398.85,111.62c-.85-2.48-4.46-2.94-6.65-1.49s-3.28,4-4.27,6.46-2.09,5-4.29,6.44c-3,1.92-7,1.07-10.13-.56s-5.94-4-9.3-5.1-7.71-.59-9.51,2.46"/><path class="cls-2" d="M392.75,113.5c.07-.1.22-.24.23-.35C392.71,113.36,392.37,114,392.75,113.5Zm1-1.06c0-.08,0-.13.1-.17C393.92,112.38,393.82,112.41,393.76,112.44Zm-1.34,1.36a3.23,3.23,0,0,1-.4.66c0-.1,0-.18,0-.28C392.11,114.4,392.27,113.79,392.42,113.8Zm1.55-1.57c0-.09.07-.09,0-.18s0,.08-.11.06,0-.18.15-.21,0,.09.06.07C394.18,112.13,394,112.16,394,112.23Zm-2.42,2.85a2,2,0,0,1-.37.8C391.16,115.61,391.45,115.36,391.55,115.08Zm.88-1.6c0,.07-.18.46-.3.36C392.22,113.64,392.34,113.64,392.43,113.48Zm-.13,0c-.2-.11.42-.61.62-.87C392.84,112.94,392.44,113.06,392.3,113.44Zm-2.06,4.46-.14.36c-.17,0,0-.26.06-.39Zm-.32.58c0,.11-.19.78-.35.72C389.75,118.84,389.78,118.77,389.92,118.48ZM385.29,125a13.48,13.48,0,0,1,1.23-1.16A5.36,5.36,0,0,1,385.29,125Zm-7.51,1.54c.13-.23.8.15,1.39.07A5.12,5.12,0,0,1,377.78,126.5Zm-1.56-.29c.28-.18.82.13,1.12.14C377.21,126.53,376.56,126.25,376.22,126.21Zm18-14.88c.24-.26.56,0,.85-.11C395,111.42,394.59,111.23,394.27,111.33Zm-12.4,14.93a3.42,3.42,0,0,1,.85-.33C382.61,126.09,382.23,126.17,381.87,126.26Zm15.3-14.06c0-.11-.07-.13-.09-.26S397.32,112.16,397.17,112.2Zm-41.66,6.93c-.09.27-.43.56-.59.83C354.85,119.71,355.3,119.33,355.51,119.13Zm36.84-10.31c0-.07,0-.12,0-.19.35,0,.85-.14,1.26-.12C393.28,108.72,393,108.61,392.35,108.82ZM396,108a2.53,2.53,0,0,1-.78-.06A1,1,0,0,1,396,108Zm-7,3c0,.34-.64.78,0,0Zm-34,7.13c0,.1-.3.41-.38.43C354.59,118.41,354.86,118.36,355,118.14Zm31.92-3.29c-.05-.2.08-.3.19-.56A1.1,1.1,0,0,1,386.91,114.85Zm-30.11,1.9c-.07.12-.47.27-.66.42a2.52,2.52,0,0,1,1.06-.76c-.06.19-.36.18-.62.39C356.62,116.84,356.72,116.78,356.8,116.75Zm29.06.76a4.52,4.52,0,0,1,.42-1.39A4,4,0,0,1,385.86,117.51Zm-5.76,5.17c.23-.23.74-.07,1.09-.23C380.94,122.67,380.62,122.6,380.1,122.68Zm8.59-11.81a8.23,8.23,0,0,1-.6,1A4.46,4.46,0,0,1,388.69,110.87Zm-15.83,9.22c.21-.12.37.14.66.27A.78.78,0,0,1,372.86,120.09Zm-6.12-4.21c.21,0,.62.26.9.37A2.42,2.42,0,0,1,366.74,115.88Zm8.38,4.3c-.15,0-.1-.11-.22-.15C375,120,375.22,120,375.12,120.18ZM392.85,113c-.05.18-.17.23-.3.43,0,0,0-.07,0-.1s0,0-.06,0S392.7,113.07,392.85,113Zm1.28-1.62c-.06,0,0-.13-.18,0,0,.12.2.06,0,.13,0,.06.1,0,.16,0s0,.09-.05.11.06,0,.06-.07c.15.12-.08.27-.15.34s-.06-.14-.06-.16-.15.15-.25,0c.08,0,.06,0,.07.06s.08-.13.21-.14c-.28-.19-.84.31-.89.54,0,.07-.25,0-.23.2s.21,0,.32-.1c.1,0-.29.28-.38.41-.06-.06.08-.12,0-.18s0,.14,0,.21a11.21,11.21,0,0,0-1.79,2.73c.17-.15.09,0,.06.21-.08,0-.06-.07,0-.14-.14,0-.13.3-.05.35-.12.06-.15.15-.24.34-.29.58-.14.36.05-.36-.17.14-.26.59-.39.86-.13-.14,0-.23.09-.35-.51.12-.58,1.41-1.1,2.2a4.41,4.41,0,0,0,.58-1.23c.09.16-.07.25-.15.49.36-.05.33-1.05.72-1.12a42.47,42.47,0,0,1-2.46,4.77c-.07.16-.13,0-.19.15a5.4,5.4,0,0,1-1.32,1.81,12.8,12.8,0,0,1-2.34,1.71c.12.12-.26.11-.4.3s.12-.16.06-.22c-.61.33-.64.56-1.49.63a5.24,5.24,0,0,0,.84-.29,13,13,0,0,1-3,.62c.58.08,1.39-.14.47,0a3.08,3.08,0,0,1-.85.1c-.14-.09.05-.09-.08-.17-1.07.09-1.88-.07-2.7,0,0-.09.32,0,.37,0-.17-.19-.64,0-.78-.2-.1,0-.08.1-.11.16-.3-.13-.18,0-.51-.08.08,0,.28,0,.32-.1-.74-.17-1.56-.54-2.39-.77,0,.06.11.08.19.12-.23.1-.62-.33-1-.37.27.32,1.43.62,2,.94s-.85-.22-1-.32a43.79,43.79,0,0,1-4.6-2.68c.41,0,1.11.63,1.67.87-.05-.21-.76-.39-.6-.54-.17-.11-.23,0-.43-.15,0,0,.13,0,.17,0a2.43,2.43,0,0,1-.55-.33c0,.06.12.11.2.17-.19,0-.78-.39-.53-.37-1.66-1-3.45-2.69-5.53-3.23,0,.11.32.1.33.2s-.35-.08-.41-.14c0,.21.59.34.83.44a8,8,0,0,1,.77.34c-.8-.14-1.59-.59-2.44-.78,0,0,.15-.13,0-.14.15-.08.47.11.69.13a11.19,11.19,0,0,0-1.53-.44c0,.1.27,0,.3.13a6.05,6.05,0,0,0-2.14-.14c-.08.11-.57-.24-.76-.24s-.71.39-.95,0a.31.31,0,0,0,.2,0c-.1-.09-.3,0-.41-.08.23.08-.58.54-.65.33-.11.17-.17.17-.29.29a.23.23,0,0,1,.06-.19c-.12-.07-.46,0-.43.18-.19.1-.37-.13-.58.19a.59.59,0,0,0-.73.14c-.05-.11.26-.3.24-.4-.28.12-.31,0-.55.15,0,0,.07-.17.12-.14,0-.15-.27.08-.37,0a2.84,2.84,0,0,1-.3.49,3.93,3.93,0,0,1,2-2.45,1.18,1.18,0,0,1,.51,0c.1-.07.11-.16.27-.21,0,0-.3,0,0-.08a1.32,1.32,0,0,0-.55.14c-.07-.19.57-.49,1-.6a3.48,3.48,0,0,1,1.68-.54,3,3,0,0,0,.25-.25,3.85,3.85,0,0,0-1.52.45c.11-.24-.29,0-.52,0,.35-.35,1.57-.38,2.1-.54-.63-.08.58-.59,1.07-.32,0-.06.2-.13.44-.16,0,0-.09.08-.22.08.59.21,1.6.26,2.52.48-.08.17-.49,0-.8,0a21.76,21.76,0,0,1,6.61,2.55c.29.18.53.43.79.57s.15.23.24.35c.9.52,1.31.84,2.08,1.33.06,0,.05,0,0,0,.8.42,1.85,1.09,2.58,1.38a18.73,18.73,0,0,1-3.92-2.12,9.12,9.12,0,0,0,2.55,1.64,17,17,0,0,0,1.77.87c.61.24,1.33.33,1.63.52a9.86,9.86,0,0,0,2.92.23,4.92,4.92,0,0,0,2.4-.76c-.11,0-.44.21-.72.32a3.09,3.09,0,0,1,.76-.44c.14,0,.59-.35.37-.15s-.27.12-.37.25a2.18,2.18,0,0,0,1.05-.84c.43-.11,1.06-1.16,1.55-2.08.71-1.22,1.16-2.85,2-4.53,0-.1-.09,0-.06-.09a1.14,1.14,0,0,1,.23-.2c0-.1-.11-.1,0-.27,0,0,0,.08,0,.14.31-.4.58-1.26,1-1.48-.1-.3.65-1.11,1-1.66.23.16-.12.3-.3.56.6-.46.54-.71,1.35-1.35a2.34,2.34,0,0,0-.94.79c.08-.55,1-1.14,1.5-1.47a3.19,3.19,0,0,0-.79.35c.4-.47,1.08-.4,1.58-.79-.37.35-.83.41-1.17.89a12,12,0,0,1,1.64-.84,3.65,3.65,0,0,1,1.73-.23c.21,0,.11-.14.33-.14-.17.15.24.12.36.19s-.33,0-.47,0,.35,0,.42.08c-.11.12-.4,0-.54,0a1.23,1.23,0,0,0,.94.18c-.13.33.56.31.73.4-.08.09-.38,0-.54,0,.07.07.22.07.29.14-.08.25-.44.09-.57.21a9.74,9.74,0,0,1,1,.25c0-.11-.27,0-.19-.21.37.18.89.44.79.65-.05,0,0,0,0,0-.35-.07-.65-.41-1.12-.33.08.15.22,0,.44.09-.24.13.05,0,0,.19-.28,0-.31-.16-.47-.11s0,.09,0,0a1.77,1.77,0,0,1-.81.28,1.75,1.75,0,0,0-.82.39c.11.06.22-.17.34,0-.05-.21.12,0,.36-.17C394.42,111.18,394.18,111.19,394.13,111.41ZM360,118.6c-.14,0-.33-.17-.42,0C359.73,118.54,359.92,118.73,360,118.6Zm3.57-2.86c.32,0,.52.25.7.13C364.05,115.76,363.57,115.65,363.58,115.74Zm6.7,2.87c0,.09-.63-.38-.81-.52a2.59,2.59,0,0,0,1.06.72C370.45,118.77,370.39,118.54,370.28,118.61Zm21.1-4.08-.12-.06c-.08.1-.12.35,0,.23C391.15,114.6,391.37,114.68,391.38,114.53Zm-.81,1.35c.12-.17.28-.2.37-.53C390.66,115.47,390.77,115.64,390.57,115.88Zm.77-1.73c-.11-.08-.4.43-.27.41S391.35,114.25,391.34,114.15Zm-2.34,5c0,.26-.32.51-.16.68C389,119.53,389.15,119.21,389,119.19Zm4.25-7.51s.06,0,.08,0,.21-.27.39-.21C393.62,111.36,393.27,111.68,393.25,111.68Zm-3.91,6.58-.27.67c.1,0,.07.17.19,0C389.07,118.89,389.47,118.2,389.34,118.26Zm-.89,2.12c.22,0,.22-.31.36-.45C388.66,119.85,388.59,120.3,388.45,120.38Zm-27.36-1.8c-.23,0-.46-.12-.51.06C360.72,118.61,361.21,118.66,361.09,118.58Zm-3.36.2c.13-.09.41-.15.45-.25C358,118.65,357.79,118.56,357.73,118.78Zm0-.3c.18,0-.19.11-.08.18.22-.19.48-.18.66-.33C358.14,118.4,357.84,118.3,357.75,118.48Zm28.17-.56c.05-.17.26-.45.2-.56C386.07,117.53,385.86,117.81,385.92,117.92Zm-23.48-2.11c-.12,0-.35,0-.27-.11-.34,0-1.07-.06-.9.12C361.4,115.65,362,115.94,362.44,115.81Zm-3.58.23c.8-.15.48-.32,0,0Zm12.41,3.37c-.14-.08-.3-.21-.36-.11.17,0,.33.28.37.22A.07.07,0,0,1,371.27,119.41ZM360,115.29c.09,0,.05,0,0,.09.22,0,.62-.09.72,0-.24,0-.08.12-.35.06,0,.19.76.14.85,0-.14,0-.46,0-.49,0,.29,0,0-.15.2-.18A2.23,2.23,0,0,0,360,115.29Zm23.88,5.7c-.09-.13.3-.39.27-.45C384.42,120.57,383.91,120.83,383.91,121Zm-8.4,4.72c-.13.14-.28-.09-.5-.07,0,0,0-.08-.05-.11C375.06,125.5,375.26,125.62,375.51,125.71Zm18.2-13.8s0,0,0,0-.12.13-.25.22c-.05-.13.16-.12,0-.14s.09-.06.11-.06a.14.14,0,0,0,0-.11c0-.07-.09.15-.1,0-.12,0,.05.13-.07.14s.06-.21.2-.27C393.62,111.78,393.64,111.88,393.71,111.91ZM380,126.65c0-.18.24-.25.62-.27.18.07-.64.05-.54.22.77-.09,1.29-.17,1.8-.26a9.35,9.35,0,0,0,1.76-.51c.12.14-.41.24-.61.33,0,0,.09-.08.15-.1A11.41,11.41,0,0,1,380,126.65Zm16.58-15.44c-.23-.2-.49-.38-.09-.19a3.48,3.48,0,0,0,.27.24s0,0-.05,0,0,0,0,0c-.15,0-.23-.2-.43-.24C396.37,111,396.41,111.2,396.54,111.21Zm-31.07,9c-.18,0,.34,0,.38.14C365.73,120.36,365.69,120.28,365.47,120.21Zm-8.21-1.06c-.06,0-.07.06-.06.09s-.13-.1-.21,0S357.22,119,357.26,119.15Zm36.68-10.45c-.18.2-.37,0-.64.07C393.45,108.59,393.71,108.77,393.94,108.7Zm-5.58,3.24c0-.08,0-.1-.08,0a8.41,8.41,0,0,1,.72-1c0,.18-.57.67-.3.75C388.59,111.77,388.12,112.18,388.36,111.94Z"/><path class="cls-2" d="M415.71,118.66a85.83,85.83,0,0,0-23.11,41.49l26-23.11L404.7,215.68,421.9,183a55.7,55.7,0,0,1,1.31,26.65,82.05,82.05,0,0,0-1.62-93.23"/><path class="cls-2" d="M399,150.61l-.67.59-.18.15h0a.15.15,0,0,1,0,.08s0,0,.09-.06l1.73-1.56C400.85,149,400.94,148.9,399,150.61Zm-1,.93c-.15.18-.14.12-.12,0C398.09,151.43,398,151.52,398,151.54Zm3.82-3.34c1.46-1.37,2.58-2.35,4.41-3.93-.47.46-.67.74-1.27,1.31C405.69,144.68,402.37,147.9,401.84,148.2Zm-3.91,3.29c-.12.06,0-.07-.13-.05s.05,0-.05.15-.12-.09-.05-.28c0,.06.08,0,.11,0S397.93,151.42,397.93,151.49Zm12.56-10.84.22-.22.43-.4,1-.93,2.42-2.16,4.35-3.8c-1.22,1.16-2.61,2.39-4.09,3.69l-2.27,2Zm-10.15,9.13a20.62,20.62,0,0,1,2.79-2.43C401.93,148.47,401.43,148.79,400.34,149.78Zm.38-.16c.09,0-.13.23-.56.62l-.77.71-.9.79a8,8,0,0,0-.74.67,2.16,2.16,0,0,1,.54-.61l.13-.1.21-.18.42-.38C399.62,150.64,400.18,150.14,400.72,149.62Zm18.55-1.17-.38,2.18c-.22.35.19-1.42.29-2.18Zm-.72,3.64a29.47,29.47,0,0,1-.81,4.37C418.15,154.27,418.23,153.84,418.55,152.09Zm-6.84,38.57c.05-1.22.73-4.76,1.17-7.27C412.58,185.69,412.24,187.42,411.71,190.66Zm-1.18,8.52a1.21,1.21,0,0,1-.23.64c-.07.07-.09,0-.27.45A9.8,9.8,0,0,1,410.53,199.18Zm.45-.89a.71.71,0,0,1-.12.51,1.36,1.36,0,0,0-.21.34,1.35,1.35,0,0,1,.15-.51A1.86,1.86,0,0,0,411,198.29Zm-12.71-49.86c.68-2.31,2.06-4.44,3.11-6.91a17.93,17.93,0,0,1-1.25,2.75C399.52,145.58,398.77,147.1,398.27,148.43ZM410,199.38c-.1.08-.07-.23,0-.57C410.1,198.81,410,199.1,410,199.38Zm7-79.46c-1,1-1.38,1.45-2.52,2.61A17.22,17.22,0,0,1,417,119.92Zm7.88,1.84c-1-1.29-2.41-3.63-3.47-5.21C422.12,117.32,423.86,120.26,424.85,121.76Zm-31.93,33c-.13.15.05-.49-.09-.3.42-1.05.8-2.35,1.35-3.73l.68-1.71c.2-.51.42-1,.63-1.44-.29.87-.56,1.6-.95,2.55C394,151.32,393.56,152.75,392.92,154.76Zm7.38-18.06c-.24.44-1.16,2.29-1.78,3.3A19.47,19.47,0,0,1,400.3,136.7Zm3.22,15.88c1-1.13,3.89-3.37,0,0ZM426.73,123c-.21-.22-1.3-2.23-1.52-2.56a4.83,4.83,0,0,1,.68,1C426.12,121.87,426.39,122.41,426.73,123Zm-10.66,19.25c-.07-.1,0-.34.07-.72-.11.08-.23.18-.39.32.15-.17.32-.35.5-.52A6.7,6.7,0,0,1,416.07,142.21Zm16-8.58c-.26-.56-1.12-2.62-1.67-3.74.56,1.09,1,1.85,1.39,2.72s.74,1.88,1.3,3.4c-.35-.53-.73-1.93-1.38-3.45A7.16,7.16,0,0,0,432,133.63Zm-18.26,21.88c.24-2.47.77-5,1.38-8.72C414.87,149.39,414.42,151.67,413.77,155.51Zm-11.33,64.75c0-.77.38-2.81.8-5.06s.89-4.72,1.22-6.73c-.18,1.44-.45,3-.8,4.9S402.88,217.59,402.44,220.26Zm1.65-67.71c.84-.89,3-2.71,4.37-4C407.62,149.47,405.45,151.3,404.09,152.55Zm18.21,42a6.69,6.69,0,0,1-.28-1.64c0-.37-.09-.77-.14-1.21l-.05-.44-.06-.36a1,1,0,0,1,.1.26c0,.07,0,.16.07.25a1.09,1.09,0,0,1,0,.22l0,.31A18.5,18.5,0,0,1,422.3,194.53Zm14.14-8.76a17,17,0,0,1-.55,2.35c-.32.95-.65,2-.91,2.75C435.32,189.45,436,187.65,436.44,185.77ZM420.81,191c0-.13,0,.1,0,.07C420.78,191.3,420.79,191.4,420.81,191Zm-22.63-39.31a.35.35,0,0,1,.09-.15l1.44-1.29s-.31.33-.51.52c0,.07.14-.07.31-.22a6,6,0,0,1-.45.45l-.7.62C398.29,151.64,398.21,151.68,398.18,151.66Zm-.4-1.88c-.09.19-.1.13-.15.22a1.63,1.63,0,0,0-.13.3l-.27.75s0,0,.11-.09l.15-.3c0-.08.05-.1,0,0s-.08.23-.18.52a.12.12,0,0,0,.05-.05s0,0,.08-.18.21-.58.3-.83a2.34,2.34,0,0,1-.16.69,1.42,1.42,0,0,0,.2-.68c.27-.51.2-.15,0,.45l-.15.5a.32.32,0,0,0,0,.16l0,.18c-.05.15-.17.06-.19,0-.06.31-.05.39-.34.61.08-.24.08-.14.15-.17.11-.27,0-.27.15-.61a4.66,4.66,0,0,0-.63,1.61,3.81,3.81,0,0,0-.12.74v.15l.08-.08.22-.27c.08-.13.1-.09.17-.12a.78.78,0,0,0,.33-.33c.05-.2,0-.18-.28.08.07-.18.56-.54.78-.77,0,.15-.2.23-.26.41a.9.9,0,0,0,.31-.45l17.74-15.74c-1.86,1.54.1-.22,1.53-1.54.17,0-.42.48-1,1a25.9,25.9,0,0,0,3.08-2.86c.74-.56,1.48-1.22,2.86-2.44l-.15.84c-1.15,6.32-.88,5,.06-.68L419.69,133c.54-.43,1.33-1.12,2.26-1.95-.41,2.31-.9,5.16-1.27,7.3a18.29,18.29,0,0,1,.61-3.78c-.58,2.12-1.25,5.9-2,10.49-.23,1.41-.48,2.92-.73,4.4s-.5,2.82-.76,4.07c.43-1.75.93-4.93,1.42-7.65a20.12,20.12,0,0,1-.46,2.91,6.63,6.63,0,0,0,.37-1.41l.2-1.08c.08-.51.17-1,.26-1.58.5-2.93,1-5.83,1.41-7.25-2.18,11.85-4,22.07-6,32.79a10.9,10.9,0,0,1-.28,1.09c-1,7.27-2.45,13.34-4.21,23.65.21-.23-.24,1.22-.29,2.18-.21,1,0-.83-.05-.72-.06.39-.11.74-.16,1.06l0,.23v.61a3.85,3.85,0,0,1-.26,1.13c.05-.48.21-.88.19-1.14-.29,1.28-.6,3.23-.73,4.14.33-1.28.32-1.8.26-1a2,2,0,0,1-.07.71c-.19.62-.18.51-.32,1,0,.06,0,.1,0,.14.39-.82.75-1.55,1.08-2.23a14.6,14.6,0,0,0,.78-1.87c0,.21-.16.36-.2.59s.15-.18.24-.41.16-.42.24-.44,0-.2,0-.29c.18-.24,0-.2.19-.49,0,.12-.06.28,0,.41.75-1.42,1.58-3,2.42-4.58l1.55-2.94,1.84-3.6a3.69,3.69,0,0,0-.38.63l-.5.95.06-.17.16-.34.45-.89c.34-.65.76-1.43,1.2-2.25l1.35-2.53c.44-.78.87-1.53,1.25-2.22-.2.29-.45.69-.74,1.16-.15.25-.31.48-.48.8l-.55,1c-.77,1.44-1.65,3.13-2.57,4.87l-1.57,3c-.49.91-.95,1.75-1.34,2.41-1.66,3.05,2-3.92,2.52-4.92l2.9-5.47c.25-.46.5-1,.75-1.4l.72-1.2,1.45-2.41.72-1.2.18-.3c.06-.08.13-.29.16-.07l.2.74.81,2.94c.25,1,.51,1.92.77,2.88s.51,1.93.72,3l.33,1.56.24,1.47.23,1.43.11.94c.15,1.26.25,2.53.32,3.82a62.3,62.3,0,0,1-.09,7.95c0-1.08.09-3,.07-5.07a48.53,48.53,0,0,0-.36-6c0,.43.12,1.66.18,2.75s.09,2,0,1.89a23.6,23.6,0,0,1,.12,2.66c0-.13-.07-.66-.13-.74a33.53,33.53,0,0,1-.12,3.82,13.57,13.57,0,0,0,.12-1.53c.08,1-.35,5.22-.32,3.82-.16,1.51-.4,3.06-.73,4.79l-3.7-1.53c.67-1.08,1.37-2.19,2.08-3.32l1.09-1.72c.34-.59.65-1.21,1-1.83l2-3.76q.85-2,1.74-4a41.23,41.23,0,0,0,1.57-4.2,45.09,45.09,0,0,0,1.35-4.32c.37-1.48.74-3,1.1-4.44s.5-3,.74-4.51c-.14.23-.35,2.19-.5,2.5-.15.7.36-2.37.47-2.85a16.5,16.5,0,0,0-.57,2.61c-.1.62-.21,1.27-.31,1.87s-.27,1.14-.36,1.55c-.19.79-.4,1.63-.61,2.51a26,26,0,0,1-.73,2.71c1.13-4.93,2.59-10.45,3-17,0,.21.08.81.16-.38,0,.95-.28,3.46-.42,5,.22-1.75.39-3.69.58-5.62s.11-3.85.2-5.56c-.1.18,0,1.92-.12,2.18,0-1.12.11-2.46,0-3.88s-.14-2.92-.21-4.36a19.78,19.78,0,0,0-.19-2.09c-.09-.67-.17-1.32-.25-1.91-.15-1.19-.28-2.19-.4-2.86s-.49-3.87-.7-5.1c-.05-.26-.1-.54-.17-.83s-.18-.59-.27-.9c-.18-.62-.38-1.26-.56-1.86a9.22,9.22,0,0,1-.56-2.8c.06.33.19.81.37,1.42,0-.55-.48-2.06-.57-2.54.31,1.36-2.1-4.86-1.82-4.74-.58-1.14-.74-1.5-1.28-2.6a4.6,4.6,0,0,1,.57.91,12.29,12.29,0,0,0-1.3-3,16.28,16.28,0,0,0-1.7-3.69,12.14,12.14,0,0,0-1.68-3.78c.3.16,1.28,2.21,1.54,2.47a8.8,8.8,0,0,1-.56-1.38,4.93,4.93,0,0,0-.7-1.37,2.89,2.89,0,0,1,.6.93c.22.33.09,0-.11-.42a7.89,7.89,0,0,1-.5-1c-1.12-1.51-1-1.56-1.87-2.74,2.71,3,6.55,9.83,8.76,14.92a25.78,25.78,0,0,1,.76,2.53c.26.66.41.83.73,1.7,0-.1-.47-1.49.07-.05-.22-.7-.86-2.71-1-2.84a9,9,0,0,1,.94,2l.72,1.89c.25.66.4,1.36.58,2l1.35,4.1c.39,1.45.72,3,1.06,4.9.17.47.35,1,.51,1.38-.64-2.68-1.24-6.36-2-8,.42.74-.33-1.42-.61-2.58a43.6,43.6,0,0,1,1.53,5.14c.42,2.13.89,4.34,1.21,5.75-.08-.79-.11-1,0-.82a5.56,5.56,0,0,1,.37,1.45,36.78,36.78,0,0,1,.63,4.87,7.86,7.86,0,0,1,.33,2.21,4.29,4.29,0,0,1-.15-1.1c0,1.54.09,3.63.14,5.94,0,1.16,0,2.37-.07,3.6a32.16,32.16,0,0,1-.17,3.68,5.06,5.06,0,0,1,0-1.52c0-.79,0-1.77,0-2.59,0,2.65-.39,5.6-.64,8.76A98.49,98.49,0,0,1,436,185c-.2.84-.39,1.68-.59,2.52l-.79,2.48-.79,2.48c-.13.41-.25.83-.4,1.24l-.49,1.2c-.65,1.59-1.28,3.17-1.95,4.71s-1.5,3-2.23,4.37c-.23.43-.44.87-.7,1.3l-.78,1.22c-.52.81-1,1.59-1.47,2.33a20,20,0,0,1-1.22,1.7l-5,6.8,2.13-8,.05-.19a58.58,58.58,0,0,0,.88-7.32,54.58,54.58,0,0,0,0-7c-.05-.4-.06-.18-.05,0-.06-.67-.13-1.36-.21-2.09-.05-.36-.1-.73-.14-1.1s-.08-.49-.11-.75c-.07-.48-.14-.77-.2-1.15s-.15-.74-.24-1.1-.19-.74-.29-1.11c0,0,0-.06,0,0l0,.06-.06.12-.13.23-.25.47c-.33.62-.65,1.21-.92,1.73.39-.78.84-1.68,1.33-2.64l.09-.18.06.18.11.39c.08.26.14.53.22.81q.19.83.36,1.71c.05.35.11.71.17,1.07l.22,1.79c.12,1.2.21,2.41.25,3.6a54.8,54.8,0,0,1-.19,7,39.55,39.55,0,0,0,.25-8.32c0-.77-.13-1.56-.21-2.36l-.15-1.19-.08-.57-.06-.39c-.09-.55-.17-1-.25-1.38s-.18-.85-.29-1.27l-.21-.82c-.08-.21-.13-.77-.28-.3l-.78,1.44-2,3.72-2.89,5.57-1.36,2.6c-.57,1.07-1.07,2-1.46,2.66L401.85,224c1.85-10.53,3.5-19.95,5.38-30.67-.1.39-.26,1.29-.45,2.37-.24,1.38-.53,3-.77,4.42,0-.29.1-.81.21-1.49l.35-2.1c.22-1.22.47-2.65.7-3.92.21-1.11,1-5.1.6-2.91-.27,1.69-.45,2.19-.57,3.27.84-4.38,1.53-8.26,1.7-9.82.67-2.64,1.94-10.81,3.13-17.47.77-4.38,1.59-9.06,2.44-13.92q.62-3.51,1.24-7.11c.24-1.29.48-2.59.73-3.89l-.22.18c-.24.24,0,.08-.25.34a2.18,2.18,0,0,1-.43.22c-.25.25-.22.38-.62.67a1.6,1.6,0,0,1,.3-.33c-.49.36-1.27,1.06-2,1.7-1.35,1.19-2.66,2.33-3.48,2.91-.72.94-5.17,4.6-7.67,6.92-.24-.16,1.18-1.17,2.41-2.27-1.52,1.21-2.41,2-3.42,2.9l-2.22,2-3.31,2.88c.84-.67,1.75-1.42,2.82-2.33l1.74-1.5,1.63-1.46c-.2.23-.45.48-.72.75l-.56.53-.68.63c-.95.86-2,1.79-3.08,2.72-.53.45-1.1,1-1.58,1.35l-1.45,1.18-2.59,2.1c1-.75,2.4-1.79,3.91-3-1.54,1.34-2.88,2.32-4.12,3.24l-.23.17-.12.09-.06,0s0,0,0-.08l.23-.79c.14-.51.29-1,.43-1.54.28-1,.53-2,.76-2.93-.31,1.37-.68,2.9-1.11,4.52l-.08.3c0,.08-.11.29,0,.16l.44-.36.91-.75c.62-.53,1.3-1.12,2-1.78l-2.11,1.68-1,.85c-.08.08,0-.07,0-.11l.05-.19.1-.39.2-.76c.52-2,1.06-4,1.59-5.81s1.19-3.79,1.88-5.46c.54-1.42,1.18-2.75,1.78-4,.5-1,.17-.67.67-1.72-.26.94.61-1.05,1-1.63,0,.19-.8,1.61-1.12,2.35,0,.35.82-1.79,1-2a25.93,25.93,0,0,1-1.26,2.7A39,39,0,0,0,399.4,141c-.09.87,1.81-2.88,2.44-3.8-.12.36-1.12,2-1.55,2.92.28-.38.73-1.22,1-1.58.07.43-1.22,2.45-1.47,3.31.9-1.62,2.15-3.88,3.31-5.74-.2.17-.93,1.6-.9,1.21,1.38-2.21,3.71-5.55,3.91-5.42-.23.34-.08.18,0,0a68.91,68.91,0,0,0-4.63,7.45c.43-.53.77-1.39,1.65-2.84-.66,1.47.24-.33.35-.26-1,1.86-1.34,2.05-1.83,3.15,0,.12.25-.27.21-.3-.17.51-.55,1.33-1,2.32s-1,2.18-1.55,3.43c-.26.63-.53,1.26-.8,1.88s-.48,1.26-.71,1.86-.43,1.18-.6,1.72l-.13.4c0,.13-.08.27-.09.29l-.06.3c.09,0,.52-1.73.91-2.22-.21-.06.38-1,1.15-3A35.44,35.44,0,0,0,397.78,149.78Zm36.09-.05a28.45,28.45,0,0,0-.51-2.87A24.87,24.87,0,0,0,433.87,149.73Zm4.27,20.09a30.54,30.54,0,0,0-.3,3.73A35.65,35.65,0,0,0,438.14,169.82Zm-12.27,38.65a21,21,0,0,1,1.18-2c.33-.53.72-1.09,1-1.62s.54-1,.69-1.28c-.18.28-.44.73-.74,1.27s-.72,1.13-1.1,1.76c-.79,1.26-1.59,2.59-2.06,3.44A10.48,10.48,0,0,0,425.87,208.47Zm-17.26-65.61.11.08c.65-.54,1.8-1.67,1-1C409.61,142.2,409.25,142.21,408.61,142.86Zm11.94-10.41c-1.65,1.41-2.35,1.84-5.32,4.57a29.9,29.9,0,0,0,2.44-2C418.47,134.27,419.37,133.44,420.55,132.45Zm-13.41,12a16,16,0,0,0,2.51-2.19A32.53,32.53,0,0,0,407.14,144.47Zm9.88,13.1c-.08,1.21-.65,3.18-.5,3.63C416.91,159.17,417.2,157.33,417,157.57Zm-20.58-4a.75.75,0,0,1,.18-.3,4.48,4.48,0,0,0,.15-.68,1.86,1.86,0,0,1,.24-.68,2.13,2.13,0,0,0-.37.87Zm21.48-1.41-.69,4c.1,0,0,.69.24-.37C417.24,155.91,418.11,151.57,417.92,152.11Zm-2.11,12.37a21.62,21.62,0,0,0,.65-2.91C416.29,161.5,416,163.85,415.81,164.48Zm19.07-7.22a23.59,23.59,0,0,0-.49-3.57c.06.48.21,1.57.32,2.44S434.85,157.66,434.88,157.26Zm-5-23c.41,1,1,3,1.31,3.39A28.18,28.18,0,0,0,429.86,134.21Zm.61.88c.35,1.12-.54-1.39-.5-1,.76,1.84,1.22,3.39,1.82,4.75C431.31,137.61,431,136.06,430.47,135.09Zm-16.86,22.6c.17-1.11.61-3.14.59-3.64C414,155.16,413.6,157.19,413.61,157.69ZM438,163.87c0-.33,0-.8,0-1.14s0-.55.06-.38c-.1-1.86-.32-5.76-.45-4.81a18.88,18.88,0,0,1,.19,2.62C437.89,161.38,438,162.79,438,163.87Zm-2.45-19.23c.88,4.24.8,2.72,0,0Zm-13.12,59.87a11.19,11.19,0,0,0-.18,2.13c.1-1,.37-2.46.29-2.5C422.54,204.42,422.5,204.56,422.46,204.51Zm15-53.48c.05.45,0,.24-.08,0,.12,1.14.48,3.19.45,3.74a12.63,12.63,0,0,1-.29-1.85,7.86,7.86,0,0,0,.14,2.09c.06.53.14,1.06.22,1.5a7.17,7.17,0,0,0,.13.9c0-.79-.33-2.43-.24-2.63.21,1.56.1-.26.32,1.07C437.89,154.2,437.58,151.49,437.44,151ZM409.3,181.7c-.11-.29.56-3.42.55-3.63C410.2,177.2,409.33,180.84,409.3,181.7Zm3.25,14.24a23.38,23.38,0,0,1,1.11-2.32c0,.07.11-.05.26-.3C413.79,193.7,413.2,194.73,412.55,195.94ZM397.34,152c.07,0,0,0,0,.07a1.65,1.65,0,0,1-.09.58c-.22.29.06-.35-.11,0s.05-.24.08-.3,0-.08-.09,0,0,.28-.19.32c-.17.41.21-.19.05.19s-.11-.19,0-.63A.36.36,0,0,0,397.34,152ZM410,200c-.38,1.07-.46,1.17-.37.73s-.09.56.28-.52a5.47,5.47,0,0,1,.13-1c.08-.35.15-.7.26-1.22.18,0,0,.21.05.3s-.06,0,0,0a4.49,4.49,0,0,0-.17.83C410.14,199.4,410.12,199.64,410,200Zm-2.38-69.42c-1.69,2.27-3.12,4.27-1,1.14.59-.86,1.12-1.39,2-2.63.07,0-.05.14-.17.32s.12-.1.25-.28c-.61,1-1.83,2.38-2.75,3.85A22.12,22.12,0,0,1,407.66,130.6Zm23.3,58a14.4,14.4,0,0,1-.74,2.4C430.36,190.4,430.56,190,431,188.63ZM428,130.28a2.3,2.3,0,0,0-.34-.63c-.43-.9,0-.41-.31-1.1C427.43,128.54,428.28,130.52,428,130.28Zm-31.71,16c-.27,1.12-.84,1.67-1.31,3.12A24.26,24.26,0,0,1,396.31,146.24ZM408,148.67c-.34.32-.21.3.07.05l-4.72,4.16c.39-.54,3.36-2.89,2.89-2.81C406.85,149.5,409.32,147.58,408,148.67Z"/><path class="cls-2" d="M1705.55,144.83c4.2,8.38,8.44,16.85,10.62,26s2.17,19.16-1.93,27.52-12.84,14.56-21.91,13.71c-5.86-.55-11.23-3.88-15.45-8.15s-7.44-9.47-10.62-14.61l-9.91,27a333.76,333.76,0,0,1-.72-61.45l34.66,18.61a3.1,3.1,0,0,0,2.43.52,3.17,3.17,0,0,0,1.48-1.95l11.58-28.51"/><path class="cls-2" d="M1717.25,194.68c.16-.45.35-1.07.5-1.68a12.31,12.31,0,0,0,.35-1.57A25,25,0,1,0,1717.25,194.68Zm1.76-12.55c0-.3-.07-1.26-.13-2.31A16,16,0,0,1,1719,182.13Zm-3,15.7a24.4,24.4,0,0,1-2.65,4.74c.35-.5.46-.79.86-1.44-.25.46.22-.19.68-1.09S1715.87,198.07,1716,197.83Zm2.77-19.33c0-.07-.13-1.22-.2-1.29,0,.1.11.55.14,1.32-.08-.56-.17-1.18-.32-2.27.07.35.08.26,0-.36A13.13,13.13,0,0,1,1718.78,178.5ZM1710,206.45a20.45,20.45,0,0,1-2,1.8,22.92,22.92,0,0,1-2.24,1.61A34.42,34.42,0,0,0,1710,206.45Zm6.65-10.49a16.72,16.72,0,0,1-.67,1.74,6.1,6.1,0,0,1-.68,1.35A32.73,32.73,0,0,0,1716.67,196Zm-.19.31c0,.06,0-.23.23-.72s.41-1.22.64-2a37.39,37.39,0,0,0,1.06-5A32.4,32.4,0,0,1,1716.48,196.27Zm-22.76,17.17c-.69-.05-1.39,0-2.08-.14-.17-.06.17,0,.63,0l1.43.07Zm-3.45-.4a14.81,14.81,0,0,1-2.19-.51,8.45,8.45,0,0,1-1.75-.66A21.07,21.07,0,0,0,1690.27,213Zm-23.72-20.84v0s.12.11.22.27l1.8,2.83c-.57-.83-1-1.57-1.57-2.39l-.33-.51c0-.06-.08-.11-.12-.18Zm-11.31,25.71a9.71,9.71,0,0,1,.17,1.23c0,.34.08.74.12,1.17q0,.33.06.69c0,.12,0,.24,0,.37v.28l0-.08c.69-1.8,1.55-4,2.3-6.14C1658.06,214.79,1654.89,226,1655.24,217.91Zm-1-10.38c.1.49.18,1.39.26,2.32s.13,1.6.19,2.34.14,1.49.19,2.05c-.07-.26-.23-1.8-.38-3.65C1654.45,209.53,1654.35,208.33,1654.28,207.53Zm63.37-34.4c-.51-2.12-.9-4.37-1.69-6.67A45.76,45.76,0,0,1,1717.65,173.13ZM1662.51,203c.22-.74.67-2,1.17-3.34C1663.52,200.22,1663,201.64,1662.51,203Zm43.84-58.54,1.43,2.91C1707.62,147.06,1706.22,144.34,1706.35,144.43Zm-2.74,4.15c.47-1.35,1.43-3.54,2.05-5.09C1705.4,144.39,1704.2,147.12,1703.61,148.58ZM1716.93,179c0,.06-.08-.37-.11-.28a40.93,40.93,0,0,0-.55-5.14A35,35,0,0,1,1716.93,179Zm-3.55-15.18a31.42,31.42,0,0,1,1,3C1714.11,166.18,1713.71,164.85,1713.38,163.85Zm1.16,31.79a13.92,13.92,0,0,1-.81,2C1713.53,197.94,1713.71,197.67,1714.54,195.64Zm-11.1-45.24c.06-.26.82-2.09,1-2.4C1704.28,148.48,1703.83,149.35,1703.44,150.4Zm-2.28,59.44c.7-.34,1.34-.62,2.49-1.26a11.45,11.45,0,0,1-1.19.68A9,9,0,0,1,1701.16,209.84ZM1699.61,160c.16-.51.92-2.28,1.31-3.29-.73,2-1,2.8-2.08,5.39.13-.53.66-1.65,1.16-3A9,9,0,0,0,1699.61,160Zm-12.35,50.07a19.73,19.73,0,0,0,7.26,1.2A16.66,16.66,0,0,1,1687.26,210.05Zm-28.67-1.91c.44-1.52,1.6-4.38,2.41-6.68C1660.42,203.26,1659.71,205,1658.59,208.14Zm55.65-12.21a22.85,22.85,0,0,1-2.24,4.45A30.52,30.52,0,0,0,1714.24,195.93Zm-58.8-16.1c.1.64,0,2.09,0,3.85A37.38,37.38,0,0,1,1655.44,179.83Zm10.2-18.26c-.78-.36-2.75-1.47-4-2.11C1662.76,160,1664.2,160.78,1665.64,161.57Zm-9.57,29.67c0-.91,0-.85,0-1.62A5.84,5.84,0,0,1,1656.07,191.24Zm61.94.2a27.86,27.86,0,0,1-1.06,3.88,6.24,6.24,0,0,1,.18-.64c0-.05-.06.13-.12.32C1717.11,194.65,1717.77,192.51,1718,191.44Zm-.11-17a5.41,5.41,0,0,0,.17,1.33c.06,0-.16-1.44.11.29,0-.12-.11-.83-.18-1.32a4.61,4.61,0,0,1,.14.63,2.81,2.81,0,0,0-.12-.64c-.1-1,.34,1.29.44,2.22s-.06.13-.08.05a5.93,5.93,0,0,1,.13,2c-.07-.84,0-.41,0-.35-.08-1.05-.15-1.14-.27-2.29,0,.87.27,2.9.33,4.87s0,3.84,0,4.37c0,.12-.19,1.59-.22,2.31a11.85,11.85,0,0,0,.29-2.34,32.67,32.67,0,0,1-.49,4.29s.16-1.08.09-1a4.76,4.76,0,0,0-.14,1.3,33.07,33.07,0,0,1-3.52,10,27.46,27.46,0,0,1-7.33,8.41c1-.77,0,.1-.77.63-.13.05.18-.18.52-.42a11.28,11.28,0,0,0-1,.68c-.34.27-.66.46-.66.49-.56.28-1,.61-2.11,1.13a13.5,13.5,0,0,1-1.83.79l1.25-.53a23.63,23.63,0,0,0,2.32-1.27,24.62,24.62,0,0,1-5,2.23c.43-.22,1-.39,1.9-.73a29.13,29.13,0,0,1-5.37,1.39,18.75,18.75,0,0,1-7.68-.5,17.26,17.26,0,0,0,3.18.63c.63,0,1.3.07,2,.09s1.33,0,2-.11a5.37,5.37,0,0,1-1.08.11,14.79,14.79,0,0,1-1.64,0,5.31,5.31,0,0,0,1.34.06,14.35,14.35,0,0,0,2.15-.19c1.54-.21,3-.69,3.65-.8a20.08,20.08,0,0,1-13.79-.4,30.77,30.77,0,0,1-10.71-7.37,8.25,8.25,0,0,1-.67-.76,48.89,48.89,0,0,1-5-6.27c-.77-1.12-1.54-2.3-2.33-3.56l-1-1.65-.36-.6c-.21.6-.45,1.24-.7,1.92a16.35,16.35,0,0,1-.62,1.82c-.32.82.21-.69.13-.61-.93,2.62-1,3-2.19,6.07.54-1.52.92-2.45,1.22-3.33-1.29,3.52-3.17,8.64-4.35,11.83.87-2.22,2-5.4.72-1.82l-.51,1.45c-.21.56-.44,1.21-.73,2s.09-.38-.29.52l-1.88,5.19-.88,2.41-.43,1.17-.22.59c0,.08,0,0,0,0v-.15l0-.3c-.34-3.2-.66-6.18-1-9.16,0,.1.23,2.49.3,2.74,0-.83-.17-2-.28-3.18,0-.44-.09-.88-.13-1.27s0-.56,0-.75c0-.44-.07-.25-.1-.29-.09-1.41-.09-.78-.2-2.25.06.27.13,1.17.18,1.25-.28-3.39-.47-7.43-.69-11.32a6.93,6.93,0,0,0,0,1c-.11-.75-.12-3.18-.22-4.85,0,1.72.28,7.06.38,9.75.15,3-.26-3.85-.29-4.84-.34-8-.36-16.16-.12-25.34,0,1.83-.12,6.46-.09,9.38.08-.72,0-4.17.11-3.92,0-1-.06-.9,0-2.25,0,.1,0,.56.06.62,0-1.36,0-1.74.07-3.24,0,.11,0,.82-.06,1.31a23.25,23.25,0,0,1,.11-3.25c.08-2.34.19-4.85.35-7.48.09-1.31.18-2.65.28-4q.21-2.78.44-5.63l9.8,5.32,8.75,4.68c-.17-.15-1.75-.94-2-1.11-.55-.32,1.9,1,2.28,1.21-.42-.33-3.51-1.95-4.83-2.65l-4.27-2.29c4.06,2.06,8.54,4.51,13.68,7.27-.18-.08-.68-.27.28.22-.78-.36-2.75-1.46-4-2.11l8.83,4.79c-.12-.12-1.52-.81-1.71-1l6.5,3.52c1.12.59,2.27,1.24,3.13,1.67a2,2,0,0,0,1,.25.66.66,0,0,0,.43-.21,5.34,5.34,0,0,0,.85-1.48c.4-.84.82-1.73,1-2.24.74-1.73,1.8-4.71,2.3-5.39-.13.27-.3.68-.51,1.2.23-.42.75-1.72,1-2.09a31.48,31.48,0,0,1,1.67-4.2c.38-1.06.53-1.38.92-2.4a6.43,6.43,0,0,1-.29.9,18.46,18.46,0,0,0,1.13-2.69c.55-1.28.63-1.15,1.45-3.29a23.18,23.18,0,0,0,1.57-3.29c0,.26-.85,2.08-.92,2.4.63-1.43.5-.9,1.13-2.4a4.69,4.69,0,0,1-.37.9c-.22.65.53-1.1.63-1.19.56-1.53.61-1.53,1.06-2.7-1.14,3.34-3.64,9.62-5.4,14.09-.34.76-.73,1.7-.95,2.09-.22.58-.25.76-.55,1.51.05-.07.54-1.25,0,0,.26-.59,1-2.26,1-2.4.06.11-1.12,3-2,5.1-.89,2.3-1.63,4.47-3,7.51a4,4,0,0,1-.76,1.29,5,5,0,0,0,1.12-1.87l.73-1.83c.47-1.19.9-2.29,1.14-3-.17.69.51-1.16.92-2.1-.3.9-1,2.57-1.69,4.3l-1,2.56a4.56,4.56,0,0,1-1.5,2.24,3.54,3.54,0,0,0,.69-.59c.1-.11.11-.1.06,0a2,2,0,0,1-.41.49,2.37,2.37,0,0,1-1.1.57,4,4,0,0,1-2.68-.59c-.68-.36-1.31-.72-1.77-1a16.91,16.91,0,0,1-1.72-.82,6.18,6.18,0,0,1,.86.41c-2.27-1.34-6.28-3.45-10-5.42a34,34,0,0,1,3.15,1.61c-3.42-1.87-7.59-4.08-12-6.4l-12.1-6.39c-.09,1.24-.17,2.4-.25,3.51-.11,1.68-.25,3.38-.31,4.84-.06,1-.13,1.28-.19,2-.21,5.33-.29,8.05-.35,12.91,0,.36,0,.17,0,0,0,4.79.07,11.67.27,16.13-.33-6.3-.45-16.22-.15-24.18-.28,4.23-.27,10.3-.17,16.15.06,3.76.18,7.49.36,11,.16,3.64.53,7.73.62,9.66.1,1.13.19,2.21.29,3.26l.12,1.18,0,.56.2-.54,2-5.42c1.84-5,3.61-9.86,5.58-15.26-.27.64-1.11,3-1.8,4.86.11-.34.4-1.18.77-2.19l1.28-3.47c.27-.74.94-2.53,1.34-3.6.52.86.74,1.22,0,.1l0-.05c-.74,2.06-1,2.68-1.46,4,.51-1.37,1-2.7,1.47-4l2.6,4.19c.54.84,1,1.5,1.27,1.92a58.45,58.45,0,0,0,3.63,5.24,42.17,42.17,0,0,0,6.13,6.49,24.58,24.58,0,0,0,10.83,5.47,18.91,18.91,0,0,0,12.64-2.09c.43-.23-.26.11.24-.18.78-.41.32-.18,1.13-.6.41-.26.17-.19,1-.74a5.1,5.1,0,0,1-.5.38,22.66,22.66,0,0,0,3.39-2.71c.56-.54,1.07-1.1,1.52-1.59l1.1-1.27c.12-.22.4-.63.77-1.15s.8-1.21,1.2-2a25.21,25.21,0,0,0,2.07-4.69,9.18,9.18,0,0,1-1,2.65,23.07,23.07,0,0,0,1.4-3.58,37.52,37.52,0,0,0,1.07-4.64,44.38,44.38,0,0,1-1.33,5.27c.29-1,.68-2.59,1-4.25a41.43,41.43,0,0,0,.64-4.8c-.12,1-.26,2.25-.49,3.51a39.67,39.67,0,0,0,.58-7.35,44.59,44.59,0,0,1-.27,6.37,40.9,40.9,0,0,0,.33-8,59.2,59.2,0,0,0-1-7.72c-.21-1-.17-.57-.4-1.54.26.79-.18-1-.32-1.62.09.13.38,1.51.55,2.19.15.24-.4-1.66-.42-1.91a20.48,20.48,0,0,1,.6,2.51,10.76,10.76,0,0,0-.29-1.65,25.64,25.64,0,0,0-.76-2.79c.38.63-.73-2.88-1.08-3.79.17.28.69,1.91,1,2.74-.08-.41-.36-1.2-.45-1.58a25.67,25.67,0,0,1,1.08,3c-.42-1.59-1.14-3.77-1.8-5.59,0,.22.56,1.54.37,1.28-.34-1.1-.86-2.49-1.28-3.6a15,15,0,0,1-.7-2c.15.34.09.15,0,0,1,2.34,1.79,4.61,2.77,7.3-.12-.6-.46-1.35-1-2.77.57,1.31-.1-.34,0-.36.69,1.74.7,2.07,1.08,3.07.06.06-.06-.32-.08-.32a43.66,43.66,0,0,1,1.74,5.39c.63,2.35,1.09,4.93,1.35,6.54,0-.68-.33-2-.36-2.62-.12,0-.14-1-.64-2.86C1717.33,171.76,1717.67,173.56,1717.9,174.41Zm-24.82-2a19.67,19.67,0,0,0,1-2.3C1693.75,170.92,1693.35,171.83,1693.08,172.43ZM1678,167.65c-1.28-.67-2.23-1.26-2.85-1.5C1676.11,166.71,1678.06,167.76,1678,167.65Zm-22.11-3.27c-.06.08.2-3.72.3-4.84-.16,1.13-.38,4.8-.41,6.45A15.49,15.49,0,0,0,1655.84,164.38Zm55.81,40-.07,0c-.48.61-1.5,1.67-.85,1C1710.86,205.14,1711.15,205.05,1711.65,204.38Zm-7.28,6,1.38-.76a21.61,21.61,0,0,0,1.76-1.26C1706.4,209.06,1705.89,209.54,1704.37,210.37Zm8.4-7.62c.06-.07-2.26,2.73-1.92,2.34A18.18,18.18,0,0,0,1712.77,202.75Zm-27.37,8.44c-1.05-.36-2.6-1.39-3-1.49A11.68,11.68,0,0,0,1685.4,211.19Zm33.15-28.88c0-.26,0-.39,0-.35,0-1.49-.18-2.78-.23-4,0,.09.07,1.11.11,2.14S1718.55,182.22,1718.55,182.31Zm-28.34,30.41a23.14,23.14,0,0,1-3.57-1s-.6-.15.32.21c-.07-.08.84.25,1.73.49A7.88,7.88,0,0,0,1690.21,212.72Zm-10.27-4.78a17.52,17.52,0,0,0,2.19,1.58C1682.2,209.48,1680.37,208.36,1679.94,207.94Zm8.49-36.45c1.28.64,2.55,1.45,2.81,1.46C1690.56,172.63,1687.8,171.1,1688.43,171.49Zm10.23-12.14c-.35.91-1.07,2.58-1.18,3C1698.07,160.83,1698.4,160.23,1698.66,159.35Zm-.22.9c-.42,1,.48-1.22.29-.9-.63,1.66-1.21,3-1.67,4.2C1697.52,162.42,1698.14,161.16,1698.44,160.25Zm-12.91,49.17a17.24,17.24,0,0,0,2.91,1.13C1687.53,210.29,1685.92,209.57,1685.53,209.42Zm-3-39.47c.51.28,1.43.74,1.13.66a34.29,34.29,0,0,0,3.72,1.88C1686.82,172.28,1684.22,170.75,1682.53,170Zm13.33-.68c-1.4,3.47-.81,2.3,0,0Zm-40.38,1.58a16.4,16.4,0,0,0,0-1.92c0,.9-.12,2.22-.08,2.25C1655.44,170.93,1655.46,170.8,1655.48,170.85Zm37.53,3.87c-.57.17-.3.08,0,0a2.39,2.39,0,0,1-1.2.12,4.08,4.08,0,0,1-1.12-.32,10.51,10.51,0,0,1-1.31-.7c1,.51.32.15,1.52.74-.13-.09-3.08-1.71-3.5-1.85.58.33,1.87,1,2,1.09-1.2-.63.15.16-.87-.37.66.35,1.4.81,2.27,1.2a3.7,3.7,0,0,0,1.35.3A2,2,0,0,0,1693,174.72ZM1670.68,195c.18.16,1.72,2.47,1.85,2.59A31.15,31.15,0,0,1,1670.68,195Zm-16.51,8.95c-.11-.37-.08-1.33-.19-2.25,0,0,0-.09,0-.34C1654.06,201.67,1654.1,202.7,1654.17,203.91Zm64.5-24.33a1,1,0,0,1,0,.33c.08.86.11,2,.1,3.3,0-.11,0-1.88,0-1,0,0,0-1.12,0-1.32a3.55,3.55,0,0,0-.07-.64s.11,1.52,0,.67c0,1.08.08.23.07,1.31-.06-.19-.09-1.56-.18-2.94C1718.61,179.74,1718.67,180.06,1718.67,179.58Zm-58.75,30.67a10.66,10.66,0,0,1,.77-2.43c.28-.64-.89,2.44-.68,2.13,2.1-5.88,2.83-7.75,4.9-13.36a25,25,0,0,1-.84,2.43,4.6,4.6,0,0,1,.19-.61C1663.32,201,1661.42,206.17,1659.92,210.25Zm51.83-54.34c1,2.33,1.78,4.39.48,1.24-.37-.85-.59-1.48-1.16-2.7,0-.07.07.1.15.28s0-.13-.12-.31c.5,1,1.08,2.46,1.69,3.88C1712.5,157.79,1712.2,156.86,1711.75,155.91Zm-48.35,1.92a18.92,18.92,0,0,1-2-1C1661.92,157,1662.27,157.25,1663.4,157.83Zm36.67-2.08a4.11,4.11,0,0,0,.22-.6c.32-.82.2-.27.45-.89A8.77,8.77,0,0,1,1700.07,155.75Zm16.06,16.53a26.36,26.36,0,0,1,.49,2.87C1716.43,174.3,1716.37,173.36,1716.13,172.28Zm-3.83,27.86c.2-.33.12-.28,0,0a27.3,27.3,0,0,0,2.35-4.78c-.08.57-1.54,3.44-1.31,3.17C1713,199.19,1711.48,201.36,1712.3,200.14Z"/><path class="cls-2" d="M1690.78,115.78a13.52,13.52,0,0,0-8.9,12.49,14.9,14.9,0,0,0,8.29,13.12,16.68,16.68,0,0,0,15.68-.84c3.3-2,6-5.41,6.07-9.27a12.38,12.38,0,0,0-2.93-7.49c-4.26-5.52-12-8.82-18.45-6.14"/><path class="cls-2" d="M1687.63,128.3c0-.16.07-.42-.08-.56C1687.41,128.2,1687.65,129.09,1687.63,128.3Zm.19-2.16c-.17-.11-.12-.29,0-.46C1688,125.77,1687.84,126,1687.82,126.14Zm-.33,2.73a2.12,2.12,0,0,1,.17.93c-.1-.09-.26-.11-.33-.24C1687.74,129.68,1687.26,129,1687.49,128.87Zm.37-3.43c-.17-.08,0-.25-.15-.33s.06.14-.1.23a.53.53,0,0,1-.07-.52c.07.11.15.13.19,0C1688,125,1687.91,125.22,1687.86,125.44Zm-.21,5.32c.25.15.37.69.4.94C1687.67,131.55,1687.83,131.05,1687.65,130.76Zm-.53-2.22c.11.06.28.61,0,.62C1687,128.89,1687.17,128.78,1687.12,128.54Zm-.26.07c-.44.06-.09-1-.13-1.51C1687.11,127.64,1686.61,128.09,1686.86,128.61Zm2.27,5.28.26.3c-.2.26-.26-.12-.39-.19Zm.32.62c.15,0,.72.4.52.63A7.4,7.4,0,0,1,1689.45,134.51Zm6.14,3.27a.77.77,0,0,1-.63.13l-.77-.18A6.23,6.23,0,0,1,1695.59,137.78Zm6.61-1c.12.51-.72.25-1.14.6C1701,137.23,1701.9,137,1702.2,136.8Zm1.26-.74c.1.55-.61.5-.8.7C1702.55,136.38,1703.27,136.33,1703.46,136.06ZM1687,123.77a.68.68,0,0,1,.34-.68c.2-.18.43-.33.47-.64C1688,122.83,1687.22,123.22,1687,123.77Zm11.7,14.35c-.15.21-.45.25-.78.28C1698,138.17,1698.37,138.17,1698.68,138.12Zm-6.78-19c-.29,0-.35.19-.69.19C1691.23,119.22,1691.83,118.85,1691.9,119.15Zm.4-1.58c-.36.32-1.09.37-1.56.55C1690.86,117.68,1691.84,117.65,1692.3,117.57Zm-11.47,5.14c-.15,0-.12-.2-.29-.23.49-.32.85-1,1.34-1.46C1681.84,121.63,1681.33,121.85,1680.83,122.71Zm2.61-5.2a2.62,2.62,0,0,1-.76.95C1682.64,118.06,1683.09,117.73,1683.44,117.51Zm-4.73,11.4c.39.48,0,1.76,0,0Zm13.66-13.53c0,.2-.74.29-.89.23C1691.59,115.33,1692,115.6,1692.37,115.38Zm-11.59,21.16c-.37-.15-.35-.48-.59-.94A1.77,1.77,0,0,1,1680.78,136.54Zm15.23-21.7c-.2.18-.88,0-1.26.11a3.68,3.68,0,0,1,2.08-.34c-.22.28-.65,0-1.17.13C1695.68,114.84,1695.87,114.82,1696,114.84ZM1684.25,141c-.87-.29-1.34-1-2.18-2A17.54,17.54,0,0,1,1684.25,141Zm17.64,4.28c-.47.56-1.67.39-2.54.59C1700,145.44,1700.72,145.61,1701.89,145.23ZM1678,129.09c.21.42.16,1.43.34,2.06A5.83,5.83,0,0,1,1678,129.09Zm36.87,5.63c.33.39-.14.92-.39,1.63A2.61,2.61,0,0,1,1714.89,134.72Zm-3-14.71c.38.13.85.91,1.21,1.32A4.22,4.22,0,0,1,1711.9,120Zm2.45,20.14c.18-.38.33-.24.49-.57C1714.94,139.8,1714.59,140.42,1714.35,140.15Zm-27.15-12.44c.18.25,0,.4.09.71-.09,0-.08-.08-.1-.12s-.08,0-.08.06S1687.06,127.89,1687.2,127.71Zm-.28-3.64c-.1,0-.21-.16-.28.19.22.11.35-.18.21.17.12,0,.13-.13.19-.22.06.06.12.12.1.2s.06-.11,0-.16c.37-.06.29.45.29.66s-.28-.1-.32-.14c0,.27,0,.42-.4.3,0-.18.09-.06.19,0,.11-.19-.05-.29.1-.49-.31.06-.52.47-.63.89a1.48,1.48,0,0,0,.05,1c.15,0-.35.27-.09.47.23,0,.34-.16.35-.42.19,0-.08.62,0,.86-.16,0,0-.22-.24-.23-.1.21.11.22.23.29a10.06,10.06,0,0,0,.54,4.24c.06-.3.19-.06.33.09-.12.08-.17,0-.22-.06-.17.19.18.37.34.3-.11.19,0,.28.06.51.27.71.26.4-.35-.29-.07.29.32.7.48,1-.33.09-.34-.08-.3-.32-.27.36,0,.8.32,1.21a7,7,0,0,1,1.07,1.33c-.07-.43-.57-.84-.89-1.3.32-.06.22.21.44.41.37-.51-.9-.94-.45-1.52a9.55,9.55,0,0,0,3.69,4.24c.16,0,0,.2.11.25a7.76,7.76,0,0,1,2,.68,6.23,6.23,0,0,0,2.6.6c0-.33.25.06.46-.18.2.09-.18.2-.16.35.68-.07.73-.48,1.54-.17-.38.11-.63-.05-.84.07a7.72,7.72,0,0,0,3-.41c-.6-.06-1.34.29-.49-.05a3,3,0,0,1,.78-.32c.18.14,0,.19.18.32a5.16,5.16,0,0,0,2.29-1.53c.08.17-.26.2-.23.34.33.17.48-.47.75-.34.07-.08-.07-.22-.13-.34.31-.08.09-.17.35-.35,0,.17-.13.27,0,.45a5.27,5.27,0,0,0,1.84-1.63c-.09-.06-.14.05-.2.1-.13-.34.54-.41.55-.83-.44.06-.92,1.1-1.58,1.22-.54.32.53-.6.65-.75,1.11-1.07,2.24-2.25,2.1-3.55.42.27,0,.94,0,1.42.18,0,.2-.18.24-.33s0-.27.25-.21c0-.17-.25-.19-.13-.39.11,0,.13.11.25.14-.08-.24,0-.29,0-.53-.12,0-.08.13-.09.2-.15-.14-.15-.69.07-.52a10,10,0,0,0-.72-3.27,8.76,8.76,0,0,0-2.82-3.66c-.1.19.39.32.32.5s-.46-.3-.5-.42c-.08.19.07.4.27.59s.42.4.56.53a6.21,6.21,0,0,1,.8.87c-1-.59-1.75-1.57-2.91-2.43.09,0,.34-.15.09-.26.29,0,.65.43.95.61a7.81,7.81,0,0,0-.94-.86c-.36-.25-.69-.53-1-.78-.06.18.38.21.33.4a10.24,10.24,0,0,0-3-1.59c-.21.17-.62-.83-.89-1a3.52,3.52,0,0,0-.83-.13.54.54,0,0,1-.56-.55.41.41,0,0,0,.32.12c-.08-.23-.45-.25-.53-.5.26.36-1.24.47-1.18,0a2.23,2.23,0,0,1-.65.21.43.43,0,0,1,.23-.28c-.12-.21-.63-.51-.76-.12-.36,0-.41-.54-1-.29-.19-.51-.63-.6-1.17-.6,0-.23.64-.14.68-.36-.48-.09-.4-.44-.91-.4,0-.11.26-.18.29-.07.18-.19-.44-.21-.54-.4-.44.35-.49.2-.85.4a4.37,4.37,0,0,1,2-1.38,11.3,11.3,0,0,1,1.38-.38c.46-.07.92-.15,1.33-.19.28.11.63.17.77.38.2,0,.28-.18.55-.15,0-.12-.45-.18,0-.17-.21-.09-.84-.3-.89-.22,0-.39,1.18-.37,2-.18a5.16,5.16,0,0,1,2.87.3,6,6,0,0,0,.57-.28c-.43-.08-.92-.22-1.37-.32a2.58,2.58,0,0,0-1.21,0c.33-.33-.41-.26-.77-.4a3,3,0,0,1,1.71.14,8.32,8.32,0,0,0,1.81.45c-.89-.58,1.33-.64,1.86.17.06-.11.4-.11.8,0-.09.08-.21.1-.4,0a30.14,30.14,0,0,0,3.47,2.42c-.25.24-.78-.24-1.23-.5,2.63,2,6.78,5,8.37,9.2.25.65.31,1.37.48,2,.09.41-.11.58-.15.88a9,9,0,0,1,.17,2.82,12.17,12.17,0,0,1-.55,2.62c0,.15.06.09.08,0a9.89,9.89,0,0,1-1.35,3.08,17.75,17.75,0,0,1-1.93,2.47,18.86,18.86,0,0,0,2.42-3.82,13,13,0,0,0,1.21-5.14c-.27.9-.42,1.95-.71,3a12,12,0,0,1-1.3,3.22,15.59,15.59,0,0,1-2.7,3.2c-1,.93-2.1,2-2.87,2.18a17.92,17.92,0,0,1-5.81,2.43,23.54,23.54,0,0,1-5.89.53,6,6,0,0,0,1.9.1,4.86,4.86,0,0,1-2.14.06c-.37,0-1.66-.31-.94-.27.55,0,.71.19,1.07.1a18.45,18.45,0,0,0-3.19-.47,9.93,9.93,0,0,0-2.22-.9,13.85,13.85,0,0,1-3-1.5,16.59,16.59,0,0,1-6.32-7.25c-.12-.15-.09.17-.22,0a1.58,1.58,0,0,1,0-.56c-.12-.15-.3,0-.36-.37.08,0,.12.11.18.19-.16-.9-.88-2.36-.59-3.1-.53-.28-.42-2.22-.52-3.33.56,0,.19.53.23,1.08.36-1.26,0-1.56.42-3.22a3.65,3.65,0,0,0-.48,2c-.53-.84.09-2.52.46-3.46a4.74,4.74,0,0,0-.75,1.23c0-1,1.16-1.59,1.29-2.57,0,.79-.66,1.34-.55,2.3.84-1.79,1.56-3.72,3-4.83.23-.25-.1-.3.14-.55.07.38.44-.14.66-.23.1.13-.36.39-.47.59.24.26.35-.45.56-.4.1.29-.38.51-.53.67.21.1,1.1-.4,1.25-.94.39.57,1-.36,1.31-.51.09.21-.38.48-.49.74.16,0,.33-.21.51-.22.31.39-.28.68-.23,1,.43-.26.86-.74,1.31-1-.18-.09-.32.33-.51,0,.64-.31,1.46-.88,1.76-.51-.07.08,0,.1,0,.07-.42.5-1.23.6-1.55,1.35.33.07.25-.28.57-.53,0,.5.12,0,.32.18-.23.44-.54.27-.61.57.1.12.19.06.12,0a2.76,2.76,0,0,1-.4,1.46,5.31,5.31,0,0,0-.33.83,1.71,1.71,0,0,0-.1.75c.24,0,0-.5.41-.47-.38-.21.12-.2.18-.69C1686.93,123.37,1686.67,123.71,1686.92,124.07Zm12.24-3.25c-.22-.06-.33-.54-.58-.35C1698.81,120.53,1698.93,121,1699.16,120.82Zm7.71-3c.46.27.59.74,1,.63C1707.56,118.19,1706.93,117.7,1706.87,117.86Zm8,10.22c-.14.06-.43-1.47-.57-1.9a7.71,7.71,0,0,0,.65,2.57C1714.87,128.55,1715.09,128.13,1714.83,128.08Zm-28.08,2.4-.26.07c0,.17.23.42.25.22C1686.47,130.79,1686.91,130.61,1686.75,130.48Zm.38,2c0-.28.2-.49-.09-.82C1686.78,132,1687.15,132,1687.13,132.44Zm-.91-2.26c-.28,0-.09.81.08.65S1686.34,130.27,1686.22,130.18Zm3.2,5.88c.36,0,.39.55.74.26C1689.89,136,1689.56,135.83,1689.42,136.06Zm-3.37-10.44c0-.05.09-.07.19,0,.14-.3,0-.68.28-.83C1686.19,124.67,1686.08,125.59,1686.05,125.62Zm2.5,9.72a8.07,8.07,0,0,0,.59.58c.16-.15.29-.1.18-.3C1689.07,135.94,1688.6,135.13,1688.55,135.34Zm2,1.58c.12-.37-.25-.33-.32-.55C1690,136.64,1690.54,136.7,1690.54,136.92Zm10.19-15.42c-.38,0-.58-.52-.79-.23C1700.16,121.3,1700.82,121.73,1700.73,121.5Zm-5-2.19c.26,0,.71.12.84-.06C1696.19,119.29,1696,119,1695.77,119.31Zm.27-.52c.27.13-.36,0-.26.25.47-.12.83.09,1.2,0C1696.66,119,1696.31,118.57,1696,118.79Zm-11,22.32c-.31-.2-.68-.78-.94-.75C1684.43,140.57,1684.81,141.16,1685.07,141.11Zm20-23.79c-.16-.12-.53-.2-.31-.38-.49-.29-1.58-.8-1.47-.35.17-.11.44.06.75.26A2,2,0,0,0,1705,117.32Zm-5.52-2c1.28.33,1-.23,0,0Zm15.4,15.52c0-.36,0-.8-.24-.79.13.37-.07.93.07.94S1714.81,130.8,1714.92,130.81Zm-13.07-16c.13.06,0,.11-.06.16.32.18,1,.26,1.08.51-.39-.11-.23.16-.59-.13-.06.18.2.37.5.49a1.15,1.15,0,0,0,.77.14c-.21-.15-.74-.23-.72-.42.47.17.05-.29.46-.18C1702.83,115.07,1702,114.69,1701.85,114.78ZM1691.91,145c-.18.3-1.12-.23-1.21-.17C1690.55,144.37,1691.56,145.2,1691.91,145Zm12.51-8.9c-.14-.32.24-.18.26-.45.06.08.12.1.17.08C1704.88,135.89,1704.65,136,1704.42,136.11Zm-17.36-10.76c.09,0,0,.08,0,.06a1.91,1.91,0,0,1-.11.67c-.24-.09.06-.38-.12-.24-.21-.07,0-.23.08-.26a.28.28,0,0,0-.12-.19c-.17,0,0,.35-.22.08-.18.18.25.13.09.32-.28-.13-.17-.41-.05-.69C1686.77,125.28,1686.93,125.4,1687.06,125.35Zm13.26,12.12c.1.34-.08.54-.44.58-.19-.11.57-.15.4-.48a6.59,6.59,0,0,1-3.14.44c-.05-.34.39-.13.56-.21,0,.06-.08.1-.13.09A9.25,9.25,0,0,0,1700.32,137.47Zm-11.16-17.35c-.54.27-1.1.46-.4,0,.19-.14.42-.09.66-.3.06.05,0,.08,0,.11s.07,0,.11,0c-.07.33-.59.26-.82.56C1688.63,120.23,1689,120.35,1689.16,120.12Zm16.56,6.41c-.27-.09.55.07.4.38C1705.93,126.87,1706,126.73,1705.72,126.53Zm-10.92-7c-.09,0-.14,0-.15.1-.21,0-.11-.33-.28-.33C1694.37,119.16,1694.86,119.25,1694.8,119.52Zm-12.24,1.34c.1.45-.49.36-.62.82C1681.84,121.28,1682.42,121.21,1682.56,120.86Zm-3.71,10.06c0-.15-.2-.09-.17,0a12.81,12.81,0,0,1-.15-2.17c.27.22,0,1.54.47,1.35C1679,130.42,1678.78,131.53,1678.85,130.92Z"/></g></g></svg>