<svg xmlns="http://www.w3.org/2000/svg" viewBox="0 0 2220.83 1092.51"><defs><style>.cls-1{fill:#8dcee2;stroke:#003245;stroke-miterlimit:10;stroke-width:0.5px;}.cls-2{fill:#003245;}</style></defs><g id="Layer_2" data-name="Layer 2"><g id="Layer_2-2" data-name="Layer 2"><rect class="cls-1" x="4" y="0.25" width="2213" height="267"/><rect class="cls-2" x="5.15" y="192.04" width="2211.85" height="894.71"/><path class="cls-2" d="M1087.08,1092.5c19.58,0,54.17,0,70.21-.11C1097.79,1092.3,989.06,1092.49,1087.08,1092.5Zm267.37-.17c6.39-.18,26.67-.2,48.91-.19-.12.06-2,.1-5,.13l-12.13,0Zm-338.13,0c-38.09.11-66.56.1-112.66,0,12.6-.07,19-.23,34.68-.27C917,1092.5,1004.91,1092.1,1016.32,1092.35Zm415.17-.22c1.61-.18,26.08-.09,27.7-.27-2.17-.23-11.89.12-28.17,0,11.73-.15,25.06-.28,48.72-.28-7.65.11-5.77.18,7.41.17a6,6,0,0,1-1.35.11l-3.75.09-13.1.1Zm-634,0c-23.77.19-87,.13-112.61,0C715.26,1091.92,759.78,1092.23,797.47,1092.15Zm260.35-.16c-7,.11-73.55.24-70.6-.07Zm-7.57-.27c-5.69-.42,111.33-.08,168.64-.22C1166.16,1091.94,1107.6,1091.5,1050.25,1091.72Zm-626.44.29H381.56c-7.29-.31,27.46-.13,41.89-.19A3,3,0,0,1,423.81,1092Zm-70.73-.15-46.18.13-26.45,0c-7.11,0-11.82-.08-12.06-.17Zm-353-404c.31,23.07.21,91.72.22,140.44C.09,783.88.14,750.46.07,687.81ZM178.76,187c-9.53.5-75-.08-126.54.13.13,0,1.64,0,4.26-.06l10.87,0,35,0Zm147.85,0c-21.57.51-78.45.13-105.21.21C229.6,186.79,294.87,187.07,326.61,187ZM1548.19,1090.6c46.75-.39,95.59.26,147.84,0C1680.65,1091,1603.49,1090.57,1548.19,1090.6ZM.41,384.16c.17,16.87.21,45.55.2,77.08C.4,447.87.42,414.92.41,384.16ZM2216.87,1090.3l-70.56-.06C2153.33,1090.12,2219.9,1090,2216.87,1090.3Zm.6-123.23c.25,31.14,0,83.35,0,119.68C2217.12,1066.55,2217.47,1001.43,2217.47,967.07Zm-794.22,117.52c-1.18-.16,8.24-.19,6.36-.35,28.16.32,76.64.37,113.87.58C1509.23,1085.08,1482.4,1084.71,1423.25,1084.59Zm344.13-.55c-9.41.08-48.13.18-70.41,0C1713.8,1083.81,1744.32,1083.93,1767.38,1084Zm-719.56-.47c-28.41.37-98.19-.13,0,0ZM2215.35,929.1c.19,5.69.11,48.8,0,56.32C2215.12,974.68,2215.48,953.46,2215.35,929.1ZM596.83,1083.54c17.57-.26,33.38-.1,63.16-.11C642.1,1083.58,616.25,1083.63,596.83,1083.54Zm1618.28-379.4c.2,11.65,0,53.69.11,77.27-.27-46-.39-65.15-.39-126,.3,11.77,0,38.88.2,70.06C2215.13,724.1,2215.1,712.45,2215.11,704.14ZM272.94,1083.64c47.27-.39,96.1-.23,168.48-.32C391.52,1083.68,347.16,1083.57,272.94,1083.64ZM8,249c.43,34.48,0,101.6.14,154.75C7.84,362.51,8.1,321.41,8,249Zm1031.31,833.92c-23.19.21-77.24.06-112.47.12C950.07,1082.78,1004.12,1082.94,1039.31,1082.87ZM928.81,195.55c-13.85.42-45.55.14-84.15.2C849.65,195.6,898.09,195.34,928.81,195.55Zm805.51,1.15c-18.6.2-67.87.05-98.42.11C1662.93,196.58,1698.66,196.63,1734.32,196.7Zm-1055,.85c19.73-.07,18.47.12,35.34.08C708.78,197.82,675.88,197.91,679.29,197.55ZM1156.59,1092c-27.93.19-48.13,0-84.33.12a1.32,1.32,0,0,1,.38,0l1,0,3.52,0,9,0c1.1-.07-2.94-.08-7.25-.08C1086.69,1091.84,1133.56,1091.9,1156.59,1092Zm363.59-1.34c-8.16-.08,3.88-.25-28.48-.17-.86.25,30.87.25-6.51.27,2.39.12,17.77.07,28.32.08-2.94.08-5.84.16-13.73.18,2.75.12,12.43,0,13.93-.1,22.36.3-28.29.46-48.21.55-17.54,0-2.67-.3-.75-.35-27,.07-40.13.15-42.75-.25,18,0,8.75.06,7.41.17,22.28,0,24.51-.17,49.11-.1-37-.49-174.87-.2-197.15.06-2.55.16-34.09-.29-49.31,0,5.81.23,23.11.3,49.86.25,9.69.18-66.26.07-91.36.12.43-.17,23.14-.07,20.6-.27-22.75-.07-21.73.14-27.66.27l-458,0c26.41.17-1.21.19-20.59.27-2.9-.15,5.18-.17,13.73-.18-5.65-.12-16-.12-24.93-.06s-16.63.16-17,.25c-12.91-.17-24.72-.14-49.63-.16-76.76-.08-47.38,0,41.86-.19-24.05-.2-77.36,0-112.82,0,9.66-.34,22.79-.24,42.06-.11-37.23-.82-178.09,0-275.45-.35,34.13.25,95.63.13,148.24.13-12.71.3-28.33.07-56.17.11,18.9.63,123.67-.19,148.94.48l-563-.44v-10.27c-.06-15.49.16-10.35.17-21.5-.53-139.79.17-258.65,0-457.95-.33,4.9.05-23.78-.19-41.9.07-19.22.2,15.69.35,13.38C1.08,512.32.68,504.47,1,432.22c.07,35.23-.09,57,0,77.43V234.87c-.2,52.1,0,125.52-.16,42.64C.86,256.61.75,235,.79,200.2c0-1.94,0-3.3.06-4.22,0-1.3,0-2,.05-2.28,0-.55,0,.53.07,1.59,0,2.16.09,4.16.17-6.53V188l138.39-.17c41.23-.05,79.69-.13,117.76-.35-1.44.19-30.87,0-34.83.19,19.77.3,61-.18,77.59.06,9.53,0,5.41-.22,6.36-.35,30.71.1,17.09-.1,49.11-.1-6.08.15-25.62.15-27.46.36,73.9,0,161.77.14,246.42-.08-1.37-.1-13-.07-21.3-.08,16.32-.33,69.12.12,105.44-.12-37.22-.34-153.45,0-211.95-.29-66.09-.1,83.87-.12,105.44-.12,174.29.05,350.69.51,550.24.36-39.7.41-140.24.1-203.82.23,15.65.33,90.73-.09,85.19.33,21.9,0,19.58-.28,48.92-.19-2.23.11-12.08.14-13.54.27,29.66-.12,37.86,0,70.42,0-2.4-.12-17.77-.06-28.32-.08,18.28-.16,96.1-.15,70.57.07,216.36-.08,496.91.81,768.83.46-4.79-.21-43.27,0-49.62-.16-14-.06,46.72-.08,56.33,0-11.58-.39-87.56-.23-120.23-.22l-105.6,0c99.24-.44,210.45-.26,337.58-.28-4.12.08-15.73.33,7.61.26-18.59.21-67.86.05-98.42.12l218.81.19c-3.38-.19-37.39,0-42.6-.16l116.35.06c0,74.65,0,152.27,0,187.35.22,14.13-.6,75.87-.67,100-.12,41,.43,109.79-.4,127.59.07-6.38.09-16.08.08-28.31-.22,10.43-.18,40.91-.42,50.17.35-27,.57,102.58.12,98.37.17,24.64.11,32.37.19,56-.13-3.69-.22-10.51-.27-20.59-.22,10.08-.53,49.66-.15,63.7-.09,30.4-.59,28.33-.42,78.37-.52,8.21-.73,40-.85,79.24-.22-5.65,0-49.07-.19-56-.2,34-.52,22.28-.6,57.58-.06-.7-.09-5.9-.09-11,0-2.53,0-5,0-6.92s0-3.16.06-3.25c-.14-14.87-.3,26.59-.51,29.22.21,35.62,0,35.81.1,63.2-.77-76.69-1-224-1.15-328.8.09-18,.13-40.21.33-50,0-13.33-.19-17.33-.18-34.87-.12,1.69-.16,29.58-.18.39-.06,13.89-.25,53.71-.15,56.65-.2-.84-.31-18.49-.36-42s0-52.8,0-77c-.19-53.57-.59-104.42-.41-175.3-.15-9.45-.32-19.37-.45-27.25.13,51.65.05,121.4.4,154.15-.4-15.34-.15,27.46-.24,49.86-.46-41.46,0-156.67-.33-210.72-.25,59.42-1.05-58.45-.56-104.5,0-.12-.07-1.34-.1-3.46s-.06-5.14-.1-8.86c0-7.46-.1-17.73-.17-29.26.11,2.9.19,8.66.19,20.79.06-13.55.13-29.57.22-47.32l-90.32-.09-102.53,0c3.72-.35,46.09-.25,76.92-.28-198.09-.27-494.37.57-731.69.49l-106-.14c-21.85,0-27.9-.24-43-.34l-282-.08c-8,0-3.73.08.19.08l-352.41-.06,528.23-.08c-92.38-.54-224.93-.22-352.77-.24l-239.71-.1c-79.43,0-169.14.23-211.39,0l-299.25.06c0,147.11,0,278.29.08,427.72.12-15.1.06-69.63.06-112.78.15,15.57.16,77.2.12,126.54,0,21.54-.09,99-.16,56.69-.06-32.64.11-42.76,0-63.4-.14,85-.13,160.17.07,190.1-.17,21.23-.2,60.33-.19,108,0,46.81.07,102,.1,156.4l68.42,0H647c11,0-6.47-.15,6.71-.18l28.67.25c11,0,5.46-.27,27.82-.18l-.39,0-1,0-3.5,0-9,0c52.53.25,145.69,0,184,.38,22.13-.44,132,0,197-.15,1.49.57-31.58.18-63,.2,73.86.39,90.18.05,190.8.29-32.88-.2-67.4-.38-120.43-.31,47.07-.54,143.88-.09,204.37,0l-78.49-.5c55-.15,104.07.82,163.34.65-45.23.25-86.85-.25-140.83,0,115.29.52,240.07.46,347.51,1.12,21.81.06,13-.24,34.87-.18-18.16.26,23,.29,36.05.42-3.41.16-34.13-.08-49.43-.07-5.8.35,37.27.05,42.8.25-12.32.24-42.63,0-56.52-.07.22,0,4.3.13,10.86.2l25.74.21c20.27.13,45,.2,63,.08-15.5.67,64.71.59,85.9.68-7.06.2-44.17,0-63.15.11l35.73.25c-6.67.51-52.48.22-69.51.46l127.45.31c-4.79-.18-35.62,0-28.88-.34l82.95.35,32.46.2,9.59.13,2.6.07a5.29,5.29,0,0,1,.91.08c-8,0-3.73.09.16.09-55.47.14-107.25-.38-169.31-.12,13.11.29,30.8,0,63.56.07-31,.33,7.68.08,7.72.35-40.64.14-47.43-.22-70.57-.07-1.65.16,7,.18,7.18.09-41.31.68-195.7.49-265.76,1,14.51.19,43.62-.17,56.72.15-.1-.11,1.15-.16,3.75-.18h11.82c10.55,0,26.41.1,47.43,0C1578.31,1090.39,1539,1090.3,1520.18,1090.7Zm700.27-693.31c0,19.81-.42,41.14-.16,56.68C2220.28,434.45,2220.68,411.39,2220.45,397.39ZM2033.5,194.85c-31.5.06-55.78-.23-70.22.11C1988.31,195,2036.67,195,2033.5,194.85Zm-766.92.5c-1-.09,19.33-.09,43-.06l62.84.12c-24.87-.28-105-.31-141.14-.14C1241.75,195.27,1260.66,195.59,1266.58,195.35Zm-414.34,896-.55-.27c-16.12-.06-46.92.12-27.81.19C829.49,1091,834.86,1091.47,852.24,1091.35Zm-197.86-.29c25.18.09,36.17.37,78,.24C704.9,1090.89,690.38,1091.24,654.38,1091.06Zm239.2-.16c1.88-.26-74.45-.28-63.55-.07C845.21,1090.93,882.28,1091,893.58,1090.9Zm-648.45-.15c-23,.27-61.82-.17-69.86.28C214.7,1091.1,250.23,1091,245.13,1090.75Zm1105.59-.26c5.53,0,8.32.07,7.38.17,31.77,0,59.62-.26,84.49,0C1439,1090.29,1354.56,1090.53,1350.72,1090.49Zm-1000.15.14-77.47,0c-.43.22-12.9.28,7.73.35C277,1090.61,361.4,1090.82,350.57,1090.63Zm-239.2.16c11.33.36,38.13.12,56.84.25.16-.09-2.52-.13-6.84-.16l-16.64,0C132,1090.85,117.63,1090.87,111.37,1090.79ZM2220.49,249.34c.13,31.43-.25,63.16.11,70.26C2220.56,300.73,2220.65,233.73,2220.49,249.34Zm-.91,459.82c-.06-21.31.09-60.92-.11-70.25C2219.54,674.32,2219.22,689.35,2219.58,709.16Zm-.53-20.09c.11-22.75,0,28.72.27,20.59-.16-38.52,0-69.66-.12-98.37C2219.21,637.72,2218.81,668.28,2219.05,689.07Zm-1987.45,395c21.3-.06,60.88.09,70.21-.11C280.51,1084,241,1083.89,231.6,1084.09Zm1913.46-889.8c12.55,0,35.1-.1,28.55.16l41,0c0,14.42.07,28.31.1,37.23.05,9.48.13,13.66.25,7.8-.08-3.16-.11-9.43-.12-17.7,0-7.68,0-17.21,0-27.59l-34.81,0C2167.62,194.16,2155.51,194.19,2145.06,194.29Zm70,291.59c0-81.59-.47-53.11,0,0Zm-1090-290.83,27.83,0,10-.05c2.48,0,4-.07,4-.12-9.86,0-22,0-31.78,0l-12.28,0c-3.11,0-5,0-5.21.05C1123.17,194.89,1126,194.94,1125.06,195.05Zm1088.8,166.41c0-8.56.09-4.52.17-.35,0-21.54-.13-60.42.07-70.61,0,24,.24,8.51.1,35.07.05-.11.09-1.36.13-3.5s0-5.16.08-8.78c0-7.26,0-17,.06-26.91,0-19.91-.09-40.88-.21-45.5-.05,14.71.12,46-.07,49.46,0-29.46-.28,4.71-.36-20.44C2213.78,301.44,2213.71,352.44,2213.86,361.46ZM7.93,848c.32,5.17.09,66.13.19,70.06C7.73,935.46,8.18,864.25,7.93,848Zm397.4-660.43c8.13-.33,28.92,0,49-.19-.94.11,1.84.16,7.38.18C454,187.67,431.54,187.59,405.33,187.55Zm1003.48,903.8c-.57.05-2.3.06-3.91.06s-3.09,0-3.15-.06c-18.31.1-43,.12-70.21.11,2.27-.26,39.89,0,20.75-.18.63-.22,23.77,0,28.17,0,6.19,0,12.47-.08,13.73-.18-.91-.17-32.48.16-14.44-.17-23-.1-4.79.28-27.81.18,3.92-.29,33.22-.29,62.84-.28C1405.36,1091.05,1398.54,1091.25,1408.81,1091.35ZM.1,215.73a25.06,25.06,0,0,1,.23,4c.06,2.57.11,6.31.14,11.11.08,9.58.1,23.36.08,40.29-.16,15.29,0-56.41-.36-48.57.19,136,0,179.82,0,310-.35,5-.12-38.48-.2-56,.06-.31.11,8.95.1,13.93Zm1941.14,874.13c-54.81-.13-102.39-.33-28.72-.25,20.2,0,34.56.19,63.74.16,1.46.07-2.58.08-6.87.09-1.13.07,2.91.08,7.23.08-23.34.24-58.25-.13-91.71-.06C1897.38,1089.61,1918.56,1090,1941.24,1089.86ZM1652.8,187.78c20.21-.17-34.23.39-49.15.1C1616.13,187.75,1625.19,187.85,1652.8,187.78Zm567,605.48c0,8.24,0,12.51.09,13.92.05,19.34-.32,7.26-.34,21.85,0,0,0-.74,0-1.9s0-2.79,0-4.72c0-3.86,0-8.9,0-13.74C2219.56,799,2219.65,790.16,2219.78,793.26Zm-647,292.07c-21.57.31-35.11-.25-63.78-.15C1527.94,1084.91,1548.54,1085.37,1572.74,1085.33ZM935,1083.52c8.78,0,6.74-.18-.36-.18l119.88.05c-12.44.28-84.5-.14-76.77.38C961.36,1083.75,901.86,1083.35,935,1083.52Z"/><path class="cls-2" d="M477.52,94.33l18.65-22.92a112.09,112.09,0,0,1-30.89,11.41"/><path class="cls-2" d="M482.47,83.68a2.2,2.2,0,0,0-.4.59C482.48,83.83,483.1,82.92,482.47,83.68Zm-1.63,2.15c0,.1-.09.27-.24.44C480.51,86.19,480.72,86,480.84,85.83ZM483,83.18a4.94,4.94,0,0,1,.71-.89,1.82,1.82,0,0,1-.12.35C483.56,82.35,483.15,83.17,483,83.18Zm-2.55,3.31c.06.07-.13.24-.07.31s0-.14.17-.23a.87.87,0,0,1-.2.47c0-.09,0-.1-.11,0C480.08,86.94,480.28,86.71,480.43,86.49Zm4-5a3.17,3.17,0,0,1,.7-.89C485.07,81,484.66,81.21,484.45,81.53Zm-1.59,2.09c0-.09.37-.66.47-.53C483.17,83.36,483,83.39,482.86,83.62Zm.15,0c.2.09-.68.9-1,1.39C482.19,84.48,482.73,84.16,483,83.64Zm3.87-5,.27-.33c.16,0-.13.26-.2.39Zm.51-.5c0-.12.43-.74.56-.64Zm4.76-5.83c0,.28-.5.78-.8,1.17A7.93,7.93,0,0,1,492.15,72.32Zm2.06,3c0-.27.71-.32,1.13-.66C495.38,74.71,494.53,75.08,494.21,75.28Zm-1.35.7c.09-.33.7-.41.93-.58C493.8,75.62,493.13,75.78,492.86,76ZM480.28,87.89c-.15.49-.71.66-.93,1.17C479.29,88.8,479.94,88.33,480.28,87.89Zm13.94-17.84a1.85,1.85,0,0,1-.42.67A1.74,1.74,0,0,1,494.22,70.05ZM476.14,93.21c.21-.18.23-.32.47-.53C476.61,92.77,476.24,93.33,476.14,93.21ZM466.5,82.8a4.26,4.26,0,0,1-1.17.27C465.49,82.84,466.17,82.87,466.5,82.8Zm16.9,6c.07,0,0,.12.1.16a6.16,6.16,0,0,0-.95.71C482.67,89.33,483,89.23,483.4,88.81Zm-2,2.86a1.46,1.46,0,0,1,.44-.56C481.86,91.33,481.62,91.53,481.43,91.67Zm4.76-5.47c0-.34.67-.73,0,0Zm-19.54-4.52c0,.1-.47.16-.55.13C466.18,81.67,466.42,81.8,466.65,81.68Zm22.42,1c0,.22-.18.29-.36.53A1.14,1.14,0,0,1,489.07,82.68Zm-20.26-1.63c-.09.13-.52.15-.74.23a3.68,3.68,0,0,1,1.18-.48c-.08.17-.37.11-.66.26C468.62,81.11,468.73,81.06,468.81,81.05Zm22.28-.93a5.44,5.44,0,0,1-.95,1.41A5.71,5.71,0,0,1,491.09,80.12Zm3.37-9.42c.16-.27.6-.41,1-.6l6.76-3.22-4.89,5.46a2.34,2.34,0,0,0-.24.31,1.19,1.19,0,0,1,.19-.35l4.25-5.79-6,3.65C495.23,70.31,494.89,70.43,494.46,70.7Zm-7.95,15.65a5.69,5.69,0,0,1,.67-.92A5.69,5.69,0,0,1,486.51,86.35Zm-1-11.73c0-.25.39-.25.73-.42A1.16,1.16,0,0,1,485.54,74.62Zm-7.65,2.32c.14-.16.63-.24.9-.38A2.06,2.06,0,0,1,477.89,76.94Zm9.5-4.23c-.16.11-.19,0-.33.1C487.07,72.7,487.35,72.53,487.39,72.71Zm-5.18,11.66a4.25,4.25,0,0,1,.49-.69s0,.09-.05.14.05,0,.08,0A1.56,1.56,0,0,1,482.21,84.37Zm-1.79,3.27c.08,0,.07.11.24-.17-.09-.09-.29.16-.06-.14-.06,0-.14.12-.21.2a.19.19,0,0,1,0-.16c-.07,0-.08.09-.05.13-.26.08,0-.36.09-.54s.13.07.14.1c.15-.23.2-.36.37-.25-.11.14-.08,0-.11,0-.16.16-.09.24-.27.42a3.69,3.69,0,0,0,1.23-1.57c-.05-.07.32-.17.3-.39-.12,0-.26.09-.41.32-.13,0,.39-.54.54-.76.06.06-.13.21,0,.25.17-.16.08-.21.07-.3,1-1.23,1.78-2.26,2.92-3.57-.23.15-.06-.07,0-.25.08,0,0,.1,0,.17.17,0,.26-.33.2-.39.14,0,.21-.15.37-.34.52-.57.29-.38-.19.39.23-.13.5-.6.74-.87.07.18-.05.26-.23.36.56,0,1.14-1.38,1.89-2a5.68,5.68,0,0,0-1,1.12c0-.19.15-.24.31-.47-.36,0-.71,1-1.13,1,1.35-1.55,2.59-2.83,3.76-4.27.08-.14.13,0,.2-.12.69-1.26,1.72-2,2.93-3.57-.16-.06.17-.17.19-.39s0,.19.05.22c.35-.5.24-.69.85-1.14-.2.3-.4.42-.49.61.29-.31.63-.71.94-1.1l2.53,3-1.17.66c.52-.17,1.13-.61.42-.14a3.73,3.73,0,0,1-.67.43c-.16,0,0-.1-.15-.12a16.66,16.66,0,0,0-2.19,1.42c0-.09.28-.16.28-.25-.25,0-.52.36-.73.33s0,.12,0,.19c-.31.09-.14.12-.43.26,0-.09.2-.18.17-.28-.67.36-1.52.66-2.27,1.13,0,0,.14,0,.22-.06-.08.22-.67.25-1,.51.42,0,1.43-.67,2-.79s-.75.43-1,.51c-1.64.75-3.39,1.26-5.26,2.11a9.81,9.81,0,0,1,1.89-.92c-.21-.08-.84.41-.87.19-.21.09-.13.21-.43.29,0-.07.09-.12.08-.18a2.64,2.64,0,0,1-.66.29s.18,0,.28-.08c-.14.15-.89.45-.68.24-2.05.88-4.89,1.47-7.48,2.49.08.09.41-.15.5-.08s-.44.19-.54.19c.17.15.89-.18,1.2-.29s.65-.25,1-.36a15.15,15.15,0,0,1-3.24,1.22s.1-.2-.12-.1c.15-.16.66-.23.95-.36-.69.15-1.49.46-2.17.58.06.08.36-.12.44,0-.86.26-2.42.59-2.93.81-.11.14-.82-.08-1.07,0-.42,0-1,.49-1.31.13a.66.66,0,0,0,.29,0c-.13-.08-.43,0-.55-.07.31.1-.94.53-1,.3a2.38,2.38,0,0,1-.53.22.33.33,0,0,1,.17-.18c-.12-.08-.55-.14-.65.08-.31,0-.34-.22-.82,0-.14-.24-.48-.27-.88-.25,0-.11.49-.1.54-.21-.36,0-.28-.21-.64-.17,0-.06.19-.1.21,0,.13-.1-.29-.09-.34-.19-.33.18-.35.1-.61.19a12.38,12.38,0,0,1,3.09-1.3,1.37,1.37,0,0,1,.52.05c.13-.05.15-.14.32-.18,0,0-.3,0,0-.08-.15,0-.56,0-.57.06,0-.19.63-.38,1.1-.48a5.91,5.91,0,0,1,1.64-.65,1.87,1.87,0,0,0,.2-.29,6.76,6.76,0,0,0-1.43.6c.1-.24-.28,0-.51,0,.34-.31,1.51-.4,2-.7-.6,0,.42-.66.93-.55,0-.06.13-.18.34-.29,0,.06-.06.11-.17.15a7.92,7.92,0,0,0,2.38-.58c0,.18-.39.26-.68.36,1.92-.45,4.58-1.78,6.78-2.59.35-.13.72-.18,1-.31s.3,0,.46,0c1.06-.47,1.63-.63,2.61-1,.07,0,0,0,0,0,.94-.44,2.34-1,3.21-1.39a40.75,40.75,0,0,1-4.8,2.13,13.22,13.22,0,0,0,3.28-1.26c.75-.32,1.5-.64,2.19-1a13.08,13.08,0,0,1,1.9-.9c1.59-.83,2.89-1.5,4.19-2.21l6-3.26-4.29,5.3c-.52.64-1,1.31-1.6,2a5.29,5.29,0,0,0,.74-.86,4.85,4.85,0,0,1-.76,1c-.14.16-.66.74-.42.39s.32-.3.4-.5a6.84,6.84,0,0,0-1.19,1.5,20.74,20.74,0,0,0-2.18,2.63c-1.11,1.34-2.27,3-3.62,4.46-.06.1.1,0,0,.11a1.46,1.46,0,0,1-.28.14c-.05.1.07.13-.1.28,0,0,0-.09,0-.14-.43.33-.91,1.15-1.32,1.32,0,.31-.83,1-1.19,1.58-.23-.16.13-.3.32-.55-.62.45-.59.69-1.33,1.4a3.1,3.1,0,0,0,.89-.84c-.09.53-.88,1.15-1.31,1.59a5.24,5.24,0,0,0,.7-.46c-.3.48-1,.56-1.29,1.07.18-.43.64-.6.87-1.11-.93.74-1.7,1.73-2.64,2.36-.16.15,0,.18-.15.33,0-.22-.26.09-.39.15s.25-.24.34-.36c-.1-.16-.26.27-.37.25,0-.17.28-.32.39-.42-.09-.06-.69.27-.83.63-.16-.33-.64.32-.81.45,0-.11.26-.36.36-.52-.1,0-.22.17-.32.2-.16-.22.25-.48.26-.69a11,11,0,0,0-.93.9c.1,0,.23-.28.32-.12-.43.3-1,.88-1.15.74.05-.07,0-.06,0,0,.3-.48.83-.72,1.12-1.28-.19,0-.19.24-.43.47.07-.35-.08,0-.18,0,.2-.36.38-.3.47-.53,0-.06-.11,0-.08,0,0-.54,1.06-1.68,1.32-2.38-.17.05-.21.39-.42.39.17.14-.14.16-.33.56C480.17,88.19,480.45,87.91,480.42,87.64Zm-7.94-4.79c-.19.06-.46-.09-.58.08C472.1,82.87,472.38,83,472.48,82.85Zm2.88-4.11c.29-.13.57-.06.65-.26C475.77,78.53,475.31,78.67,475.36,78.74ZM482.47,76c0,.07-.75.29-1,.35a2.89,2.89,0,0,0,1.33-.45C482.72,75.92,482.48,75.84,482.47,76Zm1.94,6.23.11.08c.13-.1.25-.4.11-.27C484.69,82.14,484.48,82,484.41,82.21Zm1.37-1.45c-.19.16-.37.16-.58.53C485.53,81.2,485.49,81,485.78,80.76Zm-1.45,1.92c.08.09.58-.5.43-.48S484.35,82.55,484.33,82.68Zm4.18-5c0-.27.46-.44.33-.64C488.57,77.31,488.37,77.61,488.51,77.66Zm-6.93,8.72c-.05,0-.08,0-.12,0-.22.24-.28.55-.52.67C481.09,87.13,481.54,86.4,481.58,86.38Zm6.3-7.86.49-.62c-.09-.07,0-.18-.19-.05C488.36,78,487.74,78.54,487.88,78.52Zm1.46-1.92c-.21,0-.28.26-.45.36C489,77.08,489.2,76.64,489.34,76.6ZM474,82.46c-.29.16-.66.06-.68.25C473.45,82.64,474.12,82.5,474,82.46Zm-4.66.77c.21-.07.62-.1.68-.22C469.63,83.13,469.45,83,469.29,83.23Zm.14-.3c.24,0-.28.09-.17.18.36-.17.69-.15.95-.3C470,82.88,469.61,82.76,469.43,82.93Zm21.75-3.28c-.11.19-.43.45-.41.58C490.88,80.05,491.2,79.79,491.18,79.65Zm-16.79-.32c-.13,0-.33.15-.3,0-.33.1-1,.32-.82.44C473.35,79.58,474.05,79.62,474.39,79.33Zm-3.48,1.15c.79-.23.45-.37,0,0Zm12.92-4.88c-.17.07-.39.13-.35.24.17-.12.48-.12.46-.19S483.85,75.65,483.83,75.6Zm-11.88,4c.09,0,.06,0,0,.08.21,0,.56-.22.69-.16-.23.09-.05.14-.33.15.06.18.77-.06.82-.21-.14,0-.42.19-.48.11.28-.1-.08-.12.15-.23A2.58,2.58,0,0,0,472,79.58Zm22.23-3.53c.1.15-.38.55-.37.61C493.55,76.67,494.18,76.26,494.18,76.05Zm-2.18,0c0,.19-.26.13-.41.3,0-.05,0-.06-.1,0S491.75,76.17,492,76.07ZM480.87,86.56s0-.07.05,0a2.93,2.93,0,0,1,.4-.59c.09.1-.23.33-.06.22.08.08-.14.2-.18.23s0,.12,0,.16.14-.31.16-.06c.18-.15-.08-.13.1-.27.09.12-.1.35-.29.58C481,86.63,481,86.51,480.87,86.56ZM496,74.35c-.08-.16.08-.32.4-.47.17,0-.51.28-.36.4.55-.34.93-.56,1.28-.74l-3.06-3.67-1.09,1.28c-.17-.07.2-.34.28-.5,0,0,0,.1-.05.14.21-.22.5-.58.8-1l3.16,3.79C496.94,73.86,496.46,74.13,496,74.35Zm-18,16.84c.4-.38.79-.69.28-.14-.13.15-.29.21-.46.45,0,0,0,0,0-.08s-.05,0-.08,0c.05-.25.42-.41.6-.69C478.44,90.93,478.16,91,478.06,91.19Zm2.07-10.31c-.17.15.27-.3.46-.22C480.49,80.77,480.39,80.75,480.13,80.88Zm-11.65,2.65c-.08,0-.12,0-.13.08-.18.07-.1-.14-.25-.12S468.51,83.38,468.48,83.53Zm13.68,6.21c0-.26.33-.19.47-.45C482.61,89.53,482.3,89.54,482.16,89.74Zm4.77-4.41c-.05.08,0,.11.07,0-.23.26-.49.6-.79.92,0-.18.6-.61.35-.71C486.67,85.46,487.2,85.12,486.93,85.33Z"/><path class="cls-2" d="M456.13,84.1a14.49,14.49,0,0,1-17.74-6.64A14.83,14.83,0,0,1,443.22,59a14.43,14.43,0,0,1,18.66,3.1,14.89,14.89,0,0,1-1.27,19.1"/><path class="cls-2" d="M440.12,84a3.82,3.82,0,0,0,.92.64C440.3,84,438.9,83,440.12,84Zm3.64,2.18a1.57,1.57,0,0,1,.74.21C444.45,86.48,444.05,86.26,443.76,86.15Zm-4.45-3A6.26,6.26,0,0,1,438,81.89a3.12,3.12,0,0,1,.47.33c-.18-.07,0,.14.23.37A2.75,2.75,0,0,1,439.31,83.18Zm5.6,3.35c.06-.07.4.11.46,0s-.2,0-.42-.14a2.32,2.32,0,0,1,.77.12c-.14,0-.12.06.08.12C445.75,86.8,445.29,86.67,444.91,86.53Zm-7.84-6.06a5.32,5.32,0,0,1-1-1.54C436.47,79.28,436.66,80,437.07,80.47Zm2.84,3c-.12,0-.94-.71-.79-.79C439.5,83,439.57,83.2,439.91,83.49Zm0-.18c.06-.21,1.37,1.08,2.19,1.46A9.72,9.72,0,0,1,439.91,83.31ZM434.73,75l-.16-.65c.13-.14.16.41.24.63Zm-.14-1.11c-.08-.16-.32-1.3-.13-1.32C434.5,73.2,434.53,73.33,434.59,73.86Zm2-11.26a18.69,18.69,0,0,1-.82,2A9.05,9.05,0,0,1,436.59,62.6Zm7.7-7c0,.3-1.12.41-1.77,1,0-.05.29-.24.67-.45Zm2.22-.76c-.27.29-1.17.4-1.56.58C445,55.18,446,54.94,446.51,54.81Zm.35,31.56c.72,0,1.37.47,2.18.41a1.61,1.61,0,0,1-.89,0C447.74,86.62,447.26,86.46,446.86,86.37Zm-7.3-27.47a5.66,5.66,0,0,1-.74,1A3.42,3.42,0,0,1,439.56,58.9ZM456.8,85.74c-.41.09-.55.22-1,.33C455.86,86,456.78,85.58,456.8,85.74Zm5.06-5.63c-.15.43-.76.85-1.07,1.23C460.83,81,461.58,80.5,461.86,80.11ZM446.18,83c0-.08.13,0,.14-.14a6.24,6.24,0,0,0,1.24.73C447.12,83.55,446.84,83.3,446.18,83Zm4.16.66a1.64,1.64,0,0,1-.85-.07C449.71,83.47,450.06,83.59,450.34,83.64Zm-7.79-3.44c-.37-.09-.8-.84,0,0Zm18.77-1.13c0,.11-.33.53-.42.57C460.88,79.46,461.18,79.36,461.32,79.07ZM439.47,76c.21.14.21.34.35.65A1.52,1.52,0,0,1,439.47,76Zm23.15.63c0,.17-.28.61-.38.89a9.39,9.39,0,0,1,.47-1.51c.08.19-.14.46-.25.84C462.52,76.81,462.56,76.68,462.62,76.59Zm-24.09-4.31a19.32,19.32,0,0,1,.48,1.93A4.73,4.73,0,0,1,438.53,72.28Zm4.92-11.73c-.2.39-.92.77-1.33,1.26a1.71,1.71,0,0,1,.52-.59C442.86,61,443.11,60.81,443.45,60.55Zm-.74,19.32a4.58,4.58,0,0,1-1-.86C442,79.15,442.39,79.62,442.71,79.87Zm11.84-20.7c-.22.17-.52-.1-1-.15A1.3,1.3,0,0,1,454.55,59.17Zm6.56,6c-.2-.12-.37-.64-.59-.9A2.31,2.31,0,0,1,461.11,65.17Zm-9.52-5.55c.22,0,.2.08.38.08C451.9,59.79,451.54,59.78,451.59,59.62ZM441.13,84.46A7.29,7.29,0,0,1,440,83.7s.13,0,.2.1,0-.06-.06-.11A3.93,3.93,0,0,1,441.13,84.46Zm5.31,1.83c-.11-.07.09-.09-.38-.21-.06.12.4.26-.14.1,0,.07.25.11.4.17a.32.32,0,0,1-.23,0c0,.07.18.06.22,0,.28.25-.48.09-.79,0s0-.15.05-.17c-.41-.09-.6-.15-.57-.35.26.11.11.08.07.13.31.15.38,0,.73.2A14.93,14.93,0,0,0,443,85.05c-.07,0-.39-.36-.66-.36,0,.14.23.32.61.48,0,.07-.19,0-.47-.19l-.77-.49c.05-.06.32.17.34.06-.27-.21-.32-.12-.43-.11a14.75,14.75,0,0,1-4.89-5.14c.14.4-.09,0-.28-.22,0-.07.11,0,.19.15,0-.22-.34-.56-.42-.53A3,3,0,0,0,436,78c-.46-1.13-.34-.67.35.56-.06-.39-.52-1.1-.68-1.64.2.09.23.29.3.59a4.79,4.79,0,0,0-.44-1.74,8.62,8.62,0,0,1-.49-2.4,7.54,7.54,0,0,0,.37,2.24c-.19-.15-.13-.41-.24-.83-.12.18,0,.65.16,1.11a2.36,2.36,0,0,1,.26,1.19,17.36,17.36,0,0,1-.6-8.62c0-.23.1-.14.13-.3.17-2.14,1-3.82,2.56-6.41-.18,0,.2-.3.28-.58s-.06.25,0,.26c.53-.75.4-1,1.3-1.72a6.39,6.39,0,0,0-.76.92,18.7,18.7,0,0,1,3-2.94c-.74.38-1.51,1.24-.59.33a8.59,8.59,0,0,1,.94-.76c.21,0,0,.12.2.08a26.33,26.33,0,0,1,3.43-1.92c0,.1-.45.17-.48.27.34,0,.87-.4,1.15-.35s.05-.13.05-.2c.48-.06.25-.11.73-.22-.07.09-.37.16-.37.27a23.49,23.49,0,0,1,3.75-.54c0-.05-.2,0-.33,0,.25-.2,1.06.05,1.63,0a15.56,15.56,0,0,0-3.29,0c-.52,0-.2,0,.3-.1a10.53,10.53,0,0,1,1.34-.1,14.64,14.64,0,0,1,4.09.46,21.37,21.37,0,0,1,4.14,1.46c-.62-.12-2-.82-3-1,.18.22,1.35.36,1.19.55.31.12.33,0,.73.18-.06,0-.2,0-.24,0a3.42,3.42,0,0,1,1,.41c0-.06-.22-.15-.37-.22.29,0,1.35.59.95.51a13.68,13.68,0,0,1,4.27,3.52,18.64,18.64,0,0,1,3,5.37c.08-.11-.22-.62-.16-.74a3.68,3.68,0,0,1,.28.8c.14-.22-.32-1.3-.55-1.74a13.56,13.56,0,0,0-.76-1.44,11.14,11.14,0,0,1,2,4.77c0-.06-.21-.2-.1.14-.17-.26-.24-1-.42-1.44.13.51.23,1.07.36,1.63s.16,1.12.17,1.62c.1-.06-.07-.55,0-.64a22.06,22.06,0,0,1,0,4.42c.1.24-.47,1.08-.58,1.41-.16.57-.21,1.63-.67,1.75a1.07,1.07,0,0,0,.15-.38c-.14.11-.26.54-.42.62.3-.31-.26,1.51-.49,1.34a4,4,0,0,1-.27.78.54.54,0,0,1,0-.33c-.15.08-.54.51-.5.77-.27.35-.45.2-.77.84-.29,0-.64.24-1,.64,0-.13.41-.54.39-.68-.37.32-.4.09-.71.45,0,0,.12-.26.17-.23.06-.2-.34.19-.44.15-.24.41-.31.36-.53.65a40.41,40.41,0,0,0,1.91-3.84c.15-.18.27-.44.41-.52a2.07,2.07,0,0,1,.07-.45c-.06,0-.21.33-.09,0a2.71,2.71,0,0,0-.32.65c-.18-.11.13-.9.32-1.48.05-.33.07-.66.11-1a4.55,4.55,0,0,1,.18-1.15,2.41,2.41,0,0,0-.18-.36,7.38,7.38,0,0,1-.11,1,4.67,4.67,0,0,0-.05.86c-.15-.23-.17.31-.29.56-.06-.54.48-1.85.37-2.53-.22.68-.4-.75-.19-1.27-.07,0-.13-.22-.17-.49.05,0,.09.1.09.24a6.57,6.57,0,0,0-.14-2.91c.2,0,.22.52.29.88A9.54,9.54,0,0,0,461.78,65,13.24,13.24,0,0,0,459,61.64c-.32-.27-.62-.59-.92-.81s-.21-.27-.34-.4a14.56,14.56,0,0,0-3-1.44c-.1,0-.06,0,0,0a15.54,15.54,0,0,0-4.15-.66,12.08,12.08,0,0,1,6.12,1.38,8.57,8.57,0,0,0-4-1.39,13.69,13.69,0,0,0-2.9-.16,9.29,9.29,0,0,0-1.43.2,4.63,4.63,0,0,1-1.09.2,11.71,11.71,0,0,0-4,2,11.43,11.43,0,0,0-2.77,3.18,3.24,3.24,0,0,0,.32-.45l.47-.65a15.06,15.06,0,0,1-.8,1.29c-.17.2-.62,1-.42.55s.31-.42.38-.67a5.21,5.21,0,0,0-1,2.07c-.47.49-.88,2.41-1,4a13.75,13.75,0,0,0,1.14,6.68c.07.11,0-.1.11,0l0,.36c.09.11.16,0,.25.24,0,0-.08-.07-.12-.12.18.62.95,1.45,1.08,1.93.18,0,.44.33.74.68a7.37,7.37,0,0,0,1,1c-.17.23-.36-.17-.64-.44a2.81,2.81,0,0,0,.73.76l1,.79c-.14-.15-.29-.3-.47-.46a5.46,5.46,0,0,0-.64-.53c.6.15,1.42,1,2.08,1.39-.21-.21-.45-.44-.7-.7a3.8,3.8,0,0,1,.75.64,2,2,0,0,0,.85.59c-.57-.1-.91-.58-1.55-.78a17.72,17.72,0,0,0,3.83,2.17c.27.09.19-.08.46,0-.26.07.25.23.41.3-.06.08-.43-.12-.62-.16-.11.14.46.14.52.24-.18.09-.54-.14-.71-.2a1.64,1.64,0,0,0,1.24.49c-.26.3.82.42,1.11.45-.11.1-.61,0-.86,0a4.52,4.52,0,0,0,.47.18c-.12.27-.73,0-1,.11a7.15,7.15,0,0,0,.83.21l.93.11c-.06-.09-.5,0-.4-.19.69.21,1.8.18,1.82.42-.11,0-.05,0,0,0a4.67,4.67,0,0,1-1.18,0,5.51,5.51,0,0,0-1.24-.08c.17.16.44,0,.91.09-.46.14.1.05.1.18-.59,0-.68-.15-1-.09,0,.08.1.09.1,0-.63.3-2.87-.16-3.9-.36.18.16.64.12.78.34.05-.21.3.09.94.13C447.32,86.37,446.76,86.21,446.44,86.29Zm19.86-13c0,.3-.31.57-.22.82C466.12,73.81,466.4,73.51,466.3,73.28Zm-3.2-5.14c-.12-.36-.05-.68-.25-.81C462.89,67.63,463,68.19,463.1,68.14Zm-4.94-7.33c0-.08.77.56.95.78a3,3,0,0,0-1.28-1C457.94,60.62,458,60.86,458.16,60.81ZM437.9,80.94l.1-.09c-.12-.22-.47-.56-.33-.3C437.83,80.55,437.69,80.75,437.9,80.94Zm-1.53-2.7a2.86,2.86,0,0,0,.49,1.13C436.83,78.89,436.54,78.79,436.37,78.24Zm2.12,3.05c.06,0-.11-.27-.27-.48s-.32-.41-.31-.31A2.09,2.09,0,0,0,438.49,81.29ZM435,72.14c-.15-.34,0-.93-.17-1.06C434.76,71.69,434.83,72.23,435,72.14Zm9.14,13.15c.07,0,.1.08.06.13a6.28,6.28,0,0,1,1.18.48C445.35,85.72,444.14,85.34,444.1,85.29Zm-8.91-11.56c-.06-.39-.12-.78-.16-1.17-.11,0-.15-.18-.17.14C435.05,72.62,435.11,73.9,435.19,73.73ZM435,70.12c-.19.16-.08.57-.16.86C435,71,434.86,70.31,435,70.12Zm31.54,1c.05.47-.14.93,0,1C466.52,71.86,466.57,70.87,466.49,71.1Zm-1.86,6.45a3.46,3.46,0,0,0,.33-1C464.8,77.08,464.59,77.22,464.63,77.55Zm-.13-.37c.18-.28-.13.39,0,.33.15-.54.39-.93.46-1.34C464.84,76.53,464.5,76.86,464.5,77.18Zm-26.22-5.39c0,.26,0,.75.12.85C438.31,72.39,438.39,71.9,438.28,71.79Zm25.29-2.34c0,.16.07.43-.07.36,0,.21.05.55.08.8s.06.43.15.32C463.59,70.77,463.78,69.94,463.57,69.45ZM463.42,74c.19-1-.1-.7,0,0ZM456.8,59.82c.2.1.44.24.49.14-.23-.06-.49-.32-.53-.26S456.83,59.78,456.8,59.82Zm6.29,12.57c0-.11.05,0,.09,0a5.22,5.22,0,0,1,.1-.85c0,.29.13.11,0,.43.23,0,.2-.92.08-1,0,.18.05.57-.05.6,0-.36-.14,0-.18-.25A6,6,0,0,0,463.09,72.39Zm-23.86-6.14c.11.11-.22.77-.18.84C438.81,67.23,439.25,66.47,439.23,66.25Zm8.55-11.42c.09-.18.44-.06.73-.2,0,0,0,.07.13.07A2.88,2.88,0,0,1,447.78,54.83Zm-3,31.2s-.1,0-.1,0a4.56,4.56,0,0,1-1-.39c.09-.09.57.24.33.06.05-.1.34.13.4.17s.19,0,.23,0-.49-.11-.17-.16c-.3-.18-.13.1-.43-.08.12-.11.53.06.94.24C444.74,85.87,444.61,85.92,444.73,86Zm-3.21-29c.1.15-.14.4-.58.71-.24.08.72-.54.52-.61A18.39,18.39,0,0,0,438,60.6c-.18,0,.31-.53.46-.76,0,0-.05.14-.1.2A17.18,17.18,0,0,1,441.52,57.07Zm11.2,29.44c-.82,0-1.52-.09-.44-.09a3.87,3.87,0,0,0,1,0s0,0-.1.06.05,0,.11,0c-.33.18-.87.06-1.36.1C452.06,86.43,452.38,86.62,452.72,86.51ZM464.45,62c.24.22-.45-.34-.47-.6C464.14,61.55,464.18,61.69,464.45,62Zm-.27,16.67c-.06.1-.08.17-.06.2-.13.26-.2,0-.32.19C463.76,79.05,464.12,78.56,464.18,78.7Zm-16.33,5.2c-.3.09-.4-.22-.75-.29C447.36,83.56,447.54,83.86,447.85,83.9Zm-6.23-4.65c.08.07.12,0,.06-.06.24.32.65.62,1,1-.2,0-.68-.73-.79-.48C441.72,79.58,441.43,78.9,441.62,79.25Z"/><path class="cls-2" d="M457.52,47.32l-1.35,3.78c-1.91-7.68-12.85-11.08-18.69-5.81-2,1.8-3.32,4.27-5.29,6.11s-5.09,3-7.3,1.42c-1.36-1-2-2.67-3.36-3.67-2.95-2.2-7,.15-10,2.3s-7.47,4-9.91,1.24"/><path class="cls-2" d="M449.46,47c.16.09.38.28.55.29C449.62,46.89,448.68,46.59,449.46,47Zm1.91,1.3c.1,0,.22.1.34.24C451.62,48.59,451.49,48.38,451.37,48.26Zm-2.43-1.64c-.32-.12-.55-.22-.92-.38a1.25,1.25,0,0,1,.34,0c-.13.06,0,.11.19.16S448.92,46.54,448.94,46.62Zm2.94,2.05c.08-.05.19.14.27.09s-.12,0-.17-.18a.71.71,0,0,1,.39.22c-.08,0-.1,0,0,.11C452.22,49,452.05,48.82,451.88,48.67Zm-4.73-2.83a3.37,3.37,0,0,1-1-.21C446.46,45.51,446.82,45.81,447.15,45.84Zm2.2.78c-.08,0-.64-.18-.55-.31C449.07,46.4,449.12,46.53,449.35,46.62Zm0-.14c0-.1.28,0,.55.16a5.76,5.76,0,0,0,.82.54C450.18,47.12,449.9,46.58,449.35,46.48Zm-5.48-1.07-.37.05c-.08-.15.24-.09.36-.13Zm-.62,0c-.11,0-.69.26-.73.1A2.89,2.89,0,0,1,443.25,45.4Zm-5.44,3.24c0-.29.52-.78.83-1.1A13.76,13.76,0,0,1,437.81,48.64Zm-5.79,6c0-.28,1-.54,1.46-1.12C433.54,53.63,432.47,54.38,432,54.65Zm-2,1c.22-.34,1.07-.48,1.39-.72C431.43,55.12,430.49,55.4,430.05,55.6ZM453.11,49c.45.23.35.8.7,1.15C453.54,50.14,453.47,49.4,453.11,49Zm-17.54,2.2a2.93,2.93,0,0,1,.5-.78A2.32,2.32,0,0,1,435.57,51.21Zm23.62-3.29c-.15.27-.12.42-.3.74C458.87,48.56,459.06,47.83,459.19,47.92Zm-56.62,5.82a1.6,1.6,0,0,1-.6-.34c-.19-.19-.36-.39-.52-.54a1.07,1.07,0,0,1,.52.39A4.64,4.64,0,0,0,402.57,53.74Zm52.05-7.65c.05-.06.14,0,.19-.06a3.63,3.63,0,0,0,.32.61c.11.23.24.46.33.68C455.11,47.06,455.09,46.66,454.62,46.09Zm2.49,3.53a4.45,4.45,0,0,1-.36-.82A1.11,1.11,0,0,1,457.11,49.62Zm-5.89-6.77c-.4,0-1.08-.61,0,0ZM403.4,53c-.08.05-.43-.13-.45-.23C403.08,52.7,403.17,52.93,403.4,53Zm42.4-11.75c.24-.1.43,0,.8.05A1.82,1.82,0,0,1,445.8,41.22ZM405.46,53.1c-.1.11-.52.07-.74.08l.54-.16.65-.12c-.09.17-.37.08-.66.18C405.27,53.13,405.38,53.1,405.46,53.1Zm36.23-11.59a5.27,5.27,0,0,1,2.13-.45,5,5,0,0,1-.95.22A5.76,5.76,0,0,0,441.69,41.51Zm-10,8.36c.09-.4.7-.78,1-1.27C432.55,49,432.17,49.3,431.7,49.87Zm19.59-7.38c-.32,0-.9-.44-1.35-.54A4.92,4.92,0,0,1,451.29,42.49Zm-26.56,7.64c.26,0,.35.34.59.58C425.24,50.73,424.85,50.46,424.73,50.13ZM414.55,47a5.24,5.24,0,0,1,1.22-.54A5.1,5.1,0,0,1,414.55,47Zm12.06,3.69c-.08,0,0-.09-.08-.1S426.69,50.49,426.61,50.64ZM450.1,47.1c-.27-.05-.36-.24-.67-.34,0,0,.09,0,.13,0s0-.05,0-.07S450,46.93,450.1,47.1Zm2.83,1.73c0-.08.12,0-.08-.27-.11.07.06.31-.14,0,0,0,.06.15.11.23a.16.16,0,0,1-.14,0c0,.05.06.09.11.07,0,.26-.31-.08-.47-.17s.1-.12.13-.12c-.2-.15-.3-.21-.17-.37.11.12,0,.08,0,.11.12.16.22.11.34.29,0-.2-.28-.51-.55-.78a1.92,1.92,0,0,0-.75-.46c-.07,0-.15-.31-.35-.29,0,.13.07.26.27.4,0,.13-.46-.38-.69-.46.05-.07.2.08.24,0-.16-.14-.21,0-.3,0a11.33,11.33,0,0,0-3.86-1.67c.21.15,0,.09-.22.09,0-.08.07-.07.14-.06-.07-.15-.37,0-.39,0-.11-.09-.22-.09-.44-.14-.69-.14-.44,0,.39,0a3.13,3.13,0,0,0-1-.14c.1-.17.22-.13.39,0-.15-.26-.58-.23-1.07-.23s-1,.17-1.48.12a6.62,6.62,0,0,0,1.37,0c-.11.14-.26,0-.51.08.18.25,1.14-.1,1.36.23a8.31,8.31,0,0,0-4.89.83c-.11.09-.12,0-.21,0-.26.18-.44.42-.68.59a8.17,8.17,0,0,0-.73.57,10.25,10.25,0,0,0-1.73,1.88c.16.06-.18.18-.21.42s0-.2-.05-.23c-.38.56-.27.76-.93,1.31.23-.35.44-.5.54-.71-.61.69-1.49,1.84-2.14,2.54.54-.41,1.06-1.17.43-.34a4.72,4.72,0,0,1-.66.76c-.18,0,0-.11-.19-.06A16.43,16.43,0,0,1,430.9,55c0-.09.39-.21.4-.3-.3,0-.74.46-1,.43-.12.06,0,.13,0,.19-.45.11-.22.15-.69.29.07-.1.35-.19.34-.3a8.74,8.74,0,0,1-3.83.38c0,.06.21.08.35.1-.3.14-1.16-.25-1.79-.43a3.79,3.79,0,0,0,1.65.55,15.06,15.06,0,0,0,1.91.08c.53,0,.2,0-.32.09a8.16,8.16,0,0,1-1.46,0,6.5,6.5,0,0,1-2.25-.75,6.57,6.57,0,0,1-1.78-1.47c-.91-1-1.43-2-2-2.49.34,0,.8.88,1.36,1.52,0-.28-.68-.83-.47-.89-.14-.18-.23-.08-.37-.33.06,0,.12,0,.18,0a2.27,2.27,0,0,1-.41-.47c0,.06.07.14.13.2-.18-.09-.55-.45-.35-.41a2.89,2.89,0,0,0-2.19-.76,7.35,7.35,0,0,0-3.55,1.32c.1.06.38-.23.48-.18s-.39.26-.49.3c.2.09.83-.35,1.11-.48a7.12,7.12,0,0,1,.92-.43c-.77.53-1.78,1-2.88,1.72,0-.06,0-.23-.14-.06.1-.2.58-.42.83-.6-.64.31-1.34.84-2,1.2.1.05.33-.24.43-.2-.35.25-1,.71-1.64,1s-1.19.64-1.48.83c-.12.17-1,.14-1.29.2-.49.15-1.28.67-1.62.31a.76.76,0,0,0,.37,0c-.16-.07-.54,0-.68,0,.41.13-1.29.52-1.26.25a2.92,2.92,0,0,1-.77.11.44.44,0,0,1,.29-.13,1,1,0,0,0-.87-.13c-.41-.12-.33-.32-1-.45,0-.26-.37-.52-.77-.82.1,0,.55.28.67.23-.34-.28-.15-.33-.48-.58,0,0,.23.08.21.12.18,0-.19-.27-.14-.39-.38-.14-.34-.2-.57-.39a8.46,8.46,0,0,0,1.56.49,5.09,5.09,0,0,0,1.74,0,1.9,1.9,0,0,1,.53.11c.13,0,.16-.12.34-.15,0-.05-.31,0,0-.09a2,2,0,0,0-.58,0c0-.19.66-.31,1.14-.43a10,10,0,0,1,1.61-.83,1.91,1.91,0,0,0,.16-.32,11.2,11.2,0,0,0-1.37.79c.08-.25-.29,0-.51,0,.32-.31,1.46-.53,1.9-.93-.59.15.29-.71.8-.75,0-.06.09-.21.26-.38a.21.21,0,0,1-.13.19,2.94,2.94,0,0,0,1-.49l1.3-.92c.06.18-.38.41-.67.63,1-.61,2.18-1.47,3.61-2.23a8.36,8.36,0,0,1,5.11-1.1,3.54,3.54,0,0,1,.83.23,7.32,7.32,0,0,1,.75.3,1.48,1.48,0,0,1,.52.45,5.7,5.7,0,0,1,1.63,1.36c.37.44.66.87,1,1.34.06.06.06,0,0,0a9.61,9.61,0,0,0,1.08,1.22,2.26,2.26,0,0,0,1.06.53,2.35,2.35,0,0,1-1.58-.9c-.58-.61-1.15-1.61-2-2.5a15.84,15.84,0,0,0,2.4,3,2.78,2.78,0,0,0,1.66.66,9.94,9.94,0,0,0,1.81-.32,7.24,7.24,0,0,0,1.62-.91,9.16,9.16,0,0,0,1.3-1.2,37.16,37.16,0,0,0,2.41-3,7.13,7.13,0,0,0-.81,1,5.1,5.1,0,0,1,.84-1.18c.16-.2.78-.88.48-.47s-.36.36-.46.58a16.05,16.05,0,0,0,1.46-1.74,20.81,20.81,0,0,1,3.53-2.49,12.18,12.18,0,0,1,7.06-.92c.14,0-.07-.09.1-.08a1.79,1.79,0,0,1,.33.18c.14,0,.1-.13.36,0,0,0-.11,0-.18,0,.61.26,1.79.37,2.15.78a2.07,2.07,0,0,1,1,.26c.42.22.88.51,1.26.66-.12.25-.39-.1-.74-.27a4.41,4.41,0,0,0,.88.57,9,9,0,0,1,1.06.74,4.22,4.22,0,0,0-1.16-.93,4.53,4.53,0,0,1,2.05,1.46,3.66,3.66,0,0,0-.61-.81c.6.37.77,1.12,1.34,1.57-.46-.32-.72-.8-1.32-1.13a10.5,10.5,0,0,1,2.45,3.43c.11.24.21.06.3.31-.21-.13,0,.31,0,.48-.09,0-.14-.38-.24-.53-.17,0,.18.4.12.5-.17-.06-.19-.45-.29-.59a1.77,1.77,0,0,0,.33,1.13c-.37,0,.07.77.06,1-.12,0-.15-.46-.3-.63,0,.11.08.29,0,.41-.24,0-.34-.47-.53-.58,0,.19.14.4.2.62s.11.45.16.67c.07-.07-.11-.35.07-.34,0,.28.08.63.11.9l.22,2.23,1.31-2.15c.14-.24.28-.41.38-.38s0,.06,0,0a2,2,0,0,1-.16.45l-1.35,2.95-.72-3a4.07,4.07,0,0,0-.34-1.22c-.09.18.1.29.17.61-.26-.24,0,.09-.14.13-.19-.35-.05-.48-.19-.67-.08,0-.06.1,0,.08a3.26,3.26,0,0,1-.77-.93,5.28,5.28,0,0,0-.93-1c0,.17.3.29.24.49.18-.14.11.16.43.42C453.36,49.18,453.19,48.85,452.93,48.83Zm-43.34,5.78c-.23.11-.55,0-.69.22C409.13,54.74,409.47,54.79,409.59,54.61Zm2.2-5c.28-.23.61-.26.66-.5C412.19,49.21,411.71,49.53,411.79,49.57Zm9.45-2.47c0,.06-1.19-.43-1.57-.45.37.12,1.52.51,2.05.71C421.58,47.3,421.37,47,421.24,47.1Zm26.51-1.51,0-.13c-.13-.1-.45-.06-.28,0C447.6,45.36,447.58,45.58,447.75,45.59ZM446,45a2,2,0,0,0,.7.24C446.47,45,446.3,45.17,446,45Zm2.21.47c.06-.11-.63-.38-.56-.24S448.06,45.54,448.19,45.51Zm-6-.47c-.17.17-.58.05-.57.3C442,45.23,442.28,45.18,442.2,45ZM452,47.57s0,.09,0,.12c.18.23.47.32.54.56C452.61,48.12,452,47.61,452,47.57Zm-8.84-2.78a4.13,4.13,0,0,0-.7.14c0,.11-.09.17.1.16,0-.09.14-.16.31-.21S443.2,44.84,443.14,44.79Zm-2.09.64c.16.13.34-.07.52-.06C441.52,45.2,441.19,45.47,441.05,45.43Zm-29.83,8.33c-.3.25-.73.28-.73.48C410.69,54.11,411.43,53.73,411.22,53.76Zm-5.6,1.57c.29,0,.8-.07.91-.19C406.08,55.26,405.87,55.14,405.62,55.33Zm.24-.28c.3,0-.37.06-.26.15a6.28,6.28,0,0,0,1.24-.27C406.52,55,406.1,54.88,405.86,55.05Zm35.37-13.21c.26-.09.76-.12.86-.25C441.83,41.68,441.32,41.72,441.23,41.84Zm-30.35,8.71c-.11.07-.28.25-.3.1-.29.23-.95.63-.7.69C409.91,51.12,410.63,51,410.88,50.55Zm-3.3,2c.79-.33.43-.42,0,0ZM423,48.39c-.19-.18-.46-.41-.53-.33.27.14.49.51.55.47S422.91,48.42,423,48.39Zm-14.44,3.08c.08,0,.06,0,0,.08.21-.08.52-.34.65-.32-.2.15,0,.16-.29.22.11.18.76-.25.78-.41-.14.06-.38.3-.46.23.25-.16-.11-.09.09-.26C409,51.16,408.55,51.36,408.51,51.47Zm27.58-6.78c-.08-.16.57-.6.59-.66C437,44,436.13,44.45,436.09,44.69Zm-7.28,10.94c-.09.19-.44.08-.75.21,0-.06,0-.08-.12-.08A4.61,4.61,0,0,1,428.81,55.63ZM452,48.27a0,0,0,0,1,0-.05c-.15-.08-.28-.26-.48-.41.12-.09.29.23.21.06.08-.08.15.15.17.18s.11.06.15,0-.26-.16,0-.16c-.1-.19-.13.07-.23-.12.12-.08.3.12.49.33C452.12,48.14,452,48.16,452,48.27Zm-17.77,4.64c-.13-.13,0-.37.34-.68.19-.09-.5.53-.31.59,1.16-1.36,1.5-1.75,2.44-2.91.17.06-.22.37-.31.56,0,0,0-.11.06-.15C436,50.81,435.19,52,434.26,52.91Zm23.68-2.14c-.27.56-.54,1-.23.26a3.57,3.57,0,0,0,.32-.65s0,0,0,.09,0,0,.06-.06c0,.29-.28.59-.37,1C457.66,51.19,457.91,51,457.94,50.77Zm-40.88,0c-.15.14.23-.3.4-.18C417.37,50.67,417.28,50.62,417.06,50.75Zm-12.59,4.7c-.12,0-.18,0-.21,0-.28,0-.08-.18-.29-.22C404,55.23,404.56,55.34,404.47,55.45Zm51-7.7c-.27-.12-.14-.41-.38-.67C455.31,47.19,455.27,47.53,455.45,47.75Zm-5.51-5.52c.11,0,.11,0,0-.08a9.84,9.84,0,0,1,1.37.66c-.21.06-.93-.54-.95-.26C450.22,42.44,449.58,42,449.94,42.23Z"/><path class="cls-2" d="M437.18,64.26c-.42-3-5-3.52-7.31-1.54s-3.2,5.14-4.72,7.8-4.55,5.08-7.37,3.93c-3.21-1.3-3.53-6.12-6.45-8-3.39-2.18-7.66.77-10.46,3.67s-6.55,6.24-10.28,4.74"/><path class="cls-2" d="M430.7,66.08c.08-.11.25-.3.26-.44C430.65,65.94,430.28,66.71,430.7,66.08Zm1.08-1.3c0-.09,0-.15.11-.19S431.82,64.72,431.78,64.78Zm-1.45,1.72a3.77,3.77,0,0,1-.45.82c0-.12,0-.2,0-.33C430,67.24,430.18,66.5,430.33,66.5Zm1.67-2c0-.09.1-.09.06-.17s0,.07-.12.06a.28.28,0,0,1,.17-.23c0,.07,0,.1.07.06C432.24,64.41,432.1,64.46,432,64.52Zm-2.65,3.6a2.88,2.88,0,0,1-.45,1C428.9,68.77,429.23,68.45,429.35,68.12Zm1-2c0,.07-.21.57-.33.47C430.13,66.35,430.25,66.31,430.36,66.12Zm-.15,0c-.2-.09.46-.75.69-1.08C430.82,65.45,430.37,65.64,430.21,66.1Zm-2.62,5.43-.23.43c-.18,0,.11-.32.15-.47Zm-.49.69c0,.15-.47.94-.61.85C426.8,72.65,426.87,72.57,427.1,72.22Zm-8.26,5c.39-.1,1.47-.11,2.17-.32A4.94,4.94,0,0,1,418.84,77.26Zm-6.72-5.61c.27,0,.31.69.7,1.15C412.73,72.83,412.31,72,412.12,71.65Zm-.68-1.21c.32,0,.4.6.56.8C411.79,71.26,411.63,70.64,411.44,70.44Zm20.91-6.86c.27-.26.65,0,1-.14C433.23,63.63,432.72,63.48,432.35,63.58Zm-17.66,11.6c.24.1.52.38.93.64A2.22,2.22,0,0,1,414.69,75.18Zm20.73-10.67c0-.11-.05-.16-.05-.28S435.56,64.51,435.42,64.51ZM391.7,75.4c-.35.09-.85-.19-1.2-.3C390.76,75,391.33,75.37,391.7,75.4Zm38.52-14.2c-.05-.06,0-.13,0-.2.38,0,.93-.2,1.38-.21C431.24,61,430.89,60.93,430.22,61.2Zm4-1a3.4,3.4,0,0,1-.87,0A1.15,1.15,0,0,1,434.21,60.24Zm-7.42,3.65c0,.37-.63.89,0,0Zm-34.62,10.5c-.05.11-.41,0-.46-.06C391.82,74.22,392,74.45,392.17,74.39ZM424.62,68c-.05-.21.09-.32.21-.58A1.11,1.11,0,0,1,424.62,68ZM394,74c-.07.14-.44.15-.63.22a4.26,4.26,0,0,1,1-.48c-.05.17-.31.11-.54.28C393.86,74.09,394,74.05,394,74Zm29.21-3.43a6.53,6.53,0,0,1,.63-1.31A3.08,3.08,0,0,1,423.24,70.6Zm-6.58,1c.35.11.5.67.83.87C417.17,72.43,417.05,72.1,416.66,71.64Zm9.78-7.86a9.27,9.27,0,0,1-.58,1.11A5.2,5.2,0,0,1,426.44,63.78ZM409.26,64c.2-.22.62,0,1.15.08A2.89,2.89,0,0,1,409.26,64Zm-8.76,3.28c.09-.21.54-.52.79-.75A3.18,3.18,0,0,1,400.5,67.25Zm12.48-3c-.26-.15-.21-.21-.44-.32C412.67,63.88,413.13,64.12,413,64.25Zm17.84,1.29c-.06.22-.2.29-.33.54,0,0,0-.08,0-.12s0,0-.06,0S430.66,65.63,430.82,65.54Zm1.37-1.86c-.06,0,0-.12-.2,0,0,.11.22.05,0,.14,0,0,.11,0,.18,0s0,.08-.05.11.07,0,.06-.07c.18.11-.09.26-.16.35S432,64,432,64s-.17.16-.27,0c.08,0,.05,0,.07.06s.1-.13.24-.16a.62.62,0,0,0-.59.16,1.6,1.6,0,0,0-.22.24.83.83,0,0,0-.13.24c0,.07-.28.07-.25.26s.22,0,.35-.16-.32.34-.42.51c-.06-.06.09-.16,0-.21-.14.11-.05.18,0,.25a18,18,0,0,0-2,3.38c.18-.2.08.05,0,.24-.07,0-.05-.08,0-.16-.15,0-.16.37-.09.41-.13.08-.17.2-.28.42-.38.7-.19.44.09-.42a5.65,5.65,0,0,0-.52,1c-.1-.16,0-.26.14-.41-.54.17-.77,1.64-1.6,2.57a2.32,2.32,0,0,0,.49-.64c.15-.25.29-.53.42-.78.07.19-.12.28-.25.56.4,0,.55-1.22.95-1.31-.25.47-.5.94-.79,1.39a13.3,13.3,0,0,1-1,1.39,13.89,13.89,0,0,1-2.39,2.33c-.14.14-.15,0-.26.1a5.35,5.35,0,0,1-2.4,1.29,7,7,0,0,1-3.67,0c0,.18-.34-.13-.64-.12-.25-.14.26,0,.26-.09-.83-.3-1.07-.19-1.81-1,.44.27.64.53.94.61a8.71,8.71,0,0,1-1.55-1.23,13.57,13.57,0,0,1-1.08-1.31c.27.58.94,1.25.24.47a3.28,3.28,0,0,1-.57-.74c0-.17.11,0,.1-.16A20.38,20.38,0,0,0,412,70.86c.08,0,.15.25.23.25,0-.24-.35-.47-.31-.66s-.12,0-.19,0c-.08-.26-.11-.11-.25-.35.09,0,.17.16.27.12a4.56,4.56,0,0,0-1.11-1.51s0,.07.07.13c-.2,0-.26-.37-.5-.37a1.36,1.36,0,0,0,.36.42,1.68,1.68,0,0,1,.43.65c.24.41-.41-.46-.48-.52a3,3,0,0,0-1-.84,2.16,2.16,0,0,0-1.53-.07c.22-.28.86-.18,1.18-.19-.07-.17-.5,0-.48-.19-.13,0-.11.15-.29.12,0-.06.06-.07.07-.14a1.58,1.58,0,0,1-.46.08c0,.06.12,0,.19,0-.1.09-.62.21-.48.07A12.19,12.19,0,0,0,405,69.06a11.14,11.14,0,0,0-2.8,2.33c.11,0,.27-.29.38-.27s-.27.32-.36.38c.22,0,.64-.49.86-.69a7.35,7.35,0,0,1,.69-.65,24,24,0,0,1-2.2,2.33c0-.06,0-.23-.15,0,.07-.21.49-.52.68-.76-.53.46-1.13,1.1-1.7,1.52.1.05.29-.27.38-.25-.66.65-2,1.62-2.48,2-.06.19-.86.24-1.11.34-.41.19-1,.8-1.36.5a.65.65,0,0,0,.31-.1c-.15,0-.47.11-.61,0,.17,0-.06.21-.36.35s-.67.21-.68.09a3.06,3.06,0,0,1-.63.25.39.39,0,0,1,.22-.19c-.15-.08-.61-.13-.76.06-.37,0-.35-.23-.93-.16-.09-.27-.44-.37-.85-.51.08-.1.53.09.61,0-.35-.12-.21-.29-.56-.38,0,0,.22,0,.22,0s-.24-.2-.24-.31c-.37.06-.34-.06-.61-.1a10.77,10.77,0,0,0,3-.53,1,1,0,0,1,.49,0c.11-.06.12-.14.26-.21,0,0-.27,0,0-.08-.13,0-.5.05-.51.1,0-.17.51-.4.91-.57a6.83,6.83,0,0,1,1.26-1,1.65,1.65,0,0,0,.07-.32c-.34.33-.89.62-1.06.9,0-.23-.24,0-.44.1.22-.35,1.19-.68,1.5-1.11-.5.21.11-.71.58-.79,0-.06,0-.22.17-.38,0,.06,0,.12-.09.19a5.67,5.67,0,0,0,1.79-1.45c.1.15-.22.4-.42.61a10.27,10.27,0,0,0,1.12-1.09c.38-.42.85-1,1.32-1.44a14.15,14.15,0,0,1,3.26-2.58c.36-.21.8-.32,1.12-.49a1.23,1.23,0,0,1,.53,0,7,7,0,0,1,3.4-.54c.1,0,0,0,0,0a5.61,5.61,0,0,1,2.28.58A7.06,7.06,0,0,1,413.25,66a7,7,0,0,0-2.79-1.59,7.08,7.08,0,0,0-3.48,0c.57,0,1.24-.08,2,0a5.88,5.88,0,0,1,2.35.52,6.49,6.49,0,0,1,2.28,1.88,6.81,6.81,0,0,1,1.28,1.95c.74,1.27,1.22,2.32,1.8,3.11a3.29,3.29,0,0,0,2,1.46c-.08-.08-.41-.15-.67-.29a.57.57,0,0,1,.32.08c.15,0,.3.12.45.13s.61.1.35.13-.26-.1-.41,0a1.46,1.46,0,0,0,1.24-.06c.4.15,1.5-.52,2.28-1.28a7.91,7.91,0,0,0,1.47-1.82c.42-.7.83-1.57,1.3-2.44,0-.1-.1,0,0-.09s0-.07.23-.2c0-.11-.1-.11,0-.3,0,0,0,.1,0,.15.33-.42.61-1.34,1-1.6-.09-.31.65-1.23,1-1.85.24.15-.13.33-.29.63.6-.56.53-.82,1.34-1.6a2.91,2.91,0,0,0-.93,1c.06-.58.94-1.31,1.5-1.72a4,4,0,0,0-.82.46c.4-.53,1.1-.55,1.66-1-.39.43-.91.55-1.23,1.09l.82-.57a6.37,6.37,0,0,1,.92-.5,3.83,3.83,0,0,1,1.9-.36c.23,0,.11-.15.36-.16-.18.15.26.12.4.17,0,.09-.36,0-.52,0s.39,0,.46.07c-.11.12-.44,0-.59,0a1.57,1.57,0,0,0,1,.15c-.14.32.63.3.82.38-.08.1-.41,0-.6,0,.09.06.26.07.33.14-.08.24-.48.1-.63.21.31.09.74.12,1.08.25,0-.11-.3-.06-.22-.21.42.19,1,.46.89.67-.05,0,0,0,0,0-.39-.09-.73-.45-1.26-.36.09.16.25,0,.5.1-.27.11.05,0,0,.18-.3,0-.34-.15-.53-.11,0,.08.05.1.05,0a2.47,2.47,0,0,1-.91.3,2,2,0,0,0-.93.44c.11,0,.26-.17.39,0-.06-.22.13,0,.4-.19C432.52,63.43,432.25,63.45,432.19,63.68ZM398,75c-.18.13-.49.09-.57.28C397.6,75.14,397.92,75.16,398,75Zm1-4.91c.19-.24.46-.3.44-.51C399.21,69.7,398.88,70,399,70.06Zm6.24-5.19c.06.08-.84.4-1.09.53a5.82,5.82,0,0,0,1.48-.65C405.48,64.8,405.21,64.73,405.2,64.87Zm24,2.62-.12-.06c-.09.12-.14.42,0,.27C429,67.6,429.2,67.66,429.21,67.49Zm-.95,1.64c.15-.21.32-.25.44-.64C428.4,68.65,428.5,68.85,428.26,69.13Zm.93-2.08c-.11-.08-.44.55-.3.5A1.1,1.1,0,0,0,429.19,67.05ZM425.9,73c-.06.31-.53.51-.42.73C425.82,73.37,426.05,73,425.9,73ZM431.22,64s.06,0,.09,0,.23-.29.41-.27C431.62,63.67,431.22,64,431.22,64Zm-4.66,7.88c-.15.26-.33.51-.5.76.09.07,0,.21.2,0C426.08,72.63,426.72,71.87,426.56,71.92Zm-1.7,2.25c.22,0,.37-.28.56-.41C425.31,73.65,425,74.12,424.86,74.17ZM399.28,74c-.21.27-.61.33-.56.52C398.88,74.39,399.47,74,399.28,74Zm-4.64,2.17c.22-.1.69-.18.74-.32C395,76.05,394.8,75.93,394.64,76.18Zm.14-.32c.26,0-.3.12-.19.2a6.43,6.43,0,0,0,1-.45C395.35,75.74,395,75.68,394.78,75.86ZM423.2,71c.09-.16.36-.39.32-.51C423.45,70.67,423.17,70.89,423.2,71Zm-24.82,0c-.09.07-.21.25-.26.11-.23.24-.76.68-.52.71C397.59,71.62,398.22,71.39,398.38,71Zm-2.61,2.19c.62-.4.28-.45,0,0Zm11-8.73c-.21.06-.47.12-.44.23.21-.12.56-.1.55-.17S406.82,64.51,406.81,64.46Zm-10.43,7.62c.06,0,.06,0,.05.07.17-.1.39-.39.53-.37-.16.15,0,.15-.22.24.12.15.64-.31.63-.46-.12.07-.3.32-.38.26.2-.18-.12-.08,0-.26C396.78,71.72,396.4,72,396.38,72.08Zm23.79,1.13c0-.16.44-.2.45-.28C420.81,73.07,420.24,73.07,420.17,73.21Zm-8.81-3.48c-.18,0-.13-.21-.29-.27a.06.06,0,0,0,0-.09C411.19,69.38,411.26,69.53,411.36,69.73Zm20.36-5.5s0,0,0,0a1.1,1.1,0,0,1-.25.23c-.07-.1.14-.12,0-.12s.08-.09.11-.09a.11.11,0,0,0,0-.11c-.06-.07-.11.15-.12,0-.12,0,.06.14-.06.17-.08-.14,0-.23.21-.3C431.63,64.11,431.65,64.21,431.72,64.23Zm-18.53,9.32c.16-.1.32.08.57.43,0,.2-.41-.57-.49-.39a15,15,0,0,0,1.32,1.59,6.72,6.72,0,0,0,1.86,1.38c0,.19-.59-.21-.81-.35,0,0,.14,0,.2.08l-.68-.51c-.24-.2-.5-.43-.76-.68A8.87,8.87,0,0,1,413.19,73.55ZM434.9,63.46c-.24-.21-.54-.4-.1-.19.1.07.16.17.28.26s0,0-.05,0,0,0,0,.06-.23-.23-.44-.27C434.72,63.22,434.75,63.46,434.9,63.46ZM404,70.09c-.09.18.11-.34.3-.31C404.29,69.9,404.19,69.91,404,70.09Zm-10.34,6.43c-.1,0-.15,0-.16.07-.24,0-.11-.15-.29-.14C393.24,76.39,393.74,76.38,393.69,76.52ZM432,61c-.2.19-.41,0-.71.11C431.43,60.9,431.71,61,432,61Zm-5.84,4c0-.09,0-.11-.08,0,.19-.31.41-.72.7-1.12,0,.19-.55.76-.28.82C426.37,64.75,425.88,65.21,426.13,64.94Z"/><path class="cls-2" d="M437.31,80.06c-.85-2.51-4.46-3-6.65-1.5s-3.29,4.08-4.27,6.54-2.09,5.07-4.3,6.51c-3,1.94-7,1.09-10.12-.56s-6-4-9.31-5.16-7.7-.6-9.51,2.48"/><path class="cls-2" d="M431.21,81.93c.08-.09.23-.23.24-.35C431.17,81.8,430.84,82.42,431.21,81.93Zm1-1.07c0-.08,0-.12.1-.17C432.38,80.81,432.29,80.83,432.23,80.86Zm-1.35,1.38a2.41,2.41,0,0,1-.4.67c0-.1,0-.18,0-.28C430.58,82.85,430.74,82.23,430.88,82.24Zm1.55-1.59c0-.09.08-.09.05-.18s0,.08-.11.06,0-.18.15-.21,0,.09.06.07C432.64,80.55,432.51,80.58,432.43,80.65ZM430,83.54a2.24,2.24,0,0,1-.36.81C429.62,84.07,429.91,83.81,430,83.54Zm.89-1.62c0,.07-.19.47-.3.37C430.68,82.08,430.8,82.08,430.9,81.92Zm-.14,0c-.2-.11.42-.61.63-.88C431.31,81.37,430.91,81.5,430.76,81.88Zm-2.05,4.49-.14.37c-.17,0,0-.27.06-.4Zm-.32.58c0,.12-.19.79-.34.73Zm-4.56,6.54A11.54,11.54,0,0,1,425,92.31,5.24,5.24,0,0,1,423.83,93.49Zm-7.55,1.61c.13-.22.81.15,1.4.07A4.81,4.81,0,0,1,416.28,95.1Zm-1.56-.28c.28-.19.82.13,1.12.13C415.72,95.13,415.05,94.85,414.72,94.82Zm18-15.07c.23-.26.56,0,.85-.11C433.49,79.84,433.05,79.65,432.73,79.75ZM420.41,94.84a3.62,3.62,0,0,1,.85-.34A1.74,1.74,0,0,1,420.41,94.84Zm15.22-14.2c0-.11-.07-.14-.09-.26S435.77,80.61,435.63,80.64Zm-41.67,7a5.31,5.31,0,0,1-.59.83C393.3,88.26,393.76,87.87,394,87.67Zm36.83-10.42c0-.07,0-.12,0-.19.35,0,.86-.15,1.27-.12C431.73,77.15,431.41,77,430.79,77.25Zm3.66-.8a2.57,2.57,0,0,1-.79-.06A1,1,0,0,1,434.45,76.45Zm-7,3c0,.34-.63.79,0,0Zm-34,7.21c0,.1-.3.41-.38.44C393,87,393.31,86.9,393.44,86.68Zm31.93-3.35c-.05-.2.08-.3.19-.56A1.1,1.1,0,0,1,425.37,83.33Zm-30.12,1.94c-.07.13-.48.28-.67.43a2.6,2.6,0,0,1,1.06-.77c-.05.19-.35.19-.61.39C395.07,85.36,395.17,85.3,395.25,85.27Zm29.08.74a4.25,4.25,0,0,1,.41-1.4A4,4,0,0,1,424.33,86Zm-5.74,5.27c.24-.23.75-.08,1.1-.24C419.44,91.25,419.12,91.19,418.59,91.28Zm8.55-12c-.07.26-.44.69-.59,1A3.91,3.91,0,0,1,427.14,79.33Zm-15.8,9.35c.22-.12.38.14.67.27A.84.84,0,0,1,411.34,88.68Zm-6.11-4.26c.21,0,.62.27.9.37A2.27,2.27,0,0,1,405.23,84.42Zm8.38,4.36c-.15,0-.1-.11-.22-.15C413.47,88.56,413.71,88.63,413.61,88.78Zm17.7-7.32c0,.18-.17.24-.29.44,0,0,0-.07,0-.1s-.05,0-.06,0S431.17,81.51,431.31,81.46Zm1.28-1.63c-.06,0,0-.13-.18,0,0,.12.2.06,0,.14,0,0,.1,0,.15,0s0,.09,0,.11.06,0,.06-.07c.15.11-.07.27-.15.34s-.06-.13-.06-.16-.15.15-.25,0c.08,0,.06,0,.07.06s.08-.13.21-.14c-.28-.19-.84.32-.88.55,0,.07-.26,0-.23.2s.2,0,.31-.1-.28.28-.38.41c-.05-.06.08-.12,0-.18s-.05.14,0,.21a11.35,11.35,0,0,0-1.78,2.76c.16-.15.08.05.05.21-.07,0-.06-.07,0-.14-.15,0-.13.31-.06.35-.12.06-.14.16-.23.34-.29.59-.14.37.05-.35-.17.14-.26.59-.4.86-.12-.14,0-.23.09-.35-.5.12-.57,1.42-1.09,2.21a4.7,4.7,0,0,0,.58-1.23c.09.15-.07.25-.15.49.37-.06.33-1.06.72-1.13a46.23,46.23,0,0,1-2.44,4.8c-.06.15-.13,0-.19.14a5.27,5.27,0,0,1-1.3,1.83,12.67,12.67,0,0,1-2.32,1.74c.13.12-.25.13-.4.32s.13-.17.07-.23c-.61.34-.64.58-1.5.66a6.24,6.24,0,0,0,.85-.31,12.71,12.71,0,0,1-3,.66c.58.07,1.4-.16.48,0a3.16,3.16,0,0,1-.86.11c-.14-.09.05-.09-.09-.18-1.08.1-1.89,0-2.72,0,0-.08.33.05.38,0-.17-.18-.65,0-.79-.2-.1,0-.08.1-.1.16-.3-.13-.19,0-.52-.08.09,0,.28,0,.33-.1-.75-.17-1.58-.54-2.41-.77,0,0,.11.08.19.12-.22.09-.62-.33-1-.38a13.52,13.52,0,0,0,2,1c.63.28-.85-.22-1-.32a44.91,44.91,0,0,1-4.61-2.71c.41,0,1.11.63,1.67.88-.05-.21-.75-.39-.6-.55-.17-.1-.23,0-.43-.15,0,0,.13,0,.17-.05a2.43,2.43,0,0,1-.55-.33c0,.06.12.11.2.17-.19,0-.78-.4-.53-.37-1.66-1-3.45-2.73-5.54-3.28,0,.11.33.1.34.2s-.36-.08-.42-.14c0,.21.6.34.84.45a8,8,0,0,1,.77.34c-.8-.14-1.6-.6-2.45-.79,0,0,.15-.14,0-.14.16-.08.48.1.7.13a12.13,12.13,0,0,0-1.53-.45c0,.1.27,0,.29.13a6.3,6.3,0,0,0-2.14-.14c-.08.11-.57-.24-.76-.24s-.71.39-.95,0a.31.31,0,0,0,.2,0c-.1-.08-.31,0-.41-.07.22.08-.58.54-.65.33-.11.17-.17.17-.29.29a.22.22,0,0,1,.05-.19c-.11-.06-.46,0-.43.18-.19.1-.36-.13-.57.2-.22-.15-.49-.07-.74.15,0-.11.26-.3.24-.41-.27.13-.31,0-.55.16,0,0,.08-.18.12-.14,0-.15-.26.08-.36,0a4.68,4.68,0,0,1-.3.5,3.91,3.91,0,0,1,1.94-2.48,1.22,1.22,0,0,1,.52,0c.1-.07.11-.16.27-.21,0,0-.3,0,0-.09a1.41,1.41,0,0,0-.55.15c-.07-.19.57-.49,1-.61a3.52,3.52,0,0,1,1.68-.54,3.07,3.07,0,0,0,.26-.25,4,4,0,0,0-1.52.45c.1-.24-.3,0-.54,0,.36-.35,1.59-.39,2.12-.55-.64-.07.58-.59,1.08-.32,0-.06.19-.13.44-.16,0,0-.1.08-.22.08.59.22,1.61.26,2.53.49-.08.17-.49,0-.81,0a21.83,21.83,0,0,1,6.63,2.61c.29.18.53.43.79.57s.15.23.23.35c.91.52,1.31.85,2.09,1.35.06,0,.05,0,0,0,.8.43,1.85,1.11,2.57,1.4a18.32,18.32,0,0,1-3.92-2.15,9.22,9.22,0,0,0,2.56,1.67,18,18,0,0,0,1.77.87c.61.24,1.33.33,1.63.52a9.89,9.89,0,0,0,2.92.23,5,5,0,0,0,2.4-.79,7,7,0,0,0-.71.33,3.22,3.22,0,0,1,.75-.46c.13-.06.59-.35.37-.15s-.27.13-.37.25a2.14,2.14,0,0,0,1.05-.86c.42-.11,1-1.18,1.54-2.1.7-1.24,1.14-2.88,2-4.57,0-.1-.09,0-.06-.09a1.14,1.14,0,0,1,.23-.2c0-.1-.11-.1,0-.28,0,0,0,.09,0,.14.3-.39.58-1.26,1-1.48-.1-.3.64-1.12,1-1.67.23.16-.12.3-.3.57.6-.48.54-.73,1.35-1.38a2.56,2.56,0,0,0-.94.8c.08-.55,1-1.15,1.49-1.48a3.36,3.36,0,0,0-.78.36c.39-.47,1.07-.41,1.57-.81-.36.36-.83.42-1.17.9a15,15,0,0,1,1.65-.85,3.64,3.64,0,0,1,1.73-.24c.22,0,.11-.14.33-.14-.16.15.24.12.37.19,0,.07-.33,0-.48,0s.36,0,.42.08c-.11.12-.4,0-.54,0a1.26,1.26,0,0,0,.95.18c-.14.32.55.31.72.4-.07.09-.37,0-.53,0,.07.07.22.06.28.14-.08.24-.43.09-.57.21a9.74,9.74,0,0,1,1,.25c0-.11-.26-.06-.18-.21.37.18.88.44.79.65-.06,0,0,0,0,0-.36-.07-.65-.41-1.12-.33.07.15.21,0,.44.09-.25.13,0,0,0,.19-.27,0-.3-.16-.46-.11s0,.09,0,0a1.87,1.87,0,0,1-.81.28,1.84,1.84,0,0,0-.83.39c.11.07.23-.16.35,0-.05-.21.12,0,.35-.17C432.88,79.59,432.64,79.61,432.59,79.83Zm-34.12,7.28c-.14,0-.33-.17-.42,0C398.19,87.05,398.38,87.24,398.47,87.11Zm3.59-2.85c.32,0,.52.25.7.13C402.53,84.28,402.05,84.17,402.06,84.26Zm6.71,2.92c0,.09-.63-.39-.81-.53a2.6,2.6,0,0,0,1.06.73C408.94,87.34,408.88,87.11,408.77,87.18ZM429.85,83l-.12-.06c-.09.1-.12.36,0,.24C429.61,83.06,429.84,83.13,429.85,83ZM429,84.35c.13-.18.29-.2.37-.54C429.12,83.93,429.23,84.11,429,84.35Zm.77-1.75c-.1-.08-.4.44-.26.42S429.81,82.71,429.8,82.6Zm-2.32,5.08c0,.26-.32.5-.15.67C427.52,88,427.63,87.69,427.48,87.68Zm4.23-7.58a.08.08,0,0,1,.08.06c.14-.07.21-.27.39-.22C432.08,79.78,431.73,80.11,431.71,80.1Zm-3.89,6.64-.28.67c.1,0,.08.17.19,0C427.54,87.37,427.94,86.68,427.82,86.74Zm-.88,2.12c.21,0,.21-.31.36-.44C427.14,88.34,427.07,88.79,426.94,88.86Zm-27.38-1.77c-.24,0-.47-.12-.52.06C399.18,87.11,399.67,87.17,399.56,87.09Zm-3.37.21c.13-.09.41-.15.44-.26C396.4,87.17,396.24,87.08,396.19,87.3Zm0-.3c.18,0-.19.11-.09.18.23-.19.49-.19.66-.33C396.6,86.91,396.3,86.81,396.21,87Zm28.18-.58c.05-.17.26-.45.19-.57C424.54,86,424.33,86.31,424.39,86.42Zm-23.48-2.09c-.12,0-.35,0-.27-.12-.35,0-1.08-.06-.91.12C399.87,84.16,400.5,84.45,400.91,84.33Zm-3.59.22c.79-.15.48-.32,0,0ZM409.76,88c-.14-.09-.31-.21-.37-.12.18,0,.33.29.38.23S409.72,88,409.76,88ZM398.49,83.8c.09,0,.05,0,0,.09.22,0,.62-.09.73,0-.25,0-.09.12-.36.06,0,.19.76.14.86,0-.15,0-.47,0-.5,0,.3,0-.05-.15.21-.18A2.45,2.45,0,0,0,398.49,83.8Zm23.91,5.74c-.09-.13.29-.4.26-.46C422.9,89.1,422.39,89.38,422.4,89.54ZM414,94.31c-.13.14-.28-.09-.51-.07,0,0,0-.08,0-.11C413.55,94.1,413.75,94.22,414,94.31Zm18.17-14s0,0,0,0-.11.12-.25.22c-.05-.13.16-.13,0-.14s.09-.07.11-.07a.1.1,0,0,0,0-.11c0-.07-.09.15-.1,0-.12,0,.06.14-.06.15s.05-.21.19-.27C432.09,80.21,432.1,80.31,432.17,80.33ZM418.48,95.25c0-.19.24-.26.62-.28.18.07-.64.06-.54.23.78-.09,1.3-.18,1.81-.28a8.9,8.9,0,0,0,1.77-.54c.13.14-.41.25-.61.35,0,0,.09-.09.15-.1A11.79,11.79,0,0,1,418.48,95.25ZM435,79.63c-.22-.2-.49-.38-.09-.18.1.06.15.16.27.23s0,0-.05,0,0,0,0,.06c-.15,0-.23-.21-.43-.25C434.83,79.4,434.86,79.63,435,79.63Zm-31.05,9.12c-.19,0,.33-.06.37.14C404.19,88.9,404.15,88.81,403.94,88.75Zm-8.22-1.08c-.06,0-.07.06-.06.1s-.13-.11-.22,0S395.68,87.53,395.72,87.67Zm36.67-10.55c-.18.2-.37-.05-.65.08C431.9,77,432.16,77.19,432.39,77.12Zm-5.58,3.29c0-.08,0-.11-.07,0a8,8,0,0,1,.71-1c0,.18-.57.67-.3.75C427,80.24,426.57,80.65,426.81,80.41Z"/><path class="cls-2" d="M454.17,87.19a87.16,87.16,0,0,0-23.11,42l26-23.39-13.93,79.59,17.2-33.1a57.16,57.16,0,0,1,1.32,27A83.87,83.87,0,0,0,460,84.9"/><path class="cls-2" d="M437.54,119.5l-.93.83s0,0,0,.07h0l.13-.12,1.73-1.59C439.38,117.88,439.47,117.76,437.54,119.5Zm-1.08,1c-.15.18-.15.11-.12,0C436.52,120.41,436.45,120.5,436.46,120.52Zm3.92-3.47c1.46-1.39,2.59-2.4,4.42-4-.47.47-.67.75-1.27,1.33C444.24,113.47,440.91,116.74,440.38,117.05Zm-4,3.42c-.11.06,0-.08-.12-.06s.05,0-.05.16-.12-.09-.05-.29c0,.06.08,0,.1,0S436.37,120.39,436.36,120.47Zm12.7-11.1c1.74-1.69,6.71-6.11,8.61-7.76-1.22,1.19-2.62,2.44-4.11,3.76S450.48,108.07,449.06,109.37Zm-10.2,9.28a21.21,21.21,0,0,1,2.81-2.47C440.46,117.31,440,117.64,438.86,118.65Zm.39-.17a13.84,13.84,0,0,1-2.31,2.22,9.62,9.62,0,0,0-.74.68,2.09,2.09,0,0,1,.54-.62l.13-.1.7-.63C438.14,119.53,438.7,119,439.25,118.48Zm18.44-1-.37,2.2c-.23.36.18-1.44.28-2.2Zm-.72,3.68a29,29,0,0,1-.8,4.41Zm-6.83,39c.06-1.23.73-4.81,1.18-7.35C451,155.16,450.68,156.9,450.14,160.18ZM449,168.71a1.43,1.43,0,0,1-.23.64c-.07.07-.09,0-.27.46A7.88,7.88,0,0,1,449,168.71Zm.45-.91a.71.71,0,0,1-.12.51,1.86,1.86,0,0,0-.22.35,1.16,1.16,0,0,1,.16-.52A1.38,1.38,0,0,0,449.44,167.8Zm-12.73-50.44c.68-2.34,2.06-4.5,3.1-7a18.09,18.09,0,0,1-1.25,2.78C438,114.47,437.21,116,436.71,117.36Zm11.73,51.57c-.11.09-.07-.22,0-.57C448.54,168.35,448.48,168.65,448.44,168.93Zm7-80.49c-1,1-1.39,1.47-2.53,2.65A18.83,18.83,0,0,1,455.43,88.44Zm7.88,1.89c-1-1.31-2.42-3.68-3.48-5.28C460.58,85.83,462.32,88.82,463.31,90.33Zm-31.95,33.46c-.13.15.05-.49-.09-.3.41-1.06.81-2.39,1.34-3.78.23-.57.46-1.15.68-1.72s.42-1,.63-1.46c-.29.88-.56,1.63-.94,2.57C432.48,120.31,432,121.75,431.36,123.79Zm7.36-18.27c-.24.44-1.15,2.31-1.78,3.34A21.25,21.25,0,0,1,438.72,105.52Zm3.35,15.91c1-1.15,3.91-3.43,0,0ZM465.2,91.57c-.22-.23-1.3-2.27-1.53-2.6a4.22,4.22,0,0,1,.69,1C464.59,90.46,464.85,91,465.2,91.57ZM454.52,111.1c-.08-.11,0-.4.08-.83l-.32.28q.2-.22.42-.45A6.69,6.69,0,0,1,454.52,111.1Zm16-8.73c-.17-.27-.37-1-.72-1.68s-.67-1.54-.95-2.11c.56,1.1,1,1.87,1.39,2.76s.75,1.9,1.31,3.44c-.36-.55-.73-2-1.38-3.5A5.85,5.85,0,0,0,470.49,102.37Zm-18.3,22.31c.25-2.5.77-5,1.39-8.82C453.3,118.5,452.84,120.8,452.19,124.68Zm-11.32,65.46c0-.78.39-2.84.8-5.11s.89-4.76,1.22-6.79c-.18,1.44-.45,3-.8,4.94S441.32,187.44,440.87,190.14Zm1.77-68.75c.84-.9,3-2.76,4.39-4C446.18,118.26,444,120.12,442.64,121.39Zm18.12,42.68a7.54,7.54,0,0,1-.28-1.67c0-.37-.08-.77-.13-1.21l-.06-.5-.06-.36a1,1,0,0,1,.1.26l.07.26c0,.18.07.37.1.57A19,19,0,0,1,460.76,164.07Zm14.16-9a19.18,19.18,0,0,1-.55,2.37c-.31,1-.65,2-.91,2.78C473.81,158.76,474.48,156.93,474.92,155Zm-15.65,5.32c0-.13,0,.1,0,.08C459.23,160.7,459.24,160.81,459.27,160.36Zm-22.65-39.73a.27.27,0,0,1,.1-.15l1.52-1.38a3.75,3.75,0,0,1-.52.53c0,.07.14-.07.31-.23a4.3,4.3,0,0,1-.45.46l-.77.7C436.74,120.61,436.66,120.65,436.62,120.63Zm-.4-1.9c-.09.19-.1.13-.15.23a1.77,1.77,0,0,0-.14.3c-.05.16-.13.4-.26.76,0,0,0,0,.11-.1l.15-.3c0-.08.05-.1,0,0s-.08.24-.18.53c0,0,0,0,.05,0a.79.79,0,0,0,.08-.19l.3-.84a2.78,2.78,0,0,1-.16.7,1.46,1.46,0,0,0,.2-.69c.27-.52.2-.15,0,.46l-.14.5a.47.47,0,0,0,0,.12v.06l0,.17a.11.11,0,0,1-.2,0c-.06.31,0,.39-.33.62.08-.25.08-.14.15-.17.11-.28,0-.28.15-.62a4.64,4.64,0,0,0-.63,1.62,4,4,0,0,0-.12.75c-.09.31.23-.12.31-.22s.1-.1.17-.12a.91.91,0,0,0,.34-.34c0-.2,0-.18-.29.09.07-.18.56-.55.78-.78,0,.15-.2.22-.25.4a.84.84,0,0,0,.3-.45l18-16.16c-1.87,1.57.1-.22,1.55-1.57.16,0-.43.49-1,1.05a26.73,26.73,0,0,0,3.09-2.91c.69-.53,1.38-1.14,2.58-2.21-.06.34-.13.76-.22,1.23-1.17,6.52-.86,5,.13-1.06l-2.11,1.94c.49-.4,1.18-1,2-1.73-.41,2.4-.94,5.47-1.34,7.75a18.9,18.9,0,0,1,.62-3.82c-.58,2.12-1.25,6-2,10.59-.45,2.75-.93,5.84-1.46,8.38.43-1.76.94-5,1.42-7.73a20.36,20.36,0,0,1-.46,2.94,6.77,6.77,0,0,0,.37-1.42l.2-1.1c.07-.45.15-.92.23-1.4.5-3,1-5.9,1.41-7.32-2.16,11.91-4,22.17-6,32.94a11.24,11.24,0,0,1-.28,1.1c-1,7.34-2.45,13.48-4.2,23.9.21-.23-.24,1.23-.29,2.2-.21,1,0-.84-.05-.73-.06.4-.12.75-.16,1.07l0,.21v.58a4.14,4.14,0,0,1-.25,1.15c.05-.49.2-.89.19-1.15-.29,1.3-.61,3.26-.73,4.18.32-1.29.31-1.82.26-1a2.33,2.33,0,0,1-.07.72l-.1.32-.09.27-.09.27a1.42,1.42,0,0,0-.07.22l1.08-2.26a15.45,15.45,0,0,0,.78-1.89c0,.21-.16.36-.2.6,0,.07.16-.19.24-.42s.16-.42.24-.44,0-.2,0-.3a.53.53,0,0,0,.11-.22.38.38,0,0,1,0-.1l0-.06,0,0,.07-.14s0,.12,0,.13v0l0,.1a.37.37,0,0,0,0,.21l2.45-4.7,1.55-3,1.88-3.73a4,4,0,0,0-.38.64l-.54,1a3.83,3.83,0,0,1,.26-.61c.13-.26.28-.57.45-.9l1.2-2.28,1.36-2.56c.44-.77.86-1.5,1.25-2.23-.2.3-.46.7-.75,1.19l-.48.78c-.17.33-.35.67-.55,1l-2.57,4.95c-.54,1-1.1,2.1-1.61,3.1s-.95,1.77-1.34,2.44c-1.66,3.09,2-4,2.52-5l2.95-5.64c.51-1,1-1.79,1.47-2.6l1.44-2.44.73-1.22.18-.3c0-.1,0,0,.06.07l.05.19.21.75c.27,1,.53,2,.8,3s.51,1.94.77,2.91l.38,1.47.33,1.56.33,1.57.23,1.48.12.74c0,.24.09.53.1.65l.11.94c.14,1.27.24,2.56.31,3.86a63.61,63.61,0,0,1-.1,8c0-1.1.09-3,.08-5.12a51.44,51.44,0,0,0-.35-6.09c0,.44.11,1.67.17,2.77s.09,2.06,0,1.91a24.57,24.57,0,0,1,.11,2.69,6.83,6.83,0,0,0-.13-.75,32,32,0,0,1-.12,3.86,11.9,11.9,0,0,0,.12-1.55c.09,1-.35,5.27-.32,3.86-.15,1.5-.4,3.05-.72,4.77L460,178.13l2.09-3.37c.36-.57.72-1.16,1.09-1.74s.65-1.23,1-1.86l2-3.82c.58-1.34,1.16-2.7,1.75-4.08a40.61,40.61,0,0,0,1.56-4.25c.46-1.45,1-2.88,1.36-4.39s.73-3,1.1-4.49.49-3,.74-4.57c-.14.23-.36,2.21-.51,2.52-.14.71.37-2.39.48-2.88a16.71,16.71,0,0,0-.58,2.65l-.31,1.89c-.1.6-.26,1.15-.35,1.56-.42,1.6-.75,3.43-1.34,5.29,1.12-5,2.59-10.58,3-17.15,0,.21.08.82.16-.38,0,1-.29,3.49-.42,5.07.21-1.77.39-3.73.58-5.68s.11-3.89.2-5.62c-.1.18,0,1.94-.12,2.21,0-1.14.11-2.49,0-3.93s-.14-2.94-.2-4.4a20.33,20.33,0,0,0-.2-2.12c-.08-.68-.17-1.33-.24-1.93-.16-1.2-.28-2.21-.4-2.89s-.49-3.91-.71-5.15c-.05-.26-.1-.55-.16-.85s-.18-.59-.27-.9c-.19-.63-.38-1.27-.56-1.89a9.38,9.38,0,0,1-.56-2.82c.06.33.19.82.36,1.43,0-.55-.47-2.08-.56-2.56.31,1.37-2.1-4.93-1.82-4.81-.56-1.16-.74-1.52-1.28-2.62a4.45,4.45,0,0,1,.57.92,12.15,12.15,0,0,0-1.3-3.06,16.12,16.12,0,0,0-1.7-3.73,12.54,12.54,0,0,0-1.68-3.84c.3.17,1.28,2.25,1.55,2.51a8.56,8.56,0,0,1-.57-1.39,5.1,5.1,0,0,0-.69-1.39,3,3,0,0,1,.59.94c.22.33.09,0-.11-.42a7.68,7.68,0,0,1-.5-1c-1.12-1.52-1.05-1.58-1.88-2.78,2.73,3.08,6.57,10,8.78,15.12.28.92.67,2,.75,2.57.27.66.41.83.73,1.71,0-.1-.47-1.51.07,0-.22-.7-.86-2.74-1-2.87a8.66,8.66,0,0,1,.94,2.05l.72,1.92c.25.67.4,1.37.58,2,.45,1.37.88,2.7,1.35,4.15s.72,3.07,1.06,4.94c.17.48.35,1,.51,1.4-.65-2.71-1.24-6.43-2-8,.42.74-.33-1.44-.61-2.61a43.38,43.38,0,0,1,1.52,5.19c.43,2.16.9,4.39,1.22,5.81-.09-.8-.11-1,0-.83a6.27,6.27,0,0,1,.38,1.47,41.2,41.2,0,0,1,.63,4.92,9,9,0,0,1,.33,2.23,3.91,3.91,0,0,1-.15-1.12c0,1.57.09,3.68.14,6,0,1.17-.05,2.39-.07,3.63a35.37,35.37,0,0,1-.17,3.72,5.13,5.13,0,0,1,0-1.53c0-.81,0-1.8,0-2.63,0,2.68-.39,5.66-.64,8.85-.51,3.16-.94,6.54-1.82,9.9l-.6,2.55c-.24.84-.52,1.67-.78,2.51l-.78,2.51-.4,1.25-.49,1.21q-1,2.42-1.94,4.77c-.76,1.51-1.51,3-2.23,4.42-.23.44-.45.89-.7,1.32s-.53.83-.79,1.24c-.52.82-1,1.61-1.46,2.36a19.47,19.47,0,0,1-1.27,1.77l-5,7,2.12-8.14,0-.13a64.15,64.15,0,0,0,.89-7.41,55.68,55.68,0,0,0,0-7.06c0-.4-.06-.18-.05,0-.06-.67-.13-1.38-.21-2.11,0-.37-.09-.74-.14-1.12l-.06-.46-.05-.33c-.07-.49-.13-.81-.2-1.18s-.14-.74-.24-1.11-.18-.75-.28-1.12c0,0,0-.15,0-.08l-.06.11-.13.24-.25.47c-.34.64-.65,1.23-.92,1.76.39-.8.84-1.7,1.33-2.68l.05-.09,0-.05v.05l.06.19.11.39c.07.27.14.55.22.82.13.56.25,1.14.35,1.73l.18,1.14c.07.6.15,1.2.21,1.81.12,1.21.21,2.43.25,3.63a54.2,54.2,0,0,1-.2,7,40.37,40.37,0,0,0,.26-8.41c0-.79-.12-1.58-.2-2.38l-.15-1.21-.08-.61-.07-.39-.12-.76-.13-.65c-.09-.43-.17-.86-.28-1.29-.07-.27-.13-.55-.21-.82l-.11-.42a.93.93,0,0,0-.06-.18l-.1.18-.78,1.47c-.67,1.26-1.32,2.51-2,3.71-1,1.87-2,3.87-2.88,5.64l-1.35,2.6c-.57,1.08-1.07,2-1.46,2.69-4.1,7.93-7.72,14.91-11,21.21,1.84-10.61,3.49-20.1,5.37-30.9-.1.39-.27,1.29-.46,2.39-.24,1.4-.52,3-.77,4.5,0-.3.1-.82.21-1.51s.22-1.34.36-2.15c.21-1.23.47-2.68.69-4,.21-1.12.95-5.15.6-2.94-.27,1.71-.44,2.22-.57,3.31.85-4.42,1.53-8.35,1.71-9.92.66-2.67,1.93-10.93,3.12-17.65.77-4.46,1.59-9.23,2.45-14.18q.62-3.58,1.26-7.28c.24-1.31.48-2.63.73-4l-.14.12c-.24.24,0,.08-.25.34a2.49,2.49,0,0,1-.43.22c-.25.25-.23.39-.63.69,0-.08.19-.22.31-.34-.5.36-1.28,1.08-2,1.72L450,114c-.6.52-1.14,1-1.55,1.25-.72,1-5.2,4.68-7.71,7-.25-.15,1.19-1.18,2.42-2.3-1.52,1.23-2.42,2-3.43,3l-2.2,2-3.34,2.93c.85-.69,1.77-1.45,2.84-2.38s2.5-2.18,3.36-3c-.56.69-2.93,2.83-5,4.68-.53.46-1.09,1-1.59,1.38l-1.46,1.2-2.61,2.14c1.05-.76,2.42-1.82,3.94-3-1.55,1.36-2.9,2.37-4.15,3.31-.15.11-.32.25-.46.33l.23-.8.44-1.56c.28-1,.52-2,.75-3-.3,1.38-.68,2.94-1.11,4.57l-.08.31a1.21,1.21,0,0,0,0,.14l.11-.09.44-.36.91-.78q.94-.8,2-1.8l-2.12,1.71-1.06.87c-.14.16,0-.11,0-.21l.1-.38.2-.77c.52-2.07,1.06-4,1.59-5.89s1.19-3.83,1.88-5.52c.54-1.43,1.17-2.78,1.78-4.08.49-1.06.16-.69.66-1.74-.26.94.61-1.07,1-1.66,0,.19-.8,1.63-1.12,2.38,0,.36.82-1.81,1.05-2a26.32,26.32,0,0,1-1.26,2.73,37.34,37.34,0,0,0,2.44-4.7c-.08.87,1.81-2.92,2.44-3.85-.11.36-1.1,2-1.54,3,.27-.38.73-1.23,1-1.6.07.43-1.21,2.48-1.47,3.35.9-1.64,2.15-3.93,3.31-5.81-.2.17-.93,1.61-.9,1.23,1.38-2.25,3.71-5.64,3.91-5.51-.22.35-.07.18,0,0a70.8,70.8,0,0,0-4.63,7.56c.44-.55.77-1.42,1.66-2.89-.67,1.49.23-.33.35-.26-1,1.88-1.35,2.08-1.84,3.2,0,.11.25-.29.22-.31-.18.51-.56,1.34-1,2.35s-1,2.21-1.54,3.47c-.27.63-.53,1.27-.8,1.91l-.71,1.88c-.24.61-.43,1.19-.6,1.74l-.13.4c0,.13-.09.28-.09.3l-.06.3c.09,0,.52-1.75.9-2.25-.2-.06.39-1,1.15-3.06A37.76,37.76,0,0,0,436.22,118.73Zm36.1-.1a24.31,24.31,0,0,0-.51-2.9A27.93,27.93,0,0,0,472.32,118.63Zm4.28,20.3a33.45,33.45,0,0,0-.3,3.77A36.29,36.29,0,0,0,476.6,138.93ZM464.37,178c-.16,0,2.35-3.71,2.88-4.94-.63,1.2-3,4.82-3.91,6.55A9.54,9.54,0,0,0,464.37,178Zm-17.2-66.4.11.08c.66-.55,1.82-1.71,1-1.06C448.18,110.93,447.82,111,447.17,111.61Zm12.11-10.69c-1.66,1.44-2.36,1.87-5.35,4.65a30.28,30.28,0,0,0,2.45-2.07C457.18,102.77,458.09,101.93,459.28,100.92ZM445.7,113.24a16.59,16.59,0,0,0,2.52-2.22C447.59,111.52,446.1,112.8,445.7,113.24Zm9.74,13.5c-.07,1.23-.64,3.22-.49,3.67C455.34,128.36,455.63,126.5,455.44,126.74Zm-20.56-4.22a.87.87,0,0,1,.18-.31,3.43,3.43,0,0,0,.14-.68,2.15,2.15,0,0,1,.25-.69,2.11,2.11,0,0,0-.37.89C435,122.11,434.89,122.49,434.88,122.52Zm21.47-1.29-.7,4c.11,0,0,.69.24-.38C455.66,125.07,456.54,120.68,456.35,121.23Zm-2.11,12.5a22.18,22.18,0,0,0,.64-2.95A27,27,0,0,0,454.24,133.73Zm19.09-7.49a24.67,24.67,0,0,0-.48-3.61c.06.48.2,1.59.32,2.47S473.3,126.65,473.33,126.24Zm-5-23.3c.41,1,1,3,1.3,3.42A27.06,27.06,0,0,0,468.32,102.94Zm.61.89c.35,1.13-.54-1.41-.5-1,.76,1.87,1.22,3.43,1.82,4.81C469.77,106.38,469.41,104.81,468.93,103.83Zm-16.89,23c.16-1.12.6-3.17.59-3.68C452.46,124.32,452,126.37,452,126.88Zm24.45,6c0-.33,0-.8,0-1.15s0-.55.07-.38c-.11-1.88-.33-5.82-.45-4.86a19.11,19.11,0,0,1,.19,2.64C476.34,130.41,476.47,131.83,476.49,132.92ZM474,113.5c.88,4.29.79,2.74,0,0ZM460.9,174.15a11.09,11.09,0,0,0-.17,2.16c.1-1,.37-2.49.29-2.53C461,174.06,461,174.21,460.9,174.15Zm15-54.2c.05.46,0,.25-.08,0,.12,1.15.47,3.22.45,3.77a11.73,11.73,0,0,1-.29-1.86,7.34,7.34,0,0,0,.13,2.11c.07.53.15,1.07.22,1.51a7.12,7.12,0,0,0,.13.91c0-.8-.32-2.46-.24-2.65.22,1.57.11-.27.32,1.07C476.35,123.16,476,120.42,475.9,120Zm-28.17,31.19c-.11-.3.56-3.46.55-3.67C448.63,146.59,447.76,150.27,447.73,151.14Zm3.32,14.2a20.13,20.13,0,0,1,1.11-2.35c0,.07.11-.05.25-.3C452.28,163.08,451.7,164.12,451.05,165.34ZM435.78,121c.07,0,0,0,0,.07a2,2,0,0,1-.09.59c-.23.3.06-.36-.11,0s.05-.25.08-.3,0-.08-.1,0,0,.29-.18.33c-.17.41.21-.2.05.19s-.11-.19,0-.64C435.55,121.23,435.68,121.16,435.78,121Zm12.7,48.58c-.37,1.09-.45,1.2-.36.75s-.09.56.28-.54a5.47,5.47,0,0,1,.13-1l.26-1.24c.18,0,0,.22,0,.3s-.05,0,0,0a5.72,5.72,0,0,0-.16.84A8,8,0,0,1,448.48,169.57ZM446.09,99.3c-1.68,2.3-3.12,4.33-1,1.15.59-.87,1.12-1.41,2-2.66.07,0-.05.13-.17.31s.12-.09.25-.28c-.62,1.06-1.83,2.42-2.75,3.9A25.51,25.51,0,0,1,446.09,99.3ZM469.44,158a14.68,14.68,0,0,1-.74,2.43C468.84,159.75,469,159.33,469.44,158Zm-3-59a2.26,2.26,0,0,0-.34-.64c-.43-.91,0-.42-.31-1.12C465.89,97.2,466.74,99.2,466.48,99Zm-31.74,16.22c-.27,1.13-.84,1.68-1.31,3.14A24.43,24.43,0,0,1,434.74,115.18Zm11.79,2.27c-.33.32-.2.31.08,0l-4.74,4.23c.39-.54,3.37-2.94,2.9-2.86C445.42,118.3,447.89,116.34,446.53,117.45Z"/><path class="cls-2" d="M1744,120.76c4.2,8.48,8.43,17.06,10.62,26.32s2.16,19.4-1.94,27.85-12.84,14.74-21.9,13.88c-5.86-.56-11.24-3.93-15.46-8.25s-7.43-9.58-10.61-14.79l-9.92,27.35a342.74,342.74,0,0,1-.71-62.19l34.66,18.83a3,3,0,0,0,2.42.52,3.17,3.17,0,0,0,1.49-2l11.58-28.86"/><path class="cls-2" d="M1755.75,171.07a25,25,0,0,0,.84-3.27A28.2,28.2,0,1,0,1755.75,171.07Zm1.71-12.65c0-.3-.07-1.27-.13-2.32A14.57,14.57,0,0,1,1757.46,158.42Zm-2.93,15.85a24.63,24.63,0,0,1-2.63,4.8c.35-.51.45-.81.85-1.46-.24.46.23-.2.68-1.11S1754.38,174.5,1754.53,174.27Zm2.7-19.51c0-.07-.13-1.23-.2-1.3,0,.11.11.56.13,1.33-.07-.55-.17-1.18-.31-2.29.07.36.08.27,0-.35A13,13,0,0,1,1757.23,154.76ZM1748.58,183a22.37,22.37,0,0,1-2,1.83,24.41,24.41,0,0,1-2.25,1.65A35.41,35.41,0,0,0,1748.58,183Zm6.6-10.65c0,.16-.33,1-.66,1.76a8.08,8.08,0,0,1-.67,1.37C1754.46,174.13,1754.72,173.64,1755.18,172.37Zm-.19.32c-.09.11.39-1.14.85-2.79a34.61,34.61,0,0,0,1-5A32.91,32.91,0,0,1,1755,172.69Zm-22.78,17.5c-.7-.05-1.41,0-2.1-.14-.17-.07.16,0,.64,0l1.44.07Zm-3.48-.4a16.17,16.17,0,0,1-2.22-.53,9.39,9.39,0,0,1-1.76-.67A21.69,21.69,0,0,0,1728.73,189.79ZM1705,168.71v-.06s.13.13.22.28l1.76,2.78c-.57-.83-1-1.57-1.56-2.39-.12-.18-.25-.38-.41-.64Zm-11.31,26a8.9,8.9,0,0,1,.18,1.23c0,.35.07.75.11,1.18l.06.7c0,.12,0,.24,0,.37l0,.19v.1s0,.08,0,0c.68-1.82,1.54-4.07,2.29-6.2,0,.1-.67,1.93-1.46,4.08-.2.53-.41,1.09-.61,1.65l-.16.42-.07.21,0,.05v-.16c0-.3-.06-.59-.08-.88C1693.87,196.5,1693.77,195.45,1693.69,194.69Zm-1-10.46c.1.49.17,1.4.25,2.34s.13,1.6.19,2.34.14,1.51.2,2.07c-.08-.26-.24-1.81-.39-3.68C1692.9,186.24,1692.81,185,1692.74,184.23Zm63.35-34.88a67.6,67.6,0,0,0-1.69-6.73A45.44,45.44,0,0,1,1756.09,149.35Zm-55.15,30.31c.23-.75.68-2,1.17-3.37C1702,176.89,1701.43,178.32,1700.94,179.66Zm43.87-59.29,1.43,2.94A32.65,32.65,0,0,1,1744.81,120.37Zm-2.74,4.18c.47-1.36,1.43-3.58,2-5.14C1743.86,120.31,1742.66,123.08,1742.07,124.55Zm13.31,30.75c0,.06-.08-.37-.11-.28a40.17,40.17,0,0,0-.56-5.19A34.14,34.14,0,0,1,1755.38,155.3ZM1751.82,140c.17.4.76,2.08,1,3.07C1752.56,142.33,1752.15,141,1751.82,140Zm1.22,32.1a13.68,13.68,0,0,1-.8,2C1752,174.4,1752.22,174.13,1753,172.08Zm-11.14-45.7c.06-.26.82-2.1,1-2.42C1742.74,124.44,1742.29,125.32,1741.9,126.38Zm-2.21,60.16c.35-.18.69-.33,1.08-.54a14.07,14.07,0,0,0,1.42-.76,9.13,9.13,0,0,1-1.19.7A10,10,0,0,1,1739.69,186.54Zm-1.61-50.47c.16-.52.92-2.31,1.31-3.33-.73,2-1,2.83-2.08,5.45.13-.54.66-1.68,1.16-3C1738.42,135.21,1738.23,135.71,1738.08,136.07Zm-12.38,50.7A19.47,19.47,0,0,0,1733,188,16.51,16.51,0,0,1,1725.7,186.77ZM1697,184.89c.44-1.53,1.59-4.42,2.41-6.74C1698.86,180,1698.15,181.73,1697,184.89Zm55.71-12.52a19.35,19.35,0,0,1-.89,2.14c-.43.83-.9,1.71-1.32,2.37A30.16,30.16,0,0,0,1752.74,172.37Zm-58.84-16.08c.1.64,0,2.1,0,3.88A38,38,0,0,1,1693.9,156.29ZM1704,137.63c-.78-.36-2.76-1.49-4-2.15C1701.09,136,1702.54,136.83,1704,137.63Zm-9.45,30.16c0-.91,0-.85,0-1.63A5.63,5.63,0,0,1,1694.53,167.79Zm62,0a16.88,16.88,0,0,1-.41,1.83c-.15.61-.37,1.26-.63,2.09a6.15,6.15,0,0,1,.18-.65c0-.06-.06.13-.12.33C1755.6,171.05,1756.26,168.89,1756.49,167.81Zm-.14-17.16a4.81,4.81,0,0,0,.16,1.33c.07,0-.15-1.45.11.29a11.8,11.8,0,0,0-.18-1.32,5.39,5.39,0,0,1,.15.63,2.26,2.26,0,0,0-.13-.64c-.09-1.06.35,1.29.45,2.23s-.06.14-.08.05a6,6,0,0,1,.13,2c-.07-.85,0-.42,0-.36-.08-1-.16-1.15-.27-2.3,0,.87.27,2.92.33,4.9s0,3.88,0,4.41c0,.12-.18,1.6-.21,2.33a11.43,11.43,0,0,0,.28-2.36,10.19,10.19,0,0,1-.1,1.55c0,.5-.12,1-.18,1.54s-.15.94-.19,1.24c0,0,.16-1.1.09-1a5.73,5.73,0,0,0-.15,1.31,33.34,33.34,0,0,1-3.47,10.1,27.21,27.21,0,0,1-7.29,8.56c1-.79,0,.11-.76.64-.14.06.18-.18.51-.42-.24.14-.64.43-1,.69s-.65.48-.66.51c-.56.28-1,.62-2.12,1.15a13.86,13.86,0,0,1-1.84.82,20.83,20.83,0,0,0,3.6-1.85,24.83,24.83,0,0,1-5,2.29,5.82,5.82,0,0,1,.79-.32l1.12-.42a29.77,29.77,0,0,1-5.41,1.42,18.43,18.43,0,0,1-7.75-.49,18.45,18.45,0,0,0,3.21.64c.64,0,1.31.07,2,.09s1.35,0,2-.12a4.26,4.26,0,0,1-1.09.11,14.6,14.6,0,0,1-1.65,0,6,6,0,0,0,1.36.06l1-.05c.37,0,.75-.1,1.14-.16,1.54-.21,3.06-.7,3.67-.82a19.91,19.91,0,0,1-13.91-.39,30.91,30.91,0,0,1-10.74-7.5c-.52-.53-.31-.39-.67-.78a49.83,49.83,0,0,1-5-6.32c-.77-1.13-1.53-2.32-2.31-3.59-.33-.53-.67-1.07-1-1.64q-.18-.28-.36-.6c-.22.62-.47,1.29-.73,2,.16-.19-.39,1-.61,1.83s.2-.7.12-.61c-.93,2.64-1,3-2.18,6.13.54-1.54.92-2.47,1.21-3.37-1.29,3.56-3.17,8.73-4.33,12,.86-2.25,2-5.47.71-1.85l-.51,1.47-.74,2.05c-.38.93.09-.38-.28.53-.66,1.84-1.29,3.58-1.88,5.24-.3.83-.6,1.64-.89,2.43-.14.4-.28.8-.43,1.19l-.21.59-.06-.59c-.34-3.23-.66-6.24-1-9.24,0,.1.23,2.51.3,2.76,0-.84-.17-2-.28-3.21,0-.44-.08-.88-.12-1.27s0-.57,0-.76c0-.44-.07-.25-.11-.29-.08-1.42-.08-.79-.19-2.27.06.28.12,1.18.18,1.26-.28-3.42-.47-7.49-.7-11.41,0,.06,0,.6,0,1-.1-.75-.11-3.2-.21-4.89,0,1.73.28,7.12.38,9.84.15,3.07-.27-3.89-.3-4.89-.34-8.09-.35-16.29-.12-25.55,0,1.85-.11,6.51-.08,9.46.08-.72,0-4.21.1-4,0-1,0-.91,0-2.27,0,.1,0,.56,0,.63,0-1.38,0-1.76.07-3.27,0,.11,0,.82-.06,1.31a25.88,25.88,0,0,1,.11-3.27c.08-2.39.19-5,.35-7.63.09-1.34.19-2.71.28-4.11q.23-2.82.45-5.72l9.78,5.37,8.71,4.71c-.17-.15-1.77-.95-2-1.13-.56-.32,1.91,1,2.29,1.24-.43-.34-3.53-2-4.86-2.7l-4.3-2.33c4.09,2.09,8.59,4.59,13.76,7.4-.18-.08-.68-.28.28.22-.78-.36-2.77-1.49-4-2.15l8.88,4.88c-.12-.12-1.52-.82-1.72-1l6.54,3.58,1.67.92c.53.28,1.07.59,1.47.78a1.86,1.86,0,0,0,.94.24.68.68,0,0,0,.42-.23,6.13,6.13,0,0,0,.86-1.54c.39-.85.81-1.75,1-2.26.74-1.75,1.79-4.76,2.29-5.45-.12.27-.3.69-.5,1.21.23-.42.74-1.74,1-2.11a30.68,30.68,0,0,1,1.67-4.24c.38-1.07.53-1.4.92-2.42,0,.17-.14.47-.3.91a19.37,19.37,0,0,0,1.14-2.72c.54-1.3.62-1.17,1.44-3.33a21.73,21.73,0,0,0,1.57-3.33c-.05.27-.85,2.11-.92,2.43.63-1.45.5-.91,1.13-2.42a5.4,5.4,0,0,1-.37.91c-.22.65.53-1.12.63-1.21.56-1.55.61-1.54,1.06-2.72-1.14,3.36-3.63,9.71-5.4,14.23-.33.76-.72,1.71-.94,2.11-.22.58-.25.76-.55,1.52,0-.06.54-1.26,0,0,.26-.59,1-2.29,1-2.42.06.11-1.12,3.07-2,5.14-.89,2.33-1.64,4.52-3,7.59a4.44,4.44,0,0,1-.73,1.31,5.46,5.46,0,0,0,1.08-1.9l.73-1.84c.47-1.21.9-2.31,1.14-3-.17.69.51-1.17.92-2.12-.31.91-1,2.59-1.69,4.34l-1,2.58a4.73,4.73,0,0,1-1.45,2.27,3.33,3.33,0,0,0,.67-.61c.09-.1.1-.1.06,0a2.79,2.79,0,0,1-.39.49,2.45,2.45,0,0,1-1.09.62,2.82,2.82,0,0,1-1.5,0,6.31,6.31,0,0,1-1.23-.51c-.69-.37-1.32-.73-1.78-1a19.09,19.09,0,0,1-1.74-.84,5.08,5.08,0,0,1,.87.42c-2.29-1.37-6.32-3.52-10-5.52a35.5,35.5,0,0,1,3.17,1.63c-3.42-1.88-7.58-4.12-12-6.46l-12.1-6.47c-.09,1.32-.17,2.55-.25,3.74-.12,1.69-.26,3.4-.32,4.88,0,1-.12,1.28-.18,2-.21,5.37-.28,8.12-.34,13,0,.37,0,.18,0,0,0,4.82.07,11.77.27,16.26-.33-6.35-.46-16.35-.16-24.38-.27,4.26-.26,10.38-.16,16.29.06,3.79.18,7.55.35,11.06.17,3.67.54,7.8.62,9.75.1,1.13.2,2.23.29,3.29l.12,1.19.06.57c.06-.14.13-.35.19-.52.69-1.89,1.34-3.69,2-5.46,1.83-5.07,3.6-10,5.57-15.4-.27.64-1.12,3-1.8,4.9.11-.35.4-1.19.77-2.21l1.26-3.46c.28-.79,1-2.71,1.38-3.77.46.76.63,1,0,0a.24.24,0,0,0,0,.07c-.75,2.13-1,2.75-1.48,4.11l1.51-4.12,2.58,4.19c.53.84,1,1.5,1.25,1.92,1.19,2,5.24,8.15,9.76,11.9a24.47,24.47,0,0,0,10.88,5.59,18.79,18.79,0,0,0,12.73-2.16c.42-.26-.27.12.24-.19.77-.43.31-.19,1.13-.62.41-.28.16-.19,1-.75a5.1,5.1,0,0,1-.5.38,22.75,22.75,0,0,0,3.39-2.77c1.1-1.11,2-2.25,2.61-2.91.12-.22.4-.64.77-1.17s.79-1.22,1.18-2a25.81,25.81,0,0,0,2.05-4.75,9.72,9.72,0,0,1-1,2.68,25.39,25.39,0,0,0,1.37-3.62,39.25,39.25,0,0,0,1.06-4.69,45.38,45.38,0,0,1-1.32,5.32c.29-1,.68-2.62,1-4.29a40.29,40.29,0,0,0,.63-4.84c-.11,1-.26,2.26-.48,3.54a39.55,39.55,0,0,0,.56-7.42,45.08,45.08,0,0,1-.25,6.42,41.6,41.6,0,0,0,.31-8.07,63.86,63.86,0,0,0-1-7.78c-.21-1-.18-.58-.41-1.56.26.8-.17-1-.31-1.63.09.13.37,1.53.55,2.21.14.24-.41-1.67-.43-1.93a22.5,22.5,0,0,1,.61,2.54,11.4,11.4,0,0,0-.3-1.67,27.87,27.87,0,0,0-.75-2.81c.38.63-.74-2.91-1.08-3.84.16.29.68,1.94,1,2.77-.09-.4-.37-1.2-.46-1.59a27.15,27.15,0,0,1,1.08,3c-.41-1.6-1.14-3.8-1.8-5.64,0,.22.56,1.56.38,1.29-.35-1.11-.86-2.51-1.28-3.64a14.79,14.79,0,0,1-.7-2c.15.34.09.15,0,0,1,2.37,1.79,4.66,2.76,7.38a28.64,28.64,0,0,0-1-2.8c.58,1.33-.1-.34,0-.37.68,1.77.7,2.1,1.08,3.11.06.06-.06-.32-.09-.32a42,42,0,0,1,1.74,5.43c.64,2.38,1.1,5,1.36,6.6,0-.68-.33-2-.36-2.64-.12,0-.15-1-.64-2.89C1755.77,148,1756.11,149.79,1756.35,150.65Zm-24.79-2a23.09,23.09,0,0,0,1-2.35C1732.23,147.15,1731.75,148.17,1731.56,148.67Zm-15.19-4.84c-1.29-.68-2.24-1.28-2.87-1.52C1714.51,142.87,1716.48,143.94,1716.37,143.83Zm-22.08-3.13c-.06.09.19-3.74.29-4.87-.15,1.14-.37,4.83-.4,6.5A15.65,15.65,0,0,0,1694.29,140.7Zm55.91,40.21-.07,0c-.48.62-1.49,1.7-.84,1.05C1749.43,181.69,1749.7,181.58,1750.2,180.91Zm-7.27,6.12a17.94,17.94,0,0,0,3.15-2.08A37.54,37.54,0,0,1,1742.93,187Zm8.39-7.78c0-.07-2.24,2.79-1.91,2.39A19.19,19.19,0,0,0,1751.32,179.25Zm-27.5,8.65c-1.06-.37-2.62-1.41-3-1.52A11.8,11.8,0,0,0,1723.82,187.9ZM1757,158.6c0-.26,0-.39,0-.35,0-1.5-.18-2.8-.23-4,0,.09.07,1.12.12,2.16S1757,158.51,1757,158.6Zm-28.33,30.86a22.19,22.19,0,0,1-3.6-1.05s-.61-.16.32.21c-.07-.08.84.26,1.75.51A7.85,7.85,0,0,0,1728.67,189.46Zm-10.33-4.88a16.15,16.15,0,0,0,2.2,1.62C1720.6,186.16,1718.77,185,1718.34,184.58Zm8.57-36.81a29.05,29.05,0,0,0,2.83,1.48c-.32-.13-1.22-.64-1.91-1S1726.61,147.58,1726.91,147.77Zm10.22-12.34c-.35.93-1.07,2.61-1.18,3C1736.54,136.93,1736.87,136.32,1737.13,135.43Zm-.22.92c-.42,1,.48-1.24.29-.91-.63,1.67-1.21,3-1.67,4.23C1736,138.54,1736.6,137.26,1736.91,136.35Zm-13,49.78a16.56,16.56,0,0,0,2.93,1.15C1726,187,1724.35,186.28,1724,186.13Zm-3-39.95c.51.28,1.44.75,1.15.66a37.5,37.5,0,0,0,3.73,1.93C1725.28,148.55,1722.67,147,1721,146.18Zm13.37-.73c-1.4,3.5-.81,2.32,0,0Zm-40.4,1.78a18.31,18.31,0,0,0,0-1.94c0,.91-.11,2.25-.08,2.28C1693.9,147.31,1693.91,147.18,1693.94,147.23Zm37.61,3.75c-.57.19-.3.08,0,0a2.46,2.46,0,0,1-1.22.17,3.89,3.89,0,0,1-1.14-.32,9.18,9.18,0,0,1-1.32-.71c1,.52.31.15,1.53.75-.14-.09-3.11-1.74-3.53-1.88.59.34,1.88,1,2,1.11-1.2-.64.16.16-.87-.37.66.35,1.4.82,2.29,1.21a3.26,3.26,0,0,0,1.38.29A2.23,2.23,0,0,0,1731.55,151Zm-22.47,20.45c.19.16,1.72,2.5,1.86,2.63C1711.31,174.77,1709.53,172,1709.08,171.43Zm-16.45,9.14c-.11-.37-.08-1.34-.19-2.27,0,0,0-.09,0-.34C1692.52,178.31,1692.56,179.35,1692.63,180.57Zm64.49-24.72a1,1,0,0,1,0,.33c0,.44.06.95.09,1.51s0,1.17,0,1.82c-.06-.11,0-1.89,0-1,0,0,0-1.13,0-1.34a4.75,4.75,0,0,0-.08-.65c0,.05.11,1.54,0,.69,0,1.09.08.22.08,1.31-.07-.18-.1-1.57-.19-3C1757.07,156,1757.12,156.34,1757.12,155.85ZM1698.36,187a10.79,10.79,0,0,1,.77-2.45c.28-.65-.89,2.46-.68,2.14,2.1-5.93,2.82-7.82,4.89-13.48a23.66,23.66,0,0,1-.84,2.45,4.78,4.78,0,0,1,.2-.61C1701.75,177.66,1699.86,182.89,1698.36,187Zm51.84-55c1,2.35,1.77,4.43.48,1.25-.37-.86-.59-1.49-1.16-2.73,0-.07.07.1.15.29,0,0,0-.14-.12-.32.5,1,1.08,2.49,1.69,3.92C1751,133.87,1750.65,132.93,1750.2,132Zm-48.47,1.9c.84.41-1.44-.67-2-1.06C1700.24,133.05,1700.6,133.28,1701.73,133.87Zm36.8-2.07a3.71,3.71,0,0,0,.22-.6c.33-.84.2-.28.46-.91A8,8,0,0,1,1738.53,131.8Zm16,16.69c.27,1,.26,1.59.49,2.89C1754.88,150.53,1754.81,149.58,1754.58,148.49Zm-3.75,28.15c.2-.34.12-.28,0,0a27.14,27.14,0,0,0,2.33-4.85c-.09.57-1.52,3.49-1.29,3.21C1751.52,175.67,1750,177.88,1750.83,176.64Z"/><path class="cls-2" d="M1729.24,91.36a13.7,13.7,0,0,0-8.91,12.64,15.15,15.15,0,0,0,8.3,13.29,16.52,16.52,0,0,0,15.68-.86c3.3-2,6-5.48,6.06-9.38a12.53,12.53,0,0,0-2.92-7.58c-4.26-5.59-12-8.92-18.45-6.22"/><path class="cls-2" d="M1726.09,104c0-.16.07-.42-.08-.57C1725.87,103.92,1726.1,104.82,1726.09,104Zm.19-2.21c-.16-.11-.11-.29,0-.47C1726.49,101.42,1726.3,101.62,1726.28,101.8Zm-.33,2.8a2.07,2.07,0,0,1,.16,1c-.09-.09-.26-.12-.33-.25C1726.19,105.43,1725.71,104.72,1726,104.6Zm.37-3.51c-.17-.08,0-.25-.15-.34s.06.15-.09.25a.5.5,0,0,1-.07-.53c.07.11.14.12.18,0C1726.51,100.63,1726.37,100.86,1726.32,101.09Zm-.22,5.44c.26.15.37.7.4,1C1726.12,107.33,1726.28,106.82,1726.1,106.53Zm-.52-2.27c.11.06.27.62,0,.63C1725.43,104.61,1725.63,104.5,1725.58,104.26Zm-.26.07c-.44.06-.09-1-.13-1.54C1725.57,103.33,1725.07,103.8,1725.32,104.33Zm2.26,5.38.26.31c-.2.26-.27-.13-.4-.2Zm.31.63c.15,0,.73.42.52.64A7.37,7.37,0,0,1,1727.89,110.34Zm6.13,3.35c-.27.28-.94.06-1.4-.07A7.06,7.06,0,0,1,1734,113.69Zm6.61-1c.13.5-.72.24-1.14.6C1739.44,113.13,1740.34,112.93,1740.63,112.71Zm1.26-.75c.11.54-.61.5-.8.7C1741,112.28,1741.71,112.22,1741.89,112Zm-16.45-12.55a.68.68,0,0,1,.34-.68c.2-.19.43-.35.48-.66C1726.5,98.45,1725.69,98.86,1725.44,99.41ZM1737.11,114a1.07,1.07,0,0,1-.78.27C1736.45,114.08,1736.8,114.08,1737.11,114Zm-6.75-19.31c-.28,0-.34.19-.68.2C1729.7,94.8,1730.3,94.42,1730.36,94.73Zm.4-1.56a5.4,5.4,0,0,1-1.57.55C1729.32,93.29,1730.3,93.24,1730.76,93.17Zm-11.48,5.22c-.15,0-.12-.2-.28-.23.48-.32.85-1,1.33-1.48C1720.29,97.3,1719.78,97.52,1719.28,98.39Zm2.59-5.23a2.58,2.58,0,0,1-.75,1C1721.08,93.71,1721.53,93.38,1721.87,93.16Zm-4.7,11.44c.39.49,0,1.77,0,0ZM1730.84,91c-.06.2-.75.29-.9.23C1730.05,90.93,1730.48,91.2,1730.84,91Zm-11.65,21.28c-.37-.15-.35-.48-.59-1A1.87,1.87,0,0,1,1719.19,112.26Zm15.31-21.83c-.2.18-.88,0-1.27.12a3.82,3.82,0,0,1,2.09-.35c-.22.29-.65,0-1.17.13C1734.17,90.44,1734.36,90.42,1734.5,90.43Zm-11.88,26.3c-.87-.31-1.33-1.07-2.17-2A16,16,0,0,1,1722.62,116.73Zm17.71,4.41c-.47.56-1.68.39-2.56.6C1738.43,121.36,1739.15,121.52,1740.33,121.14Zm-23.85-16.36c.2.43.15,1.43.32,2.07A6.12,6.12,0,0,1,1716.48,104.78Zm36.86,5.74c.33.39-.13.92-.39,1.63A2.78,2.78,0,0,1,1753.34,110.52Zm-2.91-14.75c.38.12.84.92,1.2,1.33A4.35,4.35,0,0,1,1750.43,95.77Zm2.4,20.19c.17-.38.32-.24.49-.57C1753.42,115.61,1753.07,116.23,1752.83,116Zm-27.17-12.55c.18.26,0,.41.08.72-.08,0-.08-.07-.09-.12s-.09,0-.09.06S1725.51,103.6,1725.66,103.41Zm-.28-3.7c-.1,0-.21-.15-.28.2.22.11.35-.19.21.17.12,0,.14-.14.2-.23a.3.3,0,0,1,.1.21c.12,0,.05-.11,0-.17.36-.06.28.46.29.67s-.29-.1-.33-.14c0,.28,0,.42-.4.3.06-.17.09-.06.19,0,.11-.2,0-.29.11-.5-.31.07-.53.48-.64.9a1.56,1.56,0,0,0,0,1c.15.06-.35.28-.09.48.24,0,.34-.16.35-.42.19,0-.08.63,0,.87-.16,0,0-.22-.24-.23-.1.21.11.23.23.3a10.55,10.55,0,0,0,.53,4.31c.07-.3.18,0,.33.09-.13.08-.17,0-.22-.06-.17.19.18.38.33.31-.11.19,0,.28.07.51.27.73.25.42-.36-.3-.07.31.33.73.48,1-.33.08-.34-.08-.3-.33-.27.36,0,.8.32,1.23a7.8,7.8,0,0,1,1.06,1.34c-.06-.43-.57-.84-.88-1.31.32-.06.22.21.44.41.36-.5-.9-1-.45-1.53a9.74,9.74,0,0,0,3.68,4.32c.16,0,0,.19.11.25a7.92,7.92,0,0,1,2,.69,6,6,0,0,0,2.59.62c0-.33.26.06.46-.18.21.09-.17.2-.15.35.67-.07.73-.48,1.54-.17-.38.11-.63,0-.85.07a7.41,7.41,0,0,0,3-.41c-.6-.05-1.34.3-.49-.05a3.11,3.11,0,0,1,.78-.32c.18.14,0,.19.18.32a5.18,5.18,0,0,0,2.3-1.54c.07.17-.26.19-.23.34.33.16.47-.47.75-.35.06-.08-.07-.21-.14-.33.31-.09.1-.18.35-.35,0,.16-.12.26,0,.45a5.37,5.37,0,0,0,1.84-1.66c-.09-.06-.14.05-.2.1-.14-.34.54-.41.56-.83-.45,0-.93,1.11-1.59,1.24-.55.32.52-.61.64-.77,1.12-1.08,2.26-2.29,2.13-3.64.41.28,0,1,0,1.47.18,0,.2-.19.24-.34s0-.28.25-.22c0-.17-.25-.2-.13-.4.11,0,.13.11.25.14-.07-.24,0-.29,0-.54-.12,0-.07.13-.09.21-.15-.15-.14-.71.08-.54a10.41,10.41,0,0,0-.71-3.33,8.86,8.86,0,0,0-2.81-3.71c-.1.19.39.32.31.51.08.15-.45-.31-.49-.43-.08.19.06.4.27.59s.42.41.55.54a5.85,5.85,0,0,1,.8.89c-1-.61-1.75-1.61-2.9-2.48.08,0,.34-.14.09-.26.28,0,.65.43.95.62a8.87,8.87,0,0,0-.94-.87,11.62,11.62,0,0,1-1-.79c-.07.18.37.22.32.4a10.12,10.12,0,0,0-3-1.61c-.21.16-.62-.84-.89-1a3,3,0,0,0-.83-.12.56.56,0,0,1-.56-.56.41.41,0,0,0,.32.12c-.08-.23-.45-.25-.53-.5.26.36-1.24.47-1.18,0a2.25,2.25,0,0,1-.66.2.43.43,0,0,1,.24-.27c-.12-.22-.63-.51-.77-.13-.36,0-.41-.54-1-.28-.19-.52-.63-.61-1.17-.61,0-.22.64-.14.68-.36-.49-.08-.41-.43-.91-.39,0-.11.25-.19.29-.08.17-.19-.45-.2-.55-.4-.44.36-.49.21-.85.41a4.29,4.29,0,0,1,2-1.39,11.3,11.3,0,0,1,1.38-.38c.47-.07.93-.15,1.35-.18s.63.17.77.38c.21,0,.28-.19.56-.15,0-.12-.45-.19,0-.17-.21-.09-.84-.31-.89-.22,0-.19.31-.28.71-.31a5.31,5.31,0,0,1,1.25.13,5.15,5.15,0,0,1,2.89.32,6.11,6.11,0,0,0,.58-.27c-.44-.08-.93-.23-1.39-.33a2.6,2.6,0,0,0-1.21,0c.34-.33-.41-.27-.78-.4a3.09,3.09,0,0,1,1.73.14,8.37,8.37,0,0,0,1.81.47c-.88-.59,1.34-.63,1.87.19.06-.11.41-.11.81,0a.37.37,0,0,1-.41,0,31.3,31.3,0,0,0,3.48,2.47c-.26.23-.78-.26-1.24-.52,2.63,2,6.76,5,8.33,9.32.24.65.29,1.38.47,2,.08.42-.12.58-.17.88a8.74,8.74,0,0,1,.16,2.82,11.38,11.38,0,0,1-.55,2.62c0,.15.07.09.09,0a10.34,10.34,0,0,1-1.35,3.1,17.73,17.73,0,0,1-1.92,2.48,18.64,18.64,0,0,0,2.4-3.84,12.82,12.82,0,0,0,1.21-5.14c-.27.9-.42,1.95-.71,3a11.93,11.93,0,0,1-1.29,3.22,15.45,15.45,0,0,1-2.69,3.23c-1,.94-2.1,2-2.87,2.21a18,18,0,0,1-5.84,2.47,22.49,22.49,0,0,1-5.93.52,6,6,0,0,0,1.91.11,4.83,4.83,0,0,1-2.16.05c-.37,0-1.66-.31-.94-.27.56,0,.71.19,1.07.1a18.83,18.83,0,0,0-3.2-.48,10.29,10.29,0,0,0-2.23-.93,14.76,14.76,0,0,1-3-1.53,16.76,16.76,0,0,1-6.27-7.35c-.11-.16-.09.16-.21,0a1.58,1.58,0,0,1,0-.56c-.11-.16-.3,0-.36-.37.08,0,.12.11.18.19a12.44,12.44,0,0,0-.46-1.62,2.73,2.73,0,0,1-.11-1.49c-.53-.29-.4-2.23-.5-3.34.56,0,.19.53.23,1.07.36-1.26,0-1.55.42-3.22a3.59,3.59,0,0,0-.48,2c-.53-.84.09-2.52.46-3.47a5,5,0,0,0-.75,1.24c0-1,1.15-1.6,1.29-2.57,0,.79-.66,1.34-.55,2.3.84-1.79,1.55-3.73,3-4.86.23-.25-.1-.3.14-.55.07.38.44-.14.66-.24.1.13-.36.39-.48.6.25.26.36-.45.57-.41.1.29-.38.52-.53.68.21.1,1.1-.42,1.25-1,.39.56,1-.38,1.31-.53.09.21-.38.49-.49.74.17,0,.33-.21.51-.21.32.38-.28.68-.22,1,.43-.27.85-.75,1.3-1.07-.18-.09-.32.33-.5,0,.64-.31,1.46-.89,1.75-.52-.06.08,0,.09.06.06-.42.52-1.23.62-1.55,1.38.33.07.25-.29.57-.54,0,.51.12,0,.32.18-.23.44-.54.27-.61.58.1.11.19,0,.12,0a2.84,2.84,0,0,1-.4,1.48,4.53,4.53,0,0,0-.32.84,1.62,1.62,0,0,0-.11.76c.24-.06,0-.52.42-.49-.39-.2.11-.2.17-.69C1725.39,99,1725.13,99.36,1725.38,99.71Zm12.26-3.28c-.22-.06-.33-.54-.57-.35C1737.29,96.14,1737.41,96.6,1737.64,96.43Zm7.76-2.88c.46.27.59.75,1,.64C1746.1,93.89,1745.46,93.39,1745.4,93.55Zm7.9,10.33c-.14.07-.42-1.47-.55-1.9a7.71,7.71,0,0,0,.62,2.58C1753.34,104.36,1753.56,103.94,1753.3,103.88Zm-28.1,2.35-.26.07c0,.18.23.43.25.23C1724.92,106.54,1725.36,106.37,1725.2,106.23Zm.38,2c0-.28.19-.49-.09-.83C1725.21,107.8,1725.6,107.8,1725.58,108.22Zm-.91-2.29c-.28,0-.09.81.08.65S1724.8,106,1724.67,105.93Zm3.18,6c.35,0,.39.56.74.27C1728.32,111.86,1728,111.67,1727.85,111.9Zm-3.33-10.61q0-.09.18,0c.15-.29,0-.68.28-.84C1724.65,100.33,1724.54,101.26,1724.52,101.29Zm2.46,9.87c.19.2.38.41.59.6.16-.15.29-.11.19-.31C1727.49,111.77,1727,111,1727,111.16Zm2,1.61c.12-.36-.26-.32-.32-.55C1728.42,112.49,1729,112.56,1729,112.77Zm10.24-15.64c-.38,0-.57-.54-.79-.24C1738.65,96.92,1739.3,97.36,1739.21,97.13Zm-5-2.23c.26,0,.71.13.84-.06C1734.67,94.88,1734.5,94.56,1734.25,94.9Zm.27-.52c.27.13-.36,0-.26.26.47-.13.83.09,1.2,0C1735.14,94.58,1734.8,94.16,1734.52,94.38Zm-11.08,22.52c-.3-.21-.67-.79-.93-.76C1722.81,116.35,1723.19,116.94,1723.44,116.9ZM1743.57,93c-.16-.12-.54-.21-.31-.38-.49-.3-1.58-.82-1.48-.38.17-.1.45.07.76.28A2.08,2.08,0,0,0,1743.57,93ZM1738,90.9c1.28.35,1-.22,0,0Zm15.34,15.72c0-.36,0-.8-.23-.79.13.37-.08.93.06.94S1753.27,106.61,1753.37,106.62Zm-13-16.21c.13.07,0,.12,0,.16.31.19,1,.27,1.08.52-.4-.12-.23.16-.59-.14-.07.19.19.38.5.5a1.14,1.14,0,0,0,.76.15c-.2-.15-.73-.23-.71-.43.46.18.05-.29.46-.18A3.31,3.31,0,0,0,1740.37,90.41Zm-10.09,30.48c-.18.31-1.12-.25-1.21-.19C1728.92,120.23,1729.93,121.08,1730.28,120.89Zm12.58-8.9c-.14-.32.23-.17.26-.45.06.08.12.1.17.08C1743.32,111.78,1743.09,111.86,1742.86,112Zm-17.34-11c.09,0,0,.08,0,.06a2,2,0,0,1-.11.68c-.24-.09.06-.39-.12-.25-.21-.07,0-.23.08-.26a.25.25,0,0,0-.12-.19c-.16,0,0,.36-.21.08-.18.19.25.14.09.33-.29-.13-.18-.42-.06-.7C1725.23,100.94,1725.39,101.06,1725.52,101Zm13.23,12.37c.1.34-.08.54-.44.58-.19-.11.58-.15.4-.48a6.46,6.46,0,0,1-3.14.44c0-.34.39-.13.56-.21,0,.06-.08.11-.13.1A9.3,9.3,0,0,0,1738.75,113.38Zm-11.12-17.67c-.55.28-1.11.48-.41,0,.19-.14.42-.09.66-.31.06,0,0,.09,0,.12s.08,0,.12,0c-.07.33-.59.27-.83.58C1727.09,95.83,1727.5,96,1727.63,95.71Zm16.56,6.52c-.27-.09.55.08.4.39C1744.4,102.58,1744.44,102.43,1744.19,102.23Zm-10.91-7.12c-.1,0-.14,0-.15.1-.22.05-.11-.33-.28-.33C1732.84,94.75,1733.34,94.84,1733.28,95.11ZM1721,96.52c.1.45-.49.37-.62.83C1720.29,97,1720.87,96.88,1721,96.52Zm-3.72,10.1c0-.15-.19-.09-.17,0a12.85,12.85,0,0,1-.13-2.16c.14.11.11.49.13.82s.08.62.33.52C1717.44,106.12,1717.22,107.23,1717.29,106.62Z"/></g></g></svg>