<svg xmlns="http://www.w3.org/2000/svg" viewBox="0 0 1928.99 1086.01"><defs><style>.cls-1{fill:#8dcee2;stroke:#003245;stroke-miterlimit:10;stroke-width:0.5px;}.cls-2{fill:#003245;}</style></defs><g id="Layer_2" data-name="Layer 2"><g id="Layer_2-2" data-name="Layer 2"><rect class="cls-1" x="4.15" y="0.25" width="1920" height="261"/><rect class="cls-2" x="5.15" y="261.25" width="1920" height="819"/><path class="cls-2" d="M928.92,1086c17.26,0,47.76,0,61.91-.11C938.36,1085.8,842.49,1086,928.92,1086Zm235.74-.17c5.63-.18,23.51-.2,43.12-.19-.1.06-1.75.1-4.45.13l-10.69,0Zm-298.13,0c-33.58.11-58.69.1-99.33,0,11.11-.07,16.71-.23,30.58-.27C778.93,1086,856.47,1085.6,866.53,1085.85Zm366-.22c1.42-.18,23-.09,24.42-.27-1.91-.23-10.48.12-24.83,0,10.34-.15,22.1-.28,42.95-.28-6.74.11-5.09.18,6.54.17a4.64,4.64,0,0,1-1.19.11c-.77,0-1.89.06-3.31.09l-11.55.1Zm-559,0c-21,.19-76.75.13-99.29,0C601.09,1085.42,640.35,1085.73,673.58,1085.65Zm229.55-.16c-6.16.11-64.86.24-62.26-.07C868.4,1085.34,878.36,1085.52,903.13,1085.49Zm-6.68-.27c-5-.42,98.15-.08,148.68-.22C998.65,1085.44,947,1085,896.45,1085.22Zm-552.32.29H306.88c-6.43-.31,24.21-.13,36.93-.19A3,3,0,0,1,344.13,1085.51Zm-62.36-.15c-4.93.05-23.39.12-40.72.13l-23.32,0c-6.27,0-10.42-.08-10.63-.17ZM.07,698.37c.31,20.33.21,80.86.22,123.82C.09,783.07.14,753.6.07,698.37ZM158.22,256.22c-8.4.51-66.16-.08-111.57.13.12,0,1.45,0,3.76-.06l9.58,0,30.84,0Zm130.35,0c-19,.5-69.16.12-92.76.21C203,256,260.59,256.29,288.57,256.18Zm1046.9,827.92c41.23-.39,84.28.26,130.35,0C1452.26,1084.48,1384.23,1084.07,1335.47,1084.1ZM.41,430.64c.17,14.88.21,40.16.2,68C.4,486.81.42,457.76.41,430.64ZM1925,1083.8l-62.22-.06C1869,1083.62,1927.71,1083.49,1925,1083.8Zm.58-109.07c.26,27.46,0,73.49,0,105.52C1925.27,1062.44,1925.62,1005,1925.62,974.73Zm-700.3,103.36c-1-.16,7.26-.19,5.6-.35,24.83.32,67.58.37,100.4.58C1301.13,1078.58,1277.47,1078.21,1225.32,1078.09Zm303.41-.55c-8.3.08-42.43.18-62.08,0C1481.49,1077.31,1508.4,1077.43,1528.73,1077.54Zm-634.42-.47c-25,.37-86.57-.13,0,0Zm1029.2-135.82c.18,5,.1,43,0,49.66C1923.27,981.44,1923.64,962.73,1923.51,941.25ZM496.68,1077c15.49-.26,29.43-.1,55.68-.11C536.59,1077.08,513.8,1077.13,496.68,1077ZM1923.26,742.91c.2,10.27,0,47.34.11,68.13-.27-40.6-.38-57.44-.39-111.13.3,10.38,0,34.28.2,61.77C1923.28,760.51,1923.25,750.24,1923.26,742.91ZM211.11,1077.14c41.67-.39,84.73-.23,148.54-.32C315.66,1077.18,276.55,1077.07,211.11,1077.14ZM8,311.43c.43,30.4,0,89.58.14,136.44C7.84,411.56,8.1,375.31,8,311.43Zm878.8,764.94c-20.44.21-68.1.06-99.16.12C808.12,1076.28,855.78,1076.44,886.8,1076.37ZM819.52,264.76c-12.21.42-40.15.15-74.19.2C749.73,264.82,792.44,264.55,819.52,264.76Zm710.21,1.15c-16.4.21-59.84,0-86.77.12C1466.78,265.8,1498.29,265.85,1529.73,265.91Zm-930.2.86c17.4-.08,16.28.11,31.16.07C625.53,267,596.52,267.12,599.53,266.77Zm390.68,818.77c-24.63.19-42.44,0-74.36.12a1.15,1.15,0,0,1,.34,0l.92,0,3.11,0,7.94,0c1-.07-2.59-.08-6.39-.08C928.57,1085.34,969.9,1085.4,990.21,1085.54Zm320.56-1.34c-7.18-.08,3.43-.25-25.11-.17-.75.25,27.23.25-5.73.27,2.11.12,15.67.07,25,.08-2.6.08-5.15.16-12.11.18,2.42.12,11,0,12.28-.1,19.71.3-24.94.46-42.5.55-15.46,0-2.35-.3-.66-.35-23.83.07-35.38.15-37.7-.25,15.88,0,7.72.06,6.54.17,19.64,0,21.61-.17,43.3-.1-32.65-.49-154.18-.2-173.83.06-2.25.16-30-.29-43.47,0,5.12.23,20.37.3,44,.25,8.54.18-58.42.07-80.55.12.38-.17,20.4-.07,18.16-.27-20.06-.07-19.16.14-24.39.27l-403.82,0c23.29.17-1.06.19-18.15.27-2.56-.15,4.57-.17,12.11-.18-5-.12-14.07-.12-22-.06s-14.66.16-15,.25c-11.38-.17-21.79-.14-43.75-.16-67.68-.08-41.78,0,36.9-.19-21.2-.2-68.2,0-99.47,0,8.52-.34,20.1-.24,37.08-.11-32.82-.82-157,0-242.85-.35,30.08.25,84.31.13,130.69.13-11.2.3-25,.07-49.52.11,16.66.63,109-.19,131.32.48L.8,1084.59c0-13.09,0-26.38,0-39.71-.06-13.66.16-9.13.17-19-.53-123.26.17-228.05,0-403.77-.33,4.32.05-21-.19-36.94.07-17,.2,13.83.35,11.79C1.08,543.64.68,536.72,1,473c.07,31.06-.09,50.29,0,68.28V299c-.2,45.94,0,110.68-.16,37.6C.86,318.18.75,299.12.79,268.44c0-1.94,0-3.3.06-4.22,0-1.15,0-1.75.05-2,0-.49,0,.46.07,1.41,0,1.9.09,3.67.17-5.74v-.65l122.49-.16c36.36-.06,70.26-.14,103.83-.35-1.28.18-27.22,0-30.71.18,17.43.3,53.74-.18,68.41.07,8.4,0,4.77-.23,5.61-.36,27.07.1,15.07-.1,43.29-.1-5.36.16-22.58.15-24.21.36,65.16,0,142.63.15,217.27-.08-1.21-.1-11.42-.07-18.79-.08,14.4-.33,60.95.12,93-.12-32.82-.34-135.29,0-186.87-.28-58.27-.11,73.95-.13,93-.13,153.67.05,309.19.51,485.13.36-35,.41-123.64.11-179.7.24,13.79.32,80-.1,75.11.32,19.3,0,17.26-.28,43.13-.19-2,.12-10.65.14-11.93.27,26.15-.12,33.37-.05,62.08,0-2.11-.12-15.67-.07-25-.08,16.11-.17,84.73-.16,62.22.06,190.76-.08,438.12.81,677.86.46-4.22-.2-38.15,0-43.75-.16-12.31-.06,41.2-.07,49.67,0-10.21-.38-77.2-.22-106-.22l-93.1,0c87.5-.44,185.55-.26,297.64-.28-3.63.08-13.87.33,6.71.26-16.39.21-59.83,0-86.78.12l192.92.19c-3-.19-33,0-37.56-.16l72.92,0c0,37.64-.06,78.25-.09,114,0,34.52,0,64.32,0,81.84.22,12.45-.59,66.89-.67,88.16-.12,36.17.44,96.8-.39,112.5.06-5.63.08-14.18.07-25-.22,9.2-.18,36.08-.42,44.24.35-23.8.57,90.44.12,86.74.18,21.72.11,28.53.19,49.35-.12-3.25-.21-9.27-.27-18.15-.22,8.88-.52,43.78-.15,56.16-.08,26.8-.59,25-.42,69.1-.52,7.23-.73,35.31-.85,69.86-.22-5,0-43.26-.19-49.35-.2,30-.52,19.64-.6,50.77,0-.62-.08-5.2-.08-9.67,0-2.23,0-4.44,0-6.1s0-2.79.07-2.87c-.15-13.11-.31,23.44-.52,25.76.21,31.41,0,31.58.11,55.72-.77-67.61-1-197.51-1.16-289.89.1-15.87.14-35.45.34-44.06,0-11.76-.2-15.29-.19-30.75-.12,1.49-.15,26.08-.17.35-.07,12.24-.25,47.35-.16,49.94-.19-.75-.3-16.3-.36-37s0-46.56,0-67.9c-.18-47.24-.59-92.07-.41-154.56-.15-8.34-.31-17.08-.44-24,.13,45.54,0,107,.4,135.91-.41-13.52-.16,24.21-.25,44-.45-36.56,0-138.13-.33-185.79-.25,52.4-1-51.53-.56-92.13-.07-.21-.14-4.29-.2-10.87s-.1-15.63-.16-25.79c.11,2.55.18,7.64.18,18.33,0-10.06.12-21.55.19-34.15,0-11.54.06-24.09.09-37.37H1782.2c3.28-.36,40.64-.26,67.82-.29-174.66-.27-435.88.57-645.12.49l-93.44-.14c-19.27,0-24.6-.23-37.88-.34L825,264.32c-7,0-3.28.09.17.09l-310.71-.07,465.73-.08c-81.45-.53-198.31-.21-311-.24l-211.35-.1c-70,0-149.13.24-186.38,0L7.86,264c0,129.6,0,245.16.08,376.79.12-13.31.06-61.38.06-99.43.15,13.73.16,68.06.12,111.57,0,19-.09,87.26-.16,50-.06-28.78.11-37.7,0-55.9C7.8,721.89,7.81,788.19,8,814.58c-.17,20.66-.2,60.52-.17,108.49,0,47.12.07,102.22.11,154.39h533c9.69,0-5.71-.15,5.92-.18l25.28.25c9.68,0,4.81-.27,24.52-.18l-.34,0-.92,0-3.09,0-7.93,0c46.31.25,128.45,0,162.2.38,19.51-.44,116.39,0,173.66-.15,1.31.57-27.84.18-55.55.2,65.13.39,79.52.05,168.23.29-29-.2-59.42-.38-106.18-.31,41.5-.54,126.86-.09,180.19,0l-69.2-.5c48.48-.15,91.75.82,144,.65-39.88.25-76.58-.25-124.17,0,101.65.52,211.66.46,306.39,1.12,19.23.06,11.48-.24,30.75-.18-16,.26,20.24.29,31.78.42-3,.16-30.09-.08-43.57-.07-5.12.35,32.85.05,37.73.25-10.86.24-37.59,0-49.84-.07.2,0,3.8.13,9.58.2l22.69.21c17.88.13,39.63.2,55.55.08-13.67.67,57.06.59,75.74.68-6.23.2-38.95,0-55.68.11l31.5.25c-5.88.51-46.27.22-61.29.46l112.37.31c-4.22-.18-31.4,0-25.45-.34l73.13.35,28.62.2,8.46.13,2.28.07a4.3,4.3,0,0,1,.81.08c-7,0-3.29.09.14.09-48.91.14-94.56-.38-149.28-.12,11.56.29,27.15,0,56,.07-27.33.33,6.78.08,6.81.35-35.83.14-41.82-.22-62.22-.07-1.45.16,6.19.18,6.33.09-36.42.68-172.55.49-234.31,1,12.79.19,38.45-.17,50,.15-.18-.22,4.43-.21,13.73-.18s23.28.1,41.82,0C1362,1083.89,1327.34,1083.8,1310.77,1084.2ZM1928.6,472.45c0,17.47-.41,36.28-.16,50C1928.43,505.13,1928.84,484.79,1928.6,472.45ZM1793.51,264.06c-27.77.07-49.18-.22-61.91.11C1753.67,264.22,1796.31,264.22,1793.51,264.06Zm-676.18.5c-.86-.08,17.05-.09,37.87-.06l55.41.12c-21.93-.28-92.55-.3-124.43-.13C1095.44,264.48,1112.11,264.8,1117.33,264.56ZM721.86,1084.85l-.48-.27c-14.21-.06-41.36.12-24.52.19C701.8,1084.51,706.54,1085,721.86,1084.85Zm-174.44-.29c22.2.09,31.88.37,68.75.24C592,1084.39,579.16,1084.74,547.42,1084.56Zm210.89-.16c1.67-.26-65.64-.28-56-.07C715.67,1084.43,748.35,1084.52,758.31,1084.4Zm-571.72-.15c-20.3.27-54.51-.17-61.6.28C159.76,1084.6,191.08,1084.53,186.59,1084.25Zm974.78-.26c4.88,0,7.33.07,6.5.17,28,0,52.57-.26,74.5,0C1239.19,1083.79,1164.76,1084,1161.37,1084Zm-881.81.14-68.31,0c-.38.22-11.38.28,6.81.35C214.64,1084.11,289.1,1084.32,279.56,1084.13Zm-210.91.16c10,.36,33.62.12,50.12.25a56.12,56.12,0,0,0-6-.16l-14.67,0C86.85,1084.35,74.17,1084.37,68.65,1084.29Zm1860-742.37c.13,27.71-.24,55.69.11,61.95C1928.71,387.23,1928.8,328.16,1928.64,341.92Zm-.91,405.41c-.06-18.78.1-53.71-.11-61.94C1927.69,716.62,1927.37,729.87,1927.73,747.33Zm-.53-17.7c.12-20.06,0,25.31.27,18.15-.15-34,.06-61.42-.12-86.74C1927.36,684.35,1927,711.3,1927.2,729.63Zm-1752.54,348c18.77-.06,53.67.09,61.9-.11C217.79,1077.54,182.92,1077.39,174.66,1077.59ZM1891.87,263.5c11.06,0,31-.1,25.17.16h5.7c0,15.59,0,36.19.07,51.18,0,15.7.14,25.53.3,18.37-.12-4.16-.13-14.4-.12-27.48,0-12.46,0-27.62,0-42.37l-15.26,0Zm31.32,287c0-71.94-.46-46.83,0,0ZM992.55,264.26l24.54,0,8.83-.05a33.74,33.74,0,0,0,3.57-.12c-8.7.05-19.41,0-28,0l-10.83,0c-2.74,0-4.44,0-4.59.05C990.89,264.1,993.38,264.16,992.55,264.26ZM1922,440.77c0-7.54.1-4,.18-.31,0-19-.13-53.26.06-62.25,0,21.16.24,7.5.1,30.92a30.17,30.17,0,0,0,.13-3.09c0-1.88,0-4.54.08-7.74,0-6.4,0-14.94.06-23.72,0-17.56-.09-36-.21-40.12-.05,13,.12,40.6-.07,43.61,0-26-.28,4.15-.36-18C1921.94,387.86,1921.86,432.82,1922,440.77ZM7.93,839.58c.32,4.56.09,58.31.19,61.77C7.73,916.71,8.18,853.93,7.93,839.58ZM358,256.77c7.16-.34,25.49,0,43.16-.19-.83.1,1.62.15,6.5.17C400.87,256.88,381.09,256.8,358,256.77Zm854.6,828.08c-.5.05-2,.06-3.45.06s-2.72,0-2.78-.06c-16.15.1-37.9.12-61.9.11,2-.26,35.17,0,18.29-.18.56-.22,21,0,24.84,0,5.46,0,11-.08,12.1-.18-.8-.17-28.64.16-12.73-.17-20.26-.1-4.22.28-24.52.18,3.46-.29,29.3-.29,55.41-.28C1209.54,1084.55,1203.53,1084.75,1212.59,1084.85ZM.1,282.14a19.49,19.49,0,0,1,.23,3.56c.06,2.26.11,5.56.14,9.78.08,8.46.1,20.6.08,35.53-.16,13.48,0-49.73-.36-42.82.19,119.94,0,158.54,0,273.33-.35,4.39-.12-33.93-.2-49.39.06-.28.11,7.89.1,12.28ZM1682,1083.36c-48.32-.13-90.28-.33-25.33-.25,17.82,0,30.48.19,56.21.16,1.28.07-2.28.08-6.06.09-1,.07,2.57.08,6.37.08-20.58.24-51.36-.13-80.86-.06C1643.35,1083.11,1662,1083.47,1682,1083.36ZM1457.86,257c17.81-.16-30.19.39-43.34.1C1425.52,257,1433.51,257.06,1457.86,257Zm470.08,564.5c0,7.26,0,11,.09,12.27,0,17-.33,6.4-.35,19.27,0,0,0-.66,0-1.68s0-2.47,0-4.17c0-3.4,0-7.84,0-12.1C1927.71,826.55,1927.8,818.75,1927.94,821.49Zm-570.82,257.34c-19,.31-30.95-.25-56.23-.15C1317.62,1078.41,1335.78,1078.87,1357.12,1078.83ZM794.8,1077c7.75,0,6-.18-.31-.18l105.7.05c-11,.28-74.5-.14-67.69.38C818.08,1077.25,765.62,1076.85,794.8,1077Z"/><path class="cls-2" d="M439.17,172.71l18.65-22.65a112.76,112.76,0,0,1-30.89,11.28"/><path class="cls-2" d="M444.16,162.13a2,2,0,0,0-.41.58C444.17,162.28,444.79,161.38,444.16,162.13Zm-1.64,2.13c0,.1-.09.27-.24.44C442.19,164.61,442.4,164.42,442.52,164.26Zm2.15-2.63a5.28,5.28,0,0,1,.7-.88c-.05.12,0,.22-.11.35C445.24,160.81,444.84,161.62,444.67,161.63Zm-2.57,3.29c.06.07-.13.23-.07.3s0-.13.18-.22a.9.9,0,0,1-.2.46c0-.09,0-.1-.12,0C441.76,165.36,442,165.13,442.1,164.92Zm4-4.92a3.27,3.27,0,0,1,.7-.88C446.76,159.44,446.35,159.68,446.14,160Zm-1.6,2.07c0-.09.38-.65.48-.53C444.85,161.81,444.71,161.84,444.54,162.07Zm.15,0c.2.1-.67.89-1,1.38C443.87,162.92,444.41,162.61,444.69,162.09Zm3.89-4.94.26-.33c.17,0-.12.25-.19.38Zm.51-.5c0-.12.43-.73.56-.64C449.37,156.33,449.32,156.4,449.09,156.65Zm4.78-5.78c0,.28-.51.78-.82,1.16A8.24,8.24,0,0,1,453.87,150.87Zm1.91,3.09c0-.27.7-.31,1.13-.65C456.94,153.4,456.1,153.76,455.78,154Zm-1.35.69c.09-.33.7-.4.92-.57C455.36,154.3,454.7,154.46,454.43,154.65ZM442,166.31c-.15.49-.71.66-.93,1.16C441,167.21,441.61,166.75,442,166.31Zm14-17.68a2,2,0,0,1-.42.66C455.52,149.12,455.74,148.87,455.94,148.63Zm-18.14,23c.21-.17.23-.32.47-.52C438.27,171.15,437.9,171.71,437.8,171.58Zm-9.65-10.26a3.93,3.93,0,0,1-1.17.27C427.14,161.36,427.81,161.39,428.15,161.32Zm16.92,5.93c.06,0,0,.12.09.16a6.76,6.76,0,0,0-1,.7C444.33,167.76,444.64,167.67,445.07,167.25Zm-2,2.84a1.38,1.38,0,0,1,.44-.55C443.52,169.75,443.27,170,443.08,170.09Zm4.78-5.42c0-.34.67-.72,0,0Zm-19.56-4.46c0,.1-.47.15-.55.12C427.83,160.19,428.07,160.32,428.3,160.21Zm22.45,1c0,.22-.18.29-.36.53A1.12,1.12,0,0,1,450.75,161.18Zm-20.3-1.6c-.09.13-.51.15-.73.23a3.75,3.75,0,0,1,1.17-.48c-.08.18-.37.11-.65.26C430.26,159.64,430.37,159.6,430.45,159.58Zm22.32-.94a5.44,5.44,0,0,1-.95,1.41A6,6,0,0,1,452.77,158.64Zm3.27-9.25c.17-.29.66-.43,1.08-.63l6.69-3.32L459,151a1.3,1.3,0,0,0-.18.23,1.38,1.38,0,0,1,.14-.27l4.05-6.06-5.84,3.89C456.87,149,456.51,149.1,456,149.39Zm-7.86,15.43a6.13,6.13,0,0,1,.67-.91A5.24,5.24,0,0,1,448.18,164.82Zm-1-11.58c0-.25.38-.24.72-.42A1.07,1.07,0,0,1,447.14,153.24Zm-7.63,2.27c.14-.15.63-.23.9-.37A2,2,0,0,1,439.51,155.51Zm9.48-4.17c-.16.12-.19,0-.33.11C448.67,151.34,449,151.17,449,151.34Zm-5.1,11.48c.11-.28.29-.39.5-.69,0,0,0,.09-.06.13s.05,0,.08,0S444.09,162.68,443.89,162.82Zm-1.8,3.24c.08,0,.07.11.25-.17-.09-.08-.29.16-.06-.13-.06,0-.14.11-.22.19a.19.19,0,0,1,0-.16c-.06,0-.08.09-.05.14-.26.07,0-.37.1-.55s.13.07.14.11c.14-.24.2-.36.37-.26-.11.15-.08.05-.12,0-.15.16-.09.24-.27.41a3.51,3.51,0,0,0,1.23-1.55c0-.07.33-.17.31-.38-.12,0-.26.08-.41.3-.13,0,.4-.53.54-.74.06.05-.12.2,0,.24.17-.15.08-.21.07-.3,1-1.22,1.79-2.24,2.93-3.53-.23.15-.06-.08,0-.25.08,0,0,.09,0,.16.17,0,.26-.32.2-.38.15-.05.21-.15.38-.33.52-.57.28-.39-.2.38.23-.12.5-.6.74-.86.07.18,0,.26-.23.36.56,0,1.15-1.37,1.9-2a5.6,5.6,0,0,0-1,1.11c0-.2.16-.24.32-.47-.36-.06-.72,1-1.14,1,1.35-1.54,2.6-2.81,3.77-4.24.08-.13.13,0,.21-.11.69-1.25,1.71-1.95,2.93-3.54-.16-.06.17-.16.19-.38s0,.18.06.21c.35-.49.24-.68.84-1.13-.2.3-.4.42-.48.61.27-.29.58-.65.89-1l2.5,3c-.46.24-.91.5-1.25.69.52-.16,1.14-.6.43-.13a3.4,3.4,0,0,1-.68.42c-.15,0,0-.1-.15-.12a17.62,17.62,0,0,0-2.18,1.4c0-.09.27-.15.28-.24-.25,0-.52.36-.73.32s0,.12,0,.19c-.31.09-.14.12-.43.26,0-.09.2-.18.17-.28-.67.35-1.52.65-2.26,1.11,0,0,.13,0,.21-.06-.08.22-.66.25-.95.51.41,0,1.42-.67,2-.78s-.75.42-1,.51c-1.63.73-3.38,1.23-5.25,2.07a10.13,10.13,0,0,1,1.89-.91c-.21-.08-.84.4-.87.19-.21.08-.13.21-.43.28,0-.06.09-.11.08-.18a2.64,2.64,0,0,1-.66.29s.18,0,.28-.07c-.14.14-.88.43-.68.23-2,.86-4.88,1.44-7.46,2.45.08.08.42-.15.51-.08s-.44.18-.55.18c.18.15.89-.17,1.21-.28s.64-.25,1-.35a15.63,15.63,0,0,1-3.23,1.2c0-.05.1-.21-.12-.1.15-.16.66-.23.94-.36-.68.15-1.48.45-2.16.57.06.08.37-.12.44,0-.86.26-2.4.58-2.91.79-.11.15-.83-.08-1.07-.05-.42,0-1,.49-1.31.13a.66.66,0,0,0,.29,0c-.13-.08-.43,0-.55-.08.31.11-.94.54-1,.3a2.38,2.38,0,0,1-.53.22.28.28,0,0,1,.17-.17c-.12-.09-.55-.15-.65.07-.31,0-.34-.22-.82,0-.13-.24-.47-.28-.87-.25,0-.12.49-.1.53-.22-.35,0-.27-.2-.63-.16,0-.06.19-.11.21,0,.13-.1-.3-.09-.34-.19-.33.18-.35.09-.61.18a12.09,12.09,0,0,1,3.08-1.28c.19,0,.41,0,.52.05s.15-.14.32-.18c0,0-.3,0,0-.09-.14,0-.54,0-.56.06,0-.18.63-.38,1.1-.47a5.19,5.19,0,0,1,1.63-.64,2.64,2.64,0,0,0,.21-.29,6.29,6.29,0,0,0-1.43.59c.1-.24-.28,0-.51,0,.34-.32,1.5-.4,2-.69-.6,0,.41-.66.92-.55,0-.06.14-.18.34-.29,0,.06-.06.12-.17.15A8.18,8.18,0,0,0,437,157c0,.18-.4.26-.69.36,1.92-.44,4.57-1.76,6.77-2.56.34-.12.72-.17,1-.3s.3,0,.45,0c1.06-.45,1.63-.62,2.61-1,.06,0,0-.05,0,0,.93-.44,2.33-1,3.2-1.37a42.51,42.51,0,0,1-4.79,2.09,13.19,13.19,0,0,0,3.27-1.24c.75-.32,1.5-.62,2.19-.93a12.39,12.39,0,0,1,1.9-.89c1.62-.83,2.93-1.51,4.26-2.22l6-3.24-4.33,5.29c-.5.62-1,1.25-1.55,2a5.84,5.84,0,0,0,.74-.86,4.61,4.61,0,0,1-.76,1c-.14.17-.67.74-.42.39s.31-.29.4-.49a6.14,6.14,0,0,0-1.19,1.49,19.86,19.86,0,0,0-2.19,2.6c-1.12,1.32-2.28,2.93-3.64,4.42-.05.09.1,0,0,.11a1.46,1.46,0,0,1-.28.14c-.06.1.07.13-.11.27,0,0,0-.09.05-.13-.42.33-.91,1.14-1.32,1.3,0,.31-.83,1-1.19,1.57-.23-.16.13-.3.32-.55-.62.45-.59.69-1.33,1.39a3,3,0,0,0,.89-.83c-.09.53-.88,1.14-1.31,1.57a3.86,3.86,0,0,0,.69-.45c-.29.47-1,.55-1.29,1.06.19-.43.65-.59.88-1.1-.93.72-1.71,1.71-2.65,2.33-.16.15,0,.18-.15.33,0-.22-.26.08-.39.15s.25-.24.34-.36c-.1-.16-.26.27-.37.25,0-.17.29-.32.39-.42-.09-.06-.69.26-.83.62-.15-.33-.64.31-.81.45,0-.12.27-.36.37-.53-.11,0-.23.17-.33.2-.15-.21.25-.48.27-.68a9.46,9.46,0,0,0-.94.88c.1,0,.24-.27.32-.11-.43.3-1,.87-1.14.73,0-.07,0-.06,0,0,.3-.47.83-.71,1.13-1.27-.2,0-.2.24-.43.47.07-.35-.08,0-.19-.05.21-.36.39-.3.48-.53-.05-.06-.11,0-.08,0,0-.53,1.06-1.67,1.32-2.36-.16.05-.21.39-.42.39.18.13-.14.15-.32.55C441.84,166.61,442.13,166.33,442.09,166.06Zm-8-4.66c-.2.06-.46-.09-.58.07C433.72,161.42,434,161.55,434.11,161.4Zm2.88-4.1c.28-.12.56-.06.64-.26C437.39,157.09,436.93,157.23,437,157.3Zm7.09-2.72c.05.07-.75.29-1,.34a2.85,2.85,0,0,0,1.33-.43C444.32,154.53,444.09,154.45,444.08,154.58Zm2,6.1.11.08c.12-.11.25-.4.1-.27C446.38,160.61,446.17,160.51,446.1,160.68Zm1.38-1.44c-.2.17-.38.16-.59.53C447.22,159.68,447.18,159.46,447.48,159.24Zm-1.47,1.9c.09.1.58-.49.43-.47A1.45,1.45,0,0,0,446,161.14Zm4.2-5c0-.27.45-.43.33-.63C450.27,155.82,450.07,156.12,450.21,156.17Zm-7,8.64s-.08.05-.11,0c-.22.23-.28.54-.53.66C442.77,165.56,443.21,164.83,443.25,164.81Zm6.33-7.79.48-.61c-.08-.07,0-.18-.18,0C450.06,156.46,449.44,157.05,449.58,157Zm1.46-1.9c-.21,0-.28.26-.45.36C450.71,155.59,450.9,155.16,451,155.12ZM435.57,161c-.29.16-.66.06-.68.25C435.07,161.19,435.74,161.05,435.57,161Zm-4.64.76c.2-.08.61-.1.68-.23C431.27,161.67,431.08,161.55,430.93,161.77Zm.13-.31c.24,0-.27.09-.17.18.37-.16.7-.14,1-.3C431.59,161.41,431.24,161.3,431.06,161.46Zm21.8-3.28c-.11.18-.42.44-.4.58C452.57,158.57,452.88,158.32,452.86,158.18ZM436,157.89c-.12,0-.32.15-.3,0-.33.11-1,.32-.81.44C435,158.13,435.67,158.18,436,157.89ZM432.55,159c.78-.22.45-.36,0,0Zm12.89-4.81c-.18.07-.39.13-.36.24.17-.12.48-.12.46-.19S445.45,154.26,445.44,154.21Zm-11.85,3.91c.08,0,.05,0,0,.09.22,0,.56-.22.69-.16-.23.09-.05.14-.33.14.07.19.77-.05.82-.19-.14,0-.42.18-.48.1.28-.1-.08-.13.15-.23A2.71,2.71,0,0,0,433.59,158.12Zm22.29-3.51c.09.15-.39.54-.37.61C455.24,155.23,455.87,154.82,455.88,154.61Zm-2.31.12c0,.19-.26.13-.41.31a.07.07,0,0,0-.1,0C453.1,154.9,453.33,154.84,453.57,154.73Zm-11,10.26s0-.07.05-.05a2.25,2.25,0,0,1,.4-.58c.09.1-.24.32-.06.22.08.07-.14.19-.18.22s-.05.12,0,.16.15-.3.16-.06c.19-.14-.08-.13.11-.27.09.12-.1.35-.29.58C442.69,165.06,442.66,164.94,442.55,165Zm15-11.94c-.09-.17.08-.32.39-.47s-.51.27-.35.39c.57-.35,1-.57,1.35-.77l-3-3.69-1.05,1.2c-.16-.07.21-.33.29-.49,0,0,0,.1-.06.13a8.8,8.8,0,0,0,.76-.88l3.13,3.8C458.56,152.53,458.05,152.82,457.59,153.05Zm-17.86,16.54c.4-.39.78-.69.28-.14a2.61,2.61,0,0,0-.47.44s0,0,0-.08-.05,0-.08,0c.06-.26.42-.41.61-.69C440.1,169.33,439.83,169.38,439.73,169.59Zm2-10.12c-.17.14.27-.3.46-.22C442.09,159.36,442,159.34,441.73,159.47Zm-11.61,2.59c-.08,0-.12,0-.13.08-.18.07-.1-.14-.25-.12S430.15,161.92,430.12,162.06Zm13.71,6.11c0-.26.32-.19.46-.44C444.28,168,444,168,443.83,168.17Zm4.77-4.36c-.05.08,0,.11.07.05-.22.26-.49.6-.79.92,0-.19.6-.61.35-.72C448.34,163.94,448.87,163.61,448.6,163.81Z"/><path class="cls-2" d="M417.78,162.6a14.05,14.05,0,1,1,4.48-2.9"/><path class="cls-2" d="M401.85,162.57a4,4,0,0,0,.93.63C402,162.62,400.63,161.6,401.85,162.57Zm3.64,2.12a1.67,1.67,0,0,1,.74.21C406.18,165,405.78,164.81,405.49,164.69Zm-4.45-2.9a6.13,6.13,0,0,1-1.28-1.27,4.93,4.93,0,0,1,.47.32C399.84,160.75,401,161.59,401,161.79Zm5.6,3.28c.05-.07.4.09.45,0s-.2,0-.41-.14a2.53,2.53,0,0,1,.76.11c-.13,0-.12.06.08.12C407.47,165.33,407,165.19,406.64,165.07Zm-7.86-5.95a4.9,4.9,0,0,1-1-1.52C398.17,158,398.37,158.67,398.78,159.12Zm2.87,3c-.13,0-.95-.69-.8-.77C401.23,161.62,401.3,161.82,401.65,162.09Zm0-.18c.07-.22,1.37,1.06,2.19,1.43A9.79,9.79,0,0,1,401.64,161.91Zm-5.24-8.24-.16-.66c.13-.14.16.41.24.63Zm-.15-1.11c-.08-.17-.32-1.3-.14-1.33C396.17,151.9,396.19,152,396.25,152.56Zm2-11.22a19.09,19.09,0,0,1-.83,2A9,9,0,0,1,398.25,141.34Zm7.7-7c0,.3-1.12.41-1.77,1a2.54,2.54,0,0,1,.67-.44Zm2.2-.75c-.27.3-1.16.41-1.55.59C406.66,134,407.68,133.77,408.15,133.63Zm.42,31.26c.72,0,1.37.46,2.17.39a1.49,1.49,0,0,1-.88,0C409.45,165.13,409,165,408.57,164.89Zm-7.34-27.22a5.42,5.42,0,0,1-.75,1A3.64,3.64,0,0,1,401.23,137.67Zm17.21,26.58c-.4.08-.55.22-1,.32C417.51,164.48,418.43,164.09,418.44,164.25Zm5.07-5.58c-.14.42-.75.84-1.07,1.21C422.48,159.53,423.24,159.05,423.51,158.67Zm-15.63,2.83c0-.08.13-.05.14-.13a6.44,6.44,0,0,0,1.24.71C408.82,162.08,408.54,161.81,407.88,161.5Zm4.14.64a1.64,1.64,0,0,1-.85-.07A1.59,1.59,0,0,1,412,162.14Zm-7.77-3.36c-.37-.09-.81-.83,0,0ZM423,157.63c0,.11-.32.51-.42.56C422.54,158,422.84,157.91,423,157.63Zm-21.82-3c.2.14.2.33.34.64A1.52,1.52,0,0,1,401.15,154.6Zm23.12.56c0,.18-.27.61-.37.89a9.63,9.63,0,0,1,.47-1.5c.08.19-.14.46-.25.83C424.17,155.39,424.22,155.25,424.27,155.16ZM400.18,151a16.73,16.73,0,0,1,.49,1.91,2.92,2.92,0,0,1-.32-.82C400.3,151.74,400.25,151.39,400.18,151Zm4.92-11.61c-.21.39-.92.76-1.33,1.24a1.77,1.77,0,0,1,.52-.58C404.51,139.83,404.76,139.61,405.1,139.35Zm-.7,19.1a4.8,4.8,0,0,1-1-.85C403.67,157.74,404.09,158.19,404.4,158.45ZM416.16,138c-.22.17-.53-.1-1-.15A1.35,1.35,0,0,1,416.16,138Zm6.58,5.89c-.21-.12-.37-.64-.6-.88C422.42,143.15,422.56,143.53,422.74,143.87Zm-9.53-5.42c.22,0,.19.08.38.08C413.51,138.61,413.16,138.61,413.21,138.45Zm-10.34,24.6a7.33,7.33,0,0,1-1.1-.76s.13.06.21.1,0-.06-.07-.1A4.32,4.32,0,0,1,402.87,163.05Zm5.28,1.77c-.1-.08.09-.1-.38-.21,0,.11.41.25-.13.09,0,.07.24.12.39.17a.25.25,0,0,1-.22,0c0,.07.18.06.21,0,.29.25-.47.09-.78,0s0-.16.05-.17c-.4-.09-.6-.14-.56-.34.25.1.11.08.07.12.3.15.38.05.72.2a14,14,0,0,0-2.75-1.15c-.07,0-.39-.35-.66-.36,0,.15.23.32.61.48,0,.07-.19,0-.47-.19l-.77-.47c0-.07.32.16.34.05-.27-.21-.32-.11-.43-.11a14.71,14.71,0,0,1-4.92-5c.14.4-.09,0-.28-.21,0-.08.11,0,.19.14,0-.22-.34-.56-.42-.53a3.28,3.28,0,0,0-.27-.74c-.47-1.12-.34-.66.36.55-.08-.38-.52-1.09-.7-1.62.2.09.25.28.3.59a5,5,0,0,0-.44-1.74,8.19,8.19,0,0,1-.51-2.38,7.58,7.58,0,0,0,.38,2.23c-.19-.15-.13-.42-.25-.83a1.7,1.7,0,0,0,.17,1.11,2.24,2.24,0,0,1,.27,1.18,16.46,16.46,0,0,1-.89-4.41,21.6,21.6,0,0,1,.26-4.18c0-.23.09-.14.13-.3.17-2.13,1-3.8,2.57-6.37-.18,0,.2-.3.28-.58s-.06.25,0,.26c.53-.74.4-1,1.3-1.7a6.58,6.58,0,0,0-.76.9,19.18,19.18,0,0,1,3-2.89c-.73.37-1.5,1.21-.58.32a8.72,8.72,0,0,1,.94-.75c.21,0,0,.12.19.08a25.27,25.27,0,0,1,3.42-1.89c0,.09-.45.17-.48.26.34,0,.86-.39,1.14-.35s.06-.12,0-.19c.48-.06.25-.11.73-.22-.07.09-.37.16-.37.27a24.31,24.31,0,0,1,3.72-.53c0-.05-.19,0-.32,0,.24-.2,1,.05,1.61,0a15.28,15.28,0,0,0-3.26,0c-.52.05-.2,0,.3-.09a10.64,10.64,0,0,1,1.32-.11,17.22,17.22,0,0,1,2,.07,20.62,20.62,0,0,1,2,.37,22,22,0,0,1,4.13,1.42c-.62-.11-2-.79-3-1,.18.22,1.34.34,1.18.53.31.12.33,0,.73.18-.06,0-.2,0-.24.05a3.68,3.68,0,0,1,1,.4c0-.07-.22-.16-.37-.21.29,0,1.35.57.95.49a13.41,13.41,0,0,1,4.28,3.45,18.2,18.2,0,0,1,3,5.31c.07-.11-.22-.61-.17-.74s.27.66.29.8a1.53,1.53,0,0,0-.14-.79c-.13-.35-.33-.72-.43-.94-.18-.46-.49-.91-.76-1.43a11.23,11.23,0,0,1,2,4.74c-.06-.06-.22-.2-.1.14-.18-.25-.24-1-.43-1.43.14.5.24,1.07.37,1.62s.16,1.12.18,1.61c.1-.06-.08-.55,0-.64a21.41,21.41,0,0,1,0,4.41c.1.23-.47,1.07-.58,1.4-.16.58-.22,1.62-.67,1.75a1.05,1.05,0,0,0,.15-.39c-.14.12-.26.54-.43.62.31-.31-.26,1.5-.48,1.34a5,5,0,0,1-.28.77.55.55,0,0,1,0-.33c-.16.08-.55.51-.51.76-.27.36-.45.2-.77.84-.29-.06-.64.23-1,.62,0-.13.41-.53.39-.67-.36.31-.39.09-.71.44,0-.05.12-.26.17-.23.06-.2-.33.19-.44.15-.24.41-.3.35-.52.64a39.46,39.46,0,0,0,1.91-3.8c.15-.18.27-.43.4-.51s0-.25.08-.45c-.07,0-.21.32-.09,0a2.6,2.6,0,0,0-.33.64c-.18-.11.14-.89.33-1.46a16.26,16.26,0,0,1,.29-2.15,2.42,2.42,0,0,0-.19-.36,6.06,6.06,0,0,1-.1,1,3.93,3.93,0,0,0-.05.86c-.15-.23-.17.3-.29.55-.06-.54.48-1.84.36-2.51-.21.67-.4-.74-.19-1.26-.06,0-.13-.22-.17-.49.06,0,.09.1.09.25a6.36,6.36,0,0,0-.15-2.89c.2,0,.23.51.29.87a9.44,9.44,0,0,0-1.29-3.89,13,13,0,0,0-2.82-3.29c-.33-.25-.62-.59-.93-.79s-.21-.26-.34-.4a15.48,15.48,0,0,0-3-1.41c-.09,0-.05,0,0,.05a15.7,15.7,0,0,0-4.13-.64,12.28,12.28,0,0,1,6.1,1.33,8.52,8.52,0,0,0-4-1.34,13.57,13.57,0,0,0-2.89-.16,10.79,10.79,0,0,0-1.42.21,5.12,5.12,0,0,1-1.08.19,11.9,11.9,0,0,0-4,2,11.4,11.4,0,0,0-2.77,3.14,3,3,0,0,0,.32-.44l.47-.64c-.05.2-.5.76-.8,1.27-.17.2-.62,1-.42.54s.31-.41.38-.66a5.38,5.38,0,0,0-1,2.05c-.46.48-.87,2.39-1,3.93a13.4,13.4,0,0,0,1.17,6.61c.06.11,0-.11.11,0s0,.09.05.35c.08.1.15,0,.24.24,0,0-.08-.07-.12-.12.19.61.95,1.43,1.1,1.9.17,0,.43.33.73.67a7.22,7.22,0,0,0,1,.93c-.16.23-.36-.16-.64-.42a2.59,2.59,0,0,0,.74.74c.25.2.53.4,1,.78a7.84,7.84,0,0,0-1.11-1,13.13,13.13,0,0,1,2.08,1.36c-.2-.22-.45-.43-.7-.68a3.14,3.14,0,0,1,.75.62,1.88,1.88,0,0,0,.85.58c-.57-.09-.9-.57-1.55-.76a18.22,18.22,0,0,0,3.83,2.13c.26.09.19-.08.45,0-.25.07.25.22.41.3-.06.07-.42-.12-.61-.17-.11.15.46.15.51.24-.18.11-.53-.14-.71-.19a1.6,1.6,0,0,0,1.24.48c-.25.3.82.42,1.1.45-.1.09-.6,0-.85,0,.11.08.36.11.47.18-.12.26-.73,0-1,.11a8.37,8.37,0,0,0,1.76.31c-.07-.09-.5,0-.4-.19.68.21,1.79.18,1.81.42-.12,0-.05.05,0,0a5.09,5.09,0,0,1-1.17,0,5,5,0,0,0-1.24-.08c.18.16.44,0,.9.08-.45.15.11.05.11.18-.59,0-.68-.14-1-.08,0,.07.09.09.1,0a4.25,4.25,0,0,1-1.8,0l-1.13-.19c-.36-.07-.69-.14-.95-.17.17.16.63.12.77.34.05-.21.3.08.93.12A11.31,11.31,0,0,0,408.15,164.82ZM428,151.89c0,.3-.31.56-.23.81C427.78,152.42,428.06,152.12,428,151.89Zm-3.22-5.1c-.12-.36-.05-.68-.25-.8C424.53,146.28,424.67,146.84,424.74,146.79Zm-5-7.22c0-.08.77.56,1,.77a3.07,3.07,0,0,0-1.29-1C419.54,139.39,419.64,139.63,419.76,139.57Zm-20.14,20,.1-.09c-.13-.22-.48-.55-.33-.29C399.54,159.19,399.41,159.4,399.62,159.58Zm-1.55-2.67a3.05,3.05,0,0,0,.49,1.12C398.53,157.55,398.24,157.45,398.07,156.91Zm2.14,3c.06,0-.11-.26-.28-.46s-.32-.41-.31-.31A2,2,0,0,0,400.21,159.91Zm-3.59-9.07c-.15-.34,0-.93-.18-1.05C396.42,150.39,396.49,150.93,396.62,150.84Zm9.2,13c.07,0,.1.08.07.12a5.58,5.58,0,0,1,1.17.47C407.07,164.25,405.87,163.88,405.82,163.84Zm-9-11.42-.16-1.16c-.11,0-.16-.18-.17.13C396.71,151.32,396.78,152.6,396.85,152.42Zm-.25-3.6c-.19.17-.08.58-.16.86C396.61,149.69,396.51,149,396.6,148.82Zm31.54.89c.05.47-.13.93,0,1C428.17,150.48,428.23,149.48,428.14,149.71Zm-1.85,6.43c.1-.29.37-.8.32-1C426.46,155.66,426.25,155.81,426.29,156.14Zm-.13-.37c.18-.28-.13.38,0,.32.16-.53.4-.92.47-1.33C426.5,155.12,426.16,155.45,426.16,155.77Zm-26.22-5.29c0,.26,0,.74.11.84C400,151.07,400,150.59,399.94,150.48Zm25.28-2.39c0,.15.07.42-.07.35,0,.22,0,.55.08.8s.06.42.15.31C425.24,149.39,425.42,148.57,425.22,148.09Zm-.14,4.5c.18-1-.1-.69,0,0Zm-6.68-14c.2.09.43.23.49.13-.23-.06-.49-.31-.53-.25S418.43,138.56,418.4,138.61ZM424.74,151c0-.1.06-.05.09,0a4.19,4.19,0,0,1,.11-.84c0,.29.13.11,0,.43.22,0,.19-.91.07-1,0,.17.05.56,0,.59,0-.35-.14.05-.17-.25A6.1,6.1,0,0,0,424.74,151Zm-23.86-6c.11.11-.22.76-.18.83C400.46,146,400.9,145.2,400.88,145Zm8.53-11.33c.09-.18.44-.06.73-.2,0,.06,0,.08.12.07A2.8,2.8,0,0,1,409.41,133.66Zm-3,30.91s-.11,0-.1,0a5,5,0,0,1-1-.38c.09-.09.57.23.33,0,.05-.09.34.13.4.17s.19,0,.22,0-.48-.11-.16-.16c-.3-.18-.13.1-.43-.08.12-.11.52.06.93.24C406.47,164.41,406.33,164.46,406.46,164.57Zm-3.27-28.71c.1.16-.14.4-.58.7-.24.08.71-.52.51-.6a18.82,18.82,0,0,0-3.5,3.39c-.18,0,.32-.52.47-.75,0,0-.06.13-.11.19A17.93,17.93,0,0,1,403.19,135.86ZM414.39,165c-.81,0-1.51-.1-.43-.09a3.87,3.87,0,0,0,.94,0s0,.05-.1.06.05,0,.11,0a4.34,4.34,0,0,1-1.35.09C413.74,164.92,414.06,165.11,414.39,165Zm11.66-24.31c.25.21-.47-.33-.48-.6C425.73,140.22,425.77,140.37,426.05,140.7Zm-.22,16.58c-.06.1-.08.16-.06.2-.13.25-.2,0-.31.18C425.41,157.63,425.77,157.14,425.83,157.28Zm-16.28,5.13c-.3.09-.4-.22-.75-.29C409.06,162.07,409.24,162.37,409.55,162.41Zm-6.24-4.56c.08.06.11,0,.06-.07.25.3.64.61,1,1-.2,0-.67-.72-.79-.47C403.42,158.16,403.12,157.5,403.31,157.85Z"/><path class="cls-2" d="M419.17,126.27,417.83,130c-1.92-7.58-12.86-10.94-18.7-5.74-2,1.78-3.32,4.21-5.29,6s-5.08,2.93-7.29,1.41c-1.37-.93-2-2.64-3.37-3.63-2.94-2.17-7,.15-10,2.27s-7.47,4-9.91,1.23"/><path class="cls-2" d="M411.09,125.93c.16.07.38.28.55.28C411.25,125.85,410.31,125.57,411.09,125.93ZM413,127.2c.09,0,.22.1.34.24C413.26,127.52,413.13,127.32,413,127.2Zm-2.44-1.61a9.92,9.92,0,0,1-.93-.37,1.25,1.25,0,0,1,.34,0c-.12.06,0,.11.19.16S410.55,125.51,410.57,125.59Zm2.95,2c.07,0,.18.13.26.08s-.12,0-.17-.17a.68.68,0,0,1,.4.21c-.09,0-.1,0,0,.11C413.86,127.93,413.68,127.76,413.52,127.61Zm-4.74-2.78a3.71,3.71,0,0,1-1-.2C408.09,124.5,408.44,124.79,408.78,124.83Zm2.2.76c-.09,0-.64-.18-.55-.31C410.69,125.37,410.74,125.5,411,125.59Zm0-.15c0-.1.27,0,.54.16a6.3,6.3,0,0,0,.83.53C411.81,126.08,411.52,125.55,411,125.44Zm-5.48-1-.37,0c-.08-.15.23-.09.36-.13Zm-.63,0c-.1,0-.68.26-.72.1A3.43,3.43,0,0,1,404.87,124.4Zm-5.43,3.22c0-.29.52-.77.83-1.09C400.06,126.89,399.82,127.1,399.44,127.62Zm-5.83,5.95c0-.28.95-.53,1.46-1.1A6,6,0,0,1,393.61,133.57Zm-2,.92c.22-.33,1.07-.46,1.39-.7C393,134,392.08,134.3,391.64,134.49Zm23.11-6.56a.85.85,0,0,1,.39.52,1.32,1.32,0,0,0,.31.61C415.19,129,415.1,128.31,414.75,127.93Zm-17.56,2.24a2.93,2.93,0,0,1,.5-.78A2.23,2.23,0,0,1,397.19,130.17Zm23.65-3.3c-.15.27-.12.42-.3.73C420.52,127.51,420.71,126.79,420.84,126.87Zm-56.61,5.75a1.67,1.67,0,0,1-.61-.35c-.19-.18-.35-.38-.51-.53a1.07,1.07,0,0,1,.52.39A4.8,4.8,0,0,0,364.23,132.62Zm52-7.63c0-.06.14,0,.19-.06a2.94,2.94,0,0,0,.32.6c.12.23.25.46.34.68C416.73,126,416.7,125.56,416.23,125Zm2.52,3.5a1.61,1.61,0,0,1-.17-.35,2.07,2.07,0,0,1-.2-.47A1.15,1.15,0,0,1,418.75,128.49Zm-5.94-6.69c-.4,0-1.08-.6,0,0Zm-47.76,10c-.08.06-.43-.12-.45-.22S364.82,131.8,365.05,131.83Zm42.36-11.62c.23-.1.42,0,.79.05A1.78,1.78,0,0,1,407.41,120.21ZM367.11,132c-.11.11-.52.07-.74.07a11.85,11.85,0,0,1,1.19-.28c-.09.17-.37.09-.66.18C366.92,132,367,132,367.11,132Zm36.21-11.46a5.35,5.35,0,0,1,2.12-.45C404.81,120.32,404.24,120.23,403.32,120.51Zm-10,8.28c.09-.39.7-.77,1-1.25C394.18,128,393.8,128.23,393.33,128.79Zm19.54-7.35c-.31,0-.89-.42-1.34-.53A4.7,4.7,0,0,1,412.87,121.44ZM386.36,129c.26,0,.35.34.59.58C386.87,129.6,386.48,129.33,386.36,129Zm-10.17-3.1a4.31,4.31,0,0,1,1.21-.54A5.65,5.65,0,0,1,376.19,125.89Zm12.05,3.62c-.08,0,0-.09-.08-.1S388.33,129.35,388.24,129.51Zm23.48-3.45c-.26,0-.35-.24-.66-.34,0,0,.08,0,.13,0s0,0,0-.07C411.26,125.62,411.59,125.88,411.72,126.06Zm2.84,1.69c0-.09.12,0-.08-.27-.1.07.06.31-.14,0,0,0,.07.15.12.23a.16.16,0,0,1-.14,0c0,.05.06.09.1.07,0,.26-.3-.08-.47-.17s.1-.11.13-.11c-.19-.15-.3-.21-.17-.37.12.12,0,.08,0,.11.13.16.22.11.35.29a1.88,1.88,0,0,0-.56-.78,2,2,0,0,0-.75-.44c-.07,0-.15-.32-.35-.29,0,.13.07.26.27.39,0,.13-.47-.37-.7-.45.05-.07.2.09.24,0-.16-.14-.21,0-.29,0a11.54,11.54,0,0,0-3.87-1.64c.22.15,0,.09-.21.1,0-.08.06-.09.14-.07-.08-.14-.38,0-.4,0-.1-.1-.21-.1-.44-.14-.69-.14-.44,0,.4,0a2.94,2.94,0,0,0-1-.14c.1-.16.22-.13.39,0-.15-.24-.57-.22-1.06-.22a13,13,0,0,1-1.49.12,6.7,6.7,0,0,0,1.38,0c-.12.13-.26,0-.52.08.18.26,1.14-.1,1.36.23a8.26,8.26,0,0,0-4.88.83c-.11.08-.12,0-.21,0-.26.18-.44.42-.68.59a8.17,8.17,0,0,0-.73.57A10.39,10.39,0,0,0,398.5,128c.17.06-.18.18-.21.42s0-.2,0-.23c-.38.56-.27.76-.94,1.3a6.69,6.69,0,0,0,.54-.71c-.6.69-1.49,1.83-2.15,2.53.54-.41,1.06-1.17.43-.34a4.33,4.33,0,0,1-.66.75c-.18.05,0-.11-.19-.06a17.05,17.05,0,0,1-2.79,2.18c0-.09.4-.21.41-.3-.31,0-.75.45-1,.42-.12.06,0,.13,0,.19-.45.11-.22.14-.68.28.06-.1.35-.18.34-.29a9.05,9.05,0,0,1-3.82.35s.21.07.35.1c-.3.13-1.15-.26-1.78-.44a3.74,3.74,0,0,0,1.64.55,15.25,15.25,0,0,0,1.89.1c.53,0,.2,0-.31.08a7.8,7.8,0,0,1-1.45,0,6.66,6.66,0,0,1-2.24-.75,6.84,6.84,0,0,1-1.77-1.46c-.9-1-1.42-2-1.95-2.45.33,0,.79.86,1.35,1.49,0-.28-.68-.82-.47-.88-.14-.18-.23-.08-.37-.32.06,0,.13.05.18,0a2.51,2.51,0,0,1-.41-.46c0,.05.08.13.13.2-.17-.1-.55-.44-.35-.41a3,3,0,0,0-2.2-.73,7.29,7.29,0,0,0-3.55,1.31c.1.06.38-.23.48-.18s-.39.26-.49.29c.2.1.82-.34,1.11-.47a6.53,6.53,0,0,1,.92-.42c-.78.53-1.78,1-2.89,1.7,0-.06.05-.23-.13-.06.1-.2.58-.41.83-.6-.64.32-1.34.83-2,1.2.1,0,.32-.24.42-.2-.34.24-1,.7-1.63,1s-1.2.62-1.48.81c-.12.17-1,.13-1.29.19-.49.14-1.28.66-1.61.31A.89.89,0,0,0,369,134c-.16-.07-.53,0-.67,0,.4.13-1.28.51-1.26.24a2.19,2.19,0,0,1-.76.11.52.52,0,0,1,.29-.13,1,1,0,0,0-.87-.13c-.41-.11-.33-.32-1-.44,0-.27-.38-.52-.77-.82.1,0,.55.28.66.23-.33-.28-.14-.33-.47-.58,0,0,.23.08.21.12.18,0-.2-.27-.15-.39-.38-.13-.34-.2-.57-.38a7.81,7.81,0,0,0,1.56.47,5,5,0,0,0,1.73,0,1.76,1.76,0,0,1,.53.11c.14,0,.16-.13.34-.15,0-.06-.31,0,0-.09a2.63,2.63,0,0,0-.58,0c0-.18.66-.31,1.14-.42a10.88,10.88,0,0,1,1.61-.82,2.29,2.29,0,0,0,.16-.31,10.82,10.82,0,0,0-1.37.77c.08-.25-.28,0-.51,0,.32-.31,1.47-.52,1.9-.91-.58.14.29-.71.8-.75,0-.06.09-.21.27-.37,0,.06,0,.12-.13.18a3.28,3.28,0,0,0,1-.48l1.29-.91c.07.18-.38.41-.67.63,1-.6,2.18-1.46,3.61-2.21a8.45,8.45,0,0,1,5.06-1.1,3.26,3.26,0,0,1,.83.21c.27.09.52.19.75.29a1.76,1.76,0,0,1,.53.44,5.6,5.6,0,0,1,1.64,1.34c.38.44.68.87,1,1.33.06.07.06,0,0,0a9.48,9.48,0,0,0,1.08,1.21,2.38,2.38,0,0,0,1.06.54,2.39,2.39,0,0,1-1.58-.9c-.57-.62-1.16-1.61-2-2.5a16.67,16.67,0,0,0,2.42,3,2.81,2.81,0,0,0,1.65.67,10,10,0,0,0,1.81-.3,7.29,7.29,0,0,0,1.63-.9,8.93,8.93,0,0,0,1.3-1.17,34.41,34.41,0,0,0,2.42-3,6.37,6.37,0,0,0-.81,1,4.89,4.89,0,0,1,.84-1.17c.16-.19.78-.87.48-.47s-.36.36-.46.58a15.26,15.26,0,0,0,1.46-1.73,21.58,21.58,0,0,1,3.53-2.47,12.24,12.24,0,0,1,7-.92c.13,0-.07-.08.09-.07a1.54,1.54,0,0,1,.34.17c.13,0,.09-.13.35,0,0,0-.11,0-.18,0,.61.25,1.78.36,2.14.76a2.05,2.05,0,0,1,1,.26c.42.21.88.49,1.26.63-.12.26-.39-.09-.74-.25a4,4,0,0,0,.89.55,11.29,11.29,0,0,1,1.05.73,3.89,3.89,0,0,0-1.16-.91,4.48,4.48,0,0,1,2.06,1.43,3.62,3.62,0,0,0-.61-.8c.6.35.77,1.12,1.35,1.54-.47-.3-.73-.78-1.33-1.1a10.5,10.5,0,0,1,2.47,3.4c.12.23.2.05.31.29-.21-.12,0,.32,0,.49-.09,0-.14-.38-.24-.53-.17,0,.18.39.13.5-.17-.07-.21-.45-.3-.58a1.76,1.76,0,0,0,.33,1.12c-.37,0,.08.76.07,1-.12,0-.16-.45-.3-.62,0,.11.08.29,0,.4-.23,0-.35-.46-.53-.57a4.43,4.43,0,0,0,.21.61c.05.23.1.46.15.67.07-.07-.11-.35.07-.34,0,.29.09.65.11.92l.21,2.23,1.34-2.15c.14-.23.27-.38.37-.35s0,.06,0,0a2.6,2.6,0,0,1-.15.42l-1.33,2.92-.74-3a4.75,4.75,0,0,0-.35-1.24c-.1.18.09.3.16.62-.25-.24,0,.09-.14.13-.19-.35,0-.48-.18-.67-.08,0-.06.1,0,.08a2.8,2.8,0,0,1-.78-.92,5,5,0,0,0-.94-1c0,.16.3.28.25.47.18-.13.1.16.42.42C415,128.09,414.82,127.77,414.56,127.75Zm-43.35,5.75c-.22.11-.55,0-.68.21C370.76,133.62,371.1,133.68,371.21,133.5Zm2.22-5c.29-.24.61-.26.66-.5C373.83,128.13,373.35,128.44,373.43,128.49Zm9.4-2.49c0,.06-1.19-.4-1.56-.43l2.05.69C383.17,126.2,383,125.93,382.83,126Zm26.54-1.43,0-.13c-.14-.09-.45,0-.28,0C409.22,124.35,409.2,124.56,409.37,124.57ZM407.6,124a1.68,1.68,0,0,0,.7.23C408.09,124,407.92,124.17,407.6,124Zm2.21.46c.06-.12-.63-.38-.56-.23S409.68,124.52,409.81,124.49Zm-6-.45c-.17.17-.57,0-.56.3C403.58,124.23,403.91,124.18,403.82,124Zm9.79,2.47a.07.07,0,0,1,0,.11c.18.23.47.31.54.56C414.24,127,413.62,126.54,413.61,126.51Zm-8.84-2.72a4.27,4.27,0,0,0-.71.15c0,.1-.08.16.11.15C404.09,123.89,404.87,123.85,404.77,123.79Zm-2.09.64c.16.13.34-.06.52-.06C403.15,124.21,402.82,124.47,402.68,124.43Zm-29.83,8.23c-.31.25-.74.28-.73.47C372.32,133,373.06,132.63,372.85,132.66Zm-5.59,1.54c.29,0,.8-.07.9-.19C367.72,134.13,367.51,134,367.26,134.2Zm.24-.29c.3,0-.37.06-.26.16a7.39,7.39,0,0,0,1.24-.26C368.16,133.9,367.74,133.75,367.5,133.91Zm35.36-13.07c.26-.09.76-.12.85-.24C403.46,120.68,403,120.72,402.86,120.84Zm-30.34,8.61c-.11.07-.28.25-.29.1-.3.22-1,.62-.7.68C371.55,130,372.27,129.85,372.52,129.45Zm-3.29,2c.78-.32.42-.41,0,0Zm15.33-4.13c-.19-.18-.47-.41-.53-.32.27.14.49.5.55.45S384.51,127.3,384.56,127.27Zm-14.41,3.08c.08,0,.07,0,.05.08.2-.08.51-.34.65-.31-.21.14,0,.15-.29.22.1.18.75-.25.77-.4-.14.05-.38.29-.46.22.26-.16-.11-.1.09-.26A3.63,3.63,0,0,0,370.15,130.35Zm27.58-6.68c-.07-.17.57-.6.59-.66C398.62,123,397.77,123.43,397.73,123.67Zm-7.33,10.84c-.09.2-.44.08-.74.2,0-.05,0-.07-.12-.07A3.88,3.88,0,0,1,390.4,134.51Zm23.27-7.31s-.06,0,0,0a5.9,5.9,0,0,1-.49-.39c.11-.09.29.21.21,0,.08-.08.16.14.18.18s.1.05.14,0-.25-.15,0-.15c-.1-.19-.12.06-.23-.12.13-.09.3.12.49.32C413.75,127.07,413.64,127.1,413.67,127.2Zm-17.81,4.66c-.12-.14,0-.37.35-.68.19-.09-.5.53-.32.58,1.17-1.34,1.52-1.73,2.47-2.88.17.06-.22.37-.32.56,0,0,0-.11.06-.16C397.63,129.77,396.8,131,395.86,131.86Zm23.73-2.15c-.27.55-.55,1-.23.26a4,4,0,0,0,.31-.65s0,0,0,.09.05,0,.07-.06c0,.28-.29.59-.38,1C419.3,130.13,419.55,130,419.59,129.71Zm-40.9,0c-.15.14.23-.3.39-.18C379,129.6,378.91,129.56,378.69,129.69Zm-12.58,4.63a.31.31,0,0,0-.2,0c-.28,0-.08-.17-.29-.21C365.64,134.09,366.21,134.2,366.11,134.32Zm51-7.67c-.27-.13-.14-.42-.38-.67C416.93,126.08,416.89,126.42,417.07,126.65Zm-5.54-5.46c.11,0,.11,0,0-.08a10.32,10.32,0,0,1,1.37.65c-.2.06-.93-.54-.95-.26C411.8,121.41,411.17,121,411.53,121.19Z"/><path class="cls-2" d="M398.83,143c-.42-3-5-3.47-7.31-1.52s-3.2,5.08-4.72,7.7-4.55,5-7.36,3.9c-3.22-1.3-3.54-6.05-6.46-7.91-3.38-2.16-7.66.76-10.45,3.63S356,155,352.25,153.48"/><path class="cls-2" d="M392.34,144.83a1.08,1.08,0,0,0,.26-.43C392.3,144.69,391.93,145.45,392.34,144.83Zm1.08-1.28c0-.09,0-.15.12-.19S393.46,143.49,393.42,143.55ZM392,145.24a3.73,3.73,0,0,1-.45.81c0-.11,0-.2,0-.32C391.63,146,391.83,145.24,392,145.24Zm1.66-2c0-.09.1-.08.07-.17s0,.07-.13.06a.31.31,0,0,1,.18-.23c0,.07,0,.1.07.07C393.89,143.18,393.75,143.23,393.64,143.29ZM391,146.84a3,3,0,0,1-.46,1C390.55,147.49,390.87,147.17,391,146.84Zm1-2c0,.07-.2.56-.33.46C391.77,145.09,391.9,145.06,392,144.87Zm-.14,0c-.2-.1.46-.75.69-1.07C392.46,144.2,392,144.39,391.86,144.85Zm-2.63,5.38c-.08.14-.15.28-.24.43-.18,0,.11-.32.16-.47Zm-.5.69c0,.15-.48.93-.62.84C388.43,151.35,388.49,151.27,388.73,150.92Zm-8.27,5c.39-.11,1.46-.1,2.15-.31A4.86,4.86,0,0,1,380.46,155.88Zm-6.69-5.57c.26,0,.31.68.7,1.14C374.37,151.48,374,150.6,373.77,150.31Zm-.68-1.2c.31,0,.39.59.55.79C373.43,149.92,373.27,149.31,373.09,149.11ZM394,142.36c.27-.27.65,0,1-.14C394.88,142.41,394.37,142.26,394,142.36ZM376.33,153.8a8.91,8.91,0,0,1,.93.64A2.18,2.18,0,0,1,376.33,153.8Zm20.74-10.55c0-.1,0-.15,0-.26S397.21,143.25,397.07,143.25ZM353.35,154c-.35.09-.84-.19-1.2-.3C352.42,153.59,353,154,353.35,154Zm38.54-14c-.05-.06.05-.13,0-.2.38,0,.93-.19,1.37-.2C392.91,139.8,392.56,139.7,391.89,140Zm4-.94A3,3,0,0,1,395,139,1.14,1.14,0,0,1,395.86,139Zm-7.41,3.6c0,.36-.63.88,0,0ZM353.82,153c-.06.11-.41,0-.46-.06S353.61,153.06,353.82,153Zm32.45-6.27c0-.21.09-.31.21-.58A1,1,0,0,1,386.27,146.73Zm-30.6,5.92c-.07.14-.44.14-.63.21a4.26,4.26,0,0,1,1-.47c0,.17-.31.11-.54.27C355.51,152.71,355.6,152.66,355.67,152.65Zm29.21-3.38a6.76,6.76,0,0,1,.63-1.29A3.08,3.08,0,0,1,384.88,149.27Zm-6.58,1c.34.1.5.66.83.86C378.81,151.05,378.69,150.72,378.3,150.27Zm9.8-7.76a11,11,0,0,1-.58,1.1A4.37,4.37,0,0,1,388.1,142.51Zm-17.24.18c.2-.21.62,0,1.14.07A2.79,2.79,0,0,1,370.86,142.69Zm-8.71,3.25c.09-.21.54-.52.79-.75A2.85,2.85,0,0,1,362.15,145.94Zm12.42-3c-.27-.14-.21-.2-.45-.32C374.25,142.56,374.72,142.79,374.57,142.92Zm17.89,1.37c0,.22-.19.29-.32.54,0,0,0-.08,0-.12s-.05,0-.07,0S392.31,144.38,392.46,144.29Zm1.38-1.84c-.06,0,0-.12-.2,0,0,.11.23,0,0,.14,0,0,.11,0,.18,0s0,.09-.05.11.07,0,.06-.07c.18.11-.09.26-.17.35s-.07-.13-.07-.16-.17.16-.27,0c.08-.06.05,0,.07.06s.1-.13.24-.16a.43.43,0,0,0-.28,0,1.66,1.66,0,0,0-.32.17,2.19,2.19,0,0,0-.21.23,1,1,0,0,0-.13.24c0,.07-.28.07-.25.26s.22,0,.34-.16-.31.34-.41.5c-.06-.05.09-.15,0-.2-.14.1-.05.17,0,.24a17.58,17.58,0,0,0-2,3.35c.19-.19.09.05,0,.24-.08,0-.06-.08,0-.16-.15,0-.16.36-.09.41-.13.08-.16.19-.28.41-.38.7-.19.44.09-.42a6.84,6.84,0,0,0-.52,1c-.1-.16,0-.26.15-.41-.55.17-.78,1.63-1.62,2.56a2.66,2.66,0,0,0,.5-.63c.15-.26.28-.54.42-.79.07.19-.12.29-.25.56.39,0,.55-1.22.95-1.3-.25.47-.51.93-.79,1.39a14.8,14.8,0,0,1-1,1.37,14.29,14.29,0,0,1-2.41,2.31c-.14.14-.15,0-.26.09a5.38,5.38,0,0,1-2.4,1.27,7.14,7.14,0,0,1-3.65,0c0,.18-.33-.13-.63-.11-.24-.15.26,0,.26-.1-.82-.3-1.07-.18-1.8-.95.43.27.63.53.93.61a9.06,9.06,0,0,1-1.54-1.22,15,15,0,0,1-1.08-1.3c.27.57.93,1.24.24.47a3.22,3.22,0,0,1-.57-.74c0-.17.1,0,.1-.16a19.7,19.7,0,0,0-1.5-2.16c.09,0,.15.25.24.24,0-.23-.35-.46-.32-.65s-.12,0-.18,0c-.09-.25-.12-.1-.26-.34.09,0,.18.15.28.12a4.58,4.58,0,0,0-1.12-1.48c0,.05,0,.07.07.12-.19.05-.26-.35-.49-.35a1.22,1.22,0,0,0,.36.41,1.76,1.76,0,0,1,.43.64c.23.4-.41-.45-.49-.52a3,3,0,0,0-1-.82,2.25,2.25,0,0,0-1.54-.05c.22-.27.86-.18,1.19-.2-.08-.16-.51,0-.49-.18-.13,0-.11.15-.29.12,0-.06.07-.08.07-.14a1.58,1.58,0,0,1-.46.08c0,.06.12,0,.19,0a.56.56,0,0,1-.33.12c-.12,0-.22,0-.15,0a12.59,12.59,0,0,0-2.69,1.14,11,11,0,0,0-2.8,2.3c.11,0,.27-.29.38-.26s-.27.32-.36.37c.23.05.64-.48.86-.68a8.68,8.68,0,0,1,.69-.64,23.05,23.05,0,0,1-2.2,2.3c0-.06,0-.23-.15,0,.07-.21.49-.51.68-.76-.53.46-1.13,1.09-1.7,1.5.09.05.28-.27.38-.24-.66.64-2,1.6-2.48,2-.07.18-.87.22-1.12.32-.4.18-1,.8-1.36.49a.65.65,0,0,0,.31-.1c-.15,0-.46.11-.6,0,.17,0-.06.21-.36.34s-.67.21-.68.09a2.48,2.48,0,0,1-.62.24.39.39,0,0,1,.21-.18c-.14-.08-.61-.14-.75,0-.37,0-.35-.23-.93-.16-.09-.27-.43-.37-.84-.51.08-.1.52.09.61,0-.35-.12-.21-.29-.56-.37,0-.06.22,0,.21,0,.16,0-.23-.2-.24-.3-.36,0-.33-.07-.6-.11a11.19,11.19,0,0,0,3-.52,1,1,0,0,1,.48,0c.11-.06.12-.14.26-.2,0-.05-.27,0,0-.08-.13,0-.5,0-.51.09,0-.17.51-.4.91-.57a6.8,6.8,0,0,1,1.26-1,1.83,1.83,0,0,0,.07-.32c-.34.32-.88.61-1,.89,0-.24-.25.05-.44.09.21-.35,1.18-.66,1.49-1.09-.49.2.11-.71.58-.78,0-.06,0-.22.18-.38a.2.2,0,0,1-.09.19,5.82,5.82,0,0,0,1.79-1.43c.09.15-.23.4-.43.6a12.12,12.12,0,0,0,1.13-1.07c.37-.42.85-.95,1.32-1.42a14.27,14.27,0,0,1,3.25-2.57c.36-.2.8-.3,1.12-.48s.35,0,.53,0a7.07,7.07,0,0,1,3.37-.54c.1,0,.05,0,0,0a5.7,5.7,0,0,1,2.27.55,7,7,0,0,1,1.82,1.3,7.1,7.1,0,0,0-2.8-1.55,7.36,7.36,0,0,0-3.46,0c.57,0,1.23-.08,2-.06a6.15,6.15,0,0,1,2.35.49,6.69,6.69,0,0,1,2.3,1.85,6.85,6.85,0,0,1,1.29,1.93c.75,1.27,1.23,2.31,1.81,3.09a3.21,3.21,0,0,0,2,1.45c-.08-.08-.42-.15-.67-.29a.6.6,0,0,1,.32.09c.15,0,.3.11.45.13s.61.1.34.12-.26-.09-.4,0a1.51,1.51,0,0,0,1.24-.05c.4.14,1.49-.51,2.28-1.26a7.49,7.49,0,0,0,1.47-1.79c.42-.7.84-1.56,1.31-2.42,0-.1-.1,0-.05-.09s0-.07.23-.2c0-.11-.1-.11,0-.29,0,0,0,.09,0,.14.33-.41.62-1.33,1-1.59-.1-.3.65-1.22,1-1.83.24.15-.13.33-.29.62.6-.55.53-.81,1.35-1.58a3,3,0,0,0-.94.94c.07-.58.95-1.3,1.5-1.7a3.47,3.47,0,0,0-.81.45c.4-.53,1.1-.54,1.66-1-.39.43-.92.54-1.23,1.08.28-.19.55-.37.81-.56a6.39,6.39,0,0,1,.93-.49,3.8,3.8,0,0,1,1.89-.35c.23,0,.11-.15.35-.16-.17.15.27.12.41.18,0,.08-.36,0-.52,0s.39,0,.46.07c-.12.13-.44,0-.59,0a1.45,1.45,0,0,0,1,.15c-.14.33.62.3.81.39-.08.1-.41,0-.59,0,.08.06.25.07.32.15s-.48.09-.63.21c.32.09.74.11,1.08.24,0-.1-.3-.06-.22-.21.42.19,1,.46.89.67-.05,0,0,0,0,0-.39-.07-.73-.44-1.26-.35.09.16.25,0,.5.1-.26.11,0,.05,0,.18-.3,0-.34-.15-.52-.1,0,.07,0,.09,0,0a2.55,2.55,0,0,1-.91.29,2.11,2.11,0,0,0-.94.44c.12,0,.26-.17.39,0-.06-.22.13,0,.4-.19C394.18,142.21,393.9,142.22,393.84,142.45Zm-34.23,11.17c-.17.13-.49.08-.57.28C359.23,153.78,359.55,153.81,359.61,153.62Zm1-4.89c.19-.24.46-.29.44-.51C360.86,148.37,360.53,148.69,360.6,148.73Zm6.23-5.13c.06.07-.83.39-1.07.52a5.86,5.86,0,0,0,1.47-.64C367.12,143.52,366.85,143.46,366.83,143.6Zm24,2.61-.12-.05c-.1.12-.14.41,0,.27C390.61,146.32,390.84,146.38,390.86,146.21Zm-1,1.64c.15-.21.32-.25.44-.64C390,147.36,390.14,147.56,389.9,147.85Zm.93-2.07c-.1-.08-.43.54-.29.5A1,1,0,0,0,390.83,145.78Zm-3.31,5.88c0,.31-.53.5-.43.72C387.44,152.06,387.67,151.7,387.52,151.66Zm5.35-8.85s.06,0,.09,0,.23-.29.42-.26C393.27,142.44,392.87,142.81,392.87,142.81Zm-4.67,7.81c-.16.26-.34.5-.51.75.08.07,0,.21.19,0C387.7,151.33,388.35,150.57,388.2,150.62Zm-1.73,2.23c.23,0,.37-.28.57-.4C386.93,152.33,386.64,152.8,386.47,152.85Zm-25.56-.17c-.22.27-.61.32-.56.51C360.5,153.05,361.09,152.64,360.91,152.68Zm-4.64,2.12c.22-.1.69-.17.74-.32C356.65,154.67,356.43,154.55,356.27,154.8Zm.14-.32c.26,0-.3.12-.18.2a6.18,6.18,0,0,0,1-.44C357,154.37,356.59,154.3,356.41,154.48Zm28.43-4.8c.09-.16.36-.38.32-.51C385.09,149.34,384.81,149.55,384.84,149.68Zm-24.82,0c-.09.07-.21.25-.25.11-.24.23-.77.67-.53.7C359.23,150.27,359.86,150.05,360,149.66Zm-2.61,2.16c.62-.4.29-.45,0,0Zm11-8.63c-.21.06-.47.12-.44.23.2-.12.56-.1.55-.17S368.44,143.24,368.44,143.19ZM358,150.72c.07,0,.06,0,.05.07.17-.09.4-.38.53-.36-.16.15,0,.14-.22.23.12.16.64-.29.63-.45-.12.07-.29.31-.38.25.2-.17-.12-.08,0-.25C358.43,150.36,358,150.62,358,150.72Zm23.79,1.11c0-.16.44-.19.44-.27C382.45,151.7,381.88,151.69,381.81,151.83ZM373,148.4c-.18,0-.12-.2-.29-.25a.09.09,0,0,0,0-.1C372.83,148.07,372.9,148.2,373,148.4Zm20.37-5.4c0,.05,0,0,0,0a1.39,1.39,0,0,1-.25.23c-.07-.1.13-.13,0-.13s.08-.08.11-.08a.11.11,0,0,0,0-.11c-.06-.07-.11.15-.12,0-.13,0,.06.14-.06.16-.08-.13.05-.22.21-.3C393.28,142.88,393.3,143,393.37,143Zm-18.54,9.19c.17-.1.33.07.58.43,0,.2-.41-.57-.49-.39a15.88,15.88,0,0,0,1.32,1.58,6.8,6.8,0,0,0,1.85,1.36c0,.19-.58-.2-.81-.34,0,0,.15,0,.21.08l-.68-.5c-.24-.21-.51-.44-.76-.68A9.43,9.43,0,0,1,374.83,152.19Zm21.72-10c-.24-.21-.54-.4-.1-.19.1.07.17.17.29.25s0,0-.06,0,0,0,0,.06c-.15,0-.24-.23-.45-.27C396.38,142,396.41,142.23,396.55,142.23Zm-30.89,6.57c-.09.18.11-.34.3-.3C365.92,148.62,365.82,148.62,365.66,148.8Zm-10.34,6.33c-.09,0-.15,0-.16.07-.23.05-.11-.15-.28-.14C354.87,155,355.38,155,355.32,155.13Zm38.31-15.39c-.2.19-.41,0-.71.11C393.09,139.66,393.37,139.8,393.63,139.74Zm-5.84,3.92c0-.09,0-.11-.08,0a9.94,9.94,0,0,1,.71-1.11c0,.19-.56.75-.3.81C388,143.46,387.54,143.92,387.79,143.66Z"/><path class="cls-2" d="M399,158.62c-.85-2.48-4.46-2.94-6.65-1.49s-3.29,4-4.27,6.46-2.09,5-4.3,6.44c-3,1.92-7,1.07-10.12-.56s-5.94-4-9.3-5.1-7.71-.59-9.51,2.46"/><path class="cls-2" d="M392.86,160.5c.07-.1.22-.24.23-.35C392.82,160.36,392.48,161,392.86,160.5Zm1-1.06c0-.08,0-.13.1-.17S393.93,159.41,393.87,159.44Zm-1.34,1.36a3.23,3.23,0,0,1-.4.66c0-.1,0-.18,0-.28C392.22,161.4,392.38,160.79,392.53,160.8Zm1.54-1.57c0-.09.08-.09.06-.18s0,.08-.11.06a.21.21,0,0,1,.15-.21c0,.06,0,.09.06.07C394.29,159.13,394.15,159.16,394.07,159.23Zm-2.42,2.85a1.81,1.81,0,0,1-.36.8C391.27,162.61,391.56,162.36,391.65,162.08Zm.89-1.6c0,.07-.18.46-.3.36C392.33,160.64,392.45,160.64,392.54,160.48Zm-.13,0c-.2-.11.42-.61.62-.87C393,159.94,392.55,160.06,392.41,160.44Zm-2.06,4.46-.14.36c-.17,0,0-.26.06-.39Zm-.32.58c0,.11-.2.78-.35.72C389.85,165.84,389.89,165.77,390,165.48ZM385.4,172a14.58,14.58,0,0,1,1.22-1.16A5.09,5.09,0,0,1,385.4,172Zm-7.51,1.54c.13-.23.8.15,1.38.07A5.06,5.06,0,0,1,377.89,173.5Zm-1.56-.29c.28-.18.82.13,1.12.14C377.32,173.53,376.66,173.25,376.33,173.21Zm18.05-14.88c.24-.26.56,0,.85-.11C395.14,158.42,394.7,158.23,394.38,158.33ZM382,173.26a3.42,3.42,0,0,1,.85-.33C382.72,173.09,382.34,173.17,382,173.26Zm15.3-14.06c0-.11-.07-.13-.09-.26S397.42,159.16,397.28,159.2Zm-41.66,6.93c-.09.27-.43.56-.59.83C355,166.71,355.41,166.33,355.62,166.13Zm36.84-10.31c0-.07,0-.12,0-.19.35,0,.85-.14,1.26-.12C393.39,155.72,393.08,155.61,392.46,155.82Zm3.63-.79a2.53,2.53,0,0,1-.78-.06A1,1,0,0,1,396.09,155Zm-6.95,3c0,.34-.64.78,0,0Zm-34,7.13c0,.1-.3.41-.38.43C354.7,165.41,355,165.36,355.1,165.14ZM387,161.85c-.06-.2.08-.3.19-.56A1.1,1.1,0,0,1,387,161.85Zm-30.11,1.9c-.07.12-.47.27-.67.42a2.63,2.63,0,0,1,1.07-.76c-.06.19-.36.18-.62.39C356.73,163.84,356.83,163.78,356.91,163.75Zm29.06.76a4.26,4.26,0,0,1,.42-1.39A4.22,4.22,0,0,1,386,164.51Zm-5.77,5.17c.24-.23.75-.07,1.1-.23C381.05,169.67,380.73,169.6,380.2,169.68Zm8.6-11.81a9.76,9.76,0,0,1-.6,1A4.11,4.11,0,0,1,388.8,157.87ZM373,167.09c.21-.12.37.14.66.27A.78.78,0,0,1,373,167.09Zm-6.12-4.21c.21,0,.62.26.9.37A2.42,2.42,0,0,1,366.85,162.88Zm8.37,4.3c-.14,0-.09-.11-.21-.15C375.09,167,375.33,167,375.22,167.18ZM393,160c0,.18-.17.23-.3.43,0,0,0-.07,0-.1s0,0-.06,0S392.81,160.07,393,160Zm1.28-1.62c-.06,0,0-.13-.18,0,0,.12.2.06,0,.13,0,.06.1,0,.15,0s0,.09,0,.11.06,0,.06-.07c.15.12-.08.27-.15.34s-.06-.14-.06-.16-.15.15-.25,0c.08-.05.05,0,.07.06s.08-.13.21-.14c-.28-.19-.84.31-.89.54,0,.07-.25,0-.23.2s.21,0,.32-.1c.1,0-.29.28-.38.41-.06-.06.08-.12,0-.18s-.05.14,0,.21a11.21,11.21,0,0,0-1.79,2.73c.17-.15.09.05.06.21-.08,0-.06-.07,0-.14-.14,0-.13.3-.05.35-.12.06-.15.15-.24.34-.29.58-.14.36,0-.36-.17.14-.26.59-.4.86-.12-.14,0-.23.1-.35-.51.12-.58,1.41-1.1,2.2a4.41,4.41,0,0,0,.58-1.23c.09.16-.07.25-.15.49.36,0,.33-1,.72-1.12a42.47,42.47,0,0,1-2.46,4.77c-.07.16-.13.05-.19.15a5.4,5.4,0,0,1-1.32,1.81,12.57,12.57,0,0,1-2.35,1.71c.13.12-.25.11-.39.3s.12-.16.06-.22c-.61.33-.64.56-1.49.63a5.24,5.24,0,0,0,.84-.29,13,13,0,0,1-3,.62c.57.08,1.38-.14.47,0a3.13,3.13,0,0,1-.85.1c-.14-.09.05-.09-.09-.17-1.07.09-1.87-.07-2.7,0,0-.09.33,0,.38,0-.17-.19-.64,0-.78-.2-.1,0-.08.1-.11.16-.3-.13-.19,0-.51-.08.08-.05.28,0,.32-.1-.74-.17-1.56-.54-2.39-.77,0,.06.11.08.18.12-.22.1-.62-.33-1-.37.27.32,1.43.62,2,.94s-.85-.22-1-.32a42.8,42.8,0,0,1-4.6-2.68c.41,0,1.11.63,1.67.87-.05-.21-.76-.39-.6-.54-.17-.11-.23,0-.44-.15.05,0,.14,0,.18-.05a2.43,2.43,0,0,1-.55-.33c0,.06.12.11.2.17-.19,0-.78-.39-.53-.37-1.66-1-3.45-2.69-5.53-3.23,0,.11.32.1.33.2s-.35-.08-.41-.14c0,.21.59.34.83.44a8,8,0,0,1,.77.34c-.8-.14-1.6-.59-2.44-.78,0,0,.15-.13,0-.14.16-.08.48.11.7.13a11.62,11.62,0,0,0-1.53-.44c0,.1.27,0,.3.13a6.06,6.06,0,0,0-2.14-.14c-.09.11-.57-.24-.76-.24s-.71.39-.95,0a.31.31,0,0,0,.2,0c-.1-.09-.31,0-.41-.08.23.08-.58.54-.65.33-.11.17-.17.17-.29.29a.23.23,0,0,1,.06-.19c-.12-.07-.46,0-.43.18-.2.1-.37-.13-.58.19a.59.59,0,0,0-.73.14c-.05-.11.26-.3.24-.4-.28.12-.31-.05-.55.15,0,0,.07-.17.12-.14,0-.15-.27.08-.37,0a2.84,2.84,0,0,1-.3.49,3.91,3.91,0,0,1,1.95-2.45,1.23,1.23,0,0,1,.52,0c.1-.07.11-.16.27-.21,0-.05-.3,0,0-.08a1.27,1.27,0,0,0-.54.14c-.07-.19.57-.49,1-.6a3.48,3.48,0,0,1,1.68-.54,3,3,0,0,0,.25-.25,3.85,3.85,0,0,0-1.52.45c.11-.24-.29,0-.53,0,.36-.35,1.58-.38,2.11-.54-.63-.08.58-.59,1.07-.32,0-.06.2-.13.44-.16,0,.05-.09.08-.22.08.59.21,1.6.26,2.52.48-.08.17-.49,0-.8,0A21.76,21.76,0,0,1,369.7,165c.29.18.53.43.79.57s.15.23.24.35c.9.52,1.31.84,2.08,1.33.06,0,.05,0,0,0,.8.42,1.85,1.09,2.57,1.38a18.93,18.93,0,0,1-3.91-2.12,9.12,9.12,0,0,0,2.55,1.64,17,17,0,0,0,1.77.87c.61.24,1.33.33,1.63.52a9.82,9.82,0,0,0,2.91.23,4.92,4.92,0,0,0,2.41-.76c-.11,0-.44.21-.72.32a3.09,3.09,0,0,1,.76-.44c.14-.05.59-.35.37-.15s-.27.12-.37.25a2.18,2.18,0,0,0,1.05-.84c.43-.11,1-1.16,1.55-2.08.71-1.22,1.16-2.85,2-4.53,0-.1-.1,0-.06-.09a1.14,1.14,0,0,1,.23-.2c0-.1-.11-.1,0-.27,0,0,0,.08,0,.14.31-.4.58-1.26,1-1.48-.1-.3.65-1.11,1-1.66.22.16-.13.3-.3.56.59-.46.54-.71,1.35-1.35a2.34,2.34,0,0,0-.94.79c.08-.55,1-1.14,1.5-1.47a3.19,3.19,0,0,0-.79.35c.4-.47,1.07-.4,1.58-.79-.37.35-.83.41-1.17.89a11.47,11.47,0,0,1,1.64-.84,3.63,3.63,0,0,1,1.73-.23c.21,0,.11-.14.33-.14-.17.15.23.12.36.19,0,.08-.33,0-.47,0s.35,0,.41.08c-.1.12-.39,0-.53,0a1.22,1.22,0,0,0,.94.18c-.14.33.55.31.72.4-.07.09-.37,0-.53,0,.07.07.22.07.28.14-.07.25-.43.09-.56.21a8.91,8.91,0,0,1,.95.25c0-.11-.26,0-.18-.21.37.18.88.44.79.65-.06,0,0,0,0,0-.35-.07-.65-.41-1.12-.33.08.15.21,0,.44.09-.24.13,0,.05,0,.19-.28,0-.31-.16-.47-.11s0,.09,0,0a1.82,1.82,0,0,1-.81.28,1.84,1.84,0,0,0-.83.39c.11.06.23-.17.35,0,0-.21.12,0,.35-.17C394.53,158.18,394.29,158.19,394.24,158.41Zm-34.12,7.19c-.14,0-.33-.17-.42,0C359.84,165.54,360,165.73,360.12,165.6Zm3.57-2.86c.32,0,.52.25.7.13C364.16,162.76,363.68,162.65,363.69,162.74Zm6.7,2.87c0,.09-.63-.38-.81-.52a2.59,2.59,0,0,0,1.06.72C370.56,165.77,370.5,165.54,370.39,165.61Zm21.1-4.08-.12-.06c-.08.1-.12.35,0,.23C391.26,161.6,391.48,161.68,391.49,161.53Zm-.82,1.35c.13-.17.29-.2.38-.53C390.77,162.47,390.88,162.64,390.67,162.88Zm.78-1.73c-.11-.08-.4.43-.27.41S391.46,161.25,391.45,161.15Zm-2.34,5c0,.26-.32.51-.16.68C389.15,166.53,389.26,166.21,389.11,166.19Zm4.25-7.51s.06,0,.08,0,.21-.27.38-.21C393.73,158.36,393.38,158.68,393.36,158.68Zm-3.91,6.58-.27.67c.1,0,.07.17.19,0C389.18,165.89,389.58,165.2,389.45,165.26Zm-.89,2.12c.22,0,.22-.31.36-.45C388.77,166.85,388.7,167.3,388.56,167.38Zm-27.36-1.8c-.23,0-.46-.12-.51.06C360.82,165.61,361.32,165.66,361.2,165.58Zm-3.36.2c.13-.09.41-.15.45-.25C358.05,165.65,357.89,165.56,357.84,165.78Zm0-.3c.18,0-.19.11-.08.18.22-.19.48-.18.66-.33C358.25,165.4,358,165.3,357.86,165.48Zm28.17-.56c.05-.17.26-.45.19-.56C386.18,164.53,386,164.81,386,164.92Zm-23.48-2.11c-.12,0-.35,0-.27-.11-.35,0-1.07-.06-.91.12C361.51,162.65,362.13,162.94,362.55,162.81ZM359,163c.79-.15.48-.32,0,0Zm12.41,3.37c-.14-.08-.3-.21-.36-.11.17,0,.33.28.37.22A.07.07,0,0,1,371.38,166.41Zm-11.24-4.12c.09,0,.05,0,0,.09.22,0,.62-.09.72,0-.24,0-.08.12-.35.06,0,.19.75.14.85,0-.14,0-.46.05-.5,0,.3,0,0-.15.21-.18A2.23,2.23,0,0,0,360.14,162.29ZM384,168c-.09-.13.3-.39.27-.45C384.53,167.57,384,167.83,384,168Zm-8.4,4.72c-.13.14-.28-.09-.51-.07,0,0,0-.08,0-.11C375.17,172.5,375.37,172.62,375.62,172.71Zm18.2-13.8c0,.05,0,0,0,0s-.12.13-.25.22c-.05-.13.16-.12,0-.14s.09-.06.11-.06a.14.14,0,0,0,0-.11c-.05-.07-.09.15-.1,0-.12,0,0,.13-.07.14s.06-.21.2-.27C393.73,158.78,393.75,158.88,393.82,158.91Zm-13.75,14.74c0-.18.24-.25.62-.27.18.07-.64.05-.54.22.77-.09,1.29-.17,1.8-.26a9.35,9.35,0,0,0,1.76-.51c.12.14-.42.24-.61.33,0,0,.09-.08.15-.1A11.41,11.41,0,0,1,380.07,173.65Zm16.58-15.44c-.23-.2-.5-.38-.09-.19a2.27,2.27,0,0,0,.27.24s0,0-.05,0,0,0,0,.05-.22-.2-.42-.24C396.48,158,396.52,158.2,396.65,158.21Zm-31.07,9c-.18,0,.34-.05.38.14C365.84,167.36,365.8,167.28,365.58,167.21Zm-8.21-1.06c-.06,0-.07.06-.06.09s-.13-.1-.22-.05S357.33,166,357.37,166.15Zm36.68-10.45c-.18.2-.37,0-.64.07C393.56,155.59,393.82,155.77,394.05,155.7Zm-5.58,3.24c0-.08,0-.1-.08,0a8.41,8.41,0,0,1,.72-1c0,.18-.57.67-.3.75C388.7,158.77,388.22,159.18,388.47,158.94Z"/><path class="cls-2" d="M415.82,165.66a85.83,85.83,0,0,0-23.11,41.49l26-23.11-13.92,78.64L422,230a55.7,55.7,0,0,1,1.31,26.65,82,82,0,0,0-1.63-93.23"/><path class="cls-2" d="M399.13,197.61l-.67.59-.18.15h0a.15.15,0,0,1,0,.08s0,0,.09-.06l1.73-1.56C401,196,401.05,195.9,399.13,197.61Zm-1,.93c-.15.18-.14.12-.12,0C398.19,198.43,398.12,198.52,398.13,198.54ZM402,195.2c1.46-1.37,2.58-2.35,4.41-3.93-.47.46-.67.74-1.27,1.31C405.8,191.68,402.48,194.9,402,195.2ZM398,198.49c-.12.06,0-.07-.13-.05s0,0-.05.15-.12-.09-.05-.28c0,.06.08,0,.11,0S398,198.42,398,198.49Zm12.56-10.84.22-.22.43-.4,1-.93,2.42-2.16,4.34-3.8c-1.21,1.16-2.6,2.39-4.08,3.69l-2.27,2Zm-10.15,9.13a20.62,20.62,0,0,1,2.79-2.43C402,195.47,401.53,195.79,400.45,196.78Zm.38-.16c.09,0-.13.23-.56.62l-.77.71-.9.79a8,8,0,0,0-.74.67,2.16,2.16,0,0,1,.54-.61l.13-.1.21-.18.42-.38C399.73,197.64,400.29,197.14,400.83,196.62Zm18.55-1.17-.38,2.18c-.22.35.19-1.42.29-2.18Zm-.72,3.64a29.47,29.47,0,0,1-.81,4.37C418.26,201.27,418.34,200.84,418.66,199.09Zm-6.84,38.57c.05-1.22.73-4.76,1.17-7.27C412.68,232.69,412.35,234.42,411.82,237.66Zm-1.18,8.52a1.31,1.31,0,0,1-.23.64c-.07.07-.09,0-.27.45A9.8,9.8,0,0,1,410.64,246.18Zm.45-.89a.71.71,0,0,1-.12.51,1.36,1.36,0,0,0-.21.34,1.35,1.35,0,0,1,.15-.51A1.86,1.86,0,0,0,411.09,245.29Zm-12.71-49.86c.68-2.31,2.06-4.44,3.11-6.91a17.93,17.93,0,0,1-1.25,2.75C399.63,192.58,398.88,194.1,398.38,195.43Zm11.72,50.95c-.1.08-.07-.23,0-.57C410.2,245.81,410.14,246.1,410.1,246.38Zm7-79.46c-1,1-1.38,1.45-2.52,2.61A16.75,16.75,0,0,1,417.08,166.92Zm7.88,1.84c-1-1.29-2.41-3.63-3.47-5.21C422.23,164.32,424,167.26,425,168.76Zm-31.93,33c-.13.15.05-.49-.09-.3.42-1.05.8-2.35,1.35-3.73L395,196c.19-.51.42-1,.63-1.44-.3.87-.57,1.6-1,2.55C394.15,198.32,393.67,199.75,393,201.76Zm7.38-18.06c-.24.44-1.16,2.29-1.79,3.3A20.33,20.33,0,0,1,400.41,183.7Zm3.22,15.88c1-1.13,3.89-3.37,0,0ZM426.84,170c-.22-.22-1.3-2.23-1.52-2.56a4.83,4.83,0,0,1,.68,1C426.23,168.87,426.5,169.41,426.84,170Zm-10.66,19.25c-.07-.1,0-.34.06-.72l-.38.32c.15-.17.32-.35.5-.52A6.7,6.7,0,0,1,416.18,189.21Zm16-8.58c-.26-.56-1.12-2.62-1.68-3.74.57,1.09,1,1.85,1.4,2.72s.74,1.88,1.3,3.4c-.35-.53-.73-1.93-1.38-3.45A7.16,7.16,0,0,0,432.14,180.63Zm-18.26,21.88c.24-2.47.77-5,1.38-8.72C415,196.39,414.52,198.67,413.88,202.51Zm-11.33,64.75a50.73,50.73,0,0,1,.8-5.06c.42-2.27.89-4.72,1.21-6.73-.17,1.44-.44,3-.79,4.9S403,264.59,402.55,267.26Zm1.65-67.71c.84-.89,3-2.71,4.37-4C407.73,196.47,405.55,198.3,404.2,199.55Zm18.21,42a6.69,6.69,0,0,1-.28-1.64c0-.37-.09-.77-.14-1.21l-.05-.44-.06-.36a1,1,0,0,1,.1.26c0,.07,0,.16.07.25s0,.11,0,.22l.05.31A18.5,18.5,0,0,1,422.41,241.53Zm14.14-8.76a17,17,0,0,1-.55,2.35c-.32.95-.65,2-.91,2.75C435.43,236.45,436.12,234.65,436.55,232.77ZM420.92,238c0-.13,0,.1,0,.07C420.89,238.3,420.9,238.4,420.92,238Zm-22.63-39.31a.35.35,0,0,1,.09-.15l1.44-1.29s-.31.33-.51.52c0,.07.14-.07.31-.22l-.45.45-.7.62C398.4,198.64,398.32,198.68,398.29,198.66Zm-.4-1.88c-.09.19-.1.13-.15.22a2.32,2.32,0,0,0-.14.3c-.05.16-.13.39-.26.75,0,0,0,0,.11-.09l.15-.3c0-.08,0-.1,0,0s-.08.23-.18.52a.12.12,0,0,0,.05-.05s0,0,.08-.18.21-.58.3-.83a2.74,2.74,0,0,1-.16.69,1.42,1.42,0,0,0,.2-.68c.27-.51.2-.15,0,.45l-.14.5a1,1,0,0,0,0,.16l0,.18c-.05.15-.18.06-.2,0-.06.31,0,.39-.33.61.08-.24.08-.14.15-.17.11-.27,0-.27.15-.61a4.66,4.66,0,0,0-.63,1.61,3.81,3.81,0,0,0-.12.74v.15l.08-.08.22-.27c.08-.13.1-.09.17-.12a.78.78,0,0,0,.33-.33c0-.2,0-.18-.28.08.07-.18.56-.54.78-.77,0,.15-.2.23-.26.41a.9.9,0,0,0,.31-.45l17.74-15.74c-1.86,1.54.1-.22,1.53-1.54.17,0-.42.48-1,1a25.9,25.9,0,0,0,3.08-2.86c.74-.56,1.48-1.22,2.86-2.44l-.15.84c-1.16,6.32-.88,5,.06-.68L419.79,180c.55-.43,1.34-1.12,2.27-1.95-.41,2.31-.9,5.16-1.27,7.3a17.6,17.6,0,0,1,.61-3.78c-.58,2.12-1.26,5.9-2,10.49-.23,1.41-.49,2.92-.73,4.4s-.5,2.82-.76,4.07c.43-1.75.93-4.93,1.42-7.65a19.14,19.14,0,0,1-.47,2.91,6.47,6.47,0,0,0,.38-1.41l.19-1.08c.09-.51.18-1,.27-1.58.5-2.93,1-5.83,1.41-7.25-2.18,11.85-4.05,22.07-6,32.79a10.9,10.9,0,0,1-.28,1.09c-1,7.27-2.46,13.34-4.21,23.65.21-.23-.24,1.22-.29,2.18-.21,1,.05-.83,0-.72-.06.39-.11.74-.16,1.06l0,.23v.61a3.85,3.85,0,0,1-.26,1.13c.05-.48.2-.88.19-1.14-.29,1.28-.6,3.23-.73,4.14.33-1.28.31-1.8.26-1a2,2,0,0,1-.07.71c-.19.62-.18.51-.32,1l0,.14c.39-.82.75-1.55,1.08-2.23a16.19,16.19,0,0,0,.78-1.87c0,.21-.17.36-.2.59s.15-.18.24-.41.16-.42.24-.44,0-.2-.05-.29c.19-.24.05-.2.2-.49,0,.12-.06.28,0,.41l2.42-4.58,1.55-2.94,1.84-3.6a3.69,3.69,0,0,0-.38.63c-.16.3-.35.65-.5.95l.06-.17.16-.34.45-.89,1.19-2.25c.44-.81.91-1.68,1.36-2.53s.87-1.53,1.25-2.22c-.2.29-.45.69-.75,1.16-.15.25-.3.48-.47.8l-.55,1c-.77,1.44-1.66,3.13-2.57,4.87l-1.57,3c-.49.91-.95,1.75-1.34,2.41-1.66,3.05,2-3.92,2.52-4.92l2.9-5.47c.25-.46.5-1,.75-1.4l.72-1.2,1.45-2.41.72-1.2.18-.3c.06-.08.13-.29.16-.07l.2.74.81,2.94c.25,1,.51,1.92.77,2.88s.51,1.93.72,3l.33,1.56.24,1.47.23,1.43.11.94c.15,1.26.25,2.53.32,3.82a62.3,62.3,0,0,1-.09,7.95c0-1.08.09-3,.07-5.07a48.53,48.53,0,0,0-.36-6c0,.43.11,1.66.18,2.75s.09,2,0,1.89a23.6,23.6,0,0,1,.12,2.66c-.05-.13-.07-.66-.13-.74a33.53,33.53,0,0,1-.12,3.82,13.57,13.57,0,0,0,.12-1.53c.08,1-.35,5.22-.32,3.82-.16,1.51-.4,3.06-.73,4.79l-3.7-1.53c.67-1.08,1.37-2.19,2.08-3.32l1.09-1.72c.34-.59.64-1.21,1-1.83.65-1.23,1.31-2.49,2-3.76s1.15-2.67,1.74-4a41.23,41.23,0,0,0,1.57-4.2c.45-1.43,1-2.83,1.35-4.32s.74-3,1.1-4.44.5-3,.74-4.51c-.14.23-.35,2.19-.5,2.5-.15.7.36-2.37.47-2.85a16.5,16.5,0,0,0-.57,2.61c-.1.62-.21,1.27-.31,1.87s-.27,1.14-.36,1.55c-.19.79-.4,1.63-.61,2.51a23.82,23.82,0,0,1-.74,2.71c1.14-4.93,2.6-10.45,3-17,0,.21.08.81.16-.38,0,.95-.28,3.46-.42,5,.22-1.75.39-3.69.58-5.62s.11-3.85.2-5.56c-.1.18,0,1.92-.12,2.18,0-1.12.11-2.46,0-3.88s-.14-2.92-.21-4.36a17.42,17.42,0,0,0-.2-2.09c-.08-.67-.16-1.32-.24-1.91-.15-1.19-.28-2.19-.4-2.86s-.49-3.87-.71-5.1c0-.26-.09-.54-.16-.83s-.18-.59-.27-.9c-.18-.62-.38-1.26-.56-1.86a9.22,9.22,0,0,1-.56-2.8c.06.33.19.81.36,1.42,0-.55-.47-2.06-.56-2.54.31,1.36-2.1-4.86-1.82-4.74-.58-1.14-.74-1.5-1.28-2.6a4.6,4.6,0,0,1,.57.91,12.29,12.29,0,0,0-1.3-3,16.28,16.28,0,0,0-1.7-3.69,12,12,0,0,0-1.69-3.78c.31.16,1.29,2.21,1.55,2.47a10.63,10.63,0,0,1-.57-1.38,4.51,4.51,0,0,0-.69-1.37,2.89,2.89,0,0,1,.6.93c.21.33.09,0-.12-.42a7.35,7.35,0,0,1-.49-1c-1.12-1.51-1.05-1.56-1.88-2.74,2.72,3,6.56,9.83,8.77,14.92a25.78,25.78,0,0,1,.76,2.53c.26.66.41.83.73,1.7,0-.1-.47-1.49.07-.05-.22-.7-.87-2.71-1-2.84a8.72,8.72,0,0,1,.93,2c.23.58.48,1.23.73,1.89s.4,1.36.58,2l1.35,4.1c.39,1.45.72,3,1.06,4.9.17.47.35,1,.51,1.38-.64-2.68-1.24-6.36-2-8,.42.74-.33-1.42-.61-2.58a43.6,43.6,0,0,1,1.53,5.14c.42,2.13.89,4.34,1.21,5.75-.08-.79-.11-1,0-.82a6,6,0,0,1,.37,1.45,36.78,36.78,0,0,1,.63,4.87,7.86,7.86,0,0,1,.33,2.21,4.29,4.29,0,0,1-.15-1.1c0,1.54.09,3.63.14,5.94,0,1.16,0,2.37-.07,3.6a32.16,32.16,0,0,1-.17,3.68,5.06,5.06,0,0,1,0-1.52c0-.79,0-1.77,0-2.59,0,2.65-.39,5.6-.64,8.76a98.49,98.49,0,0,1-1.84,9.8c-.2.84-.4,1.68-.59,2.52l-.79,2.48-.79,2.48c-.13.41-.25.83-.4,1.24l-.49,1.2c-.65,1.59-1.28,3.17-1.95,4.71s-1.5,3-2.23,4.37c-.23.43-.44.87-.7,1.3l-.78,1.22c-.52.81-1,1.59-1.47,2.33a20,20,0,0,1-1.22,1.7l-5,6.8,2.13-8,.05-.19a60.53,60.53,0,0,0,.88-7.32,52.94,52.94,0,0,0,0-7c0-.4,0-.18,0,0-.06-.67-.13-1.36-.21-2.09,0-.36-.1-.73-.14-1.1s-.08-.49-.11-.75c-.07-.48-.14-.77-.2-1.15s-.15-.74-.24-1.1-.19-.74-.29-1.11c0,0,0-.06,0,0l0,.06-.06.12-.13.23-.25.47c-.33.62-.65,1.21-.92,1.73.39-.78.84-1.68,1.33-2.64l.09-.18.06.18.11.39c.08.26.14.53.22.81q.19.83.36,1.71c.05.35.11.71.17,1.07l.21,1.79c.12,1.2.22,2.41.26,3.6a54.8,54.8,0,0,1-.19,7,39.55,39.55,0,0,0,.25-8.32c0-.77-.13-1.56-.21-2.36l-.15-1.19-.08-.57-.06-.39c-.09-.55-.17-1-.25-1.38s-.18-.85-.29-1.27l-.21-.82c-.08-.21-.13-.77-.28-.3l-.78,1.44-2,3.72-2.89,5.57c-.49.94-1,1.82-1.36,2.6-.57,1.07-1.07,2-1.46,2.66C408.8,258,405.2,264.83,402,271c1.85-10.53,3.51-19.95,5.39-30.67-.1.39-.26,1.29-.45,2.37-.24,1.38-.53,3-.78,4.42,0-.29.11-.81.22-1.49s.22-1.31.35-2.1c.22-1.22.47-2.65.7-3.92.2-1.11.95-5.1.6-2.91-.27,1.69-.45,2.19-.57,3.27.84-4.38,1.53-8.26,1.7-9.82.67-2.64,1.94-10.81,3.13-17.47.77-4.38,1.59-9.06,2.43-13.92q.61-3.51,1.25-7.11c.24-1.29.48-2.59.73-3.89l-.22.18c-.24.24,0,.08-.25.34a2.18,2.18,0,0,1-.43.22c-.25.25-.22.38-.62.67a1.6,1.6,0,0,1,.3-.33c-.49.36-1.28,1.06-2,1.7-1.35,1.19-2.66,2.33-3.48,2.91-.72.94-5.17,4.6-7.67,6.92-.25-.16,1.18-1.17,2.4-2.27-1.51,1.21-2.4,2-3.41,2.9l-2.22,2-3.31,2.88c.84-.67,1.75-1.42,2.82-2.33l1.73-1.5,1.64-1.46q-.31.35-.72.75l-.56.53-.68.63c-1,.86-2,1.79-3.08,2.72-.53.45-1.1,1-1.58,1.35l-1.45,1.18-2.59,2.1c1-.75,2.4-1.79,3.91-3-1.54,1.34-2.88,2.32-4.12,3.24l-.23.17-.12.09-.06,0s0,0,0-.08l.23-.79c.14-.51.29-1,.43-1.54.28-1,.53-2,.76-2.93-.31,1.37-.68,2.9-1.11,4.52l-.08.3c0,.08-.11.29,0,.16l.43-.36.91-.75c.63-.53,1.31-1.12,2-1.78l-2.11,1.68-1.05.85c-.07.08,0-.07,0-.11l.05-.19.11-.39.2-.76c.51-2,1.06-4,1.59-5.81s1.19-3.79,1.88-5.46c.54-1.42,1.18-2.75,1.78-4,.5-1,.17-.67.67-1.72-.26.94.61-1.05,1-1.63,0,.19-.8,1.61-1.12,2.35,0,.35.82-1.79,1.05-2a25.93,25.93,0,0,1-1.26,2.7A38,38,0,0,0,399.5,188c-.08.87,1.81-2.88,2.45-3.8-.12.36-1.12,2-1.55,2.92.27-.38.72-1.22,1-1.58.07.43-1.22,2.45-1.47,3.31.89-1.62,2.15-3.88,3.31-5.74-.2.17-.93,1.6-.9,1.21,1.38-2.21,3.7-5.55,3.9-5.42-.22.34-.07.18,0,0a68.91,68.91,0,0,0-4.63,7.45c.43-.53.77-1.39,1.65-2.84-.66,1.47.24-.33.35-.26-1,1.86-1.34,2.05-1.83,3.15,0,.12.25-.27.21-.3a23.59,23.59,0,0,1-1,2.32c-.43,1-1,2.18-1.54,3.43-.26.63-.53,1.26-.8,1.88s-.48,1.26-.71,1.86-.43,1.18-.6,1.72l-.13.4c0,.13-.08.27-.09.29l-.06.3c.09,0,.52-1.73.91-2.22-.21-.06.38-1,1.15-3A35.44,35.44,0,0,0,397.89,196.78Zm36.09-.05a25.75,25.75,0,0,0-.52-2.87A24.69,24.69,0,0,0,434,196.73Zm4.27,20.09a30.54,30.54,0,0,0-.3,3.73A35.65,35.65,0,0,0,438.25,216.82ZM426,255.47a21,21,0,0,1,1.18-2c.33-.53.72-1.09,1-1.62s.54-1,.69-1.28c-.18.28-.44.73-.74,1.27s-.72,1.13-1.11,1.76c-.78,1.26-1.58,2.59-2.05,3.44A10.48,10.48,0,0,0,426,255.47Zm-17.26-65.61.11.08c.65-.54,1.8-1.67,1-1C409.72,189.2,409.36,189.21,408.72,189.86Zm11.94-10.41c-1.65,1.41-2.35,1.84-5.32,4.57a29.9,29.9,0,0,0,2.44-2C418.58,181.27,419.48,180.44,420.66,179.45Zm-13.41,12a16,16,0,0,0,2.51-2.19A32.53,32.53,0,0,0,407.25,191.47Zm9.88,13.1c-.08,1.21-.65,3.18-.5,3.63C417,206.17,417.31,204.33,417.13,204.57Zm-20.58-4a.75.75,0,0,1,.18-.3,3.43,3.43,0,0,0,.14-.68,2.1,2.1,0,0,1,.25-.68,2.13,2.13,0,0,0-.37.87ZM418,199.11l-.7,4c.11,0,0,.69.25-.37C417.35,202.91,418.22,198.57,418,199.11Zm-2.11,12.37a20.32,20.32,0,0,0,.64-2.91A25.8,25.8,0,0,0,415.92,211.48ZM435,204.26a25,25,0,0,0-.49-3.57c.06.48.21,1.57.32,2.44S435,204.66,435,204.26Zm-5-23c.41,1,1,3,1.3,3.39A26.85,26.85,0,0,0,430,181.21Zm.6.88c.36,1.12-.53-1.39-.49-1,.76,1.84,1.22,3.39,1.82,4.75C431.42,184.61,431.06,183.06,430.57,182.09Zm-16.85,22.6c.17-1.11.61-3.14.59-3.64C414.15,202.16,413.71,204.19,413.72,204.69Zm24.42,6.18c0-.33,0-.8,0-1.14s0-.55.07-.38c-.11-1.86-.32-5.76-.45-4.81a18.88,18.88,0,0,1,.19,2.62C438,208.38,438.12,209.79,438.14,210.87Zm-2.45-19.23c.88,4.24.79,2.72,0,0Zm-13.13,59.87a10.8,10.8,0,0,0-.17,2.13c.1-1,.37-2.46.29-2.5C422.65,251.42,422.61,251.56,422.56,251.51Zm15-53.48c.05.45,0,.24-.08,0,.12,1.14.48,3.19.45,3.74a11.42,11.42,0,0,1-.29-1.85,8.11,8.11,0,0,0,.13,2.09c.07.53.15,1.06.23,1.5a7.17,7.17,0,0,0,.13.9c0-.79-.33-2.43-.24-2.63.21,1.56.1-.26.32,1.07C438,201.2,437.69,198.49,437.55,198ZM409.41,228.7c-.11-.29.56-3.42.55-3.63C410.31,224.2,409.44,227.84,409.41,228.7Zm3.25,14.24a23.38,23.38,0,0,1,1.11-2.32c0,.07.11-.05.26-.3C413.9,240.7,413.31,241.73,412.66,242.94ZM397.45,199c.07,0,0,0,0,.07a1.65,1.65,0,0,1-.09.58c-.23.29.06-.35-.11,0s0-.24.08-.3,0-.08-.09,0,0,.28-.19.32c-.17.41.21-.19.05.19s-.11-.19,0-.63A.36.36,0,0,0,397.45,199Zm12.69,48c-.37,1.07-.45,1.17-.36.73s-.09.56.28-.52a5.47,5.47,0,0,1,.13-1c.08-.35.15-.7.26-1.22.18,0,0,.21,0,.3s-.05,0,0,0a5.57,5.57,0,0,0-.16.83A7.91,7.91,0,0,1,410.14,247Zm-2.37-69.42c-1.69,2.27-3.12,4.27-1,1.14.59-.86,1.12-1.39,2-2.63.07,0-.05.14-.17.32s.12-.1.25-.28c-.61,1-1.83,2.38-2.75,3.85A22.12,22.12,0,0,1,407.77,177.6Zm23.3,58a14.4,14.4,0,0,1-.74,2.4C430.47,237.4,430.67,237,431.07,235.63Zm-2.94-58.35a2.3,2.3,0,0,0-.34-.63c-.43-.9,0-.41-.31-1.1C427.54,175.54,428.39,177.52,428.13,177.28Zm-31.71,16c-.28,1.12-.84,1.67-1.31,3.12A24.26,24.26,0,0,1,396.42,193.24Zm11.65,2.43c-.33.32-.2.3.08.05l-4.72,4.16c.39-.54,3.36-2.89,2.89-2.81C407,196.5,409.43,194.58,408.07,195.67Z"/><path class="cls-2" d="M1573.66,189.83c4.2,8.38,8.44,16.85,10.62,26s2.17,19.16-1.93,27.52-12.84,14.56-21.91,13.71c-5.86-.55-11.24-3.88-15.46-8.15s-7.43-9.47-10.61-14.61l-9.91,27a333.76,333.76,0,0,1-.72-61.45l34.66,18.61a3.08,3.08,0,0,0,2.42.52,3.15,3.15,0,0,0,1.49-1.95l11.58-28.51"/><path class="cls-2" d="M1585.36,239.68c.16-.45.35-1.07.5-1.68a12.31,12.31,0,0,0,.35-1.57A25,25,0,1,0,1585.36,239.68Zm1.75-12.55c0-.3-.06-1.26-.12-2.31A15.13,15.13,0,0,1,1587.11,227.13Zm-3,15.7a24.4,24.4,0,0,1-2.65,4.74c.35-.5.46-.79.85-1.44-.24.46.23-.19.69-1.09S1584,243.07,1584.12,242.83Zm2.77-19.33c-.05-.07-.13-1.22-.2-1.29,0,.1.11.55.13,1.32-.07-.56-.16-1.18-.31-2.27.07.35.08.26,0-.36A13.13,13.13,0,0,1,1586.89,223.5Zm-8.77,27.95a20.13,20.13,0,0,1-2,1.8,22.92,22.92,0,0,1-2.24,1.61A33.64,33.64,0,0,0,1578.12,251.45Zm6.66-10.49a16.72,16.72,0,0,1-.67,1.74,6.1,6.1,0,0,1-.68,1.35A32.73,32.73,0,0,0,1584.78,241Zm-.19.31c0,.06.05-.23.23-.72s.41-1.22.64-2a37.39,37.39,0,0,0,1.06-5A32.4,32.4,0,0,1,1584.59,241.27Zm-22.76,17.17c-.69-.05-1.39,0-2.08-.14-.17-.06.17,0,.63,0l1.43.07Zm-3.45-.4a14.81,14.81,0,0,1-2.19-.51,8.45,8.45,0,0,1-1.75-.66A21.07,21.07,0,0,0,1558.38,258Zm-23.72-20.84v0s.12.11.22.27l1.8,2.83c-.57-.83-1-1.57-1.57-2.39l-.33-.51-.12-.18Zm-11.31,25.71a9.71,9.71,0,0,1,.17,1.23c0,.34.08.74.12,1.17q0,.33.06.69c0,.12,0,.24,0,.37v.28l0-.08c.69-1.8,1.55-4,2.3-6.14C1526.17,259.79,1523,271,1523.35,262.91Zm-1-10.38c.1.49.18,1.39.26,2.32s.13,1.6.19,2.34.14,1.49.19,2.05c-.07-.26-.24-1.8-.39-3.65C1522.56,254.53,1522.46,253.33,1522.39,252.53Zm63.37-34.4c-.51-2.12-.91-4.37-1.69-6.67A45.76,45.76,0,0,1,1585.76,218.13ZM1530.62,248c.22-.74.67-2,1.17-3.34C1531.63,245.22,1531.1,246.64,1530.62,248Zm43.84-58.54,1.43,2.91C1575.72,192.06,1574.33,189.34,1574.46,189.43Zm-2.75,4.15c.48-1.35,1.44-3.54,2.06-5.09C1573.51,189.39,1572.31,192.12,1571.71,193.58ZM1585,224c0,.06-.08-.37-.11-.28a40.93,40.93,0,0,0-.55-5.14A35,35,0,0,1,1585,224Zm-3.55-15.18a31.42,31.42,0,0,1,1,3C1582.22,211.18,1581.82,209.85,1581.49,208.85Zm1.16,31.79a13.92,13.92,0,0,1-.81,2C1581.64,242.94,1581.82,242.67,1582.65,240.64Zm-11.1-45.24c0-.26.82-2.09,1-2.4C1572.39,193.48,1571.94,194.35,1571.55,195.4Zm-2.28,59.44c.69-.34,1.34-.62,2.49-1.26a11.45,11.45,0,0,1-1.19.68A9,9,0,0,1,1569.27,254.84ZM1567.72,205c.16-.51.92-2.28,1.31-3.29-.73,2-1,2.8-2.09,5.39.14-.53.67-1.65,1.17-3A9,9,0,0,0,1567.72,205Zm-12.35,50.07a19.69,19.69,0,0,0,7.26,1.2A16.66,16.66,0,0,1,1555.37,255.05Zm-28.67-1.91c.44-1.52,1.6-4.38,2.41-6.68C1528.53,248.26,1527.82,250,1526.7,253.14Zm55.65-12.21a23.43,23.43,0,0,1-2.24,4.45A31.56,31.56,0,0,0,1582.35,240.93Zm-58.8-16.1c.1.64,0,2.09,0,3.85A37.38,37.38,0,0,1,1523.55,224.83Zm10.2-18.26c-.78-.36-2.75-1.47-4-2.11C1530.87,205,1532.31,205.78,1533.75,206.57Zm-9.57,29.67c0-.91,0-.85,0-1.62A5.84,5.84,0,0,1,1524.18,236.24Zm61.94.2a27.86,27.86,0,0,1-1.06,3.88,6.24,6.24,0,0,1,.18-.64c0-.05-.06.13-.12.32C1585.21,239.65,1585.88,237.51,1586.12,236.44Zm-.11-17a5.41,5.41,0,0,0,.17,1.33c.06,0-.16-1.44.1.29,0-.12-.1-.83-.17-1.32a4.61,4.61,0,0,1,.14.63,2.81,2.81,0,0,0-.12-.64c-.1-1,.34,1.29.44,2.22s-.06.13-.08.05a6.26,6.26,0,0,1,.13,2c-.07-.84,0-.41,0-.35-.07-1.05-.14-1.14-.26-2.29.05.87.26,2.9.33,4.87s0,3.84,0,4.37c0,.12-.19,1.59-.22,2.31a11.85,11.85,0,0,0,.29-2.34,32.67,32.67,0,0,1-.49,4.29s.16-1.08.09-1a4.76,4.76,0,0,0-.14,1.3,33.35,33.35,0,0,1-3.52,10,27.46,27.46,0,0,1-7.33,8.41c1-.77,0,.1-.77.63-.13.05.18-.18.52-.42a11.28,11.28,0,0,0-1,.68c-.34.27-.66.46-.66.49-.56.28-1,.61-2.11,1.13a10.74,10.74,0,0,1-1.84.79l1.26-.53a23.63,23.63,0,0,0,2.32-1.27,24.62,24.62,0,0,1-4.95,2.23c.42-.22,1-.39,1.9-.73a29.37,29.37,0,0,1-5.37,1.39,18.81,18.81,0,0,1-7.69-.5,17.39,17.39,0,0,0,3.19.63c.63.05,1.3.07,2,.09s1.33,0,2-.11a5.39,5.39,0,0,1-1.09.11,14.76,14.76,0,0,1-1.64,0,5.4,5.4,0,0,0,1.35.06,14.35,14.35,0,0,0,2.15-.19c1.54-.21,3-.69,3.64-.8a20.09,20.09,0,0,1-13.79-.4,30.83,30.83,0,0,1-10.7-7.37,7,7,0,0,1-.67-.76,48,48,0,0,1-5-6.27c-.77-1.12-1.54-2.3-2.33-3.56l-1-1.65-.36-.6c-.21.6-.45,1.24-.7,1.92.16-.18-.39,1-.62,1.82s.21-.69.13-.61c-.93,2.62-1,3-2.19,6.07.54-1.52.92-2.45,1.22-3.33-1.3,3.52-3.18,8.64-4.35,11.83.87-2.22,2-5.4.72-1.82-.16.45-.33.91-.51,1.45s-.44,1.21-.73,2,.09-.38-.29.52l-1.88,5.19-.88,2.41c-.15.4-.29.79-.44,1.17l-.21.59c0,.08,0,0,0,0v-.15l0-.3c-.34-3.2-.66-6.18-1-9.16.05.1.24,2.49.3,2.74,0-.83-.16-2-.27-3.18,0-.44-.09-.88-.13-1.27s0-.56,0-.75c0-.44-.07-.25-.11-.29-.08-1.41-.08-.78-.19-2.25.06.27.13,1.17.18,1.25-.28-3.39-.47-7.43-.7-11.32,0,.06,0,.6,0,1-.1-.75-.11-3.18-.21-4.85-.05,1.72.28,7.06.38,9.75.15,3-.27-3.85-.3-4.84-.34-8-.35-16.16-.11-25.34,0,1.83-.12,6.46-.09,9.38.08-.72,0-4.17.11-3.92,0-1-.06-.9,0-2.25,0,.1,0,.56.06.62,0-1.36,0-1.74.06-3.24,0,.11,0,.82,0,1.31a23.25,23.25,0,0,1,.11-3.25c.07-2.34.19-4.85.35-7.48q.13-2,.27-4,.22-2.78.45-5.63l9.8,5.32,8.75,4.68c-.17-.15-1.75-.94-2-1.11-.55-.32,1.9,1,2.28,1.21-.42-.33-3.51-1.95-4.83-2.65l-4.27-2.29c4.06,2.06,8.54,4.51,13.68,7.27-.18-.08-.68-.27.27.22-.77-.36-2.75-1.46-4-2.11l8.83,4.79c-.12-.12-1.52-.81-1.71-1l6.5,3.52c1.12.59,2.27,1.24,3.13,1.67a2,2,0,0,0,1,.25.63.63,0,0,0,.42-.21,5,5,0,0,0,.86-1.48c.4-.84.82-1.73,1-2.24.74-1.73,1.8-4.71,2.3-5.39-.13.27-.3.68-.51,1.2.23-.42.75-1.72,1-2.09a31.48,31.48,0,0,1,1.67-4.2c.38-1.06.53-1.38.92-2.4a8.21,8.21,0,0,1-.29.9,18.46,18.46,0,0,0,1.13-2.69c.55-1.28.63-1.15,1.45-3.29a23.18,23.18,0,0,0,1.57-3.29c0,.26-.85,2.08-.93,2.4.64-1.43.51-.9,1.14-2.4a4.69,4.69,0,0,1-.37.9c-.22.65.53-1.1.63-1.19.56-1.53.61-1.53,1.06-2.7-1.14,3.34-3.64,9.62-5.41,14.09-.33.76-.72,1.7-.94,2.09-.22.58-.25.76-.55,1.51,0-.07.54-1.25,0,0,.26-.59,1-2.26,1-2.4.06.11-1.12,3-2,5.1-.89,2.3-1.64,4.47-3,7.51a4,4,0,0,1-.76,1.29,5,5,0,0,0,1.12-1.87l.73-1.83c.47-1.19.9-2.29,1.14-3-.17.69.51-1.16.92-2.1-.31.9-1,2.57-1.69,4.3l-1,2.56a4.56,4.56,0,0,1-1.5,2.24,3.54,3.54,0,0,0,.69-.59c.1-.11.11-.1.06,0a2,2,0,0,1-.41.49,2.37,2.37,0,0,1-1.1.57,4,4,0,0,1-2.68-.59c-.68-.36-1.31-.72-1.77-1a16.91,16.91,0,0,1-1.72-.82,6.18,6.18,0,0,1,.86.41c-2.28-1.34-6.29-3.45-10-5.42a34.3,34.3,0,0,1,3.14,1.61c-3.41-1.87-7.58-4.08-12-6.4l-12.1-6.39c-.09,1.24-.17,2.4-.25,3.51-.11,1.68-.26,3.38-.32,4.84,0,1-.12,1.28-.18,2-.21,5.33-.29,8.05-.35,12.91,0,.36,0,.17,0,0,0,4.79.07,11.67.27,16.13-.33-6.3-.45-16.22-.15-24.18-.28,4.23-.27,10.3-.17,16.15.06,3.76.18,7.49.35,11,.17,3.64.54,7.73.63,9.66.1,1.13.19,2.21.29,3.26,0,.4.08.79.11,1.18l.06.56.2-.54,2-5.42c1.84-5,3.61-9.86,5.58-15.26-.27.64-1.11,3-1.8,4.86.11-.34.4-1.18.77-2.19s.86-2.34,1.27-3.47l1.35-3.6c.52.86.74,1.22,0,.1l0-.05c-.74,2.06-1,2.68-1.47,4,.52-1.37,1-2.7,1.48-4l2.6,4.19c.54.84,1,1.5,1.27,1.92a58.45,58.45,0,0,0,3.63,5.24,42.17,42.17,0,0,0,6.13,6.49,24.58,24.58,0,0,0,10.83,5.47,18.91,18.91,0,0,0,12.64-2.09c.43-.23-.26.11.24-.18.77-.41.32-.18,1.13-.6.41-.26.17-.19,1-.74a5.1,5.1,0,0,1-.5.38,22.66,22.66,0,0,0,3.39-2.71c.56-.54,1.07-1.1,1.52-1.59l1.1-1.27c.12-.22.4-.63.77-1.15s.79-1.21,1.2-2a25.89,25.89,0,0,0,2.07-4.69,9.54,9.54,0,0,1-1,2.65,24.13,24.13,0,0,0,1.4-3.58,37.52,37.52,0,0,0,1.07-4.64,44.38,44.38,0,0,1-1.33,5.27c.29-1,.68-2.59,1-4.25a41.43,41.43,0,0,0,.64-4.8c-.12,1-.27,2.25-.49,3.51a39.67,39.67,0,0,0,.58-7.35,44.59,44.59,0,0,1-.27,6.37,40.9,40.9,0,0,0,.33-8,59.2,59.2,0,0,0-1-7.72c-.21-1-.17-.57-.4-1.54.26.79-.18-1-.32-1.62.09.13.38,1.51.55,2.19.15.24-.4-1.66-.42-1.91a22.49,22.49,0,0,1,.6,2.51,10.76,10.76,0,0,0-.29-1.65,25.64,25.64,0,0,0-.76-2.79c.38.63-.73-2.88-1.08-3.79.17.28.69,1.91,1,2.74-.08-.41-.36-1.2-.45-1.58a27.64,27.64,0,0,1,1.08,3c-.42-1.59-1.14-3.77-1.81-5.59,0,.22.56,1.54.38,1.28-.35-1.1-.86-2.49-1.28-3.6a15,15,0,0,1-.7-2c.15.34.09.15,0,0,1,2.34,1.79,4.61,2.77,7.3-.12-.6-.46-1.35-1-2.77.57,1.31-.1-.34-.05-.36.69,1.74.7,2.07,1.08,3.07.06.06-.06-.32-.09-.32a41.6,41.6,0,0,1,1.75,5.39c.63,2.35,1.09,4.93,1.35,6.54,0-.68-.33-2-.36-2.62-.12,0-.14-1-.64-2.86C1585.44,216.76,1585.78,218.56,1586,219.41Zm-24.82-2a19.67,19.67,0,0,0,1-2.3C1561.86,215.92,1561.46,216.83,1561.19,217.43Zm-15.13-4.78c-1.28-.67-2.23-1.26-2.85-1.5C1544.22,211.71,1546.17,212.76,1546.06,212.65ZM1524,209.38c-.06.08.2-3.72.29-4.84-.15,1.13-.37,4.8-.4,6.45A15.49,15.49,0,0,0,1524,209.38Zm55.81,40-.07,0c-.48.61-1.5,1.67-.85,1C1579,250.14,1579.26,250.05,1579.76,249.38Zm-7.28,6,1.38-.76a21.61,21.61,0,0,0,1.76-1.26C1574.51,254.06,1574,254.54,1572.48,255.37Zm8.4-7.62c0-.07-2.26,2.73-1.92,2.34A18.18,18.18,0,0,0,1580.88,247.75Zm-27.37,8.44c-1.06-.36-2.6-1.39-3-1.49A11.68,11.68,0,0,0,1553.51,256.19Zm33.15-28.88c0-.26,0-.39,0-.35,0-1.49-.18-2.78-.23-4,0,.09.07,1.11.11,2.14S1586.66,227.22,1586.66,227.31Zm-28.34,30.41a23.14,23.14,0,0,1-3.57-1s-.6-.15.32.21c-.07-.08.84.25,1.73.49A7.88,7.88,0,0,0,1558.32,257.72Zm-10.27-4.78a17.52,17.52,0,0,0,2.19,1.58C1550.3,254.48,1548.48,253.36,1548.05,252.94Zm8.49-36.45c1.28.64,2.55,1.45,2.81,1.46C1558.67,217.63,1555.91,216.1,1556.54,216.49Zm10.23-12.14c-.35.91-1.07,2.58-1.19,3C1566.18,205.83,1566.51,205.23,1566.77,204.35Zm-.22.9c-.42,1,.48-1.22.29-.9-.63,1.66-1.21,3-1.67,4.2C1565.62,207.42,1566.24,206.16,1566.55,205.25Zm-12.91,49.17a17.24,17.24,0,0,0,2.91,1.13C1555.64,255.29,1554,254.57,1553.64,254.42Zm-3-39.47c.5.28,1.43.74,1.13.66a34.29,34.29,0,0,0,3.72,1.88C1554.92,217.28,1552.32,215.75,1550.64,215Zm13.33-.68c-1.4,3.47-.81,2.3,0,0Zm-40.38,1.58c0-.86.08-1.91,0-1.92,0,.9-.12,2.22-.08,2.25C1523.55,215.93,1523.57,215.8,1523.59,215.85Zm37.53,3.87c-.57.17-.3.08,0,0a2.39,2.39,0,0,1-1.2.12,4.08,4.08,0,0,1-1.12-.32,10.51,10.51,0,0,1-1.31-.7c1,.51.32.15,1.52.74-.13-.09-3.08-1.71-3.51-1.85.59.33,1.88,1,2,1.09-1.2-.63.15.16-.87-.37.66.35,1.4.81,2.27,1.2a3.66,3.66,0,0,0,1.35.3A2,2,0,0,0,1561.12,219.72ZM1538.79,240c.18.16,1.72,2.47,1.85,2.59A31.15,31.15,0,0,1,1538.79,240Zm-16.51,8.95c-.11-.37-.08-1.33-.19-2.25,0,0,0-.09,0-.34C1522.17,246.67,1522.21,247.7,1522.28,248.91Zm64.5-24.33a1,1,0,0,1,0,.33c.07.86.11,2,.1,3.3-.06-.11,0-1.88-.05-1,0,0,0-1.12,0-1.32a3.55,3.55,0,0,0-.07-.64s.11,1.52,0,.67c0,1.08.08.23.07,1.31-.07-.19-.09-1.56-.18-2.94C1586.72,224.74,1586.77,225.06,1586.78,224.58ZM1528,255.25a10.06,10.06,0,0,1,.77-2.43c.28-.64-.89,2.44-.68,2.13,2.1-5.88,2.83-7.75,4.9-13.36.15-.18-.59,1.67-.85,2.43,0,0,.12-.39.2-.61C1531.43,246,1529.52,251.17,1528,255.25Zm51.83-54.34c1,2.33,1.77,4.39.48,1.24-.37-.85-.6-1.48-1.16-2.7,0-.07.06.1.15.28s0-.13-.12-.31c.5,1,1.08,2.46,1.69,3.88C1580.61,202.79,1580.31,201.86,1579.86,200.91Zm-48.35,1.92a17.73,17.73,0,0,1-2-1C1530,202,1530.38,202.25,1531.51,202.83Zm36.67-2.08a4.11,4.11,0,0,0,.22-.6c.32-.82.2-.27.45-.89A8.77,8.77,0,0,1,1568.18,200.75Zm16.06,16.53a26.36,26.36,0,0,1,.49,2.87C1584.54,219.3,1584.48,218.36,1584.24,217.28Zm-3.83,27.86c.2-.33.12-.28,0,0a26.63,26.63,0,0,0,2.34-4.78c-.07.57-1.53,3.44-1.3,3.17C1581.11,244.19,1579.59,246.36,1580.41,245.14Z"/><path class="cls-2" d="M1558.89,160.78a13.52,13.52,0,0,0-8.9,12.49,14.9,14.9,0,0,0,8.29,13.12,16.68,16.68,0,0,0,15.68-.84c3.3-2,6-5.41,6.07-9.27a12.38,12.38,0,0,0-2.93-7.49c-4.26-5.52-12-8.82-18.45-6.14"/><path class="cls-2" d="M1555.74,173.3c0-.16.07-.42-.08-.56C1555.52,173.2,1555.76,174.09,1555.74,173.3Zm.19-2.16c-.17-.11-.12-.29,0-.46C1556.13,170.77,1555.94,171,1555.93,171.14Zm-.33,2.73a2.12,2.12,0,0,1,.17.93c-.1-.09-.26-.11-.33-.24C1555.84,174.68,1555.37,174,1555.6,173.87Zm.37-3.43c-.17-.08,0-.25-.15-.33s.06.14-.1.23a.53.53,0,0,1-.07-.52c.07.11.15.13.19,0C1556.15,170,1556,170.22,1556,170.44Zm-.21,5.32c.25.15.37.69.4.94C1555.78,176.55,1555.94,176.05,1555.76,175.76Zm-.53-2.22c.11.06.27.61,0,.62C1555.08,173.89,1555.28,173.78,1555.23,173.54Zm-.26.07c-.44.06-.1-1-.13-1.51C1555.22,172.64,1554.72,173.09,1555,173.61Zm2.27,5.28.26.3c-.2.26-.26-.12-.39-.19Zm.32.62c.15,0,.72.4.52.63A5.88,5.88,0,0,1,1557.56,179.51Zm6.14,3.27a.78.78,0,0,1-.63.13c-.26,0-.54-.13-.77-.18A6.23,6.23,0,0,1,1563.7,182.78Zm6.61-1c.12.51-.72.25-1.14.6C1569.12,182.23,1570,182,1570.31,181.8Zm1.25-.74c.11.55-.6.5-.79.7C1570.66,181.38,1571.38,181.33,1571.56,181.06Zm-16.47-12.29c-.07-.32.13-.51.34-.68a1.1,1.1,0,0,0,.47-.64C1556.14,167.83,1555.33,168.22,1555.09,168.77Zm11.7,14.35c-.15.21-.45.25-.78.28C1566.13,183.17,1566.48,183.17,1566.79,183.12Zm-6.78-19c-.29,0-.35.19-.69.19C1559.34,164.22,1559.94,163.85,1560,164.15Zm.4-1.58c-.36.32-1.09.37-1.56.55C1559,162.68,1559.94,162.65,1560.41,162.57Zm-11.47,5.14c-.15,0-.13-.2-.29-.23.48-.32.85-1,1.34-1.46C1550,166.63,1549.44,166.85,1548.94,167.71Zm2.61-5.2a2.67,2.67,0,0,1-.77,1C1550.75,163.06,1551.2,162.73,1551.55,162.51Zm-4.73,11.4c.39.48,0,1.76,0,0Zm13.66-13.53c0,.2-.74.29-.89.23C1559.7,160.33,1560.13,160.6,1560.48,160.38Zm-11.59,21.16c-.37-.15-.35-.48-.6-.94A1.72,1.72,0,0,1,1548.89,181.54Zm15.23-21.7c-.2.18-.88,0-1.26.11a3.68,3.68,0,0,1,2.08-.34c-.22.28-.65,0-1.17.13C1563.79,159.84,1564,159.82,1564.12,159.84ZM1552.35,186c-.86-.29-1.33-1-2.18-2A16.23,16.23,0,0,1,1552.35,186Zm17.65,4.28c-.47.56-1.68.39-2.55.59C1568.11,190.44,1568.83,190.61,1570,190.23Zm-23.87-16.14c.21.42.16,1.43.34,2.06A5.83,5.83,0,0,1,1546.13,174.09Zm36.87,5.63c.33.39-.14.92-.4,1.63A2.71,2.71,0,0,1,1583,179.72ZM1580,165c.38.13.85.91,1.21,1.32A4.22,4.22,0,0,1,1580,165Zm2.45,20.14c.18-.38.33-.24.49-.57C1583.05,184.8,1582.7,185.42,1582.46,185.15Zm-27.15-12.44c.18.25,0,.4.09.71-.09,0-.08-.08-.1-.12s-.08,0-.08.06C1555.07,173.29,1555.17,172.89,1555.31,172.71Zm-.28-3.64c-.11,0-.21-.16-.28.19.22.11.35-.18.21.17.12,0,.13-.13.19-.22.06.06.12.12.1.2s.06-.11,0-.16c.36-.06.29.45.29.66s-.28-.1-.32-.14c0,.27,0,.42-.4.3,0-.18.09-.06.19,0,.11-.19-.06-.29.1-.49-.31.06-.52.47-.63.89a1.48,1.48,0,0,0,0,1c.15.05-.35.27-.09.47.23,0,.34-.16.34-.42.2-.05-.07.62,0,.86-.16,0,0-.22-.24-.23-.1.21.11.22.23.29a10.06,10.06,0,0,0,.54,4.24c.06-.3.19-.06.33.09-.12.08-.17,0-.22-.06-.17.19.18.37.34.3-.12.19,0,.28.06.51.27.71.25.4-.35-.29-.07.29.32.7.48,1-.33.09-.34-.08-.3-.32-.27.36-.06.8.32,1.21a7.43,7.43,0,0,1,1.07,1.33c-.07-.43-.57-.84-.89-1.3.32-.06.22.21.44.41.36-.51-.91-.94-.45-1.52a9.55,9.55,0,0,0,3.69,4.24c.16,0,0,.2.11.25a7.76,7.76,0,0,1,2,.68,6.23,6.23,0,0,0,2.6.6c0-.33.25.06.46-.18.2.09-.18.2-.16.35.68-.07.73-.48,1.54-.17-.38.11-.63-.05-.84.07a7.72,7.72,0,0,0,3-.41c-.6-.06-1.34.29-.49-.05a3,3,0,0,1,.78-.32c.18.14,0,.19.18.32a5.16,5.16,0,0,0,2.29-1.53c.08.17-.26.2-.23.34.33.17.47-.47.75-.34.06-.08-.07-.22-.13-.34.31-.08.09-.17.35-.35,0,.17-.13.27,0,.45a5.16,5.16,0,0,0,1.83-1.63c-.08-.06-.13.05-.19.1-.14-.34.54-.41.55-.83-.44.06-.92,1.1-1.58,1.22-.55.32.53-.6.64-.75,1.12-1.07,2.25-2.25,2.11-3.55.41.27,0,.94,0,1.42.17,0,.2-.18.24-.33s0-.27.25-.21c0-.17-.26-.19-.13-.39.11,0,.12.11.25.14-.08-.24,0-.29,0-.53-.12,0-.08.13-.1.2-.14-.14-.14-.69.08-.52a10.23,10.23,0,0,0-.72-3.27,8.76,8.76,0,0,0-2.82-3.66c-.1.19.39.32.31.5.08.15-.45-.3-.49-.42-.08.19.06.4.27.59s.42.4.55.53a6.24,6.24,0,0,1,.81.87c-1-.59-1.76-1.57-2.91-2.43.08,0,.34-.15.09-.26.28,0,.65.43,1,.61a7.81,7.81,0,0,0-.94-.86c-.36-.25-.69-.53-1-.78-.06.18.38.21.33.4a10.37,10.37,0,0,0-3-1.59c-.21.17-.62-.83-.89-1a3.52,3.52,0,0,0-.83-.13.54.54,0,0,1-.56-.55.41.41,0,0,0,.32.12c-.09-.23-.45-.25-.53-.5.26.36-1.24.47-1.18,0a2.23,2.23,0,0,1-.65.21.43.43,0,0,1,.23-.28c-.12-.21-.63-.51-.76-.12-.37,0-.41-.54-1-.29-.19-.51-.63-.6-1.17-.6,0-.23.64-.14.68-.36-.48-.09-.4-.44-.91-.4,0-.11.26-.18.29-.07.17-.19-.44-.21-.54-.4-.44.35-.49.2-.85.4a4.37,4.37,0,0,1,2-1.38,10.83,10.83,0,0,1,1.38-.38c.46-.07.92-.15,1.33-.19.28.11.63.17.77.38.2,0,.28-.18.55-.15,0-.12-.45-.18,0-.17-.21-.09-.84-.3-.89-.22,0-.39,1.18-.37,2-.18a5.16,5.16,0,0,1,2.87.3,6,6,0,0,0,.57-.28c-.43-.08-.92-.22-1.38-.32a2.54,2.54,0,0,0-1.2,0c.33-.33-.41-.26-.77-.4a3,3,0,0,1,1.71.14,8.19,8.19,0,0,0,1.81.45c-.89-.58,1.33-.64,1.86.17.06-.11.4-.11.8,0a.34.34,0,0,1-.4,0,30.14,30.14,0,0,0,3.47,2.42c-.25.24-.78-.24-1.23-.5,2.63,2,6.77,4.95,8.37,9.2.25.65.31,1.37.48,2,.09.41-.11.58-.15.88a9,9,0,0,1,.17,2.82,12.17,12.17,0,0,1-.55,2.62c0,.15.06.09.08,0a9.89,9.89,0,0,1-1.35,3.08,17.75,17.75,0,0,1-1.93,2.47,18.87,18.87,0,0,0,2.41-3.82,12.62,12.62,0,0,0,1.21-5.14c-.26.9-.41,1.95-.7,3a12.29,12.29,0,0,1-1.3,3.22,15.59,15.59,0,0,1-2.7,3.2c-1,.93-2.1,2-2.87,2.18a17.92,17.92,0,0,1-5.81,2.43,23.54,23.54,0,0,1-5.89.53,6,6,0,0,0,1.9.1,4.86,4.86,0,0,1-2.14.06c-.37,0-1.66-.31-.94-.27.55,0,.71.19,1.06.1a18.24,18.24,0,0,0-3.18-.47,9.93,9.93,0,0,0-2.22-.9,14.15,14.15,0,0,1-3-1.5,16.65,16.65,0,0,1-6.32-7.25c-.11-.15-.08.17-.21,0a1.82,1.82,0,0,1,0-.56c-.11-.15-.29,0-.35-.37.08,0,.12.11.18.19-.16-.9-.88-2.36-.59-3.1-.53-.28-.42-2.22-.52-3.33.56,0,.19.53.23,1.08.36-1.26,0-1.56.42-3.22a3.65,3.65,0,0,0-.48,2c-.53-.84.09-2.52.46-3.46a4.74,4.74,0,0,0-.75,1.23c0-1,1.16-1.59,1.29-2.57,0,.79-.66,1.34-.55,2.3.84-1.79,1.56-3.72,3-4.83.23-.25-.1-.3.14-.55.07.38.44-.14.66-.23.1.13-.36.39-.48.59.25.26.36-.45.57-.4.1.29-.38.51-.53.67.21.1,1.1-.4,1.25-.94.39.57,1-.36,1.31-.51.09.21-.38.48-.49.74.16,0,.33-.21.51-.22.31.39-.29.68-.23,1,.43-.26.85-.74,1.3-1.05-.17-.09-.31.33-.5,0,.64-.31,1.46-.88,1.75-.51-.06.08,0,.1.06.07-.42.5-1.23.6-1.55,1.35.33.07.25-.28.57-.53,0,.5.12,0,.32.18-.23.44-.54.27-.61.57.1.12.19.06.12,0a2.76,2.76,0,0,1-.4,1.46,5.31,5.31,0,0,0-.33.83,1.71,1.71,0,0,0-.1.75c.23-.05.05-.5.41-.47-.38-.21.12-.2.18-.69C1555,168.37,1554.78,168.71,1555,169.07Zm12.24-3.25c-.22-.06-.33-.54-.58-.35C1566.92,165.53,1567,166,1567.27,165.82Zm7.71-3c.46.27.59.74,1,.63C1575.67,163.19,1575,162.7,1575,162.86Zm8,10.22c-.14.06-.43-1.47-.57-1.9a7.71,7.71,0,0,0,.65,2.57C1583,173.55,1583.2,173.13,1582.94,173.08Zm-28.08,2.4-.26.07c0,.17.23.42.25.22C1554.58,175.79,1555,175.61,1554.86,175.48Zm.38,2c0-.28.2-.49-.09-.82C1554.89,177,1555.26,177,1555.24,177.44Zm-.91-2.26c-.28,0-.09.81.08.65S1554.45,175.27,1554.33,175.18Zm3.2,5.88c.36,0,.39.55.74.26C1558,181,1557.67,180.83,1557.53,181.06Zm-3.37-10.44c0-.05.09-.07.19,0,.14-.3,0-.68.28-.83C1554.3,169.67,1554.19,170.59,1554.16,170.62Zm2.49,9.72a8.21,8.21,0,0,0,.6.58c.16-.15.29-.1.18-.3C1557.18,180.94,1556.71,180.13,1556.65,180.34Zm2,1.58c.12-.37-.25-.33-.33-.55C1558.1,181.64,1558.65,181.7,1558.65,181.92Zm10.19-15.42c-.38-.05-.58-.52-.79-.23C1568.27,166.3,1568.93,166.73,1568.84,166.5Zm-5-2.19c.26-.05.71.12.84-.06C1564.3,164.29,1564.13,164,1563.88,164.31Zm.27-.52c.27.13-.36,0-.26.25.47-.12.83.09,1.2,0C1564.77,164,1564.42,163.57,1564.15,163.79Zm-11,22.32c-.31-.2-.68-.78-.94-.75C1552.54,185.57,1552.92,186.16,1553.18,186.11Zm20-23.79c-.16-.12-.54-.2-.31-.38-.49-.29-1.58-.8-1.47-.35.16-.11.44.06.75.26A2,2,0,0,0,1573.15,162.32Zm-5.52-2c1.28.33,1-.23,0,0Zm15.4,15.52c0-.36,0-.8-.24-.79.13.37-.07.93.07.94S1582.92,175.8,1583,175.81Zm-13.07-16c.13.06,0,.11-.06.16.32.18,1,.26,1.08.51-.39-.11-.23.16-.59-.13-.06.18.2.37.5.49a1.13,1.13,0,0,0,.76.14c-.2-.15-.73-.23-.71-.42.46.17,0-.29.46-.18C1570.94,160.07,1570.15,159.69,1570,159.78ZM1560,190c-.17.3-1.11-.23-1.2-.17C1558.66,189.37,1559.67,190.2,1560,190Zm12.52-8.9c-.14-.32.23-.18.26-.45.06.08.12.1.17.08C1573,180.89,1572.76,181,1572.53,181.11Zm-17.36-10.76c.09,0,0,.08,0,.06a1.91,1.91,0,0,1-.11.67c-.24-.09.06-.38-.12-.24-.21-.07,0-.23.08-.26a.27.27,0,0,0-.13-.19c-.16,0,0,.35-.21.08-.18.18.25.13.09.32-.28-.13-.17-.41-.06-.69C1554.87,170.28,1555,170.4,1555.17,170.35Zm13.26,12.12c.1.34-.08.54-.44.58-.19-.11.57-.15.4-.48a6.59,6.59,0,0,1-3.14.44c0-.34.39-.13.56-.21,0,.06-.08.1-.13.09A9.25,9.25,0,0,0,1568.43,182.47Zm-11.16-17.35c-.54.27-1.1.46-.4,0,.18-.14.42-.09.66-.3,0,.05,0,.08,0,.11s.07,0,.11,0c-.07.33-.59.26-.82.56C1556.74,165.23,1557.15,165.35,1557.27,165.12Zm16.55,6.41c-.26-.09.56.07.41.38C1574,171.87,1574.08,171.73,1573.82,171.53Zm-10.91-7c-.09,0-.14,0-.15.1-.21,0-.11-.33-.28-.33C1562.47,164.16,1563,164.25,1562.91,164.52Zm-12.24,1.34c.1.45-.49.36-.63.82C1550,166.28,1550.52,166.21,1550.67,165.86ZM1547,175.92c0-.15-.2-.09-.17,0a12.81,12.81,0,0,1-.15-2.17c.26.22-.05,1.54.47,1.35C1547.1,175.42,1546.89,176.53,1547,175.92Z"/></g></g></svg>