<svg xmlns="http://www.w3.org/2000/svg" viewBox="0 0 2701 1357"><defs><style>.cls-1{fill:#8dcee2;}.cls-2{fill:#003245;}</style></defs><g id="Layer_2" data-name="Layer 2"><g id="Layer_2-2" data-name="Layer 2"><rect class="cls-1" width="2701" height="317.55"/><rect class="cls-2" y="261" width="2701" height="1096"/><path class="cls-2" d="M726,161.6l18.66-22.93a111.86,111.86,0,0,1-30.9,11.42"/><path class="cls-2" d="M731,151a2,2,0,0,0-.41.59C731,151.1,731.6,150.19,731,151Zm-1.64,2.15c0,.1-.09.27-.23.44C729,153.46,729.22,153.26,729.34,153.1Zm2.15-2.65a4.54,4.54,0,0,1,.7-.89c-.05.12,0,.22-.12.35C732.06,149.62,731.65,150.44,731.49,150.45Zm-2.56,3.31c.06.07-.13.23-.07.3s0-.13.18-.22a.9.9,0,0,1-.21.47c0-.09,0-.1-.11,0C728.59,154.21,728.78,154,728.93,153.76Zm4-5a3,3,0,0,1,.71-.89C733.57,148.23,733.17,148.48,733,148.8Zm-1.59,2.09c0-.09.37-.66.48-.53C731.67,150.62,731.53,150.66,731.36,150.89Zm.15,0c.21.09-.67.9-1,1.39C730.69,151.75,731.24,151.43,731.51,150.91Zm3.88-5,.26-.33c.17,0-.12.25-.19.39Zm.51-.5c0-.12.43-.74.56-.65Zm4.76-5.83c0,.28-.5.78-.81,1.16A8.07,8.07,0,0,1,740.66,139.59Zm2.06,2.95c0-.27.71-.32,1.13-.65C743.88,142,743,142.34,742.72,142.54Zm-1.35.7c.08-.32.7-.4.92-.57C742.3,142.88,741.64,143.05,741.37,143.24Zm-12.59,11.92c-.14.49-.71.66-.92,1.17C727.79,156.07,728.44,155.6,728.78,155.16Zm13.94-17.84a1.94,1.94,0,0,1-.41.67C742.31,137.82,742.53,137.56,742.72,137.32Zm-18.08,23.16c.22-.18.23-.32.48-.53C725.12,160,724.75,160.6,724.64,160.48ZM715,150.06a3.93,3.93,0,0,1-1.18.28C714,150.11,714.67,150.14,715,150.06Zm16.9,6c.07,0,0,.12.09.16a5.66,5.66,0,0,0-.94.71C731.17,156.6,731.48,156.5,731.91,156.08Zm-2,2.86a1.46,1.46,0,0,1,.44-.56C730.36,158.6,730.12,158.79,729.93,158.94Zm4.76-5.48c0-.34.67-.72,0,0ZM715.15,149c0,.1-.46.16-.55.13C714.68,148.93,714.93,149.07,715.15,149Zm22.42,1c0,.22-.17.29-.36.53A1.14,1.14,0,0,1,737.57,150Zm-20.26-1.63c-.08.12-.51.14-.73.23a3.75,3.75,0,0,1,1.17-.49c-.07.18-.37.12-.65.27C717.12,148.37,717.23,148.33,717.31,148.32Zm22.28-.94a5.31,5.31,0,0,1-1,1.42A6.24,6.24,0,0,1,739.59,147.38ZM743,138c.15-.27.59-.42,1-.61l6.76-3.21-4.89,5.46a3.15,3.15,0,0,0-.24.3,1.63,1.63,0,0,1,.19-.34l4.26-5.79-6,3.64C743.73,137.58,743.39,137.7,743,138Zm-8,15.65c.06-.25.47-.62.66-.92C735.62,153,735.21,153.32,735,153.62Zm-1-11.74c.05-.25.39-.24.73-.42A1.09,1.09,0,0,1,734,141.88Zm-7.64,2.32c.14-.15.62-.23.9-.37A2,2,0,0,1,726.4,144.2Zm9.5-4.23c-.16.12-.19,0-.34.11C735.58,140,735.85,139.8,735.9,140Zm-5.19,11.67c.11-.28.29-.39.5-.69,0,0,0,.08-.06.13s.05,0,.08,0S730.91,151.51,730.71,151.64Zm-1.79,3.27c.08,0,.07.11.25-.17-.09-.09-.29.16-.06-.14-.07,0-.14.12-.21.2a.17.17,0,0,1,0-.17c-.06,0-.08.1,0,.14-.26.08,0-.36.1-.54s.13.07.14.1c.14-.23.19-.36.37-.26-.11.15-.08.05-.12,0-.15.16-.09.24-.27.41a3.53,3.53,0,0,0,1.23-1.56c0-.07.33-.17.31-.39-.13,0-.27.09-.42.31-.13,0,.4-.53.54-.75.06.06-.12.21,0,.25.17-.16.09-.21.07-.3,1-1.23,1.78-2.26,2.93-3.57-.23.15-.07-.07,0-.25.07,0,0,.09,0,.16.16,0,.25-.32.19-.38.15,0,.21-.15.38-.34.52-.58.28-.38-.19.39.22-.13.49-.61.73-.87.07.18-.05.26-.23.36.56,0,1.15-1.38,1.89-2a6,6,0,0,0-1,1.12c0-.2.16-.24.32-.47-.37,0-.72,1-1.14,1,1.35-1.56,2.59-2.83,3.76-4.28.08-.14.13,0,.21-.11.68-1.26,1.71-2,2.92-3.57-.16-.07.17-.17.19-.39s0,.19.06.22c.34-.51.24-.69.84-1.14-.2.29-.4.41-.48.61.29-.31.62-.71.94-1.11l2.52,3-1.17.66c.52-.16,1.14-.61.43-.13a4.2,4.2,0,0,1-.67.42c-.16,0,0-.1-.16-.11a17.6,17.6,0,0,0-2.18,1.41c0-.08.27-.15.27-.24-.24,0-.52.36-.72.32s0,.13,0,.19c-.3.1-.13.12-.43.27,0-.1.21-.18.18-.29-.67.36-1.53.67-2.27,1.13,0,0,.14,0,.22-.05-.09.22-.67.24-1,.51.42,0,1.42-.68,2-.8s-.76.43-1,.52c-1.64.74-3.4,1.26-5.26,2.11a9.69,9.69,0,0,1,1.88-.92c-.21-.09-.84.4-.87.19-.2.09-.13.21-.42.28,0-.06.08-.11.07-.17a2.09,2.09,0,0,1-.66.28c0,.05.18,0,.29-.07-.15.15-.89.44-.69.24-2.05.88-4.89,1.47-7.48,2.49.08.09.42-.15.51-.08s-.44.19-.55.19c.18.15.89-.18,1.21-.29s.65-.25,1-.36a16.17,16.17,0,0,1-3.25,1.22s.11-.21-.11-.1c.15-.16.65-.24.94-.36-.69.15-1.49.45-2.17.57.07.09.37-.11.45-.05-.87.27-2.42.6-2.93.81-.11.15-.83-.08-1.07-.05-.43.05-1,.49-1.32.14a.66.66,0,0,0,.29,0c-.13-.08-.42,0-.54-.08.31.11-1,.54-1,.3a2.5,2.5,0,0,1-.54.23.35.35,0,0,1,.18-.18c-.13-.08-.56-.14-.65.08-.31,0-.35-.22-.82,0-.14-.24-.48-.28-.88-.25,0-.12.48-.1.53-.21-.36,0-.28-.21-.63-.17,0-.06.19-.1.2-.05s-.29-.09-.34-.19c-.33.18-.35.1-.61.19a12.17,12.17,0,0,1,3.09-1.3c.19,0,.41,0,.53,0s.14-.14.32-.18c0-.05-.31,0,0-.08a1.73,1.73,0,0,0-.57.06c0-.19.63-.39,1.11-.48a5.4,5.4,0,0,1,1.64-.65c.07-.1.14-.19.2-.29a6.27,6.27,0,0,0-1.43.6c.09-.24-.29,0-.51,0,.34-.32,1.5-.41,2-.7-.6,0,.42-.66.92-.55,0-.06.14-.19.35-.29,0,.06-.06.11-.18.14a7.62,7.62,0,0,0,2.39-.58c0,.18-.4.26-.69.37,1.93-.45,4.58-1.79,6.79-2.6.34-.12.72-.17,1-.3s.3,0,.45,0c1.07-.46,1.63-.63,2.61-1,.07,0,0-.06,0,0,.94-.45,2.34-1,3.22-1.39a44.34,44.34,0,0,1-4.8,2.13,13,13,0,0,0,3.27-1.27c.76-.32,1.51-.63,2.2-.94a13.94,13.94,0,0,1,1.9-.91c1.59-.83,2.88-1.5,4.18-2.21l6-3.26-4.29,5.31c-.52.64-1.05,1.3-1.6,2a6.55,6.55,0,0,0,.73-.86,4.19,4.19,0,0,1-.75,1c-.15.17-.67.75-.42.4s.31-.3.39-.5a6.71,6.71,0,0,0-1.18,1.5,19.56,19.56,0,0,0-2.18,2.62c-1.12,1.34-2.27,3-3.63,4.47-.06.09.1,0,0,.11a1.57,1.57,0,0,1-.29.14c-.05.1.08.13-.1.28,0,0,0-.09,0-.14-.43.33-.91,1.15-1.32,1.32,0,.31-.83,1-1.19,1.58-.23-.16.13-.3.32-.55-.62.45-.59.69-1.32,1.4a3.39,3.39,0,0,0,.89-.84c-.1.53-.89,1.15-1.31,1.59a5.17,5.17,0,0,0,.69-.46c-.29.48-1,.55-1.29,1.07.19-.43.65-.6.88-1.11-.94.74-1.7,1.73-2.65,2.36-.16.15,0,.18-.15.33,0-.22-.26.09-.39.15s.25-.24.34-.36c-.1-.16-.26.27-.37.25,0-.17.29-.32.39-.42-.09-.06-.68.27-.83.63-.15-.33-.64.32-.8.45,0-.11.26-.36.36-.52-.11,0-.22.17-.33.2-.15-.22.25-.48.26-.69a9.67,9.67,0,0,0-.93.9c.1,0,.24-.28.32-.12-.43.3-1,.88-1.14.74,0-.07,0-.06,0,0,.3-.48.83-.72,1.13-1.28-.2,0-.2.24-.43.47.06-.35-.08,0-.19,0,.21-.36.39-.3.48-.53,0-.06-.12,0-.08,0,0-.54,1-1.69,1.32-2.38-.17.05-.22.39-.43.39.18.14-.14.16-.32.56C728.67,155.46,729,155.18,728.92,154.91ZM721,150.12c-.2.06-.46-.09-.58.08C720.6,150.14,720.88,150.27,721,150.12Zm2.88-4.11c.29-.13.56-.06.65-.27C724.27,145.79,723.82,145.94,723.87,146Zm7.11-2.77c0,.08-.75.3-1,.35a2.76,2.76,0,0,0,1.33-.44C731.22,143.19,731,143.11,731,143.24Zm1.94,6.24.1.08c.13-.11.26-.4.11-.28C733.19,149.41,733,149.31,732.92,149.48Zm1.37-1.46c-.2.17-.37.17-.59.54C734,148.47,734,148.25,734.29,148ZM732.83,150c.09.09.58-.5.43-.48S732.85,149.82,732.83,150Zm4.18-5c0-.26.46-.43.34-.63C737.07,144.57,736.87,144.88,737,144.92Zm-6.93,8.73s-.08,0-.11,0c-.22.24-.28.55-.53.67C729.6,154.4,730,153.66,730.08,153.65Zm6.31-7.86.48-.62c-.08-.07,0-.19-.18,0C736.86,145.22,736.25,145.81,736.39,145.79Zm1.46-1.93c-.22,0-.29.27-.46.37C737.52,144.34,737.7,143.91,737.85,143.86Zm-15.4,5.87c-.29.15-.65.05-.67.25C722,149.91,722.63,149.76,722.45,149.73Zm-4.65.77c.2-.08.61-.1.68-.23C718.14,150.4,718,150.28,717.8,150.5Zm.13-.3c.24,0-.28.09-.17.17.37-.16.7-.14,1-.3C718.46,150.14,718.11,150,717.93,150.2Zm21.75-3.28c-.11.18-.42.45-.4.58C739.39,147.32,739.7,147.06,739.68,146.92Zm-16.79-.32c-.12,0-.32.15-.3,0-.33.11-1,.32-.81.44C721.86,146.85,722.55,146.89,722.89,146.6Zm-3.47,1.14c.78-.22.45-.36,0,0Zm12.92-4.88c-.17.07-.39.14-.35.24.16-.11.47-.12.45-.19A.07.07,0,0,1,732.34,142.86Zm-11.88,4c.08,0,0,0,0,.09.22,0,.57-.23.69-.16-.22.09,0,.14-.32.14.06.19.76,0,.82-.2-.15,0-.43.19-.49.1.28-.09-.08-.12.15-.22A2.71,2.71,0,0,0,720.46,146.84Zm22.23-3.52c.09.14-.39.54-.37.61C742.05,143.94,742.68,143.53,742.69,143.32Zm-2.18,0c0,.19-.27.13-.41.31,0,0-.05-.06-.11,0S740.26,143.44,740.51,143.33Zm-11.13,10.5s0-.07,0-.05a2.64,2.64,0,0,1,.41-.59c.08.1-.24.33-.07.22.09.08-.13.2-.17.23s-.05.12,0,.16.14-.31.16-.06c.18-.15-.08-.13.1-.28.09.13-.09.36-.29.59C729.52,153.9,729.48,153.78,729.38,153.83Zm15.15-12.21c-.08-.17.08-.32.39-.48.18,0-.5.28-.35.4.54-.34.93-.55,1.28-.74l-3.06-3.66-1.1,1.27c-.16-.07.2-.33.28-.49,0,0,0,.1-.05.13a10,10,0,0,0,.81-1l3.15,3.79C745.44,141.12,745,141.4,744.53,141.62Zm-18,16.84c.4-.38.78-.69.28-.14a3.17,3.17,0,0,0-.47.45s0-.05,0-.08,0,0-.08,0c.06-.25.42-.41.61-.69C726.94,158.2,726.67,158.25,726.57,158.46Zm2.07-10.31c-.17.15.26-.31.46-.22C729,148,728.89,148,728.64,148.15ZM717,150.8c-.09,0-.12,0-.13.08-.19.06-.11-.14-.26-.12S717,150.65,717,150.8ZM730.67,157c0-.26.32-.19.46-.45C731.12,156.8,730.81,156.81,730.67,157Zm4.76-4.41c0,.07,0,.11.07.05-.22.26-.49.6-.78.92,0-.18.59-.61.34-.72C735.17,152.73,735.71,152.39,735.43,152.6Z"/><path class="cls-2" d="M704.63,151.36a14.48,14.48,0,0,1-17.74-6.63,14.85,14.85,0,0,1,4.83-18.51,14.44,14.44,0,0,1,18.66,3.1,14.86,14.86,0,0,1-1.27,19.1"/><path class="cls-2" d="M688.62,151.24a4.65,4.65,0,0,0,.92.64C688.8,151.29,687.41,150.25,688.62,151.24Zm3.64,2.18a1.48,1.48,0,0,1,.75.21C693,153.74,692.55,153.53,692.26,153.42Zm-4.45-3a6.16,6.16,0,0,1-1.27-1.28,4.39,4.39,0,0,1,.47.32c-.19-.06,0,.14.23.38S687.79,150.33,687.81,150.44Zm5.61,3.36c.05-.07.39.11.45,0s-.2,0-.41-.15a2.61,2.61,0,0,1,.76.12c-.13,0-.12.06.08.12C694.25,154.07,693.8,153.94,693.42,153.8Zm-7.85-6.06a5.43,5.43,0,0,1-1-1.54C685,146.55,685.16,147.28,685.57,147.74Zm2.85,3c-.12,0-.94-.7-.8-.78C688,150.28,688.08,150.47,688.42,150.75Zm0-.17c.07-.22,1.37,1.07,2.19,1.45A9.56,9.56,0,0,1,688.41,150.58Zm-5.18-8.34-.15-.66c.13-.14.16.42.24.63Zm-.14-1.11c-.07-.17-.31-1.3-.13-1.33C683,140.46,683,140.6,683.09,141.13Zm2-11.26a16.8,16.8,0,0,1-.82,2A9,9,0,0,1,685.09,129.87Zm7.71-7c0,.3-1.13.42-1.78,1a2.49,2.49,0,0,1,.67-.45Zm2.22-.76c-.28.3-1.17.41-1.56.59C693.52,122.44,694.54,122.2,695,122.07Zm.34,31.57c.73,0,1.37.47,2.19.41a1.59,1.59,0,0,1-.9-.05C696.24,153.89,695.77,153.73,695.36,153.64Zm-7.3-27.48a4.87,4.87,0,0,1-.74,1A3.73,3.73,0,0,1,688.06,126.16ZM705.3,153c-.4.09-.55.22-1,.32C704.36,153.25,705.29,152.85,705.3,153Zm5.06-5.63c-.14.43-.75.85-1.07,1.23C709.33,148.26,710.09,147.76,710.36,147.38Zm-15.68,2.86c0-.08.13,0,.14-.13a5.79,5.79,0,0,0,1.24.72C695.62,150.82,695.34,150.57,694.68,150.24Zm4.16.67a1.64,1.64,0,0,1-.85-.07A1.59,1.59,0,0,1,698.84,150.91Zm-7.78-3.44c-.37-.09-.81-.84,0,0Zm18.76-1.13c0,.11-.33.52-.42.57C709.39,146.72,709.69,146.62,709.82,146.34ZM688,143.23c.2.13.2.33.35.65A1.58,1.58,0,0,1,688,143.23Zm23.14.62c0,.17-.27.62-.37.89a9.48,9.48,0,0,1,.46-1.5c.08.18-.13.46-.24.83C711,144.08,711.07,143.94,711.12,143.85ZM687,139.54a17.14,17.14,0,0,1,.48,1.94A5,5,0,0,1,687,139.54ZM692,127.81c-.21.39-.92.77-1.33,1.26a1.87,1.87,0,0,1,.51-.59C691.36,128.29,691.62,128.07,692,127.81Zm-.74,19.33a4.45,4.45,0,0,1-1-.87C690.49,146.42,690.9,146.88,691.22,147.14Zm11.84-20.7c-.22.17-.53-.11-1-.16A1.32,1.32,0,0,1,703.06,126.44Zm6.55,6c-.2-.13-.37-.65-.59-.9A2.14,2.14,0,0,1,709.61,132.44Zm-9.51-5.56c.21,0,.19.08.37.08C700.4,127.05,700.05,127.05,700.1,126.88Zm-10.47,24.85a8,8,0,0,1-1.09-.77s.13.06.21.1,0-.06-.07-.1A3.93,3.93,0,0,1,689.63,151.73Zm5.31,1.83c-.1-.07.09-.1-.38-.21,0,.11.41.26-.14.1,0,.06.25.11.4.17a.38.38,0,0,1-.23,0c0,.07.18.06.22,0,.28.25-.48.09-.79,0s0-.16.05-.17c-.41-.09-.6-.15-.56-.35.25.1.11.08.07.13.3.15.38,0,.72.2a14,14,0,0,0-2.76-1.18c-.07.05-.39-.36-.65-.37,0,.15.22.32.6.49,0,.07-.19,0-.47-.19l-.77-.49c0-.06.32.17.34.06-.27-.22-.32-.12-.43-.12a14.84,14.84,0,0,1-4.89-5.14c.14.41-.09,0-.28-.21,0-.08.12,0,.19.14,0-.21-.33-.56-.42-.53a2.9,2.9,0,0,0-.26-.75c-.46-1.13-.33-.67.36.56-.06-.39-.52-1.1-.68-1.63.19.08.23.29.29.59A4.89,4.89,0,0,0,684,143a8.64,8.64,0,0,1-.5-2.4,7.69,7.69,0,0,0,.38,2.24c-.19-.15-.14-.42-.25-.83a1.75,1.75,0,0,0,.16,1.11,2.36,2.36,0,0,1,.26,1.19,17.47,17.47,0,0,1-.6-8.62c0-.24.1-.14.14-.31.16-2.14,1-3.81,2.55-6.41-.17,0,.21-.3.28-.58s-.06.25,0,.27c.52-.76.39-1,1.29-1.72a6.55,6.55,0,0,0-.76.91,19.47,19.47,0,0,1,3-2.93c-.73.38-1.51,1.23-.58.33a7,7,0,0,1,.94-.76c.21,0,0,.11.19.07a27.62,27.62,0,0,1,3.44-1.92c0,.1-.45.18-.49.27.34,0,.87-.4,1.16-.35.13,0,0-.13,0-.19.48-.07.25-.11.74-.23-.08.1-.37.17-.38.27a24.68,24.68,0,0,1,3.76-.53c0-.06-.2,0-.33,0,.25-.2,1.06,0,1.62,0a14.85,14.85,0,0,0-3.29,0c-.51,0-.19,0,.31-.09a13.24,13.24,0,0,1,1.33-.11,15,15,0,0,1,4.09.46,21.45,21.45,0,0,1,4.15,1.46c-.63-.12-2-.82-3-1,.19.23,1.35.36,1.19.55.31.12.33,0,.73.19-.05,0-.19,0-.24,0a3.82,3.82,0,0,1,1,.42c0-.07-.23-.16-.37-.22.29,0,1.35.58.95.5a13.58,13.58,0,0,1,4.27,3.53,18.83,18.83,0,0,1,3,5.36c.07-.1-.22-.61-.17-.74s.27.66.28.81c.15-.23-.31-1.3-.54-1.75s-.49-.92-.76-1.43a11.17,11.17,0,0,1,2,4.76c-.06,0-.22-.2-.11.14a14.77,14.77,0,0,1-.41-1.43c.12.51.23,1.07.35,1.63a14,14,0,0,1,.17,1.62c.11-.06-.07-.56,0-.65a22.17,22.17,0,0,1,0,4.43c.11.23-.47,1.07-.57,1.41-.16.57-.22,1.62-.68,1.75a1,1,0,0,0,.16-.39c-.14.12-.26.55-.43.63.31-.32-.26,1.5-.48,1.34a5.81,5.81,0,0,1-.27.77.47.47,0,0,1,0-.33c-.16.09-.55.52-.51.78-.27.35-.45.2-.77.84-.28-.05-.64.24-1,.64,0-.13.41-.54.39-.68-.36.32-.39.09-.71.45,0-.06.12-.27.17-.23.06-.21-.33.19-.43.14-.24.42-.31.36-.53.65a37,37,0,0,0,1.9-3.83c.15-.18.28-.44.41-.52a2.07,2.07,0,0,1,.07-.45c-.06,0-.2.32-.08,0a3,3,0,0,0-.33.64c-.18-.1.14-.89.33-1.47,0-.34.07-.66.1-1a4.59,4.59,0,0,1,.19-1.14,3.2,3.2,0,0,0-.19-.37,6.11,6.11,0,0,1-.11,1,4.77,4.77,0,0,0,0,.87c-.14-.23-.16.3-.28.55-.06-.53.47-1.85.36-2.53-.22.68-.4-.74-.19-1.27-.06,0-.13-.22-.16-.49,0,0,.08.1.08.25a6.42,6.42,0,0,0-.14-2.91c.2,0,.23.51.29.87a9.63,9.63,0,0,0-1.27-3.94,12.79,12.79,0,0,0-2.8-3.34,11,11,0,0,0-.93-.81c-.21-.14-.21-.27-.33-.41a15.16,15.16,0,0,0-3-1.44c-.09,0-.05,0,0,0a15.41,15.41,0,0,0-4.15-.66,12,12,0,0,1,6.12,1.38,8.38,8.38,0,0,0-4-1.38,13,13,0,0,0-2.9-.17,10.94,10.94,0,0,0-1.43.21,5.12,5.12,0,0,1-1.08.19,11.71,11.71,0,0,0-4,2,11.44,11.44,0,0,0-2.78,3.18,1.87,1.87,0,0,0,.32-.45l.48-.64a13.63,13.63,0,0,1-.81,1.28c-.16.2-.62,1-.41.55s.31-.41.38-.66a5.47,5.47,0,0,0-1,2.06c-.46.49-.88,2.41-1,4a13.59,13.59,0,0,0,1.14,6.67c.06.12,0-.1.11,0l0,.36c.08.1.15,0,.25.24,0,0-.09-.07-.13-.12.19.62,1,1.44,1.09,1.93.17,0,.43.32.73.68a6.31,6.31,0,0,0,1,.94c-.17.24-.37-.17-.64-.43a2.54,2.54,0,0,0,.73.76l1,.79c-.14-.15-.29-.3-.47-.46a4.09,4.09,0,0,0-.64-.53c.61.15,1.43,1,2.08,1.39l-.7-.7a3.8,3.8,0,0,1,.76.64,2,2,0,0,0,.84.59c-.57-.1-.9-.58-1.55-.78a18.4,18.4,0,0,0,3.83,2.17c.27.09.19-.08.46,0-.25.07.25.23.41.3-.06.08-.42-.12-.62-.17-.11.15.47.15.52.25-.18.09-.54-.14-.71-.2a1.67,1.67,0,0,0,1.24.49c-.26.3.82.42,1.11.45-.1.09-.6,0-.86,0a4.52,4.52,0,0,0,.47.18c-.11.27-.73,0-1,.1a4.48,4.48,0,0,0,.84.21l.92.12c-.06-.1-.5,0-.39-.2.68.22,1.8.19,1.81.42-.11,0,0,0,0,0a5.17,5.17,0,0,1-1.18,0,5.09,5.09,0,0,0-1.25-.08c.18.16.44,0,.91.09-.45.14.11,0,.1.18-.59,0-.67-.15-1-.09,0,.07.09.09.1,0-.64.29-2.88-.16-3.91-.36.18.16.64.12.78.33.06-.2.3.1.94.13A11.47,11.47,0,0,0,694.94,153.56Zm19.87-13c0,.29-.32.56-.23.81C714.63,141.08,714.9,140.77,714.81,140.55Zm-3.21-5.15c-.12-.36-.05-.68-.25-.81C711.4,134.89,711.53,135.46,711.6,135.4Zm-4.93-7.33c0-.08.77.57,1,.79a3.09,3.09,0,0,0-1.28-1.05C706.44,127.88,706.55,128.12,706.67,128.07ZM686.41,148.2l.1-.09c-.13-.22-.48-.55-.33-.29C686.33,147.81,686.2,148,686.41,148.2Zm-1.53-2.69a2.83,2.83,0,0,0,.49,1.12C685.33,146.15,685,146.06,684.88,145.51Zm2.11,3c.06,0-.11-.26-.27-.47s-.32-.41-.31-.31A2.15,2.15,0,0,0,687,148.55Zm-3.52-9.14c-.15-.35,0-.94-.18-1.06C683.26,139,683.34,139.49,683.47,139.41Zm9.13,13.15c.07,0,.1.08.06.12.44.21.88.23,1.18.49C693.85,153,692.64,152.61,692.6,152.56ZM683.69,141c-.05-.38-.12-.77-.16-1.16-.1,0-.15-.19-.16.13C683.55,139.88,683.62,141.17,683.69,141Zm-.24-3.61c-.19.17-.08.58-.16.86C683.46,138.25,683.36,137.57,683.45,137.38Zm31.54,1c.06.47-.14.93,0,1C715,139.13,715.08,138.13,715,138.36Zm-1.85,6.46a3.73,3.73,0,0,0,.32-1C713.31,144.34,713.1,144.49,713.14,144.82Zm-.13-.37c.17-.28-.14.39,0,.32.16-.54.39-.92.47-1.34C713.35,143.79,713,144.13,713,144.45Zm-26.22-5.39c0,.26,0,.74.11.84C686.82,139.65,686.9,139.17,686.79,139.06Zm25.28-2.34c0,.15.08.43-.06.35,0,.22,0,.55.07.81s.06.42.15.31C712.09,138,712.28,137.21,712.07,136.72Zm-.14,4.53c.18-1-.11-.69,0,0Zm-6.62-14.17c.2.1.43.24.49.15-.23-.07-.49-.32-.53-.26S705.34,127,705.31,127.08Zm6.28,12.57c0-.1.06-.05.09,0a4.2,4.2,0,0,1,.11-.85c0,.29.12.11,0,.43.22,0,.19-.92.07-1,0,.18,0,.56,0,.6,0-.36-.14.05-.17-.26A7.36,7.36,0,0,0,711.59,139.65Zm-23.86-6.13c.12.1-.21.77-.17.83C687.31,134.5,687.76,133.73,687.73,133.52Zm8.55-11.43c.1-.18.44-.06.74-.2,0,0,0,.08.12.07A2.88,2.88,0,0,1,696.28,122.09Zm-3,31.21s-.11,0-.1,0a4.38,4.38,0,0,1-1-.39c.08-.09.56.24.32.06.06-.1.34.12.4.16s.19,0,.23,0-.49-.12-.17-.16c-.3-.18-.12.1-.43-.08.12-.11.53.06.94.24C693.25,153.14,693.11,153.19,693.24,153.3Zm-3.22-29c.1.16-.13.4-.57.71-.25.08.71-.53.51-.61a19,19,0,0,0-3.5,3.43c-.18,0,.32-.52.47-.76,0,0-.06.14-.11.2A17.88,17.88,0,0,1,690,124.33Zm11.2,29.45c-.82,0-1.52-.1-.43-.09a4.35,4.35,0,0,0,.94,0s0,0-.09.05,0,0,.11,0a4.45,4.45,0,0,1-1.37.09C700.56,153.69,700.89,153.89,701.22,153.78ZM713,129.29c.24.22-.46-.33-.48-.6C712.65,128.82,712.69,129,713,129.29ZM712.69,146c-.07.1-.09.16-.07.2-.13.25-.19,0-.31.19C712.26,146.32,712.62,145.83,712.69,146Zm-16.33,5.2c-.31.09-.4-.22-.76-.3C695.87,150.82,696.05,151.13,696.36,151.17Zm-6.24-4.65c.08.07.12,0,.06-.06.24.31.65.62,1,1-.2,0-.67-.73-.79-.49C690.23,146.85,689.94,146.16,690.12,146.52Z"/><path class="cls-2" d="M706,114.58l-1.34,3.78c-1.92-7.68-12.86-11.08-18.7-5.81-2,1.8-3.32,4.27-5.28,6.11s-5.09,3-7.3,1.42c-1.37-.94-2-2.67-3.37-3.67-2.94-2.2-7,.15-10,2.3s-7.47,4-9.91,1.24"/><path class="cls-2" d="M698,114.22a1.68,1.68,0,0,0,.54.29C698.12,114.15,697.19,113.85,698,114.22Zm1.9,1.3c.1,0,.22.1.35.24C700.13,115.85,700,115.64,699.87,115.52Zm-2.42-1.64c-.32-.12-.55-.22-.93-.38a1.25,1.25,0,0,1,.34,0c-.12.06,0,.11.19.16S697.43,113.8,697.45,113.88Zm2.94,2.06c.07,0,.18.13.26.08s-.12,0-.17-.18a.7.7,0,0,1,.4.23c-.09,0-.1,0,0,.1C700.72,116.27,700.55,116.08,700.39,115.94Zm-4.73-2.84a3.37,3.37,0,0,1-1-.21C695,112.77,695.32,113.07,695.66,113.1Zm2.2.78c-.09,0-.64-.18-.55-.31C697.57,113.66,697.62,113.79,697.86,113.88Zm0-.14c0-.1.27,0,.54.16a6.44,6.44,0,0,0,.83.54C698.68,114.38,698.41,113.84,697.86,113.74Zm-5.49-1.07-.36,0c-.08-.15.23-.09.36-.14Zm-.62,0c-.1,0-.68.26-.73.1A3,3,0,0,1,691.75,112.66Zm-5.43,3.24c0-.29.51-.78.83-1.1C686.93,115.17,686.7,115.38,686.32,115.9Zm-5.79,6c0-.28.94-.54,1.45-1.12C682,120.89,681,121.64,680.53,121.91Zm-2,1c.23-.34,1.08-.48,1.4-.72C679.93,122.38,679,122.67,678.55,122.86Zm23.07-6.59c.44.23.34.81.69,1.15C702,117.4,702,116.66,701.62,116.27Zm-17.54,2.2a2.63,2.63,0,0,1,.49-.78A2.26,2.26,0,0,1,684.08,118.47Zm23.62-3.29c-.16.27-.13.42-.3.74C707.37,115.82,707.56,115.09,707.7,115.18ZM651.07,121a1.9,1.9,0,0,1-.6-.35c-.19-.18-.35-.39-.51-.54a1.07,1.07,0,0,1,.52.39A5.84,5.84,0,0,0,651.07,121Zm52.06-7.66c0-.06.14,0,.18-.06a4.56,4.56,0,0,0,.32.61c.12.23.25.46.34.68C703.61,114.32,703.6,113.92,703.13,113.35Zm2.48,3.53a5.39,5.39,0,0,1-.35-.82A1.1,1.1,0,0,1,705.61,116.88Zm-5.88-6.77c-.41,0-1.08-.61,0,0ZM651.9,120.23c-.08.06-.43-.13-.45-.23C651.59,120,651.67,120.19,651.9,120.23Zm42.41-11.75c.23-.1.42,0,.8,0A2,2,0,0,1,694.31,108.48ZM654,120.36c-.11.12-.52.07-.74.08.22,0,.37-.1.54-.15s.35-.07.65-.13c-.09.17-.37.09-.66.18C653.77,120.39,653.89,120.36,654,120.36Zm36.23-11.59a5.2,5.2,0,0,1,2.13-.45,5.23,5.23,0,0,1-1,.22A5.64,5.64,0,0,0,690.2,108.77Zm-10,8.36c.08-.4.69-.78,1-1.27C681.05,116.3,680.68,116.56,680.21,117.13Zm19.58-7.38c-.32,0-.9-.44-1.34-.54A5,5,0,0,1,699.79,109.75Zm-26.55,7.64c.26,0,.35.34.59.58C673.75,118,673.36,117.72,673.24,117.39Zm-10.18-3.17a4.75,4.75,0,0,1,1.21-.55A5.2,5.2,0,0,1,663.06,114.22Zm12.05,3.68c-.07,0,0-.09-.08-.1S675.2,117.75,675.11,117.9Zm23.49-3.54c-.26,0-.35-.24-.67-.34,0,0,.09,0,.14,0s0,0,0-.07C698.14,113.92,698.47,114.19,698.6,114.36Zm2.83,1.73c0-.08.12,0-.08-.27-.1.08.06.31-.14,0,0,0,.07.15.12.23a.17.17,0,0,1-.15,0s.07.09.11.07c0,.26-.31-.08-.46-.17s.09-.12.13-.12c-.2-.15-.31-.21-.18-.37.12.12,0,.08,0,.11.12.16.21.11.34.29a1.79,1.79,0,0,0-.56-.78,2,2,0,0,0-.74-.46c-.07,0-.16-.31-.36-.28,0,.12.07.25.28.39,0,.13-.47-.38-.7-.46.05-.07.2.08.24,0-.16-.14-.21-.05-.29,0a11.38,11.38,0,0,0-3.87-1.67c.22.15,0,.09-.21.09,0-.08.06-.07.14-.06-.08-.15-.38,0-.4,0-.1-.09-.21-.09-.44-.14-.69-.14-.43,0,.4,0a3.19,3.19,0,0,0-1-.14c.1-.17.23-.13.4,0-.15-.26-.58-.23-1.07-.23s-1,.17-1.49.12a6.7,6.7,0,0,0,1.38,0c-.12.14-.26,0-.52.08.18.25,1.15-.1,1.37.23a8.33,8.33,0,0,0-4.9.83c-.1.09-.12,0-.21,0-.25.18-.44.42-.67.59s-.48.34-.74.57a10.62,10.62,0,0,0-1.73,1.88c.16.06-.18.18-.21.42s0-.2,0-.23c-.37.56-.26.76-.93,1.31a7.91,7.91,0,0,0,.54-.71c-.6.69-1.48,1.84-2.14,2.54.54-.41,1.06-1.17.43-.34a3.82,3.82,0,0,1-.65.76c-.18.05,0-.11-.2-.06a15.94,15.94,0,0,1-2.77,2.21c0-.08.4-.21.41-.3-.31,0-.75.46-1,.43s0,.13,0,.2c-.45.1-.21.14-.68.28.07-.1.35-.18.34-.3a8.9,8.9,0,0,1-3.83.39s.21.07.35.1c-.31.13-1.16-.26-1.79-.43a3.94,3.94,0,0,0,1.64.54,15.13,15.13,0,0,0,1.91.08c.54,0,.2,0-.31.09a8.13,8.13,0,0,1-1.46,0,6.74,6.74,0,0,1-2.26-.74,7.13,7.13,0,0,1-1.78-1.47c-.9-1.06-1.42-2-2-2.5.34,0,.79.89,1.36,1.52,0-.27-.69-.82-.47-.89-.14-.18-.24-.08-.38-.33.06,0,.13,0,.19,0a2,2,0,0,1-.41-.47c0,.06.07.14.12.21-.17-.1-.55-.46-.35-.42a2.91,2.91,0,0,0-2.19-.76,7.28,7.28,0,0,0-3.54,1.32c.09.06.38-.23.48-.18s-.4.26-.49.3c.2.09.82-.35,1.11-.48a7,7,0,0,1,.91-.43c-.77.53-1.77,1-2.88,1.72,0-.06.05-.23-.14-.06.11-.2.58-.42.83-.6-.64.31-1.34.84-2,1.2.1.05.33-.23.43-.2-.35.25-1,.71-1.63,1s-1.2.64-1.48.83c-.12.18-1,.14-1.3.2-.49.15-1.28.67-1.61.32a.89.89,0,0,0,.36-.06c-.16-.07-.53,0-.67,0,.4.12-1.29.51-1.27.24a2.19,2.19,0,0,1-.76.11.46.46,0,0,1,.28-.13,1,1,0,0,0-.86-.13c-.42-.11-.34-.32-1-.44,0-.27-.38-.53-.78-.83.11,0,.56.28.67.23-.33-.28-.14-.33-.47-.58,0,0,.23.08.21.12.18,0-.2-.27-.15-.39-.38-.13-.34-.2-.57-.39a8.46,8.46,0,0,0,1.56.49,4.85,4.85,0,0,0,1.74,0,1.81,1.81,0,0,1,.53.12c.14-.05.16-.13.35-.16,0,0-.32,0,0-.08a2.11,2.11,0,0,0-.58,0c0-.19.66-.31,1.14-.43a11.89,11.89,0,0,1,1.61-.83A2.29,2.29,0,0,0,657,119a10.75,10.75,0,0,0-1.37.78c.08-.25-.28,0-.51,0,.32-.31,1.47-.53,1.9-.93-.58.15.29-.71.8-.75,0-.06.09-.21.26-.38,0,.07,0,.13-.13.2a3.32,3.32,0,0,0,1-.5l1.29-.92c.07.18-.38.41-.67.64,1-.62,2.18-1.48,3.62-2.24a8.35,8.35,0,0,1,5.1-1.1,3.54,3.54,0,0,1,.83.23,6.51,6.51,0,0,1,.75.3,1.32,1.32,0,0,1,.52.45,5.43,5.43,0,0,1,1.63,1.36c.38.44.66.87,1,1.34.06.06.06,0,0,0a9.61,9.61,0,0,0,1.08,1.22,2.38,2.38,0,0,0,1.06.54,2.43,2.43,0,0,1-1.59-.9c-.57-.62-1.15-1.62-2-2.51a16,16,0,0,0,2.4,3,2.76,2.76,0,0,0,1.66.66,9,9,0,0,0,1.81-.32,7.31,7.31,0,0,0,1.63-.91,9.73,9.73,0,0,0,1.3-1.2,35.14,35.14,0,0,0,2.4-3,7.94,7.94,0,0,0-.81,1,5.82,5.82,0,0,1,.84-1.18c.16-.19.78-.88.48-.47s-.35.36-.46.58a15.3,15.3,0,0,0,1.47-1.74,20.39,20.39,0,0,1,3.53-2.49,12.17,12.17,0,0,1,7.06-.92c.14,0-.07-.09.09-.08a1.86,1.86,0,0,1,.34.18c.14,0,.09-.13.36,0,0,0-.11,0-.18,0,.61.26,1.78.37,2.14.78a2.05,2.05,0,0,1,1,.26,14.13,14.13,0,0,0,1.26.66c-.12.25-.38-.1-.74-.27a4.44,4.44,0,0,0,.89.57,10,10,0,0,1,1.05.74,4.07,4.07,0,0,0-1.16-.93,4.6,4.6,0,0,1,2.06,1.46,4,4,0,0,0-.61-.81c.59.37.77,1.12,1.34,1.57-.47-.32-.73-.8-1.32-1.13a10.65,10.65,0,0,1,2.44,3.44c.12.23.21,0,.3.3-.21-.13,0,.32,0,.48-.08,0-.14-.38-.23-.53-.18,0,.18.4.12.51-.18-.07-.2-.46-.29-.6a1.71,1.71,0,0,0,.33,1.13c-.37,0,.06.77.06,1-.13,0-.16-.46-.3-.62,0,.11.07.28,0,.4-.23,0-.33-.47-.52-.58,0,.19.13.4.2.62l.15.67c.07-.07-.11-.35.07-.34,0,.28.08.63.11.9l.22,2.23,1.31-2.15c.15-.24.28-.41.39-.38s0,.06,0,0a3.43,3.43,0,0,1-.16.45l-1.35,3-.72-3a4.07,4.07,0,0,0-.34-1.22c-.1.18.09.29.16.62-.25-.24,0,.08-.14.12-.19-.35,0-.48-.18-.67-.08,0-.06.1,0,.08a3.11,3.11,0,0,1-.78-.93,5.61,5.61,0,0,0-.92-1c0,.17.3.29.24.49.18-.13.1.16.42.42C701.87,116.44,701.69,116.11,701.43,116.09Zm-43.34,5.78c-.23.11-.55,0-.68.22C657.64,122,658,122.05,658.09,121.87Zm2.2-5c.29-.24.61-.27.67-.5C660.69,116.47,660.21,116.79,660.29,116.84Zm9.45-2.48c0,.06-1.19-.43-1.57-.45l2.06.71C670.08,114.56,669.88,114.29,669.74,114.36Zm26.51-1.51,0-.13c-.13-.1-.44-.06-.28,0C696.1,112.62,696.09,112.84,696.25,112.85Zm-1.77-.55a2,2,0,0,0,.7.24C695,112.26,694.8,112.43,694.48,112.3Zm2.21.47c.06-.11-.62-.38-.56-.24S696.57,112.8,696.69,112.77Zm-6-.47c-.17.17-.57,0-.57.3C690.46,112.49,690.79,112.44,690.7,112.3Zm9.79,2.53a.08.08,0,0,1,0,.12c.18.23.47.32.54.56C701.12,115.38,700.49,114.87,700.49,114.83Zm-8.84-2.78a4.25,4.25,0,0,0-.71.14c0,.11-.08.17.11.16,0-.09.14-.16.31-.21S691.7,112.1,691.65,112.05Zm-2.09.64c.16.13.34-.07.51-.06C690,112.46,689.69,112.73,689.56,112.69ZM659.73,121c-.31.25-.74.29-.73.48C659.2,121.37,659.94,121,659.73,121Zm-5.6,1.57a2.45,2.45,0,0,0,.9-.18C654.58,122.52,654.37,122.4,654.13,122.59Zm.23-.28c.3,0-.37.06-.25.15a6.68,6.68,0,0,0,1.24-.26C655,122.29,654.6,122.14,654.36,122.31Zm35.38-13.21c.25-.09.76-.12.85-.25C690.34,108.94,689.83,109,689.74,109.1Zm-30.36,8.71c-.11.07-.27.25-.29.1-.29.23-1,.63-.7.69C658.42,118.38,659.14,118.21,659.38,117.81Zm-3.29,2c.78-.33.42-.42,0,0Zm15.37-4.14c-.2-.18-.46-.41-.53-.33.27.15.49.51.54.47S671.41,115.68,671.46,115.65ZM657,118.73c.08,0,.07,0,0,.08.2-.08.51-.34.65-.31-.21.14,0,.15-.29.21.1.19.76-.25.77-.4-.14,0-.38.29-.46.22.26-.16-.11-.09.09-.26A3.57,3.57,0,0,0,657,118.73ZM684.59,112c-.07-.16.57-.6.6-.66C685.48,111.29,684.63,111.71,684.59,112Zm-7.28,10.94c-.09.19-.44.08-.74.21,0-.06,0-.08-.13-.08A4.76,4.76,0,0,1,677.31,122.89Zm23.23-7.36a0,0,0,0,1,0,0,4.84,4.84,0,0,1-.48-.41c.11-.08.28.23.2.06.08-.08.16.15.18.18s.1.06.14,0-.25-.16,0-.16c-.11-.19-.13.07-.24-.12.13-.08.31.12.49.33C700.63,115.4,700.51,115.43,700.54,115.53Zm-17.78,4.64c-.12-.13,0-.37.34-.68.2-.09-.5.54-.31.59,1.16-1.36,1.51-1.75,2.45-2.91.17.06-.22.37-.32.56,0,0,0-.11.06-.15C684.52,118.07,683.69,119.29,682.76,120.17ZM706.45,118c-.27.56-.55,1-.23.26a3.62,3.62,0,0,0,.31-.65s0,0,0,.09.05,0,.07-.06c0,.29-.29.59-.38,1C706.16,118.45,706.41,118.29,706.45,118Zm-40.89,0c-.14.14.23-.3.4-.18C665.88,117.93,665.79,117.88,665.56,118ZM653,122.72c-.12,0-.18,0-.2,0-.28,0-.09-.17-.29-.21C652.49,122.49,653.07,122.6,653,122.72Zm51-7.7c-.28-.13-.14-.42-.38-.68C703.82,114.45,703.77,114.79,704,115Zm-5.51-5.53c.1,0,.11,0,0-.08a8.87,8.87,0,0,1,1.37.66c-.2.06-.93-.54-1-.26C698.72,109.7,698.08,109.27,698.45,109.49Z"/><path class="cls-2" d="M685.68,131.52c-.42-3-5-3.51-7.3-1.54s-3.21,5.14-4.73,7.8-4.55,5.09-7.36,3.94c-3.22-1.31-3.54-6.12-6.46-8-3.38-2.18-7.65.77-10.45,3.68s-6.56,6.23-10.28,4.74"/><path class="cls-2" d="M679.2,133.35a1.19,1.19,0,0,0,.26-.44C679.16,133.2,678.78,134,679.2,133.35Zm1.08-1.31c0-.09,0-.15.12-.19C680.46,132,680.33,132,680.28,132Zm-1.44,1.72a4.26,4.26,0,0,1-.45.82c0-.11,0-.2,0-.32C678.49,134.51,678.68,133.77,678.84,133.76Zm1.66-2c0-.1.1-.09.07-.18s0,.08-.13.06a.31.31,0,0,1,.18-.23c0,.07,0,.1.06.07C680.74,131.67,680.6,131.72,680.5,131.79Zm-2.65,3.59a3,3,0,0,1-.44,1C677.41,136,677.73,135.71,677.85,135.38Zm1-2c0,.07-.2.56-.33.46C678.63,133.62,678.75,133.58,678.86,133.39Zm-.14,0c-.21-.09.46-.76.68-1.09C679.32,132.71,678.88,132.91,678.72,133.37Zm-2.62,5.42c-.08.14-.14.28-.24.43-.17,0,.12-.32.16-.47Zm-.49.69c0,.16-.48.94-.62.85C675.3,139.91,675.38,139.84,675.61,139.48Zm-8.26,5.05c.39-.11,1.46-.11,2.16-.32A5,5,0,0,1,667.35,144.53Zm-6.72-5.61c.26,0,.31.69.7,1.15C661.23,140.1,660.81,139.21,660.63,138.92Zm-.68-1.21c.31,0,.39.59.55.79C660.29,138.53,660.13,137.91,660,137.71Zm20.91-6.86c.27-.27.64,0,1-.14C681.73,130.9,681.22,130.74,680.86,130.85Zm-17.67,11.59a7.87,7.87,0,0,1,.93.65A2.32,2.32,0,0,1,663.19,142.44Zm20.73-10.67c0-.11,0-.16,0-.28S684.06,131.77,683.92,131.77Zm-43.71,10.89c-.35.1-.85-.18-1.21-.3C639.27,142.25,639.84,142.63,640.21,142.66Zm38.52-14.2c-.05-.06,0-.13,0-.19.38,0,.92-.2,1.37-.21C679.75,128.29,679.4,128.2,678.73,128.46Zm4-1a4,4,0,0,1-.86-.05C682.05,127.32,682.44,127.41,682.71,127.51Zm-7.42,3.65c0,.36-.62.88,0,0Zm-34.61,10.5c-.06.11-.41,0-.47-.06C640.32,141.48,640.46,141.72,640.68,141.66Zm32.44-6.36c0-.21.1-.31.22-.58A1.12,1.12,0,0,1,673.12,135.3Zm-30.59,6c-.07.15-.44.15-.63.22a4.71,4.71,0,0,1,1-.48c0,.18-.31.12-.54.28C642.37,141.36,642.46,141.31,642.53,141.29Zm29.21-3.43a6.49,6.49,0,0,1,.63-1.3A3.11,3.11,0,0,1,671.74,137.86Zm-6.57,1c.34.11.5.67.82.86C665.67,139.69,665.56,139.36,665.17,138.91Zm9.77-7.86a8.62,8.62,0,0,1-.58,1.11A5.19,5.19,0,0,1,674.94,131.05Zm-17.18.18c.2-.21.63,0,1.15.09A3,3,0,0,1,657.76,131.23ZM649,134.51c.08-.21.53-.52.79-.75A3,3,0,0,1,649,134.51Zm12.48-3c-.27-.15-.21-.2-.45-.32C661.18,131.14,661.64,131.39,661.49,131.51Zm17.83,1.29c-.05.22-.2.29-.33.54,0,0,0-.07,0-.11s0,0-.07,0S679.16,132.89,679.32,132.8ZM680.7,131c-.06,0,0-.13-.21,0,0,.12.23.05,0,.14,0,.05.12,0,.18,0s0,.09,0,.11.07,0,.07-.07c.17.11-.1.27-.17.36s-.07-.13-.07-.16-.17.15-.28,0c.09-.06.06,0,.08,0s.09-.13.24-.16c-.15-.08-.41,0-.6.16s-.16.16-.22.24a.6.6,0,0,0-.12.25c0,.06-.28.06-.25.26s.21,0,.34-.17-.31.35-.41.51c-.06,0,.08-.15,0-.2s-.06.17,0,.24a17.93,17.93,0,0,0-2,3.38c.19-.19.09.06,0,.24-.08,0,0-.08,0-.16-.15.05-.16.37-.09.42-.13.08-.16.19-.28.41-.38.7-.18.44.09-.42a6.53,6.53,0,0,0-.52,1c-.1-.17,0-.27.15-.41-.55.16-.78,1.63-1.6,2.57a2.53,2.53,0,0,0,.49-.64c.14-.26.29-.54.41-.79.07.19-.11.29-.24.57.39,0,.54-1.23,1-1.32-.25.48-.51.94-.79,1.4a13.17,13.17,0,0,1-1,1.38,14.71,14.71,0,0,1-2.39,2.34c-.14.14-.16,0-.27.1a5.42,5.42,0,0,1-2.39,1.29,7.12,7.12,0,0,1-3.68,0c0,.18-.33-.13-.63-.11-.25-.15.26,0,.25-.1-.82-.3-1.07-.19-1.8-1,.43.26.63.53.94.61A8.43,8.43,0,0,1,663.3,142a12.46,12.46,0,0,1-1.08-1.3c.27.57.93,1.25.24.47a3.22,3.22,0,0,1-.57-.74c0-.17.1,0,.1-.17a21,21,0,0,0-1.5-2.17c.09,0,.15.24.24.24,0-.23-.35-.46-.32-.65s-.12,0-.18,0c-.09-.26-.12-.1-.26-.35.1,0,.18.16.28.12a4.92,4.92,0,0,0-1.11-1.5s0,.07.06.12c-.19.05-.25-.36-.49-.36a1.33,1.33,0,0,0,.36.42,1.8,1.8,0,0,1,.43.65c.23.41-.41-.46-.49-.53a3,3,0,0,0-1-.84,2.08,2.08,0,0,0-1.52-.06c.22-.28.85-.18,1.17-.2-.06-.17-.49,0-.47-.19-.14,0-.11.16-.3.13,0-.06.07-.08.07-.14a2,2,0,0,1-.46.08c0,.05.13,0,.2,0-.1.09-.62.22-.48.07a13,13,0,0,0-2.7,1.15,10.93,10.93,0,0,0-2.79,2.33c.1,0,.26-.29.37-.26s-.27.32-.36.37c.23.05.64-.49.86-.69a7.41,7.41,0,0,1,.7-.64,25.47,25.47,0,0,1-2.2,2.32c0-.06,0-.23-.15,0,.07-.21.48-.52.67-.77-.53.47-1.13,1.1-1.69,1.52.09.05.28-.27.38-.24-.66.64-2,1.61-2.48,2-.07.18-.86.23-1.12.33s-1,.81-1.36.51a.78.78,0,0,0,.31-.1c-.15,0-.46.1-.61,0,.18,0,0,.2-.36.34s-.67.21-.68.1a2.48,2.48,0,0,1-.62.24.39.39,0,0,1,.21-.18c-.15-.08-.61-.13-.75,0-.37,0-.35-.22-.94-.16-.09-.26-.44-.36-.84-.51.07-.09.52.1.61,0-.36-.11-.21-.28-.56-.37,0,0,.22,0,.21,0,.16,0-.24-.19-.24-.3-.36,0-.34-.07-.6-.11a11.19,11.19,0,0,0,3-.52c.16,0,.36-.06.48,0s.12-.14.27-.2c0,0-.28,0,0-.08-.13,0-.49,0-.5.1,0-.18.51-.4.9-.58a6.81,6.81,0,0,1,1.26-1c0-.11.06-.22.08-.32-.35.32-.89.61-1.06.9,0-.24-.25,0-.44.09.21-.35,1.18-.67,1.49-1.1-.49.2.11-.72.58-.8,0-.05,0-.21.17-.38,0,.06,0,.12-.08.19a5.59,5.59,0,0,0,1.78-1.44c.1.15-.22.4-.42.61a10.42,10.42,0,0,0,1.12-1.1c.38-.42.86-.95,1.33-1.43a14.47,14.47,0,0,1,3.26-2.59c.36-.2.79-.31,1.12-.49s.35,0,.53,0a6.91,6.91,0,0,1,3.39-.54c.11,0,.06,0,0,0A5.43,5.43,0,0,1,660,132a7.26,7.26,0,0,1,1.81,1.33,6.71,6.71,0,0,0-6.28-1.63c.58,0,1.24-.09,2-.06a5.85,5.85,0,0,1,2.35.53,6.38,6.38,0,0,1,2.28,1.87,7.29,7.29,0,0,1,1.29,2c.73,1.27,1.22,2.32,1.8,3.1a3.17,3.17,0,0,0,2,1.46c-.07-.08-.41-.15-.66-.29a.64.64,0,0,1,.32.09c.14,0,.3.11.45.13s.61.1.34.12-.26-.09-.4,0a1.44,1.44,0,0,0,1.23-.06c.41.14,1.5-.52,2.28-1.29a7.37,7.37,0,0,0,1.47-1.81c.42-.71.84-1.58,1.3-2.44,0-.11-.09,0,0-.1a1.21,1.21,0,0,1,.24-.2c0-.11-.11-.11,0-.29,0,0,0,.09,0,.15.33-.42.62-1.35,1-1.61-.1-.3.65-1.22,1-1.84.25.14-.12.33-.29.62.6-.56.53-.82,1.35-1.59a2.92,2.92,0,0,0-.94.95c.07-.59.95-1.31,1.5-1.73a3.39,3.39,0,0,0-.81.47c.39-.53,1.1-.55,1.66-1.05-.39.43-.92.55-1.23,1.1.27-.2.54-.38.81-.57a6.54,6.54,0,0,1,.93-.51,3.81,3.81,0,0,1,1.89-.36c.24,0,.12-.15.36-.16-.18.15.27.12.41.18,0,.08-.37,0-.53,0s.4,0,.47.07c-.12.13-.45,0-.6.05a1.55,1.55,0,0,0,1,.14c-.14.32.63.3.82.39-.08.1-.42,0-.6,0,.08.06.25.07.32.15-.08.23-.48.09-.63.21.32.09.75.11,1.08.24,0-.1-.29-.06-.21-.21.42.19,1,.46.89.68-.06,0,0,0,0,0-.39-.08-.73-.45-1.26-.36.09.16.25,0,.5.1-.26.11.05,0,0,.18-.31,0-.35-.15-.53-.11,0,.08,0,.1.05.05a2.3,2.3,0,0,1-.91.3,2,2,0,0,0-.94.45c.12,0,.26-.18.39-.05-.06-.21.14,0,.4-.19C681,130.7,680.75,130.71,680.7,131Zm-34.21,11.29c-.18.13-.49.08-.57.28C646.11,142.4,646.43,142.42,646.49,142.24Zm1-4.92c.19-.23.46-.29.44-.51C647.71,137,647.39,137.29,647.46,137.32Zm6.24-5.18c.06.07-.84.4-1.08.52a5.31,5.31,0,0,0,1.48-.65C654,132.06,653.72,132,653.7,132.14Zm24,2.61-.12-.05c-.1.12-.15.41,0,.27C677.47,134.86,677.7,134.92,677.72,134.75Zm-1,1.65c.14-.21.32-.25.43-.65C676.9,135.91,677,136.11,676.77,136.4Zm.92-2.09c-.11-.08-.43.55-.3.51A1.09,1.09,0,0,0,677.69,134.31Zm-3.29,5.92c0,.31-.53.51-.42.73C674.32,140.64,674.55,140.27,674.4,140.23Zm5.33-8.92s.06,0,.08,0,.24-.29.42-.26C680.13,130.94,679.73,131.31,679.73,131.31Zm-4.66,7.87c-.16.27-.33.51-.5.77.08.06,0,.2.19,0C674.58,139.9,675.23,139.13,675.07,139.18Zm-1.71,2.26c.22,0,.37-.29.57-.41C673.81,140.91,673.53,141.39,673.36,141.44Zm-25.57-.16c-.21.27-.62.32-.56.51C647.38,141.66,648,141.24,647.79,141.28Zm-4.65,2.17c.23-.11.7-.18.75-.33C643.53,143.32,643.3,143.2,643.14,143.45Zm.14-.33c.26,0-.3.13-.18.2a5.52,5.52,0,0,0,1-.45C643.85,143,643.47,142.94,643.28,143.12Zm28.43-4.84c.09-.16.36-.39.31-.52C672,137.94,671.67,138.15,671.71,138.28Zm-24.82,0c-.1.07-.22.26-.26.12-.24.23-.77.67-.53.7C646.09,138.88,646.72,138.66,646.89,138.26Zm-2.62,2.19c.63-.4.29-.45,0,0Zm11.05-8.73c-.21.07-.48.13-.45.23.21-.11.57-.1.55-.17S655.32,131.77,655.32,131.72Zm-10.44,7.62c.07,0,.06,0,0,.07.18-.09.4-.38.53-.36-.16.15,0,.14-.22.23.13.16.65-.3.63-.46-.12.07-.29.32-.38.26.21-.17-.12-.08,0-.25C645.29,139,644.9,139.24,644.88,139.34Zm23.8,1.13c0-.16.43-.2.44-.27C669.32,140.34,668.74,140.33,668.68,140.47ZM659.86,137c-.17,0-.12-.2-.29-.26,0,0,.06-.06,0-.1S659.76,136.79,659.86,137Zm20.37-5.49s0,0,0,0a1,1,0,0,1-.25.24c-.07-.11.14-.13,0-.13s.08-.09.1-.09a.1.1,0,0,0,0-.11c-.05-.07-.11.16-.11,0-.13,0,.06.13-.07.16-.07-.13.06-.23.22-.3C680.13,131.38,680.15,131.48,680.23,131.5Zm-18.54,9.31c.16-.09.33.08.58.44,0,.2-.42-.57-.5-.39a17.34,17.34,0,0,0,1.33,1.59,6.72,6.72,0,0,0,1.86,1.37c0,.19-.59-.21-.82-.35,0,0,.15,0,.21.09l-.69-.51c-.23-.21-.5-.44-.76-.69A9.5,9.5,0,0,1,661.69,140.81Zm21.71-10.09c-.24-.21-.54-.4-.1-.19.1.08.16.17.29.26s0,0-.06,0,0,0,0,.06c-.15,0-.24-.22-.45-.27C683.23,130.48,683.26,130.72,683.4,130.72Zm-30.87,6.64c-.09.17.11-.34.31-.31C652.79,137.17,652.7,137.18,652.53,137.36Zm-10.34,6.42c-.09,0-.15,0-.16.08-.23,0-.11-.16-.29-.15C641.74,143.66,642.24,143.65,642.19,143.78Zm38.28-15.55c-.2.19-.41,0-.71.11C679.93,128.16,680.22,128.29,680.47,128.23Zm-5.83,4c0-.08,0-.1-.08,0a10.31,10.31,0,0,1,.7-1.12c0,.19-.55.76-.29.81C674.88,132,674.39,132.47,674.64,132.2Z"/><path class="cls-2" d="M685.81,147.33c-.85-2.51-4.46-3-6.65-1.51s-3.28,4.08-4.27,6.55-2.09,5.07-4.29,6.51c-3,1.94-7,1.09-10.13-.56s-5.94-4-9.3-5.16-7.71-.6-9.51,2.48"/><path class="cls-2" d="M679.72,149.2c.07-.1.22-.24.23-.35C679.68,149.06,679.34,149.69,679.72,149.2Zm1-1.07c0-.08,0-.13.1-.17S680.79,148.09,680.73,148.13Zm-1.34,1.38a3,3,0,0,1-.4.66c0-.09,0-.17,0-.28C679.08,150.12,679.24,149.5,679.39,149.51Zm1.54-1.6c0-.08.08-.08.05-.17s0,.08-.1,0a.23.23,0,0,1,.15-.21c0,.07,0,.1.06.08C681.14,147.82,681,147.85,680.93,147.91Zm-2.42,2.9a1.86,1.86,0,0,1-.36.8C678.13,151.33,678.42,151.08,678.51,150.81Zm.89-1.62c0,.06-.18.46-.3.37C679.19,149.35,679.31,149.35,679.4,149.19Zm-.13,0c-.2-.11.42-.61.62-.88C679.81,148.64,679.41,148.77,679.27,149.15Zm-2,4.49-.14.36c-.18,0,0-.26,0-.39Zm-.32.58c0,.12-.19.79-.35.73C676.73,154.59,676.76,154.51,676.9,154.22Zm-4.56,6.54a13.5,13.5,0,0,1,1.2-1.19A5.18,5.18,0,0,1,672.34,160.76Zm-7.55,1.61c.13-.22.81.15,1.4.07A4.81,4.81,0,0,1,664.79,162.37Zm-1.57-.28c.28-.19.83.13,1.12.13C664.22,162.4,663.56,162.12,663.22,162.09Zm18-15.08c.23-.26.56,0,.84-.11C682,147.1,681.55,146.92,681.24,147Zm-12.33,15.1a3.72,3.72,0,0,1,.86-.34A1.84,1.84,0,0,1,668.91,162.11Zm15.22-14.21c0-.11-.07-.13-.09-.26S684.27,147.87,684.13,147.9Zm-41.66,7c-.09.27-.43.56-.59.83C641.81,155.53,642.26,155.14,642.47,154.94Zm36.83-10.42c0-.07,0-.13,0-.19.35,0,.85-.15,1.26-.13C680.23,144.41,679.92,144.3,679.3,144.52Zm3.65-.8a2.61,2.61,0,0,1-.79-.06A1,1,0,0,1,683,143.72Zm-7,3c0,.35-.63.79,0,0Zm-34,7.22c0,.1-.29.41-.38.44C641.54,154.23,641.81,154.17,641.94,154Zm31.94-3.35c-.06-.2.07-.3.18-.56A1,1,0,0,1,673.88,150.6Zm-30.13,1.94c-.07.13-.47.27-.66.43a2.54,2.54,0,0,1,1.06-.77c0,.19-.36.19-.61.39C643.57,152.63,643.67,152.57,643.75,152.54Zm29.08.74a4.85,4.85,0,0,1,.41-1.41A3.79,3.79,0,0,1,672.83,153.28Zm-5.73,5.27c.23-.23.74-.08,1.1-.24C667.94,158.52,667.63,158.46,667.1,158.55Zm8.55-12a11,11,0,0,1-.6,1A4,4,0,0,1,675.65,146.6ZM659.85,156c.21-.12.37.14.67.27A.83.83,0,0,1,659.85,156Zm-6.12-4.27c.22,0,.62.27.91.38A2.33,2.33,0,0,1,653.73,151.68Zm8.38,4.37c-.15,0-.1-.11-.22-.15C662,155.83,662.21,155.9,662.11,156.05Zm17.71-7.32c-.05.18-.17.24-.3.43,0,0,0-.06,0-.09s0,0-.06,0S679.67,148.77,679.82,148.73Zm1.27-1.63c-.05,0,0-.13-.17,0,0,.12.19.07,0,.14,0,.05.1,0,.16,0a.14.14,0,0,1,0,.11s.06,0,.05-.07c.15.11-.07.27-.14.34s-.07-.14-.07-.17-.14.15-.24,0c.08,0,.05,0,.07.06s.07-.14.21-.14c-.28-.19-.85.32-.89.54s-.26,0-.23.21a.25.25,0,0,0,.31-.1c.1,0-.28.28-.37.41-.06-.06.08-.12,0-.18s0,.14,0,.21a11.46,11.46,0,0,0-1.79,2.76c.17-.16.09,0,.06.21-.08,0-.06-.07,0-.14-.14,0-.13.31-.05.35-.12.06-.15.16-.24.34-.28.58-.13.37.05-.35-.17.14-.26.58-.39.86-.13-.14,0-.23.09-.35-.51.12-.58,1.41-1.09,2.21a5,5,0,0,0,.57-1.24c.1.16-.06.25-.14.5.36-.06.32-1.06.71-1.13A47,47,0,0,1,675,157.2c-.07.16-.13.05-.19.15a5.4,5.4,0,0,1-1.3,1.83,13,13,0,0,1-2.32,1.74c.12.11-.26.13-.4.31s.12-.16.06-.22c-.61.34-.63.57-1.49.66a6,6,0,0,0,.84-.31,12.6,12.6,0,0,1-3,.66c.59.07,1.4-.16.48,0a3.1,3.1,0,0,1-.86.11c-.14-.09.06-.09-.08-.18-1.08.1-1.9-.05-2.72,0,0-.08.32.05.38,0-.18-.18-.65,0-.79-.2-.1,0-.08.1-.11.16-.3-.13-.18,0-.51-.08.08-.05.28,0,.32-.1-.75-.17-1.57-.54-2.4-.77,0,.05.11.08.18.12-.22.09-.62-.33-1-.38a13.88,13.88,0,0,0,2,.95c.63.28-.85-.22-1-.33a42.48,42.48,0,0,1-4.61-2.71c.42,0,1.12.64,1.68.89,0-.21-.76-.4-.6-.55-.18-.1-.23,0-.44-.15,0,0,.13,0,.18-.05a2.06,2.06,0,0,1-.55-.33c0,.06.12.11.19.17-.18,0-.78-.4-.52-.37-1.66-1-3.45-2.73-5.54-3.28,0,.11.32.1.33.2s-.35-.08-.41-.14c0,.21.59.34.83.45a5.52,5.52,0,0,1,.77.34c-.8-.14-1.6-.6-2.44-.8,0,0,.15-.13,0-.13.16-.08.48.1.7.13a11.66,11.66,0,0,0-1.53-.45c0,.1.27,0,.3.13a6.06,6.06,0,0,0-2.14-.14c-.09.11-.58-.25-.76-.24s-.71.39-1,0a.33.33,0,0,0,.21,0c-.11-.08-.31,0-.42-.08.23.09-.57.55-.64.34-.12.17-.18.17-.3.29a.23.23,0,0,1,.06-.19c-.12-.07-.46,0-.43.18-.19.1-.36-.13-.58.2a.58.58,0,0,0-.73.15c-.05-.11.26-.31.24-.41-.28.13-.32,0-.55.16,0,0,.07-.18.12-.14,0-.15-.27.08-.37,0a3.45,3.45,0,0,1-.3.5,4,4,0,0,1,2-2.48c.18,0,.38-.11.51-.05s.11-.17.27-.22c0-.05-.29,0,0-.08a1.41,1.41,0,0,0-.54.15c-.08-.19.56-.49,1-.61a3.34,3.34,0,0,1,1.68-.54,2,2,0,0,0,.25-.25,3.79,3.79,0,0,0-1.52.45c.1-.24-.29,0-.53,0,.36-.35,1.58-.39,2.11-.56-.63-.07.59-.58,1.08-.31,0-.06.2-.13.45-.17,0,.06-.1.09-.23.09.6.21,1.61.26,2.54.49-.09.17-.49,0-.81,0a22,22,0,0,1,6.63,2.6c.28.19.52.44.78.58s.15.23.24.35c.9.52,1.31.85,2.08,1.35.06,0,0,0,0,0,.8.43,1.85,1.11,2.58,1.4a18.32,18.32,0,0,1-3.92-2.15,9.08,9.08,0,0,0,2.56,1.67,17,17,0,0,0,1.77.87c.6.24,1.33.33,1.63.52a9.86,9.86,0,0,0,2.92.23,5,5,0,0,0,2.4-.79,6.07,6.07,0,0,0-.72.33,3.46,3.46,0,0,1,.75-.46c.14-.06.6-.35.38-.15s-.28.13-.37.25a2.1,2.1,0,0,0,1-.86c.43-.11,1-1.18,1.54-2.11.7-1.23,1.15-2.87,2-4.56,0-.11-.09,0,0-.1a1.44,1.44,0,0,1,.22-.19c0-.1-.1-.11,0-.28,0,0,0,.09,0,.14.31-.4.58-1.26,1-1.48-.1-.31.65-1.12,1-1.67.23.16-.12.3-.3.56.6-.47.54-.72,1.35-1.37a2.37,2.37,0,0,0-.93.8c.07-.55,1-1.15,1.49-1.48a2.9,2.9,0,0,0-.79.36c.39-.47,1.07-.41,1.58-.81-.37.36-.84.42-1.17.9a12.64,12.64,0,0,1,1.64-.85,3.66,3.66,0,0,1,1.73-.24c.22,0,.11-.14.33-.14-.16.15.24.12.37.19,0,.07-.33,0-.48,0,0,.18.36,0,.42.09-.1.11-.4,0-.53,0a1.22,1.22,0,0,0,.94.18c-.13.32.56.31.73.39-.08.09-.37,0-.54,0,.07.06.23.06.29.14-.08.24-.44.08-.57.2.28.1.66.13,1,.25,0-.1-.27,0-.19-.2.37.18.89.44.79.65,0,0,0,0,0,0-.35-.07-.65-.42-1.12-.34.08.16.22,0,.44.1-.24.13,0,.05,0,.18-.28,0-.3-.15-.47-.1s0,.09,0,0a1.9,1.9,0,0,1-.81.28,1.58,1.58,0,0,0-.82.39c.11.06.22-.17.34,0,0-.21.12,0,.36-.17C681.38,146.86,681.14,146.88,681.09,147.1ZM647,154.38c-.14,0-.32-.17-.42,0C646.69,154.32,646.89,154.51,647,154.38Zm3.59-2.85c.33,0,.52.25.71.13C651,151.55,650.55,151.44,650.56,151.53Zm6.71,2.92c0,.08-.62-.39-.8-.53a2.5,2.5,0,0,0,1,.73C657.44,154.6,657.38,154.38,657.27,154.45Zm21.08-4.2-.12-.06c-.08.1-.12.35,0,.24C678.12,150.33,678.34,150.4,678.35,150.25Zm-.81,1.36c.12-.17.28-.19.37-.53C677.63,151.2,677.74,151.38,677.54,151.61Zm.77-1.74c-.11-.08-.4.44-.27.41S678.32,150,678.31,149.87ZM676,154.94c0,.26-.32.51-.15.68C676,155.28,676.13,155,676,154.94Zm4.24-7.57s0,0,.08,0,.2-.27.38-.21C680.58,147.05,680.23,147.37,680.22,147.37Zm-3.9,6.64-.27.67c.1,0,.08.17.19,0C676.05,154.64,676.45,154,676.32,154Zm-.88,2.12c.22,0,.22-.31.36-.45C675.65,155.6,675.57,156.06,675.44,156.13Zm-27.38-1.77c-.23,0-.47-.12-.52.06C647.68,154.38,648.17,154.44,648.06,154.36Zm-3.37.21c.13-.09.41-.15.45-.26C644.91,154.43,644.75,154.35,644.69,154.57Zm0-.31c.18,0-.19.12-.08.19.23-.19.48-.19.66-.34C645.1,154.18,644.81,154.08,644.71,154.26Zm28.19-.57c0-.18.25-.45.19-.57C673,153.3,672.84,153.58,672.9,153.69Zm-23.48-2.1c-.12,0-.35,0-.27-.11-.35,0-1.08-.07-.91.12C648.38,151.43,649,151.72,649.42,151.59Zm-3.6.23c.8-.15.48-.32,0,0Zm12.44,3.44c-.14-.09-.3-.21-.36-.12.17.05.33.28.37.23A.07.07,0,0,1,658.26,155.26ZM647,151.07c.09,0,0,0,0,.09.22,0,.62-.09.72,0-.24,0-.08.12-.36.06,0,.19.77.14.87,0-.15,0-.47,0-.51-.05.3,0,0-.14.21-.17A2.21,2.21,0,0,0,647,151.07Zm23.9,5.74c-.09-.14.29-.4.27-.46C671.41,156.37,670.9,156.64,670.9,156.81Zm-8.39,4.77c-.13.13-.29-.09-.51-.07,0,0,0-.08,0-.11S662.25,161.49,662.51,161.58Zm18.17-14c0,.05,0,0,0,0s-.12.13-.25.22c-.06-.12.16-.13,0-.14s.09-.06.11-.06a.2.2,0,0,0,0-.11c0-.07-.09.15-.1,0-.13,0,0,.13-.07.14s.06-.21.19-.27C680.59,147.47,680.61,147.57,680.68,147.6ZM667,162.52c0-.19.23-.26.62-.28.18.07-.64.06-.55.23.78-.1,1.3-.18,1.82-.29a8.71,8.71,0,0,0,1.76-.53c.13.14-.41.25-.6.34,0,0,.09-.08.15-.1A11.4,11.4,0,0,1,667,162.52ZM683.5,146.9c-.23-.2-.49-.38-.09-.19a2.27,2.27,0,0,0,.27.24s0,0,0,0,0,0,0,.05c-.15,0-.23-.21-.42-.24C683.33,146.67,683.36,146.89,683.5,146.9ZM652.44,156c-.18,0,.34-.06.38.13C652.7,156.16,652.66,156.08,652.44,156Zm-8.22-1.08c-.05,0-.06.06-.05.1s-.13-.11-.22,0S644.18,154.8,644.22,154.94Zm36.68-10.55c-.18.19-.38,0-.65.07C680.4,144.28,680.67,144.46,680.9,144.39Zm-5.58,3.29c0-.09,0-.11-.08-.05a8.73,8.73,0,0,1,.71-1c0,.19-.56.68-.3.76C675.55,147.51,675.07,147.92,675.32,147.68Z"/><path class="cls-2" d="M702.67,154.46a87.14,87.14,0,0,0-23.11,42l26-23.4-13.92,79.6,17.2-33.1a57.07,57.07,0,0,1,1.31,27,83.91,83.91,0,0,0-1.62-94.38"/><path class="cls-2" d="M686,186.77l-.92.83v.08h0l.14-.12L687,186C687.89,185.15,688,185,686,186.77Zm-1.08,1c-.15.18-.14.12-.12,0C685,187.68,685,187.77,685,187.79Zm3.92-3.47c1.47-1.39,2.59-2.39,4.43-4-.47.47-.67.76-1.28,1.33C692.75,180.75,689.41,184,688.88,184.32Zm-4,3.42c-.12.06,0-.07-.13-.05s0,0,0,.15-.12-.09-.05-.28c0,.06.08,0,.11-.05C684.91,187.57,684.87,187.67,684.87,187.74Zm12.7-11.1c1.74-1.69,6.71-6.11,8.61-7.76-1.22,1.19-2.62,2.44-4.11,3.76S699,175.34,697.57,176.64Zm-10.2,9.29a20.76,20.76,0,0,1,2.8-2.48C689,184.59,688.46,184.92,687.37,185.93Zm.38-.17a14.45,14.45,0,0,1-2.3,2.22,8.12,8.12,0,0,0-.75.67,2.62,2.62,0,0,1,.54-.62l.13-.09.71-.63C686.65,186.8,687.21,186.29,687.75,185.76Zm18.45-.95-.38,2.2c-.22.36.19-1.44.29-2.2Zm-.72,3.67a30,30,0,0,1-.81,4.42C705.08,190.69,705.16,190.25,705.48,188.48Zm-6.83,39c.05-1.23.73-4.8,1.17-7.35C699.51,222.45,699.18,224.19,698.65,227.46ZM697.49,236a1.21,1.21,0,0,1-.23.64c-.07.07-.09,0-.27.46A10.06,10.06,0,0,1,697.49,236Zm.45-.91a.65.65,0,0,1-.12.51,2.24,2.24,0,0,0-.21.36,1.35,1.35,0,0,1,.15-.52A1.66,1.66,0,0,0,697.94,235.08Zm-12.73-50.44c.68-2.34,2.06-4.5,3.11-7a19.13,19.13,0,0,1-1.25,2.79C686.46,181.75,685.71,183.3,685.21,184.64Zm11.73,51.58c-.1.08-.06-.23,0-.58C697.05,235.64,697,235.93,696.94,236.22Zm7-80.51c-1,1-1.39,1.47-2.53,2.65A17.28,17.28,0,0,1,703.94,155.71Zm7.87,1.89c-1-1.31-2.41-3.68-3.47-5.28C709.08,153.1,710.82,156.08,711.81,157.6Zm-31.95,33.47c-.12.15,0-.5-.09-.31.42-1,.81-2.38,1.35-3.77.22-.57.45-1.15.68-1.73s.42-1,.63-1.45c-.3.88-.57,1.62-.95,2.57C681,187.58,680.51,189,679.86,191.07Zm7.37-18.28c-.25.45-1.15,2.32-1.79,3.34A21,21,0,0,1,687.23,172.79Zm3.35,15.91c1-1.14,3.91-3.43,0,0Zm23.12-29.86c-.22-.23-1.3-2.27-1.52-2.6a4.55,4.55,0,0,1,.68,1C713.09,157.73,713.36,158.28,713.7,158.84ZM703,178.37c-.08-.11,0-.39.09-.83l-.33.28q.19-.23.42-.45A5.61,5.61,0,0,1,703,178.37Zm16-8.73c-.18-.27-.37-1-.72-1.68s-.68-1.54-.95-2.1c.56,1.09,1,1.86,1.39,2.75s.74,1.9,1.3,3.44c-.35-.54-.73-2-1.38-3.5A7.16,7.16,0,0,0,719,169.64ZM700.7,192c.24-2.5.76-5,1.38-8.82C701.8,185.77,701.34,188.08,700.7,192Zm-11.32,65.47a51.49,51.49,0,0,1,.8-5.11c.41-2.29.88-4.77,1.21-6.8-.18,1.45-.44,3-.79,4.95S689.82,254.73,689.38,257.43Zm1.77-68.77c.84-.9,3-2.76,4.39-4C694.69,185.53,692.51,187.39,691.15,188.66Zm18.12,42.69a6.79,6.79,0,0,1-.28-1.66c0-.37-.09-.78-.13-1.22,0-.16,0-.32-.07-.49l0-.37a1.83,1.83,0,0,1,.1.27l.07.25c0,.18.06.37.09.58A18.91,18.91,0,0,1,709.27,231.35Zm14.15-9a19.18,19.18,0,0,1-.55,2.37c-.31,1-.65,2-.9,2.79C722.31,226,723,224.21,723.42,222.32Zm-15.65,5.33c0-.14,0,.09,0,.07C707.74,228,707.75,228.09,707.77,227.65Zm-22.65-39.74c0-.1.06-.13.1-.16l1.52-1.37s-.31.32-.52.52c0,.07.15-.07.32-.22-.07.08-.23.24-.46.46l-.77.69A.32.32,0,0,1,685.12,187.91Zm-.39-1.91c-.09.2-.1.14-.16.23a1.63,1.63,0,0,0-.13.3c-.06.16-.14.4-.27.77,0,0,.05,0,.12-.1l.14-.31c0-.07.05-.09,0,0s-.07.23-.18.53a.12.12,0,0,0,0-.05.61.61,0,0,0,.08-.19l.3-.84a2.32,2.32,0,0,1-.15.7,1.62,1.62,0,0,0,.2-.69c.26-.52.19-.16,0,.46l-.15.49a.48.48,0,0,0,0,.13v.05l0,.18c-.06.16-.18.06-.2,0-.06.32-.05.4-.33.62.07-.25.07-.14.14-.17.11-.28,0-.28.15-.62a4.79,4.79,0,0,0-.63,1.63,4,4,0,0,0-.12.75c-.09.3.23-.12.32-.22s.1-.1.17-.13.18-.1.33-.34,0-.17-.29.09c.07-.18.57-.55.78-.77,0,.14-.2.22-.25.4a.9.9,0,0,0,.31-.45c6.22-5.6,11.21-10.08,18-16.17-1.87,1.56.1-.23,1.54-1.57.17,0-.42.49-1,1.05a26.73,26.73,0,0,0,3.09-2.91c.69-.53,1.38-1.14,2.58-2.21-.07.35-.14.77-.22,1.24-1.18,6.52-.86,5,.12-1.07l-2.1,1.93c.49-.39,1.18-1,2-1.72l-1.33,7.76a18.45,18.45,0,0,1,.61-3.82c-.58,2.12-1.25,6-2,10.59-.45,2.75-.94,5.84-1.46,8.38.43-1.76.93-5,1.41-7.73a19,19,0,0,1-.46,2.94,6.61,6.61,0,0,0,.38-1.42c.06-.34.12-.71.19-1.1s.15-.92.23-1.4c.5-3,1-5.9,1.41-7.32-2.16,11.91-4,22.17-6,32.94a11.24,11.24,0,0,1-.28,1.1c-1,7.35-2.45,13.49-4.2,23.9.21-.22-.24,1.24-.28,2.21-.22,1,0-.84-.06-.73-.06.39-.11.75-.16,1.07a1.62,1.62,0,0,0,0,.27v.52a4,4,0,0,1-.26,1.15c0-.49.21-.9.19-1.15-.28,1.3-.6,3.26-.73,4.18.33-1.3.32-1.82.26-1a1.74,1.74,0,0,1-.07.71l-.1.32-.09.28L696,240l-.06.22c.39-.83.75-1.57,1.08-2.26a16.31,16.31,0,0,0,.78-1.88c0,.2-.17.36-.21.59.05.08.16-.19.25-.41s.16-.43.24-.45,0-.2,0-.29a.42.42,0,0,0,.11-.23.29.29,0,0,1,0-.09l0-.07,0,0,.06-.13a1,1,0,0,1,0,.12v0l0,.11a.33.33,0,0,0,0,.2l2.46-4.7,1.54-3,1.89-3.73a4,4,0,0,0-.38.64l-.55,1a5.89,5.89,0,0,1,.27-.61l.45-.9c.34-.66.76-1.44,1.2-2.28s.9-1.7,1.36-2.56.86-1.5,1.24-2.23c-.2.3-.45.7-.75,1.19l-.47.78c-.17.33-.36.67-.55,1L703.32,225l-1.62,3.1c-.49.93-1,1.77-1.34,2.44-1.66,3.09,2-4,2.52-5,1-1.88,2-3.75,3-5.64.51-1,1-1.79,1.47-2.6l1.45-2.44.72-1.22.18-.3c0-.11.05,0,.07.08l0,.18.2.76.81,3c.25,1,.51,1.94.77,2.92l.38,1.47.33,1.56.32,1.57.24,1.47.12.74c0,.24.08.53.09.65l.11.95c.15,1.27.25,2.56.31,3.86a61.81,61.81,0,0,1-.1,8c0-1.1.09-3,.08-5.13a51.81,51.81,0,0,0-.34-6.09c-.05.44.1,1.68.16,2.78s.09,2.06,0,1.91a21.9,21.9,0,0,1,.12,2.68c-.05-.12-.07-.66-.13-.74a32.11,32.11,0,0,1-.13,3.86,11.41,11.41,0,0,0,.13-1.55c.08,1-.36,5.27-.33,3.86-.15,1.5-.39,3-.72,4.77l-3.71-1.52,2.09-3.37,1.09-1.75c.35-.6.65-1.23,1-1.85.66-1.25,1.32-2.53,2-3.83l1.74-4.08a39.84,39.84,0,0,0,1.57-4.25c.46-1.45,1-2.88,1.35-4.39l1.11-4.49c.24-1.53.49-3,.73-4.57-.14.23-.35,2.21-.5,2.52-.15.71.36-2.39.47-2.88a17.11,17.11,0,0,0-.57,2.65l-.31,1.89c-.11.61-.26,1.15-.36,1.56-.41,1.6-.75,3.43-1.33,5.29,1.12-5,2.58-10.58,3-17.15,0,.21.09.82.17-.39,0,1-.29,3.5-.42,5.08.21-1.77.38-3.73.58-5.68s.11-3.89.19-5.62c-.1.18,0,1.94-.12,2.21,0-1.14.12-2.5,0-3.93s-.14-2.95-.21-4.4a17.93,17.93,0,0,0-.2-2.12c-.08-.68-.16-1.33-.24-1.93-.15-1.2-.28-2.22-.4-2.9s-.49-3.9-.7-5.15c0-.26-.11-.54-.17-.84s-.17-.6-.27-.91c-.18-.62-.38-1.27-.56-1.88a9.07,9.07,0,0,1-.55-2.83,12.27,12.27,0,0,0,.36,1.43c0-.55-.48-2.08-.57-2.56.32,1.37-2.1-4.93-1.81-4.81l-1.28-2.62a5,5,0,0,1,.57.92,12.58,12.58,0,0,0-1.31-3.06,16.12,16.12,0,0,0-1.7-3.73,12.44,12.44,0,0,0-1.68-3.84c.31.17,1.28,2.24,1.55,2.51a9.69,9.69,0,0,1-.57-1.39,4.8,4.8,0,0,0-.69-1.39,2.93,2.93,0,0,1,.6.94c.21.33.09,0-.12-.43a5.84,5.84,0,0,1-.49-1c-1.12-1.53-1.06-1.58-1.88-2.78,2.72,3.08,6.56,10,8.77,15.12.29.92.67,2,.76,2.57.26.66.41.83.72,1.71,0-.1-.46-1.51.08,0-.22-.71-.87-2.74-1-2.88a8.88,8.88,0,0,1,.93,2c.22.59.47,1.25.73,1.92s.4,1.37.58,2c.44,1.37.88,2.71,1.34,4.15s.72,3.07,1.06,4.94c.18.49.35,1,.52,1.4-.65-2.7-1.25-6.42-2-8,.42.74-.32-1.44-.61-2.61a45.27,45.27,0,0,1,1.53,5.2c.42,2.15.89,4.38,1.21,5.81-.08-.8-.11-1,0-.83a5.81,5.81,0,0,1,.37,1.46,37.61,37.61,0,0,1,.63,4.93,8.27,8.27,0,0,1,.33,2.23,4.34,4.34,0,0,1-.15-1.12c0,1.56.09,3.67.14,6,0,1.17,0,2.39-.07,3.63a35.18,35.18,0,0,1-.16,3.71,5.31,5.31,0,0,1,0-1.53c0-.8,0-1.79,0-2.62,0,2.68-.38,5.66-.64,8.85a97.24,97.24,0,0,1-1.82,9.9c-.2.85-.4,1.7-.59,2.55s-.52,1.67-.78,2.51l-.79,2.51-.4,1.25-.49,1.21c-.65,1.61-1.3,3.21-1.94,4.77s-1.5,3-2.23,4.42c-.23.44-.45.89-.69,1.32l-.79,1.25c-.52.81-1,1.61-1.47,2.35a20.14,20.14,0,0,1-1.26,1.78l-5,7,2.13-8.14,0-.13a60.24,60.24,0,0,0,.89-7.41,55.68,55.68,0,0,0,0-7.06c0-.41,0-.19,0,0-.07-.67-.14-1.37-.21-2.11,0-.36-.09-.73-.14-1.11l-.06-.46,0-.34c-.07-.49-.14-.8-.2-1.18s-.15-.74-.24-1.11-.18-.75-.28-1.12c0,0,0-.14,0-.08l-.06.12-.13.23-.25.47-.92,1.76c.4-.79.85-1.7,1.33-2.68l0-.09,0-.05,0,.05.05.2.12.39.21.82c.14.55.25,1.13.36,1.72.05.38.11.76.17,1.14.07.6.16,1.2.21,1.81.12,1.21.22,2.43.25,3.64a54.25,54.25,0,0,1-.2,7,41.08,41.08,0,0,0,.27-8.42c0-.78-.13-1.57-.21-2.38l-.15-1.21-.08-.61-.06-.39-.13-.76-.12-.65c-.09-.42-.18-.85-.29-1.28s-.13-.56-.21-.83l-.11-.42c0-.05,0-.16-.06-.18l-.09.18-.78,1.47-2,3.71-2.89,5.64-1.34,2.6c-.57,1.08-1.07,2-1.46,2.69-4.11,7.93-7.73,14.91-11,21.22,1.84-10.61,3.49-20.1,5.36-30.91-.1.39-.26,1.3-.45,2.39-.25,1.41-.53,3-.78,4.5,0-.29.11-.81.22-1.5s.22-1.34.35-2.16c.22-1.22.47-2.67.7-4,.2-1.12.95-5.16.59-2.94-.26,1.7-.44,2.22-.56,3.31.84-4.43,1.52-8.35,1.7-9.93.67-2.66,1.93-10.93,3.12-17.65.77-4.46,1.6-9.23,2.45-14.18.41-2.39.84-4.83,1.26-7.29.24-1.31.49-2.63.73-4l-.13.12c-.24.24,0,.08-.25.34a2.26,2.26,0,0,1-.44.22c-.24.25-.22.39-.62.69,0-.08.18-.22.3-.34-.49.36-1.28,1.08-2,1.72l-1.89,1.66c-.6.52-1.13,1-1.54,1.26-.73.94-5.2,4.68-7.71,7-.25-.16,1.18-1.18,2.41-2.31-1.52,1.24-2.41,2-3.43,2.95l-2.2,2-3.33,2.94c.85-.7,1.76-1.46,2.84-2.38s2.49-2.18,3.36-3c-.56.68-2.93,2.82-5,4.67-.53.47-1.1,1-1.6,1.39l-1.46,1.2-2.6,2.14c1.05-.77,2.41-1.83,3.94-3-1.55,1.36-2.9,2.37-4.15,3.31-.16.11-.33.26-.46.34l.23-.8.43-1.56c.28-1,.53-2,.76-3-.31,1.38-.69,2.94-1.11,4.57l-.08.31s0,.12,0,.14l.1-.09.44-.37.92-.77c.63-.54,1.3-1.13,2-1.81l-2.12,1.72L678,199c-.15.17,0-.1,0-.2l.1-.38.2-.77c.52-2.07,1.06-4,1.6-5.89s1.18-3.84,1.87-5.52c.54-1.43,1.18-2.79,1.78-4.09.49-1,.17-.68.66-1.74-.26,1,.61-1.06,1-1.66,0,.19-.79,1.64-1.11,2.39,0,.35.81-1.81,1-2a24.39,24.39,0,0,1-1.26,2.73,37.55,37.55,0,0,0,2.45-4.7c-.08.88,1.81-2.92,2.44-3.85-.12.36-1.11,2-1.54,3,.27-.39.72-1.24,1-1.61.07.44-1.22,2.48-1.48,3.36.9-1.65,2.15-3.94,3.32-5.82-.2.17-.94,1.62-.9,1.23,1.37-2.25,3.7-5.64,3.9-5.51-.22.35-.07.19,0,0a69.62,69.62,0,0,0-4.62,7.55c.43-.54.76-1.42,1.65-2.89-.66,1.49.24-.33.35-.26-1,1.88-1.35,2.09-1.83,3.2,0,.11.25-.28.21-.31-.18.52-.55,1.34-1,2.35s-1,2.21-1.54,3.48c-.26.63-.53,1.27-.8,1.9l-.71,1.89c-.23.6-.43,1.19-.6,1.74l-.13.4c0,.13-.08.28-.09.3l-.06.3c.09,0,.53-1.75.91-2.26-.21,0,.39-1,1.15-3.06A36.89,36.89,0,0,0,684.73,186Zm36.1-.09a28.14,28.14,0,0,0-.51-2.9A25.91,25.91,0,0,0,720.83,185.91Zm4.27,20.29a30.82,30.82,0,0,0-.29,3.78A32.45,32.45,0,0,0,725.1,206.2Zm-12.22,39.1c-.16,0,2.35-3.71,2.87-4.94-.62,1.19-3,4.82-3.9,6.55A11.57,11.57,0,0,0,712.88,245.3Zm-17.2-66.42.11.08c.66-.55,1.81-1.7,1-1.05C696.69,178.2,696.33,178.22,695.68,178.88Zm12.11-10.69c-1.66,1.43-2.36,1.87-5.35,4.65.94-.71,1.64-1.33,2.45-2.07S706.6,169.2,707.79,168.19ZM694.2,180.51a16.2,16.2,0,0,0,2.53-2.22C696.1,178.79,694.61,180.07,694.2,180.51ZM704,194c-.08,1.23-.65,3.22-.5,3.67C703.84,195.64,704.13,193.78,704,194Zm-20.57-4.22a.87.87,0,0,1,.18-.31,4.48,4.48,0,0,0,.15-.68,2.11,2.11,0,0,1,.24-.69,2.12,2.12,0,0,0-.37.88C683.49,189.38,683.39,189.77,683.38,189.8Zm21.47-1.29-.7,4.05c.11,0,0,.69.25-.38C704.17,192.35,705,188,704.85,188.51Zm-2.1,12.5a23.9,23.9,0,0,0,.64-2.95A24.78,24.78,0,0,0,702.75,201Zm19.09-7.49a25.9,25.9,0,0,0-.49-3.62c.06.49.21,1.59.32,2.48S721.81,193.93,721.84,193.52Zm-5-23.31c.41,1,1,3,1.31,3.42A28.38,28.38,0,0,0,716.82,170.21Zm.61.89c.35,1.14-.54-1.4-.49-1,.76,1.86,1.22,3.42,1.81,4.81C718.27,173.65,717.91,172.08,717.43,171.1Zm-16.89,23.06c.17-1.12.6-3.17.59-3.68C701,191.6,700.53,193.65,700.54,194.16Zm24.45,6c0-.34,0-.81,0-1.15s0-.56.07-.38c-.1-1.88-.32-5.82-.45-4.86a19.11,19.11,0,0,1,.19,2.64C724.85,197.69,725,199.11,725,200.2Zm-2.45-19.42c.89,4.28.8,2.74,0,0Zm-13.13,60.66a12.51,12.51,0,0,0-.18,2.16c.11-1,.38-2.49.3-2.53C709.5,241.35,709.45,241.49,709.41,241.44Zm15-54.21c.06.46,0,.25-.08,0,.12,1.16.48,3.22.45,3.78a12.93,12.93,0,0,1-.29-1.87,8.26,8.26,0,0,0,.13,2.11c.07.53.15,1.08.23,1.52a7.78,7.78,0,0,0,.13.91c0-.8-.33-2.46-.24-2.66.21,1.58.1-.26.32,1.08C724.85,190.44,724.54,187.7,724.4,187.23Zm-28.16,31.2c-.12-.3.56-3.46.54-3.68C697.14,213.88,696.26,217.55,696.24,218.43Zm3.31,14.19a23.2,23.2,0,0,1,1.11-2.34c0,.06.12-.05.26-.31C700.79,230.36,700.21,231.4,699.55,232.62Zm-15.26-44.35c.06-.05,0,0,0,.07a1.69,1.69,0,0,1-.1.58c-.22.3.06-.35-.11,0s.05-.24.08-.3,0-.07-.09,0,0,.28-.19.32c-.17.42.21-.19,0,.2s-.11-.19,0-.64C684.05,188.51,684.18,188.43,684.29,188.27ZM697,236.85c-.38,1.1-.46,1.2-.36.75s-.1.57.28-.53a4.8,4.8,0,0,1,.13-1l.25-1.24c.19,0,0,.22.05.31s-.05,0,0,0a5.72,5.72,0,0,0-.16.84C697.1,236.23,697.07,236.47,697,236.85Zm-2.39-70.28c-1.69,2.3-3.12,4.33-1,1.15.58-.87,1.12-1.41,2-2.66.08,0,0,.13-.17.32s.12-.1.25-.28c-.61,1.05-1.83,2.41-2.75,3.9A23,23,0,0,1,694.6,166.57Zm23.34,58.67a14.68,14.68,0,0,1-.74,2.43C717.34,227,717.54,226.61,717.94,225.24Zm-3-59a2.26,2.26,0,0,0-.34-.64c-.44-.91,0-.42-.32-1.12C714.39,164.47,715.24,166.47,715,166.23Zm-31.74,16.22c-.28,1.13-.85,1.68-1.31,3.15A23.7,23.7,0,0,1,683.25,182.45ZM695,184.72c-.34.32-.21.31.07.06L690.37,189c.4-.54,3.38-2.94,2.9-2.85C693.92,185.57,696.4,183.61,695,184.72Z"/><path class="cls-2" d="M1999.51,187c4.2,8.48,8.44,17.06,10.63,26.32s2.16,19.4-1.94,27.85-12.84,14.75-21.91,13.88c-5.86-.55-11.23-3.92-15.45-8.25s-7.44-9.58-10.62-14.78l-9.91,27.35a343.76,343.76,0,0,1-.72-62.2L1984.25,216a3.06,3.06,0,0,0,2.43.53,3.21,3.21,0,0,0,1.48-2l11.58-28.87"/><path class="cls-2" d="M2011.26,237.36a25,25,0,0,0,.83-3.28A25,25,0,1,0,2011.26,237.36ZM2013,224.7c0-.3-.08-1.27-.13-2.32A16.1,16.1,0,0,1,2013,224.7ZM2010,240.55a25.09,25.09,0,0,1-2.62,4.8c.35-.5.45-.81.85-1.46-.25.46.23-.2.67-1.11S2009.89,240.79,2010,240.55Zm2.7-19.51c0-.07-.13-1.23-.19-1.3,0,.11.1.56.13,1.33-.07-.55-.18-1.18-.32-2.29.07.36.08.27,0-.35A13,13,0,0,1,2012.73,221Zm-8.64,28.26a22.68,22.68,0,0,1-2,1.84c-.81.7-1.73,1.28-2.24,1.65A36.55,36.55,0,0,0,2004.09,249.3Zm6.6-10.65c-.06.16-.34,1-.66,1.77a10.57,10.57,0,0,1-.67,1.37C2010,240.41,2010.23,239.93,2010.69,238.65Zm-.19.32c-.1.11.38-1.14.85-2.78a36,36,0,0,0,1-5.05A32.76,32.76,0,0,1,2010.5,239Zm-22.79,17.51c-.7-.05-1.4,0-2.09-.14-.18-.07.16,0,.63,0l1.44.07Zm-3.48-.4a16.14,16.14,0,0,1-2.21-.53,8.76,8.76,0,0,1-1.76-.67A21.61,21.61,0,0,0,1984.23,256.08ZM1960.51,235v-.07s.12.13.22.28l1.75,2.78c-.56-.82-1-1.56-1.56-2.38-.11-.19-.24-.39-.41-.65Zm-11.31,26a10.36,10.36,0,0,1,.17,1.24c0,.35.07.75.11,1.18l.07.7,0,.37,0,.19v.1s0,.08,0,0c.68-1.82,1.54-4.08,2.28-6.21,0,.11-.67,1.93-1.46,4.08-.2.53-.4,1.09-.61,1.65l-.15.42-.08.21,0,.05v-.16l-.09-.88C1949.38,262.79,1949.27,261.74,1949.2,261Zm-1-10.46c.09.5.17,1.41.25,2.34s.13,1.61.18,2.35.15,1.51.2,2.07c-.07-.26-.24-1.81-.39-3.68C1948.41,252.52,1948.31,251.31,1948.25,250.51Zm63.35-34.88c-.51-2.14-.91-4.41-1.69-6.73A46.76,46.76,0,0,1,2011.6,215.63Zm-55.15,30.31c.22-.74.67-2,1.17-3.37C1957.46,243.17,1956.93,244.61,1956.45,245.94Zm43.86-59.29,1.44,2.94C2001.58,189.31,2000.18,186.56,2000.31,186.65Zm-2.74,4.18c.48-1.36,1.43-3.58,2-5.15C1999.37,186.59,1998.16,189.35,1997.57,190.83Zm13.32,30.75c0,.06-.08-.37-.12-.28a41.84,41.84,0,0,0-.55-5.19A36.64,36.64,0,0,1,2010.89,221.58Zm-3.56-15.32a31.55,31.55,0,0,1,1,3.07C2008.06,208.61,2007.66,207.27,2007.33,206.26Zm1.22,32.1a12.72,12.72,0,0,1-.81,2C2007.54,240.69,2007.73,240.42,2008.55,238.36Zm-11.14-45.7c0-.26.81-2.11,1-2.42C1998.25,190.72,1997.8,191.6,1997.41,192.66Zm-2.21,60.17c.35-.18.69-.33,1.08-.54a15.23,15.23,0,0,0,1.42-.76,10,10,0,0,1-1.2.7A9.88,9.88,0,0,1,1995.2,252.83Zm-1.61-50.49c.15-.51.91-2.31,1.3-3.33-.73,2-1,2.84-2.08,5.46.13-.54.66-1.68,1.16-3C1993.93,201.48,1993.73,202,1993.59,202.34Zm-12.39,50.72a19.67,19.67,0,0,0,7.31,1.23A16.53,16.53,0,0,1,1981.2,253.06Zm-28.67-1.88c.44-1.54,1.6-4.42,2.41-6.74C1954.36,246.25,1953.65,248,1952.53,251.18Zm55.72-12.52c-.15.5-.52,1.28-.9,2.14s-.89,1.7-1.32,2.36A30,30,0,0,0,2008.25,238.66Zm-58.85-16.09c.1.64,0,2.11,0,3.89C1949.42,226.23,1949.33,224,1949.4,222.57Zm10.09-18.66c-.79-.37-2.77-1.49-4-2.15C1956.6,202.31,1958,203.11,1959.49,203.91ZM1950,234.08c0-.91,0-.85,0-1.63A6,6,0,0,1,1950,234.08Zm62,0a15.86,15.86,0,0,1-.42,1.83c-.15.62-.36,1.26-.63,2.09a5.4,5.4,0,0,1,.19-.65c0-.05-.06.13-.13.33C2011.11,237.33,2011.77,235.18,2012,234.09Zm-.14-17.16a4.79,4.79,0,0,0,.16,1.33c.06,0-.16-1.45.11.29,0-.11-.11-.83-.18-1.32a4.25,4.25,0,0,1,.14.63,2.7,2.7,0,0,0-.12-.64c-.1-1.06.34,1.3.44,2.23s-.05.14-.08.05a6.59,6.59,0,0,1,.14,2c-.08-.85,0-.42,0-.36-.07-1-.15-1.14-.27-2.3,0,.87.28,2.92.34,4.9s0,3.88,0,4.41c0,.12-.18,1.61-.21,2.33a12.57,12.57,0,0,0,.27-2.35,8.87,8.87,0,0,1-.09,1.55c-.06.49-.12,1-.18,1.53l-.2,1.24s.16-1.09.09-1a4.84,4.84,0,0,0-.14,1.31,33.77,33.77,0,0,1-3.47,10.11,27.45,27.45,0,0,1-7.29,8.56c1-.79,0,.11-.77.64-.13,0,.18-.18.52-.42a9.23,9.23,0,0,0-1,.69c-.34.27-.65.47-.65.5-.56.28-1,.63-2.12,1.16a16,16,0,0,1-1.84.82,20.91,20.91,0,0,0,3.59-1.86,23.92,23.92,0,0,1-5,2.3,4,4,0,0,1,.79-.32l1.12-.43a28.73,28.73,0,0,1-5.41,1.43,18.64,18.64,0,0,1-7.76-.49,18.58,18.58,0,0,0,3.22.64c.64.05,1.31.07,2,.09s1.34,0,2-.12a4.76,4.76,0,0,1-1.09.11,13,13,0,0,1-1.66,0,5.36,5.36,0,0,0,1.36.07l1,0c.37,0,.75-.1,1.13-.16a35.25,35.25,0,0,0,3.67-.83,19.83,19.83,0,0,1-13.9-.38,31.07,31.07,0,0,1-10.75-7.51,9.09,9.09,0,0,1-.66-.77,48.2,48.2,0,0,1-5-6.33c-.77-1.13-1.53-2.32-2.32-3.58l-1-1.64-.35-.61-.73,2c.15-.18-.39,1-.62,1.84s.2-.7.13-.61c-.94,2.64-1,3-2.19,6.13.54-1.54.92-2.47,1.22-3.37-1.3,3.56-3.17,8.73-4.34,11.95.87-2.25,2-5.46.71-1.84l-.51,1.47c-.21.58-.44,1.24-.74,2.05s.1-.39-.28.53c-.66,1.84-1.28,3.58-1.88,5.24-.3.83-.59,1.64-.88,2.43-.15.4-.29.8-.43,1.19l-.22.59-.06-.59c-.34-3.23-.65-6.24-1-9.24,0,.1.24,2.51.3,2.76,0-.84-.16-2-.27-3.21,0-.44-.09-.88-.13-1.27s0-.57,0-.76c0-.44-.08-.25-.11-.29-.09-1.42-.09-.79-.2-2.27.06.28.13,1.18.19,1.26-.29-3.42-.47-7.49-.7-11.42a9.18,9.18,0,0,0,0,1c-.11-.75-.11-3.21-.22-4.89,0,1.73.28,7.12.38,9.84.15,3.06-.26-3.89-.29-4.89-.34-8.09-.36-16.29-.13-25.56,0,1.85-.11,6.52-.08,9.47.09-.73,0-4.21.11-4,0-1-.06-.91,0-2.27,0,.11,0,.56.06.63,0-1.38,0-1.76.06-3.27,0,.11,0,.83,0,1.32a27.7,27.7,0,0,1,.1-3.28c.08-2.39.2-4.95.36-7.63.09-1.34.18-2.71.28-4.11q.21-2.82.44-5.73l9.78,5.37,8.71,4.72c-.17-.15-1.76-.95-2-1.13-.56-.32,1.91,1,2.29,1.24-.42-.34-3.53-2-4.86-2.71l-4.3-2.32c4.09,2.09,8.59,4.59,13.76,7.4-.17-.08-.67-.28.28.22-.78-.36-2.76-1.49-4-2.15l8.87,4.88c-.11-.12-1.52-.82-1.71-1l6.53,3.58,1.67.92c.54.28,1.07.59,1.48.78a1.84,1.84,0,0,0,.94.24.71.71,0,0,0,.42-.23,6.13,6.13,0,0,0,.86-1.54c.39-.85.81-1.75,1-2.26.74-1.75,1.8-4.76,2.3-5.45-.13.27-.3.69-.51,1.21.23-.43.75-1.74,1-2.11a33.54,33.54,0,0,1,1.67-4.24c.38-1.08.53-1.4.92-2.42a6.87,6.87,0,0,1-.29.91,19.54,19.54,0,0,0,1.13-2.73c.54-1.29.63-1.16,1.45-3.32a23.18,23.18,0,0,0,1.56-3.33c-.05.26-.85,2.11-.92,2.42.63-1.44.51-.91,1.13-2.42a5.57,5.57,0,0,1-.36.91c-.22.66.53-1.11.62-1.2.57-1.55.61-1.55,1.07-2.73-1.15,3.37-3.64,9.72-5.4,14.23-.33.77-.73,1.72-.94,2.12-.22.58-.25.76-.56,1.52.06-.07.55-1.26,0,0,.25-.59,1-2.28,1-2.41.06.1-1.11,3.07-2,5.14-.89,2.33-1.64,4.52-3,7.59a4,4,0,0,1-.73,1.31,5.46,5.46,0,0,0,1.08-1.9c.25-.61.5-1.24.73-1.84.48-1.21.9-2.32,1.14-3-.17.7.51-1.16.92-2.11-.31.91-1,2.59-1.68,4.34l-1,2.58a4.89,4.89,0,0,1-1.45,2.28,3.1,3.1,0,0,0,.66-.62c.1-.1.11-.1.06,0a2.05,2.05,0,0,1-.39.49,2.35,2.35,0,0,1-1.08.62,2.92,2.92,0,0,1-1.5,0,6.69,6.69,0,0,1-1.23-.52c-.69-.37-1.33-.73-1.79-1a18,18,0,0,1-1.73-.84,6,6,0,0,1,.87.42c-2.29-1.37-6.33-3.52-10-5.52.19,0,1.9,1,3.16,1.63-3.41-1.88-7.57-4.12-12-6.47l-12.09-6.46c-.09,1.32-.18,2.55-.26,3.74-.11,1.69-.25,3.4-.31,4.88,0,1-.13,1.29-.18,2-.21,5.37-.29,8.12-.35,13,0,.37,0,.17,0,0,0,4.83.07,11.77.28,16.27-.34-6.36-.46-16.36-.17-24.39-.27,4.26-.26,10.39-.15,16.29.06,3.79.17,7.56.35,11.07.16,3.67.53,7.79.62,9.75.1,1.13.19,2.23.29,3.29l.12,1.18,0,.58c.06-.14.13-.35.2-.52l2-5.46c1.84-5.07,3.6-10,5.57-15.41-.27.65-1.11,3-1.79,4.91.1-.35.4-1.19.76-2.22l1.26-3.45,1.39-3.78c.46.76.62,1.05,0,.05l0,.08c-.76,2.12-1,2.74-1.49,4.1.53-1.43,1-2.83,1.52-4.12l2.57,4.2c.53.84,1,1.49,1.25,1.91,1.19,2,5.24,8.16,9.76,11.91a24.46,24.46,0,0,0,10.89,5.59,18.79,18.79,0,0,0,12.73-2.16c.41-.26-.27.12.23-.2l1.14-.61a10.5,10.5,0,0,1,1-.75s-.3.23-.49.38a22.21,22.21,0,0,0,3.38-2.77c1.11-1.11,2.06-2.25,2.61-2.92.12-.22.4-.63.77-1.17s.8-1.22,1.19-2a26.83,26.83,0,0,0,2-4.76,9.46,9.46,0,0,1-1,2.69,24.48,24.48,0,0,0,1.38-3.63,41.84,41.84,0,0,0,1-4.69,46.58,46.58,0,0,1-1.31,5.32c.28-1,.67-2.61,1-4.29a44.49,44.49,0,0,0,.63-4.84c-.12,1-.26,2.26-.48,3.54a40.4,40.4,0,0,0,.56-7.42,45.37,45.37,0,0,1-.26,6.43,41.73,41.73,0,0,0,.32-8.08,61.92,61.92,0,0,0-1-7.78c-.2-1-.17-.58-.41-1.56.27.8-.17-1-.31-1.63.09.13.38,1.52.55,2.21.15.24-.4-1.67-.42-1.93a22.52,22.52,0,0,1,.6,2.54,12.17,12.17,0,0,0-.29-1.67,26.22,26.22,0,0,0-.76-2.82c.38.64-.73-2.91-1.08-3.83.17.29.69,1.93,1,2.77-.08-.4-.36-1.21-.45-1.59a27.71,27.71,0,0,1,1.08,3c-.42-1.6-1.14-3.8-1.8-5.64,0,.22.56,1.55.37,1.29-.34-1.11-.86-2.51-1.28-3.64a13.32,13.32,0,0,1-.69-2c.14.34.08.15,0,0,1,2.37,1.79,4.66,2.76,7.38-.12-.61-.46-1.36-1-2.8.57,1.33-.1-.35,0-.37.69,1.77.71,2.1,1.08,3.11.06.06-.06-.33-.08-.33a44.58,44.58,0,0,1,1.74,5.44c.63,2.38,1.09,5,1.35,6.6,0-.68-.33-2-.36-2.64-.12,0-.15-1-.64-2.89C2011.28,214.25,2011.62,216.07,2011.86,216.93Zm-24.79-2a20.92,20.92,0,0,0,1-2.35C1987.74,213.43,1987.25,214.45,1987.07,215Zm-15.2-4.84c-1.29-.68-2.24-1.28-2.86-1.52C1970,209.15,1972,210.22,1971.87,210.11ZM1949.79,207c-.06.09.2-3.74.29-4.87-.15,1.14-.36,4.83-.39,6.5A15.3,15.3,0,0,0,1949.79,207Zm55.91,40.21-.06,0c-.48.61-1.49,1.7-.84,1C2004.93,248,2005.2,247.87,2005.7,247.19Zm-7.27,6.13a17.58,17.58,0,0,0,3.15-2.08C2000.47,252,2000,252.46,1998.43,253.32Zm8.39-7.78c0-.07-2.24,2.78-1.9,2.38A18.13,18.13,0,0,0,2006.82,245.54Zm-27.5,8.65c-1.06-.37-2.61-1.41-3-1.52A12.25,12.25,0,0,0,1979.32,254.19Zm33.19-29.31c0-.26,0-.39,0-.35,0-1.5-.18-2.8-.23-4,0,.09.06,1.13.11,2.16S2012.52,224.79,2012.51,224.88Zm-28.34,30.87a22.49,22.49,0,0,1-3.6-1.05s-.61-.16.32.21c-.07-.08.85.26,1.75.5A7.61,7.61,0,0,0,1984.17,255.75Zm-10.33-4.88a16.85,16.85,0,0,0,2.2,1.61C1976.1,252.44,1974.28,251.29,1973.84,250.87Zm8.58-36.82a29.36,29.36,0,0,0,2.82,1.48c-.32-.13-1.21-.64-1.91-1S1982.11,213.86,1982.42,214.05Zm10.22-12.34c-.36.92-1.08,2.61-1.19,3C1992,203.21,1992.38,202.6,1992.64,201.71Zm-.23.91c-.42,1,.49-1.23.3-.91-.63,1.67-1.22,3-1.67,4.24C1991.49,204.82,1992.11,203.54,1992.41,202.62Zm-13,49.8a17.71,17.71,0,0,0,2.93,1.15C1981.47,253.31,1979.86,252.57,1979.46,252.42Zm-3-40c.51.28,1.44.75,1.14.66a35.73,35.73,0,0,0,3.74,1.93C1980.79,214.83,1978.17,213.28,1976.48,212.46Zm13.36-.73c-1.4,3.5-.81,2.32,0,0Zm-40.4,1.78a15.55,15.55,0,0,0,0-1.93c0,.91-.11,2.24-.07,2.27C1949.4,213.6,1949.42,213.47,1949.44,213.51Zm37.61,3.75c-.56.19-.3.08,0,0a2.51,2.51,0,0,1-1.21.16,3.87,3.87,0,0,1-1.15-.32,9.8,9.8,0,0,1-1.32-.71c1,.52.32.16,1.54.75-.14-.08-3.12-1.74-3.54-1.88.59.34,1.89,1,2,1.11-1.2-.64.16.17-.87-.37.67.35,1.41.82,2.3,1.21a3.26,3.26,0,0,0,1.38.29A2.17,2.17,0,0,0,1987.05,217.26Zm-22.46,20.46c.19.16,1.72,2.5,1.85,2.62C1966.82,241.06,1965,238.32,1964.59,237.72Zm-16.46,9.14c-.1-.38-.08-1.34-.19-2.27,0,0,0-.09,0-.34C1948,244.6,1948.07,245.64,1948.13,246.86Zm64.5-24.73a.75.75,0,0,1,0,.33c0,.44.06.95.1,1.51s0,1.18,0,1.82c-.07-.11,0-1.89-.06-1,0,0,0-1.13,0-1.34a4.89,4.89,0,0,0-.07-.64s.11,1.53,0,.68c0,1.09.09.22.08,1.32-.07-.19-.09-1.58-.19-3C2012.57,222.3,2012.62,222.62,2012.63,222.13Zm-58.76,31.17a9.83,9.83,0,0,1,.76-2.45c.28-.65-.88,2.46-.68,2.14,2.1-5.93,2.83-7.82,4.89-13.49A22.7,22.7,0,0,1,1958,242a5.29,5.29,0,0,1,.2-.62Zm51.84-55.05c1,2.35,1.77,4.43.47,1.25-.37-.86-.59-1.5-1.16-2.73,0-.07.07.1.15.28s0-.13-.11-.31c.5,1,1.07,2.48,1.68,3.92C2006.46,200.15,2006.16,199.21,2005.71,198.25Zm-48.47,1.9c.84.41-1.44-.67-2-1.07C1955.75,199.33,1956.1,199.55,1957.24,200.15Zm36.8-2.07a4.49,4.49,0,0,0,.22-.61c.32-.83.2-.28.45-.9A9.11,9.11,0,0,1,1994,198.08Zm16,16.69a24.54,24.54,0,0,1,.49,2.89C2010.38,216.81,2010.32,215.86,2010.08,214.77Zm-3.75,28.15c.21-.34.13-.28,0,0a27.15,27.15,0,0,0,2.32-4.85c-.08.58-1.51,3.5-1.29,3.21C2007,242,2005.52,244.17,2006.33,242.92Z"/><path class="cls-2" d="M1984.74,157.63a13.67,13.67,0,0,0-8.9,12.64,15.11,15.11,0,0,0,8.29,13.29,16.49,16.49,0,0,0,15.68-.85c3.3-2,6-5.48,6.07-9.39a12.63,12.63,0,0,0-2.93-7.58c-4.26-5.59-12-8.92-18.45-6.22"/><path class="cls-2" d="M1981.59,170.28c0-.16.07-.42-.08-.57C1981.38,170.19,1981.61,171.09,1981.59,170.28Zm.2-2.21c-.17-.11-.12-.28,0-.47C1982,167.7,1981.81,167.9,1981.79,168.07Zm-.34,2.8a2.23,2.23,0,0,1,.17,1c-.1-.1-.26-.13-.33-.26C1981.69,171.7,1981.22,171,1981.45,170.87Zm.38-3.51c-.17-.08,0-.25-.15-.34s.06.15-.1.25a.55.55,0,0,1-.07-.53c.07.11.15.12.19,0C1982,166.9,1981.88,167.13,1981.83,167.36Zm-.22,5.44c.25.15.36.71.39,1C1981.62,173.6,1981.79,173.1,1981.61,172.8Zm-.53-2.27c.11.06.27.62,0,.63C1980.93,170.89,1981.14,170.78,1981.08,170.53Zm-.26.08c-.44,0-.09-1-.13-1.55C1981.07,169.61,1980.57,170.07,1980.82,170.61Zm2.26,5.37.26.32c-.2.25-.26-.14-.4-.21Zm.31.63c.16,0,.73.42.52.64A6.38,6.38,0,0,1,1983.39,176.61Zm6.14,3.35c-.27.28-1,.06-1.41-.06A6.39,6.39,0,0,1,1989.53,180Zm6.61-1c.12.5-.72.25-1.15.6C1995,179.41,1995.84,179.21,1996.14,179Zm1.25-.75c.12.55-.6.5-.79.71C1996.48,178.55,1997.21,178.5,1997.39,178.23ZM1981,165.68c-.07-.32.13-.51.34-.68s.43-.35.47-.66C1982,164.72,1981.19,165.13,1981,165.68Zm11.67,14.63a1.14,1.14,0,0,1-.79.28C1992,180.36,1992.3,180.36,1992.62,180.31ZM1985.87,161c-.29,0-.34.19-.69.19C1985.2,161.07,1985.8,160.69,1985.87,161Zm.4-1.56a5.4,5.4,0,0,1-1.57.55C1984.83,159.56,1985.8,159.51,1986.27,159.44Zm-11.48,5.22c-.15,0-.13-.19-.29-.23.48-.32.85-1,1.34-1.47C1975.8,163.57,1975.28,163.79,1974.79,164.66Zm2.59-5.23a2.52,2.52,0,0,1-.76.95C1976.58,160,1977,159.65,1977.38,159.43Zm-4.71,11.44c.39.49,0,1.77,0,0Zm13.67-13.62c0,.2-.75.29-.89.23C1985.55,157.2,1986,157.47,1986.34,157.25Zm-11.65,21.28c-.36-.15-.35-.48-.58-.94A1.85,1.85,0,0,1,1974.69,178.53ZM1990,156.7c-.19.18-.88,0-1.27.12a3.84,3.84,0,0,1,2.1-.35c-.22.29-.65,0-1.18.13C1989.67,156.71,1989.87,156.69,1990,156.7ZM1978.12,183c-.86-.31-1.33-1.07-2.16-2A16.65,16.65,0,0,1,1978.12,183Zm17.72,4.41c-.48.57-1.69.4-2.57.6C1993.93,187.63,1994.66,187.8,1995.84,187.41ZM1972,171.05a20.09,20.09,0,0,1,.33,2.07A5.87,5.87,0,0,1,1972,171.05Zm36.87,5.74c.33.4-.14.92-.39,1.63A2.63,2.63,0,0,1,2008.85,176.79ZM2005.94,162c.37.13.83.92,1.2,1.33A4.12,4.12,0,0,1,2005.94,162Zm2.39,20.19c.18-.38.33-.24.49-.57C2008.92,181.88,2008.58,182.5,2008.33,182.23Zm-27.17-12.54c.18.25,0,.4.09.71-.09,0-.08-.07-.1-.12s-.08,0-.08.07S1981,169.87,1981.16,169.69Zm-.27-3.71c-.11,0-.21-.15-.28.2.22.11.35-.19.21.17.12,0,.13-.14.19-.23.06.06.12.13.1.21s.06-.11,0-.17c.37-.06.29.46.29.67s-.28-.1-.32-.14c0,.28,0,.43-.4.3,0-.17.09-.06.19,0,.11-.2-.06-.29.1-.5-.31.07-.53.48-.63.9a1.62,1.62,0,0,0,0,1c.16.05-.34.27-.08.48.23,0,.34-.17.34-.43.2-.05-.08.63,0,.87-.16,0,0-.22-.24-.23-.09.21.11.23.24.3a10.41,10.41,0,0,0,.52,4.32c.08-.31.19-.06.34.08-.13.09-.18,0-.23-.05-.17.19.18.37.34.31-.11.18,0,.28.06.51.27.72.25.41-.35-.3-.07.3.32.72.48,1-.34.08-.35-.08-.3-.33-.28.37,0,.8.31,1.23a7.56,7.56,0,0,1,1.07,1.35c-.07-.43-.57-.85-.88-1.32.32-.06.21.21.43.42.36-.51-.9-1-.45-1.54a9.74,9.74,0,0,0,3.68,4.32c.17,0,0,.19.11.25a7.81,7.81,0,0,1,2,.7,6.07,6.07,0,0,0,2.6.61c0-.32.25.06.46-.17.2.08-.18.19-.16.35.68-.07.73-.49,1.54-.17-.38.11-.62-.06-.84.07a7.59,7.59,0,0,0,3-.42c-.61,0-1.35.3-.5,0a2.73,2.73,0,0,1,.79-.32c.18.13,0,.18.18.31a5.09,5.09,0,0,0,2.29-1.54c.08.17-.26.2-.23.35.33.16.48-.48.75-.35.07-.08-.07-.22-.13-.34.31-.08.09-.17.35-.35,0,.17-.13.27,0,.45a5.34,5.34,0,0,0,1.84-1.65c-.09-.06-.14,0-.2.1-.13-.34.54-.42.56-.84-.45.06-.92,1.12-1.59,1.24-.55.32.53-.61.65-.76,1.12-1.09,2.26-2.3,2.13-3.64.41.28,0,1,0,1.46.17,0,.19-.19.23-.34s0-.28.25-.22c0-.17-.24-.2-.12-.4.11,0,.12.11.25.14-.08-.24,0-.29,0-.54-.12,0-.08.13-.09.21-.15-.15-.15-.71.07-.53a10.14,10.14,0,0,0-.71-3.34,8.78,8.78,0,0,0-2.81-3.71c-.1.19.4.32.32.51.08.15-.45-.31-.5-.43-.08.19.07.4.27.59s.43.41.56.54a7.14,7.14,0,0,1,.8.89c-1-.61-1.75-1.61-2.91-2.48.09,0,.34-.14.09-.26.29,0,.66.43.95.63a7.87,7.87,0,0,0-.93-.88,11.82,11.82,0,0,1-1-.79c-.07.18.37.22.33.4a10.24,10.24,0,0,0-3-1.61c-.22.16-.63-.84-.89-1a3.09,3.09,0,0,0-.84-.12.54.54,0,0,1-.55-.56.45.45,0,0,0,.32.12c-.09-.23-.45-.25-.54-.5.27.36-1.24.46-1.18,0a2.19,2.19,0,0,1-.65.2.46.46,0,0,1,.23-.28c-.11-.21-.63-.5-.76-.12-.37,0-.41-.54-1-.28-.19-.52-.64-.61-1.18-.61,0-.22.64-.14.69-.36-.49-.08-.41-.43-.92-.39,0-.11.26-.19.29-.08.18-.19-.45-.2-.55-.4-.44.36-.49.21-.85.41a4.33,4.33,0,0,1,2-1.39,10.39,10.39,0,0,1,1.38-.38c.47-.07.92-.15,1.34-.18s.63.17.77.38c.21,0,.29-.19.56-.15,0-.13-.45-.19,0-.17-.21-.1-.84-.31-.9-.22,0-.19.32-.28.71-.31a5.26,5.26,0,0,1,1.25.13,5.14,5.14,0,0,1,2.89.32,5.14,5.14,0,0,0,.58-.27c-.43-.08-.92-.23-1.38-.33a2.59,2.59,0,0,0-1.21,0c.33-.33-.42-.27-.78-.4a3.05,3.05,0,0,1,1.72.14,8.58,8.58,0,0,0,1.82.47c-.89-.59,1.34-.63,1.87.19.06-.11.4-.11.81,0a.37.37,0,0,1-.41,0,29.82,29.82,0,0,0,3.47,2.47c-.26.23-.78-.26-1.23-.52,2.63,2,6.76,5.05,8.32,9.33.24.64.3,1.37.47,2,.09.41-.12.58-.16.87a9.41,9.41,0,0,1,.16,2.83,12.59,12.59,0,0,1-.55,2.61c0,.16.06.1.08,0a10.3,10.3,0,0,1-1.34,3.1,19.55,19.55,0,0,1-1.92,2.49,19.64,19.64,0,0,0,2.4-3.85,13.16,13.16,0,0,0,1.21-5.14c-.28.9-.43,2-.72,3.05a11.68,11.68,0,0,1-1.29,3.23,14.84,14.84,0,0,1-2.69,3.22c-1,1-2.1,2.06-2.86,2.21a17.51,17.51,0,0,1-5.85,2.47,22.88,22.88,0,0,1-5.92.53,5.77,5.77,0,0,0,1.91.1,4.8,4.8,0,0,1-2.16.06c-.37,0-1.67-.32-1-.27.56,0,.72.19,1.08.1a19.37,19.37,0,0,0-3.21-.49,10.39,10.39,0,0,0-2.22-.93,14.12,14.12,0,0,1-3.06-1.53,16.82,16.82,0,0,1-6.27-7.35c-.11-.16-.08.16-.21,0a1.85,1.85,0,0,1,0-.56c-.11-.16-.29,0-.35-.37.08,0,.12.11.17.19a11.77,11.77,0,0,0-.45-1.61,2.7,2.7,0,0,1-.12-1.5c-.53-.29-.4-2.23-.5-3.34.56,0,.19.53.23,1.07.36-1.26,0-1.55.42-3.22a3.59,3.59,0,0,0-.47,2c-.53-.83.09-2.52.45-3.46a5,5,0,0,0-.75,1.23c0-1,1.16-1.6,1.29-2.57,0,.79-.65,1.34-.54,2.3.84-1.79,1.54-3.73,3-4.86.23-.25-.1-.29.13-.55.07.38.45-.14.66-.24.1.13-.35.39-.47.6.24.26.35-.45.56-.41.1.29-.37.52-.52.68.21.1,1.1-.42,1.25-.95.39.56,1-.38,1.3-.53.09.21-.38.49-.49.74.17,0,.34-.21.51-.21.32.38-.28.68-.22,1,.43-.27.86-.75,1.31-1.07-.18-.09-.32.33-.51,0,.64-.32,1.46-.9,1.76-.53-.06.08,0,.09.06.06-.43.52-1.24.62-1.55,1.38.32.07.24-.29.56-.54,0,.51.13,0,.32.18-.23.44-.54.27-.61.58.11.11.19,0,.12,0a2.73,2.73,0,0,1-.39,1.48,3.24,3.24,0,0,0-.43,1.6c.23-.06,0-.51.41-.49-.38-.2.12-.2.17-.69C1980.9,165.28,1980.64,165.63,1980.89,166Zm12.26-3.28c-.22-.06-.33-.54-.58-.35C1992.79,162.41,1992.92,162.87,1993.15,162.7Zm7.76-2.88c.45.27.58.75,1,.64C2001.6,160.16,2001,159.66,2000.91,159.82Zm7.9,10.33c-.14.07-.42-1.47-.56-1.9a7.94,7.94,0,0,0,.63,2.58C2008.84,170.63,2009.07,170.21,2008.81,170.15Zm-28.11,2.36-.25.06c0,.18.22.43.25.23C1980.43,172.81,1980.86,172.64,1980.7,172.51Zm.38,2c0-.28.19-.49-.08-.83C1980.72,174.07,1981.11,174.08,1981.08,174.49Zm-.91-2.29c-.27,0-.09.82.08.65S1980.3,172.29,1980.17,172.2Zm3.18,6c.36,0,.4.56.74.28C1983.82,178.14,1983.5,177.94,1983.35,178.17ZM1980,167.56c0-.05.09-.07.19,0,.14-.29,0-.68.27-.84C1980.15,166.6,1980.05,167.53,1980,167.56Zm2.46,9.87a8.38,8.38,0,0,0,.59.6c.16-.15.3-.1.19-.3C1983,178.05,1982.54,177.22,1982.48,177.43Zm2,1.62c.13-.37-.25-.32-.32-.56C1983.93,178.76,1984.47,178.83,1984.47,179.05Zm10.25-15.65c-.38-.05-.57-.54-.79-.24C1994.15,163.19,1994.81,163.63,1994.72,163.4Zm-5-2.23c.25,0,.71.13.84-.06C1990.17,161.15,1990,160.83,1989.76,161.17Zm.26-.52c.28.13-.35,0-.26.26.48-.13.84.09,1.2,0C1990.65,160.85,1990.3,160.43,1990,160.65Zm-11.08,22.52c-.3-.21-.67-.79-.93-.76C1978.31,182.63,1978.69,183.21,1978.94,183.17Zm20.14-23.91c-.17-.12-.54-.21-.32-.38-.48-.3-1.57-.82-1.47-.38.17-.09.44.07.75.28A2.11,2.11,0,0,0,1999.08,159.26Zm-5.54-2.09c1.28.35,1-.22,0,0Zm15.34,15.72c0-.36,0-.8-.24-.79.14.37-.07.93.07.94A.15.15,0,0,1,2008.88,172.89Zm-13-16.21c.13.07,0,.12-.06.17.32.18,1,.26,1.08.51-.39-.12-.23.16-.58-.14-.07.19.19.38.49.5a1.18,1.18,0,0,0,.77.15c-.2-.15-.74-.23-.71-.43.46.18,0-.29.46-.18A3.4,3.4,0,0,0,1995.88,156.68Zm-10.1,30.49c-.18.3-1.11-.25-1.21-.19C1984.42,186.51,1985.43,187.35,1985.78,187.17Zm12.59-8.9c-.15-.32.23-.18.26-.46,0,.09.11.11.16.09C1998.82,178.05,1998.59,178.13,1998.37,178.27Zm-17.34-11c.09,0,0,.08,0,.06a1.73,1.73,0,0,1-.1.68c-.24-.09.06-.38-.12-.24-.21-.08,0-.24.07-.27a.23.23,0,0,0-.12-.19c-.16,0,0,.36-.21.08-.18.19.25.14.09.33-.28-.13-.17-.42-.06-.7C1980.73,167.21,1980.9,167.34,1981,167.28Zm13.23,12.37c.09.35-.09.55-.45.59-.19-.11.58-.15.4-.48a6.59,6.59,0,0,1-3.14.44c0-.35.39-.13.57-.21,0,.06-.09.1-.14.09A9,9,0,0,0,1994.26,179.65ZM1983.13,162c-.54.28-1.1.48-.4,0,.18-.14.42-.09.66-.31,0,0,0,.09,0,.12s.07,0,.11,0c-.07.33-.59.27-.82.57C1982.6,162.1,1983,162.22,1983.13,162Zm16.56,6.52c-.26-.09.55.08.41.39C1999.91,168.85,1999.94,168.71,1999.69,168.5Zm-10.91-7.12c-.09,0-.14,0-.15.1-.22.05-.11-.33-.28-.33C1988.34,161,1988.84,161.11,1988.78,161.38Zm-12.26,1.41c.1.45-.5.37-.63.83C1975.8,163.22,1976.37,163.15,1976.52,162.79Zm-3.72,10.1c0-.15-.2-.09-.17,0a13,13,0,0,1-.14-2.17c.15.11.12.49.13.82s.09.62.34.53C1973,172.39,1972.72,173.5,1972.8,172.89Z"/><rect class="cls-2" x="178" y="261.95" width="2301" height="70.7"/><path class="cls-2" d="M1616.37,338.39c14.94,0,41.35.06,53.6-.11C1624.54,338.19,1541.53,338.39,1616.37,338.39Zm204.12-.17c4.88-.18,20.36-.2,37.34-.19a34.71,34.71,0,0,1-3.85.13l-9.26,0Zm-258.14,0c-29.09.11-50.82.1-86,0,9.61-.08,14.46-.24,26.47-.28C1486.49,338.39,1553.63,338,1562.35,338.24Zm317-.22c1.24-.18,19.92-.09,21.15-.27-1.65-.22-9.08.13-21.5,0,9-.15,19.13-.27,37.19-.28-5.84.11-4.4.18,5.66.17a23.93,23.93,0,0,1-3.89.2c-2.45,0-5.92.08-10,.1Zm-484,0c-18.15.18-66.46.12-86,0C1332.5,337.81,1366.49,338.12,1395.27,338.05Zm198.76-.17c-5.33.11-56.15.25-53.9-.07C1564,337.73,1572.59,337.92,1594,337.88Zm-5.78-.26c-4.34-.43,85-.09,128.75-.23C1676.74,337.83,1632,337.39,1588.25,337.62ZM1110,337.9l-32.25,0c-5.57-.32,21-.14,32-.19A2.12,2.12,0,0,1,1110,337.9Zm-54-.15c-4.27.05-20.26.12-35.26.13l-20.19,0c-5.43,0-9-.08-9.21-.16Zm-570.2,0c17.61-.31,70-.21,107.22-.22C559.14,337.7,533.63,337.65,485.8,337.72Zm-175.25-80.8c-7.28.5-57.29-.08-96.61.13.1,0,1.25-.05,3.25-.06l8.3,0,26.7,0Zm112.87-.05c-16.47.51-59.89.12-80.32.21C349.36,256.69,399.19,257,423.42,256.87Zm1545,79.63c35.7-.4,73,.26,112.87-.05C2069.53,336.87,2010.62,336.46,1968.4,336.5ZM254,337.38c12.88-.17,34.77-.2,58.85-.2C302.62,337.39,277.46,337.37,254,337.38Zm2224.93-1.18-53.88-.07C2430.39,336,2481.21,335.88,2478.91,336.2Zm-20.58-74.73,9.73-.07,11.52,0c0,22.67,0,50.39-.07,71.28-.15-6-.19-17.11-.18-30s.07-27.88.1-41.11Zm-585.31,69c-.9-.15,6.28-.18,4.85-.35,21.5.32,58.52.38,86.94.58C1938.66,331,1918.18,330.61,1873,330.48Zm262.72-.54c-7.18.07-36.74.17-53.75,0C2094.84,329.7,2118.14,329.83,2135.74,329.94Zm-549.34-.48c-21.69.38-75-.12,0,0Zm842.94-65.87c4.34-.18,37.25-.11,43,0C2464.14,263.82,2447.94,263.46,2429.34,263.59ZM1242.09,329.43c13.41-.26,25.48-.1,48.21-.11C1276.65,329.47,1256.92,329.52,1242.09,329.43Zm1015.5-65.6c8.9-.2,41,0,59-.11-35.16.27-49.74.39-96.23.39,9-.3,29.68,0,53.49-.19C2272.83,263.81,2263.94,263.85,2257.59,263.83ZM994.81,329.53c36.09-.38,73.37-.23,128.63-.32C1085.35,329.57,1051.48,329.46,994.81,329.53Zm-814-24.13c0,3.67.09,7.84.14,12.41,0,3.63,0,7.58.06,11.78l87.85.06c-12.92.13-25.82.15-40.41.15l-47.61,0C180.87,322.38,180.86,314.23,180.85,305.4Zm1399,23.36c-17.7.21-59,.06-85.85.13C1511.77,328.68,1553,328.83,1579.89,328.76ZM883.17,265.45c-10.58.43-34.77.15-64.24.21C822.74,265.51,859.72,265.25,883.17,265.45Zm615,1.15c-14.2.21-51.81.06-75.13.12C1443.63,266.49,1470.91,266.54,1498.13,266.6Zm-805.46.86c15.07-.08,14.11.12,27,.08C715.19,267.73,690.07,267.82,692.67,267.46Zm976.77,70.47c-21.33.19-36.75.06-64.39.12a7.85,7.85,0,0,1,1.09-.05l2.69,0,6.88,0a47.75,47.75,0,0,0-5.54-.09C1616.07,337.73,1651.85,337.79,1669.44,337.93ZM1947,336.59c-6.22-.07,3-.24-21.74-.16-.65.24,23.57.24-5,.26,1.83.12,13.57.07,21.62.08-2.24.08-4.46.16-10.48.18,2.1.12,9.5,0,10.64-.09,17.07.3-21.6.46-36.81.54-13.39,0-2-.3-.57-.35-20.63.07-30.63.15-32.64-.25,13.75,0,6.68.06,5.66.17,17,0,18.71-.16,37.49-.1-28.27-.49-133.5-.2-150.51.06-2,.16-26-.29-37.65,0,4.44.22,17.64.29,38.07.24,7.39.18-50.58.07-69.75.12.33-.17,17.67-.07,15.73-.27-17.37-.07-16.59.14-21.12.27l-349.67,0c20.16.17-.92.2-15.72.27-2.21-.15,4-.17,10.49-.18-4.32-.12-12.18-.11-19-.06s-12.69.16-13,.25c-9.85-.17-18.86-.14-37.88-.16-58.61-.08-36.18.05,32-.19-18.36-.19-59.06,0-86.13,0,7.37-.34,17.4-.24,32.11-.1-28.42-.83-136,0-210.29-.35,26.06.24,73,.12,113.17.12-9.7.3-21.62.07-42.88.11,14.43.63,94.42-.19,113.71.48l-431-.44c-11.82.06-7.9-.16-16.41-.17-106.73.53-197.47-.17-349.63,0,3.74.33-18.14,0-32,.19-14.68-.07,12-.2,10.21-.35-46.21.09-52.2.5-107.36.13,26.89-.07,43.55.09,59.12,0l-175.84,0c0-17.59,0-30.46,0-42.05,0,13.83-.07,29.43-.09,42.18h27l-27,.06c0-2.54,0-5.88,0-9.44,0-8.05-.06-16.24-.09-25.77s0-20.2,0-33.49c0-1.94,0-3.3,0-4.23s0-1.52.05-1.73c0-.42.05.41.07,1.23,0,1.66.09,3.2.17-4.94v-.56l106.61-.17c31.47,0,60.84-.13,89.9-.35-1.1.18-23.57,0-26.59.19,15.09.3,46.53-.18,59.24.06,7.27,0,4.12-.22,4.85-.35,23.44.1,13.05-.1,37.49-.1-4.64.15-19.56.15-21,.35,56.42,0,123.5.15,188.13-.07-1-.11-9.89-.07-16.27-.08,12.46-.33,52.77.12,80.5-.13-28.42-.33-117.15,0-161.81-.28-50.46-.1,64-.13,80.5-.12,133.06.05,267.73.5,420.07.35-30.31.42-107.06.11-155.6.24,12,.32,69.27-.09,65,.33,16.71,0,14.95-.29,37.35-.19-1.71.11-9.23.14-10.34.26,22.65-.11,28.9,0,53.76,0-1.83-.12-13.57-.07-21.62-.08,14-.16,73.37-.16,53.87.07,165.19-.08,379.37.8,587,.46-3.66-.21-33,0-37.89-.16-10.66-.06,35.67-.08,43,0-8.84-.39-66.85-.23-91.79-.23l-80.61,0c75.76-.44,160.66-.27,257.72-.28-3.15.08-12,.32,5.81.26-14.2.2-51.81.05-75.14.12l167,.19c-2.58-.2-28.55,0-32.53-.16,67.24,0,185.19.23,226,.08,10.78-.22,57.92.6,76.34.67,31.32.12,83.82-.43,97.41.4-4.87-.07-12.27-.09-21.61-.08,8,.22,31.23.18,38.3.42-20.6-.35,78.31-.57,75.1-.12,18.81-.17,24.71-.11,42.74-.19-2.82.13-8,.22-15.72.27,7.69.22,37.91.53,48.63.16,23.21.08,21.63.58,59.84.41,6.26.52,30.57.73,60.49.85-4.31.22-37.46,0-42.73.19,26,.2,17,.52,44,.6-.54.06-4.51.09-8.37.09l-5.29,0c-1.44,0-2.42,0-2.48-.06-5.68.07-.6.14,6.14.23l10.24.13,3.91.08c1,0,1.66.05,1.88.07l3.19,0c0,5.87.05,10.34.07,14s0,6.79,0,9.67v20.92c-.12-12.46-.26-27.39-.43-44.29l-48.35.28-53.3.2-103.83.25c-13.74-.09-30.69-.13-38.15-.33-10.18,0-13.24.19-26.62.18,1.28.12,22.58.16.3.18,10.6.06,41,.25,43.24.16-.64.19-14.11.3-32,.35l-58.79,0c-40.9.19-79.72.59-133.83.41l-20.81.45c39.43-.13,92.68-.05,117.69-.4-11.71.4,21,.15,38.06.25-31.65.45-119.61,0-160.87.32,45.36.25-44.63,1.05-79.78.56-.19.07-3.72.14-9.41.2l-22.34.17c2.21-.11,6.62-.19,15.87-.18-43.9-.42-119.34-.3-188.67-.28,2.85-.35,35.2-.25,58.73-.28-151.23-.27-377.42.56-558.6.49l-80.92-.14c-16.68,0-21.29-.24-32.79-.34L887.87,265c-6.08,0-2.85.09.15.09L619,265c105.24-.19,270.49-.16,403.27-.08-70.52-.54-171.72-.22-269.31-.24l-183-.1c-60.65,0-129.13.23-161.39,0l-227.82.06v65.27l255.21-.08c-11.53-.12-53.16-.05-86.11-.05,11.89-.16,58.94-.17,96.61-.13,16.44,0,75.56.09,43.28.16-24.92.06-32.64-.11-48.4,0,64.87.14,122.28.13,145.13-.06,39.47.39,159.89,0,258.29.07h435.67c8.39,0-4.94-.15,5.12-.18l21.89.26c8.39,0,4.17-.28,21.24-.19a7.85,7.85,0,0,1-1.09.05l-2.68,0-6.86,0c40.1.24,111.22,0,140.45.38,16.89-.45,100.77,0,150.36-.15,1.14.56-24.1.17-48.09.19,56.39.4,68.85.05,145.66.29-25.1-.2-51.45-.37-91.94-.31,35.94-.53,109.85-.08,156,0-17.58-.21-38.13-.36-59.92-.5,42-.14,79.44.82,124.7.65-34.53.25-66.31-.24-107.52,0,88,.51,183.28.45,265.3,1.11,16.66.06,10-.24,26.63-.18-13.87.26,17.52.3,27.52.42-2.6.16-26.06-.08-37.73-.07-4.44.35,28.45.05,32.67.25-9.4.24-32.55,0-43.16-.07.18.06,3.29.13,8.3.2l19.65.22c15.48.12,34.32.19,48.09.08-11.83.66,49.41.58,65.59.67-5.4.2-33.72.05-48.22.11l27.28.25c-5.09.51-40.06.22-53.07.46,27.2.2,65.14.2,97.31.31-3.66-.18-27.2,0-22.05-.34l63.33.35,24.78.2,7.32.13a16.63,16.63,0,0,1,2.68.16c-6.08,0-2.85.09.12.09-42.35.14-81.88-.39-129.25-.13,10,.29,23.5,0,48.51.07-23.66.34,5.87.08,5.9.35-31,.14-36.21-.22-53.88-.07-1.25.16,5.37.18,5.49.09-31.54.68-149.41.5-202.89,1,11.07.19,33.29-.17,43.3.16-.17-.22,3.83-.22,11.89-.19s20.15.1,36.2,0C1991.4,336.28,1961.36,336.19,1947,336.59Zm76.39-78.1c15.13,0,31.42.42,43.28.16C2051.7,258.66,2034.09,258.26,2023.4,258.49Zm-296.86,6.27c-24,.06-42.58-.23-53.61.11C1692,264.92,1729,264.92,1726.54,264.76Zm-585.5.5c-.75-.09,14.76-.09,32.79-.06l48,.11c-19-.27-80.14-.3-107.75-.13C1122.08,265.18,1136.52,265.5,1141,265.26Zm296,72-.42-.26c-12.31-.07-35.82.11-21.23.18C1419.71,336.9,1423.81,337.36,1437.08,337.24ZM1286,337c19.23.09,27.61.37,59.54.24C1324.59,336.78,1313.51,337.13,1286,337Zm182.62-.16c1.44-.26-56.84-.27-48.51-.07C1431.72,336.82,1460,336.91,1468.64,336.79Zm-495.05-.15c-17.59.28-47.2-.16-53.34.29C950.35,337,977.48,336.92,973.59,336.64Zm844.06-.26c4.22,0,6.34.07,5.63.18,24.25,0,45.51-.26,64.5,0C1885,336.18,1820.58,336.43,1817.65,336.38Zm-763.57.14-59.14,0c-.34.22-9.85.27,5.9.34C997.87,336.5,1062.35,336.71,1054.08,336.52Zm-182.62.16c8.66.37,29.11.12,43.4.25a44.93,44.93,0,0,0-5.23-.16l-12.7,0C887.22,336.74,876.24,336.77,871.46,336.68Zm1038.92-78.23c24-.13,48.22.25,53.64-.11C1949.61,258.38,1898.46,258.29,1910.38,258.45Zm351,.91c-16.27.06-46.51-.09-53.64.11C2234.83,259.4,2246.3,259.72,2261.43,259.36Zm-15.34.53c-17.37-.11,21.92,0,15.72-.27-29.41.16-53.18-.05-75.1.12C2206.89,259.73,2230.22,260.13,2246.09,259.89ZM963.25,330c16.26-.06,46.48.09,53.61-.11C1000.6,329.93,970.41,329.78,963.25,330Zm848.46-65.79c9.58,0,26.8-.1,21.8.17,26.71,0,82.8,0,69.33-.38C1892.9,264.31,1842.73,263.84,1811.71,264.19ZM2091,263.9c-62.29,0-40.55.47,0,0ZM1033,265h21.25l7.64-.05a24.09,24.09,0,0,0,3.1-.13c-7.53.05-16.81,0-24.27,0l-9.37,0c-2.38,0-3.85,0-4,0C1031.55,264.8,1033.71,264.85,1033,265Zm963,.13c-6.54,0-3.45-.09-.27-.17-16.45-.05-46.13.13-53.91-.07,18.33,0,6.5-.24,26.77-.1a21.59,21.59,0,0,0-2.67-.12l-6.7-.09-20.54-.06c-15.2,0-31.21.09-34.74.21,11.23.05,35.15-.12,37.76.07-22.49,0,3.59.28-15.6.36C1950.15,265.16,1989.09,265.24,1996,265.08ZM608.08,329.87c3.95-.33,50.49-.1,53.49-.2C674.86,330.07,620.51,329.61,608.08,329.87ZM483.52,257.46c6.2-.34,22.07,0,37.38-.19-.72.1,1.4.16,5.63.18C520.66,257.58,503.53,257.5,483.52,257.46ZM1862,337.24c-.44.05-1.76.06-3,.06s-2.36,0-2.41-.06c-14,.1-32.81.12-53.6.11,1.74-.25,30.46,0,15.84-.18.48-.22,18.15,0,21.51,0,4.72,0,9.52-.08,10.48-.18-.7-.17-24.8.16-11-.17-17.55-.1-3.66.29-21.24.19,3-.3,25.37-.3,48-.29C1859.36,336.94,1854.15,337.14,1862,337.24ZM173,280a14.52,14.52,0,0,1,.23,3.07c.06,2,.11,4.82.15,8.48.07,7.32.09,17.84.07,30.76-.15,11.68,0-43.06-.36-37.08,0,22.61.06,42.2.08,52.26l194.18.06c3.81.35-29.37.12-42.76.2-.24-.06,6.83-.11,10.63-.1H172.94C172.94,317.84,173,298.36,173,280Zm2095.52,55.72c-41.84-.13-78.16-.34-21.92-.26,15.42,0,26.38.19,48.66.16,1.11.07-2,.08-5.24.09a52.81,52.81,0,0,0,5.51.08c-17.81.24-44.47-.13-70-.05C2235,335.5,2251.16,335.87,2268.47,335.76ZM1435.9,257.68c15.42-.16-26.14.4-37.52.11C1407.9,257.66,1414.82,257.76,1435.9,257.68Zm889.73,1.48c6.29,0,9.55,0,10.63-.09,14.77-.05,5.54.32,16.68.34,0,0-.56,0-1.45,0l-3.6,0-10.49,0C2330,259.38,2323.27,259.29,2325.63,259.16Zm-338.49,72.07c-16.46.3-26.8-.26-48.69-.16C1953,330.8,1968.67,331.27,1987.14,331.23Zm-486.9-1.82c6.7,0,5.15-.18-.27-.18l91.52,0c-9.5.29-64.51-.14-58.61.38C1520.39,329.64,1475,329.24,1500.24,329.41Z"/></g></g></svg>