<svg xmlns="http://www.w3.org/2000/svg" viewBox="0 0 165.45 86.56"><defs><style>.cls-1{fill:#3c1642;}</style></defs><g id="Layer_2" data-name="Layer 2"><g id="Layer_7" data-name="Layer 7"><g id="Layer_1-2" data-name="Layer 1"><path class="cls-1" d="M30.09,0c-.52,0-1.44-.15-1.87.33C29.8.63,32.7.05,30.09,0ZM23,.54c-.17.54-.71.6-1.3.57C21.68.36,22.44.61,23,.54Zm9-.05a5.68,5.68,0,0,1,3-.11c-.33.23-.5.69-.92.82C34.62,0,32.28,1.23,32,.49Zm-11,.65c-.05.54-.7.27-.74.81s.32-.37.75,0a1.58,1.58,0,0,1-1.3.83c.21-.33.16-.54-.2-.52C19.44,1.22,20.23,1.25,20.92,1.14ZM37.8,1.07C38.43.5,40.12.7,40.8,1,40,1.78,38.8.85,37.8,1.07Zm-6.93.5c.18-.34,2-.74,1.88.2C31.92,2,31.61,1.46,30.87,1.57Zm.2.79c.15,1.28-3,.26-4.49.68C28,1.71,29.54,3,31.07,2.36ZM47.75,1.5l1.12,0c.2,1-.73.39-1.11.57C47.76,1.85,47.75,1.68,47.75,1.5ZM49.63,2c.3-.33,2.23-.78,2.26.19C50.76,2.07,50.54,2,49.63,2Zm19.89.09c-.61.93-2.44.64-3.74.65C67,2.1,67.85,2.26,69.52,2.05Zm17.83.15c-.26,1.51-2-.24-3.37.39C84,2,86.38,2.38,87.35,2.2Zm3.93-.14c-.57,1.52-2.09.37-2.8.63C88.7,1.53,90.44,2.39,91.28,2.06ZM17.81,5.72c-1.25,1.19-2.55-.78-3.94.14C14.28,4.59,16.34,5.82,17.81,5.72Zm59.8-2.65a2.59,2.59,0,0,1-2.06.6C75.91,3,76.79,3.1,77.61,3.07ZM0,6.62c.72.32,1-.16,1.88.19C1.69,7.16-.08,7.56,0,6.62Zm162.26,9.24c.83-.77,2.22,0,3.19-.11C164.91,16.92,163.17,15.86,162.26,15.86ZM21.14,23.76c0,.47-.22.56-.17,1-.75-1-2-1.12-3-1.73C18.85,22.29,19.56,23.39,21.14,23.76ZM12,25.4a1.81,1.81,0,0,1,1.88-.07C13.4,26.11,12.59,25.73,12,25.4Zm19.16,1.42c.76-1.12,2.62.38,0,0Zm130.12-4.61c.15-.55,1.3-.33,1.5-.06C162.46,22.9,161.9,21.81,161.25,22.21ZM43.14,26.92c-.47.78-.89.29-1.68.33A1.5,1.5,0,0,1,43.14,26.92Zm112.12-4c.31-.62,1.43-.15,2.06-.34A5,5,0,0,1,154,23.78c.31-.9,1-.11,1.86-.59C155.79,22.88,155.48,23,155.26,23ZM51.77,26.62c-1.26,1.15-2.56.68-4.49.95C48.61,26.5,49.79,26.82,51.77,26.62Zm29.44-.78c-.92,1.29-2.71.08-4.12.41C78.18,25.36,79.28,26.15,81.21,25.84ZM31.36,28.92c.62-.63,2.06-.17,3-.37C33.74,29.18,32.3,28.72,31.36,28.92Zm76-1.12c-.37,1.28-1.21.45-2.24.61A1.72,1.72,0,0,1,107.32,27.8Zm21.45,3.45c-.5.63-1.81.16-2.62.36A2.78,2.78,0,0,1,128.77,31.25Zm-28.1,2.58c.53-.24.5.35,1,.23C101.46,34.63,100.58,34.9,100.67,33.83ZM28.24,1.41c.74-.56,1.28-.16,2.24-.35,0,.26-.22.22-.37.28,0,.22.08.25.19.26C30.1,2,28.85,1.83,28.24,1.41Zm-9.69,4c.22.23-.1.74.76.5,0-.74-.82-.73.18-.79-.07-.36-.48-.21-.76-.24.08-.24.16-.48.37-.54-.08-.37-.33,0-.37.28-.6-.9.75-1.38,1.28-1.63.47,0,.07.89,0,1.06.72-.23,1.07-.46,1.14.74-.48,0-.23-.18-.2-.52-.59-.1-.65.5-1.31.31,1,1.46,4.66.59,5.25-.18.07-.49.91.86,1.32,0-.16-.67-.62-.89-1.33-.74-.26-.53,1.76-.2,2.43-.35,0,.5-.61.2-.55.81.61.21.58-.43.74-.82,4.22.07,7.6-.27,12.2.1-.71-.51,0-.59.54-.81.08.44-.13.5-.36.54.3.71,1.1-.05,1.11-.57.35.51.66.4,1.33.48,2,.23,1.26-.14-1.12.57.64.58,2.06,0,3,.15-.26,1-.61.72-1.12.31,1,2.48,4.74.06,7.33,1-.91-.73-2.55-.38-3.95-.38.34-.9.76-.2,1.5-.32C47.49,2.5,44.7,5,44,3c5.44.38,10.12,1.32,15,1.31.41-.16.27.49.57.51,3.72-1.57,6.89.52,12.19.09-.13-1,.64.16,1.12-.57.51.22-.42.61-.36,1.07,1.61-.28,1.82-1.5,3.75-.4-.94.21-1.52-.28-2.06.07a33.09,33.09,0,0,0,7.31,0c-1.38-.6-3.34,0-1.13-.49a4.57,4.57,0,0,1,2.06-.33c.33.52-.14.52.2,1,2.62-.56,4.7-.26,6.73-1.55,0,.55-.83.1-.93.56.53.89,1.62-.55,2.07.19.25-.09.14-.67.16-1.06.82.3.46-.3,1.31-.31-.16.47-.68.46-.73,1.08,2-.13,4.31.44,6.56-.24,0-.3-.34-.2-.56-.24.43-1,1.84.36,2.8-.36-1-1-4.08.06-5.64-.85-1.76-.31,2.23-.38,2.81-.37,4.64.14,9.34,1.52,14.65,1.06-1.06,1.25-3.73.33-5.43.72.42,1,2.42-.28,2.27,1,.58,0,.52-.84,1.3-.57-.06.35-.32.43-.36.8.79-.35,1-.13,1.88-.06-.07-.36-.48-.2-.76-.24.49-.5,2.56-.48,1.88.2C118.48,4.75,126,7.4,133.2,6.37c-.13-.62-1.16.08-1.33-.48-.37-.18,1.25-.23,1.5-.06-.3-1.16-2.33-.68-3.2-.67a22.78,22.78,0,0,1-2.81.1c2.64-1.33,5.61-.8,9-.85-.11.25-.42,1,.2.78-.49.63-1.8.16-2.62.36,1.84.36,4.06.14,5.83.58-.09-.59-1,0-1.14-.48,2.35,0,6.46.7,7.89.24.37-.65,2,1.79,2.66,2,1.09.37,2.92-1.29,3.4,1.2a.84.84,0,0,0-.76-.24c.28.67,1.09.55,1.34,1.27-.72-1.05,2.73-1.71,2.62-.35.66-.54.86-.33,1.49-.59a1.21,1.21,0,0,1-.55.81c.27.66,1.33,1.59,1.7.47.81.25.75,1.77,2.09,1.24a2.83,2.83,0,0,0,2.11,2.56c-.15.65-1.31,0-1.49.58.9.59.59,1.55,1.53,1.78,0,.34-.55.37-.56,0-.4.43.7.92.77,1.55.95-.63,1-.11,1.69-.32-2.05,2.31-6,2.93-8.76,3.47-.48-.28-1.07-.4-1.33-1-.35.13-.46.59-.93.56.05.36.79.47,0,.53.37.19,1.43.75,1.51.47,0,1.15-1.88,1.3-3.17,1.17-1.42.55-2.78,1.76-4.67,1.21a13.27,13.27,0,0,0-.72,1.35c1.37-.39,3.23-.14,4.1-1.2-.4,1.21.74.45,1.33.74-1.1,1.35-4.17.08-5.61,1,1.58.73-1.56,3.14-2.78,1.68,0,.39-.5.83-1.11,1.09.08-.33.23-.55.55-.55-1.53-1.25-4.16-.88-6.58-.82.1-1.06,1.23-.76,2.05-.86-5.27-.8-13.16,1.71-19.48,1.48-1,0-2-.53-2.82-.43-.59,0-.75-.7-1.15-1a48.41,48.41,0,0,1-7.51-.26.14.14,0,0,0,0,.27c-2.79.3-6.79-.24-9.39-.2a82.9,82.9,0,0,1,14.07-.23c-2.46-1.61-6-.65-9.39-.72-2.19-.05-4.36-.25-6.39-.3s-4.5.7-5.63-.07c-7.53.4-12.84-.06-19.5.43.4.37,1.86.16,3,.16-.41.47-2.05.49-3.37.38-.57-.05-2.63-.28-1.5-.47.86-.18,1.13.32,1.68-.06-2.26-.42-4.26-.41-5.06.18-1.38-1.18-5.58-.11-9-.21-4.6-.13-9.85.65-15.19,0-.3.1.17.45-.18.53-.53-.49-.22-.08-.77-.76-.29.12-.14.83-.74.55,0-.26.23-.21.37-.28-1.39-.73-3.88.15-4.89-1.14-.59,1.34-3.52,0-5.25.45,0-1.69.84-.52,1.68-.59-2-1.18-2.4-.14-5.08-.87a4.23,4.23,0,0,0,3.2.94c-1.25,1.6-3.83.25-5.44-.07a8.83,8.83,0,0,0,2.09,1.51c-1.46.43-2.77-2.47-4.35-1.95,1.21-.77,2.32.73,3.75-.14-3.07-1.55-6.39-1.36-9.25-3.35-.58-.18-.35.73-.93.55.48-.79-.61-.89-1-1.28.09-.46.91.26,1.32.22.15-1-1-.16-1.14-.75.33-.72,1.13.11,1.5.21,0-.65-1.69-2.17-2.65-1.48.41-2-1.72-1.76-2.29-2,.19-.6,1.18-.14,1.68-.32-.23-.37-.72-.37-1-.76.18-1.52,1.4-.65,1.85-1.38-.94-.58-2.27-.6-3.39-.93.13.53.95,0,.77,1-1.33-.83-3.42-1.14-3.42-2.51a.14.14,0,0,0,0-.27c1.48-.42,2.86,1.15,4.51.37-.35-.87-.82,0-1.69-.2.82-1-.21-.25-.21-1.05,1.09-.42,1.27.66,1.88.2,0-.47-.18-.54-.19-.26,1.1-2,5.21-1.49,7.08-2.88-.39-.58-1.16.49-1.51-.47,0,1.33-.56,0-1.68.58C17,6.37,18.05,6.64,18.55,5.43ZM147.09,6.92c.53,0,1.1,1.25,1.51.48C148.08,7.43,147.46,6.22,147.09,6.92ZM136.73,25.71c-.83.2-1.48-.67-1.86.33C135.53,26.19,136.82,26.19,136.73,25.71Zm-20.42,1.51c0-.53,2.17,0,2.82.17-.66-.83-2.79-.91-3.76-.4C115.65,27,116.16,27.94,116.31,27.22Zm-80-23.73c0,.26,0,.52,0,.79.42.19,1.24-.34.74-.56C37,4.51,36.8,3.12,36.34,3.49Zm5.27.86c-.67-.27-1-1.1-2.08-.71C40.26,4.86,40.65,3.81,41.61,4.35Zm-6.37.49c-.05.77,2,.82,1.69.21C36.53,4.74,35.54,4.48,35.24,4.84Zm17.27.44c.61-.82,1.64.5,1.86-.85C53.32,4.23,52.37,4.45,52.51,5.28Zm-29.44.78c-.15,0-.22-.21-.2-.52-.85-.14-1.59.78-2.25.08C20.72,6.66,23,5.93,23.07,6.06ZM49.7,5.64l2.06-.07c0-.66.35-.84-.2-1C51.66,5.7,49.41,5.08,49.7,5.64Zm6.37-.49c-.3-1.08-1-.34-1.51-.73C54.54,5.44,55.74,4.66,56.07,5.15ZM143.15,6.8c.83-.4,1.68.74,1.87-.33C144.52,6.59,142.73,6.31,143.15,6.8Zm12.24,2.72c-.57.19-1.62-.28-1.87.33C154.46,9.64,154.86,10.6,155.39,9.52Zm-.53,1.6c-.61-.34.76-.14.54-.81-1,.47-1.85-.16-2.61.36C153.49,10.63,154.3,11.83,154.86,11.12Zm-102,14.14c-.57.19-1.62-.28-1.87.33C51.57,25.41,52.62,25.87,52.87,25.26ZM139.71,24c.33.05.93-.29.76.5.93,0,2.88-.07,2.41-1.13C142.54,24.39,140.79,23,139.71,24Zm9.74-.87c-2.18.07-1.42,1.4,0,0ZM112.54,26.3c.5,0,1.11.11,1.12-.56-.53.29-1.29-.39-1.31,0C112.49,25.84,112.57,26,112.54,26.3Zm33.59.39c-.23-.05-.12-.29,0-.52-.57-.15-1.61.39-1.88-.2.64-.13.23-.72.94-.3,0-1.19-2-.92-2.26-.18.39.14,1.23-.37,1.32.22-.79.08.12.83-.55,1.07C144.53,26.92,145.89,27.15,146.13,26.69ZM65.26,25.61c-.14,1-1.76.28-1.87.6C62.93,25,64.82,26.38,65.26,25.61ZM93.38,3.83c.22-1,.77,0,1.3-.57,0,.31,0,.47.2.52C94.67,4.17,94.08,3.94,93.38,3.83ZM21.52,3.49c0-.3.18-.16.19,0a3.42,3.42,0,0,1,1.87-.33c-.06.77-1.06.14-.55.55,0,.65-.64.1-.75,0a.71.71,0,0,0-.37.54c0,.51.86-.48.38.51.62.31.13-.85.74-.55-.1.89-.88.88-1.67.85C21.61,4.38,21.79,3.79,21.52,3.49ZM82.09,2.13c0,1.1-.57,1.45-1.47,1.36-.41-.47,1.5,0,1.29-1.09-3.62.58-4.79.14-8.26,0-.13-1,1-.35,1.5-.58,0,.18-.24.3-.38.27C76.36,2.51,79.57,2,82.09,2.13ZM7.34,7.94c1.46.39,2.73,1,.77.76-.54-.07-.92-.57-1.7-.47,0-.22.07-.25.18-.27,0-.22-.07-.24-.19-.25C7,7,8,8.11,8.84,7.88,8.51,8.7,8,7.61,7.34,7.94ZM126.6,4.49c.54-.48-.91,1.19-1.31.31C125.62,4.41,125.86,4.72,126.6,4.49Zm31,4.43a.3.3,0,0,0,.37-.28c.52-.13.19,1,.58,1C158.57,10,157.47,9.73,157.63,8.92ZM17.16,21.53c.57-.91.93.77,1.69.47C18.35,22.81,17.8,21.41,17.16,21.53Zm17,5.45c-.24.07-.18.53,0,.53-.9-.05-2,0-3.19-.15.33-.85,2.25.43,2-1.13C33.44,26.29,35,27.49,34.14,27Z"/><path class="cls-1" d="M30.09,52c-.52,0-1.44-.15-1.87.33C29.8,52.63,32.7,52.05,30.09,52ZM23,52.54c-.17.54-.71.6-1.3.57C21.68,52.36,22.44,52.61,23,52.54Zm9,0a5.68,5.68,0,0,1,3-.11c-.33.23-.5.69-.92.82C34.62,52,32.28,53.23,32,52.49Zm-11,.65c-.05.54-.7.27-.74.81s.32-.37.75,0a1.58,1.58,0,0,1-1.3.83c.21-.33.16-.54-.2-.52C19.44,53.22,20.23,53.25,20.92,53.14Zm16.88-.07c.63-.57,2.32-.37,3-.11C40,53.78,38.8,52.85,37.8,53.07Zm-6.93.5c.18-.34,2-.74,1.88.2C31.92,54,31.61,53.46,30.87,53.57Zm.2.79c.15,1.28-3,.26-4.49.68C28,53.71,29.54,55,31.07,54.36Zm16.68-.86,1.12,0c.2.95-.73.39-1.11.57C47.76,53.85,47.75,53.68,47.75,53.5Zm1.88.46c.3-.33,2.23-.78,2.26.19C50.76,54.07,50.54,54,49.63,54Zm19.89.09c-.61.93-2.44.64-3.74.65C67,54.1,67.85,54.26,69.52,54.05Zm17.83.15c-.26,1.51-2-.24-3.37.39C84,54,86.38,54.38,87.35,54.2Zm3.93-.14c-.57,1.52-2.09.37-2.8.63C88.7,53.53,90.44,54.39,91.28,54.06ZM17.81,57.72c-1.25,1.19-2.55-.78-3.94.14C14.28,56.59,16.34,57.82,17.81,57.72Zm59.8-2.65a2.59,2.59,0,0,1-2.06.6C75.91,55,76.79,55.1,77.61,55.07ZM0,58.62c.72.32,1-.16,1.88.19C1.69,59.16-.08,59.56,0,58.62Zm162.26,9.24c.83-.77,2.22,0,3.19-.11C164.91,68.92,163.17,67.86,162.26,67.86ZM21.14,75.76c0,.47-.22.56-.17,1-.75-1-2-1.12-3-1.73C18.85,74.29,19.56,75.39,21.14,75.76ZM12,77.4a1.81,1.81,0,0,1,1.88-.07C13.4,78.11,12.59,77.73,12,77.4Zm19.16,1.42c.76-1.12,2.62.38,0,0Zm130.12-4.61c.15-.55,1.3-.33,1.5-.06C162.46,74.9,161.9,73.81,161.25,74.21ZM43.14,78.92c-.47.78-.89.29-1.68.33A1.5,1.5,0,0,1,43.14,78.92Zm112.12-4c.31-.62,1.43-.15,2.06-.34A5,5,0,0,1,154,75.78c.31-.9,1-.11,1.86-.59C155.79,74.88,155.48,75,155.26,75ZM51.77,78.62c-1.26,1.15-2.56.68-4.49.95C48.61,78.5,49.79,78.82,51.77,78.62Zm29.44-.78c-.92,1.29-2.71.08-4.12.41C78.18,77.36,79.28,78.15,81.21,77.84ZM31.36,80.92c.62-.63,2.06-.17,3-.37C33.74,81.18,32.3,80.72,31.36,80.92Zm76-1.12c-.37,1.28-1.21.45-2.24.61A1.72,1.72,0,0,1,107.32,79.8Zm21.45,3.45c-.5.63-1.81.16-2.62.36A2.78,2.78,0,0,1,128.77,83.25Zm-28.1,2.58c.53-.24.5.35,1,.23C101.46,86.63,100.58,86.9,100.67,85.83ZM28.24,53.41c.74-.56,1.28-.16,2.24-.35,0,.26-.22.22-.37.28,0,.22.08.25.19.26C30.1,54,28.85,53.83,28.24,53.41Zm-9.69,4c.22.23-.1.74.76.5,0-.74-.82-.73.18-.79-.07-.36-.48-.21-.76-.24.08-.24.16-.48.37-.54-.08-.37-.33,0-.37.28-.6-.9.75-1.38,1.28-1.63.47,0,.07.89,0,1.06.72-.23,1.07-.46,1.14.74-.48,0-.23-.18-.2-.52-.59-.1-.65.5-1.31.31,1,1.46,4.66.59,5.25-.18.07-.49.91.86,1.32-.05-.16-.67-.62-.89-1.33-.74-.26-.53,1.76-.2,2.43-.35,0,.5-.61.2-.55.81.61.21.58-.43.74-.82,4.22.07,7.6-.27,12.2.1-.71-.51,0-.59.54-.81.08.44-.13.5-.36.54.3.71,1.1-.05,1.11-.57.35.51.66.4,1.33.48,2,.23,1.26-.14-1.12.57.64.58,2.06,0,3,.15-.26,1-.61.72-1.12.31,1,2.48,4.74.06,7.33,1.05-.91-.73-2.55-.38-3.95-.38.34-.9.76-.2,1.5-.32-.5-1.89-3.29.56-4-1.44,5.44.38,10.12,1.32,15,1.31.41-.16.27.49.57.51,3.72-1.57,6.89.52,12.19.09-.13-1,.64.16,1.12-.57.51.22-.42.61-.36,1.07,1.61-.28,1.82-1.5,3.75-.4-.94.21-1.52-.28-2.06.07a33.09,33.09,0,0,0,7.31,0c-1.38-.6-3.34,0-1.13-.49a4.57,4.57,0,0,1,2.06-.33c.33.52-.14.52.2,1,2.62-.56,4.7-.26,6.73-1.55,0,.55-.83.1-.93.56.53.89,1.62-.55,2.07.19.25-.09.14-.67.16-1.06.82.3.46-.3,1.31-.31-.16.47-.68.46-.73,1.08,2-.13,4.31.44,6.56-.24,0-.3-.34-.2-.56-.24.43-1,1.84.36,2.8-.36-1-1-4.08.06-5.64-.85-1.76-.31,2.23-.38,2.81-.37,4.64.14,9.34,1.52,14.65,1.06-1.06,1.25-3.73.33-5.43.72.42,1,2.42-.28,2.27,1,.58,0,.52-.84,1.3-.57-.06.35-.32.43-.36.8.79-.35,1-.13,1.88-.06-.07-.36-.48-.2-.76-.24.49-.5,2.56-.48,1.88.2,5.76-.24,13.24,2.41,20.48,1.38-.13-.62-1.16.08-1.33-.48-.37-.18,1.25-.23,1.5-.06-.3-1.16-2.33-.68-3.2-.67a22.78,22.78,0,0,1-2.81.1c2.64-1.33,5.61-.8,9-.85-.11.25-.42,1,.2.78-.49.63-1.8.16-2.62.36,1.84.36,4.06.14,5.83.58-.09-.59-1,0-1.14-.48,2.35,0,6.46.7,7.89.24.37-.65,2,1.79,2.66,2,1.09.37,2.92-1.29,3.4,1.2a.84.84,0,0,0-.76-.24c.28.67,1.09.55,1.34,1.27-.72-1.05,2.73-1.71,2.62-.35.66-.54.86-.33,1.49-.59a1.21,1.21,0,0,1-.55.81c.27.66,1.33,1.59,1.7.47.81.25.75,1.77,2.09,1.24a2.83,2.83,0,0,0,2.11,2.56c-.15.65-1.31,0-1.49.58.9.59.59,1.55,1.53,1.78,0,.34-.55.37-.56,0-.4.43.7.92.77,1.55.95-.63,1-.11,1.69-.32-2.05,2.31-6,2.93-8.76,3.47-.48-.28-1.07-.4-1.33-1-.35.13-.46.59-.93.56.05.36.79.47,0,.53.37.19,1.43.75,1.51.47,0,1.15-1.88,1.3-3.17,1.17-1.42.55-2.78,1.76-4.67,1.21a13.27,13.27,0,0,0-.72,1.35c1.37-.39,3.23-.14,4.1-1.2-.4,1.21.74.45,1.33.74-1.1,1.35-4.17.08-5.61,1,1.58.73-1.56,3.14-2.78,1.68,0,.39-.5.83-1.11,1.09.08-.33.23-.55.55-.55-1.53-1.25-4.16-.88-6.58-.82.1-1.06,1.23-.76,2.05-.86-5.27-.8-13.16,1.71-19.48,1.48-1,0-2-.53-2.82-.43-.59,0-.75-.7-1.15-1a48.41,48.41,0,0,1-7.51-.26.14.14,0,0,0,0,.27c-2.79.3-6.79-.24-9.39-.2a82.9,82.9,0,0,1,14.07-.23c-2.46-1.61-6-.65-9.39-.72-2.19,0-4.36-.25-6.39-.3s-4.5.7-5.63-.07c-7.53.4-12.84-.06-19.5.43.4.37,1.86.16,3,.16-.41.47-2.05.49-3.37.38-.57,0-2.63-.28-1.5-.47.86-.18,1.13.32,1.68-.06-2.26-.42-4.26-.41-5.06.18-1.38-1.18-5.58-.11-9-.21-4.6-.13-9.85.65-15.19,0-.3.1.17.45-.18.53-.53-.49-.22-.08-.77-.76-.29.12-.14.83-.74.55,0-.26.23-.21.37-.28-1.39-.73-3.88.15-4.89-1.14-.59,1.34-3.52,0-5.25.45,0-1.69.84-.52,1.68-.59-2-1.18-2.4-.14-5.08-.87a4.23,4.23,0,0,0,3.2.94c-1.25,1.6-3.83.25-5.44-.07a8.83,8.83,0,0,0,2.09,1.51c-1.46.43-2.77-2.47-4.35-2,1.21-.77,2.32.73,3.75-.14-3.07-1.55-6.39-1.36-9.25-3.35-.58-.18-.35.73-.93.55.48-.79-.61-.89-1-1.28.09-.46.91.26,1.32.22.15-1-1-.16-1.14-.75.33-.72,1.13.11,1.5.21,0-.65-1.69-2.17-2.65-1.48.41-2-1.72-1.76-2.29-2,.19-.6,1.18-.14,1.68-.32-.23-.37-.72-.37-1-.76.18-1.52,1.4-.65,1.85-1.38-.94-.58-2.27-.6-3.39-.93.13.53.95,0,.77,1-1.33-.83-3.42-1.14-3.42-2.51a.14.14,0,0,0,0-.27c1.48-.42,2.86,1.15,4.51.37-.35-.87-.82,0-1.69-.2.82-1-.21-.25-.21-1.05,1.09-.42,1.27.66,1.88.2,0-.47-.18-.54-.19-.26,1.1-2,5.21-1.49,7.08-2.88-.39-.58-1.16.49-1.51-.47,0,1.33-.56,0-1.68.58C17,58.37,18.05,58.64,18.55,57.43Zm128.54,1.49c.53,0,1.1,1.25,1.51.48C148.08,59.43,147.46,58.22,147.09,58.92ZM136.73,77.71c-.83.2-1.48-.67-1.86.33C135.53,78.19,136.82,78.19,136.73,77.71Zm-20.42,1.51c0-.53,2.17,0,2.82.17-.66-.83-2.79-.91-3.76-.4C115.65,79,116.16,79.94,116.31,79.22Zm-80-23.73c0,.26,0,.52,0,.79.42.19,1.24-.34.74-.56C37,56.51,36.8,55.12,36.34,55.49Zm5.27.86c-.67-.27-1-1.1-2.08-.71C40.26,56.86,40.65,55.81,41.61,56.35Zm-6.37.49c-.05.77,2,.82,1.69.21C36.53,56.74,35.54,56.48,35.24,56.84Zm17.27.44c.61-.82,1.64.5,1.86-.85C53.32,56.23,52.37,56.45,52.51,57.28Zm-29.44.78c-.15-.05-.22-.21-.2-.52-.85-.14-1.59.78-2.25.08C20.72,58.66,23,57.93,23.07,58.06Zm26.63-.42,2.06-.07c0-.66.35-.84-.2-1C51.66,57.7,49.41,57.08,49.7,57.64Zm6.37-.49c-.3-1.08-1-.34-1.51-.73C54.54,57.44,55.74,56.66,56.07,57.15Zm87.08,1.65c.83-.4,1.68.74,1.87-.33C144.52,58.59,142.73,58.31,143.15,58.8Zm12.24,2.72c-.57.19-1.62-.28-1.87.33C154.46,61.64,154.86,62.6,155.39,61.52Zm-.53,1.6c-.61-.34.76-.14.54-.81-1,.47-1.85-.16-2.61.36C153.49,62.63,154.3,63.83,154.86,63.12Zm-102,14.14c-.57.19-1.62-.28-1.87.33C51.57,77.41,52.62,77.87,52.87,77.26ZM139.71,76c.33,0,.93-.29.76.5.93,0,2.88-.07,2.41-1.13C142.54,76.39,140.79,75,139.71,76Zm9.74-.87c-2.18.07-1.42,1.4,0,0ZM112.54,78.3c.5,0,1.11.11,1.12-.56-.53.29-1.29-.39-1.31,0C112.49,77.84,112.57,78,112.54,78.3Zm33.59.39c-.23,0-.12-.29,0-.52-.57-.15-1.61.39-1.88-.2.64-.13.23-.72.94-.3,0-1.19-2-.92-2.26-.18.39.14,1.23-.37,1.32.22-.79.08.12.83-.55,1.07C144.53,78.92,145.89,79.15,146.13,78.69ZM65.26,77.61c-.14,1-1.76.28-1.87.6C62.93,77,64.82,78.38,65.26,77.61ZM93.38,55.83c.22-1,.77,0,1.3-.57,0,.31,0,.47.2.52C94.67,56.17,94.08,55.94,93.38,55.83Zm-71.86-.34c0-.3.18-.16.19,0a3.42,3.42,0,0,1,1.87-.33c-.06.77-1.06.14-.55.55,0,.65-.64.1-.75,0a.71.71,0,0,0-.37.54c0,.51.86-.48.38.51.62.31.13-.85.74-.55-.1.89-.88.88-1.67.85C21.61,56.38,21.79,55.79,21.52,55.49Zm60.57-1.36c0,1.1-.57,1.45-1.47,1.36-.41-.47,1.5,0,1.29-1.09-3.62.58-4.79.14-8.26,0-.13-1,1-.35,1.5-.58,0,.18-.24.3-.38.27C76.36,54.51,79.57,54,82.09,54.13ZM7.34,59.94c1.46.39,2.73,1,.77.76-.54-.07-.92-.57-1.7-.47,0-.22.07-.25.18-.27,0-.22-.07-.24-.19-.25.62-.73,1.55.4,2.44.17C8.51,60.7,8,59.61,7.34,59.94ZM126.6,56.49c.54-.48-.91,1.19-1.31.31C125.62,56.41,125.86,56.72,126.6,56.49Zm31,4.43a.3.3,0,0,0,.37-.28c.52-.13.19,1,.58,1C158.57,62,157.47,61.73,157.63,60.92ZM17.16,73.53c.57-.91.93.77,1.69.47C18.35,74.81,17.8,73.41,17.16,73.53Zm17,5.45c-.24.07-.18.53,0,.53-.9-.05-2,0-3.19-.15.33-.85,2.25.43,2-1.13C33.44,78.29,35,79.49,34.14,79Z"/></g></g></g></svg>