<svg xmlns="http://www.w3.org/2000/svg" viewBox="0 0 2138.37 1092.51"><defs><style>.cls-1{fill:#8dcee2;stroke:#003245;stroke-miterlimit:10;stroke-width:0.5px;}.cls-2{fill:#003245;}</style></defs><g id="Layer_2" data-name="Layer 2"><g id="Layer_2-2" data-name="Layer 2"><rect class="cls-1" x="4.04" y="0.25" width="2129.39" height="267"/><rect class="cls-2" x="5.15" y="192.04" width="2129.39" height="894.71"/><path class="cls-2" d="M1034.61,1092.5c19.06,0,52.74,0,68.35-.11C1045,1092.3,939.19,1092.49,1034.61,1092.5Zm260.28-.17c6.22-.18,26-.2,47.61-.19-.11.06-1.94.1-4.91.13l-11.81,0Zm-329.16,0c-37.08.11-64.8.1-109.67,0,12.26-.07,18.45-.23,33.76-.27C869,1092.5,954.62,1092.1,965.73,1092.35Zm404.15-.22c1.57-.18,25.39-.09,27-.27-2.1-.23-11.57.12-27.41,0,11.41-.15,24.39-.28,47.42-.28-7.45.11-5.62.18,7.22.17a5.71,5.71,0,0,1-1.32.11l-3.65.09-12.75.1Zm-617.19,0c-23.14.19-84.73.13-109.62,0C672.66,1091.92,716,1092.23,752.69,1092.15Zm253.44-.16c-6.79.11-71.6.24-68.73-.07Zm-7.37-.27c-5.54-.42,108.37-.08,164.16-.22C1111.6,1091.94,1054.59,1091.5,998.76,1091.72ZM389,1092H347.82c-7.1-.31,26.73-.13,40.78-.19A3.76,3.76,0,0,1,389,1092Zm-68.85-.15-45,.13-25.75,0c-6.92,0-11.5-.08-11.73-.17ZM.07,674.66c.31,22.45.21,89.27.22,136.7C.09,768.17.14,735.64.07,674.66ZM174.16,187c-9.29.5-73-.08-123.19.13.13,0,1.6,0,4.15-.06l10.58,0,34.05,0Zm143.91,0c-21,.51-76.36.13-102.41.21C223.64,186.79,287.18,187.07,318.07,187ZM1483.48,1090.6c45.52-.39,93.06.26,143.92,0C1612.43,1091,1537.32,1090.57,1483.48,1090.6ZM.41,379.06c.17,16.43.21,44.34.2,75C.4,441.08.42,409,.41,379.06Zm2134,711.24-68.69-.06C2072.56,1090.12,2137.36,1090,2134.42,1090.3Zm.59-120.06c.26,30.32,0,81.15,0,116.51C2134.66,1067.08,2135,1003.7,2135,970.24Zm-773.15,114.35c-1.15-.16,8-.19,6.19-.35,27.42.32,74.61.37,110.85.58C1445.56,1085.08,1419.44,1084.71,1361.86,1084.59Zm335-.55c-9.16.08-46.85.18-68.54,0C1644.7,1083.81,1674.41,1083.93,1696.86,1084Zm-700.46-.47c-27.66.37-95.58-.13,0,0ZM2132.9,933.28c.18,5.54.1,47.51,0,54.83C2132.66,977.66,2133,957,2132.9,933.28ZM557.38,1083.54c17.1-.26,32.49-.1,61.48-.11C601.45,1083.58,576.28,1083.63,557.38,1083.54ZM2132.65,714.29c.2,11.34,0,52.27.11,75.23-.27-44.83-.38-63.43-.39-122.7.3,11.46,0,37.85.2,68.2C2132.67,733.73,2132.64,722.39,2132.65,714.29ZM242.08,1083.64c46-.39,93.56-.23,164-.32C357.52,1083.68,314.33,1083.57,242.08,1083.64ZM8,247.44c.43,33.57,0,98.9.14,150.64C7.84,358,8.1,318,8,247.44Zm980.11,835.43c-22.57.21-75.19.06-109.48.12C901.24,1082.78,953.85,1082.94,988.11,1082.87ZM904.29,195.55c-13.48.42-44.33.14-81.91.2C827.24,195.6,874.39,195.34,904.29,195.55Zm784.13,1.15c-18.1.2-66.06.05-95.8.11C1618.92,196.58,1653.71,196.63,1688.42,196.7Zm-1027,.85c19.21-.07,18,.12,34.4.08C690.11,197.82,658.08,197.91,661.4,197.55ZM1102.28,1092c-27.19.19-46.86,0-82.09.12,0,0,.13,0,.37,0l1,0,3.42,0,8.78,0c1.07-.07-2.86-.08-7.06-.08C1034.23,1091.84,1079.86,1091.9,1102.28,1092Zm353.93-1.34c-7.93-.08,3.79-.25-27.72-.17-.83.25,30.06.25-6.33.27,2.33.12,17.3.07,27.56.08-2.86.08-5.68.16-13.36.18,2.67.12,12.11,0,13.56-.1,21.76.3-27.54.46-46.93.55-17.07,0-2.6-.3-.73-.35-26.3.07-39.06.15-41.62-.25,17.53,0,8.52.06,7.22.17,21.69,0,23.86-.17,47.81-.1-36.05-.49-170.24-.2-191.92.06-2.49.16-33.18-.29-48,0,5.65.23,22.49.3,48.53.25,9.43.18-64.49.07-88.93.12.42-.17,22.53-.07,20.05-.27-22.15-.07-21.15.14-26.93.27l-445.85,0c25.71.17-1.18.19-20,.27-2.82-.15,5-.17,13.36-.18-5.49-.12-15.53-.12-24.27-.06s-16.18.16-16.51.25c-12.56-.17-24-.14-48.3-.16-74.73-.08-46.13,0,40.74-.19-23.41-.2-75.3,0-109.82,0,9.4-.34,22.19-.24,40.94-.11-36.24-.82-173.36,0-268.14-.35,33.23.25,93.1.13,144.3.13-12.37.3-27.57.07-54.67.11,18.4.63,120.39-.19,145,.48L.81,1091.09v-33.86c-.06-15.08.16-10.08.17-20.93-.53-136.08.17-251.79,0-445.8-.33,4.77.05-23.14-.19-40.78.07-18.72.2,15.27.35,13C1.08,503.82.68,496.18,1,425.84c.07,34.3-.09,55.53,0,75.38V233.73c-.2,50.72,0,122.19-.16,41.51C.86,254.89.75,233.85.79,200c0-1.94,0-3.29.06-4.22,0-1.27,0-1.94.05-2.21,0-.54,0,.51.07,1.55,0,2.1.09,4.05.17-6.36V188L136,187.86c40.13-.05,77.57-.13,114.63-.35-1.41.19-30,0-33.91.19,19.25.3,59.34-.18,75.54.06,9.27,0,5.26-.22,6.18-.35,29.9.1,16.64-.1,47.81-.1-5.92.15-24.94.15-26.73.36,71.94,0,157.48.14,239.88-.08-1.34-.1-12.61-.07-20.74-.08,15.89-.33,67.28.12,102.64-.12-36.23-.34-149.37,0-206.31-.29C370.62,187,516.6,187,537.6,187c169.66.05,341.38.51,535.62.36-38.64.41-136.51.1-198.4.23,15.23.33,88.32-.09,82.93.33,21.31,0,19.06-.28,47.62-.19-2.18.11-11.76.14-13.18.27,28.87-.12,36.85,0,68.55,0-2.34-.12-17.3-.06-27.57-.08,17.79-.16,93.55-.15,68.69.07,210.63-.08,483.73.81,748.43.46-4.66-.21-42.12,0-48.31-.16-13.59-.06,45.48-.08,54.84,0-11.27-.39-85.24-.23-117-.22L1637,188c96.6-.44,204.86-.26,328.62-.28-4,.08-15.32.33,7.4.26-18.09.21-66.06.05-95.8.12l213,.19c-3.29-.19-36.4,0-41.47-.16l89.63,0c0,40.24,0,82.91-.08,120.32,0,36.21,0,67.34,0,85.93.22,13.75-.59,73.86-.67,97.34-.12,39.94.44,106.88-.39,124.21.06-6.22.09-15.66.07-27.57-.22,10.16-.18,39.83-.42,48.84.35-26.27.57,99.86.12,95.77.18,24,.11,31.51.19,54.49-.12-3.59-.21-10.24-.27-20-.21,9.8-.52,48.33-.15,62-.08,29.6-.59,27.58-.41,76.3-.53,8-.74,39-.86,77.13-.21-5.5,0-47.77-.19-54.48-.2,33.1-.52,21.68-.6,56-.05-.69-.08-5.75-.08-10.68,0-2.46,0-4.9,0-6.73s0-3.09.07-3.17c-.15-14.48-.31,25.88-.52,28.44.21,34.68,0,34.86.11,61.52-.77-74.65-1-218.07-1.16-320.07.1-17.52.14-39.14.34-48.65,0-13-.2-16.87-.19-33.94-.12,1.64-.15,28.79-.17.38-.07,13.52-.25,52.28-.16,55.14-.19-.82-.3-18-.36-40.85s0-51.41,0-75c-.18-52.15-.59-101.65-.41-170.64-.15-9.21-.31-18.87-.44-26.54.13,50.29,0,118.18.4,150.06-.41-14.92-.16,26.73-.25,48.54-.45-40.36,0-152.51-.33-205.13-.25,57.85-1-56.9-.56-101.73-.07-.23-.13-4.73-.2-12s-.1-17.26-.16-28.48c.11,2.82.18,8.44.18,20.24,0-10,.11-21.25.17-33.53,0-11.22.06-23.38.1-36.24H1967.17c3.63-.35,44.87-.25,74.88-.28-192.83-.27-481.25.57-712.27.49l-103.17-.14c-21.27,0-27.15-.24-41.81-.34l-274.51-.08c-7.75,0-3.63.08.19.08l-343.06-.06,514.2-.08c-89.92-.54-218.95-.22-343.39-.24l-233.35-.1c-77.33,0-164.66.23-205.79,0l-291.23.06c0,143.18,0,270.86.08,416.29.12-14.7.06-67.77.06-109.78.15,15.16.16,75.15.12,123.18,0,21-.09,96.35-.16,55.18-.06-31.77.11-41.62,0-61.71C7.8,700.63,7.81,773.82,8,803c-.17,22.19-.2,64.43-.18,115.48,0,50.2.08,109.07.11,165.53H606.22c10.69,0-6.3-.15,6.53-.18l27.91.25c10.69,0,5.31-.27,27.07-.18l-.37,0-1,0-3.42,0-8.75,0c51.13.25,141.82,0,179.09.38,21.53-.44,128.49,0,191.73-.15,1.44.57-30.75.18-61.33.2,71.9.39,87.79.05,185.73.29-32-.2-65.6-.38-117.23-.31,45.82-.54,140.07-.09,198.95,0l-76.41-.5c53.53-.15,101.31.82,159,.65-44,.25-84.54-.25-137.09,0,112.23.52,233.7.46,338.29,1.12,21.23.06,12.67-.24,33.94-.18-17.68.26,22.35.29,35.09.42-3.31.16-33.22-.08-48.11-.07-5.65.35,36.28.05,41.66.25-12,.24-41.5,0-55-.07.22,0,4.19.13,10.58.2l25,.21c19.74.13,43.76.2,61.32.08-15.08.67,63,.59,83.63.68-6.88.2-43,0-61.48.11l34.79.25c-6.49.51-51.09.22-67.67.46l124.07.31c-4.66-.18-34.68,0-28.11-.34l80.75.35,31.59.2,9.34.13,2.52.07a4.86,4.86,0,0,1,.89.08c-7.75,0-3.63.09.16.09-54,.14-104.4-.38-164.81-.12,12.75.29,30,0,61.86.07-30.17.33,7.49.08,7.52.35-39.56.14-46.16-.22-68.69-.07-1.61.16,6.83.18,7,.09-40.22.68-190.51.49-258.71,1,14.13.19,42.46-.17,55.21.15-.2-.22,4.9-.21,15.16-.18s25.71.1,46.17,0C1512.81,1090.39,1474.51,1090.3,1456.21,1090.7Zm681.78-675c0,19.29-.41,40.06-.16,55.18C2137.82,451.77,2138.23,429.31,2138,415.68ZM1979.66,194.85c-30.66.06-54.3-.23-68.35.11C1935.67,195,1982.75,195,1979.66,194.85Zm-746.56.5c-.95-.09,18.82-.09,41.81-.06l61.18.12c-24.21-.28-102.18-.31-137.39-.14C1208.93,195.27,1227.34,195.59,1233.1,195.35Zm-427.1,896-.53-.27c-15.69-.06-45.67.12-27.07.19C783.86,1091,789.09,1091.47,806,1091.35Zm-192.6-.29c24.51.09,35.21.37,75.91.24C662.58,1090.89,648.45,1091.24,613.4,1091.06Zm232.85-.16c1.84-.26-72.47-.28-61.86-.07C799.17,1090.93,835.25,1091,846.25,1090.9ZM215,1090.75c-22.42.27-60.19-.17-68,.28C185.39,1091.1,220,1091,215,1090.75Zm1076.24-.26c5.38,0,8.1.07,7.18.17,30.93,0,58-.26,82.25,0C1377.18,1090.29,1295,1090.53,1291.26,1090.49Zm-973.6.14-75.42,0c-.42.22-12.56.28,7.52.35C246,1090.61,328.19,1090.82,317.66,1090.63Zm-232.86.16c11,.36,37.12.12,55.33.25.16-.09-2.45-.13-6.66-.16l-16.19,0C104.89,1090.85,90.89,1090.87,84.8,1090.79ZM2138,271.57c.13,30.59-.24,61.48.11,68.4C2138.1,321.6,2138.2,256.38,2138,271.57Zm-.91,447.61c-.06-20.74.1-59.3-.11-68.39C2137.08,685.27,2136.76,699.9,2137.12,719.18Zm-.53-19.55c.12-22.15,0,28,.27,20-.15-37.5.06-67.81-.12-95.76C2136.76,649.64,2136.35,679.39,2136.59,699.63ZM201.84,1084.09c20.73-.06,59.26.09,68.35-.11C249.46,1084,211,1083.89,201.84,1084.09Zm1886.42-889.8c12.21,0,34.17-.1,27.79.16h16.08c0,17.17.06,37.33.08,51.46.06,14.79.14,23.29.29,16-.11-4.16-.13-13.86-.12-26.4,0-11.94,0-26.59,0-41.4l-22,0Zm44.32,307.54c0-79.42-.46-51.7,0,0ZM1095.33,195.05l27.09,0,9.75-.05c2.42,0,3.87-.07,3.95-.12-9.61,0-21.44,0-30.94,0l-12,0c-3,0-4.9,0-5.07.05C1093.49,194.89,1096.25,194.94,1095.33,195.05ZM2131.4,380.71c0-8.33.1-4.39.18-.34.05-21-.13-58.81.06-68.74.05,23.37.24,8.29.1,34.14.05-.1.09-1.32.13-3.4s.05-5,.08-8.56c0-7.06,0-16.49.06-26.19,0-19.38-.08-39.79-.21-44.29,0,14.32.13,44.82-.07,48.15,0-28.68-.28,4.58-.36-19.9C2131.33,322.29,2131.25,371.93,2131.4,380.71ZM7.93,830.57c.32,5,.09,64.37.19,68.2C7.73,915.72,8.18,846.41,7.93,830.57Zm386.78-643c7.91-.33,28.15,0,47.66-.19-.92.11,1.79.16,7.18.18C442.06,187.67,420.22,187.59,394.71,187.55Zm953.1,903.8c-.56.05-2.24.06-3.81.06s-3,0-3.06-.06c-17.83.1-41.85.12-68.35.11,2.21-.26,38.83,0,20.2-.18.61-.22,23.14,0,27.41,0,6,0,12.15-.08,13.37-.18-.88-.17-31.62.16-14-.17-22.38-.1-4.66.28-27.08.18,3.82-.29,32.35-.29,61.17-.28C1344.45,1091.05,1337.81,1091.25,1347.81,1091.35ZM.1,215.1A23.82,23.82,0,0,1,.33,219c.06,2.5.11,6.14.14,10.81.08,9.33.1,22.74.08,39.22C.39,284,.54,214.15.19,221.78c.19,132.43,0,175,0,301.78C-.15,528.41.08,486.1,0,469c.06-.31.11,8.71.1,13.56Zm1866,874.76c-53.35-.13-99.67-.33-28-.25,19.67,0,33.65.19,62.06.16,1.41.07-2.52.08-6.69.09-1.1.07,2.83.08,7,.08-22.72.24-56.7-.13-89.28-.06C1823.41,1089.61,1844,1090,1866.1,1089.86Zm-257-902.08c19.67-.17-33.33.39-47.84.1C1573.37,187.75,1582.19,187.85,1609.07,187.78Zm528.26,613.27c0,8,0,12.18.09,13.55,0,18.83-.33,7.07-.35,21.27,0,0,0-.72,0-1.85s0-2.72,0-4.6c0-3.75,0-8.66,0-13.36C2137.1,806.64,2137.19,798,2137.33,801.05Zm-629.95,284.28c-21,.31-34.17-.25-62.08-.15C1463.78,1084.91,1483.83,1085.37,1507.38,1085.33Zm-620.84-1.81c8.55,0,6.57-.18-.35-.18l116.7.05c-12.11.28-82.26-.14-74.73.38C912.24,1083.75,854.31,1083.35,886.54,1083.52Z"/><path class="cls-2" d="M439.06,94.33l18.66-22.92a112.28,112.28,0,0,1-30.9,11.41"/><path class="cls-2" d="M444,83.68a2,2,0,0,0-.41.59C444,83.83,444.64,82.92,444,83.68Zm-1.64,2.15c0,.1-.09.27-.23.44C442.05,86.19,442.26,86,442.38,85.83Zm2.15-2.65a4.45,4.45,0,0,1,.7-.89c-.05.12,0,.22-.12.35C445.1,82.35,444.69,83.17,444.53,83.18ZM442,86.49c.06.07-.13.24-.07.31s0-.14.18-.23a.9.9,0,0,1-.21.47c0-.09,0-.1-.11,0C441.63,86.94,441.82,86.71,442,86.49Zm4-5a3,3,0,0,1,.71-.89C446.61,81,446.21,81.21,446,81.53Zm-1.59,2.09c0-.09.37-.66.48-.53C444.71,83.36,444.57,83.39,444.4,83.62Zm.15,0c.2.09-.67.9-1,1.39C443.73,84.48,444.28,84.16,444.55,83.64Zm3.88-5,.26-.33c.17,0-.12.26-.19.39Zm.51-.5c0-.12.43-.74.56-.64Zm4.76-5.83c0,.28-.5.78-.81,1.17A8.09,8.09,0,0,1,453.7,72.32Zm2.06,3c0-.27.7-.32,1.13-.66C456.92,74.71,456.07,75.08,455.76,75.28Zm-1.36.7c.09-.33.7-.41.93-.58C455.34,75.62,454.67,75.78,454.4,76ZM441.82,87.89c-.14.49-.71.66-.92,1.17C440.83,88.8,441.48,88.33,441.82,87.89Zm13.94-17.84a1.94,1.94,0,0,1-.41.67C455.35,70.55,455.57,70.3,455.76,70.05ZM437.68,93.21c.22-.18.23-.32.48-.53C438.16,92.77,437.79,93.33,437.68,93.21ZM428.05,82.8a4.25,4.25,0,0,1-1.18.27C427,82.84,427.71,82.87,428.05,82.8Zm16.9,6c.06,0,0,.12.09.16a6.16,6.16,0,0,0-1,.71C444.21,89.33,444.52,89.23,445,88.81Zm-2,2.86a1.46,1.46,0,0,1,.44-.56C443.4,91.33,443.16,91.53,443,91.67Zm4.76-5.47c0-.34.67-.73,0,0Zm-19.54-4.52c0,.1-.46.16-.55.13C427.72,81.67,428,81.8,428.19,81.68Zm22.42,1c0,.22-.17.29-.36.53A1.14,1.14,0,0,1,450.61,82.68Zm-20.26-1.63c-.09.13-.51.15-.74.23a3.68,3.68,0,0,1,1.18-.48c-.07.17-.37.11-.65.26C430.16,81.11,430.27,81.06,430.35,81.05Zm22.28-.93a5.44,5.44,0,0,1-.95,1.41A6,6,0,0,1,452.63,80.12ZM456,70.7c.15-.27.59-.41,1-.6l6.76-3.22-4.89,5.46a2.34,2.34,0,0,0-.24.31,1.48,1.48,0,0,1,.19-.35l4.26-5.79L457,70.16C456.77,70.31,456.43,70.43,456,70.7Zm-7.95,15.65c.06-.25.47-.62.66-.92C448.66,85.68,448.25,86.05,448.06,86.35Zm-1-11.73c0-.25.39-.25.73-.42A1.16,1.16,0,0,1,447.08,74.62Zm-7.64,2.32c.14-.16.62-.24.9-.38A2.17,2.17,0,0,1,439.44,76.94Zm9.49-4.23c-.16.11-.19,0-.33.1C448.61,72.7,448.89,72.53,448.93,72.71Zm-5.18,11.66a3.81,3.81,0,0,1,.5-.69s0,.09-.06.14.05,0,.08,0S444,84.24,443.75,84.37ZM442,87.64c.08,0,.07.11.25-.17-.09-.09-.29.16-.06-.14-.07,0-.14.12-.22.2a.19.19,0,0,1,0-.16c-.06,0-.08.09-.05.13-.26.08,0-.36.1-.54s.13.07.14.1c.14-.23.19-.36.37-.25-.12.14-.08,0-.12,0-.15.16-.09.24-.27.42a3.61,3.61,0,0,0,1.23-1.57c-.05-.07.33-.17.31-.39-.13,0-.27.09-.42.32-.13,0,.4-.54.54-.76.06.06-.12.21,0,.25.17-.16.09-.21.07-.3,1-1.23,1.78-2.26,2.93-3.57-.23.15-.07-.07,0-.25.08,0,0,.1,0,.17.16,0,.25-.33.19-.39.15,0,.21-.15.38-.34.52-.57.28-.38-.19.39a5.74,5.74,0,0,0,.73-.87c.07.18-.05.26-.23.36.56,0,1.15-1.38,1.89-2a6,6,0,0,0-1,1.12c0-.19.16-.24.32-.47-.37,0-.72,1-1.14,1,1.35-1.55,2.59-2.83,3.76-4.27.08-.14.13,0,.21-.12.68-1.26,1.71-2,2.92-3.57-.16-.06.17-.17.19-.39s0,.19.06.22c.35-.5.24-.69.84-1.14-.2.3-.4.42-.48.61.29-.31.62-.71.94-1.1l2.52,3-1.17.66c.52-.17,1.14-.61.43-.14a3.88,3.88,0,0,1-.68.43c-.15,0,0-.1-.15-.12a17.36,17.36,0,0,0-2.19,1.42c0-.09.28-.16.28-.25-.24,0-.52.36-.73.33s0,.12,0,.19c-.3.09-.13.12-.43.26,0-.09.2-.18.18-.28-.67.36-1.53.66-2.27,1.13,0,0,.13,0,.21-.06-.08.22-.67.25-.95.51.41,0,1.42-.67,2-.79s-.75.43-1,.51c-1.63.75-3.39,1.26-5.26,2.11a10.11,10.11,0,0,1,1.89-.92c-.21-.08-.84.41-.87.19-.21.09-.13.21-.42.29,0-.07.08-.12.07-.18a2.64,2.64,0,0,1-.66.29s.18,0,.28-.08c-.14.15-.88.45-.68.24-2,.88-4.89,1.47-7.48,2.49.08.09.42-.15.51-.08s-.44.19-.55.19c.18.15.89-.18,1.21-.29s.64-.25,1-.36a15.45,15.45,0,0,1-3.25,1.22s.11-.2-.11-.1c.15-.16.65-.23.94-.36-.69.15-1.49.46-2.17.58.06.08.37-.12.44,0-.86.26-2.41.59-2.92.81-.11.14-.83-.08-1.08,0-.42,0-1,.49-1.31.13a.66.66,0,0,0,.29,0c-.13-.08-.43,0-.55-.07.32.1-.94.53-.95.3a2.45,2.45,0,0,1-.54.22.35.35,0,0,1,.18-.18c-.13-.08-.56-.14-.65.08-.31,0-.35-.22-.83,0-.13-.24-.47-.27-.87-.25,0-.11.48-.1.53-.21-.36,0-.28-.21-.63-.17,0-.06.19-.1.2,0,.13-.1-.29-.09-.34-.19-.33.18-.35.1-.61.19a12.54,12.54,0,0,1,3.09-1.3,1.43,1.43,0,0,1,.53.05c.12-.05.14-.14.31-.18,0,0-.3,0,0-.08a1.73,1.73,0,0,0-.57.06c0-.19.63-.38,1.11-.48a5.71,5.71,0,0,1,1.63-.65,1.94,1.94,0,0,0,.21-.29,6.76,6.76,0,0,0-1.43.6c.09-.24-.29,0-.52,0,.35-.31,1.51-.4,2-.7-.6,0,.41-.66.92-.55,0-.06.14-.18.34-.29,0,.06-.05.11-.17.15a8,8,0,0,0,2.39-.58c0,.18-.4.26-.69.36,1.93-.45,4.58-1.78,6.79-2.59.34-.13.72-.18,1-.31s.3,0,.45,0c1.06-.47,1.63-.63,2.61-1,.07,0,0,0,0,0,.94-.44,2.34-1,3.22-1.39a41.5,41.5,0,0,1-4.8,2.13,13.32,13.32,0,0,0,3.27-1.26c.75-.32,1.5-.64,2.19-1a13.59,13.59,0,0,1,1.9-.9c1.6-.83,2.89-1.5,4.19-2.21l6-3.26-4.29,5.3c-.52.64-1,1.31-1.6,2a5.93,5.93,0,0,0,.73-.86,4.39,4.39,0,0,1-.75,1c-.15.16-.67.74-.42.39s.31-.3.39-.5a6.71,6.71,0,0,0-1.18,1.5,19.15,19.15,0,0,0-2.18,2.63c-1.12,1.34-2.27,3-3.63,4.46-.06.1.1,0,0,.11a1.57,1.57,0,0,1-.29.14c-.05.1.08.13-.1.28,0,0,0-.09.05-.14-.43.33-.91,1.15-1.32,1.32,0,.31-.83,1-1.19,1.58-.23-.16.13-.3.32-.55-.62.45-.59.69-1.32,1.4a3.37,3.37,0,0,0,.89-.84c-.1.53-.89,1.15-1.31,1.59a5.17,5.17,0,0,0,.69-.46c-.29.48-1,.56-1.29,1.07.19-.43.65-.6.88-1.11-.94.74-1.71,1.73-2.65,2.36-.16.15,0,.18-.15.33,0-.22-.26.09-.39.15s.25-.24.34-.36c-.1-.16-.26.27-.37.25,0-.17.29-.32.39-.42-.09-.06-.69.27-.83.63-.15-.33-.64.32-.8.45,0-.11.26-.36.36-.52-.11,0-.23.17-.33.2-.15-.22.25-.48.26-.69a11,11,0,0,0-.93.9c.1,0,.23-.28.32-.12-.43.3-1,.88-1.14.74,0-.07,0-.06,0,0,.3-.48.83-.72,1.13-1.28-.2,0-.2.24-.43.47.06-.35-.08,0-.19,0,.21-.36.39-.3.48-.53-.05-.06-.12,0-.08,0,0-.54,1.05-1.68,1.32-2.38-.17.05-.22.39-.43.39.18.14-.14.16-.32.56C441.71,88.19,442,87.91,442,87.64ZM434,82.85c-.2.06-.46-.09-.58.08C433.64,82.87,433.92,83,434,82.85Zm2.88-4.11c.29-.13.56-.06.65-.26C437.31,78.53,436.85,78.67,436.91,78.74ZM444,76c.05.07-.76.29-1,.35a2.93,2.93,0,0,0,1.33-.45C444.26,75.92,444,75.84,444,76ZM446,82.21l.1.08c.13-.1.26-.4.11-.27C446.23,82.14,446,82,446,82.21Zm1.37-1.45c-.2.16-.37.16-.59.53C447.07,81.2,447,81,447.33,80.76Zm-1.46,1.92c.09.09.58-.5.43-.48S445.89,82.55,445.87,82.68Zm4.18-5c0-.27.46-.44.34-.64C450.11,77.31,449.91,77.61,450.05,77.66Zm-6.93,8.72s-.08,0-.11,0c-.22.24-.28.55-.53.67C442.64,87.13,443.08,86.4,443.12,86.38Zm6.31-7.86.48-.62c-.08-.07,0-.18-.18-.05C449.9,78,449.29,78.54,449.43,78.52Zm1.46-1.92c-.22,0-.29.26-.46.36C450.56,77.08,450.74,76.64,450.89,76.6Zm-15.4,5.86c-.29.16-.65.06-.68.25C435,82.64,435.67,82.5,435.49,82.46Zm-4.65.77c.2-.07.61-.1.68-.22C431.18,83.13,431,83,430.84,83.23Zm.13-.3c.24,0-.28.09-.17.18.36-.17.7-.15,1-.3C431.5,82.88,431.15,82.76,431,82.93Zm21.75-3.28c-.11.19-.42.45-.4.58C452.43,80.05,452.74,79.79,452.72,79.65Zm-16.79-.32c-.12,0-.32.15-.3,0-.33.1-1,.32-.81.44C434.89,79.58,435.59,79.62,435.93,79.33Zm-3.47,1.15c.78-.23.45-.37,0,0Zm12.92-4.88c-.17.07-.39.13-.35.24.16-.12.47-.12.45-.19S445.39,75.65,445.38,75.6Zm-11.88,4c.08,0,.05,0,0,.08.22,0,.56-.22.69-.16-.22.09,0,.14-.32.15.06.18.76-.06.82-.21-.15,0-.43.19-.49.11.28-.1-.08-.12.15-.23A2.43,2.43,0,0,0,433.5,79.58Zm22.23-3.53c.09.15-.39.55-.37.61C455.09,76.67,455.72,76.26,455.73,76.05Zm-2.18,0c0,.19-.27.13-.41.3,0-.05-.05-.06-.11,0S453.3,76.17,453.55,76.07ZM442.42,86.56s0-.07,0,0a2.64,2.64,0,0,1,.41-.59c.08.1-.24.33-.07.22.09.08-.13.2-.17.23s-.05.12,0,.16.14-.31.16-.06c.18-.15-.08-.13.1-.27.09.12-.09.35-.29.58C442.56,86.63,442.52,86.51,442.42,86.56Zm15.15-12.21c-.09-.16.08-.32.39-.47.18,0-.51.28-.35.4.54-.34.92-.56,1.27-.74l-3.05-3.67-1.1,1.28c-.16-.07.2-.34.28-.5,0,0,0,.1-.05.14.22-.22.5-.58.81-1l3.15,3.79C458.48,73.86,458,74.13,457.57,74.35Zm-18,16.84c.4-.38.78-.69.28-.14a3.17,3.17,0,0,0-.47.45s0,0,0-.08-.05,0-.08,0c.06-.25.42-.41.61-.69C440,90.93,439.71,91,439.61,91.19Zm2.07-10.31c-.17.15.26-.3.45-.22C442,80.77,441.93,80.75,441.68,80.88ZM430,83.53c-.09,0-.13,0-.13.08-.19.07-.11-.14-.26-.12S430.06,83.38,430,83.53Zm13.68,6.21c0-.26.32-.19.46-.45C444.16,89.53,443.85,89.54,443.71,89.74Zm4.76-4.41c-.05.08,0,.11.07,0-.22.26-.49.6-.78.92,0-.18.59-.61.34-.71C448.21,85.46,448.75,85.12,448.47,85.33Z"/><path class="cls-2" d="M417.67,84.1a14.49,14.49,0,0,1-17.74-6.64A14.84,14.84,0,0,1,404.76,59a14.43,14.43,0,0,1,18.66,3.1,14.86,14.86,0,0,1-1.27,19.1"/><path class="cls-2" d="M401.66,84a4.26,4.26,0,0,0,.92.64C401.84,84,400.45,83,401.66,84Zm3.64,2.18a1.6,1.6,0,0,1,.75.21C406,86.48,405.59,86.26,405.3,86.15Zm-4.45-3a6.23,6.23,0,0,1-1.27-1.29,3.73,3.73,0,0,1,.47.33c-.19-.07,0,.14.23.37S400.83,83.07,400.85,83.18Zm5.61,3.35c.05-.07.39.11.45,0s-.2,0-.41-.14a2.31,2.31,0,0,1,.76.12c-.13,0-.12.06.08.12C407.29,86.8,406.84,86.67,406.46,86.53Zm-7.85-6.06a5.3,5.3,0,0,1-1-1.54C398,79.28,398.2,80,398.61,80.47Zm2.85,3c-.12,0-.94-.71-.8-.79C401.05,83,401.12,83.2,401.46,83.49Zm0-.18c.07-.21,1.37,1.08,2.19,1.46A10,10,0,0,1,401.45,83.31ZM396.27,75l-.15-.65c.13-.14.15.41.23.63Zm-.14-1.11c-.07-.16-.31-1.3-.13-1.32C396.05,73.2,396.07,73.33,396.13,73.86Zm2-11.26a16.83,16.83,0,0,1-.82,2A9.05,9.05,0,0,1,398.13,62.6Zm7.71-7c0,.3-1.13.41-1.78,1,0-.05.29-.24.67-.45Zm2.21-.76c-.27.29-1.16.4-1.55.58C406.56,55.18,407.58,54.94,408.05,54.81Zm.35,31.56c.73,0,1.37.47,2.19.41a1.65,1.65,0,0,1-.9,0C409.28,86.62,408.81,86.46,408.4,86.37ZM401.1,58.9a5.18,5.18,0,0,1-.74,1A3.42,3.42,0,0,1,401.1,58.9Zm17.24,26.84c-.41.09-.55.22-1,.33C417.4,86,418.33,85.58,418.34,85.74Zm5.06-5.63c-.14.43-.75.85-1.07,1.23C422.37,81,423.13,80.5,423.4,80.11ZM407.72,83c0-.08.13,0,.14-.14a6.24,6.24,0,0,0,1.24.73C408.66,83.55,408.38,83.3,407.72,83Zm4.16.66a1.64,1.64,0,0,1-.85-.07C411.25,83.47,411.6,83.59,411.88,83.64ZM404.1,80.2c-.37-.09-.81-.84,0,0Zm18.76-1.13c0,.11-.33.53-.42.57C422.43,79.46,422.73,79.36,422.86,79.07ZM401,76c.2.14.2.34.35.65A1.52,1.52,0,0,1,401,76Zm23.14.63c0,.17-.27.61-.37.89a8.37,8.37,0,0,1,.46-1.51c.08.19-.13.46-.24.84C424.06,76.81,424.11,76.68,424.16,76.59Zm-24.09-4.31a16.9,16.9,0,0,1,.48,1.93A4.9,4.9,0,0,1,400.07,72.28ZM405,60.55c-.21.39-.92.77-1.33,1.26a1.68,1.68,0,0,1,.51-.59C404.4,61,404.66,60.81,405,60.55Zm-.74,19.32a4.38,4.38,0,0,1-1-.86C403.53,79.15,403.94,79.62,404.26,79.87Zm11.84-20.7c-.22.17-.53-.1-1-.15A1.3,1.3,0,0,1,416.1,59.17Zm6.55,6c-.2-.12-.37-.64-.59-.9A2.21,2.21,0,0,1,422.65,65.17Zm-9.52-5.55c.22,0,.2.08.38.08C413.44,59.79,413.08,59.78,413.13,59.62ZM402.67,84.46a7.83,7.83,0,0,1-1.09-.76s.13,0,.21.1,0-.06-.07-.11A3.93,3.93,0,0,1,402.67,84.46ZM408,86.29c-.1-.07.09-.09-.38-.21-.05.12.41.26-.14.1,0,.07.25.11.4.17a.3.3,0,0,1-.22,0c0,.07.18.06.21,0,.28.25-.48.09-.79,0s0-.15.05-.17c-.41-.09-.6-.15-.56-.35.25.11.11.08.07.13.3.15.38,0,.72.2a14.65,14.65,0,0,0-2.76-1.18c-.07,0-.39-.36-.65-.36,0,.14.22.32.6.48,0,.07-.19,0-.47-.19l-.77-.49c.06-.06.32.17.34.06-.27-.21-.32-.12-.43-.11a14.84,14.84,0,0,1-4.89-5.14c.14.4-.09,0-.28-.22,0-.07.12,0,.19.15,0-.22-.33-.56-.42-.53a2.67,2.67,0,0,0-.26-.75c-.46-1.13-.33-.67.36.56-.06-.39-.52-1.1-.69-1.64.2.09.24.29.3.59a4.93,4.93,0,0,0-.43-1.74,8.64,8.64,0,0,1-.5-2.4,7.88,7.88,0,0,0,.37,2.24c-.18-.15-.13-.41-.24-.83-.12.18,0,.65.16,1.11a2.36,2.36,0,0,1,.26,1.19,17.36,17.36,0,0,1-.6-8.62c0-.23.1-.14.14-.3.16-2.14,1-3.82,2.55-6.41-.17,0,.2-.3.28-.58s-.06.25,0,.26c.52-.75.39-1,1.29-1.72a7.15,7.15,0,0,0-.76.92,19.55,19.55,0,0,1,3-2.94c-.73.38-1.51,1.24-.58.33a7,7,0,0,1,.94-.76c.21,0,0,.12.19.08a26.39,26.39,0,0,1,3.44-1.92c0,.1-.46.17-.49.27.34,0,.87-.4,1.15-.35s.06-.13.05-.2c.48-.06.25-.11.74-.22-.08.09-.38.16-.38.27a23.49,23.49,0,0,1,3.75-.54c0-.05-.2,0-.32,0,.25-.2,1.06.05,1.62,0a15.56,15.56,0,0,0-3.29,0c-.51,0-.19,0,.3-.1a10.53,10.53,0,0,1,1.34-.1,14.64,14.64,0,0,1,4.09.46,21.69,21.69,0,0,1,4.15,1.46c-.63-.12-2-.82-3-1,.19.22,1.35.36,1.19.55.31.12.33,0,.73.18-.05,0-.2,0-.24,0a3.47,3.47,0,0,1,1,.41c0-.06-.23-.15-.38-.22.29,0,1.36.59,1,.51a13.65,13.65,0,0,1,4.26,3.52,18.91,18.91,0,0,1,3,5.37c.07-.11-.22-.62-.17-.74s.27.66.28.8c.14-.22-.31-1.3-.55-1.74a15.48,15.48,0,0,0-.75-1.44,11.14,11.14,0,0,1,2,4.77c-.05-.06-.21-.2-.1.14-.17-.26-.24-1-.41-1.44.12.51.23,1.07.35,1.63a14,14,0,0,1,.17,1.62c.11-.06-.07-.55,0-.64a22.06,22.06,0,0,1,0,4.42c.11.24-.47,1.08-.57,1.41-.16.57-.22,1.63-.68,1.75a1.05,1.05,0,0,0,.16-.38c-.14.11-.26.54-.43.62.31-.31-.26,1.51-.48,1.34a6,6,0,0,1-.27.78.47.47,0,0,1,0-.33c-.16.08-.55.51-.51.77-.27.35-.45.2-.77.84-.28,0-.64.24-1,.64,0-.13.41-.54.39-.68-.36.32-.39.09-.71.45,0,0,.12-.26.17-.23.06-.2-.33.19-.43.15a4.42,4.42,0,0,1-.53.65c.46-1,1.45-2.57,1.9-3.84.15-.18.28-.44.41-.52a2.07,2.07,0,0,1,.07-.45c-.06,0-.2.33-.08,0a2.46,2.46,0,0,0-.33.65c-.18-.11.14-.9.33-1.48,0-.33.07-.66.1-1a4.59,4.59,0,0,1,.19-1.15,2.42,2.42,0,0,0-.19-.36,6.11,6.11,0,0,1-.11,1,4.67,4.67,0,0,0-.05.86c-.14-.23-.16.31-.28.56-.06-.54.47-1.85.36-2.53-.22.68-.4-.75-.19-1.27-.06,0-.13-.22-.17-.49.06,0,.09.1.09.24a6.42,6.42,0,0,0-.14-2.91c.2,0,.23.52.29.88A9.54,9.54,0,0,0,423.32,65a13,13,0,0,0-2.8-3.35c-.32-.27-.63-.59-.93-.81s-.21-.27-.34-.4a14.32,14.32,0,0,0-3-1.44c-.09,0-.05,0,0,0a15.41,15.41,0,0,0-4.15-.66,12.06,12.06,0,0,1,6.12,1.38,8.52,8.52,0,0,0-4-1.39,13.66,13.66,0,0,0-2.9-.16,9.47,9.47,0,0,0-1.43.2,4.63,4.63,0,0,1-1.09.2,11.75,11.75,0,0,0-4,2A11.3,11.3,0,0,0,402,63.81a2.12,2.12,0,0,0,.32-.45l.48-.65A13.44,13.44,0,0,1,402,64c-.16.2-.62,1-.41.55s.31-.42.38-.67a5.42,5.42,0,0,0-1,2.07c-.47.49-.88,2.41-1,4a13.63,13.63,0,0,0,1.14,6.68c.06.11,0-.1.11,0l0,.36c.08.11.15,0,.25.24,0,0-.09-.07-.13-.12.19.62,1,1.45,1.09,1.93.17,0,.43.33.73.68a6.89,6.89,0,0,0,1,1c-.17.23-.37-.17-.64-.44a2.54,2.54,0,0,0,.73.76l1,.79c-.14-.15-.29-.3-.47-.46a4.74,4.74,0,0,0-.64-.53c.61.15,1.43,1,2.08,1.39-.21-.21-.45-.44-.7-.7a4.16,4.16,0,0,1,.76.64,2,2,0,0,0,.84.59c-.57-.1-.9-.58-1.55-.78a18,18,0,0,0,3.83,2.17c.27.09.19-.08.46,0-.25.07.25.23.41.3-.06.08-.42-.12-.62-.16-.11.14.47.14.52.24-.18.09-.54-.14-.71-.2a1.64,1.64,0,0,0,1.24.49c-.26.3.82.42,1.11.45-.1.1-.6,0-.86,0a4.52,4.52,0,0,0,.47.18c-.11.27-.73,0-1,.11a6.86,6.86,0,0,0,.84.21l.92.11c-.06-.09-.5,0-.39-.19.68.21,1.8.18,1.81.42-.11,0-.05,0,0,0a4.65,4.65,0,0,1-1.18,0,5.64,5.64,0,0,0-1.25-.08c.18.16.44,0,.91.09-.45.14.11.05.1.18-.59,0-.67-.15-1-.09,0,.08.09.09.1,0-.64.3-2.88-.16-3.91-.36.18.16.64.12.78.34.06-.21.3.09.94.13C408.87,86.37,408.3,86.21,408,86.29Zm19.87-13c0,.3-.32.57-.23.82C427.67,73.81,427.94,73.51,427.85,73.28Zm-3.21-5.14c-.12-.36-.05-.68-.25-.81C424.43,67.63,424.57,68.19,424.64,68.14Zm-4.94-7.33c0-.08.78.56,1,.78a3.08,3.08,0,0,0-1.28-1C419.48,60.62,419.58,60.86,419.7,60.81ZM399.45,80.94l.1-.09c-.13-.22-.48-.56-.33-.3C399.37,80.55,399.24,80.75,399.45,80.94Zm-1.53-2.7a2.86,2.86,0,0,0,.49,1.13C398.37,78.89,398.08,78.79,397.92,78.24ZM400,81.29c.06,0-.11-.27-.27-.48s-.32-.41-.31-.31A2.2,2.2,0,0,0,400,81.29Zm-3.52-9.15c-.15-.34,0-.93-.18-1.06C396.3,71.69,396.38,72.23,396.51,72.14Zm9.13,13.15c.07,0,.1.08.06.13a6,6,0,0,1,1.18.48C406.89,85.72,405.68,85.34,405.64,85.29Zm-8.91-11.56c-.05-.39-.12-.78-.16-1.17-.1,0-.15-.18-.16.14C396.59,72.62,396.66,73.9,396.73,73.73Zm-.24-3.61c-.19.16-.08.57-.16.86C396.5,71,396.4,70.31,396.49,70.12Zm31.54,1c.06.47-.14.93,0,1C428.06,71.86,428.11,70.87,428,71.1Zm-1.85,6.45a3.73,3.73,0,0,0,.32-1C426.35,77.08,426.14,77.22,426.18,77.55Zm-.13-.37c.17-.28-.14.39,0,.33.16-.54.39-.93.46-1.34C426.39,76.53,426,76.86,426.05,77.18Zm-26.22-5.39c0,.26,0,.75.11.85C399.86,72.39,399.94,71.9,399.83,71.79Zm25.28-2.34c0,.16.07.43-.06.36,0,.21,0,.55.07.8s.06.43.15.32C425.13,70.77,425.32,69.94,425.11,69.45ZM425,74c.18-1-.11-.7,0,0Zm-6.63-14.17c.2.1.44.24.5.14-.24-.06-.5-.32-.54-.26S418.38,59.78,418.34,59.82Zm6.29,12.57c0-.11.05,0,.09,0a4.2,4.2,0,0,1,.11-.85c0,.29.12.11,0,.43.22,0,.19-.92.07-1,0,.18.05.57-.05.6,0-.36-.14,0-.17-.25A6.2,6.2,0,0,0,424.63,72.39Zm-23.86-6.14c.12.11-.21.77-.17.84C400.35,67.23,400.8,66.47,400.77,66.25Zm8.55-11.42c.1-.18.44-.06.74-.2,0,0,0,.07.12.07A2.88,2.88,0,0,1,409.32,54.83Zm-3,31.2s-.11,0-.1,0a4.38,4.38,0,0,1-1-.39c.08-.09.56.24.32.06.06-.1.34.13.4.17s.19,0,.23,0-.49-.11-.17-.16c-.3-.18-.12.1-.42-.08.11-.11.52.06.93.24C406.29,85.87,406.15,85.92,406.28,86Zm-3.22-29c.1.15-.14.4-.57.71-.25.08.71-.54.51-.61a18.69,18.69,0,0,0-3.5,3.43c-.18,0,.32-.53.47-.76,0,0-.06.14-.11.2A17.18,17.18,0,0,1,403.06,57.07Zm11.2,29.44c-.82,0-1.52-.09-.43-.09a3.79,3.79,0,0,0,.94,0s0,0-.09.06,0,0,.11,0c-.33.18-.87.06-1.37.1C413.6,86.43,413.93,86.62,414.26,86.51ZM426,62c.24.22-.46-.34-.48-.6A3.62,3.62,0,0,1,426,62Zm-.27,16.67c-.07.1-.09.17-.07.2-.13.26-.19,0-.31.19C425.3,79.05,425.66,78.56,425.73,78.7ZM409.4,83.9c-.31.09-.4-.22-.76-.29C408.91,83.56,409.09,83.86,409.4,83.9Zm-6.24-4.65c.08.07.12,0,.06-.06.24.32.65.62,1,1-.2,0-.67-.73-.79-.48C403.27,79.58,403,78.9,403.16,79.25Z"/><path class="cls-2" d="M419.06,47.32l-1.34,3.78C415.8,43.42,404.86,40,399,45.29c-2,1.8-3.32,4.27-5.29,6.11s-5.08,3-7.29,1.42c-1.37-1-2-2.67-3.37-3.67-2.94-2.2-7,.15-10,2.3s-7.47,4-9.91,1.24"/><path class="cls-2" d="M411,47a1.68,1.68,0,0,0,.54.29C411.16,46.89,410.23,46.59,411,47Zm1.9,1.3c.1,0,.22.1.35.24C413.16,48.59,413,48.38,412.91,48.26Zm-2.43-1.64-.92-.38a1.25,1.25,0,0,1,.34,0c-.13.06,0,.11.19.16S410.47,46.54,410.48,46.62Zm2.94,2.05c.08-.05.19.14.27.09s-.12,0-.17-.18a.73.73,0,0,1,.4.22c-.09,0-.1,0,0,.11C413.76,49,413.59,48.82,413.42,48.67Zm-4.72-2.83a3.37,3.37,0,0,1-1-.21C408,45.51,408.36,45.81,408.7,45.84Zm2.2.78c-.09,0-.64-.18-.56-.31C410.61,46.4,410.66,46.53,410.9,46.62Zm0-.14c0-.1.27,0,.54.16a6.44,6.44,0,0,0,.83.54C411.72,47.12,411.45,46.58,410.9,46.48Zm-5.49-1.07-.36.05c-.08-.15.23-.09.35-.13Zm-.62,0c-.1,0-.68.26-.73.1A3,3,0,0,1,404.79,45.4Zm-5.43,3.24c0-.29.51-.78.83-1.1C400,47.91,399.74,48.12,399.36,48.64Zm-5.79,6c0-.28.94-.54,1.45-1.12C395.08,53.63,394,54.38,393.57,54.65Zm-2,1c.23-.34,1.07-.48,1.39-.72C393,55.12,392,55.4,391.59,55.6ZM414.66,49c.44.23.34.8.69,1.15C415.08,50.14,415,49.4,414.66,49Zm-17.55,2.2a2.93,2.93,0,0,1,.5-.78A2.17,2.17,0,0,1,397.11,51.21Zm23.63-3.29c-.16.27-.13.42-.3.74C420.41,48.56,420.6,47.83,420.74,47.92Zm-56.63,5.82a1.6,1.6,0,0,1-.6-.34c-.19-.19-.35-.39-.51-.54a1.07,1.07,0,0,1,.52.39A4.61,4.61,0,0,0,364.11,53.74Zm52.06-7.65c.05-.06.14,0,.18-.06a4.56,4.56,0,0,0,.32.61c.12.23.24.46.33.68C416.65,47.06,416.64,46.66,416.17,46.09Zm2.48,3.53a5.39,5.39,0,0,1-.35-.82A1.14,1.14,0,0,1,418.65,49.62Zm-5.88-6.77c-.41,0-1.09-.61,0,0ZM364.94,53c-.08.05-.43-.13-.45-.23C364.63,52.7,364.71,52.93,364.94,53Zm42.41-11.75c.23-.1.42,0,.8.05A1.8,1.8,0,0,1,407.35,41.22ZM367,53.1c-.11.11-.52.07-.74.08l.54-.16.65-.12c-.09.17-.37.08-.66.18C366.81,53.13,366.93,53.1,367,53.1Zm36.23-11.59a5.2,5.2,0,0,1,2.13-.45,5.15,5.15,0,0,1-1,.22A5.69,5.69,0,0,0,403.24,41.51Zm-10,8.36c.08-.4.69-.78,1-1.27C394.09,49,393.71,49.3,393.25,49.87Zm19.58-7.38c-.32,0-.9-.44-1.35-.54A4.92,4.92,0,0,1,412.83,42.49Zm-26.55,7.64c.26,0,.35.34.59.58C386.79,50.73,386.4,50.46,386.28,50.13ZM376.1,47a5,5,0,0,1,1.21-.54A5.2,5.2,0,0,1,376.1,47Zm12,3.69c-.08,0,0-.09-.08-.1S388.24,50.49,388.15,50.64Zm23.49-3.54c-.26-.05-.35-.24-.67-.34,0,0,.09,0,.14,0s0-.05,0-.07S411.51,46.93,411.64,47.1Zm2.83,1.73c0-.08.12,0-.08-.27-.1.07.06.31-.14,0,0,0,.07.15.12.23a.17.17,0,0,1-.15,0c0,.05.06.09.11.07,0,.26-.31-.08-.47-.17s.1-.12.13-.12c-.19-.15-.3-.21-.17-.37.12.12,0,.08,0,.11.13.16.22.11.35.29a1.79,1.79,0,0,0-.56-.78,1.92,1.92,0,0,0-.75-.46c-.06,0-.15-.31-.35-.29,0,.13.07.26.27.4,0,.13-.46-.38-.69-.46.05-.07.2.08.24,0-.16-.14-.21,0-.29,0a11.38,11.38,0,0,0-3.87-1.67c.22.15,0,.09-.21.09,0-.08.06-.07.14-.06-.08-.15-.38,0-.4,0-.1-.09-.21-.09-.44-.14-.69-.14-.44,0,.4,0a3.19,3.19,0,0,0-1-.14c.1-.17.22-.13.4,0-.16-.26-.58-.23-1.07-.23s-1,.17-1.49.12a6.72,6.72,0,0,0,1.38,0c-.12.14-.27,0-.52.08.18.25,1.15-.1,1.37.23a8.33,8.33,0,0,0-4.9.83c-.1.09-.12,0-.21,0-.25.18-.44.42-.67.59s-.48.34-.74.57a10.62,10.62,0,0,0-1.73,1.88c.16.06-.18.18-.21.42s0-.2,0-.23c-.37.56-.26.76-.93,1.31.23-.35.45-.5.54-.71-.6.69-1.48,1.84-2.14,2.54.54-.41,1.06-1.17.43-.34a4.12,4.12,0,0,1-.65.76c-.18,0,0-.11-.2-.06A16.43,16.43,0,0,1,392.44,55c0-.09.39-.21.41-.3-.31,0-.75.46-1,.43-.12.06,0,.13,0,.19-.45.11-.21.15-.68.29.07-.1.35-.19.34-.3a8.79,8.79,0,0,1-3.84.38c0,.06.22.08.36.1-.31.14-1.17-.25-1.79-.43a3.69,3.69,0,0,0,1.64.55,15.13,15.13,0,0,0,1.91.08c.54,0,.2,0-.32.09A8.19,8.19,0,0,1,388,56a6.5,6.5,0,0,1-2.25-.75,6.57,6.57,0,0,1-1.78-1.47c-.91-1-1.42-2-2-2.49.34,0,.79.88,1.35,1.52,0-.28-.68-.83-.46-.89-.14-.18-.24-.08-.38-.33.06,0,.13,0,.19,0a2,2,0,0,1-.41-.47c0,.06.07.14.12.2-.17-.09-.55-.45-.35-.41a2.87,2.87,0,0,0-2.19-.76,7.28,7.28,0,0,0-3.54,1.32c.09.06.38-.23.48-.18s-.4.26-.5.3c.2.09.83-.35,1.12-.48a7,7,0,0,1,.91-.43c-.77.53-1.77,1-2.88,1.72,0-.06.05-.23-.14-.06.11-.2.58-.42.83-.6-.64.31-1.34.84-2,1.2.1.05.33-.24.43-.2-.35.25-1.05.71-1.64,1s-1.19.64-1.48.83c-.11.17-1,.14-1.29.2-.49.15-1.28.67-1.61.31a.72.72,0,0,0,.36,0c-.16-.07-.53,0-.67,0,.4.13-1.29.52-1.27.25a2.79,2.79,0,0,1-.76.11.41.41,0,0,1,.28-.13,1,1,0,0,0-.86-.13c-.42-.12-.34-.32-1-.45,0-.26-.37-.52-.77-.82.1,0,.56.28.67.23-.33-.28-.14-.33-.48-.58,0,0,.24.08.22.12.18,0-.2-.27-.15-.39-.38-.14-.34-.2-.57-.39a8.46,8.46,0,0,0,1.56.49,5.09,5.09,0,0,0,1.74,0,1.83,1.83,0,0,1,.53.11c.14,0,.16-.12.34-.15,0-.05-.31,0,0-.09a2,2,0,0,0-.58,0c0-.19.66-.31,1.14-.43a10,10,0,0,1,1.61-.83,1.91,1.91,0,0,0,.16-.32,12,12,0,0,0-1.37.79c.08-.25-.28,0-.51,0,.32-.31,1.47-.53,1.9-.93-.59.15.29-.71.8-.75,0-.06.09-.21.26-.38,0,.07,0,.13-.13.19a3.06,3.06,0,0,0,1-.49l1.29-.92c.07.18-.38.41-.67.63,1-.61,2.18-1.47,3.62-2.23a8.33,8.33,0,0,1,5.1-1.1,3.54,3.54,0,0,1,.83.23,6.51,6.51,0,0,1,.75.3,1.32,1.32,0,0,1,.52.45,5.43,5.43,0,0,1,1.63,1.36c.38.44.66.87,1,1.34.06.06.06,0,0,0a11.47,11.47,0,0,0,1.08,1.22,2.34,2.34,0,0,0,1.07.53,2.35,2.35,0,0,1-1.59-.9c-.57-.61-1.15-1.61-2-2.5a16.66,16.66,0,0,0,2.4,3,2.8,2.8,0,0,0,1.66.66,9.79,9.79,0,0,0,1.81-.32,7.31,7.31,0,0,0,1.63-.91,9.73,9.73,0,0,0,1.3-1.2,35.14,35.14,0,0,0,2.4-3,7.13,7.13,0,0,0-.81,1,5.82,5.82,0,0,1,.84-1.18c.16-.2.78-.88.48-.47s-.36.36-.46.58a15.3,15.3,0,0,0,1.47-1.74,20.63,20.63,0,0,1,3.52-2.49,12.22,12.22,0,0,1,7.07-.92c.13,0-.07-.09.09-.08a2.26,2.26,0,0,1,.34.18c.14,0,.09-.13.36,0,0,0-.11,0-.18,0,.61.26,1.78.37,2.14.78a2.05,2.05,0,0,1,1,.26c.42.22.88.51,1.26.66-.12.25-.39-.1-.74-.27a4.72,4.72,0,0,0,.88.57,9,9,0,0,1,1.06.74A4.07,4.07,0,0,0,413,43.4a4.6,4.6,0,0,1,2.06,1.46,4.41,4.41,0,0,0-.61-.81c.59.37.77,1.12,1.34,1.57-.47-.32-.73-.8-1.32-1.13a10.61,10.61,0,0,1,2.44,3.43c.12.24.21.06.3.31-.21-.13,0,.31,0,.48-.08,0-.14-.38-.23-.53-.18,0,.17.4.12.5-.18-.06-.2-.45-.29-.59a1.75,1.75,0,0,0,.32,1.13c-.36,0,.07.77.06,1-.12,0-.15-.46-.3-.63,0,.11.08.29,0,.41-.23,0-.33-.47-.52-.58,0,.19.13.4.2.62l.15.67c.07-.07-.11-.35.07-.34,0,.28.08.63.11.9l.22,2.23,1.31-2.15c.15-.24.28-.41.39-.38s0,.06,0,0a4,4,0,0,1-.16.45l-1.35,2.95-.72-3a4.07,4.07,0,0,0-.34-1.22c-.1.18.09.29.16.61-.25-.24,0,.09-.14.13-.19-.35,0-.48-.18-.67-.08,0-.07.1,0,.08a3.11,3.11,0,0,1-.78-.93,5.61,5.61,0,0,0-.92-1c0,.17.29.29.24.49.17-.14.1.16.42.42C414.91,49.18,414.73,48.85,414.47,48.83Zm-43.34,5.78c-.23.11-.55,0-.69.22C370.68,54.74,371,54.79,371.13,54.61Zm2.2-5c.29-.23.61-.26.67-.5C373.73,49.21,373.25,49.53,373.33,49.57Zm9.45-2.47c0,.06-1.19-.43-1.57-.45.37.12,1.52.51,2.06.71C383.12,47.3,382.92,47,382.78,47.1Zm26.51-1.51,0-.13c-.13-.1-.44-.06-.28,0C409.14,45.36,409.13,45.58,409.29,45.59ZM407.52,45a2,2,0,0,0,.7.24C408,45,407.84,45.17,407.52,45Zm2.21.47c.06-.11-.62-.38-.56-.24S409.61,45.54,409.73,45.51Zm-6-.47c-.17.17-.58.05-.57.3C403.5,45.23,403.82,45.18,403.74,45Zm9.79,2.53s0,.09,0,.12c.18.23.47.32.54.56C414.16,48.12,413.53,47.61,413.53,47.57Zm-8.84-2.78a4.06,4.06,0,0,0-.71.14c0,.11-.08.17.11.16,0-.09.13-.16.31-.21S404.74,44.84,404.69,44.79Zm-2.1.64c.17.13.35-.07.52-.06C403.06,45.2,402.73,45.47,402.59,45.43Zm-29.82,8.33c-.31.25-.74.28-.74.48C372.24,54.11,373,53.73,372.77,53.76Zm-5.61,1.57c.29,0,.81-.07.91-.19C367.62,55.26,367.41,55.14,367.16,55.33Zm.24-.28c.3,0-.37.06-.25.15a6.62,6.62,0,0,0,1.24-.27C368.06,55,367.64,54.88,367.4,55.05Zm35.38-13.21c.25-.09.76-.12.85-.25C403.37,41.68,402.87,41.72,402.78,41.84Zm-30.36,8.71c-.11.07-.27.25-.29.1-.29.23-.95.63-.7.69C371.46,51.12,372.17,51,372.42,50.55Zm-3.29,2c.78-.33.42-.42,0,0Zm15.36-4.14c-.19-.18-.46-.41-.52-.33.27.14.49.51.54.47S384.45,48.42,384.49,48.39Zm-14.44,3.08c.08,0,.06,0,0,.08.21-.08.52-.34.66-.32-.21.15,0,.16-.29.22.1.18.76-.25.77-.41-.14.06-.38.3-.46.23.26-.16-.11-.09.09-.26A3.35,3.35,0,0,0,370.05,51.47Zm27.58-6.78c-.07-.16.57-.6.59-.66C398.52,44,397.67,44.45,397.63,44.69Zm-7.28,10.94c-.09.19-.44.08-.75.21,0-.06,0-.08-.12-.08A4.76,4.76,0,0,1,390.35,55.63Zm23.23-7.36a0,0,0,0,1,0-.05,4.84,4.84,0,0,1-.48-.41c.11-.09.28.23.2.06.08-.08.16.15.18.18s.1.06.14,0-.25-.16,0-.16c-.11-.19-.13.07-.24-.12.13-.08.31.12.49.33C413.67,48.14,413.55,48.16,413.58,48.27ZM395.8,52.91c-.12-.13,0-.37.34-.68.2-.09-.5.53-.31.59,1.16-1.36,1.51-1.75,2.45-2.91.16.06-.22.37-.32.56,0,0,0-.11.06-.15C397.56,50.81,396.73,52,395.8,52.91Zm23.69-2.14c-.27.56-.55,1-.23.26a3.62,3.62,0,0,0,.31-.65s0,0,0,.09.05,0,.07-.06c0,.29-.29.59-.38,1C419.2,51.19,419.45,51,419.49,50.77Zm-40.89,0c-.14.14.23-.3.4-.18C378.91,50.67,378.83,50.62,378.6,50.75ZM366,55.45c-.12,0-.18,0-.2,0-.28,0-.09-.18-.29-.22C365.53,55.23,366.1,55.34,366,55.45Zm51-7.7c-.28-.12-.14-.41-.39-.67C416.86,47.19,416.81,47.53,417,47.75Zm-5.52-5.52c.11,0,.12,0,0-.08a8.87,8.87,0,0,1,1.37.66c-.2.06-.93-.54-.95-.26C411.76,42.44,411.12,42,411.48,42.23Z"/><path class="cls-2" d="M398.72,64.26c-.42-3-5-3.52-7.31-1.54s-3.2,5.14-4.72,7.8-4.55,5.08-7.36,3.93c-3.22-1.3-3.54-6.12-6.46-8-3.38-2.18-7.66.77-10.45,3.67s-6.56,6.24-10.28,4.74"/><path class="cls-2" d="M392.24,66.08c.08-.11.25-.3.26-.44C392.2,65.94,391.82,66.71,392.24,66.08Zm1.08-1.3c0-.09,0-.15.12-.19S393.36,64.72,393.32,64.78Zm-1.44,1.72a4.26,4.26,0,0,1-.45.82c0-.12,0-.2,0-.33C391.53,67.24,391.72,66.5,391.88,66.5Zm1.66-2c0-.09.1-.09.07-.17s0,.07-.13.06a.27.27,0,0,1,.18-.23c0,.07,0,.1.06.06C393.78,64.41,393.64,64.46,393.54,64.52Zm-2.65,3.6a3.06,3.06,0,0,1-.44,1C390.45,68.77,390.77,68.45,390.89,68.12Zm1-2c0,.07-.21.57-.33.47C391.67,66.35,391.79,66.31,391.9,66.12Zm-.14,0c-.21-.09.46-.75.68-1.08C392.36,65.45,391.92,65.64,391.76,66.1Zm-2.62,5.43c-.08.14-.14.27-.24.43-.17,0,.11-.32.16-.47Zm-.5.69c0,.15-.47.94-.61.85C388.34,72.65,388.41,72.57,388.64,72.22Zm-8.25,5c.38-.1,1.46-.11,2.16-.32A4.89,4.89,0,0,1,380.39,77.26Zm-6.72-5.61c.26,0,.31.69.7,1.15C374.27,72.83,373.85,72,373.67,71.65ZM373,70.44c.31,0,.39.6.55.8C373.33,71.26,373.17,70.64,373,70.44Zm20.91-6.86c.26-.26.64,0,1-.14C394.77,63.63,394.26,63.48,393.9,63.58Zm-17.67,11.6a8.91,8.91,0,0,1,.93.64A2.28,2.28,0,0,1,376.23,75.18ZM397,64.51c0-.11,0-.16,0-.28S397.1,64.51,397,64.51ZM353.25,75.4c-.35.09-.85-.19-1.21-.3C352.31,75,352.88,75.37,353.25,75.4Zm38.52-14.2c0-.06,0-.13,0-.2.39,0,.93-.2,1.38-.21C392.78,61,392.44,60.93,391.77,61.2Zm4-1a3.34,3.34,0,0,1-.86,0C395.09,60.06,395.48,60.15,395.75,60.24Zm-7.42,3.65c0,.37-.62.89,0,0Zm-34.61,10.5c-.06.11-.42,0-.47-.06C353.36,74.22,353.5,74.45,353.72,74.39ZM386.16,68c0-.21.1-.32.22-.58A1.12,1.12,0,0,1,386.16,68Zm-30.59,6c-.07.14-.44.15-.63.22a4.26,4.26,0,0,1,1-.48c0,.17-.31.11-.54.28C355.41,74.09,355.5,74.05,355.57,74Zm29.21-3.43a6.53,6.53,0,0,1,.63-1.31A3.08,3.08,0,0,1,384.78,70.6Zm-6.57,1c.34.11.5.67.82.87C378.71,72.43,378.6,72.1,378.21,71.64ZM388,63.78a9.27,9.27,0,0,1-.58,1.11A5.7,5.7,0,0,1,388,63.78ZM370.8,64c.2-.22.63,0,1.15.08A2.89,2.89,0,0,1,370.8,64ZM362,67.25c.09-.21.54-.52.8-.75A3.23,3.23,0,0,1,362,67.25Zm12.49-3c-.27-.15-.21-.21-.45-.32C374.21,63.88,374.68,64.12,374.53,64.25Zm17.83,1.29c-.05.22-.2.29-.33.54,0,0,0-.08,0-.12s-.05,0-.07,0S392.2,65.63,392.36,65.54Zm1.38-1.86c-.06,0,0-.12-.21,0,0,.11.23.05,0,.14,0,0,.11,0,.18,0a.13.13,0,0,1-.05.11s.07,0,.07-.07c.17.11-.1.26-.17.35s-.07-.13-.07-.16-.17.16-.28,0c.09,0,.06,0,.08.06s.09-.13.24-.16a.64.64,0,0,0-.6.16,1.6,1.6,0,0,0-.22.24.58.58,0,0,0-.12.24c0,.07-.29.07-.25.26s.21,0,.34-.16-.31.34-.41.51c-.06-.06.08-.16,0-.21-.14.11-.06.18,0,.25a18.5,18.5,0,0,0-2,3.38c.19-.2.09.05,0,.24-.08,0-.06-.08,0-.16-.15,0-.16.37-.09.41-.13.08-.16.2-.28.42-.38.7-.18.44.09-.42a6.38,6.38,0,0,0-.52,1c-.1-.16,0-.26.15-.41-.55.17-.78,1.64-1.6,2.57a2.53,2.53,0,0,0,.49-.64c.14-.25.28-.53.41-.78.07.19-.11.28-.24.56.39,0,.54-1.22.95-1.31-.26.47-.51.94-.79,1.39a13.3,13.3,0,0,1-1,1.39,14,14,0,0,1-2.4,2.33c-.13.14-.15,0-.26.1a5.37,5.37,0,0,1-2.39,1.29,7,7,0,0,1-3.68,0c0,.18-.33-.13-.63-.12-.25-.14.25,0,.25-.09-.82-.3-1.07-.19-1.81-1,.44.27.64.53.95.61a8.37,8.37,0,0,1-1.55-1.23,13.57,13.57,0,0,1-1.08-1.31c.27.58.93,1.25.23.47a3.28,3.28,0,0,1-.56-.74c0-.17.1,0,.1-.16a20.24,20.24,0,0,0-1.5-2.18c.09,0,.15.25.24.25,0-.24-.35-.47-.32-.66s-.12,0-.18,0c-.09-.26-.12-.11-.26-.35.09,0,.18.16.28.12a4.85,4.85,0,0,0-1.11-1.51s0,.07.06.13c-.19,0-.26-.37-.49-.37a1.23,1.23,0,0,0,.36.42,1.8,1.8,0,0,1,.43.65c.23.41-.41-.46-.49-.52a2.91,2.91,0,0,0-1-.84,2.15,2.15,0,0,0-1.53-.07c.23-.28.86-.18,1.18-.19-.07-.17-.5,0-.47-.19-.14,0-.12.15-.3.12,0-.06.07-.07.07-.14a1.58,1.58,0,0,1-.46.08c0,.06.13,0,.2,0-.11.09-.62.21-.48.07a12.44,12.44,0,0,0-2.7,1.15,11.14,11.14,0,0,0-2.8,2.33c.11,0,.27-.29.38-.27s-.27.32-.36.38c.23,0,.64-.49.86-.69a9.07,9.07,0,0,1,.7-.65,26.77,26.77,0,0,1-2.2,2.33c0-.06,0-.23-.15,0,.06-.21.48-.52.67-.76-.53.46-1.13,1.1-1.7,1.52.1.05.29-.27.39-.25-.66.65-2,1.62-2.48,2-.07.19-.87.24-1.12.34s-1,.8-1.36.5a.65.65,0,0,0,.31-.1c-.15,0-.47.11-.61,0,.18,0-.06.21-.36.35s-.67.21-.68.09a3,3,0,0,1-.62.25.4.4,0,0,1,.21-.19c-.15-.08-.61-.13-.76.06-.37,0-.35-.23-.93-.16-.09-.27-.44-.37-.84-.51.07-.1.52.09.61,0-.36-.12-.21-.29-.56-.38,0,0,.21,0,.21,0,.16,0-.24-.2-.24-.31-.37.06-.34-.06-.6-.1a10.83,10.83,0,0,0,3-.53,1,1,0,0,1,.48,0c.11-.06.12-.14.27-.21,0,0-.28,0,0-.08-.13,0-.49.05-.5.1,0-.17.5-.4.9-.57a6.83,6.83,0,0,1,1.26-1,1.65,1.65,0,0,0,.07-.32c-.34.33-.88.62-1.05.9,0-.23-.25,0-.44.1.21-.35,1.18-.68,1.49-1.11-.49.21.11-.71.58-.79,0-.06,0-.22.17-.38,0,.06,0,.12-.08.19a5.64,5.64,0,0,0,1.78-1.45c.1.15-.22.4-.42.61a10.27,10.27,0,0,0,1.12-1.09c.38-.42.86-1,1.33-1.44a13.94,13.94,0,0,1,3.26-2.58c.36-.21.79-.32,1.12-.49a1.23,1.23,0,0,1,.53,0,6.91,6.91,0,0,1,3.39-.54c.11,0,.05,0,0,0a5.57,5.57,0,0,1,2.28.58A6.89,6.89,0,0,1,374.79,66,6.88,6.88,0,0,0,372,64.45a7.08,7.08,0,0,0-3.48,0c.58,0,1.24-.08,2,0a5.84,5.84,0,0,1,2.35.52,6.4,6.4,0,0,1,2.28,1.88,6.81,6.81,0,0,1,1.28,1.95c.74,1.27,1.23,2.32,1.81,3.11a3.25,3.25,0,0,0,2,1.46c-.08-.08-.41-.15-.66-.29a.6.6,0,0,1,.32.08c.14,0,.3.12.45.13s.61.1.34.13-.26-.1-.4,0a1.44,1.44,0,0,0,1.23-.06c.4.15,1.5-.52,2.28-1.28a7.42,7.42,0,0,0,1.47-1.82c.42-.7.84-1.57,1.3-2.44,0-.1-.09,0-.05-.09a1.21,1.21,0,0,1,.24-.2c0-.11-.11-.11,0-.3,0,0,0,.1,0,.15.33-.42.62-1.34,1-1.6-.1-.31.65-1.23,1-1.85.25.15-.13.33-.29.63.6-.56.53-.82,1.35-1.6a3,3,0,0,0-.94,1c.07-.58.95-1.31,1.5-1.72a3.71,3.71,0,0,0-.81.46c.39-.53,1.1-.55,1.66-1-.39.43-.92.55-1.23,1.09l.81-.57a6.46,6.46,0,0,1,.93-.5,3.81,3.81,0,0,1,1.89-.36c.24,0,.12-.15.36-.16-.18.15.27.12.41.17,0,.09-.37,0-.53,0s.4,0,.47.07c-.12.12-.45,0-.6,0a1.6,1.6,0,0,0,1.05.15c-.14.32.63.3.82.38-.08.1-.42,0-.6,0,.08.06.25.07.32.14-.08.24-.48.1-.63.21.32.09.74.12,1.08.25,0-.11-.29-.06-.21-.21.42.19,1,.46.89.67-.06,0,0,0,0,0-.39-.09-.73-.45-1.26-.36.09.16.25,0,.5.1-.26.11.05,0,0,.18-.3,0-.34-.15-.52-.11,0,.08,0,.1.05,0a2.54,2.54,0,0,1-.91.3,2,2,0,0,0-.94.44c.12,0,.26-.17.39,0-.06-.22.13,0,.4-.19C394.07,63.43,393.79,63.45,393.74,63.68ZM359.53,75c-.18.13-.49.09-.57.28C359.15,75.14,359.47,75.16,359.53,75Zm1-4.91c.19-.24.46-.3.44-.51C360.75,69.7,360.43,70,360.5,70.06Zm6.24-5.19c.06.08-.84.4-1.08.53a6,6,0,0,0,1.48-.65C367,64.8,366.76,64.73,366.74,64.87Zm24,2.62-.12-.06c-.1.12-.15.42,0,.27C390.51,67.6,390.74,67.66,390.76,67.49Zm-1,1.64c.15-.21.32-.25.44-.64C389.94,68.65,390,68.85,389.8,69.13Zm.93-2.08c-.11-.08-.44.55-.3.5A1.1,1.1,0,0,0,390.73,67.05ZM387.44,73c-.05.31-.53.51-.42.73C387.36,73.37,387.59,73,387.44,73ZM392.77,64s.05,0,.08,0,.24-.29.42-.27C393.16,63.67,392.77,64,392.77,64Zm-4.66,7.88c-.16.26-.33.51-.5.76.08.07,0,.21.19,0C387.62,72.63,388.27,71.87,388.11,71.92Zm-1.71,2.25c.22,0,.37-.28.56-.41C386.85,73.65,386.57,74.12,386.4,74.17ZM360.83,74c-.21.27-.62.33-.57.52C360.42,74.39,361,74,360.83,74Zm-4.65,2.17c.23-.1.7-.18.75-.32C356.57,76.05,356.34,75.93,356.18,76.18Zm.14-.32c.26,0-.3.12-.18.2a6.28,6.28,0,0,0,1-.45C356.89,75.74,356.51,75.68,356.32,75.86ZM384.74,71c.1-.16.36-.39.32-.51C385,70.67,384.71,70.89,384.74,71Zm-24.81,0c-.1.07-.22.25-.26.11-.24.24-.77.68-.53.71C359.13,71.62,359.76,71.39,359.93,71Zm-2.62,2.19c.63-.4.29-.45,0,0Zm11.05-8.73c-.21.06-.48.12-.45.23.21-.12.56-.1.55-.17S368.36,64.51,368.36,64.46Zm-10.44,7.62c.07,0,.06,0,.05.07.18-.1.4-.39.53-.37-.16.15,0,.15-.22.24.13.15.65-.31.63-.46-.12.07-.29.32-.38.26.21-.18-.12-.08,0-.26C358.33,71.72,357.94,72,357.92,72.08Zm23.8,1.13c0-.16.43-.2.44-.28C382.36,73.07,381.78,73.07,381.72,73.21Zm-8.82-3.48c-.18,0-.12-.21-.29-.27.05,0,.06,0,0-.09S372.8,69.53,372.9,69.73Zm20.36-5.5s0,0,0,0a.93.93,0,0,1-.25.23c-.07-.1.14-.12,0-.12s.08-.09.1-.09a.11.11,0,0,0,0-.11c-.05-.07-.11.15-.12,0-.12,0,.06.14-.06.17-.07-.14.06-.23.22-.3C393.17,64.11,393.19,64.21,393.26,64.23Zm-18.53,9.32c.16-.1.33.08.58.43,0,.2-.42-.57-.5-.39a13.88,13.88,0,0,0,1.33,1.59A6.72,6.72,0,0,0,378,76.56c0,.19-.59-.21-.82-.35,0,0,.15,0,.21.08l-.69-.51c-.23-.2-.5-.43-.76-.68A9.38,9.38,0,0,1,374.73,73.55Zm21.71-10.09c-.24-.21-.54-.4-.1-.19.1.07.16.17.29.26s0,0-.06,0,0,0,0,.06c-.15,0-.24-.23-.45-.27C396.27,63.22,396.3,63.46,396.44,63.46Zm-30.87,6.63c-.09.18.11-.34.31-.31C365.83,69.9,365.74,69.91,365.57,70.09Zm-10.34,6.43c-.1,0-.15,0-.16.07-.24,0-.11-.15-.29-.14C354.78,76.39,355.28,76.38,355.23,76.52ZM393.51,61c-.2.19-.41,0-.71.11C393,60.9,393.26,61,393.51,61Zm-5.83,4c0-.09-.05-.11-.08,0a12.69,12.69,0,0,1,.7-1.12c0,.19-.56.76-.29.82C387.92,64.75,387.43,65.21,387.68,64.94Z"/><path class="cls-2" d="M398.85,80.06c-.85-2.51-4.46-3-6.65-1.5s-3.28,4.08-4.27,6.54-2.09,5.07-4.29,6.51c-3,1.94-7,1.09-10.13-.56s-5.94-4-9.3-5.16-7.71-.6-9.51,2.48"/><path class="cls-2" d="M392.76,81.93c.07-.09.22-.23.23-.35C392.71,81.8,392.38,82.42,392.76,81.93Zm1-1.07c0-.08,0-.12.1-.17C393.93,80.81,393.83,80.83,393.77,80.86Zm-1.34,1.38a3,3,0,0,1-.4.67c0-.1,0-.18,0-.28C392.12,82.85,392.28,82.23,392.43,82.24ZM394,80.65c0-.09.08-.09,0-.18s0,.08-.1.06a.21.21,0,0,1,.15-.21c0,.06,0,.09.06.07C394.18,80.55,394.05,80.58,394,80.65Zm-2.42,2.89a2,2,0,0,1-.36.81C391.17,84.07,391.46,83.81,391.55,83.54Zm.89-1.62c0,.07-.18.47-.3.37C392.22,82.08,392.35,82.08,392.44,81.92Zm-.13,0c-.2-.11.41-.61.62-.88C392.85,81.37,392.45,81.5,392.31,81.88Zm-2.05,4.49-.15.37c-.17,0,0-.27.06-.4Zm-.32.58c0,.12-.19.79-.35.73Zm-4.57,6.54a13.94,13.94,0,0,1,1.21-1.18A5.24,5.24,0,0,1,385.37,93.49Zm-7.54,1.61c.13-.22.81.15,1.39.07A4.74,4.74,0,0,1,377.83,95.1Zm-1.57-.28c.28-.19.83.13,1.12.13C377.26,95.13,376.59,94.85,376.26,94.82Zm18-15.07c.24-.26.56,0,.85-.11C395,79.84,394.59,79.65,394.27,79.75ZM382,94.84a3.81,3.81,0,0,1,.85-.34A1.66,1.66,0,0,1,382,94.84Zm15.22-14.2c0-.11-.07-.14-.09-.26S397.31,80.61,397.17,80.64Zm-41.66,7c-.09.27-.43.56-.59.83C354.85,88.26,355.3,87.87,355.51,87.67Zm36.83-10.42c0-.07,0-.12,0-.19.35,0,.85-.15,1.26-.12C393.27,77.15,393,77,392.34,77.25Zm3.65-.8a2.61,2.61,0,0,1-.79-.06A1,1,0,0,1,396,76.45Zm-7,3c0,.34-.63.79,0,0Zm-34,7.21c0,.1-.29.41-.38.44C354.58,87,354.85,86.9,355,86.68Zm31.94-3.35c-.06-.2.07-.3.18-.56A1,1,0,0,1,386.92,83.33Zm-30.13,1.94c-.07.13-.47.28-.66.43a2.54,2.54,0,0,1,1.06-.77c-.05.19-.36.19-.62.39C356.61,85.36,356.71,85.3,356.79,85.27Zm29.08.74a4.8,4.8,0,0,1,.41-1.4A4,4,0,0,1,385.87,86Zm-5.73,5.27c.23-.23.74-.08,1.09-.24C381,91.25,380.66,91.19,380.14,91.28Zm8.55-12c-.07.26-.45.69-.6,1A4,4,0,0,1,388.69,79.33Zm-15.8,9.35c.21-.12.37.14.67.27A.82.82,0,0,1,372.89,88.68Zm-6.12-4.26c.22,0,.62.27.91.37A2.3,2.3,0,0,1,366.77,84.42Zm8.38,4.36c-.15,0-.1-.11-.22-.15C375,88.56,375.25,88.63,375.15,88.78Zm17.71-7.32c-.05.18-.18.24-.3.44,0,0,0-.07,0-.1s0,0-.06,0S392.71,81.51,392.86,81.46Zm1.27-1.63c-.05,0,0-.13-.17,0,0,.12.19.06,0,.14,0,0,.1,0,.16,0s0,.09,0,.11.06,0,.05-.07c.15.11-.07.27-.14.34s-.07-.13-.07-.16-.14.15-.24,0c.08,0,.05,0,.07.06s.07-.13.21-.14c-.29-.19-.85.32-.89.55,0,.07-.26,0-.23.2s.21,0,.31-.1-.28.28-.37.41c-.06-.06.08-.12,0-.18s0,.14,0,.21A11.07,11.07,0,0,0,391,83.88c.17-.15.09.05.06.21-.08,0-.06-.07,0-.14-.14,0-.13.31-.05.35-.12.06-.15.16-.24.34-.29.59-.14.37.05-.35-.17.14-.26.59-.39.86-.13-.14,0-.23.09-.35-.51.12-.58,1.42-1.1,2.21a4.7,4.7,0,0,0,.58-1.23c.1.15-.07.25-.14.49.36-.06.32-1.06.71-1.13a46.23,46.23,0,0,1-2.44,4.8c-.06.15-.12,0-.19.14a5.24,5.24,0,0,1-1.29,1.83,12.79,12.79,0,0,1-2.33,1.74c.13.12-.25.13-.39.32s.12-.17.06-.23c-.61.34-.64.58-1.49.66a6.54,6.54,0,0,0,.84-.31,12.71,12.71,0,0,1-3,.66c.58.07,1.4-.16.48,0a3.1,3.1,0,0,1-.86.11c-.14-.09.05-.09-.08-.18-1.08.1-1.9,0-2.72,0,0-.08.32.05.38,0-.18-.18-.65,0-.79-.2-.1,0-.08.1-.11.16-.3-.13-.19,0-.51-.08.08,0,.28,0,.32-.1-.75-.17-1.57-.54-2.4-.77,0,0,.11.08.18.12-.22.09-.62-.33-1-.38a14.62,14.62,0,0,0,2,1c.63.28-.85-.22-1.05-.32a46,46,0,0,1-4.61-2.71c.42,0,1.12.63,1.67.88,0-.21-.75-.39-.59-.55-.18-.1-.23,0-.44-.15.05,0,.13,0,.18-.05a2.06,2.06,0,0,1-.55-.33c0,.06.11.11.19.17-.19,0-.78-.4-.52-.37-1.66-1-3.45-2.73-5.54-3.28,0,.11.32.1.33.2s-.35-.08-.41-.14c0,.21.59.34.83.45a7,7,0,0,1,.77.34c-.8-.14-1.6-.6-2.45-.79,0,0,.16-.14,0-.14.16-.08.48.1.7.13a11.66,11.66,0,0,0-1.53-.45c0,.1.27,0,.3.13a6.31,6.31,0,0,0-2.14-.14c-.09.11-.58-.24-.77-.24s-.71.39-.95,0a.33.33,0,0,0,.21,0c-.11-.08-.31,0-.42-.07.23.08-.57.54-.64.33-.12.17-.18.17-.3.29a.23.23,0,0,1,.06-.19c-.12-.06-.46,0-.43.18-.19.1-.37-.13-.58.2a.58.58,0,0,0-.73.15c-.05-.11.26-.3.24-.41-.28.13-.32,0-.55.16,0,0,.07-.18.12-.14,0-.15-.27.08-.37,0a3.45,3.45,0,0,1-.3.5,4,4,0,0,1,2-2.48,1.18,1.18,0,0,1,.51,0c.11-.07.11-.16.27-.21,0,0-.3,0,0-.09-.14,0-.54.1-.54.15-.08-.19.56-.49,1-.61a3.52,3.52,0,0,1,1.69-.54,2,2,0,0,0,.25-.25,4,4,0,0,0-1.52.45c.1-.24-.29,0-.53,0,.36-.35,1.58-.39,2.11-.55-.63-.07.59-.59,1.08-.32,0-.06.2-.13.44-.16,0,0-.09.08-.22.08.6.22,1.61.26,2.53.49-.08.17-.49,0-.8,0a22,22,0,0,1,6.63,2.61c.28.18.52.43.78.57s.15.23.24.35c.9.52,1.31.85,2.08,1.35.06,0,0,0,0,0,.8.43,1.85,1.11,2.58,1.4a18.09,18.09,0,0,1-3.92-2.15A9.08,9.08,0,0,0,374,89.72a17.89,17.89,0,0,0,1.76.87c.61.24,1.34.33,1.64.52a9.86,9.86,0,0,0,2.92.23,5,5,0,0,0,2.4-.79,6.07,6.07,0,0,0-.72.33,3.46,3.46,0,0,1,.75-.46c.14-.06.6-.35.38-.15s-.28.13-.37.25a2.15,2.15,0,0,0,1-.86c.42-.11,1.05-1.18,1.54-2.1.7-1.24,1.15-2.88,2-4.57,0-.1-.09,0-.05-.09s0-.07.22-.2-.1-.1,0-.28c0,0,0,.09,0,.14.31-.39.58-1.26,1-1.48-.1-.3.65-1.12,1-1.67.23.16-.12.3-.3.57.6-.48.54-.73,1.35-1.38a2.46,2.46,0,0,0-.93.8c.07-.55.95-1.15,1.49-1.48a3.24,3.24,0,0,0-.79.36c.39-.47,1.07-.41,1.58-.81-.37.36-.84.42-1.17.9a14,14,0,0,1,1.64-.85,3.66,3.66,0,0,1,1.73-.24c.22,0,.11-.14.33-.14-.16.15.24.12.37.19,0,.07-.33,0-.48,0s.36,0,.42.08c-.1.12-.4,0-.53,0a1.22,1.22,0,0,0,.94.18c-.14.32.56.31.73.4-.08.09-.38,0-.54,0,.07.07.22.06.29.14-.08.24-.44.09-.57.21a9.74,9.74,0,0,1,1,.25c0-.11-.27-.06-.19-.21.37.18.89.44.79.65-.05,0,0,0,0,0-.35-.07-.65-.41-1.12-.33.08.15.22,0,.44.09-.24.13.05,0,0,.19-.28,0-.31-.16-.47-.11s0,.09,0,0a1.77,1.77,0,0,1-.81.28,1.75,1.75,0,0,0-.82.39c.11.07.22-.16.34,0-.05-.21.12,0,.36-.17C394.42,79.59,394.18,79.61,394.13,79.83ZM360,87.11c-.14,0-.33-.17-.42,0C359.73,87.05,359.93,87.24,360,87.11Zm3.59-2.85c.33,0,.52.25.71.13C364.07,84.28,363.59,84.17,363.6,84.26Zm6.71,2.92c0,.09-.63-.39-.8-.53a2.5,2.5,0,0,0,1.05.73C370.48,87.34,370.42,87.11,370.31,87.18ZM391.39,83l-.12-.06c-.08.1-.12.36,0,.24C391.16,83.06,391.38,83.13,391.39,83Zm-.82,1.37c.13-.18.29-.2.38-.54C390.67,83.93,390.78,84.11,390.57,84.35Zm.78-1.75c-.11-.08-.4.44-.27.42S391.36,82.71,391.35,82.6ZM389,87.68c0,.26-.32.5-.15.67C389.06,88,389.17,87.69,389,87.68Zm4.24-7.58s.05,0,.08.06.2-.27.38-.22C393.62,79.78,393.27,80.11,393.26,80.1Zm-3.9,6.64-.27.67c.1,0,.07.17.19,0C389.09,87.37,389.49,86.68,389.36,86.74Zm-.88,2.12c.22,0,.22-.31.36-.44C388.69,88.34,388.61,88.79,388.48,88.86ZM361.1,87.09c-.23,0-.47-.12-.52.06C360.72,87.11,361.21,87.17,361.1,87.09Zm-3.37.21c.13-.09.41-.15.45-.26C358,87.17,357.79,87.08,357.73,87.3Zm0-.3c.18,0-.19.11-.08.18.22-.19.48-.19.66-.33C358.14,86.91,357.84,86.81,357.75,87Zm28.19-.58c0-.17.25-.45.19-.57C386.08,86,385.88,86.31,385.94,86.42Zm-23.48-2.09c-.13,0-.35,0-.28-.12-.34,0-1.07-.06-.9.12C361.42,84.16,362,84.45,362.46,84.33Zm-3.6.22c.8-.15.48-.32,0,0ZM371.3,88c-.14-.09-.3-.21-.36-.12.17,0,.33.29.37.23A.07.07,0,0,1,371.3,88ZM360,83.8c.09,0,0,0,0,.09.22,0,.61-.09.72,0-.24,0-.08.12-.36.06,0,.19.76.14.86,0-.14,0-.46,0-.5,0,.3,0,0-.15.21-.18A2.39,2.39,0,0,0,360,83.8Zm23.9,5.74c-.09-.13.29-.4.27-.46C384.44,89.1,383.93,89.38,383.94,89.54Zm-8.39,4.77c-.14.14-.29-.09-.51-.07,0,0,0-.08-.05-.11S375.29,94.22,375.55,94.31Zm18.16-14s0,0,0,0-.11.12-.24.22c-.06-.13.15-.13,0-.14s.08-.07.11-.07a.14.14,0,0,0,0-.11c0-.07-.08.15-.09,0-.13,0,.05.14-.07.15s.05-.21.19-.27C393.63,80.21,393.65,80.31,393.71,80.33ZM380,95.25c0-.19.23-.26.62-.28.18.07-.64.06-.55.23.78-.09,1.3-.18,1.82-.28a8.84,8.84,0,0,0,1.76-.54c.13.14-.41.25-.6.35,0,0,.08-.09.14-.1A11.63,11.63,0,0,1,380,95.25Zm16.5-15.62c-.22-.2-.48-.38-.08-.18.09.06.14.16.27.23,0,0,0,0-.06,0s0,0,0,.06c-.15,0-.23-.21-.42-.25C396.37,79.4,396.4,79.63,396.53,79.63Zm-31,9.12c-.18,0,.34-.06.38.14C365.74,88.9,365.7,88.81,365.48,88.75Zm-8.22-1.08c-.05,0-.06.06-.05.1s-.13-.11-.22,0S357.22,87.53,357.26,87.67Zm36.68-10.55c-.18.2-.38-.05-.65.08C393.44,77,393.71,77.19,393.94,77.12Zm-5.58,3.29c0-.08,0-.11-.08,0a8,8,0,0,1,.71-1c0,.18-.56.67-.3.75C388.59,80.24,388.11,80.65,388.36,80.41Z"/><path class="cls-2" d="M415.71,87.19a87.16,87.16,0,0,0-23.11,42l26-23.39L404.7,185.39l17.2-33.1a57,57,0,0,1,1.31,27,83.87,83.87,0,0,0-1.62-94.36"/><path class="cls-2" d="M399.08,119.5l-.93.83s0,0,0,.07h0l.13-.12,1.74-1.59C400.92,117.88,401,117.76,399.08,119.5Zm-1.08,1c-.15.18-.14.11-.12,0C398.07,120.41,398,120.5,398,120.52Zm3.92-3.47c1.46-1.39,2.59-2.4,4.43-4-.47.47-.67.75-1.28,1.33C405.78,113.47,402.45,116.74,401.92,117.05Zm-4,3.42c-.12.06,0-.08-.13-.06s.05,0,0,.16-.12-.09-.05-.29c0,.06.08,0,.11,0S397.91,120.39,397.91,120.47Zm12.7-11.1c1.74-1.69,6.7-6.11,8.6-7.76-1.22,1.19-2.61,2.44-4.11,3.76S412,108.07,410.61,109.37Zm-10.2,9.28a20.59,20.59,0,0,1,2.8-2.47C402,117.31,401.5,117.64,400.41,118.65Zm.38-.17a14,14,0,0,1-2.3,2.22,8.2,8.2,0,0,0-.75.68,2.25,2.25,0,0,1,.54-.62l.13-.1.71-.63C399.68,119.53,400.25,119,400.79,118.48Zm18.45-1-.38,2.2c-.22.36.19-1.44.29-2.2Zm-.72,3.68a30.12,30.12,0,0,1-.81,4.41C418.12,123.41,418.2,123,418.52,121.21Zm-6.83,39c.05-1.23.73-4.81,1.17-7.35C412.55,155.16,412.22,156.9,411.69,160.18Zm-1.16,8.53a1.31,1.31,0,0,1-.23.64c-.07.07-.09,0-.27.46A9.25,9.25,0,0,1,410.53,168.71Zm.45-.91a.71.71,0,0,1-.12.51,1.41,1.41,0,0,0-.21.35,1.35,1.35,0,0,1,.15-.52A1.38,1.38,0,0,0,411,167.8Zm-12.73-50.44c.68-2.34,2.06-4.5,3.11-7a20.43,20.43,0,0,1-1.25,2.78C399.5,114.47,398.75,116,398.25,117.36ZM410,168.93c-.1.09-.06-.22,0-.57C410.09,168.35,410,168.65,410,168.93Zm7-80.49c-1,1-1.39,1.47-2.53,2.65A17.76,17.76,0,0,1,417,88.44Zm7.87,1.89c-1-1.31-2.41-3.68-3.47-5.28C422.12,85.83,423.86,88.82,424.85,90.33Zm-32,33.46c-.12.15.05-.49-.09-.3.42-1.06.81-2.39,1.35-3.78.22-.57.45-1.15.68-1.72s.42-1,.63-1.46c-.3.88-.57,1.63-1,2.57C394,120.31,393.55,121.75,392.9,123.79Zm7.37-18.27c-.25.44-1.15,2.31-1.79,3.34A20.56,20.56,0,0,1,400.27,105.52Zm3.34,15.91c1-1.15,3.91-3.43,0,0Zm23.13-29.86c-.22-.23-1.3-2.27-1.53-2.6a4.22,4.22,0,0,1,.69,1C426.13,90.46,426.4,91,426.74,91.57ZM416.06,111.1c-.08-.11,0-.4.08-.83l-.32.28q.19-.22.42-.45A5.61,5.61,0,0,1,416.06,111.1Zm16-8.73c-.18-.27-.37-1-.72-1.68s-.68-1.54-1-2.11c.57,1.1,1,1.87,1.4,2.76s.74,1.9,1.3,3.44c-.36-.55-.73-2-1.38-3.5A7.16,7.16,0,0,0,432,102.37Zm-18.3,22.31c.24-2.5.76-5,1.38-8.82C414.84,118.5,414.38,120.8,413.74,124.68Zm-11.32,65.46a51.49,51.49,0,0,1,.8-5.11c.41-2.29.88-4.76,1.21-6.79-.18,1.44-.44,3-.79,4.94S402.86,187.44,402.42,190.14Zm1.76-68.75c.85-.9,3-2.76,4.39-4C407.73,118.26,405.55,120.12,404.18,121.39Zm18.13,42.68a7,7,0,0,1-.28-1.67c0-.37-.09-.77-.14-1.21,0-.16,0-.33-.06-.5l-.06-.36a.85.85,0,0,1,.11.26l.07.26q0,.27.09.57A19.05,19.05,0,0,1,422.31,164.07Zm14.15-9a19.18,19.18,0,0,1-.55,2.37c-.31,1-.65,2-.9,2.78C435.35,158.76,436,156.93,436.46,155Zm-15.65,5.32c0-.13,0,.1,0,.08C420.78,160.7,420.78,160.81,420.81,160.36Zm-22.65-39.73a.27.27,0,0,1,.1-.15l1.52-1.38s-.31.33-.52.53c0,.07.14-.07.32-.23a4.73,4.73,0,0,1-.46.46l-.77.7C398.28,120.61,398.2,120.65,398.16,120.63Zm-.39-1.9c-.09.19-.11.13-.16.23a1.35,1.35,0,0,0-.13.3l-.27.76s.05,0,.11-.1l.15-.3c0-.08,0-.1,0,0s-.08.24-.18.53c0,0,0,0,.05,0s0,0,.08-.19.21-.58.3-.84a2.62,2.62,0,0,1-.15.7,1.58,1.58,0,0,0,.2-.69c.26-.52.19-.15,0,.46-.05.15-.1.32-.15.5a.47.47,0,0,0,0,.12v.06l0,.17c0,.16-.17.07-.19,0a.75.75,0,0,1-.33.62c.07-.25.07-.14.14-.17.11-.28,0-.28.15-.62a4.64,4.64,0,0,0-.63,1.62,4,4,0,0,0-.12.75c-.09.31.23-.12.32-.22s.1-.1.17-.12a.91.91,0,0,0,.33-.34c.05-.2,0-.18-.29.09.07-.18.57-.55.78-.78,0,.15-.2.22-.25.4a.78.78,0,0,0,.3-.45l18-16.16c-1.86,1.57.11-.22,1.55-1.57.16,0-.42.49-1,1.05a26.94,26.94,0,0,0,3.1-2.91c.69-.53,1.38-1.14,2.58-2.21-.07.34-.14.76-.22,1.23-1.18,6.52-.86,5,.12-1.06l-2.1,1.94c.48-.4,1.17-1,2-1.73-.41,2.4-.94,5.47-1.33,7.75a18.64,18.64,0,0,1,.61-3.82c-.58,2.12-1.25,6-2,10.59-.46,2.75-.94,5.84-1.46,8.38.43-1.76.93-5,1.41-7.73a19,19,0,0,1-.46,2.94,6.61,6.61,0,0,0,.38-1.42c.06-.34.12-.71.19-1.1s.15-.92.23-1.4c.5-3,1-5.9,1.41-7.32-2.16,11.91-4,22.17-6,32.94a11.24,11.24,0,0,1-.28,1.1c-1,7.34-2.45,13.48-4.2,23.9.21-.23-.24,1.23-.29,2.2-.21,1,.05-.84-.05-.73-.06.4-.11.75-.16,1.07l0,.21v.58a3.93,3.93,0,0,1-.26,1.15c.05-.49.21-.89.19-1.15-.29,1.3-.6,3.26-.73,4.18.33-1.29.32-1.82.26-1a1.78,1.78,0,0,1-.07.72l-.1.32-.09.27-.09.27a.79.79,0,0,0-.06.22c.39-.83.75-1.57,1.08-2.26a19.43,19.43,0,0,0,.78-1.89c0,.21-.17.36-.21.6.05.07.16-.19.25-.42s.16-.42.24-.44,0-.2-.05-.3a.43.43,0,0,0,.11-.22.44.44,0,0,1,0-.1l0-.06,0,0,.06-.14s0,.12,0,.13v0l0,.1a.37.37,0,0,0,0,.21c.76-1.46,1.59-3,2.46-4.7l1.54-3,1.88-3.73a5.6,5.6,0,0,0-.37.64l-.55,1c0-.06.15-.36.26-.61s.29-.57.46-.9l1.19-2.28c.44-.82.91-1.7,1.36-2.56s.86-1.5,1.25-2.23c-.2.3-.45.7-.75,1.19l-.47.78-.55,1c-.77,1.47-1.66,3.18-2.57,4.95l-1.62,3.1c-.49.92-.95,1.77-1.34,2.44-1.66,3.09,2-4,2.52-5l2.95-5.64c.51-1,1-1.79,1.47-2.6l1.45-2.44.72-1.22.18-.3c0-.1.05,0,.07.07l.05.19.2.75.81,3c.25,1,.51,1.94.77,2.91l.37,1.47.34,1.56.32,1.57.24,1.48.12.74c0,.24.08.53.09.65l.11.94c.15,1.27.24,2.56.31,3.86a61.79,61.79,0,0,1-.1,8c0-1.1.09-3,.08-5.12a53.79,53.79,0,0,0-.34-6.09c-.05.44.1,1.67.16,2.77s.09,2.06,0,1.91a20.38,20.38,0,0,1,.11,2.69c-.05-.13-.06-.67-.12-.75a32.11,32.11,0,0,1-.13,3.86,11.41,11.41,0,0,0,.13-1.55c.08,1-.36,5.27-.33,3.86-.15,1.5-.4,3.05-.72,4.77l-3.71-1.52,2.09-3.37c.36-.57.72-1.16,1.09-1.74s.65-1.23,1-1.86c.66-1.25,1.32-2.53,2-3.82l1.74-4.08A43.05,43.05,0,0,0,431,159c.46-1.45,1-2.88,1.35-4.39l1.11-4.49c.24-1.53.49-3,.73-4.57-.14.23-.36,2.21-.5,2.52-.15.71.36-2.39.47-2.88a17.11,17.11,0,0,0-.57,2.65l-.31,1.89c-.11.6-.26,1.15-.36,1.56-.42,1.6-.75,3.43-1.34,5.29,1.13-5,2.59-10.58,3-17.15,0,.21.09.82.17-.38,0,1-.29,3.49-.42,5.07.21-1.77.38-3.73.58-5.68s.11-3.89.19-5.62c-.1.18,0,1.94-.12,2.21,0-1.14.12-2.49,0-3.93s-.13-2.94-.2-4.4a17.93,17.93,0,0,0-.2-2.12c-.08-.68-.16-1.33-.24-1.93-.15-1.2-.28-2.21-.4-2.89s-.49-3.91-.7-5.15c-.06-.26-.11-.55-.17-.85s-.17-.59-.27-.9c-.18-.63-.38-1.27-.56-1.89a9.38,9.38,0,0,1-.56-2.82c.06.33.19.82.37,1.43,0-.55-.48-2.08-.57-2.56.32,1.37-2.1-4.93-1.81-4.81l-1.28-2.62a4.55,4.55,0,0,1,.56.92,12.15,12.15,0,0,0-1.3-3.06,16.12,16.12,0,0,0-1.7-3.73,12.54,12.54,0,0,0-1.68-3.84c.3.17,1.28,2.25,1.55,2.51a9.69,9.69,0,0,1-.57-1.39,4.8,4.8,0,0,0-.69-1.39,3,3,0,0,1,.6.94c.21.33.09,0-.12-.42a6.18,6.18,0,0,1-.49-1c-1.13-1.52-1.06-1.58-1.88-2.78,2.72,3.08,6.56,10,8.77,15.12.29.92.67,2,.76,2.57.26.66.41.83.72,1.71,0-.1-.47-1.51.08,0-.22-.7-.87-2.74-1-2.87a9.4,9.4,0,0,1,.93,2.05l.72,1.92c.25.67.41,1.37.59,2,.44,1.37.88,2.7,1.34,4.15s.72,3.07,1.06,4.94c.17.48.35,1,.51,1.4-.64-2.71-1.24-6.43-2-8,.42.74-.33-1.44-.61-2.61a45,45,0,0,1,1.53,5.19c.42,2.16.89,4.39,1.21,5.81-.08-.8-.11-1,0-.83a5.94,5.94,0,0,1,.37,1.47,37.47,37.47,0,0,1,.63,4.92,8.46,8.46,0,0,1,.33,2.23,4.34,4.34,0,0,1-.15-1.12c0,1.57.09,3.68.14,6,0,1.17,0,2.39-.07,3.63a35.37,35.37,0,0,1-.16,3.72,5.35,5.35,0,0,1,0-1.53c0-.81,0-1.8,0-2.63,0,2.68-.38,5.66-.64,8.85a97.24,97.24,0,0,1-1.82,9.9l-.6,2.55c-.24.84-.51,1.67-.77,2.51l-.79,2.51-.4,1.25-.49,1.21q-1,2.42-1.94,4.77c-.76,1.51-1.51,3-2.23,4.42-.23.44-.45.89-.69,1.32l-.79,1.24c-.52.82-1,1.61-1.47,2.36a19.72,19.72,0,0,1-1.26,1.77l-5,7,2.12-8.14,0-.13a62,62,0,0,0,.89-7.41,55.68,55.68,0,0,0,0-7.06c0-.4-.06-.18,0,0-.07-.67-.14-1.38-.21-2.11-.05-.37-.09-.74-.14-1.12l-.06-.46-.06-.33c-.07-.49-.13-.81-.19-1.18s-.15-.74-.24-1.11-.19-.75-.29-1.12c0,0,0-.15,0-.08l-.06.11-.13.24-.25.47-.92,1.76c.39-.8.85-1.7,1.33-2.68l.05-.09,0-.05,0,.05.05.19.12.39.21.82c.13.56.25,1.14.36,1.73.05.38.11.75.17,1.14.07.6.16,1.2.21,1.81.12,1.21.21,2.43.25,3.63a54.2,54.2,0,0,1-.2,7,41,41,0,0,0,.27-8.41c0-.79-.13-1.58-.21-2.38l-.15-1.21-.08-.61-.06-.39-.13-.76L422,159c-.1-.43-.18-.86-.29-1.29-.07-.27-.13-.55-.21-.82l-.11-.42c0-.06,0-.16-.06-.18l-.1.18c-.26.49-.52,1-.77,1.47l-2,3.71-2.89,5.64c-.49.94-.94,1.82-1.34,2.6-.57,1.08-1.07,2-1.46,2.69l-11,21.21c1.84-10.61,3.49-20.1,5.36-30.9-.1.39-.26,1.29-.45,2.39-.25,1.4-.53,3-.78,4.5,0-.3.11-.82.22-1.51s.22-1.34.35-2.15c.22-1.23.47-2.68.7-4,.2-1.12.95-5.15.59-2.94-.26,1.71-.44,2.22-.57,3.31.85-4.42,1.53-8.35,1.71-9.92.67-2.67,1.93-10.93,3.12-17.65.77-4.46,1.6-9.23,2.45-14.18.41-2.39.84-4.82,1.26-7.28.24-1.31.49-2.63.73-4l-.13.12c-.25.24,0,.08-.26.34a1.93,1.93,0,0,1-.43.22c-.25.25-.22.39-.63.69a1.75,1.75,0,0,1,.31-.34c-.49.36-1.28,1.08-2,1.72L411.51,114c-.6.52-1.13,1-1.55,1.25-.72,1-5.19,4.68-7.71,7-.24-.15,1.19-1.18,2.42-2.3-1.52,1.23-2.41,2-3.43,3l-2.2,2-3.33,2.93c.85-.69,1.76-1.45,2.84-2.38s2.49-2.18,3.36-3c-.57.69-2.93,2.83-5,4.68-.53.46-1.09,1-1.59,1.38l-1.46,1.2-2.6,2.14c1-.76,2.41-1.82,3.94-3-1.55,1.36-2.91,2.37-4.15,3.31-.16.11-.33.25-.46.33l.23-.8.43-1.56c.28-1,.53-2,.76-3-.31,1.38-.69,2.94-1.11,4.57l-.08.31s0,.12,0,.14l.1-.09.44-.36.92-.78c.63-.53,1.3-1.13,2-1.8l-2.12,1.71-1.06.87c-.14.16,0-.11,0-.21l.1-.38.2-.77c.52-2.07,1.06-4,1.6-5.89s1.18-3.83,1.87-5.52c.54-1.43,1.18-2.78,1.78-4.08.49-1.06.17-.69.66-1.74-.26.94.61-1.07,1-1.66,0,.19-.79,1.63-1.11,2.38,0,.36.81-1.81,1-2a24.39,24.39,0,0,1-1.26,2.73,38.34,38.34,0,0,0,2.45-4.7c-.08.87,1.81-2.92,2.44-3.85-.12.36-1.11,2-1.54,3,.27-.38.72-1.23,1-1.6.07.43-1.22,2.48-1.48,3.35.9-1.64,2.15-3.93,3.32-5.81-.2.17-.94,1.61-.91,1.23,1.38-2.25,3.71-5.64,3.91-5.51-.22.35-.07.18,0,0a72.46,72.46,0,0,0-4.63,7.56c.44-.55.77-1.42,1.66-2.89-.66,1.49.23-.33.35-.26-1,1.88-1.35,2.08-1.83,3.2,0,.11.25-.29.21-.31-.18.51-.55,1.34-1,2.35s-1,2.21-1.54,3.47l-.8,1.91-.71,1.88q-.35.91-.6,1.74l-.13.4c0,.13-.08.28-.09.3l-.06.3c.09,0,.53-1.75.91-2.25-.21-.06.39-1,1.15-3.06A35.35,35.35,0,0,0,397.77,118.73Zm36.1-.1a29.14,29.14,0,0,0-.51-2.9A23.46,23.46,0,0,0,433.87,118.63Zm4.27,20.3a30.69,30.69,0,0,0-.29,3.77A32.47,32.47,0,0,0,438.14,138.93ZM425.91,178c-.15,0,2.36-3.71,2.88-4.94-.62,1.2-3,4.82-3.9,6.55A10.08,10.08,0,0,0,425.91,178Zm-17.19-66.4.11.08c.65-.55,1.81-1.71,1-1.06C409.73,110.93,409.36,111,408.72,111.61Zm12.1-10.69c-1.66,1.44-2.35,1.87-5.34,4.65.94-.71,1.64-1.33,2.45-2.07S419.63,101.93,420.82,100.92Zm-13.58,12.32a17.25,17.25,0,0,0,2.53-2.22C409.13,111.52,407.65,112.8,407.24,113.24Zm9.75,13.5c-.08,1.23-.65,3.22-.5,3.67C416.88,128.36,417.17,126.5,417,126.74Zm-20.57-4.22a.87.87,0,0,1,.18-.31,4.48,4.48,0,0,0,.15-.68,2.11,2.11,0,0,1,.24-.69,2.25,2.25,0,0,0-.37.89C396.53,122.11,396.43,122.49,396.42,122.52Zm21.47-1.29-.7,4c.11,0,0,.69.25-.38C417.21,125.07,418.08,120.68,417.89,121.23Zm-2.1,12.5a23.9,23.9,0,0,0,.64-2.95A24.78,24.78,0,0,0,415.79,133.73Zm19.09-7.49a25.68,25.68,0,0,0-.49-3.61c.06.48.21,1.59.32,2.47S434.85,126.65,434.88,126.24Zm-5-23.3c.41,1,1.05,3,1.31,3.42A28.38,28.38,0,0,0,429.86,102.94Zm.61.89c.35,1.13-.54-1.41-.5-1,.77,1.87,1.23,3.43,1.82,4.81C431.31,106.38,431,104.81,430.47,103.83Zm-16.89,23c.17-1.12.6-3.17.59-3.68C414,124.32,413.57,126.37,413.58,126.88Zm24.45,6c0-.33,0-.8,0-1.15s0-.55.07-.38c-.11-1.88-.32-5.82-.45-4.86a19.11,19.11,0,0,1,.19,2.64C437.89,130.41,438,131.83,438,132.92Zm-2.45-19.42c.89,4.29.8,2.74,0,0Zm-13.13,60.65a11.49,11.49,0,0,0-.18,2.16c.11-1,.37-2.49.3-2.53C422.54,174.06,422.49,174.21,422.45,174.15Zm15-54.2c.05.46,0,.25-.08,0,.12,1.15.48,3.22.45,3.77a11.73,11.73,0,0,1-.29-1.86,8.28,8.28,0,0,0,.13,2.11c.07.53.15,1.07.23,1.51a7.12,7.12,0,0,0,.13.91c0-.8-.33-2.46-.24-2.65.21,1.57.1-.27.31,1.07C437.89,123.16,437.58,120.42,437.44,120Zm-28.16,31.19c-.12-.3.56-3.46.54-3.67C410.18,146.59,409.3,150.27,409.28,151.14Zm3.31,14.2A24.18,24.18,0,0,1,413.7,163c0,.07.11-.05.26-.3C413.83,163.08,413.25,164.12,412.59,165.34ZM397.32,121c.07,0,0,0,0,.07a1.77,1.77,0,0,1-.1.59c-.22.3.06-.36-.11,0s0-.25.08-.3,0-.08-.09,0,0,.29-.19.33c-.17.41.21-.2.05.19s-.11-.19,0-.64C397.09,121.23,397.22,121.16,397.32,121ZM410,169.57c-.38,1.09-.46,1.2-.36.75s-.1.56.28-.54a5.33,5.33,0,0,1,.12-1l.26-1.24c.19,0,0,.22.05.3s-.05,0,0,0a5.72,5.72,0,0,0-.16.84C410.14,168.94,410.11,169.19,410,169.57ZM407.64,99.3c-1.69,2.3-3.12,4.33-1,1.15.58-.87,1.12-1.41,2-2.66.08,0,0,.13-.17.31s.12-.09.25-.28c-.61,1.06-1.83,2.42-2.75,3.9A24.12,24.12,0,0,1,407.64,99.3ZM431,158a14.68,14.68,0,0,1-.74,2.43C430.38,159.75,430.57,159.33,431,158Zm-3-59a2.26,2.26,0,0,0-.34-.64c-.44-.91,0-.42-.32-1.12C427.43,97.2,428.28,99.2,428,99Zm-31.74,16.22c-.28,1.13-.85,1.68-1.31,3.14A23.08,23.08,0,0,1,396.29,115.18Zm11.79,2.27c-.34.32-.21.31.07,0l-4.74,4.23c.4-.54,3.38-2.94,2.9-2.86C407,118.3,409.44,116.34,408.08,117.45Z"/><path class="cls-2" d="M1705.55,120.76c4.2,8.48,8.44,17.06,10.62,26.32s2.17,19.4-1.93,27.85-12.84,14.74-21.91,13.88c-5.86-.56-11.23-3.93-15.45-8.25s-7.44-9.58-10.62-14.79l-9.91,27.35a341.84,341.84,0,0,1-.72-62.19l34.66,18.83a3,3,0,0,0,2.43.52,3.19,3.19,0,0,0,1.48-2l11.58-28.86"/><path class="cls-2" d="M1717.29,171.07a23.54,23.54,0,0,0,.84-3.27A29.3,29.3,0,1,0,1717.29,171.07Zm1.72-12.65c0-.3-.08-1.27-.13-2.32A16,16,0,0,1,1719,158.42Zm-2.94,15.85a25.09,25.09,0,0,1-2.62,4.8c.34-.51.45-.81.85-1.46-.25.46.23-.2.67-1.11S1715.92,174.5,1716.07,174.27Zm2.7-19.51c0-.07-.13-1.23-.19-1.3,0,.11.1.56.13,1.33-.08-.55-.18-1.18-.32-2.29.07.36.08.27,0-.35A13,13,0,0,1,1718.77,154.76ZM1710.12,183a21,21,0,0,1-2,1.83,24.49,24.49,0,0,1-2.24,1.65A35.36,35.36,0,0,0,1710.12,183Zm6.61-10.65c-.06.16-.34,1-.67,1.76a7.26,7.26,0,0,1-.67,1.37C1716,174.13,1716.26,173.64,1716.73,172.37Zm-.2.32c-.09.11.39-1.14.85-2.79a34.61,34.61,0,0,0,1-5A32.91,32.91,0,0,1,1716.53,172.69Zm-22.78,17.5c-.7-.05-1.4,0-2.09-.14-.18-.07.16,0,.63,0l1.44.07Zm-3.48-.4a16.14,16.14,0,0,1-2.21-.53,8.76,8.76,0,0,1-1.76-.67A21.39,21.39,0,0,0,1690.27,189.79Zm-23.72-21.08v-.06s.12.13.22.28l1.75,2.78c-.56-.83-1-1.57-1.56-2.39l-.41-.64Zm-11.31,26a9.71,9.71,0,0,1,.17,1.23c0,.35.07.75.11,1.18l.07.7,0,.37,0,.19v.1s0,.08,0,0c.68-1.82,1.54-4.07,2.28-6.2,0,.1-.67,1.93-1.46,4.08-.2.53-.4,1.09-.61,1.65l-.15.42-.08.21,0,.05v-.05l0-.11c0-.3,0-.59-.08-.88C1655.42,196.5,1655.31,195.45,1655.24,194.69Zm-1-10.46c.1.49.18,1.4.26,2.34s.12,1.6.18,2.34.15,1.51.2,2.07c-.07-.26-.24-1.81-.39-3.68C1654.45,186.24,1654.35,185,1654.28,184.23Zm63.36-34.88c-.51-2.14-.91-4.41-1.69-6.73A46.76,46.76,0,0,1,1717.64,149.35Zm-55.15,30.31c.22-.75.67-2,1.17-3.37C1663.5,176.89,1663,178.32,1662.49,179.66Zm43.86-59.29,1.43,2.94C1707.62,123,1706.22,120.28,1706.35,120.37Zm-2.74,4.18c.48-1.36,1.43-3.58,2.05-5.14C1705.41,120.31,1704.2,123.08,1703.61,124.55Zm13.32,30.75c0,.06-.08-.37-.12-.28a41.84,41.84,0,0,0-.55-5.19A36.64,36.64,0,0,1,1716.93,155.3ZM1713.37,140a31.55,31.55,0,0,1,1,3.07C1714.1,142.33,1713.7,141,1713.37,140Zm1.22,32.1a13.6,13.6,0,0,1-.81,2C1713.58,174.4,1713.77,174.13,1714.59,172.08Zm-11.14-45.7c0-.26.81-2.1,1-2.42C1704.29,124.44,1703.84,125.32,1703.45,126.38Zm-2.21,60.16c.35-.18.69-.33,1.07-.54a14.07,14.07,0,0,0,1.43-.76,10,10,0,0,1-1.2.7A9.88,9.88,0,0,1,1701.24,186.54Zm-1.61-50.47c.15-.52.91-2.31,1.3-3.33-.73,2-1,2.83-2.08,5.45.13-.54.66-1.68,1.16-3C1700,135.21,1699.77,135.71,1699.63,136.07Zm-12.39,50.7a19.47,19.47,0,0,0,7.31,1.23A16.53,16.53,0,0,1,1687.24,186.77Zm-28.67-1.88c.44-1.53,1.6-4.42,2.41-6.74C1660.4,180,1659.69,181.73,1658.57,184.89Zm55.71-12.52a19.35,19.35,0,0,1-.89,2.14c-.43.83-.89,1.71-1.32,2.37A30.16,30.16,0,0,0,1714.28,172.37Zm-58.84-16.08c.1.64,0,2.1,0,3.88A38,38,0,0,1,1655.44,156.29Zm10.09-18.66c-.78-.36-2.77-1.49-4-2.15C1662.64,136,1664.08,136.83,1665.53,137.63Zm-9.45,30.16c0-.91,0-.85,0-1.63A6.47,6.47,0,0,1,1656.08,167.79Zm62,0a16.88,16.88,0,0,1-.42,1.83c-.15.61-.36,1.26-.63,2.09a4.91,4.91,0,0,1,.19-.65c0-.06-.07.13-.13.33C1717.15,171.05,1717.81,168.89,1718,167.81Zm-.14-17.16c0,.38-.09-.18.16,1.33.06,0-.16-1.45.11.29,0-.11-.11-.83-.18-1.32a4.25,4.25,0,0,1,.14.63,2.7,2.7,0,0,0-.12-.64c-.1-1.06.34,1.29.44,2.23s-.06.14-.08.05a6,6,0,0,1,.13,2c-.07-.85,0-.42,0-.36-.07-1-.15-1.15-.27-2.3,0,.87.27,2.92.34,4.9s0,3.88,0,4.41c0,.12-.18,1.6-.22,2.33a11.43,11.43,0,0,0,.28-2.36,8.85,8.85,0,0,1-.09,1.55c-.06.5-.12,1-.18,1.54l-.2,1.24s.16-1.1.09-1a4.79,4.79,0,0,0-.14,1.31,33.62,33.62,0,0,1-3.47,10.1,27.47,27.47,0,0,1-7.29,8.56c1-.79,0,.11-.77.64-.14.06.18-.18.52-.42-.24.14-.65.43-1,.69s-.65.48-.65.51c-.57.28-1,.62-2.12,1.15a19.23,19.23,0,0,1-1.84.82,21.29,21.29,0,0,0,3.59-1.85,24.72,24.72,0,0,1-5,2.29,5.82,5.82,0,0,1,.79-.32l1.12-.42a30.26,30.26,0,0,1-5.41,1.42,18.47,18.47,0,0,1-7.76-.49,18.58,18.58,0,0,0,3.22.64c.63,0,1.31.07,2,.09s1.34,0,2-.12a4.26,4.26,0,0,1-1.09.11,14.79,14.79,0,0,1-1.66,0,6.05,6.05,0,0,0,1.36.06l1-.05c.36,0,.75-.1,1.13-.16,1.55-.21,3.06-.7,3.67-.82a19.88,19.88,0,0,1-13.9-.39,31,31,0,0,1-10.75-7.5c-.51-.53-.31-.39-.66-.78a48.11,48.11,0,0,1-5-6.32c-.77-1.13-1.53-2.32-2.32-3.59l-1-1.64-.36-.6-.72,2c.15-.19-.39,1-.62,1.83s.2-.7.13-.61c-.94,2.64-1,3-2.19,6.13.54-1.54.92-2.47,1.22-3.37-1.3,3.56-3.17,8.73-4.34,12,.87-2.25,2-5.47.71-1.85l-.51,1.47c-.21.58-.44,1.24-.74,2.05s.1-.38-.28.53c-.66,1.84-1.28,3.58-1.88,5.24-.3.83-.59,1.64-.88,2.43-.15.4-.29.8-.43,1.19l-.22.59-.06-.59c-.34-3.23-.65-6.24-1-9.24,0,.1.24,2.51.3,2.76,0-.84-.16-2-.27-3.21,0-.44-.09-.88-.13-1.27s0-.57,0-.76c0-.44-.07-.25-.11-.29-.08-1.42-.08-.79-.19-2.27.06.28.13,1.18.18,1.26-.28-3.42-.46-7.49-.69-11.41a6.93,6.93,0,0,0,0,1c-.11-.75-.11-3.2-.22-4.89,0,1.73.28,7.12.38,9.84.15,3.07-.26-3.89-.29-4.89-.34-8.09-.36-16.29-.13-25.55,0,1.85-.11,6.51-.08,9.46.09-.72,0-4.21.11-4,0-1-.06-.91,0-2.27,0,.1,0,.56.06.63,0-1.38,0-1.76.06-3.27,0,.11,0,.82-.06,1.31a28.51,28.51,0,0,1,.11-3.27c.08-2.39.2-5,.36-7.63q.14-2,.27-4.11.23-2.82.45-5.72l9.78,5.37,8.71,4.71c-.17-.15-1.76-.95-2-1.13-.56-.32,1.91,1,2.29,1.24-.42-.34-3.53-2-4.86-2.7l-4.3-2.33c4.09,2.09,8.59,4.59,13.76,7.4-.17-.08-.67-.28.28.22-.78-.36-2.76-1.49-4-2.15l8.87,4.88c-.11-.12-1.52-.82-1.71-1l6.53,3.58,1.67.92c.53.28,1.07.59,1.48.78a1.84,1.84,0,0,0,.94.24.65.65,0,0,0,.41-.23,5.51,5.51,0,0,0,.86-1.54c.4-.85.82-1.75,1-2.26.74-1.75,1.8-4.76,2.29-5.45-.12.27-.29.69-.5,1.21.23-.42.75-1.74,1-2.11a33.54,33.54,0,0,1,1.67-4.24c.38-1.07.53-1.4.92-2.42a8.91,8.91,0,0,1-.29.91,20.67,20.67,0,0,0,1.13-2.72c.54-1.3.63-1.17,1.45-3.33a22.08,22.08,0,0,0,1.56-3.33c0,.27-.85,2.11-.92,2.43.63-1.45.5-.91,1.13-2.42a6.39,6.39,0,0,1-.36.91c-.22.65.53-1.12.62-1.21.57-1.55.61-1.54,1.07-2.72-1.15,3.36-3.64,9.71-5.4,14.23-.33.76-.73,1.71-.94,2.11-.22.58-.25.76-.56,1.52.06-.06.55-1.26.05,0,.25-.59,1-2.29,1-2.42.06.11-1.11,3.07-2,5.14-.89,2.33-1.64,4.52-3,7.59a4,4,0,0,1-.73,1.31,5.46,5.46,0,0,0,1.08-1.9c.25-.61.49-1.24.73-1.84.47-1.21.9-2.31,1.14-3-.17.69.51-1.17.92-2.12-.31.91-1,2.59-1.68,4.34-.36.87-.71,1.77-1,2.58a4.81,4.81,0,0,1-1.45,2.27,3.17,3.17,0,0,0,.66-.61c.1-.1.11-.1.06,0a2.05,2.05,0,0,1-.39.49,2.34,2.34,0,0,1-1.09.62,2.82,2.82,0,0,1-1.5,0,6.21,6.21,0,0,1-1.22-.51c-.69-.37-1.33-.73-1.79-1,0,0-.78-.35-1.73-.84a6,6,0,0,1,.87.42c-2.29-1.37-6.33-3.52-10-5.52.19,0,1.9,1,3.16,1.63-3.41-1.88-7.57-4.12-12-6.46l-12.09-6.47c-.09,1.32-.18,2.55-.26,3.74-.11,1.69-.25,3.4-.31,4.88-.06,1-.13,1.28-.18,2-.21,5.37-.29,8.12-.35,13,0,.37,0,.18,0,0,0,4.82.07,11.77.28,16.26-.34-6.35-.46-16.35-.17-24.38-.27,4.26-.26,10.38-.15,16.29,0,3.79.17,7.55.35,11.06.16,3.67.53,7.8.62,9.75.1,1.13.19,2.23.29,3.29,0,.4.08.8.11,1.19l.06.57c.06-.14.13-.35.2-.52l2-5.46c1.84-5.07,3.6-10,5.57-15.4-.27.64-1.11,3-1.79,4.9.1-.35.4-1.19.76-2.21l1.26-3.46,1.39-3.77c.46.76.62,1,0,0l0,.07c-.76,2.13-1,2.75-1.49,4.11.53-1.44,1-2.83,1.52-4.12,1,1.57,1.84,3,2.57,4.19.53.84,1,1.5,1.25,1.92,1.19,2,5.24,8.15,9.76,11.9a24.46,24.46,0,0,0,10.89,5.59,18.76,18.76,0,0,0,12.72-2.16c.42-.26-.26.12.24-.19.77-.43.31-.19,1.13-.62.41-.28.17-.19,1-.75a5.1,5.1,0,0,1-.5.38,22.75,22.75,0,0,0,3.39-2.77c1.11-1.11,2.06-2.25,2.61-2.91.12-.22.4-.64.77-1.17s.8-1.22,1.19-2a26.44,26.44,0,0,0,2-4.75,9.72,9.72,0,0,1-1,2.68,25.59,25.59,0,0,0,1.38-3.62,41.84,41.84,0,0,0,1.05-4.69,47.1,47.1,0,0,1-1.31,5.32c.28-1,.67-2.62,1-4.29a44.81,44.81,0,0,0,.63-4.84c-.12,1-.26,2.26-.48,3.54a41.3,41.3,0,0,0,.56-7.42,45.18,45.18,0,0,1-.26,6.42,42.4,42.4,0,0,0,.32-8.07,61.92,61.92,0,0,0-1-7.78c-.21-1-.17-.58-.41-1.56.27.8-.17-1-.31-1.63.09.13.38,1.53.55,2.21.15.24-.4-1.67-.42-1.93a22.52,22.52,0,0,1,.6,2.54,12.17,12.17,0,0,0-.29-1.67,27.82,27.82,0,0,0-.76-2.81c.38.63-.73-2.91-1.08-3.84.17.29.69,1.94,1,2.77-.09-.4-.36-1.2-.45-1.59a31.89,31.89,0,0,1,1.08,3c-.42-1.6-1.14-3.8-1.8-5.64,0,.22.56,1.56.37,1.29-.34-1.11-.86-2.51-1.28-3.64a12.52,12.52,0,0,1-.69-2c.14.34.08.15,0,0,1,2.37,1.8,4.66,2.77,7.38-.12-.6-.46-1.36-1-2.8.57,1.33-.1-.34,0-.37.69,1.77.7,2.1,1.08,3.11.06.06-.06-.32-.09-.32a41.65,41.65,0,0,1,1.75,5.43c.63,2.38,1.09,5,1.35,6.6,0-.68-.33-2-.36-2.64-.12,0-.15-1-.64-2.89C1717.32,148,1717.66,149.79,1717.9,150.65Zm-24.79-2a20.92,20.92,0,0,0,1-2.35C1693.78,147.15,1693.29,148.17,1693.11,148.67Zm-15.2-4.84c-1.29-.68-2.24-1.28-2.86-1.52C1676.06,142.87,1678,143.94,1677.91,143.83Zm-22.08-3.13c-.06.09.2-3.74.29-4.87-.15,1.14-.36,4.83-.39,6.5C1655.75,141.85,1655.87,141,1655.83,140.7Zm55.91,40.21-.07,0c-.47.62-1.48,1.7-.83,1.05C1711,181.69,1711.24,181.58,1711.74,180.91Zm-7.27,6.12a17.58,17.58,0,0,0,3.15-2.08A36,36,0,0,1,1704.47,187Zm8.39-7.78c.05-.07-2.24,2.79-1.9,2.39A20,20,0,0,0,1712.86,179.25Zm-27.5,8.65c-1.06-.37-2.61-1.41-3-1.52A11.8,11.8,0,0,0,1685.36,187.9Zm33.19-29.3c0-.26,0-.39,0-.35,0-1.5-.19-2.8-.23-4,0,.09.06,1.12.11,2.16S1718.56,158.51,1718.55,158.6Zm-28.34,30.86a22.49,22.49,0,0,1-3.6-1.05s-.61-.16.32.21c-.07-.08.85.26,1.75.51A7.85,7.85,0,0,0,1690.21,189.46Zm-10.33-4.88a16.81,16.81,0,0,0,2.2,1.62C1682.14,186.16,1680.32,185,1679.88,184.58Zm8.58-36.81a29.36,29.36,0,0,0,2.82,1.48c-.32-.13-1.21-.64-1.91-1S1688.15,147.58,1688.46,147.77Zm10.21-12.34c-.35.93-1.07,2.61-1.18,3C1698.08,136.93,1698.42,136.32,1698.67,135.43Zm-.22.92c-.42,1,.49-1.24.29-.91-.62,1.67-1.21,3-1.66,4.23C1697.53,138.54,1698.15,137.26,1698.45,136.35Zm-13,49.78a16.86,16.86,0,0,0,2.93,1.15C1687.51,187,1685.9,186.28,1685.5,186.13Zm-3-39.95c.51.28,1.44.75,1.14.66a35.73,35.73,0,0,0,3.74,1.93C1686.83,148.55,1684.21,147,1682.52,146.18Zm13.36-.73c-1.4,3.5-.81,2.32,0,0Zm-40.4,1.78a15.75,15.75,0,0,0,0-1.94c0,.91-.11,2.25-.07,2.28C1655.44,147.31,1655.46,147.18,1655.48,147.23Zm37.61,3.75c-.56.19-.3.08,0,0a2.44,2.44,0,0,1-1.22.17,3.89,3.89,0,0,1-1.14-.32,9.18,9.18,0,0,1-1.32-.71c1,.52.32.15,1.54.75-.14-.09-3.12-1.74-3.54-1.88.59.34,1.89,1,2,1.11-1.2-.64.16.16-.87-.37.66.35,1.41.82,2.3,1.21a3.23,3.23,0,0,0,1.38.29A2.17,2.17,0,0,0,1693.09,151Zm-22.46,20.45c.19.16,1.72,2.5,1.85,2.63C1672.86,174.77,1671.07,172,1670.63,171.43Zm-16.46,9.14c-.11-.37-.08-1.34-.19-2.27,0,0,0-.09,0-.34C1654.06,178.31,1654.11,179.35,1654.17,180.57Zm64.5-24.72a1.26,1.26,0,0,1,0,.33c0,.44.06.95.1,1.51s0,1.17,0,1.82c-.07-.11,0-1.89-.06-1,0,0,0-1.13,0-1.34a3.51,3.51,0,0,0-.08-.65c0,.05.12,1.54,0,.69,0,1.09.09.22.08,1.31-.07-.18-.09-1.57-.19-3C1718.61,156,1718.66,156.34,1718.67,155.85ZM1659.91,187a9.83,9.83,0,0,1,.76-2.45c.28-.65-.88,2.46-.68,2.14,2.1-5.93,2.83-7.82,4.89-13.48a23.66,23.66,0,0,1-.84,2.45,4.78,4.78,0,0,1,.2-.61Zm51.84-55c1,2.35,1.77,4.43.47,1.25-.37-.86-.59-1.49-1.16-2.73,0-.07.07.1.15.29,0,0,0-.14-.11-.32.5,1,1.07,2.49,1.68,3.92C1712.5,133.87,1712.2,132.93,1711.75,132Zm-48.47,1.9c.84.41-1.44-.67-2-1.06C1661.79,133.05,1662.14,133.28,1663.28,133.87Zm36.8-2.07a5.28,5.28,0,0,0,.22-.6c.32-.84.2-.28.45-.91A8.74,8.74,0,0,1,1700.08,131.8Zm16,16.69a26.82,26.82,0,0,1,.49,2.89C1716.42,150.53,1716.36,149.58,1716.12,148.49Zm-3.75,28.15c.2-.34.12-.28,0,0a27.15,27.15,0,0,0,2.32-4.85c-.09.57-1.51,3.49-1.29,3.21C1713.06,175.67,1711.56,177.88,1712.37,176.64Z"/><path class="cls-2" d="M1690.78,91.36a13.67,13.67,0,0,0-8.9,12.64,15.12,15.12,0,0,0,8.29,13.29,16.52,16.52,0,0,0,15.68-.86c3.3-2,6-5.48,6.07-9.38a12.6,12.6,0,0,0-2.93-7.58c-4.26-5.59-12-8.92-18.45-6.22"/><path class="cls-2" d="M1687.63,104c0-.16.07-.42-.08-.57C1687.42,103.92,1687.65,104.82,1687.63,104Zm.2-2.21c-.17-.11-.12-.29,0-.47C1688,101.42,1687.84,101.62,1687.83,101.8Zm-.34,2.8a2.21,2.21,0,0,1,.17,1c-.1-.09-.26-.12-.33-.25C1687.73,105.43,1687.26,104.72,1687.49,104.6Zm.38-3.51c-.17-.08,0-.25-.15-.34s.06.15-.1.25a.55.55,0,0,1-.07-.53c.07.11.15.12.19,0C1688.05,100.63,1687.92,100.86,1687.87,101.09Zm-.22,5.44c.25.15.36.7.39,1C1687.66,107.33,1687.83,106.82,1687.65,106.53Zm-.53-2.27c.11.06.27.62,0,.63C1687,104.61,1687.17,104.5,1687.12,104.26Zm-.26.07c-.44.06-.09-1-.13-1.54C1687.11,103.33,1686.61,103.8,1686.86,104.33Zm2.26,5.38.26.31c-.2.26-.26-.13-.4-.2Zm.31.63c.15,0,.73.42.52.64C1689.67,110.68,1689.64,110.59,1689.43,110.34Zm6.14,3.35c-.27.28-1,.06-1.41-.07A7.16,7.16,0,0,1,1695.57,113.69Zm6.61-1c.12.5-.72.24-1.15.6C1701,113.13,1701.88,112.93,1702.18,112.71Zm1.25-.75c.11.54-.6.5-.79.7C1702.52,112.28,1703.25,112.22,1703.43,112ZM1687,99.41a.69.69,0,0,1,.35-.68,1.18,1.18,0,0,0,.47-.66C1688,98.45,1687.23,98.86,1687,99.41ZM1698.66,114a1.09,1.09,0,0,1-.79.27C1698,114.08,1698.34,114.08,1698.66,114Zm-6.75-19.31c-.29,0-.34.19-.69.2C1691.24,94.8,1691.84,94.42,1691.91,94.73Zm.4-1.56a5.4,5.4,0,0,1-1.57.55C1690.86,93.29,1691.84,93.24,1692.31,93.17Zm-11.48,5.22c-.15,0-.13-.2-.29-.23.48-.32.85-1,1.34-1.48C1681.84,97.3,1681.32,97.52,1680.83,98.39Zm2.59-5.23a2.52,2.52,0,0,1-.76,1C1682.62,93.71,1683.07,93.38,1683.42,93.16Zm-4.71,11.44c.39.49,0,1.77,0,0ZM1692.38,91c-.05.2-.75.29-.89.23C1691.59,90.93,1692,91.2,1692.38,91Zm-11.65,21.28c-.36-.15-.35-.48-.58-1A1.92,1.92,0,0,1,1680.73,112.26ZM1696,90.43c-.19.18-.88,0-1.27.12a3.84,3.84,0,0,1,2.1-.35c-.22.29-.65,0-1.18.13C1695.71,90.44,1695.91,90.42,1696,90.43Zm-11.88,26.3c-.86-.31-1.33-1.07-2.16-2A16.65,16.65,0,0,1,1684.16,116.73Zm17.72,4.41c-.48.56-1.69.39-2.57.6C1700,121.36,1700.7,121.52,1701.88,121.14ZM1678,104.78a20.09,20.09,0,0,1,.33,2.07A5.87,5.87,0,0,1,1678,104.78Zm36.86,5.74c.34.39-.13.92-.38,1.63A2.68,2.68,0,0,1,1714.88,110.52ZM1712,95.77c.37.12.83.92,1.2,1.33A4.23,4.23,0,0,1,1712,95.77Zm2.39,20.19c.18-.38.33-.24.49-.57C1715,115.61,1714.62,116.23,1714.37,116Zm-27.17-12.55c.18.26,0,.41.09.72-.09,0-.08-.07-.1-.12s-.08,0-.08.06S1687.05,103.6,1687.2,103.41Zm-.27-3.7c-.11,0-.22-.15-.28.2.22.11.35-.19.21.17.12,0,.13-.14.19-.23.06.06.12.13.1.21s.06-.11,0-.17c.37-.06.29.46.29.67s-.28-.1-.32-.14c-.06.28,0,.42-.4.3,0-.17.09-.06.18,0,.11-.2-.05-.29.11-.5-.31.07-.53.48-.63.9a1.51,1.51,0,0,0,0,1c.16.06-.35.28-.08.48.23,0,.34-.16.34-.42.2,0-.08.63,0,.87-.16,0,0-.22-.24-.23-.09.21.11.23.24.3a10.37,10.37,0,0,0,.52,4.31c.08-.3.19,0,.33.09-.12.08-.17,0-.22-.06-.17.19.18.38.34.31-.11.19,0,.28.06.51.27.73.25.42-.35-.3-.08.31.32.73.48,1-.34.08-.35-.08-.3-.33-.28.36,0,.8.31,1.23a7.86,7.86,0,0,1,1.07,1.34c-.07-.43-.57-.84-.88-1.31.32-.06.21.21.43.41.36-.5-.9-1-.45-1.53a9.74,9.74,0,0,0,3.68,4.32c.17,0,0,.19.11.25a7.79,7.79,0,0,1,2,.69,6.07,6.07,0,0,0,2.6.62c0-.33.25.06.46-.18.2.09-.18.2-.16.35.68-.07.73-.48,1.54-.17-.38.11-.62,0-.84.07a7.34,7.34,0,0,0,3-.41c-.6-.05-1.34.3-.49-.05a3,3,0,0,1,.79-.32c.18.14,0,.19.18.32a5.15,5.15,0,0,0,2.29-1.54c.08.17-.26.19-.23.34.33.16.48-.47.75-.35.07-.08-.07-.21-.13-.33.31-.09.09-.18.35-.35,0,.16-.13.26,0,.45a5.37,5.37,0,0,0,1.84-1.66c-.09-.06-.14.05-.2.1-.13-.34.54-.41.56-.83-.45,0-.92,1.11-1.59,1.24-.55.32.53-.61.65-.77,1.11-1.08,2.26-2.29,2.12-3.64.41.28,0,1,0,1.47.18,0,.2-.19.24-.34s0-.28.25-.22c0-.17-.25-.2-.12-.4.11,0,.12.11.25.14-.08-.24,0-.29,0-.54-.11,0-.07.13-.09.21-.14-.15-.14-.71.08-.54a10.14,10.14,0,0,0-.71-3.33,8.78,8.78,0,0,0-2.81-3.71c-.1.19.4.32.32.51.08.15-.45-.31-.5-.43-.08.19.07.4.27.59s.43.41.56.54a7.14,7.14,0,0,1,.8.89c-1-.61-1.75-1.61-2.91-2.48.09,0,.34-.14.09-.26.29,0,.66.43.95.62a9.81,9.81,0,0,0-.93-.87,11.82,11.82,0,0,1-1-.79c-.07.18.37.22.33.4a10.24,10.24,0,0,0-3-1.61c-.22.16-.63-.84-.9-1a3,3,0,0,0-.83-.12.54.54,0,0,1-.55-.56.38.38,0,0,0,.32.12c-.09-.23-.45-.25-.54-.5.26.36-1.24.47-1.18,0a2.19,2.19,0,0,1-.65.2.41.41,0,0,1,.23-.27c-.12-.22-.63-.51-.77-.13-.36,0-.4-.54-1-.28-.19-.52-.64-.61-1.18-.61,0-.22.64-.14.69-.36-.49-.08-.41-.43-.92-.39,0-.11.26-.19.29-.08.17-.19-.45-.2-.55-.4-.44.36-.49.21-.85.41a4.34,4.34,0,0,1,2-1.39,11,11,0,0,1,1.39-.38c.46-.07.92-.15,1.34-.18s.63.17.77.38c.21,0,.29-.19.56-.15,0-.12-.45-.19,0-.17-.2-.09-.84-.31-.89-.22,0-.19.32-.28.71-.31a5.31,5.31,0,0,1,1.25.13,5.14,5.14,0,0,1,2.89.32,6.11,6.11,0,0,0,.58-.27c-.43-.08-.93-.23-1.39-.33a2.6,2.6,0,0,0-1.21,0c.34-.33-.41-.27-.77-.4a3.06,3.06,0,0,1,1.72.14,8.44,8.44,0,0,0,1.82.47c-.89-.59,1.34-.63,1.86.19.07-.11.41-.11.82,0a.37.37,0,0,1-.41,0,31.07,31.07,0,0,0,3.47,2.47c-.26.23-.78-.26-1.23-.52,2.62,2,6.76,5,8.32,9.32.24.65.3,1.38.47,2,.09.42-.12.58-.16.88a9.34,9.34,0,0,1,.16,2.82,12.54,12.54,0,0,1-.55,2.62c0,.15.06.09.08,0a10.3,10.3,0,0,1-1.34,3.1,19.38,19.38,0,0,1-1.92,2.48,19.53,19.53,0,0,0,2.4-3.84,13.16,13.16,0,0,0,1.21-5.14c-.28.9-.43,1.95-.72,3a11.93,11.93,0,0,1-1.29,3.22,15.45,15.45,0,0,1-2.69,3.23c-1,.94-2.1,2-2.86,2.21a17.94,17.94,0,0,1-5.85,2.47,22.45,22.45,0,0,1-5.92.52,6,6,0,0,0,1.91.11,4.83,4.83,0,0,1-2.16.05c-.37,0-1.67-.31-.95-.27.56,0,.72.19,1.08.1a19,19,0,0,0-3.21-.48,10.16,10.16,0,0,0-2.22-.93,14.59,14.59,0,0,1-3.06-1.53,16.82,16.82,0,0,1-6.27-7.35c-.11-.16-.08.16-.21,0a1.85,1.85,0,0,1,0-.56c-.11-.16-.29,0-.35-.37.08,0,.12.11.17.19a12.28,12.28,0,0,0-.45-1.62,2.66,2.66,0,0,1-.12-1.49c-.53-.29-.4-2.23-.5-3.34.56,0,.19.53.23,1.07.36-1.26,0-1.55.42-3.22a3.67,3.67,0,0,0-.48,2c-.53-.84.1-2.52.46-3.47a5.3,5.3,0,0,0-.75,1.24c0-1,1.16-1.6,1.29-2.57,0,.79-.66,1.34-.54,2.3.84-1.79,1.54-3.73,3-4.86.23-.25-.1-.3.13-.55.07.38.45-.14.66-.24.1.13-.35.39-.47.6.24.26.35-.45.56-.41.1.29-.38.52-.52.68.21.1,1.1-.42,1.25-1,.39.56,1-.38,1.3-.53.09.21-.38.49-.49.74.17,0,.34-.21.51-.21.32.38-.28.68-.22,1,.43-.27.85-.75,1.31-1.07-.18-.09-.32.33-.51,0,.64-.31,1.46-.89,1.76-.52-.06.08,0,.09,0,.06-.42.52-1.23.62-1.55,1.38.33.07.25-.29.57-.54,0,.51.12,0,.32.18-.23.44-.54.27-.61.58.11.11.19,0,.12,0a2.73,2.73,0,0,1-.39,1.48,5.42,5.42,0,0,0-.33.84,1.74,1.74,0,0,0-.1.76c.23-.06,0-.52.41-.49-.39-.2.12-.2.17-.69C1686.94,99,1686.67,99.36,1686.93,99.71Zm12.25-3.28c-.21-.06-.32-.54-.57-.35C1698.83,96.14,1699,96.6,1699.18,96.43Zm7.77-2.88c.45.27.58.75,1,.64C1707.64,93.89,1707,93.39,1707,93.55Zm7.9,10.33c-.14.07-.43-1.47-.56-1.9a8,8,0,0,0,.63,2.58C1714.88,104.36,1715.11,103.94,1714.85,103.88Zm-28.11,2.35-.25.07c0,.18.22.43.24.23C1686.47,106.54,1686.9,106.37,1686.74,106.23Zm.38,2c0-.28.19-.49-.08-.83C1686.76,107.8,1687.15,107.8,1687.12,108.22Zm-.91-2.29c-.27,0-.09.81.08.65S1686.34,106,1686.21,105.93Zm3.18,6c.36,0,.39.56.74.27C1689.86,111.86,1689.54,111.67,1689.39,111.9Zm-3.33-10.61c0-.06.09-.07.19,0,.14-.29,0-.68.27-.84C1686.19,100.33,1686.09,101.26,1686.06,101.29Zm2.46,9.87c.19.2.38.41.59.6.16-.15.3-.11.19-.31C1689,111.77,1688.58,111,1688.52,111.16Zm2,1.61c.13-.36-.25-.32-.32-.55C1690,112.49,1690.51,112.56,1690.51,112.77Zm10.25-15.64c-.38,0-.58-.54-.79-.24C1700.19,96.92,1700.85,97.36,1700.76,97.13Zm-5-2.23c.25,0,.7.13.84-.06C1696.21,94.88,1696.05,94.56,1695.8,94.9Zm.26-.52c.28.13-.35,0-.26.26.48-.13.83.09,1.2,0C1696.69,94.58,1696.34,94.16,1696.06,94.38ZM1685,116.9c-.3-.21-.67-.79-.93-.76C1684.35,116.35,1684.73,116.94,1685,116.9ZM1705.12,93c-.17-.12-.54-.21-.32-.38-.49-.3-1.57-.82-1.47-.38.16-.1.44.07.75.28A2.11,2.11,0,0,0,1705.12,93Zm-5.54-2.09c1.28.35,1-.22,0,0Zm15.34,15.72c0-.36,0-.8-.24-.79.14.37-.07.93.07.94S1714.81,106.61,1714.92,106.62Zm-13-16.21c.13.07,0,.12-.06.16.32.19,1,.27,1.08.52-.39-.12-.23.16-.59-.14-.06.19.2.38.5.5a1.17,1.17,0,0,0,.77.15c-.2-.15-.74-.23-.71-.43.46.18,0-.29.46-.18A3.4,3.4,0,0,0,1701.92,90.41Zm-10.1,30.48c-.18.31-1.11-.25-1.21-.19C1690.46,120.23,1691.47,121.08,1691.82,120.89Zm12.58-8.9c-.14-.32.24-.17.26-.45.06.08.12.1.17.08C1704.86,111.78,1704.63,111.86,1704.4,112Zm-17.33-11c.09,0,0,.08,0,.06a1.73,1.73,0,0,1-.1.68c-.24-.09.06-.39-.12-.25-.21-.07,0-.23.07-.26a.23.23,0,0,0-.12-.19c-.16,0,0,.36-.21.08-.18.19.25.14.09.33-.28-.13-.17-.42-.06-.7C1686.77,100.94,1686.94,101.06,1687.07,101Zm13.23,12.37c.09.34-.09.54-.45.58-.19-.11.58-.15.4-.48a6.46,6.46,0,0,1-3.14.44c0-.34.39-.13.57-.21,0,.06-.09.11-.14.1A9.31,9.31,0,0,0,1700.3,113.38Zm-11.13-17.67c-.54.28-1.1.48-.4,0,.18-.14.42-.09.66-.31,0,0,0,.09,0,.12s.07,0,.11,0c-.07.33-.59.27-.83.58C1688.64,95.83,1689,96,1689.17,95.71Zm16.56,6.52c-.26-.09.55.08.41.39C1706,102.58,1706,102.43,1705.73,102.23Zm-10.91-7.12c-.09,0-.14,0-.15.1-.22.05-.11-.33-.28-.33C1694.38,94.75,1694.88,94.84,1694.82,95.11Zm-12.26,1.41c.1.45-.5.37-.63.83C1681.83,97,1682.41,96.88,1682.56,96.52Zm-3.72,10.1c0-.15-.2-.09-.17,0a11.81,11.81,0,0,1-.14-2.16c.15.11.12.49.13.82s.08.62.33.52C1679,106.12,1678.76,107.23,1678.84,106.62Z"/></g></g></svg>