<svg xmlns="http://www.w3.org/2000/svg" viewBox="0 0 2701 1232.5"><defs><style>.cls-1{fill:#8dcee2;}.cls-2{fill:#003245;}</style></defs><g id="Layer_2" data-name="Layer 2"><g id="Layer_2-2" data-name="Layer 2"><rect class="cls-1" width="2701" height="267.05"/><rect class="cls-2" y="197.08" width="2701" height="1035.42"/><path class="cls-2" d="M733,99.1l18.66-22.93a111.86,111.86,0,0,1-30.9,11.42"/><path class="cls-2" d="M738,88.45a2,2,0,0,0-.41.59C738,88.6,738.6,87.69,738,88.45Zm-1.64,2.15c0,.1-.09.27-.23.44C736,91,736.22,90.76,736.34,90.6ZM738.49,88a4.54,4.54,0,0,1,.7-.89c-.05.12,0,.22-.12.35C739.06,87.12,738.65,87.94,738.49,88Zm-2.56,3.31c.06.07-.13.23-.07.3s0-.13.18-.22a.9.9,0,0,1-.21.47c0-.09,0-.1-.11,0C735.59,91.71,735.78,91.48,735.93,91.26Zm4-5a3,3,0,0,1,.71-.89C740.57,85.73,740.17,86,740,86.3Zm-1.59,2.09c0-.09.37-.66.48-.53C738.67,88.12,738.53,88.16,738.36,88.39Zm.15,0c.21.09-.67.9-1,1.39C737.69,89.25,738.24,88.93,738.51,88.41Zm3.88-5,.26-.33c.17,0-.12.25-.19.39Zm.51-.5c0-.12.43-.74.56-.65Zm4.76-5.83c0,.28-.5.78-.81,1.16A8.07,8.07,0,0,1,747.66,77.09Zm2.06,3c0-.27.71-.32,1.13-.65C750.88,79.48,750,79.84,749.72,80Zm-1.35.7c.08-.32.7-.4.92-.57C749.3,80.38,748.64,80.55,748.37,80.74ZM735.78,92.66c-.14.49-.71.66-.92,1.17C734.79,93.57,735.44,93.1,735.78,92.66Zm13.94-17.84a1.94,1.94,0,0,1-.41.67C749.31,75.32,749.53,75.06,749.72,74.82ZM731.64,98c.22-.18.23-.32.48-.53C732.12,97.54,731.75,98.1,731.64,98ZM722,87.56a3.93,3.93,0,0,1-1.18.28C721,87.61,721.67,87.64,722,87.56Zm16.9,6c.07,0,0,.12.09.16a5.66,5.66,0,0,0-.94.71C738.17,94.1,738.48,94,738.91,93.58Zm-2,2.86a1.46,1.46,0,0,1,.44-.56C737.36,96.1,737.12,96.29,736.93,96.44ZM741.69,91c0-.34.67-.72,0,0Zm-19.54-4.51c0,.1-.46.16-.55.13C721.68,86.43,721.93,86.57,722.15,86.45Zm22.42,1c0,.22-.17.29-.36.53A1.14,1.14,0,0,1,744.57,87.45Zm-20.26-1.63c-.08.12-.51.14-.73.23a3.75,3.75,0,0,1,1.17-.49c-.07.18-.37.12-.65.27C724.12,85.87,724.23,85.83,724.31,85.82Zm22.28-.94a5.31,5.31,0,0,1-1,1.42A6.24,6.24,0,0,1,746.59,84.88ZM750,75.47c.15-.27.59-.42,1-.61l6.76-3.21-4.89,5.46a3.15,3.15,0,0,0-.24.3,1.63,1.63,0,0,1,.19-.34L757,71.28l-6,3.64C750.73,75.08,750.39,75.2,750,75.47Zm-8,15.65c.06-.25.47-.62.66-.92C742.62,90.45,742.21,90.82,742,91.12Zm-1-11.74c.05-.25.39-.24.73-.42A1.09,1.09,0,0,1,741,79.38ZM733.4,81.7c.14-.15.62-.23.9-.37A2,2,0,0,1,733.4,81.7Zm9.5-4.23c-.16.12-.19,0-.34.11C742.58,77.47,742.85,77.3,742.9,77.47Zm-5.19,11.67c.11-.28.29-.39.5-.69,0,0,0,.08-.06.13s.05,0,.08,0C738.24,88.66,737.91,89,737.71,89.14Zm-1.79,3.27c.08,0,.07.11.25-.17-.09-.09-.29.16-.06-.14-.07,0-.14.12-.21.2a.17.17,0,0,1,0-.17c-.06,0-.08.1,0,.14-.26.08,0-.36.1-.54s.13.07.14.1c.14-.23.19-.36.37-.26-.11.15-.08.05-.12,0-.15.16-.09.24-.27.41a3.53,3.53,0,0,0,1.23-1.56c0-.07.33-.17.31-.39-.13,0-.27.09-.42.31-.13,0,.4-.53.54-.75.06.06-.12.21,0,.25.17-.16.09-.21.07-.3,1-1.23,1.78-2.26,2.93-3.57-.23.15-.07-.07,0-.25.07,0,0,.09,0,.16.16,0,.25-.32.19-.38.15-.05.21-.15.38-.34.52-.58.28-.38-.19.39.22-.13.49-.61.73-.87.07.18-.05.26-.23.36.56,0,1.15-1.38,1.89-2a6,6,0,0,0-1,1.12c0-.2.16-.24.32-.47-.37,0-.72,1-1.14,1,1.35-1.56,2.59-2.83,3.76-4.28.08-.14.13,0,.21-.11.68-1.26,1.71-2,2.92-3.57-.16-.07.17-.17.19-.39s0,.19.06.22c.34-.51.24-.69.84-1.14-.2.29-.4.41-.48.61.29-.31.62-.71.94-1.11l2.52,3-1.17.66c.52-.16,1.14-.61.43-.13a4.2,4.2,0,0,1-.67.42c-.16,0,0-.1-.16-.11a17.6,17.6,0,0,0-2.18,1.41c0-.08.27-.15.27-.24-.24,0-.52.36-.72.32s0,.13,0,.19c-.3.1-.13.12-.43.27,0-.1.21-.18.18-.29-.67.36-1.53.67-2.27,1.13,0,0,.14,0,.22,0-.09.22-.67.24-1,.51.42,0,1.42-.68,2-.8s-.76.43-1,.52c-1.64.74-3.4,1.26-5.26,2.11a9.69,9.69,0,0,1,1.88-.92c-.21-.09-.84.4-.87.19-.2.09-.13.21-.42.28,0-.06.08-.11.07-.17a2.09,2.09,0,0,1-.66.28s.18,0,.29-.07c-.15.15-.89.44-.69.24-2.05.88-4.89,1.47-7.48,2.49.08.09.42-.15.51-.08s-.44.19-.55.19c.18.15.89-.18,1.21-.29s.65-.25,1-.36a16.17,16.17,0,0,1-3.25,1.22s.11-.21-.11-.1c.15-.16.65-.24.94-.36-.69.15-1.49.45-2.17.57.07.09.37-.11.45,0-.87.27-2.42.6-2.93.81-.11.15-.83-.08-1.07,0-.43,0-1,.49-1.32.14a.66.66,0,0,0,.29,0c-.13-.08-.42,0-.54-.08.31.11-1,.54-1,.3a2.5,2.5,0,0,1-.54.23.35.35,0,0,1,.18-.18c-.13-.08-.56-.14-.65.08-.31,0-.35-.22-.82,0-.14-.24-.48-.28-.88-.25,0-.12.48-.1.53-.21-.36,0-.28-.21-.63-.17,0-.06.19-.1.2,0,.14-.1-.29-.09-.34-.19-.33.18-.35.1-.61.19a12.17,12.17,0,0,1,3.09-1.3c.19,0,.41,0,.53,0s.14-.14.32-.18c0,0-.31,0,0-.08a1.73,1.73,0,0,0-.57.06c0-.19.63-.39,1.11-.48a5.4,5.4,0,0,1,1.64-.65c.07-.1.14-.19.2-.29a6.27,6.27,0,0,0-1.43.6c.09-.24-.29,0-.51,0,.34-.32,1.5-.41,2-.7-.6,0,.42-.66.92-.55,0-.06.14-.19.35-.29,0,.06-.06.11-.18.14a7.62,7.62,0,0,0,2.39-.58c0,.18-.4.26-.69.37,1.93-.45,4.58-1.79,6.79-2.6.34-.12.72-.17,1-.3s.3,0,.45,0c1.07-.46,1.63-.63,2.61-1,.07,0,0-.06,0,0,.94-.45,2.34-1,3.22-1.39a44.34,44.34,0,0,1-4.8,2.13A13,13,0,0,0,742.74,79c.76-.32,1.51-.63,2.2-.94a13.94,13.94,0,0,1,1.9-.91c1.59-.83,2.88-1.5,4.18-2.21l6-3.26L752.73,77c-.52.64-1.05,1.3-1.6,2a6.55,6.55,0,0,0,.73-.86,4.19,4.19,0,0,1-.75,1c-.15.17-.67.75-.42.4s.31-.3.39-.5a6.71,6.71,0,0,0-1.18,1.5,19.56,19.56,0,0,0-2.18,2.62c-1.12,1.34-2.27,3-3.63,4.47-.06.09.1,0,0,.11a1.57,1.57,0,0,1-.29.14c-.05.1.08.13-.1.28,0,0,0-.09,0-.14-.43.33-.91,1.15-1.32,1.32,0,.31-.83,1-1.19,1.58-.23-.16.13-.3.32-.55-.62.45-.59.69-1.32,1.4a3.39,3.39,0,0,0,.89-.84c-.1.53-.89,1.15-1.31,1.59a5.17,5.17,0,0,0,.69-.46c-.29.48-1,.55-1.29,1.07.19-.43.65-.6.88-1.11-.94.74-1.7,1.73-2.65,2.36-.16.15,0,.18-.15.33,0-.22-.26.09-.39.15s.25-.24.34-.36c-.1-.16-.26.27-.37.25,0-.17.29-.32.39-.42-.09-.06-.68.27-.83.63-.15-.33-.64.32-.8.45,0-.11.26-.36.36-.52-.11,0-.22.17-.33.2-.15-.22.25-.48.26-.69a9.67,9.67,0,0,0-.93.9c.1,0,.24-.28.32-.12-.43.3-1,.88-1.14.74,0-.07,0-.06,0,0,.3-.48.83-.72,1.13-1.28-.2,0-.2.24-.43.47.06-.35-.08,0-.19,0,.21-.36.39-.3.48-.53,0-.06-.12,0-.08,0,0-.54,1-1.69,1.32-2.38-.17,0-.22.39-.43.39.18.14-.14.16-.32.56C735.67,93,736,92.68,735.92,92.41ZM728,87.62c-.2.06-.46-.09-.58.08C727.6,87.64,727.88,87.77,728,87.62Zm2.88-4.11c.29-.13.56-.06.65-.27C731.27,83.29,730.82,83.44,730.87,83.51ZM738,80.74c0,.08-.75.3-1,.35a2.76,2.76,0,0,0,1.33-.44C738.22,80.69,738,80.61,738,80.74ZM739.92,87l.1.08c.13-.11.26-.4.11-.28C740.19,86.91,740,86.81,739.92,87Zm1.37-1.46c-.2.17-.37.17-.59.54C741,86,741,85.75,741.29,85.52Zm-1.46,1.93c.09.09.58-.5.43-.48S739.85,87.32,739.83,87.45Zm4.18-5c0-.26.46-.43.34-.63C744.07,82.07,743.87,82.38,744,82.42Zm-6.93,8.73s-.08,0-.11,0c-.22.24-.28.55-.53.67C736.6,91.9,737,91.16,737.08,91.15Zm6.31-7.86.48-.62c-.08-.07,0-.19-.18,0C743.86,82.72,743.25,83.31,743.39,83.29Zm1.46-1.93c-.22,0-.29.27-.46.37C744.52,81.84,744.7,81.41,744.85,81.36Zm-15.4,5.87c-.29.15-.65,0-.67.25C729,87.41,729.63,87.26,729.45,87.23ZM724.8,88c.2-.08.61-.1.68-.23C725.14,87.9,725,87.78,724.8,88Zm.13-.3c.24,0-.28.09-.17.17.37-.16.7-.14,1-.3C725.46,87.64,725.11,87.53,724.93,87.7Zm21.75-3.28c-.11.18-.42.45-.4.58C746.39,84.82,746.7,84.56,746.68,84.42Zm-16.79-.32c-.12,0-.32.15-.3,0-.33.11-1,.32-.81.44C728.86,84.35,729.55,84.39,729.89,84.1Zm-3.47,1.14c.78-.22.45-.36,0,0Zm12.92-4.88c-.17.07-.39.14-.35.24.16-.11.47-.12.45-.19A.07.07,0,0,1,739.34,80.36Zm-11.88,4c.08,0,0,0,0,.09.22,0,.57-.23.69-.16-.22.09,0,.14-.32.14.06.19.76,0,.82-.2-.15,0-.43.19-.49.1.28-.09-.08-.12.15-.22A2.71,2.71,0,0,0,727.46,84.34Zm22.23-3.52c.09.14-.39.54-.37.61C749.05,81.44,749.68,81,749.69,80.82Zm-2.18,0c0,.19-.27.13-.41.31,0,0-.05-.06-.11,0S747.26,80.94,747.51,80.83Zm-11.13,10.5s0-.07,0,0a2.64,2.64,0,0,1,.41-.59c.08.1-.24.33-.07.22.09.08-.13.2-.17.23s-.05.12,0,.16.14-.31.16-.06c.18-.15-.08-.13.1-.28.09.13-.09.36-.29.59C736.52,91.4,736.48,91.28,736.38,91.33Zm15.15-12.21c-.08-.17.08-.32.39-.48.18,0-.5.28-.35.4.54-.34.93-.55,1.28-.74l-3.06-3.66-1.1,1.27c-.16-.07.2-.33.28-.49,0,0,0,.1-.05.13a10,10,0,0,0,.81-1l3.15,3.79C752.44,78.62,752,78.9,751.53,79.12ZM733.57,96c.4-.38.78-.69.28-.14a3.17,3.17,0,0,0-.47.45s0,0,0-.08,0,0-.08,0c.06-.25.42-.41.61-.69C733.94,95.7,733.67,95.75,733.57,96Zm2.07-10.31c-.17.15.26-.31.46-.22C736,85.53,735.89,85.52,735.64,85.65ZM724,88.3c-.09,0-.12,0-.13.08-.19.06-.11-.14-.26-.12S724,88.15,724,88.3Zm13.68,6.21c0-.26.32-.19.46-.45C738.12,94.3,737.81,94.31,737.67,94.51Zm4.76-4.41c0,.07,0,.11.07.05-.22.26-.49.6-.78.92,0-.18.59-.61.34-.72C742.17,90.23,742.71,89.89,742.43,90.1Z"/><path class="cls-2" d="M711.63,88.86a14.48,14.48,0,0,1-17.74-6.63,14.85,14.85,0,0,1,4.83-18.51,14.44,14.44,0,0,1,18.66,3.1,14.86,14.86,0,0,1-1.27,19.1"/><path class="cls-2" d="M695.62,88.74a4.65,4.65,0,0,0,.92.64C695.8,88.79,694.41,87.75,695.62,88.74Zm3.64,2.18a1.48,1.48,0,0,1,.75.21C700,91.24,699.55,91,699.26,90.92Zm-4.45-3a6.16,6.16,0,0,1-1.27-1.28A4.39,4.39,0,0,1,694,87c-.19-.06,0,.14.23.38S694.79,87.83,694.81,87.94Zm5.61,3.36c.05-.07.39.11.45,0s-.2,0-.41-.15a2.61,2.61,0,0,1,.76.12c-.13,0-.12.06.08.12C701.25,91.57,700.8,91.44,700.42,91.3Zm-7.85-6.06a5.43,5.43,0,0,1-1-1.54C692,84.05,692.16,84.78,692.57,85.24Zm2.85,3c-.12,0-.94-.7-.8-.78C695,87.78,695.08,88,695.42,88.25Zm0-.17c.07-.22,1.37,1.07,2.19,1.45A9.56,9.56,0,0,1,695.41,88.08Zm-5.18-8.34-.15-.66c.13-.14.16.42.24.63Zm-.14-1.11c-.07-.17-.31-1.3-.13-1.33C690,78,690,78.1,690.09,78.63Zm2-11.26a16.8,16.8,0,0,1-.82,2A9,9,0,0,1,692.09,67.37Zm7.71-7c0,.3-1.13.42-1.78,1a2.49,2.49,0,0,1,.67-.45Zm2.22-.76c-.28.3-1.17.41-1.56.59C700.52,59.94,701.54,59.7,702,59.57Zm.34,31.57c.73,0,1.37.47,2.19.41a1.59,1.59,0,0,1-.9,0C703.24,91.39,702.77,91.23,702.36,91.14Zm-7.3-27.48a4.87,4.87,0,0,1-.74,1A3.73,3.73,0,0,1,695.06,63.66ZM712.3,90.51c-.4.09-.55.22-1,.32C711.36,90.75,712.29,90.35,712.3,90.51Zm5.06-5.63c-.14.43-.75.85-1.07,1.23C716.33,85.76,717.09,85.26,717.36,84.88Zm-15.68,2.86c0-.08.13,0,.14-.13a5.79,5.79,0,0,0,1.24.72C702.62,88.32,702.34,88.07,701.68,87.74Zm4.16.67a1.64,1.64,0,0,1-.85-.07A1.59,1.59,0,0,1,705.84,88.41ZM698.06,85c-.37-.09-.81-.84,0,0Zm18.76-1.13c0,.11-.33.52-.42.57C716.39,84.22,716.69,84.12,716.82,83.84ZM695,80.73c.2.13.2.33.35.65A1.58,1.58,0,0,1,695,80.73Zm23.14.62c0,.17-.27.62-.37.89a9.48,9.48,0,0,1,.46-1.5c.08.18-.13.46-.24.83C718,81.58,718.07,81.44,718.12,81.35ZM694,77a17.14,17.14,0,0,1,.48,1.94A5,5,0,0,1,694,77ZM699,65.31c-.21.39-.92.77-1.33,1.26a1.87,1.87,0,0,1,.51-.59C698.36,65.79,698.62,65.57,699,65.31Zm-.74,19.33a4.45,4.45,0,0,1-1-.87C697.49,83.92,697.9,84.38,698.22,84.64Zm11.84-20.7c-.22.17-.53-.11-1-.16A1.32,1.32,0,0,1,710.06,63.94Zm6.55,6c-.2-.13-.37-.65-.59-.9A2.14,2.14,0,0,1,716.61,69.94Zm-9.51-5.56c.21,0,.19.08.37.08C707.4,64.55,707.05,64.55,707.1,64.38ZM696.63,89.23a8,8,0,0,1-1.09-.77s.13.06.21.1,0-.06-.07-.1A3.93,3.93,0,0,1,696.63,89.23Zm5.31,1.83c-.1-.07.09-.1-.38-.21,0,.11.41.26-.14.1,0,.06.25.11.4.17a.38.38,0,0,1-.23,0c0,.07.18.06.22,0,.28.25-.48.09-.79,0s0-.16.05-.17c-.41-.09-.6-.15-.56-.35.25.1.11.08.07.13.3.15.38,0,.72.2a14,14,0,0,0-2.76-1.18c-.07.05-.39-.36-.65-.37,0,.15.22.32.6.49,0,.07-.19,0-.47-.19l-.77-.49c0-.06.32.17.34.06-.27-.22-.32-.12-.43-.12a14.84,14.84,0,0,1-4.89-5.14c.14.41-.09,0-.28-.21,0-.08.12,0,.19.14,0-.21-.33-.56-.42-.53a2.9,2.9,0,0,0-.26-.75c-.46-1.13-.33-.67.36.56-.06-.39-.52-1.1-.68-1.63.19.08.23.29.29.59a4.89,4.89,0,0,0-.43-1.74,8.64,8.64,0,0,1-.5-2.4,7.69,7.69,0,0,0,.38,2.24c-.19-.15-.14-.42-.25-.83a1.75,1.75,0,0,0,.16,1.11,2.36,2.36,0,0,1,.26,1.19,17.47,17.47,0,0,1-.6-8.62c0-.24.1-.14.14-.31.16-2.14,1-3.81,2.55-6.41-.17,0,.21-.3.28-.58s-.06.25,0,.27c.52-.76.39-1,1.29-1.72a6.55,6.55,0,0,0-.76.91,19.47,19.47,0,0,1,3-2.93c-.73.38-1.51,1.23-.58.33a7,7,0,0,1,.94-.76c.21,0,0,.11.19.07a27.62,27.62,0,0,1,3.44-1.92c0,.1-.45.18-.49.27.34,0,.87-.4,1.16-.35.13,0,0-.13,0-.19.48-.07.25-.11.74-.23-.08.1-.37.17-.38.27a24.68,24.68,0,0,1,3.76-.53c0-.06-.2,0-.33,0,.25-.2,1.06,0,1.62,0a14.85,14.85,0,0,0-3.29,0c-.51,0-.19,0,.31-.09a13.24,13.24,0,0,1,1.33-.11,15,15,0,0,1,4.09.46A21.45,21.45,0,0,1,713.76,61c-.63-.12-2-.82-3-1,.19.23,1.35.36,1.19.55.31.12.33,0,.73.19-.05,0-.19,0-.24,0a3.82,3.82,0,0,1,1,.42c0-.07-.23-.16-.37-.22.29,0,1.35.58.95.5A13.58,13.58,0,0,1,718.3,65a18.83,18.83,0,0,1,3,5.36c.07-.1-.22-.61-.17-.74s.27.66.28.81c.15-.23-.31-1.3-.54-1.75s-.49-.92-.76-1.43A11.17,11.17,0,0,1,722,72c-.06-.05-.22-.2-.11.14a14.77,14.77,0,0,1-.41-1.43c.12.51.23,1.07.35,1.63A14,14,0,0,1,722,74c.11-.06-.07-.56,0-.65a22.17,22.17,0,0,1,0,4.43c.11.23-.47,1.07-.57,1.41-.16.57-.22,1.62-.68,1.75a1,1,0,0,0,.16-.39c-.14.12-.26.55-.43.63.31-.32-.26,1.5-.48,1.34a5.81,5.81,0,0,1-.27.77.47.47,0,0,1,0-.33c-.16.09-.55.52-.51.78-.27.35-.45.2-.77.84-.28,0-.64.24-1,.64,0-.13.41-.54.39-.68-.36.32-.39.09-.71.45,0-.06.12-.27.17-.23.06-.21-.33.19-.43.14-.24.42-.31.36-.53.65a37,37,0,0,0,1.9-3.83c.15-.18.28-.44.41-.52a2.07,2.07,0,0,1,.07-.45c-.06,0-.2.32-.08,0a3,3,0,0,0-.33.64c-.18-.1.14-.89.33-1.47,0-.34.07-.66.1-1a4.59,4.59,0,0,1,.19-1.14,3.2,3.2,0,0,0-.19-.37,6.11,6.11,0,0,1-.11,1,4.77,4.77,0,0,0,0,.87c-.14-.23-.16.3-.28.55-.06-.53.47-1.85.36-2.53-.22.68-.4-.74-.19-1.27-.06,0-.13-.22-.16-.49,0,0,.08.1.08.25a6.42,6.42,0,0,0-.14-2.91c.2,0,.23.51.29.87a9.63,9.63,0,0,0-1.27-3.94,12.79,12.79,0,0,0-2.8-3.34,11,11,0,0,0-.93-.81c-.21-.14-.21-.27-.33-.41a15.16,15.16,0,0,0-3-1.44c-.09,0-.05,0,0,0a15.41,15.41,0,0,0-4.15-.66,12,12,0,0,1,6.12,1.38,8.38,8.38,0,0,0-4-1.38,13,13,0,0,0-2.9-.17,10.94,10.94,0,0,0-1.43.21,5.12,5.12,0,0,1-1.08.19,11.71,11.71,0,0,0-4,2A11.44,11.44,0,0,0,696,68.57a1.87,1.87,0,0,0,.32-.45l.48-.64a13.63,13.63,0,0,1-.81,1.28c-.16.2-.62,1-.41.55s.31-.41.38-.66a5.47,5.47,0,0,0-1,2.06c-.46.49-.88,2.41-1,4A13.59,13.59,0,0,0,695,81.35c.06.12,0-.1.11,0l0,.36c.08.1.15,0,.25.24,0,0-.09-.07-.13-.12.19.62,1,1.44,1.09,1.93.17,0,.43.32.73.68a6.31,6.31,0,0,0,1,.94c-.17.24-.37-.17-.64-.43a2.54,2.54,0,0,0,.73.76l1,.79c-.14-.15-.29-.3-.47-.46a4.09,4.09,0,0,0-.64-.53c.61.15,1.43,1,2.08,1.39l-.7-.7a3.8,3.8,0,0,1,.76.64,2,2,0,0,0,.84.59c-.57-.1-.9-.58-1.55-.78a18.4,18.4,0,0,0,3.83,2.17c.27.09.19-.08.46,0-.25.07.25.23.41.3-.06.08-.42-.12-.62-.17-.11.15.47.15.52.25-.18.09-.54-.14-.71-.2a1.67,1.67,0,0,0,1.24.49c-.26.3.82.42,1.11.45-.1.09-.6,0-.86,0a4.52,4.52,0,0,0,.47.18c-.11.27-.73,0-1,.1a4.48,4.48,0,0,0,.84.21l.92.12c-.06-.1-.5,0-.39-.2.68.22,1.8.19,1.81.42-.11,0,0,0,0,0a5.17,5.17,0,0,1-1.18,0,5.09,5.09,0,0,0-1.25-.08c.18.16.44,0,.91.09-.45.14.11,0,.1.18-.59,0-.67-.15-1-.09,0,.07.09.09.1,0-.64.29-2.88-.16-3.91-.36.18.16.64.12.78.33.06-.2.3.1.94.13A11.47,11.47,0,0,0,701.94,91.06Zm19.87-13c0,.29-.32.56-.23.81C721.63,78.58,721.9,78.27,721.81,78.05ZM718.6,72.9c-.12-.36-.05-.68-.25-.81C718.4,72.39,718.53,73,718.6,72.9Zm-4.93-7.33c0-.08.77.57,1,.79a3.09,3.09,0,0,0-1.28-1C713.44,65.38,713.55,65.62,713.67,65.57ZM693.41,85.7l.1-.09c-.13-.22-.48-.55-.33-.29C693.33,85.31,693.2,85.52,693.41,85.7ZM691.88,83a2.83,2.83,0,0,0,.49,1.12C692.33,83.65,692,83.56,691.88,83Zm2.11,3c.06,0-.11-.26-.27-.47s-.32-.41-.31-.31A2.15,2.15,0,0,0,694,86.05Zm-3.52-9.14c-.15-.35,0-.94-.18-1.06C690.26,76.45,690.34,77,690.47,76.91Zm9.13,13.15c.07,0,.1.08.06.12.44.21.88.23,1.18.49C700.85,90.49,699.64,90.11,699.6,90.06Zm-8.91-11.57c-.05-.38-.12-.77-.16-1.16-.1,0-.15-.19-.16.13C690.55,77.38,690.62,78.67,690.69,78.49Zm-.24-3.61c-.19.17-.08.58-.16.86C690.46,75.75,690.36,75.07,690.45,74.88Zm31.54,1c.06.47-.14.93,0,1C722,76.63,722.08,75.63,722,75.86Zm-1.85,6.46a3.73,3.73,0,0,0,.32-1C720.31,81.84,720.1,82,720.14,82.32ZM720,82c.17-.28-.14.39,0,.32.16-.54.39-.92.47-1.34C720.35,81.29,720,81.63,720,82Zm-26.22-5.39c0,.26,0,.74.11.84C693.82,77.15,693.9,76.67,693.79,76.56Zm25.28-2.34c0,.15.08.43-.06.35,0,.22,0,.55.07.81s.06.42.15.31C719.09,75.53,719.28,74.71,719.07,74.22Zm-.14,4.53c.18-1-.11-.69,0,0Zm-6.62-14.17c.2.1.43.24.49.15-.23-.07-.49-.32-.53-.26S712.34,64.54,712.31,64.58Zm6.28,12.57c0-.1.06-.05.09,0a4.2,4.2,0,0,1,.11-.85c0,.29.12.11,0,.43.22,0,.19-.92.07-1,0,.18,0,.56,0,.6,0-.36-.14,0-.17-.26A7.36,7.36,0,0,0,718.59,77.15ZM694.73,71c.12.1-.21.77-.17.83C694.31,72,694.76,71.23,694.73,71Zm8.55-11.43c.1-.18.44-.06.74-.2,0,0,0,.08.12.07A2.88,2.88,0,0,1,703.28,59.59Zm-3,31.21s-.11,0-.1,0a4.38,4.38,0,0,1-1-.39c.08-.09.56.24.32.06.06-.1.34.12.4.16s.19,0,.23,0-.49-.12-.17-.16c-.3-.18-.12.1-.43-.08.12-.11.53.06.94.24C700.25,90.64,700.11,90.69,700.24,90.8Zm-3.22-29c.1.16-.13.4-.57.71-.25.08.71-.53.51-.61a19,19,0,0,0-3.5,3.43c-.18,0,.32-.52.47-.76,0,0-.06.14-.11.2A17.88,17.88,0,0,1,697,61.83Zm11.2,29.45c-.82,0-1.52-.1-.43-.09a4.35,4.35,0,0,0,.94,0s0,0-.09,0,0,0,.11,0a4.45,4.45,0,0,1-1.37.09C707.56,91.19,707.89,91.39,708.22,91.28ZM720,66.79c.24.22-.46-.33-.48-.6C719.65,66.32,719.69,66.46,720,66.79Zm-.27,16.68c-.07.1-.09.16-.07.2-.13.25-.19,0-.31.19C719.26,83.82,719.62,83.33,719.69,83.47Zm-16.33,5.2c-.31.09-.4-.22-.76-.3C702.87,88.32,703.05,88.63,703.36,88.67ZM697.12,84c.08.07.12,0,.06-.06.24.31.65.62,1,1-.2,0-.67-.73-.79-.49C697.23,84.35,696.94,83.66,697.12,84Z"/><path class="cls-2" d="M713,52.08l-1.34,3.78c-1.92-7.68-12.86-11.08-18.7-5.81-2,1.8-3.32,4.27-5.28,6.11s-5.09,3-7.3,1.42c-1.37-.94-2-2.67-3.37-3.67-2.94-2.2-7,.15-10,2.3s-7.47,4-9.91,1.24"/><path class="cls-2" d="M705,51.72a1.68,1.68,0,0,0,.54.29C705.12,51.65,704.19,51.35,705,51.72Zm1.9,1.3c.1,0,.22.1.35.24C707.13,53.35,707,53.14,706.87,53Zm-2.42-1.64c-.32-.12-.55-.22-.93-.38a1.25,1.25,0,0,1,.34,0c-.12.06,0,.11.19.16S704.43,51.3,704.45,51.38Zm2.94,2.06c.07,0,.18.13.26.08s-.12,0-.17-.18a.7.7,0,0,1,.4.23c-.09,0-.1,0,0,.1C707.72,53.77,707.55,53.58,707.39,53.44Zm-4.73-2.84a3.37,3.37,0,0,1-1-.21C702,50.27,702.32,50.57,702.66,50.6Zm2.2.78c-.09,0-.64-.18-.55-.31C704.57,51.16,704.62,51.29,704.86,51.38Zm0-.14c0-.1.27,0,.54.16a6.44,6.44,0,0,0,.83.54C705.68,51.88,705.41,51.34,704.86,51.24Zm-5.49-1.07-.36,0c-.08-.15.23-.09.36-.14Zm-.62,0c-.1,0-.68.26-.73.1A3,3,0,0,1,698.75,50.16Zm-5.43,3.24c0-.29.51-.78.83-1.1C693.93,52.67,693.7,52.88,693.32,53.4Zm-5.79,6c0-.28.94-.54,1.45-1.12C689,58.39,688,59.14,687.53,59.41Zm-2,1c.23-.34,1.08-.48,1.4-.72C686.93,59.88,686,60.17,685.55,60.36Zm23.07-6.59c.44.23.34.81.69,1.15C709,54.9,709,54.16,708.62,53.77ZM691.08,56a2.63,2.63,0,0,1,.49-.78A2.26,2.26,0,0,1,691.08,56Zm23.62-3.29c-.16.27-.13.42-.3.74C714.37,53.32,714.56,52.59,714.7,52.68Zm-56.63,5.83a1.9,1.9,0,0,1-.6-.35c-.19-.18-.35-.39-.51-.54a1.07,1.07,0,0,1,.52.39A5.84,5.84,0,0,0,658.07,58.51Zm52.06-7.66c0-.06.14,0,.18-.06a4.56,4.56,0,0,0,.32.61c.12.23.25.46.34.68C710.61,51.82,710.6,51.42,710.13,50.85Zm2.48,3.53a5.39,5.39,0,0,1-.35-.82A1.1,1.1,0,0,1,712.61,54.38Zm-5.88-6.77c-.41,0-1.08-.61,0,0ZM658.9,57.73c-.08.06-.43-.13-.45-.23C658.59,57.46,658.67,57.69,658.9,57.73ZM701.31,46c.23-.1.42,0,.8.05A2,2,0,0,1,701.31,46ZM661,57.86c-.11.12-.52.07-.74.08.22,0,.37-.1.54-.15s.35-.07.65-.13c-.09.17-.37.09-.66.18C660.77,57.89,660.89,57.86,661,57.86ZM697.2,46.27a5.2,5.2,0,0,1,2.13-.45,5.23,5.23,0,0,1-1,.22A5.64,5.64,0,0,0,697.2,46.27Zm-10,8.36c.08-.4.69-.78,1-1.27C688.05,53.8,687.68,54.06,687.21,54.63Zm19.58-7.38c-.32,0-.9-.44-1.34-.54A5,5,0,0,1,706.79,47.25Zm-26.55,7.64c.26,0,.35.34.59.58C680.75,55.49,680.36,55.22,680.24,54.89Zm-10.18-3.17a4.75,4.75,0,0,1,1.21-.55A5.2,5.2,0,0,1,670.06,51.72Zm12.05,3.68c-.07,0,0-.09-.08-.1S682.2,55.25,682.11,55.4Zm23.49-3.54c-.26,0-.35-.24-.67-.34,0,0,.09,0,.14,0s0-.05,0-.07C705.14,51.42,705.47,51.69,705.6,51.86Zm2.83,1.73c0-.08.12,0-.08-.27-.1.08.06.31-.14,0,0,0,.07.15.12.23a.17.17,0,0,1-.15,0c0,.05.07.09.11.07,0,.26-.31-.08-.46-.17s.09-.12.13-.12c-.2-.15-.31-.21-.18-.37.12.12,0,.08,0,.11.12.16.21.11.34.29a1.79,1.79,0,0,0-.56-.78,2,2,0,0,0-.74-.46c-.07.05-.16-.31-.36-.28,0,.12.07.25.28.39,0,.13-.47-.38-.7-.46.05-.07.2.08.24,0-.16-.14-.21,0-.29,0a11.38,11.38,0,0,0-3.87-1.67c.22.15,0,.09-.21.09,0-.08.06-.07.14-.06-.08-.15-.38,0-.4,0-.1-.09-.21-.09-.44-.14-.69-.14-.43,0,.4,0a3.19,3.19,0,0,0-1-.14c.1-.17.23-.13.4,0-.15-.26-.58-.23-1.07-.23s-1,.17-1.49.12a6.7,6.7,0,0,0,1.38-.05c-.12.14-.26,0-.52.08.18.25,1.15-.1,1.37.23a8.33,8.33,0,0,0-4.9.83c-.1.09-.12,0-.21,0-.25.18-.44.42-.67.59s-.48.34-.74.57a10.62,10.62,0,0,0-1.73,1.88c.16.06-.18.18-.21.42s0-.2,0-.23c-.37.56-.26.76-.93,1.31a7.91,7.91,0,0,0,.54-.71c-.6.69-1.48,1.84-2.14,2.54.54-.41,1.06-1.17.43-.34a3.82,3.82,0,0,1-.65.76c-.18,0,0-.11-.2-.06a15.94,15.94,0,0,1-2.77,2.21c0-.08.4-.21.41-.3-.31,0-.75.46-1,.43s0,.13,0,.2c-.45.1-.21.14-.68.28.07-.1.35-.18.34-.3a8.9,8.9,0,0,1-3.83.39s.21.07.35.1c-.31.13-1.16-.26-1.79-.43a3.94,3.94,0,0,0,1.64.54,15.13,15.13,0,0,0,1.91.08c.54,0,.2,0-.31.09a8.13,8.13,0,0,1-1.46,0,6.74,6.74,0,0,1-2.26-.74,7.13,7.13,0,0,1-1.78-1.47c-.9-1.06-1.42-2-2-2.5.34,0,.79.89,1.36,1.52,0-.27-.69-.82-.47-.89-.14-.18-.24-.08-.38-.33.06,0,.13.05.19,0a2,2,0,0,1-.41-.47c0,.06.07.14.12.21-.17-.1-.55-.46-.35-.42A2.91,2.91,0,0,0,673.8,55a7.28,7.28,0,0,0-3.54,1.32c.09.06.38-.23.48-.18s-.4.26-.49.3c.2.09.82-.35,1.11-.48a7,7,0,0,1,.91-.43c-.77.53-1.77,1-2.88,1.72,0-.06.05-.23-.14-.06.11-.2.58-.42.83-.6-.64.31-1.34.84-2,1.2.1,0,.33-.23.43-.2-.35.25-1,.71-1.63,1s-1.2.64-1.48.83c-.12.18-1,.14-1.3.2-.49.15-1.28.67-1.61.32a.89.89,0,0,0,.36-.06c-.16-.07-.53,0-.67,0,.4.12-1.29.51-1.27.24a2.19,2.19,0,0,1-.76.11.46.46,0,0,1,.28-.13,1,1,0,0,0-.86-.13c-.42-.11-.34-.32-1-.44,0-.27-.38-.53-.78-.83.11,0,.56.28.67.23-.33-.28-.14-.33-.47-.58,0,0,.23.08.21.12.18,0-.2-.27-.15-.39-.38-.13-.34-.2-.57-.39a8.46,8.46,0,0,0,1.56.49,4.85,4.85,0,0,0,1.74,0,1.81,1.81,0,0,1,.53.12c.14,0,.16-.13.35-.16,0-.05-.32,0,0-.08a2.11,2.11,0,0,0-.58,0c0-.19.66-.31,1.14-.43a11.89,11.89,0,0,1,1.61-.83,2.29,2.29,0,0,0,.16-.31,10.75,10.75,0,0,0-1.37.78c.08-.25-.28,0-.51,0,.32-.31,1.47-.53,1.9-.93-.58.15.29-.71.8-.75,0-.06.09-.21.26-.38,0,.07,0,.13-.13.2a3.32,3.32,0,0,0,1-.5l1.29-.92c.07.18-.38.41-.67.64,1-.62,2.18-1.48,3.62-2.24a8.35,8.35,0,0,1,5.1-1.1,3.54,3.54,0,0,1,.83.23,6.51,6.51,0,0,1,.75.3,1.32,1.32,0,0,1,.52.45A5.43,5.43,0,0,1,679,53.63c.38.44.66.87,1,1.34.06.06.06,0,0,0a9.61,9.61,0,0,0,1.08,1.22,2.38,2.38,0,0,0,1.06.54,2.43,2.43,0,0,1-1.59-.9c-.57-.62-1.15-1.62-2-2.51a16,16,0,0,0,2.4,3,2.76,2.76,0,0,0,1.66.66,9,9,0,0,0,1.81-.32,7.31,7.31,0,0,0,1.63-.91,9.73,9.73,0,0,0,1.3-1.2,35.14,35.14,0,0,0,2.4-3,7.94,7.94,0,0,0-.81,1,5.82,5.82,0,0,1,.84-1.18c.16-.19.78-.88.48-.47s-.35.36-.46.58a15.3,15.3,0,0,0,1.47-1.74,20.39,20.39,0,0,1,3.53-2.49,12.17,12.17,0,0,1,7.06-.92c.14,0-.07-.09.09-.08a1.86,1.86,0,0,1,.34.18c.14,0,.09-.13.36,0,0,0-.11,0-.18,0,.61.26,1.78.37,2.14.78a2.05,2.05,0,0,1,1,.26,14.13,14.13,0,0,0,1.26.66c-.12.25-.38-.1-.74-.27a4.44,4.44,0,0,0,.89.57,10,10,0,0,1,1.05.74,4.07,4.07,0,0,0-1.16-.93A4.6,4.6,0,0,1,709,49.62a4,4,0,0,0-.61-.81c.59.37.77,1.12,1.34,1.57-.47-.32-.73-.8-1.32-1.13a10.65,10.65,0,0,1,2.44,3.44c.12.23.21.05.3.3-.21-.13,0,.32,0,.48-.08,0-.14-.38-.23-.53-.18,0,.18.4.12.51-.18-.07-.2-.46-.29-.6A1.71,1.71,0,0,0,711.1,54c-.37,0,.06.77.06,1-.13,0-.16-.46-.3-.62,0,.11.07.28,0,.4-.23,0-.33-.47-.52-.58,0,.19.13.4.2.62l.15.67c.07-.07-.11-.35.07-.34,0,.28.08.63.11.9l.22,2.23,1.31-2.15c.15-.24.28-.41.39-.38s0,.06,0,0a3.43,3.43,0,0,1-.16.45l-1.35,3-.72-3.05a4.07,4.07,0,0,0-.34-1.22c-.1.18.09.29.16.62-.25-.24,0,.08-.14.12-.19-.35,0-.48-.18-.67-.08,0-.06.1,0,.08a3.11,3.11,0,0,1-.78-.93,5.61,5.61,0,0,0-.92-1c0,.17.3.29.24.49.18-.13.1.16.42.42C708.87,53.94,708.69,53.61,708.43,53.59Zm-43.34,5.78c-.23.11-.55,0-.68.22C664.64,59.5,665,59.55,665.09,59.37Zm2.2-5c.29-.24.61-.27.67-.5C667.69,54,667.21,54.29,667.29,54.34Zm9.45-2.48c0,.06-1.19-.43-1.57-.45l2.06.71C677.08,52.06,676.88,51.79,676.74,51.86Zm26.51-1.51,0-.13c-.13-.1-.44-.06-.28,0C703.1,50.12,703.09,50.34,703.25,50.35Zm-1.77-.55a2,2,0,0,0,.7.24C702,49.76,701.8,49.93,701.48,49.8Zm2.21.47c.06-.11-.62-.38-.56-.24S703.57,50.3,703.69,50.27Zm-6-.47c-.17.17-.57,0-.57.3C697.46,50,697.79,49.94,697.7,49.8Zm9.79,2.53a.08.08,0,0,1,0,.12c.18.23.47.32.54.56C708.12,52.88,707.49,52.37,707.49,52.33Zm-8.84-2.78a4.25,4.25,0,0,0-.71.14c0,.11-.08.17.11.16,0-.09.14-.16.31-.21S698.7,49.6,698.65,49.55Zm-2.09.64c.16.13.34-.07.51-.06C697,50,696.69,50.23,696.56,50.19Zm-29.83,8.33c-.31.25-.74.29-.73.48C666.2,58.87,666.94,58.49,666.73,58.52Zm-5.6,1.57a2.45,2.45,0,0,0,.9-.18C661.58,60,661.37,59.9,661.13,60.09Zm.23-.28c.3,0-.37.06-.25.15a6.68,6.68,0,0,0,1.24-.26C662,59.79,661.6,59.64,661.36,59.81ZM696.74,46.6c.25-.09.76-.12.85-.25C697.34,46.44,696.83,46.48,696.74,46.6Zm-30.36,8.71c-.11.07-.27.25-.29.1-.29.23-1,.63-.7.69C665.42,55.88,666.14,55.71,666.38,55.31Zm-3.29,2c.78-.33.42-.42,0,0Zm15.37-4.14c-.2-.18-.46-.41-.53-.33.27.15.49.51.54.47S678.41,53.18,678.46,53.15ZM664,56.23c.08,0,.07,0,0,.08.2-.08.51-.34.65-.31-.21.14,0,.15-.29.21.1.19.76-.25.77-.4-.14,0-.38.29-.46.22.26-.16-.11-.09.09-.26A3.57,3.57,0,0,0,664,56.23Zm27.58-6.78c-.07-.16.57-.6.6-.66C692.48,48.79,691.63,49.21,691.59,49.45Zm-7.28,10.94c-.09.19-.44.08-.74.21,0-.06,0-.08-.13-.08A4.76,4.76,0,0,1,684.31,60.39ZM707.54,53a0,0,0,0,1,0-.05,4.84,4.84,0,0,1-.48-.41c.11-.08.28.23.2.06.08-.08.16.15.18.18s.1.06.14,0-.25-.16,0-.16c-.11-.19-.13.07-.24-.12.13-.08.31.12.49.33C707.63,52.9,707.51,52.93,707.54,53Zm-17.78,4.64c-.12-.13,0-.37.34-.68.2-.09-.5.54-.31.59,1.16-1.36,1.51-1.75,2.45-2.91.17.06-.22.37-.32.56,0,0,0-.11.06-.15C691.52,55.57,690.69,56.79,689.76,57.67Zm23.69-2.14c-.27.56-.55,1-.23.26a3.62,3.62,0,0,0,.31-.65s0,0,0,.09.05,0,.07-.06c0,.29-.29.59-.38,1C713.16,56,713.41,55.79,713.45,55.53Zm-40.89,0c-.14.14.23-.3.4-.18C672.88,55.43,672.79,55.38,672.56,55.51ZM660,60.22c-.12,0-.18,0-.2,0-.28,0-.09-.17-.29-.21C659.49,60,660.07,60.1,660,60.22Zm51-7.7c-.28-.13-.14-.42-.38-.68C710.82,52,710.77,52.29,711,52.52ZM705.45,47c.1,0,.11-.05,0-.08a8.87,8.87,0,0,1,1.37.66c-.2.06-.93-.54-1-.26C705.72,47.2,705.08,46.77,705.45,47Z"/><path class="cls-2" d="M692.68,69c-.42-3-5-3.51-7.3-1.54s-3.21,5.14-4.73,7.8-4.55,5.09-7.36,3.94c-3.22-1.31-3.54-6.12-6.46-8-3.38-2.18-7.65.77-10.45,3.68s-6.56,6.23-10.28,4.74"/><path class="cls-2" d="M686.2,70.85a1.19,1.19,0,0,0,.26-.44C686.16,70.7,685.78,71.47,686.2,70.85Zm1.08-1.31c0-.09,0-.15.12-.19C687.46,69.46,687.33,69.48,687.28,69.54Zm-1.44,1.72a4.26,4.26,0,0,1-.45.82c0-.11,0-.2,0-.32C685.49,72,685.68,71.27,685.84,71.26Zm1.66-2c0-.1.1-.09.07-.18s0,.08-.13.06a.31.31,0,0,1,.18-.23c0,.07,0,.1.06.07C687.74,69.17,687.6,69.22,687.5,69.29Zm-2.65,3.59a3,3,0,0,1-.44,1C684.41,73.53,684.73,73.21,684.85,72.88Zm1-2c0,.07-.2.56-.33.46C685.63,71.12,685.75,71.08,685.86,70.89Zm-.14,0c-.21-.09.46-.76.68-1.09C686.32,70.21,685.88,70.41,685.72,70.87Zm-2.62,5.42c-.08.14-.14.28-.24.43-.17,0,.12-.32.16-.47Zm-.49.69c0,.16-.48.94-.62.85C682.3,77.41,682.38,77.34,682.61,77Zm-8.26,5c.39-.11,1.46-.11,2.16-.32A5,5,0,0,1,674.35,82Zm-6.72-5.61c.26,0,.31.69.7,1.15C668.23,77.6,667.81,76.71,667.63,76.42ZM667,75.21c.31,0,.39.59.55.79C667.29,76,667.13,75.41,667,75.21Zm20.91-6.86c.27-.27.64,0,1-.14C688.73,68.4,688.22,68.24,687.86,68.35ZM670.19,79.94a7.87,7.87,0,0,1,.93.65A2.32,2.32,0,0,1,670.19,79.94Zm20.73-10.67c0-.11,0-.16,0-.28S691.06,69.27,690.92,69.27ZM647.21,80.16c-.35.1-.85-.18-1.21-.3C646.27,79.75,646.84,80.13,647.21,80.16ZM685.73,66c-.05-.06,0-.13,0-.19.38,0,.92-.2,1.37-.21C686.75,65.79,686.4,65.7,685.73,66Zm4-.95a4,4,0,0,1-.86-.05C689.05,64.82,689.44,64.91,689.71,65Zm-7.42,3.65c0,.36-.62.88,0,0Zm-34.61,10.5c-.06.11-.41,0-.47-.06C647.32,79,647.46,79.22,647.68,79.16Zm32.44-6.36c0-.21.1-.31.22-.58A1.12,1.12,0,0,1,680.12,72.8Zm-30.59,6c-.07.15-.44.15-.63.22a4.71,4.71,0,0,1,1-.48c0,.18-.31.12-.54.28C649.37,78.86,649.46,78.81,649.53,78.79Zm29.21-3.43a6.49,6.49,0,0,1,.63-1.3A3.11,3.11,0,0,1,678.74,75.36Zm-6.57,1c.34.11.5.67.82.86C672.67,77.19,672.56,76.86,672.17,76.41Zm9.77-7.86a8.62,8.62,0,0,1-.58,1.11A5.19,5.19,0,0,1,681.94,68.55Zm-17.18.18c.2-.21.63,0,1.15.09A3,3,0,0,1,664.76,68.73ZM656,72c.08-.21.53-.52.79-.75A3,3,0,0,1,656,72Zm12.48-3c-.27-.15-.21-.2-.45-.32C668.18,68.64,668.64,68.89,668.49,69Zm17.83,1.29c-.05.22-.2.29-.33.54,0,0,0-.07,0-.11s0,0-.07,0S686.16,70.39,686.32,70.3Zm1.38-1.85c-.06,0,0-.13-.21,0,0,.12.23,0,0,.14,0,0,.12,0,.18,0s0,.09,0,.11.07,0,.07-.07c.17.11-.1.27-.17.36s-.07-.13-.07-.16-.17.15-.28,0c.09-.06.06,0,.08,0s.09-.13.24-.16c-.15-.08-.41,0-.6.16s-.16.16-.22.24a.6.6,0,0,0-.12.25c0,.06-.28.06-.25.26s.21,0,.34-.17-.31.35-.41.51c-.06,0,.08-.15,0-.2-.14.1-.06.17,0,.24a17.93,17.93,0,0,0-2,3.38c.19-.19.09.06,0,.24-.08,0,0-.08,0-.16-.15,0-.16.37-.09.42-.13.08-.16.19-.28.41-.38.7-.18.44.09-.42a6.53,6.53,0,0,0-.52,1c-.1-.17,0-.27.15-.41-.55.16-.78,1.63-1.6,2.57a2.53,2.53,0,0,0,.49-.64c.14-.26.29-.54.41-.79.07.19-.11.29-.24.57.39,0,.54-1.23,1-1.32-.25.48-.51.94-.79,1.4a13.17,13.17,0,0,1-1,1.38A14.71,14.71,0,0,1,679.43,80c-.14.14-.16,0-.27.1a5.42,5.42,0,0,1-2.39,1.29,7.12,7.12,0,0,1-3.68,0c0,.18-.33-.13-.63-.11-.25-.15.26,0,.25-.1-.82-.3-1.07-.19-1.8-1,.43.26.63.53.94.61a8.43,8.43,0,0,1-1.55-1.24,12.46,12.46,0,0,1-1.08-1.3c.27.57.93,1.25.24.47a3.22,3.22,0,0,1-.57-.74c0-.17.1,0,.1-.17a21,21,0,0,0-1.5-2.17c.09,0,.15.24.24.24,0-.23-.35-.46-.32-.65s-.12,0-.18,0c-.09-.26-.12-.1-.26-.35.1,0,.18.16.28.12a4.92,4.92,0,0,0-1.11-1.5s0,.07.06.12c-.19,0-.25-.36-.49-.36a1.33,1.33,0,0,0,.36.42,1.8,1.8,0,0,1,.43.65c.23.41-.41-.46-.49-.53a3,3,0,0,0-1-.84,2.08,2.08,0,0,0-1.52-.06c.22-.28.85-.18,1.17-.2-.06-.17-.49,0-.47-.19-.14,0-.11.16-.3.13,0-.06.07-.08.07-.14a2,2,0,0,1-.46.08c0,.05.13,0,.2,0-.1.09-.62.22-.48.07a13,13,0,0,0-2.7,1.15,10.93,10.93,0,0,0-2.79,2.33c.1,0,.26-.29.37-.26s-.27.32-.36.37c.23,0,.64-.49.86-.69a7.41,7.41,0,0,1,.7-.64,25.47,25.47,0,0,1-2.2,2.32c0-.06,0-.23-.15,0,.07-.21.48-.52.67-.77-.53.47-1.13,1.1-1.69,1.52.09,0,.28-.27.38-.24-.66.64-2,1.61-2.48,2-.07.18-.86.23-1.12.33s-1,.81-1.36.51a.78.78,0,0,0,.31-.1c-.15,0-.46.1-.61,0,.18,0,0,.2-.36.34s-.67.21-.68.1a2.48,2.48,0,0,1-.62.24.39.39,0,0,1,.21-.18c-.15-.08-.61-.13-.75,0-.37,0-.35-.22-.94-.16-.09-.26-.44-.36-.84-.51.07-.09.52.1.61,0-.36-.11-.21-.28-.56-.37,0-.05.22,0,.21,0,.16,0-.24-.19-.24-.3-.36.05-.34-.07-.6-.11a11.19,11.19,0,0,0,3-.52c.16,0,.36-.06.48,0s.12-.14.27-.2c0,0-.28,0,0-.08-.13,0-.49,0-.5.1,0-.18.51-.4.9-.58a6.81,6.81,0,0,1,1.26-1c0-.11.06-.22.08-.32-.35.32-.89.61-1.06.9,0-.24-.25,0-.44.09.21-.35,1.18-.67,1.49-1.1-.49.2.11-.72.58-.8,0-.05,0-.21.17-.38,0,.06,0,.12-.08.19a5.59,5.59,0,0,0,1.78-1.44c.1.15-.22.4-.42.61A10.42,10.42,0,0,0,655,74c.38-.42.86-1,1.33-1.43A14.47,14.47,0,0,1,659.62,70c.36-.2.79-.31,1.12-.49s.35,0,.53,0a6.91,6.91,0,0,1,3.39-.54c.11,0,.06,0,0,0a5.43,5.43,0,0,1,2.28.57,7.26,7.26,0,0,1,1.81,1.33,6.71,6.71,0,0,0-6.28-1.63c.58,0,1.24-.09,2-.06a5.85,5.85,0,0,1,2.35.53,6.38,6.38,0,0,1,2.28,1.87,7.29,7.29,0,0,1,1.29,2c.73,1.27,1.22,2.32,1.8,3.1a3.17,3.17,0,0,0,2,1.46c-.07-.08-.41-.15-.66-.29a.64.64,0,0,1,.32.09c.14,0,.3.11.45.13s.61.1.34.12-.26-.09-.4,0a1.44,1.44,0,0,0,1.23-.06c.41.14,1.5-.52,2.28-1.29a7.37,7.37,0,0,0,1.47-1.81c.42-.71.84-1.58,1.3-2.44,0-.11-.09,0,0-.1a1.21,1.21,0,0,1,.24-.2c0-.11-.11-.11,0-.29,0,0,0,.09,0,.15.33-.42.62-1.35,1-1.61-.1-.3.65-1.22,1-1.84.25.14-.12.33-.29.62.6-.56.53-.82,1.35-1.59a2.92,2.92,0,0,0-.94,1c.07-.59.95-1.31,1.5-1.73a3.39,3.39,0,0,0-.81.47c.39-.53,1.1-.55,1.66-1-.39.43-.92.55-1.23,1.1.27-.2.54-.38.81-.57a6.54,6.54,0,0,1,.93-.51,3.81,3.81,0,0,1,1.89-.36c.24,0,.12-.15.36-.16-.18.15.27.12.41.18,0,.08-.37,0-.53,0s.4,0,.47.07c-.12.13-.45,0-.6,0a1.55,1.55,0,0,0,1,.14c-.14.32.63.3.82.39-.08.1-.42,0-.6,0,.08.06.25.07.32.15s-.48.09-.63.21c.32.09.75.11,1.08.24,0-.1-.29-.06-.21-.21.42.19,1,.46.89.68-.06,0,0,0,0,0-.39-.08-.73-.45-1.26-.36.09.16.25,0,.5.1-.26.11.05,0,0,.18-.31,0-.35-.15-.53-.11,0,.08,0,.1.05,0a2.3,2.3,0,0,1-.91.3,2,2,0,0,0-.94.45c.12,0,.26-.18.39,0-.06-.21.14,0,.4-.19C688,68.2,687.75,68.21,687.7,68.45ZM653.49,79.74c-.18.13-.49.08-.57.28C653.11,79.9,653.43,79.92,653.49,79.74Zm1-4.92c.19-.23.46-.29.44-.51C654.71,74.47,654.39,74.79,654.46,74.82Zm6.24-5.18c.06.07-.84.4-1.08.52a5.31,5.31,0,0,0,1.48-.65C661,69.56,660.72,69.5,660.7,69.64Zm24,2.61-.12,0c-.1.12-.15.41,0,.27C684.47,72.36,684.7,72.42,684.72,72.25Zm-1,1.65c.14-.21.32-.25.43-.65C683.9,73.41,684,73.61,683.77,73.9Zm.92-2.09c-.11-.08-.43.55-.3.51A1.09,1.09,0,0,0,684.69,71.81Zm-3.29,5.92c0,.31-.53.51-.42.73C681.32,78.14,681.55,77.77,681.4,77.73Zm5.33-8.92s.06,0,.08,0,.24-.29.42-.26C687.13,68.44,686.73,68.81,686.73,68.81Zm-4.66,7.87c-.16.27-.33.51-.5.77.08.06,0,.2.19,0C681.58,77.4,682.23,76.63,682.07,76.68Zm-1.71,2.26c.22,0,.37-.29.57-.41C680.81,78.41,680.53,78.89,680.36,78.94Zm-25.57-.16c-.21.27-.62.32-.56.51C654.38,79.16,655,78.74,654.79,78.78ZM650.14,81c.23-.11.7-.18.75-.33C650.53,80.82,650.3,80.7,650.14,81Zm.14-.33c.26,0-.3.13-.18.2a5.52,5.52,0,0,0,1-.45C650.85,80.5,650.47,80.44,650.28,80.62Zm28.43-4.84c.09-.16.36-.39.31-.52C679,75.44,678.67,75.65,678.71,75.78Zm-24.82,0c-.1.07-.22.26-.26.12-.24.23-.77.67-.53.7C653.09,76.38,653.72,76.16,653.89,75.76ZM651.27,78c.63-.4.29-.45,0,0Zm11.05-8.73c-.21.07-.48.13-.45.23.21-.11.57-.1.55-.17S662.32,69.27,662.32,69.22Zm-10.44,7.62c.07,0,.06,0,0,.07.18-.09.4-.38.53-.36-.16.15,0,.14-.22.23.13.16.65-.3.63-.46-.12.07-.29.32-.38.26.21-.17-.12-.08,0-.25C652.29,76.48,651.9,76.74,651.88,76.84ZM675.68,78c0-.16.43-.2.44-.27C676.32,77.84,675.74,77.83,675.68,78Zm-8.82-3.48c-.17,0-.12-.2-.29-.26,0,0,.06-.06,0-.1S666.76,74.29,666.86,74.49ZM687.23,69s0,0,0,0a1,1,0,0,1-.25.24c-.07-.11.14-.13,0-.13s.08-.09.1-.09a.1.1,0,0,0,0-.11c-.05-.07-.11.16-.11,0-.13,0,.06.13-.07.16-.07-.13.06-.23.22-.3C687.13,68.88,687.15,69,687.23,69Zm-18.54,9.31c.16-.09.33.08.58.44,0,.2-.42-.57-.5-.39A17.34,17.34,0,0,0,670.1,80,6.72,6.72,0,0,0,672,81.32c0,.19-.59-.21-.82-.35,0,0,.15,0,.21.09l-.69-.51c-.23-.21-.5-.44-.76-.69A9.5,9.5,0,0,1,668.69,78.31ZM690.4,68.22c-.24-.21-.54-.4-.1-.19.1.08.16.17.29.26s0,0-.06,0,0,0,0,.06c-.15,0-.24-.22-.45-.27C690.23,68,690.26,68.22,690.4,68.22Zm-30.87,6.64c-.09.17.11-.34.31-.31C659.79,74.67,659.7,74.68,659.53,74.86Zm-10.34,6.42c-.09,0-.15,0-.16.08-.23,0-.11-.16-.29-.15C648.74,81.16,649.24,81.15,649.19,81.28Zm38.28-15.55c-.2.19-.41,0-.71.11C686.93,65.66,687.22,65.79,687.47,65.73Zm-5.83,4c0-.08,0-.1-.08,0a10.31,10.31,0,0,1,.7-1.12c0,.19-.55.76-.29.81C681.88,69.51,681.39,70,681.64,69.7Z"/><path class="cls-2" d="M692.81,84.83c-.85-2.51-4.46-3-6.65-1.51s-3.28,4.08-4.27,6.55-2.09,5.07-4.29,6.51c-3,1.94-7,1.09-10.13-.56s-5.94-4-9.3-5.16-7.71-.6-9.51,2.48"/><path class="cls-2" d="M686.72,86.7c.07-.1.22-.24.23-.35C686.68,86.56,686.34,87.19,686.72,86.7Zm1-1.07c0-.08,0-.13.1-.17C687.89,85.57,687.79,85.59,687.73,85.63ZM686.39,87a3,3,0,0,1-.4.66c0-.09,0-.17,0-.28C686.08,87.62,686.24,87,686.39,87Zm1.54-1.6c0-.08.08-.08.05-.17s0,.08-.1.05a.23.23,0,0,1,.15-.21c0,.07,0,.1.06.08C688.14,85.32,688,85.35,687.93,85.41Zm-2.42,2.9a1.86,1.86,0,0,1-.36.8C685.13,88.83,685.42,88.58,685.51,88.31Zm.89-1.62c0,.06-.18.46-.3.37C686.19,86.85,686.31,86.85,686.4,86.69Zm-.13,0c-.2-.11.42-.61.62-.88C686.81,86.14,686.41,86.27,686.27,86.65Zm-2,4.49-.14.36c-.18,0,0-.26,0-.39Zm-.32.58c0,.12-.19.79-.35.73C683.73,92.09,683.76,92,683.9,91.72Zm-4.56,6.54a13.5,13.5,0,0,1,1.2-1.19A5.18,5.18,0,0,1,679.34,98.26Zm-7.55,1.61c.13-.22.81.15,1.4.07A4.81,4.81,0,0,1,671.79,99.87Zm-1.57-.28c.28-.19.83.13,1.12.13C671.22,99.9,670.56,99.62,670.22,99.59Zm18-15.08c.23-.26.56,0,.84-.11C689,84.6,688.55,84.42,688.24,84.51Zm-12.33,15.1a3.72,3.72,0,0,1,.86-.34A1.84,1.84,0,0,1,675.91,99.61ZM691.13,85.4c0-.11-.07-.13-.09-.26S691.27,85.37,691.13,85.4Zm-41.66,7c-.09.27-.43.56-.59.83C648.81,93,649.26,92.64,649.47,92.44ZM686.3,82c0-.07,0-.13,0-.19.35,0,.85-.15,1.26-.13C687.23,81.91,686.92,81.8,686.3,82Zm3.65-.8a2.61,2.61,0,0,1-.79-.06A1,1,0,0,1,690,81.22Zm-7,3c0,.35-.63.79,0,0Zm-34,7.22c0,.1-.29.41-.38.44C648.54,91.73,648.81,91.67,648.94,91.45Zm31.94-3.35c-.06-.2.07-.3.18-.56A1,1,0,0,1,680.88,88.1ZM650.75,90c-.07.13-.47.27-.66.43a2.54,2.54,0,0,1,1.06-.77c0,.19-.36.19-.61.39C650.57,90.13,650.67,90.07,650.75,90Zm29.08.74a4.85,4.85,0,0,1,.41-1.41A3.79,3.79,0,0,1,679.83,90.78Zm-5.73,5.27c.23-.23.74-.08,1.1-.24C674.94,96,674.63,96,674.1,96.05Zm8.55-12a11,11,0,0,1-.6,1A4,4,0,0,1,682.65,84.1Zm-15.8,9.35c.21-.12.37.14.67.27A.83.83,0,0,1,666.85,93.45Zm-6.12-4.27c.22,0,.62.27.91.38A2.33,2.33,0,0,1,660.73,89.18Zm8.38,4.37c-.15,0-.1-.11-.22-.15C669,93.33,669.21,93.4,669.11,93.55Zm17.71-7.32c-.05.18-.17.24-.3.43,0,0,0-.06,0-.09s0,0-.06,0S686.67,86.27,686.82,86.23Zm1.27-1.63c-.05,0,0-.13-.17,0,0,.12.19.07,0,.14,0,0,.1,0,.16,0a.14.14,0,0,1,0,.11s.06,0,.05-.07c.15.11-.07.27-.14.34s-.07-.14-.07-.17-.14.15-.24,0c.08,0,.05,0,.07.06s.07-.14.21-.14c-.28-.19-.85.32-.89.54s-.26,0-.23.21a.25.25,0,0,0,.31-.1c.1,0-.28.28-.37.41-.06-.06.08-.12,0-.18s0,.14,0,.21a11.46,11.46,0,0,0-1.79,2.76c.17-.16.09,0,.06.21-.08,0-.06-.07,0-.14-.14,0-.13.31-.05.35-.12.06-.15.16-.24.34-.28.58-.13.37.05-.35-.17.14-.26.58-.39.86-.13-.14,0-.23.09-.35-.51.12-.58,1.41-1.09,2.21a5,5,0,0,0,.57-1.24c.1.16-.06.25-.14.5.36-.06.32-1.06.71-1.13A47,47,0,0,1,682,94.7c-.07.16-.13,0-.19.15a5.4,5.4,0,0,1-1.3,1.83,13,13,0,0,1-2.32,1.74c.12.11-.26.13-.4.31s.12-.16.06-.22c-.61.34-.63.57-1.49.66a6,6,0,0,0,.84-.31,12.6,12.6,0,0,1-3,.66c.59.07,1.4-.16.48,0a3.1,3.1,0,0,1-.86.11c-.14-.09.06-.09-.08-.18-1.08.1-1.9,0-2.72,0,0-.08.32,0,.38,0-.18-.18-.65,0-.79-.2-.1,0-.08.1-.11.16-.3-.13-.18,0-.51-.08.08,0,.28,0,.32-.1-.75-.17-1.57-.54-2.4-.77,0,0,.11.08.18.12-.22.09-.62-.33-1-.38a13.88,13.88,0,0,0,2,1c.63.28-.85-.22-1-.33a42.48,42.48,0,0,1-4.61-2.71c.42,0,1.12.64,1.68.89,0-.21-.76-.4-.6-.55-.18-.1-.23,0-.44-.15,0,0,.13,0,.18,0a2.06,2.06,0,0,1-.55-.33c0,.06.12.11.19.17-.18,0-.78-.4-.52-.37-1.66-1-3.45-2.73-5.54-3.28,0,.11.32.1.33.2s-.35-.08-.41-.14c0,.21.59.34.83.45a5.52,5.52,0,0,1,.77.34c-.8-.14-1.6-.6-2.44-.8,0,0,.15-.13,0-.13.16-.08.48.1.7.13a11.66,11.66,0,0,0-1.53-.45c0,.1.27,0,.3.13a6.06,6.06,0,0,0-2.14-.14c-.09.11-.58-.25-.76-.24s-.71.39-1,0a.33.33,0,0,0,.21,0c-.11-.08-.31,0-.42-.08.23.09-.57.55-.64.34-.12.17-.18.17-.3.29a.23.23,0,0,1,.06-.19c-.12-.07-.46,0-.43.18-.19.1-.36-.13-.58.2a.58.58,0,0,0-.73.15c-.05-.11.26-.31.24-.41-.28.13-.32,0-.55.16,0,0,.07-.18.12-.14,0-.15-.27.08-.37,0a3.45,3.45,0,0,1-.3.5,4,4,0,0,1,2-2.48c.18,0,.38-.11.51,0s.11-.17.27-.22c0,0-.29,0,0-.08a1.41,1.41,0,0,0-.54.15c-.08-.19.56-.49,1-.61a3.34,3.34,0,0,1,1.68-.54,2,2,0,0,0,.25-.25,3.79,3.79,0,0,0-1.52.45c.1-.24-.29,0-.53,0,.36-.35,1.58-.39,2.11-.56-.63-.07.59-.58,1.08-.31,0-.06.2-.13.45-.17,0,.06-.1.09-.23.09.6.21,1.61.26,2.54.49-.09.17-.49,0-.81,0a22,22,0,0,1,6.63,2.6c.28.19.52.44.78.58s.15.23.24.35c.9.52,1.31.85,2.08,1.35.06,0,0,0,0,0,.8.43,1.85,1.11,2.58,1.4a18.32,18.32,0,0,1-3.92-2.15,9.08,9.08,0,0,0,2.56,1.67,17,17,0,0,0,1.77.87c.6.24,1.33.33,1.63.52a9.86,9.86,0,0,0,2.92.23,5,5,0,0,0,2.4-.79,6.07,6.07,0,0,0-.72.33,3.46,3.46,0,0,1,.75-.46c.14-.06.6-.35.38-.15s-.28.13-.37.25a2.1,2.1,0,0,0,1-.86c.43-.11,1-1.18,1.54-2.11.7-1.23,1.15-2.87,2-4.56,0-.11-.09,0,0-.1a1.44,1.44,0,0,1,.22-.19c0-.1-.1-.11,0-.28,0,0,0,.09,0,.14.31-.4.58-1.26,1-1.48-.1-.31.65-1.12,1-1.67.23.16-.12.3-.3.56.6-.47.54-.72,1.35-1.37a2.37,2.37,0,0,0-.93.8c.07-.55,1-1.15,1.49-1.48a2.9,2.9,0,0,0-.79.36c.39-.47,1.07-.41,1.58-.81-.37.36-.84.42-1.17.9a12.64,12.64,0,0,1,1.64-.85,3.66,3.66,0,0,1,1.73-.24c.22,0,.11-.14.33-.14-.16.15.24.12.37.19,0,.07-.33,0-.48,0,0,.18.36,0,.42.09-.1.11-.4,0-.53,0a1.22,1.22,0,0,0,.94.18c-.13.32.56.31.73.39-.08.09-.37,0-.54,0,.07.06.23.06.29.14-.08.24-.44.08-.57.2.28.1.66.13,1,.25,0-.1-.27,0-.19-.2.37.18.89.44.79.65,0,0,0,0,0,0-.35-.07-.65-.42-1.12-.34.08.16.22,0,.44.1-.24.13,0,.05,0,.18-.28,0-.3-.15-.47-.1s0,.09,0,.05a1.9,1.9,0,0,1-.81.28,1.58,1.58,0,0,0-.82.39c.11.06.22-.17.34,0,0-.21.12,0,.36-.17C688.38,84.36,688.14,84.38,688.09,84.6ZM654,91.88c-.14,0-.32-.17-.42,0C653.69,91.82,653.89,92,654,91.88ZM657.56,89c.33,0,.52.25.71.13C658,89.05,657.55,88.94,657.56,89ZM664.27,92c0,.08-.62-.39-.8-.53a2.5,2.5,0,0,0,1,.73C664.44,92.1,664.38,91.88,664.27,92Zm21.08-4.2-.12-.06c-.08.1-.12.35,0,.24C685.12,87.83,685.34,87.9,685.35,87.75Zm-.81,1.36c.12-.17.28-.19.37-.53C684.63,88.7,684.74,88.88,684.54,89.11Zm.77-1.74c-.11-.08-.4.44-.27.41S685.32,87.47,685.31,87.37ZM683,92.44c0,.26-.32.51-.15.68C683,92.78,683.13,92.46,683,92.44Zm4.24-7.57s0,0,.08,0,.2-.27.38-.21C687.58,84.55,687.23,84.87,687.22,84.87Zm-3.9,6.64-.27.67c.1,0,.08.17.19,0C683.05,92.14,683.45,91.45,683.32,91.51Zm-.88,2.12c.22,0,.22-.31.36-.45C682.65,93.1,682.57,93.56,682.44,93.63Zm-27.38-1.77c-.23,0-.47-.12-.52.06C654.68,91.88,655.17,91.94,655.06,91.86Zm-3.37.21c.13-.09.41-.15.45-.26C651.91,91.93,651.75,91.85,651.69,92.07Zm0-.31c.18,0-.19.12-.08.19.23-.19.48-.19.66-.34C652.1,91.68,651.81,91.58,651.71,91.76Zm28.19-.57c0-.18.25-.45.19-.57C680,90.8,679.84,91.08,679.9,91.19Zm-23.48-2.1c-.12,0-.35,0-.27-.11-.35,0-1.08-.07-.91.12C655.38,88.93,656,89.22,656.42,89.09Zm-3.6.23c.8-.15.48-.32,0,0Zm12.44,3.44c-.14-.09-.3-.21-.36-.12.17,0,.33.28.37.23A.07.07,0,0,1,665.26,92.76ZM654,88.57c.09,0,0,0,0,.09.22,0,.62-.09.72,0-.24,0-.08.12-.36.06,0,.19.77.14.87,0-.15,0-.47,0-.51,0,.3,0,0-.14.21-.17A2.21,2.21,0,0,0,654,88.57Zm23.9,5.74c-.09-.14.29-.4.27-.46C678.41,93.87,677.9,94.14,677.9,94.31Zm-8.39,4.77c-.13.13-.29-.09-.51-.07,0,0,0-.08,0-.11S669.25,99,669.51,99.08Zm18.17-14c0,.05,0,0,0,0s-.12.13-.25.22c-.06-.12.16-.13,0-.14s.09-.06.11-.06a.2.2,0,0,0,0-.11c0-.07-.09.15-.1,0-.13,0,0,.13-.07.14s.06-.21.19-.27C687.59,85,687.61,85.07,687.68,85.1ZM674,100c0-.19.23-.26.62-.28.18.07-.64.06-.55.23.78-.1,1.3-.18,1.82-.29a8.71,8.71,0,0,0,1.76-.53c.13.14-.41.25-.6.34,0,0,.09-.08.15-.1A11.4,11.4,0,0,1,674,100ZM690.5,84.4c-.23-.2-.49-.38-.09-.19a2.27,2.27,0,0,0,.27.24s0,0,0,0,0,0,0,0c-.15,0-.23-.21-.42-.24C690.33,84.17,690.36,84.39,690.5,84.4Zm-31.06,9.12c-.18,0,.34-.06.38.13C659.7,93.66,659.66,93.58,659.44,93.52Zm-8.22-1.08c-.05,0-.06.06-.05.1s-.13-.11-.22-.05S651.18,92.3,651.22,92.44ZM687.9,81.89c-.18.19-.38,0-.65.07C687.4,81.78,687.67,82,687.9,81.89Zm-5.58,3.29c0-.09,0-.11-.08-.05a8.73,8.73,0,0,1,.71-1c0,.19-.56.68-.3.76C682.55,85,682.07,85.42,682.32,85.18Z"/><path class="cls-2" d="M709.67,92a87.14,87.14,0,0,0-23.11,42l26-23.4-13.92,79.6,17.2-33.1a57.07,57.07,0,0,1,1.31,27,83.91,83.91,0,0,0-1.62-94.38"/><path class="cls-2" d="M693,124.27l-.92.83v.08h0l.14-.12,1.73-1.58C694.89,122.65,695,122.54,693,124.27Zm-1.08,1c-.15.18-.14.12-.12,0C692,125.18,692,125.27,692,125.29Zm3.92-3.47c1.47-1.39,2.59-2.39,4.43-4-.47.47-.67.76-1.28,1.33C699.75,118.25,696.41,121.51,695.88,121.82Zm-4,3.42c-.12.06,0-.07-.13,0s0,0,0,.15-.12-.09-.05-.28c0,.06.08,0,.11,0S691.87,125.17,691.87,125.24Zm12.7-11.1c1.74-1.69,6.71-6.11,8.61-7.76-1.22,1.19-2.62,2.44-4.11,3.76S706,112.84,704.57,114.14Zm-10.2,9.29a20.76,20.76,0,0,1,2.8-2.48C696,122.09,695.46,122.42,694.37,123.43Zm.38-.17a14.45,14.45,0,0,1-2.3,2.22,8.12,8.12,0,0,0-.75.67,2.62,2.62,0,0,1,.54-.62l.13-.09.71-.63C693.65,124.3,694.21,123.79,694.75,123.26Zm18.45-1-.38,2.2c-.22.36.19-1.44.29-2.2Zm-.72,3.67a30,30,0,0,1-.81,4.42C712.08,128.19,712.16,127.75,712.48,126Zm-6.83,39c.05-1.23.73-4.8,1.17-7.35C706.51,160,706.18,161.69,705.65,165Zm-1.16,8.53a1.21,1.21,0,0,1-.23.64c-.07.07-.09,0-.27.46A10.06,10.06,0,0,1,704.49,173.49Zm.45-.91a.65.65,0,0,1-.12.51,2.24,2.24,0,0,0-.21.36,1.35,1.35,0,0,1,.15-.52A1.66,1.66,0,0,0,704.94,172.58Zm-12.73-50.44c.68-2.34,2.06-4.5,3.11-7a19.13,19.13,0,0,1-1.25,2.79C693.46,119.25,692.71,120.8,692.21,122.14Zm11.73,51.58c-.1.08-.06-.23,0-.58C704.05,173.14,704,173.43,703.94,173.72Zm7-80.51c-1,1-1.39,1.47-2.53,2.65A17.28,17.28,0,0,1,710.94,93.21Zm7.87,1.89c-1-1.31-2.41-3.68-3.47-5.28C716.08,90.6,717.82,93.58,718.81,95.1Zm-31.95,33.47c-.12.15,0-.5-.09-.31.42-1,.81-2.38,1.35-3.77.22-.57.45-1.15.68-1.73s.42-1,.63-1.45c-.3.88-.57,1.62-.95,2.57C688,125.08,687.51,126.53,686.86,128.57Zm7.37-18.28c-.25.45-1.15,2.32-1.79,3.34A21,21,0,0,1,694.23,110.29Zm3.35,15.91c1-1.14,3.91-3.43,0,0ZM720.7,96.34c-.22-.23-1.3-2.27-1.52-2.6a4.55,4.55,0,0,1,.68,1C720.09,95.23,720.36,95.78,720.7,96.34ZM710,115.87c-.08-.11,0-.39.09-.83l-.33.28q.19-.22.42-.45A5.61,5.61,0,0,1,710,115.87Zm16-8.73c-.18-.27-.37-1-.72-1.68s-.68-1.54-.95-2.1c.56,1.09,1,1.86,1.39,2.75s.74,1.9,1.3,3.44c-.35-.54-.73-2-1.38-3.5A7.16,7.16,0,0,0,726,107.14Zm-18.3,22.32c.24-2.5.76-5,1.38-8.82C708.8,123.27,708.34,125.58,707.7,129.46Zm-11.32,65.47a51.49,51.49,0,0,1,.8-5.11c.41-2.29.88-4.77,1.21-6.8-.18,1.45-.44,3-.79,4.95S696.82,192.23,696.38,194.93Zm1.77-68.77c.84-.9,3-2.76,4.39-4C701.69,123,699.51,124.89,698.15,126.16Zm18.12,42.69a6.79,6.79,0,0,1-.28-1.66c0-.37-.09-.78-.13-1.22,0-.16,0-.32-.07-.49l0-.37a1.83,1.83,0,0,1,.1.27l.07.25c0,.18.06.37.09.58A18.91,18.91,0,0,1,716.27,168.85Zm14.15-9a19.18,19.18,0,0,1-.55,2.37c-.31,1-.65,2-.9,2.79C729.31,163.54,730,161.71,730.42,159.82Zm-15.65,5.33c0-.14,0,.09,0,.07C714.74,165.48,714.75,165.59,714.77,165.15Zm-22.65-39.74c0-.1.06-.13.1-.16l1.52-1.37s-.31.32-.52.52c0,.07.15-.07.32-.22-.07.08-.23.24-.46.46l-.77.69A.32.32,0,0,1,692.12,125.41Zm-.39-1.91c-.09.2-.1.14-.16.23a1.63,1.63,0,0,0-.13.3c-.06.16-.14.4-.27.77,0,0,.05,0,.12-.1l.14-.31c0-.07.05-.09,0,0s-.07.23-.18.53a.12.12,0,0,0,0,0,.61.61,0,0,0,.08-.19l.3-.84a2.32,2.32,0,0,1-.15.7,1.62,1.62,0,0,0,.2-.69c.26-.52.19-.16,0,.46l-.15.49a.48.48,0,0,0,0,.13v0l0,.18c-.06.16-.18.06-.2,0-.06.32-.05.4-.33.62.07-.25.07-.14.14-.17.11-.28,0-.28.15-.62a4.79,4.79,0,0,0-.63,1.63,4,4,0,0,0-.12.75c-.09.3.23-.12.32-.22s.1-.1.17-.13.18-.1.33-.34,0-.17-.29.09c.07-.18.57-.55.78-.77,0,.14-.2.22-.25.4a.9.9,0,0,0,.31-.45c6.22-5.6,11.21-10.08,18-16.17-1.87,1.56.1-.23,1.54-1.57.17-.05-.42.49-1,1a26.73,26.73,0,0,0,3.09-2.91c.69-.53,1.38-1.14,2.58-2.21-.07.35-.14.77-.22,1.24-1.18,6.52-.86,5,.12-1.07l-2.1,1.93c.49-.39,1.18-1,2-1.72l-1.33,7.76a18.45,18.45,0,0,1,.61-3.82c-.58,2.12-1.25,5.95-2,10.59-.45,2.75-.94,5.84-1.46,8.38.43-1.76.93-5,1.41-7.73a19,19,0,0,1-.46,2.94,6.61,6.61,0,0,0,.38-1.42c.06-.34.12-.71.19-1.1s.15-.92.23-1.4c.5-3,1-5.9,1.41-7.32-2.16,11.91-4,22.17-6,32.94a11.24,11.24,0,0,1-.28,1.1c-1,7.35-2.45,13.49-4.2,23.9.21-.22-.24,1.24-.28,2.21-.22,1,0-.84-.06-.73-.06.39-.11.75-.16,1.07a1.62,1.62,0,0,0,0,.27v.52a4,4,0,0,1-.26,1.15c0-.49.21-.9.19-1.15-.28,1.3-.6,3.26-.73,4.18.33-1.3.32-1.82.26-1a1.74,1.74,0,0,1-.07.71l-.1.32-.09.28-.09.26-.06.22c.39-.83.75-1.57,1.08-2.26a16.31,16.31,0,0,0,.78-1.88c0,.2-.17.36-.21.59.05.08.16-.19.25-.41s.16-.43.24-.45,0-.2,0-.29a.42.42,0,0,0,.11-.23.29.29,0,0,1,0-.09l0-.07,0,0,.06-.13a1,1,0,0,1,0,.12v0l0,.11a.33.33,0,0,0,0,.2l2.46-4.7,1.54-3,1.89-3.73a4,4,0,0,0-.38.64l-.55,1a5.89,5.89,0,0,1,.27-.61l.45-.9c.34-.66.76-1.44,1.2-2.28s.9-1.7,1.36-2.56.86-1.5,1.24-2.23c-.2.3-.45.7-.75,1.19l-.47.78c-.17.33-.36.67-.55,1l-2.57,4.95-1.62,3.1c-.49.93-1,1.77-1.34,2.44-1.66,3.09,2-4,2.52-5,1-1.88,2-3.75,3-5.64.51-1,1-1.79,1.47-2.6l1.45-2.44.72-1.22.18-.3c0-.11.05,0,.07.08l0,.18.2.76.81,3c.25,1,.51,1.94.77,2.92l.38,1.47.33,1.56.32,1.57.24,1.47.12.74c0,.24.08.53.09.65l.11.95c.15,1.27.25,2.56.31,3.86a61.81,61.81,0,0,1-.1,8c0-1.1.09-3,.08-5.13a51.81,51.81,0,0,0-.34-6.09c-.05.44.1,1.68.16,2.78s.09,2.06,0,1.91a21.9,21.9,0,0,1,.12,2.68c-.05-.12-.07-.66-.13-.74a32.11,32.11,0,0,1-.13,3.86,11.41,11.41,0,0,0,.13-1.55c.08,1-.36,5.27-.33,3.86-.15,1.5-.39,3-.72,4.77l-3.71-1.52,2.09-3.37,1.09-1.75c.35-.6.65-1.23,1-1.85.66-1.25,1.32-2.53,2-3.83l1.74-4.08a39.84,39.84,0,0,0,1.57-4.25c.46-1.45,1-2.88,1.35-4.39l1.11-4.49c.24-1.53.49-3,.73-4.57-.14.23-.35,2.21-.5,2.52-.15.71.36-2.39.47-2.88a17.11,17.11,0,0,0-.57,2.65l-.31,1.89c-.11.61-.26,1.15-.36,1.56-.41,1.6-.75,3.43-1.33,5.29,1.12-5,2.58-10.58,3-17.15,0,.21.09.82.17-.39,0,1-.29,3.5-.42,5.08.21-1.77.38-3.73.58-5.68s.11-3.89.19-5.62c-.1.18,0,1.94-.12,2.21,0-1.14.12-2.5,0-3.93s-.14-2.95-.21-4.4a17.93,17.93,0,0,0-.2-2.12c-.08-.68-.16-1.33-.24-1.93-.15-1.2-.28-2.22-.4-2.9s-.49-3.9-.7-5.15c0-.26-.11-.54-.17-.84s-.17-.6-.27-.91c-.18-.62-.38-1.27-.56-1.88a9.07,9.07,0,0,1-.55-2.83,12.27,12.27,0,0,0,.36,1.43c0-.55-.48-2.08-.57-2.56.32,1.37-2.1-4.93-1.81-4.81l-1.28-2.62a5,5,0,0,1,.57.92,12.58,12.58,0,0,0-1.31-3.06,16.12,16.12,0,0,0-1.7-3.73,12.44,12.44,0,0,0-1.68-3.84c.31.17,1.28,2.24,1.55,2.51a9.69,9.69,0,0,1-.57-1.39,4.8,4.8,0,0,0-.69-1.39,2.93,2.93,0,0,1,.6.94c.21.33.09,0-.12-.43a5.84,5.84,0,0,1-.49-1c-1.12-1.53-1.06-1.58-1.88-2.78,2.72,3.08,6.56,10,8.77,15.12.29.92.67,2,.76,2.57.26.66.41.83.72,1.71,0-.1-.46-1.51.08,0-.22-.71-.87-2.74-1-2.88a8.88,8.88,0,0,1,.93,2c.22.59.47,1.25.73,1.92s.4,1.37.58,2c.44,1.37.88,2.71,1.34,4.15s.72,3.07,1.06,4.94c.18.49.35,1,.52,1.4-.65-2.7-1.25-6.42-2-8.05.42.74-.32-1.44-.61-2.61a45.27,45.27,0,0,1,1.53,5.2c.42,2.15.89,4.38,1.21,5.81-.08-.8-.11-1,0-.83a5.81,5.81,0,0,1,.37,1.46,37.61,37.61,0,0,1,.63,4.93,8.27,8.27,0,0,1,.33,2.23,4.34,4.34,0,0,1-.15-1.12c0,1.56.09,3.67.14,6,0,1.17,0,2.39-.07,3.63a35.18,35.18,0,0,1-.16,3.71,5.31,5.31,0,0,1,0-1.53c0-.8,0-1.79,0-2.62,0,2.68-.38,5.66-.64,8.85a97.24,97.24,0,0,1-1.82,9.9c-.2.85-.4,1.7-.59,2.55s-.52,1.67-.78,2.51l-.79,2.51-.4,1.25-.49,1.21c-.65,1.61-1.3,3.21-1.94,4.77s-1.5,3-2.23,4.42c-.23.44-.45.89-.69,1.32l-.79,1.25c-.52.81-1,1.61-1.47,2.35a20.14,20.14,0,0,1-1.26,1.78l-5,7,2.13-8.14,0-.13a60.24,60.24,0,0,0,.89-7.41,55.68,55.68,0,0,0,0-7.06c0-.41,0-.19,0,0-.07-.67-.14-1.37-.21-2.11,0-.36-.09-.73-.14-1.11l-.06-.46,0-.34c-.07-.49-.14-.8-.2-1.18s-.15-.74-.24-1.11-.18-.75-.28-1.12c0,0,0-.14,0-.08l-.06.12-.13.23-.25.47-.92,1.76c.4-.79.85-1.7,1.33-2.68l0-.09,0-.05,0,.05.05.2.12.39.21.82c.14.55.25,1.13.36,1.72.05.38.11.76.17,1.14.07.6.16,1.2.21,1.81.12,1.21.22,2.43.25,3.64a54.25,54.25,0,0,1-.2,7,41.08,41.08,0,0,0,.27-8.42c0-.78-.13-1.57-.21-2.38l-.15-1.21-.08-.61-.06-.39-.13-.76-.12-.65c-.09-.42-.18-.85-.29-1.28s-.13-.56-.21-.83l-.11-.42c0-.05,0-.16-.06-.18l-.09.18-.78,1.47-2,3.71-2.89,5.64-1.34,2.6c-.57,1.08-1.07,2-1.46,2.69-4.11,7.93-7.73,14.91-11,21.22,1.84-10.61,3.49-20.1,5.36-30.91-.1.39-.26,1.3-.45,2.39-.25,1.41-.53,3-.78,4.5,0-.29.11-.81.22-1.5s.22-1.34.35-2.16c.22-1.22.47-2.67.7-4,.2-1.12.95-5.16.59-2.94-.26,1.7-.44,2.22-.56,3.31.84-4.43,1.52-8.35,1.7-9.93.67-2.66,1.93-10.93,3.12-17.65.77-4.46,1.6-9.23,2.45-14.18.41-2.39.84-4.83,1.26-7.29.24-1.31.49-2.63.73-4l-.13.12c-.24.24,0,.08-.25.34a2.26,2.26,0,0,1-.44.22c-.24.25-.22.39-.62.69,0-.08.18-.22.3-.34-.49.36-1.28,1.08-2,1.72l-1.89,1.66c-.6.52-1.13,1-1.54,1.26-.73.94-5.2,4.68-7.71,7-.25-.16,1.18-1.18,2.41-2.31-1.52,1.24-2.41,2-3.43,3l-2.2,2-3.33,2.94c.85-.7,1.76-1.46,2.84-2.38s2.49-2.18,3.36-3c-.56.68-2.93,2.82-5,4.67-.53.47-1.1,1-1.6,1.39l-1.46,1.2-2.6,2.14c1.05-.77,2.41-1.83,3.94-3-1.55,1.36-2.9,2.37-4.15,3.31-.16.11-.33.26-.46.34l.23-.8.43-1.56c.28-1,.53-2,.76-3-.31,1.38-.69,2.94-1.11,4.57l-.08.31s0,.12,0,.14l.1-.09.44-.37.92-.77c.63-.54,1.3-1.13,2-1.81l-2.12,1.72-1.05.86c-.15.17,0-.1,0-.2l.1-.38.2-.77c.52-2.07,1.06-4,1.6-5.89s1.18-3.84,1.87-5.52c.54-1.43,1.18-2.79,1.78-4.09.49-1,.17-.68.66-1.74-.26,1,.61-1.06,1-1.66,0,.19-.79,1.64-1.11,2.39,0,.35.81-1.81,1-2a24.39,24.39,0,0,1-1.26,2.73,37.55,37.55,0,0,0,2.45-4.7c-.08.88,1.81-2.92,2.44-3.85-.12.36-1.11,2-1.54,3,.27-.39.72-1.24,1-1.61.07.44-1.22,2.48-1.48,3.36.9-1.65,2.15-3.94,3.32-5.82-.2.17-.94,1.62-.9,1.23,1.37-2.25,3.7-5.64,3.9-5.51-.22.35-.07.19,0,0a69.62,69.62,0,0,0-4.62,7.55c.43-.54.76-1.42,1.65-2.89-.66,1.49.24-.33.35-.26-1,1.88-1.35,2.09-1.83,3.2,0,.11.25-.28.21-.31-.18.52-.55,1.34-1,2.35s-1,2.21-1.54,3.48c-.26.63-.53,1.27-.8,1.9l-.71,1.89c-.23.6-.43,1.19-.6,1.74l-.13.4c0,.13-.08.28-.09.3l-.06.3c.09,0,.53-1.75.91-2.26-.21-.05.39-1,1.15-3.06A36.89,36.89,0,0,0,691.73,123.5Zm36.1-.09a28.14,28.14,0,0,0-.51-2.9A25.91,25.91,0,0,0,727.83,123.41Zm4.27,20.29a30.82,30.82,0,0,0-.29,3.78A32.45,32.45,0,0,0,732.1,143.7Zm-12.22,39.1c-.16,0,2.35-3.71,2.87-4.94-.62,1.19-3,4.82-3.9,6.55A11.57,11.57,0,0,0,719.88,182.8Zm-17.2-66.42.11.08c.66-.55,1.81-1.7,1-1C703.69,115.7,703.33,115.72,702.68,116.38Zm12.11-10.69c-1.66,1.43-2.36,1.87-5.35,4.65.94-.71,1.64-1.33,2.45-2.07S713.6,106.7,714.79,105.69ZM701.2,118a16.2,16.2,0,0,0,2.53-2.22C703.1,116.29,701.61,117.57,701.2,118ZM711,131.52c-.08,1.23-.65,3.22-.5,3.67C710.84,133.14,711.13,131.28,711,131.52Zm-20.57-4.22a.87.87,0,0,1,.18-.31,4.48,4.48,0,0,0,.15-.68,2.11,2.11,0,0,1,.24-.69,2.12,2.12,0,0,0-.37.88C690.49,126.88,690.39,127.27,690.38,127.3ZM711.85,126l-.7,4c.11,0,0,.69.25-.38C711.17,129.85,712,125.46,711.85,126Zm-2.1,12.5a23.9,23.9,0,0,0,.64-2.95A24.78,24.78,0,0,0,709.75,138.51ZM728.84,131a25.9,25.9,0,0,0-.49-3.62c.06.49.21,1.59.32,2.48S728.81,131.43,728.84,131Zm-5-23.31c.41,1,1,3,1.31,3.42A28.38,28.38,0,0,0,723.82,107.71Zm.61.89c.35,1.14-.54-1.4-.49-1,.76,1.86,1.22,3.42,1.81,4.81C725.27,111.15,724.91,109.58,724.43,108.6Zm-16.89,23.06c.17-1.12.6-3.17.59-3.68C708,129.1,707.53,131.15,707.54,131.66Zm24.45,6c0-.34,0-.81,0-1.15s0-.56.07-.38c-.1-1.88-.32-5.82-.45-4.86a19.11,19.11,0,0,1,.19,2.64C731.85,135.19,732,136.61,732,137.7Zm-2.45-19.42c.89,4.28.8,2.74,0,0Zm-13.13,60.66a12.51,12.51,0,0,0-.18,2.16c.11-1,.38-2.49.3-2.53C716.5,178.85,716.45,179,716.41,178.94Zm15-54.21c.06.46,0,.25-.08,0,.12,1.16.48,3.22.45,3.78a12.93,12.93,0,0,1-.29-1.87,8.26,8.26,0,0,0,.13,2.11c.07.53.15,1.08.23,1.52a7.78,7.78,0,0,0,.13.91c0-.8-.33-2.46-.24-2.66.21,1.58.1-.26.32,1.08C731.85,127.94,731.54,125.2,731.4,124.73Zm-28.16,31.2c-.12-.3.56-3.46.54-3.68C704.14,151.38,703.26,155.05,703.24,155.93Zm3.31,14.19a23.2,23.2,0,0,1,1.11-2.34c0,.06.12-.05.26-.31C707.79,167.86,707.21,168.9,706.55,170.12Zm-15.26-44.35c.06,0,0,0,0,.07a1.69,1.69,0,0,1-.1.58c-.22.3.06-.35-.11,0s.05-.24.08-.3,0-.07-.09,0,0,.28-.19.32c-.17.42.21-.19,0,.2s-.11-.19,0-.64C691.05,126,691.18,125.93,691.29,125.77ZM704,174.35c-.38,1.1-.46,1.2-.36.75s-.1.57.28-.53a4.8,4.8,0,0,1,.13-1l.25-1.24c.19,0,0,.22.05.31s-.05,0,0,0a5.72,5.72,0,0,0-.16.84C704.1,173.73,704.07,174,704,174.35Zm-2.39-70.28c-1.69,2.3-3.12,4.33-1,1.15.58-.87,1.12-1.41,2-2.66.08,0,0,.13-.17.32s.12-.1.25-.28c-.61,1.05-1.83,2.41-2.75,3.9A23,23,0,0,1,701.6,104.07Zm23.34,58.67a14.68,14.68,0,0,1-.74,2.43C724.34,164.54,724.54,164.11,724.94,162.74Zm-3-59a2.26,2.26,0,0,0-.34-.64c-.44-.91,0-.42-.32-1.12C721.39,102,722.24,104,722,103.73ZM690.25,120c-.28,1.13-.85,1.68-1.31,3.15A23.7,23.7,0,0,1,690.25,120ZM702,122.22c-.34.32-.21.31.07.06l-4.74,4.22c.4-.54,3.38-2.94,2.9-2.85C700.92,123.07,703.4,121.11,702,122.22Z"/><path class="cls-2" d="M1999.51,125.54c4.2,8.48,8.44,17.06,10.63,26.32s2.16,19.4-1.94,27.85-12.84,14.75-21.91,13.88c-5.86-.55-11.23-3.92-15.45-8.25s-7.44-9.58-10.62-14.78l-9.91,27.35a343.76,343.76,0,0,1-.72-62.2l34.66,18.83a3.06,3.06,0,0,0,2.43.53,3.21,3.21,0,0,0,1.48-2l11.58-28.87"/><path class="cls-2" d="M2011.26,175.86a25,25,0,0,0,.83-3.28A25,25,0,1,0,2011.26,175.86ZM2013,163.2c0-.3-.08-1.27-.13-2.32A16.1,16.1,0,0,1,2013,163.2ZM2010,179.05a25.09,25.09,0,0,1-2.62,4.8c.35-.5.45-.81.85-1.46-.25.46.23-.2.67-1.11S2009.89,179.29,2010,179.05Zm2.7-19.51c0-.07-.13-1.23-.19-1.3,0,.11.1.56.13,1.33-.07-.55-.18-1.18-.32-2.29.07.36.08.27,0-.35A13,13,0,0,1,2012.73,159.54Zm-8.64,28.26a22.68,22.68,0,0,1-2,1.84c-.81.7-1.73,1.28-2.24,1.65A36.55,36.55,0,0,0,2004.09,187.8Zm6.6-10.65c-.06.16-.34,1-.66,1.77a10.57,10.57,0,0,1-.67,1.37C2010,178.91,2010.23,178.43,2010.69,177.15Zm-.19.32c-.1.11.38-1.14.85-2.78a36,36,0,0,0,1-5.05A32.76,32.76,0,0,1,2010.5,177.47ZM1987.71,195c-.7,0-1.4,0-2.09-.14-.18-.07.16,0,.63,0l1.44.07Zm-3.48-.4a16.14,16.14,0,0,1-2.21-.53,8.76,8.76,0,0,1-1.76-.67A21.61,21.61,0,0,0,1984.23,194.58Zm-23.72-21.08v-.07s.12.13.22.28l1.75,2.78c-.56-.82-1-1.56-1.56-2.38-.11-.19-.24-.39-.41-.65Zm-11.31,26a10.36,10.36,0,0,1,.17,1.24c0,.35.07.75.11,1.18l.07.7,0,.37,0,.19v.1s0,.08,0,0c.68-1.82,1.54-4.08,2.28-6.21,0,.11-.67,1.93-1.46,4.08-.2.53-.4,1.09-.61,1.65l-.15.42-.08.21,0,0v-.16l-.09-.88C1949.38,201.29,1949.27,200.24,1949.2,199.47Zm-1-10.46c.09.5.17,1.41.25,2.34s.13,1.61.18,2.35.15,1.51.2,2.07c-.07-.26-.24-1.81-.39-3.68C1948.41,191,1948.31,189.81,1948.25,189Zm63.35-34.88c-.51-2.14-.91-4.41-1.69-6.73A46.76,46.76,0,0,1,2011.6,154.13Zm-55.15,30.31c.22-.74.67-2,1.17-3.37C1957.46,181.67,1956.93,183.11,1956.45,184.44Zm43.86-59.29,1.44,2.94C2001.58,127.81,2000.18,125.06,2000.31,125.15Zm-2.74,4.18c.48-1.36,1.43-3.58,2-5.15C1999.37,125.09,1998.16,127.85,1997.57,129.33Zm13.32,30.75c0,.06-.08-.37-.12-.28a41.84,41.84,0,0,0-.55-5.19A36.64,36.64,0,0,1,2010.89,160.08Zm-3.56-15.32a31.55,31.55,0,0,1,1,3.07C2008.06,147.11,2007.66,145.77,2007.33,144.76Zm1.22,32.1a12.72,12.72,0,0,1-.81,2C2007.54,179.19,2007.73,178.92,2008.55,176.86Zm-11.14-45.7c0-.26.81-2.11,1-2.42C1998.25,129.22,1997.8,130.1,1997.41,131.16Zm-2.21,60.17c.35-.18.69-.33,1.08-.54a15.23,15.23,0,0,0,1.42-.76,10,10,0,0,1-1.2.7A9.88,9.88,0,0,1,1995.2,191.33Zm-1.61-50.49c.15-.51.91-2.31,1.3-3.33-.73,2-1,2.84-2.08,5.46.13-.54.66-1.68,1.16-3C1993.93,140,1993.73,140.49,1993.59,140.84Zm-12.39,50.72a19.67,19.67,0,0,0,7.31,1.23A16.53,16.53,0,0,1,1981.2,191.56Zm-28.67-1.88c.44-1.54,1.6-4.42,2.41-6.74C1954.36,184.75,1953.65,186.52,1952.53,189.68Zm55.72-12.52c-.15.5-.52,1.28-.9,2.14s-.89,1.7-1.32,2.36A30,30,0,0,0,2008.25,177.16Zm-58.85-16.09c.1.64,0,2.11,0,3.89C1949.42,164.73,1949.33,162.49,1949.4,161.07Zm10.09-18.66c-.79-.37-2.77-1.49-4-2.15C1956.6,140.81,1958,141.61,1959.49,142.41ZM1950,172.58c0-.91,0-.85,0-1.63A6,6,0,0,1,1950,172.58Zm62,0a15.86,15.86,0,0,1-.42,1.83c-.15.62-.36,1.26-.63,2.09a5.4,5.4,0,0,1,.19-.65c0-.05-.06.13-.13.33C2011.11,175.83,2011.77,173.68,2012,172.59Zm-.14-17.16a4.79,4.79,0,0,0,.16,1.33c.06,0-.16-1.45.11.29,0-.11-.11-.83-.18-1.32a4.25,4.25,0,0,1,.14.63,2.7,2.7,0,0,0-.12-.64c-.1-1.06.34,1.3.44,2.23s-.05.14-.08.05a6.59,6.59,0,0,1,.14,2c-.08-.85,0-.42,0-.36-.07-1-.15-1.14-.27-2.3,0,.87.28,2.92.34,4.9s0,3.88,0,4.41c0,.12-.18,1.61-.21,2.33a12.57,12.57,0,0,0,.27-2.35,8.87,8.87,0,0,1-.09,1.55c-.06.49-.12,1-.18,1.53l-.2,1.24s.16-1.09.09-1a4.84,4.84,0,0,0-.14,1.31,33.77,33.77,0,0,1-3.47,10.11,27.45,27.45,0,0,1-7.29,8.56c1-.79,0,.11-.77.64-.13,0,.18-.18.52-.42a9.23,9.23,0,0,0-1,.69c-.34.27-.65.47-.65.5-.56.28-1,.63-2.12,1.16a16,16,0,0,1-1.84.82,20.91,20.91,0,0,0,3.59-1.86,23.92,23.92,0,0,1-5,2.3,4,4,0,0,1,.79-.32l1.12-.43a28.73,28.73,0,0,1-5.41,1.43,18.64,18.64,0,0,1-7.76-.49,18.58,18.58,0,0,0,3.22.64c.64.05,1.31.07,2,.09s1.34,0,2-.12a4.76,4.76,0,0,1-1.09.11,13,13,0,0,1-1.66,0,5.36,5.36,0,0,0,1.36.07l1-.05c.37,0,.75-.1,1.13-.16a35.25,35.25,0,0,0,3.67-.83,19.83,19.83,0,0,1-13.9-.38,31.07,31.07,0,0,1-10.75-7.51,9.09,9.09,0,0,1-.66-.77,48.2,48.2,0,0,1-5-6.33c-.77-1.13-1.53-2.32-2.32-3.58l-1-1.64-.35-.61-.73,2c.15-.18-.39,1-.62,1.84s.2-.7.13-.61c-.94,2.64-1,3-2.19,6.13.54-1.54.92-2.47,1.22-3.37-1.3,3.56-3.17,8.73-4.34,11.95.87-2.25,2-5.46.71-1.84l-.51,1.47c-.21.58-.44,1.24-.74,2.05s.1-.39-.28.53c-.66,1.84-1.28,3.58-1.88,5.24-.3.83-.59,1.64-.88,2.43-.15.4-.29.8-.43,1.19l-.22.59-.06-.59c-.34-3.23-.65-6.24-1-9.24,0,.1.24,2.51.3,2.76,0-.84-.16-2-.27-3.21,0-.44-.09-.88-.13-1.27s0-.57,0-.76c0-.44-.08-.25-.11-.29-.09-1.42-.09-.79-.2-2.27.06.28.13,1.18.19,1.26-.29-3.42-.47-7.49-.7-11.42a9.18,9.18,0,0,0,0,1c-.11-.75-.11-3.21-.22-4.89,0,1.73.28,7.12.38,9.84.15,3.06-.26-3.89-.29-4.89-.34-8.09-.36-16.29-.13-25.56,0,1.85-.11,6.52-.08,9.47.09-.73,0-4.21.11-4,0-1-.06-.91,0-2.27,0,.11,0,.56.06.63,0-1.38,0-1.76.06-3.27,0,.11,0,.83,0,1.32a27.7,27.7,0,0,1,.1-3.28c.08-2.39.2-4.95.36-7.63.09-1.34.18-2.71.28-4.11q.21-2.82.44-5.73l9.78,5.37,8.71,4.72c-.17-.15-1.76-.95-2-1.13-.56-.32,1.91,1,2.29,1.24-.42-.34-3.53-2-4.86-2.71l-4.3-2.32c4.09,2.09,8.59,4.59,13.76,7.4-.17-.08-.67-.28.28.22-.78-.36-2.76-1.49-4-2.15l8.87,4.88c-.11-.12-1.52-.82-1.71-1l6.53,3.58,1.67.92c.54.28,1.07.59,1.48.78a1.84,1.84,0,0,0,.94.24.71.71,0,0,0,.42-.23,6.13,6.13,0,0,0,.86-1.54c.39-.85.81-1.75,1-2.26.74-1.75,1.8-4.76,2.3-5.45-.13.27-.3.69-.51,1.21.23-.43.75-1.74,1-2.11a33.54,33.54,0,0,1,1.67-4.24c.38-1.08.53-1.4.92-2.42a6.87,6.87,0,0,1-.29.91,19.54,19.54,0,0,0,1.13-2.73c.54-1.29.63-1.16,1.45-3.32a23.18,23.18,0,0,0,1.56-3.33c-.05.26-.85,2.11-.92,2.42.63-1.44.51-.91,1.13-2.42a5.57,5.57,0,0,1-.36.91c-.22.66.53-1.11.62-1.2.57-1.55.61-1.55,1.07-2.73-1.15,3.37-3.64,9.72-5.4,14.23-.33.77-.73,1.72-.94,2.12-.22.58-.25.76-.56,1.52.06-.07.55-1.26,0,0,.25-.59,1-2.28,1-2.41.06.1-1.11,3.07-2,5.14-.89,2.33-1.64,4.52-3,7.59a4,4,0,0,1-.73,1.31,5.46,5.46,0,0,0,1.08-1.9c.25-.61.5-1.24.73-1.84.48-1.21.9-2.32,1.14-3-.17.7.51-1.16.92-2.11-.31.91-1,2.59-1.68,4.34l-1,2.58a4.89,4.89,0,0,1-1.45,2.28,3.1,3.1,0,0,0,.66-.62c.1-.1.11-.1.06,0a2.05,2.05,0,0,1-.39.49,2.35,2.35,0,0,1-1.08.62,2.92,2.92,0,0,1-1.5,0,6.69,6.69,0,0,1-1.23-.52c-.69-.37-1.33-.73-1.79-1a18,18,0,0,1-1.73-.84,6,6,0,0,1,.87.42c-2.29-1.37-6.33-3.52-10-5.52.19,0,1.9,1,3.16,1.63-3.41-1.88-7.57-4.12-12-6.47l-12.09-6.46c-.09,1.32-.18,2.55-.26,3.74-.11,1.69-.25,3.4-.31,4.88,0,1-.13,1.29-.18,2-.21,5.37-.29,8.12-.35,13,0,.37,0,.17,0,0,0,4.83.07,11.77.28,16.27-.34-6.36-.46-16.36-.17-24.39-.27,4.26-.26,10.39-.15,16.29.06,3.79.17,7.56.35,11.07.16,3.67.53,7.79.62,9.75.1,1.13.19,2.23.29,3.29l.12,1.18,0,.58c.06-.14.13-.35.2-.52l2-5.46c1.84-5.07,3.6-10,5.57-15.41-.27.65-1.11,3-1.79,4.91.1-.35.4-1.19.76-2.22l1.26-3.45,1.39-3.78c.46.76.62,1.05,0,.05l0,.08c-.76,2.12-1,2.74-1.49,4.1.53-1.43,1-2.83,1.52-4.12l2.57,4.2c.53.84,1,1.49,1.25,1.91,1.19,2,5.24,8.16,9.76,11.91a24.46,24.46,0,0,0,10.89,5.59,18.79,18.79,0,0,0,12.73-2.16c.41-.26-.27.12.23-.2l1.14-.61a10.5,10.5,0,0,1,1-.75s-.3.23-.49.38a22.21,22.21,0,0,0,3.38-2.77c1.11-1.11,2.06-2.25,2.61-2.92.12-.22.4-.63.77-1.17s.8-1.22,1.19-2a26.83,26.83,0,0,0,2-4.76,9.46,9.46,0,0,1-1,2.69,24.48,24.48,0,0,0,1.38-3.63,41.84,41.84,0,0,0,1-4.69,46.58,46.58,0,0,1-1.31,5.32c.28-1,.67-2.61,1-4.29a44.49,44.49,0,0,0,.63-4.84c-.12,1-.26,2.26-.48,3.54a40.4,40.4,0,0,0,.56-7.42,45.37,45.37,0,0,1-.26,6.43,41.73,41.73,0,0,0,.32-8.08,61.92,61.92,0,0,0-1-7.78c-.2-1-.17-.58-.41-1.56.27.8-.17-1-.31-1.63.09.13.38,1.52.55,2.21.15.24-.4-1.67-.42-1.93a22.52,22.52,0,0,1,.6,2.54,12.17,12.17,0,0,0-.29-1.67,26.22,26.22,0,0,0-.76-2.82c.38.64-.73-2.91-1.08-3.83.17.29.69,1.93,1,2.77-.08-.4-.36-1.21-.45-1.59a27.71,27.71,0,0,1,1.08,3c-.42-1.6-1.14-3.8-1.8-5.64,0,.22.56,1.55.37,1.29-.34-1.11-.86-2.51-1.28-3.64a13.32,13.32,0,0,1-.69-2c.14.34.08.15,0,0,1,2.37,1.79,4.66,2.76,7.38-.12-.61-.46-1.36-1-2.8.57,1.33-.1-.35,0-.37.69,1.77.71,2.1,1.08,3.11.06.06-.06-.33-.08-.33a44.58,44.58,0,0,1,1.74,5.44c.63,2.38,1.09,5,1.35,6.6,0-.68-.33-2-.36-2.64-.12,0-.15-1-.64-2.89C2011.28,152.75,2011.62,154.57,2011.86,155.43Zm-24.79-2a20.92,20.92,0,0,0,1-2.35C1987.74,151.93,1987.25,153,1987.07,153.45Zm-15.2-4.84c-1.29-.68-2.24-1.28-2.86-1.52C1970,147.65,1972,148.72,1971.87,148.61Zm-22.08-3.13c-.06.09.2-3.74.29-4.87-.15,1.14-.36,4.83-.39,6.5A15.3,15.3,0,0,0,1949.79,145.48Zm55.91,40.21-.06,0c-.48.61-1.49,1.7-.84,1C2004.93,186.47,2005.2,186.37,2005.7,185.69Zm-7.27,6.13a17.58,17.58,0,0,0,3.15-2.08C2000.47,190.47,2000,191,1998.43,191.82Zm8.39-7.78c0-.07-2.24,2.78-1.9,2.38A18.13,18.13,0,0,0,2006.82,184Zm-27.5,8.65c-1.06-.37-2.61-1.41-3-1.52A12.25,12.25,0,0,0,1979.32,192.69Zm33.19-29.31c0-.26,0-.39,0-.35,0-1.5-.18-2.8-.23-4,0,.09.06,1.13.11,2.16S2012.52,163.29,2012.51,163.38Zm-28.34,30.87a22.49,22.49,0,0,1-3.6-1.05s-.61-.16.32.21c-.07-.08.85.26,1.75.5A7.61,7.61,0,0,0,1984.17,194.25Zm-10.33-4.88A16.85,16.85,0,0,0,1976,191C1976.1,190.94,1974.28,189.79,1973.84,189.37Zm8.58-36.82a29.36,29.36,0,0,0,2.82,1.48c-.32-.13-1.21-.64-1.91-1S1982.11,152.36,1982.42,152.55Zm10.22-12.34c-.36.92-1.08,2.61-1.19,3C1992,141.71,1992.38,141.1,1992.64,140.21Zm-.23.91c-.42,1,.49-1.23.3-.91-.63,1.67-1.22,3-1.67,4.24C1991.49,143.32,1992.11,142,1992.41,141.12Zm-13,49.8a17.71,17.71,0,0,0,2.93,1.15C1981.47,191.81,1979.86,191.07,1979.46,190.92Zm-3-40c.51.28,1.44.75,1.14.66a35.73,35.73,0,0,0,3.74,1.93C1980.79,153.33,1978.17,151.78,1976.48,151Zm13.36-.73c-1.4,3.5-.81,2.32,0,0Zm-40.4,1.78a15.55,15.55,0,0,0,0-1.93c0,.91-.11,2.24-.07,2.27C1949.4,152.1,1949.42,152,1949.44,152Zm37.61,3.75c-.56.19-.3.08,0,0a2.51,2.51,0,0,1-1.21.16,3.87,3.87,0,0,1-1.15-.32,9.8,9.8,0,0,1-1.32-.71c1,.52.32.16,1.54.75-.14-.08-3.12-1.74-3.54-1.88.59.34,1.89,1,2,1.11-1.2-.64.16.17-.87-.37.67.35,1.41.82,2.3,1.21a3.26,3.26,0,0,0,1.38.29A2.17,2.17,0,0,0,1987.05,155.76Zm-22.46,20.46c.19.16,1.72,2.5,1.85,2.62C1966.82,179.56,1965,176.82,1964.59,176.22Zm-16.46,9.14c-.1-.38-.08-1.34-.19-2.27,0,0,0-.09,0-.34C1948,183.1,1948.07,184.14,1948.13,185.36Zm64.5-24.73a.75.75,0,0,1,0,.33c0,.44.06.95.1,1.51s0,1.18,0,1.82c-.07-.11,0-1.89-.06-1,0,0,0-1.13,0-1.34a4.89,4.89,0,0,0-.07-.64s.11,1.53,0,.68c0,1.09.09.22.08,1.32-.07-.19-.09-1.58-.19-3C2012.57,160.8,2012.62,161.12,2012.63,160.63Zm-58.76,31.17a9.83,9.83,0,0,1,.76-2.45c.28-.65-.88,2.46-.68,2.14,2.1-5.93,2.83-7.82,4.89-13.49a22.7,22.7,0,0,1-.84,2.46,5.29,5.29,0,0,1,.2-.62Zm51.84-55.05c1,2.35,1.77,4.43.47,1.25-.37-.86-.59-1.5-1.16-2.73,0-.07.07.1.15.28s0-.13-.11-.31c.5,1,1.07,2.48,1.68,3.92C2006.46,138.65,2006.16,137.71,2005.71,136.75Zm-48.47,1.9c.84.41-1.44-.67-2-1.07C1955.75,137.83,1956.1,138.05,1957.24,138.65Zm36.8-2.07a4.49,4.49,0,0,0,.22-.61c.32-.83.2-.28.45-.9A9.11,9.11,0,0,1,1994,136.58Zm16,16.69a24.54,24.54,0,0,1,.49,2.89C2010.38,155.31,2010.32,154.36,2010.08,153.27Zm-3.75,28.15c.21-.34.13-.28,0,0a27.15,27.15,0,0,0,2.32-4.85c-.08.58-1.51,3.5-1.29,3.21C2007,180.45,2005.52,182.67,2006.33,181.42Z"/><path class="cls-2" d="M1984.74,96.13a13.67,13.67,0,0,0-8.9,12.64,15.11,15.11,0,0,0,8.29,13.29,16.49,16.49,0,0,0,15.68-.85c3.3-2,6-5.48,6.07-9.39a12.63,12.63,0,0,0-2.93-7.58c-4.26-5.59-12-8.92-18.45-6.22"/><path class="cls-2" d="M1981.59,108.78c0-.16.07-.42-.08-.57C1981.38,108.69,1981.61,109.59,1981.59,108.78Zm.2-2.21c-.17-.11-.12-.28,0-.47C1982,106.2,1981.81,106.4,1981.79,106.57Zm-.34,2.8a2.23,2.23,0,0,1,.17,1c-.1-.1-.26-.13-.33-.26C1981.69,110.2,1981.22,109.49,1981.45,109.37Zm.38-3.51c-.17-.08,0-.25-.15-.34s.06.15-.1.25a.55.55,0,0,1-.07-.53c.07.11.15.12.19,0C1982,105.4,1981.88,105.63,1981.83,105.86Zm-.22,5.44c.25.15.36.71.39,1C1981.62,112.1,1981.79,111.6,1981.61,111.3Zm-.53-2.27c.11.06.27.62,0,.63C1980.93,109.39,1981.14,109.28,1981.08,109Zm-.26.08c-.44,0-.09-1-.13-1.55C1981.07,108.11,1980.57,108.57,1980.82,109.11Zm2.26,5.37.26.32c-.2.25-.26-.14-.4-.21Zm.31.63c.16,0,.73.42.52.64A6.38,6.38,0,0,1,1983.39,115.11Zm6.14,3.35c-.27.28-1,.06-1.41-.06A6.39,6.39,0,0,1,1989.53,118.46Zm6.61-1c.12.5-.72.25-1.15.6C1995,117.91,1995.84,117.71,1996.14,117.48Zm1.25-.75c.12.55-.6.5-.79.71C1996.48,117.05,1997.21,117,1997.39,116.73ZM1981,104.18c-.07-.32.13-.51.34-.68s.43-.35.47-.66C1982,103.22,1981.19,103.63,1981,104.18Zm11.67,14.63a1.14,1.14,0,0,1-.79.28C1992,118.86,1992.3,118.86,1992.62,118.81Zm-6.75-19.31c-.29,0-.34.19-.69.19C1985.2,99.57,1985.8,99.19,1985.87,99.5Zm.4-1.56a5.4,5.4,0,0,1-1.57.55C1984.83,98.06,1985.8,98,1986.27,97.94Zm-11.48,5.22c-.15,0-.13-.19-.29-.23.48-.32.85-1,1.34-1.47C1975.8,102.07,1975.28,102.29,1974.79,103.16Zm2.59-5.23a2.52,2.52,0,0,1-.76.95C1976.58,98.48,1977,98.15,1977.38,97.93Zm-4.71,11.44c.39.49,0,1.77,0,0Zm13.67-13.62c0,.2-.75.29-.89.23C1985.55,95.7,1986,96,1986.34,95.75ZM1974.69,117c-.36-.15-.35-.48-.58-.94A1.85,1.85,0,0,1,1974.69,117ZM1990,95.2c-.19.18-.88,0-1.27.12a3.84,3.84,0,0,1,2.1-.35c-.22.29-.65,0-1.18.13C1989.67,95.21,1989.87,95.19,1990,95.2Zm-11.88,26.3c-.86-.31-1.33-1.07-2.16-2A16.65,16.65,0,0,1,1978.12,121.5Zm17.72,4.41c-.48.57-1.69.4-2.57.6C1993.93,126.13,1994.66,126.3,1995.84,125.91ZM1972,109.55a20.09,20.09,0,0,1,.33,2.07A5.87,5.87,0,0,1,1972,109.55Zm36.87,5.74c.33.4-.14.92-.39,1.63A2.63,2.63,0,0,1,2008.85,115.29Zm-2.91-14.75c.37.13.83.92,1.2,1.33A4.12,4.12,0,0,1,2005.94,100.54Zm2.39,20.19c.18-.38.33-.24.49-.57C2008.92,120.38,2008.58,121,2008.33,120.73Zm-27.17-12.54c.18.25,0,.4.09.71-.09,0-.08-.07-.1-.12s-.08,0-.08.07S1981,108.37,1981.16,108.19Zm-.27-3.71c-.11,0-.21-.15-.28.2.22.11.35-.19.21.17.12,0,.13-.14.19-.23s.12.13.1.21.06-.11,0-.17c.37-.06.29.46.29.67s-.28-.1-.32-.14c0,.28,0,.43-.4.3,0-.17.09-.06.19,0,.11-.2-.06-.29.1-.5-.31.07-.53.48-.63.9a1.62,1.62,0,0,0,0,1c.16,0-.34.27-.08.48.23,0,.34-.17.34-.43.2,0-.08.63,0,.87-.16,0,0-.22-.24-.23-.09.21.11.23.24.3a10.41,10.41,0,0,0,.52,4.32c.08-.31.19-.06.34.08-.13.09-.18,0-.23,0-.17.19.18.37.34.31-.11.18,0,.28.06.51.27.72.25.41-.35-.3-.07.3.32.72.48,1-.34.08-.35-.08-.3-.33-.28.37,0,.8.31,1.23a7.56,7.56,0,0,1,1.07,1.35c-.07-.43-.57-.85-.88-1.32.32-.06.21.21.43.42.36-.51-.9-1-.45-1.54a9.74,9.74,0,0,0,3.68,4.32c.17,0,0,.19.11.25a7.81,7.81,0,0,1,2,.7,6.07,6.07,0,0,0,2.6.61c0-.32.25.06.46-.17.2.08-.18.19-.16.35.68-.07.73-.49,1.54-.17-.38.11-.62-.06-.84.07a7.59,7.59,0,0,0,3-.42c-.61,0-1.35.3-.5,0a2.73,2.73,0,0,1,.79-.32c.18.13,0,.18.18.31a5.09,5.09,0,0,0,2.29-1.54c.08.17-.26.2-.23.35.33.16.48-.48.75-.35.07-.08-.07-.22-.13-.34.31-.08.09-.17.35-.35,0,.17-.13.27,0,.45a5.34,5.34,0,0,0,1.84-1.65c-.09-.06-.14,0-.2.1-.13-.34.54-.42.56-.84-.45.06-.92,1.12-1.59,1.24-.55.32.53-.61.65-.76,1.12-1.09,2.26-2.3,2.13-3.64.41.28,0,1,0,1.46.17,0,.19-.19.23-.34s0-.28.25-.22c0-.17-.24-.2-.12-.4.11,0,.12.11.25.14-.08-.24,0-.29,0-.54-.12,0-.08.13-.09.21-.15-.15-.15-.71.07-.53a10.14,10.14,0,0,0-.71-3.34,8.78,8.78,0,0,0-2.81-3.71c-.1.19.4.32.32.51.08.15-.45-.31-.5-.43-.08.19.07.4.27.59s.43.41.56.54a7.14,7.14,0,0,1,.8.89c-1-.61-1.75-1.61-2.91-2.48.09,0,.34-.14.09-.26.29,0,.66.43.95.63a7.87,7.87,0,0,0-.93-.88,11.82,11.82,0,0,1-1-.79c-.07.18.37.22.33.4a10.24,10.24,0,0,0-3-1.61c-.22.16-.63-.84-.89-1a3.09,3.09,0,0,0-.84-.12.54.54,0,0,1-.55-.56.45.45,0,0,0,.32.12c-.09-.23-.45-.25-.54-.5.27.36-1.24.46-1.18,0a2.19,2.19,0,0,1-.65.2.46.46,0,0,1,.23-.28c-.11-.21-.63-.5-.76-.12-.37,0-.41-.54-1-.28-.19-.52-.64-.61-1.18-.61,0-.22.64-.14.69-.36-.49-.08-.41-.43-.92-.39,0-.11.26-.19.29-.08.18-.19-.45-.2-.55-.4-.44.36-.49.21-.85.41a4.33,4.33,0,0,1,2-1.39,10.39,10.39,0,0,1,1.38-.38c.47-.07.92-.15,1.34-.18s.63.17.77.38c.21,0,.29-.19.56-.15,0-.13-.45-.19,0-.17-.21-.1-.84-.31-.9-.22,0-.19.32-.28.71-.31a5.26,5.26,0,0,1,1.25.13,5.14,5.14,0,0,1,2.89.32,5.14,5.14,0,0,0,.58-.27c-.43-.08-.92-.23-1.38-.33a2.59,2.59,0,0,0-1.21,0c.33-.33-.42-.27-.78-.4a3.05,3.05,0,0,1,1.72.14,8.58,8.58,0,0,0,1.82.47c-.89-.59,1.34-.63,1.87.19.06-.11.4-.11.81,0a.37.37,0,0,1-.41,0,29.82,29.82,0,0,0,3.47,2.47c-.26.23-.78-.26-1.23-.52,2.63,2,6.76,5,8.32,9.33.24.64.3,1.37.47,2,.09.41-.12.58-.16.87a9.41,9.41,0,0,1,.16,2.83,12.59,12.59,0,0,1-.55,2.61c0,.16.06.1.08,0a10.3,10.3,0,0,1-1.34,3.1,19.55,19.55,0,0,1-1.92,2.49,19.64,19.64,0,0,0,2.4-3.85,13.16,13.16,0,0,0,1.21-5.14c-.28.9-.43,2-.72,3a11.68,11.68,0,0,1-1.29,3.23,14.84,14.84,0,0,1-2.69,3.22c-1,1-2.1,2.06-2.86,2.21a17.51,17.51,0,0,1-5.85,2.47,22.88,22.88,0,0,1-5.92.53,5.77,5.77,0,0,0,1.91.1,4.8,4.8,0,0,1-2.16.06c-.37,0-1.67-.32-1-.27.56,0,.72.19,1.08.1a19.37,19.37,0,0,0-3.21-.49A10.39,10.39,0,0,0,1984,125a14.12,14.12,0,0,1-3.06-1.53,16.82,16.82,0,0,1-6.27-7.35c-.11-.16-.08.16-.21,0a1.85,1.85,0,0,1,0-.56c-.11-.16-.29,0-.35-.37.08,0,.12.11.17.19a11.77,11.77,0,0,0-.45-1.61,2.7,2.7,0,0,1-.12-1.5c-.53-.29-.4-2.23-.5-3.34.56,0,.19.53.23,1.07.36-1.26,0-1.55.42-3.22a3.59,3.59,0,0,0-.47,2c-.53-.83.09-2.52.45-3.46a5,5,0,0,0-.75,1.23c0-1,1.16-1.6,1.29-2.57,0,.79-.65,1.34-.54,2.3.84-1.79,1.54-3.73,3-4.86.23-.25-.1-.29.13-.55.07.38.45-.14.66-.24.1.13-.35.39-.47.6.24.26.35-.45.56-.41.1.29-.37.52-.52.68.21.1,1.1-.42,1.25-1,.39.56,1-.38,1.3-.53.09.21-.38.49-.49.74.17,0,.34-.21.51-.21.32.38-.28.68-.22,1,.43-.27.86-.75,1.31-1.07-.18-.09-.32.33-.51,0,.64-.32,1.46-.9,1.76-.53-.06.08,0,.09.06.06-.43.52-1.24.62-1.55,1.38.32.07.24-.29.56-.54,0,.51.13,0,.32.18-.23.44-.54.27-.61.58.11.11.19,0,.12,0a2.73,2.73,0,0,1-.39,1.48,3.24,3.24,0,0,0-.43,1.6c.23-.06,0-.51.41-.49-.38-.2.12-.2.17-.69C1980.9,103.78,1980.64,104.13,1980.89,104.48Zm12.26-3.28c-.22-.06-.33-.54-.58-.35C1992.79,100.91,1992.92,101.37,1993.15,101.2Zm7.76-2.88c.45.27.58.75,1,.64C2001.6,98.66,2001,98.16,2000.91,98.32Zm7.9,10.33c-.14.07-.42-1.47-.56-1.9a7.94,7.94,0,0,0,.63,2.58C2008.84,109.13,2009.07,108.71,2008.81,108.65ZM1980.7,111l-.25.06c0,.18.22.43.25.23C1980.43,111.31,1980.86,111.14,1980.7,111Zm.38,2c0-.28.19-.49-.08-.83C1980.72,112.57,1981.11,112.58,1981.08,113Zm-.91-2.29c-.27,0-.09.82.08.65S1980.3,110.79,1980.17,110.7Zm3.18,6c.36,0,.4.56.74.28C1983.82,116.64,1983.5,116.44,1983.35,116.67ZM1980,106.06s.09-.07.19,0c.14-.29,0-.68.27-.84C1980.15,105.1,1980.05,106,1980,106.06Zm2.46,9.87a8.38,8.38,0,0,0,.59.6c.16-.15.3-.1.19-.3C1983,116.55,1982.54,115.72,1982.48,115.93Zm2,1.62c.13-.37-.25-.32-.32-.56C1983.93,117.26,1984.47,117.33,1984.47,117.55Zm10.25-15.65c-.38-.05-.57-.54-.79-.24C1994.15,101.69,1994.81,102.13,1994.72,101.9Zm-5-2.23c.25,0,.71.13.84-.06C1990.17,99.65,1990,99.33,1989.76,99.67Zm.26-.52c.28.13-.35,0-.26.26.48-.13.84.09,1.2,0C1990.65,99.35,1990.3,98.93,1990,99.15Zm-11.08,22.52c-.3-.21-.67-.79-.93-.76C1978.31,121.13,1978.69,121.71,1978.94,121.67Zm20.14-23.91c-.17-.12-.54-.21-.32-.38-.48-.3-1.57-.82-1.47-.38.17-.09.44.07.75.28A2.11,2.11,0,0,0,1999.08,97.76Zm-5.54-2.09c1.28.35,1-.22,0,0Zm15.34,15.72c0-.36,0-.8-.24-.79.14.37-.07.93.07.94A.15.15,0,0,1,2008.88,111.39Zm-13-16.21c.13.07,0,.12-.06.17.32.18,1,.26,1.08.51-.39-.12-.23.16-.58-.14-.07.19.19.38.49.5a1.18,1.18,0,0,0,.77.15c-.2-.15-.74-.23-.71-.43.46.18,0-.29.46-.18A3.4,3.4,0,0,0,1995.88,95.18Zm-10.1,30.49c-.18.3-1.11-.25-1.21-.19C1984.42,125,1985.43,125.85,1985.78,125.67Zm12.59-8.9c-.15-.32.23-.18.26-.46,0,.09.11.11.16.09C1998.82,116.55,1998.59,116.63,1998.37,116.77Zm-17.34-11c.09,0,0,.08,0,.06a1.73,1.73,0,0,1-.1.68c-.24-.09.06-.38-.12-.24-.21-.08,0-.24.07-.27a.23.23,0,0,0-.12-.19c-.16,0,0,.36-.21.08-.18.19.25.14.09.33-.28-.13-.17-.42-.06-.7C1980.73,105.71,1980.9,105.84,1981,105.78Zm13.23,12.37c.09.35-.09.55-.45.59-.19-.11.58-.15.4-.48a6.59,6.59,0,0,1-3.14.44c0-.35.39-.13.57-.21,0,.06-.09.1-.14.09A9,9,0,0,0,1994.26,118.15Zm-11.13-17.67c-.54.28-1.1.48-.4,0,.18-.14.42-.09.66-.31,0,0,0,.09,0,.12s.07,0,.11,0c-.07.33-.59.27-.82.57C1982.6,100.6,1983,100.72,1983.13,100.48Zm16.56,6.52c-.26-.09.55.08.41.39C1999.91,107.35,1999.94,107.21,1999.69,107Zm-10.91-7.12c-.09,0-.14,0-.15.1-.22,0-.11-.33-.28-.33C1988.34,99.52,1988.84,99.61,1988.78,99.88Zm-12.26,1.41c.1.45-.5.37-.63.83C1975.8,101.72,1976.37,101.65,1976.52,101.29Zm-3.72,10.1c0-.15-.2-.09-.17,0a13,13,0,0,1-.14-2.17c.15.11.12.49.13.82s.09.62.34.53C1973,110.89,1972.72,112,1972.8,111.39Z"/><rect class="cls-2" x="18.5" y="197.54" width="2301" height="72.01"/><path class="cls-2" d="M1456.39,275.31c14.95,0,41.38.05,53.63-.11C1464.57,275.1,1381.51,275.3,1456.39,275.31Zm204.24-.18c4.88-.18,20.37-.19,37.36-.19a33.16,33.16,0,0,1-3.86.14l-9.26,0Zm-258.29,0c-29.1.11-50.85.1-86.06,0,9.62-.08,14.47-.23,26.49-.28C1326.44,275.31,1393.62,274.91,1402.34,275.15Zm317.13-.22c1.23-.18,19.93-.09,21.16-.27-1.65-.22-9.08.13-21.52,0,9-.14,19.15-.27,37.22-.28-5.84.11-4.41.19,5.66.18a24.85,24.85,0,0,1-3.89.19l-10,.1Zm-484.3,0c-18.16.19-66.49.12-86,0C1172.36,274.72,1206.37,275,1235.17,275Zm198.87-.17c-5.33.11-56.19.25-53.93-.07C1404,274.64,1412.59,274.83,1434,274.79Zm-5.79-.26c-4.34-.43,85-.09,128.82-.23C1516.8,274.74,1472.06,274.3,1428.25,274.53Zm-478.52.28-32.27,0c-5.57-.32,21-.13,32-.19C949.55,274.7,949.67,274.76,949.73,274.81Zm-54-.15c-4.27.06-20.27.12-35.28.13l-20.2,0c-5.44,0-9-.08-9.21-.16Zm-570.51,0c17.61-.31,70.05-.21,107.27-.22C398.58,274.61,373.05,274.56,325.2,274.63ZM151.12,192.51c-7.28.51-57.32-.08-96.66.13.1,0,1.25,0,3.25-.06l8.31,0,26.71,0Zm112.93,0c-16.47.5-59.92.12-80.36.21C190,192.29,239.81,192.58,264.05,192.47Zm1544.57,80.94c35.71-.4,73,.26,112.93-.05C1909.8,273.78,1850.86,273.37,1808.62,273.41Zm-1715.38.88c12.89-.17,34.79-.2,58.89-.2C141.91,274.3,116.74,274.28,93.24,274.29Zm2226.17-1.18L2265.5,273C2270.87,272.93,2321.72,272.79,2319.41,273.11Zm-19.32-76,20-.11c0,22.88,0,51.29-.07,72.59-.15-6.08-.19-17.49-.18-30.68s.07-28.44.11-41.77Zm-586.91,70.32c-.9-.15,6.29-.18,4.85-.35,21.52.32,58.55.38,87,.58C1778.86,267.88,1758.36,267.52,1713.18,267.39Zm262.87-.54c-7.19.07-36.76.17-53.78,0C1935.12,266.61,1958.44,266.74,1976.05,266.85Zm-549.65-.48c-21.7.38-75-.12,0,0Zm844.69-67.19c2.17-.09,11.49-.12,21-.11l13.51,0,8.43.06-1.53,0-1.81,0-4.12,0-10.05,0C2289.1,199.17,2280.39,199.12,2271.09,199.18ZM1081.9,266.34c13.42-.26,25.5-.1,48.24-.11C1116.48,266.38,1096.74,266.43,1081.9,266.34Zm1017.35-66.91c8.9-.21,41-.05,59-.11-35.18.27-49.77.38-96.28.39,9-.3,29.69,0,53.52-.2C2114.5,199.41,2105.6,199.44,2099.25,199.43Zm-1264.76,67c36.11-.38,73.41-.23,128.7-.31C925.07,266.48,891.19,266.38,834.49,266.44ZM21.35,241c0,3.83.09,8.18.14,13,0,3.85,0,8,.06,12.52l86.62.07c-12.78.12-25.55.14-39.95.14l-46.84,0Q21.37,255,21.35,241ZM1419.9,265.67c-17.72.21-59,.06-85.91.13C1351.73,265.59,1393,265.74,1419.9,265.67ZM724.06,201.05c-10.58.42-34.79.15-64.28.2C663.59,201.11,700.6,200.84,724.06,201.05Zm615.31,1.15c-14.21.21-51.85.05-75.18.12C1284.83,202.09,1312.13,202.14,1339.37,202.2Zm-805.91.86c15.07-.08,14.11.11,27,.07C556,203.32,530.85,203.41,533.46,203.06Zm976,71.79c-21.34.18-36.77,0-64.42.11a7.56,7.56,0,0,1,1.09,0l2.69,0,6.88,0a51.22,51.22,0,0,0-5.54-.09C1456.09,274.64,1491.9,274.7,1509.49,274.85Zm277.73-1.35c-6.23-.07,3-.24-21.76-.16-.65.24,23.59.24-5,.26,1.83.12,13.58.07,21.64.08-2.25.08-4.47.16-10.49.18,2.1.12,9.5,0,10.64-.09,17.08.3-21.61.46-36.83.54-13.39,0-2-.3-.57-.35-20.64.07-30.65.15-32.66-.25,13.76,0,6.69.06,5.67.17,17,0,18.72-.16,37.51-.1-28.29-.49-133.58-.2-150.6.06-2,.16-26-.28-37.66,0,4.43.22,17.65.29,38.08.25,7.4.17-50.61.06-69.79.11.34-.16,17.68-.07,15.74-.27-17.38-.07-16.6.14-21.13.27l-349.86,0c20.17.17-.93.2-15.73.27-2.21-.15,4-.17,10.49-.18-4.31-.12-12.19-.11-19-.06s-12.71.16-13,.25c-9.86-.17-18.88-.13-37.91-.16-58.63-.08-36.19.05,32-.19-18.36-.19-59.08,0-86.17-.05,7.37-.33,17.41-.24,32.12-.1-28.43-.83-136,0-210.4-.35,26.07.24,73.05.12,113.23.13-9.71.29-21.64.06-42.91.1,14.44.63,94.48-.19,113.78.48l-431.25-.44c-11.83.06-7.91-.16-16.42-.16-106.79.52-197.58-.18-349.82,0,3.74.33-18.16-.05-32,.19-14.69-.07,12-.2,10.22-.35-46.24.09-52.23.5-107.43.13,26.91-.07,43.57.09,59.15,0l-174.65,0c0-18.08,0-31.4,0-43.34,0,14.32-.07,30.56-.09,43.47H40.05l-25.77,0c0-3,0-6.83,0-10.95,0-16-.16-32.48-.11-59.06,0-1.94,0-3.3,0-4.23s0-1.52.05-1.73c0-.42.05.41.07,1.23,0,1.66.09,3.2.17-4.95v-.56l106.66-.16c31.5-.06,60.88-.14,90-.35-1.11.18-23.59,0-26.61.18,15.1.3,46.56-.18,59.27.07,7.28,0,4.13-.23,4.86-.36,23.46.1,13.05-.1,37.51-.1-4.65.16-19.57.15-21,.36,56.45,0,123.58.14,188.24-.08-1-.1-9.9-.07-16.28-.08,12.47-.33,52.8.12,80.55-.12-28.44-.34-117.22,0-161.9-.28-50.49-.11,64.07-.13,80.54-.13,133.14.05,267.88.51,420.31.36-30.33.41-107.12.11-155.69.24,12,.32,69.3-.1,65.08.32,16.72,0,15-.28,37.36-.19-1.7.12-9.23.14-10.34.27,22.66-.12,28.92,0,53.79,0-1.83-.12-13.57-.07-21.63-.08,14-.17,73.41-.16,53.9.06,165.28-.08,379.58.81,587.29.46-3.66-.21-33.05,0-37.9-.16-10.67-.06,35.69-.08,43,0-8.85-.38-66.89-.22-91.84-.22l-80.66,0c75.8-.44,160.75-.26,257.86-.28-3.15.08-12,.33,5.81.26-14.2.21-51.83.05-75.18.12l167.15.19c-2.58-.19-28.56,0-32.55-.16,67.27,0,185.3.24,226.17.08,10.79-.21,58,.6,76.38.67,31.34.13,83.87-.43,97.47.4-4.88-.06-12.29-.09-21.63-.08,8,.23,31.25.19,38.32.43-20.61-.35,78.36-.57,75.15-.12,18.82-.18,24.72-.11,42.76-.2-2.82.13-8,.22-15.73.27,7.69.22,37.93.53,48.66.16,23.22.08,21.63.59,59.86.41,6.27.53,30.59.74,60.53.86-4.31.21-37.48,0-42.75.19,26,.2,17,.52,44,.59-.54.06-4.51.09-8.38.09l-5.28,0c-1.45,0-2.42,0-2.49-.06-5.68.07-.6.15,6.15.23l10.24.14c3.13,0,5.27.09,5.73.15l2,0c0,6.17.06,10.85.08,14.71s0,7,0,10v21.26c-.12-12.8-.27-28.2-.44-45.59l-101.19.47-103.11.26c-13.75-.1-30.72-.14-38.18-.34-10.18,0-13.24.2-26.64.19,1.29.12,22.6.15.3.17,10.61.07,41,.25,43.27.16-.64.19-14.12.3-32,.36l-58.83,0c-40.92.18-79.76.59-133.91.4l-20.82.45c39.46-.13,92.74,0,117.76-.4-11.72.41,21,.15,38.08.25-31.67.45-119.67,0-161,.33,45.39.24-44.65,1.05-79.83.56-.18.06-3.71.13-9.41.2l-22.35.16c2.22-.11,6.62-.18,15.88-.18-43.92-.42-119.4-.29-188.77-.27,2.85-.36,35.21-.26,58.76-.29-151.32-.27-377.64.57-558.92.49L977,201c-16.69,0-21.3-.23-32.81-.34l-215.41-.08c-6.08,0-2.84.09.15.08l-269.19-.06c105.29-.18,270.63-.15,403.49-.08-70.56-.53-171.81-.21-269.46-.24l-183.11-.1c-60.68,0-129.21.24-161.48,0l-227.95.06v66.59l254.07-.08c-11.54-.12-53.19-.05-86.15-.05,11.9-.16,59-.17,96.66-.13,16.45,0,75.61.09,43.3.16-24.92.06-32.66-.11-48.42,0,64.91.14,122.34.13,145.21-.06,39.49.39,160,0,258.43.07h435.92c8.39,0-5-.15,5.12-.17l21.9.25c8.39,0,4.17-.28,21.25-.18a9.22,9.22,0,0,1-1.09,0l-2.68,0-6.87,0c40.12.24,111.29-.05,140.53.38,16.9-.45,100.83,0,150.45-.15,1.14.56-24.12.17-48.12.19,56.42.4,68.89.05,145.74.29-25.11-.2-51.48-.37-92-.31,36-.53,109.91-.08,156.11,0-17.58-.2-38.14-.36-59.95-.5,42-.14,79.49.83,124.77.65-34.55.26-66.34-.24-107.58.05,88.07.51,183.38.45,265.45,1.12,16.66.05,10-.25,26.64-.19-13.87.26,17.53.3,27.54.43-2.6.15-26.07-.09-37.75-.08-4.44.35,28.46.06,32.68.25-9.4.25-32.56,0-43.17-.07.17.06,3.29.13,8.3.2l19.66.22c15.48.12,34.33.19,48.12.08-11.84.66,49.44.59,65.62.67-5.4.2-33.74.05-48.24.11l27.29.25c-5.09.51-40.09.22-53.1.46,27.21.2,65.18.21,97.36.31-3.66-.17-27.21,0-22-.34l63.36.35,24.79.2,7.33.13a16.63,16.63,0,0,1,2.68.16c-6.08,0-2.85.09.12.09-42.37.14-81.92-.38-129.33-.13,10,.29,23.52,0,48.55.07-23.68.34,5.87.08,5.89.35-31,.14-36.22-.22-53.9-.07-1.26.16,5.36.18,5.49.09-31.56.68-149.5.5-203,1,11.09.19,33.32-.16,43.33.16-.17-.22,3.84-.22,11.89-.19s20.17.1,36.23,0C1831.63,273.19,1801.57,273.1,1787.22,273.5Zm77.71-79.41c15.13,0,31.43.41,43.3.16C1893.24,194.26,1875.62,193.85,1864.93,194.09Zm-297,6.26c-24.06.07-42.61-.23-53.63.11C1533.38,200.51,1570.32,200.51,1567.9,200.35Zm-585.82.5c-.75-.08,14.76-.09,32.81-.06l48,.12c-19-.28-80.18-.3-107.81-.13C963.11,200.77,977.55,201.09,982.08,200.85ZM1277,274.15l-.42-.26c-12.31-.07-35.84.11-21.24.18C1259.62,273.81,1263.73,274.27,1277,274.15Zm-151.14-.29c19.24.09,27.63.37,59.57.24C1164.45,273.69,1153.36,274,1125.86,273.86Zm182.72-.16c1.44-.26-56.87-.27-48.54-.07C1271.64,273.74,1300,273.82,1308.58,273.7Zm-495.33-.15c-17.59.28-47.23-.16-53.37.29C790,273.9,817.14,273.83,813.25,273.55Zm844.53-.26c4.22,0,6.35.07,5.63.18,24.27,0,45.54-.26,64.54,0C1725.2,273.09,1660.71,273.34,1657.78,273.29Zm-764,.14-59.18,0c-.33.22-9.85.28,5.91.35C837.55,273.41,902.06,273.62,893.79,273.43Zm-182.72.17c8.66.36,29.12.11,43.42.24a44.93,44.93,0,0,0-5.23-.16l-12.71,0C726.83,273.66,715.85,273.68,711.07,273.6Zm1040.77-79.55c24-.14,48.25.24,53.67-.11C1791.1,194,1739.92,193.88,1751.84,194.05Zm351.24.9c-16.27.07-46.53-.09-53.66.11C2076.47,195,2088,195.31,2103.08,195Zm-15.34.54c-17.38-.12,21.93-.05,15.73-.27-29.43.15-53.22-.06-75.15.12C2048.52,195.32,2071.86,195.72,2087.74,195.49ZM802.91,266.89c16.27-.06,46.5.1,53.63-.11C840.28,266.85,810.07,266.69,802.91,266.89Zm850.21-67.1c9.58,0,26.81-.1,21.81.16,26.73,0,82.85,0,69.36-.37C1734.35,199.91,1684.16,199.43,1653.12,199.79Zm279.41-.29c-62.32,0-40.57.46,0,0ZM874,200.55l21.26,0,7.64-.05a28.27,28.27,0,0,0,3.1-.12c-7.54,0-16.82,0-24.28,0l-9.38,0c-2.37,0-3.85,0-4,.05C872.53,200.39,874.69,200.45,874,200.55Zm963.52.13c-6.54,0-3.45-.1-.27-.18-16.46-.05-46.15.13-53.94-.06,18.34-.05,6.5-.24,26.79-.1a22.66,22.66,0,0,0-2.67-.13l-6.71-.08-20.55-.06c-15.22,0-31.23.08-34.76.21,11.23,0,35.17-.13,37.78.07-22.5,0,3.59.27-15.61.36C1791.64,200.75,1830.59,200.83,1837.49,200.68ZM447.54,266.78c3.95-.33,50.52-.1,53.52-.2C514.36,267,460,266.52,447.54,266.78ZM324.19,193.06c6.21-.34,22.09,0,37.4-.19-.72.1,1.4.15,5.63.17C361.35,193.17,344.21,193.09,324.19,193.06Zm1378,81.09c-.43.05-1.76.07-3,.06s-2.35,0-2.4-.06c-14,.1-32.84.12-53.63.11,1.73-.25,30.47,0,15.85-.18.48-.22,18.15,0,21.51,0,4.73,0,9.53-.08,10.49-.18-.69-.17-24.81.17-11-.17-17.56-.1-3.66.29-21.24.19,3-.3,25.38-.29,48-.29C1699.51,273.85,1694.3,274.05,1702.15,274.15ZM13.45,215.64a14.68,14.68,0,0,1,.23,3.08c.06,2,.11,4.82.15,8.48.07,7.32.09,17.85.07,30.78-.15,11.68,0-43.09-.36-37.1,0,23.17.06,43.16.08,53.56l193,.07c3.81.34-29.39.11-42.79.19-.24-.06,6.84-.1,10.64-.09h-161C13.44,254.33,13.45,234.38,13.45,215.64Zm2095.41,57c-41.87-.13-78.22-.34-21.94-.25,15.43,0,26.4.19,48.69.15,1.11.07-2,.08-5.25.09a50.42,50.42,0,0,0,5.52.09c-17.83.24-44.5-.14-70.05-.06C2075.36,272.42,2091.53,272.78,2108.86,272.67ZM1277.1,193.28c15.43-.16-26.16.39-37.55.1C1249.08,193.25,1256,193.35,1277.1,193.28Zm890.23,1.47c6.29,0,9.55,0,10.63-.09,14.77,0,5.54.33,16.69.34,0,0-.56,0-1.45,0h-3.61l-10.49,0C2171.71,195,2165,194.89,2167.33,194.75Zm-340,73.39c-16.48.3-26.82-.26-48.72-.16C1793.15,267.71,1808.89,268.18,1827.37,268.14Zm-487.18-1.82c6.71,0,5.16-.18-.27-.17l91.57.05c-9.5.28-64.54-.15-58.64.37C1360.36,266.55,1314.9,266.15,1340.19,266.32Z"/></g></g></svg>