<svg xmlns="http://www.w3.org/2000/svg" viewBox="0 0 985.06 11.52"><defs><style>.cls-1{fill:#3c1642;}</style></defs><g id="Layer_2" data-name="Layer 2"><g id="Layer_7" data-name="Layer 7"><g id="Layer_1-2" data-name="Layer 1"><path class="cls-1" d="M805.92,11.51c3.1,0,8.59.05,11.13-.11C807.62,11.31,790.38,11.5,805.92,11.51Zm42.39-.17a75,75,0,0,1,7.75-.19C856,11.4,851.46,11.32,848.31,11.34Zm-53.61,0c-6,.11-10.55.1-17.86,0,2-.07,3-.23,5.5-.27C779,11.51,792.89,11.11,794.7,11.36Zm65.82-.22c.26-.18,4.14-.09,4.4-.27-.35-.23-1.89.12-4.47,0,1.86-.15,4-.28,7.72-.28-1.21.11-.91.18,1.18.17C869.34,11.11,864.6,11.1,860.52,11.14ZM760,11.16c-3.77.19-13.8.13-17.85,0C747,10.93,754,11.24,760,11.16ZM801.28,11c-1.11.11-11.66.24-11.19-.07C795,10.85,796.83,11,801.28,11Zm-1.2-.27c-.9-.42,17.65-.08,26.74-.22C818.46,11,809.17,10.51,800.08,10.73ZM700.76,11h-6.7c-1.15-.31,4.36-.13,6.64-.19A1.27,1.27,0,0,1,700.76,11Zm-11.21-.15c-1.78.11-13.28.26-13.43-.07Zm-118.42,0c3.66-.31,14.54-.22,22.27-.22C586.37,10.82,581.07,10.77,571.13,10.84ZM465,10.79c1.51-.51,11.89.08,20.06-.13C484.9,10.85,470.74,10.73,465,10.79Zm-23.44,0c3.42-.5,12.43-.12,16.68-.21C457,11,446.6,10.72,441.57,10.83ZM879,9.61c7.41-.39,15.15.26,23.44,0C900,10,887.79,9.58,879,9.61ZM523,10.5c2.68-.18,7.22-.21,12.22-.2C533.09,10.51,527.87,10.49,523,10.5ZM985,9.31c-4.27-.1-6.17.06-11.18-.06C975,9.13,985.52,9,985,9.31ZM19,6.23c-4.94.26-13.22,0-19,0C3.2,5.88,13.53,6.23,19,6.23ZM859.22,3.6c-.19-.16,1.3-.19,1-.35,4.46.32,12.15.37,18,.58C872.85,4.09,868.6,3.72,859.22,3.6Zm54.56-.55c-1.49.08-7.63.18-11.17,0A111.18,111.18,0,0,1,913.78,3.05ZM799.7,2.58c-4.51.37-15.57-.13,0,0ZM25,4.12c-.9.18-7.73.11-8.93,0C17.77,3.89,21.13,4.25,25,4.12Zm703.2-1.57c2.79-.26,5.3-.1,10-.11C735.37,2.59,731.27,2.64,728.19,2.55ZM60.66,3.87c-1.85.21-8.51,0-12.25.11,7.3-.27,10.33-.38,20-.39-1.86.3-6.16,0-11.1.2A30.61,30.61,0,0,0,60.66,3.87ZM676.84,2.65c7.5-.39,15.24-.23,26.71-.32C695.64,2.69,688.61,2.58,676.84,2.65Zm-175.29.26c5.47-.43,16.11,0,24.54-.14C519.56,3.07,513,2.8,501.55,2.91Zm296.79-1c-3.67.21-12.24.06-17.83.12C784.2,1.79,792.77,2,798.34,1.88Zm-452.25.37c2.2-.42,7.22-.15,13.34-.2C358.64,2.19,351,2.46,346.09,2.25ZM218.38,1.1c3-.21,10.76-.05,15.6-.12C229.7,1.21,224,1.16,218.38,1.1ZM385.65.24c-3.13.08-2.93-.11-5.6-.07C381,0,386.19-.11,385.65.24ZM816.94,11.05c-4.43.19-7.63,0-13.37.12a13.76,13.76,0,0,1,2.21-.1c.18-.07-.46-.08-1.15-.08C805.86,10.85,813.29,10.91,816.94,11.05Zm57.64-1.34c-1.29-.08.62-.25-4.51-.17-.14.25,4.89.25-1,.27.38.12,2.82.07,4.49.08a12,12,0,0,1-2.18.18,7.14,7.14,0,0,0,2.21-.1c3.54.3-4.49.46-7.64.55-2.78,0-.43-.3-.12-.36-4.29.08-6.36.16-6.78-.24,2.85,0,1.39.06,1.17.17,3.54,0,3.89-.17,7.79-.1-5.87-.49-27.72-.2-31.26.06-.4.16-5.4-.29-7.81,0a48.86,48.86,0,0,0,7.9.25c1.54.18-10.5.07-14.48.12.06-.17,3.67-.07,3.26-.27a14.12,14.12,0,0,0-4.38.27c-25.13,0-45.24.09-72.62,0,4.19.17-.19.19-3.26.27-.46-.15.82-.17,2.17-.18a30.42,30.42,0,0,0-6.64.19c-2-.17-3.92-.14-7.87-.16-12.17-.08-7.51,0,6.64-.19-3.81-.2-12.26,0-17.89-.05a29.2,29.2,0,0,1,6.67-.11c-5.9-.82-28.23,0-43.67-.35,5.41.25,15.16.13,23.5.13-2,.3-4.49.07-8.9.11,3,.63,19.61-.19,23.61.48-32.36-.13-60.24-.44-89.51-.44-2.45.05-1.64-.16-3.4-.17-22.17.52-41-.17-72.61,0,.78.33-3.77-.05-6.64.19-3-.07,2.48-.2,2.12-.36-9.6.1-10.84.5-22.3.14,5.59-.07,9,.09,12.28,0-13-.11-31.82-.06-43.57,0,8.26.2,19.9,0,6.76.16-3.31,0-6.74.16-12.26.11-2-.17.79-.17-1.22-.34-15.62.18-28,.08-40.05.51.23-.18,4.9,0,5.53-.18-3.14-.3-9.67.18-12.3-.07-1.52,0-.86.23-1,.36-4.87-.1-2.71.1-7.79.1,1-.16,4.06-.15,4.36-.36-11.72,0-25.65-.15-39.07.08a30.61,30.61,0,0,0,3.37.08c-2.58.33-10.95-.12-16.71.12,5.9.34,24.33,0,33.6.28,10.48.11-13.3.13-16.72.13-27.63-.05-55.6-.51-87.23-.36,6.29-.41,22.23-.11,32.31-.24-2.48-.32-14.39.1-13.51-.32-3.47,0-3.1.28-7.75.19.35-.12,1.91-.14,2.14-.27-4.7.12-6,0-11.16,0,.38.12,2.82.07,4.49.08-2.9.17-15.24.16-11.19-.06-34.3.08-78.78-.81-121.89-.46.76.2,6.86,0,7.86.16,2.22.06-7.4.07-8.93,0,1.84.38,13.88.22,19.06.22s10.76-.07,16.75,0c-15.74.44-33.37.26-53.53.28.66-.08,2.5-.33-1.2-.26,2.95-.21,10.76,0,15.6-.12-10.91-.12-24.14-.05-34.69-.19.54.19,5.93,0,6.76.16-14,0-38.46-.24-46.95-.08-2.24.21-12-.6-15.85-.67-6.5-.13-17.41.43-20.23-.4,1,.06,2.55.09,4.49.08-1.65-.23-6.49-.19-8-.43,4.27.35-16.27.57-15.6.12-3.91.18-5.13.11-8.88.2A20.92,20.92,0,0,1,52,8.19,56.69,56.69,0,0,0,41.9,8c-4.82-.08-4.49-.59-12.43-.41-1.3-.53-6.35-.74-12.56-.86.9-.21,7.78,0,8.87-.19-5.39-.2-3.53-.52-9.13-.59A15.74,15.74,0,0,1,20,6c2.35-.14-4.22-.31-4.64-.52-5.64.21-5.67,0-10,.11,12.16-.77,35.52-1,52.13-1.16,2.86.1,6.38.14,7.93.34,2.11,0,2.75-.2,5.53-.19-.27-.12-4.69-.15-.07-.17-2.2-.07-8.51-.25-9-.16.27-.38,11.19-.43,18.87-.39,8.49-.18,16.55-.59,27.79-.4,1.5-.15,3.07-.29,4.32-.45-8.19.13-19.25,0-24.44.4,2.43-.41-4.35-.15-7.9-.25,6.57-.45,24.84,0,33.4-.33-9.42-.24,9.27-1,16.57-.56a49.76,49.76,0,0,1,6.6-.36,17.18,17.18,0,0,1-3.3.18c9.12.42,24.78.29,39.18.27-.59.36-7.31.26-12.2.29,31.41.27,78.38-.57,116-.49,5.81,0,11.72.17,16.8.14,3.47,0,4.43.23,6.81.34,18.46-.08,27.9,0,44.71.08,1.26,0,.59-.09,0-.09,16.58-.1,40.42.08,55.87.07-21.85.18-56.17.15-83.74.08,14.64.53,35.66.21,55.93.24,13,0,25.94.08,38,.1,12.6,0,26.82-.24,33.52,0C489.5,3,521.11,3.13,560.77,3c-2.39-.13-11-.06-17.88-.06,2.47-.15,12.24-.16,20.07-.12,3.41,0,15.69.09,9,.15-5.17.06-6.78-.1-10.05,0,13.47.14,25.4.14,30.14-.06,8.2.4,33.21,0,53.64.07,27.43,0,58.68-.21,90.48,0,1.74,0-1-.15,1.06-.18,3.12.16,1.29,0,4.55.25a28.93,28.93,0,0,1,4.41-.18A14.34,14.34,0,0,1,744,3c8.33.25,23.1-.05,29.17.38,3.5-.44,20.92,0,31.22-.15.24.57-5,.18-10,.2,11.71.39,14.3.05,30.25.29-5.21-.2-10.68-.38-19.09-.31,7.46-.54,22.81-.09,32.4,0-3.65-.21-7.91-.37-12.44-.5,8.72-.15,16.5.82,25.9.65-7.17.25-13.77-.25-22.33,0,18.28.52,38.06.46,55.09,1.12,3.46.06,2.07-.24,5.53-.18-2.88.26,3.64.29,5.72.42-.54.16-5.41-.08-7.84-.07-.92.35,5.91,0,6.79.25-2,.24-6.76,0-9-.07.14.22,10.06.72,15.79.49-2.46.67,10.26.59,13.62.68-1.12.2-7,0-10,.11,1.41.12,4.31.12,5.67.25-1.06.51-8.32.22-11,.46,5.65.19,13.53.2,20.2.31-.75-.18-5.64,0-4.57-.34,7.92.27,20.35.38,20.37.83-1.26,0-.59.09,0,.09-8.8.14-17-.38-26.85-.12,2.08.29,4.89,0,10.08.07-4.91.33,1.22.08,1.22.35-6.44.14-7.51-.22-11.18-.07-.27.16,1.11.18,1.13.09-6.55.68-31,.49-42.13,1,2.3.19,6.91-.17,9,.15-.07-.44,3.32,0,10-.19C883.8,9.4,877.56,9.31,874.58,9.71ZM109.3,9.21c-3.15,0-6.53-.41-9-.16C103.42,9,107.08,9.45,109.3,9.21ZM171,3c5-.07,8.84.22,11.13-.11C178.11,2.79,170.44,2.79,171,3Zm121.59-.5c.31.17-12.88,0-16.78-.06,3.95.28,16.64.3,22.38.13C296.47,2.53,293.47,2.21,292.54,2.45Zm476.15,7.91c0-.09-.06-.18-.09-.27-2.56-.06-7.44.12-4.41.19C765.08,10,765.93,10.48,768.69,10.36Zm-31.37-.29c4,.09,5.73.37,12.36.24C745.33,9.9,743,10.25,737.32,10.07Zm37.92-.16c.3-.26-11.8-.28-10.07-.07C767.57,9.94,773.45,10,775.24,9.91ZM672.43,9.76c-3.65.27-9.8-.17-11.07.28C667.61,10.11,673.24,10,672.43,9.76ZM847.72,9.5c.88,0,1.32.07,1.17.17,5,.05,9.45-.26,13.39,0C861.71,9.3,848.33,9.54,847.72,9.5Zm-158.57.14-12.28,0c-.07.22-2,.28,1.22.35C677.48,9.62,690.87,9.83,689.15,9.64Zm-37.93.16c1.8.36,6,.12,9,.25C660.34,9.71,653.21,10,651.22,9.8ZM132.77,9.25c-5,.14-10-.24-11.14.11C124.62,9.32,135.24,9.42,132.77,9.25Zm-72.9-.9c3.37-.07,9.65.09,11.13-.11C65.39,8.31,63,8,59.87,8.35Zm3.18-.54c3.61.12-4.55.05-3.26.27,6.1-.15,11,.06,15.59-.12C71.19,8,66.35,7.58,63.05,7.81ZM670.29,3.1c3.37-.06,9.65.09,11.13-.11C678,3.05,671.77,2.9,670.29,3.1Zm-517,.41c-2,0-5.57.1-4.53-.16-5.55,0-17.19,0-14.4.37C136.4,3.39,146.82,3.87,153.26,3.51Zm-58,.29c12.94,0,8.43-.46,0,0ZM315,2.75c-3,0-6.59,0-6.64.19,3.13-.1,7.71.13,7.81,0C315.27,2.91,314.83,2.85,315,2.75ZM115,2.62c1.36,0,.72.1.06.18,3.41.05,9.58-.13,11.19.06a52.11,52.11,0,0,1-5.56.1c.13.4,12,.31,13.43.06-2.33,0-7.3.13-7.84-.07,4.67,0-.75-.28,3.24-.36C124.51,2.55,116.42,2.47,115,2.62ZM596.53,3c.82-.33,10.48-.09,11.11-.2C610.4,3.18,599.11,2.73,596.53,3ZM429.08,10.24c-1.28.34-4.58,0-7.76.19.15-.1-.29-.15-1.17-.17C421.37,10.13,424.93,10.21,429.08,10.24Zm427.85.12a2.78,2.78,0,0,1-1.12,0c-2.9.1-6.82.12-11.13.11.36-.26,6.32-.05,3.29-.18.1-.22,3.77,0,4.46,0a12,12,0,0,0,2.18-.18c-.14-.17-5.15.16-2.29-.17-3.64-.1-.76.28-4.41.18.62-.29,5.27-.29,10-.28C856.38,10.06,855.3,10.26,856.93,10.36Zm-360.64.45c0-.37,3.42-.48,8.79-.45,2.42.15-8.95,0-7.7.36,21.56-.19,28.5-.05,49.15,0,.79.35-6.11.12-8.89.19a14.42,14.42,0,0,1,2.21-.09C530.39,10.68,511.29,10.87,496.29,10.81ZM941.34,8.87c-8.69-.13-16.23-.33-4.55-.25,3.2,0,5.48.19,10.11.16.23.07-.41.08-1.09.09-.18.07.46.08,1.14.08-3.7.24-9.23-.13-14.54-.06C934.39,8.62,937.75,9,941.34,8.87ZM231.3,10a71.92,71.92,0,0,1,7.8-.1C237.12,10.05,235.68,10,231.3,10ZM46.53,8.55a11.51,11.51,0,0,0-2.21.09c-3.06,0-1.15-.33-3.46-.34C40.92,8.18,47.51,8.28,46.53,8.55ZM882.92,4.34c-3.42.31-5.57-.25-10.11-.15C875.82,3.92,879.08,4.38,882.92,4.34ZM781.8,2.53c1.39,0,1.07-.18,0-.18,5.33,0,12.11,0,19,0-2,.28-13.39-.14-12.17.38C786,2.76,776.55,2.36,781.8,2.53Z"/></g></g></g></svg>