<svg xmlns="http://www.w3.org/2000/svg" viewBox="0 0 434 416.44"><defs><style>.cls-1{fill:#fff;}</style></defs><g id="Layer_2" data-name="Layer 2"><g id="Capa_1" data-name="Capa 1"><path class="cls-1" d="M219.24,47a32.84,32.84,0,1,0,32.84,32.84A32.84,32.84,0,0,0,219.24,47Zm0,45.68a12.84,12.84,0,1,1,12.84-12.84A12.84,12.84,0,0,1,219.24,92.7Z"/><path class="cls-1" d="M423.92,349.44H398v-200h17.84c5.52,0,10.16-4,10.16-9.57V94.19A10.08,10.08,0,0,0,419.86,85L223.21.81a10,10,0,0,0-7.89,0L18.89,85A9.85,9.85,0,0,0,13,94.19v45.68a9.33,9.33,0,0,0,9.09,9.57H41v200H10.1A10,10,0,0,0,0,359.3v47.58c0,5.52,4.57,9.56,10.1,9.56H423.9c5.52,0,10.1-4,10.1-9.56V359.32A10,10,0,0,0,423.92,349.44ZM33,129.44V100.79L219.5,20.88,406,100.79v28.65Zm345,20v200H329v-200Zm-69,0v200H261v-200Zm-68,0v200H193v-200Zm-68,0v200H125v-200Zm-68,0v200H61v-200Zm309,247H20v-27H414Z"/></g></g></svg>