<?xml version="1.0" encoding="iso-8859-1"?>
<!-- Generator: Adobe Illustrator 19.0.0, SVG Export Plug-In . SVG Version: 6.00 Build 0)  -->
<svg version="1.1" id="Capa_1" xmlns="http://www.w3.org/2000/svg" xmlns:xlink="http://www.w3.org/1999/xlink" x="0px" y="0px"
	 viewBox="0 0 434 434" style="enable-background:new 0 0 434 434;" xml:space="preserve">
<g>
	<g>
		<path d="M219.239,55.804c-18.137,0-32.84,14.703-32.84,32.84s14.703,32.84,32.84,32.84s32.84-14.703,32.84-32.84
			C252.059,70.516,237.368,55.825,219.239,55.804z M219.239,101.484c-7.091,0-12.84-5.749-12.84-12.84
			c0-7.091,5.749-12.84,12.84-12.84c7.091,0,12.84,5.749,12.84,12.84C232.071,95.732,226.327,101.476,219.239,101.484z"/>
	</g>
</g>
<g>
	<g>
		<path d="M423.919,358.219c-0.006,0-0.013,0-0.019,0H398v-200h17.842c5.522,0,10.158-4.042,10.158-9.564v-45.68
			c-0.033-4.015-2.446-7.627-6.143-9.193L223.215,9.588c-2.52-1.077-5.372-1.077-7.892,0L18.892,93.782
			c-3.639,1.595-5.963,5.221-5.892,9.193v45.68c-0.131,5.152,3.94,9.435,9.092,9.566c0.182,0.005,0.363,0.004,0.545-0.002H41v200
			H10.1c-5.511-0.067-10.033,4.347-10.1,9.859c0,0.006,0,0.013,0,0.019v47.56c0,5.523,4.574,9.562,10.1,9.562h413.8
			c5.523,0,10.1-4.039,10.1-9.562v-47.56C433.944,362.586,429.431,358.163,423.919,358.219z M33,138.219v-28.648l186.5-79.912
			L406,109.571v28.648H33z M378,158.219v200h-49v-200H378z M309,158.219v200h-48v-200H309z M241,158.219v200h-48v-200H241z
			 M173,158.219v200h-48v-200H173z M105,158.219v200H61v-200H105z M414,405.219H20v-27h394V405.219z"/>
	</g>
</g>
<g>
</g>
<g>
</g>
<g>
</g>
<g>
</g>
<g>
</g>
<g>
</g>
<g>
</g>
<g>
</g>
<g>
</g>
<g>
</g>
<g>
</g>
<g>
</g>
<g>
</g>
<g>
</g>
<g>
</g>
</svg>
