<svg xmlns="http://www.w3.org/2000/svg" viewBox="0 0 502.2 351.1"><defs><style>.cls-1{fill:#fff;}</style></defs><g id="Layer_2" data-name="Layer 2"><g id="Capa_1" data-name="Capa 1"><path class="cls-1" d="M501.5,192.6c-1.8-13-15.2-23.4-40.3-31-20.3-6.1-46-9.8-74-10.4V44.5a9.34,9.34,0,0,0-2.1-6c-3.3-11.6-16.7-21-39.9-28C322.7,3.7,293.3,0,262.4,0s-59.9,3.7-81.9,10.5c-18.1,5.6-39.8,16-39.8,33.9a18.41,18.41,0,0,0,.3,3.3l1.1,45.6C77.2,80.8,14.5,123.5,2.1,188.5a119.68,119.68,0,0,0,117.6,142,120.07,120.07,0,0,0,75.5-26.8c18.8,4.4,40.8,6.8,64.1,7,5.1,27.7,65.1,40.4,121.1,40.4,30.8,0,59.8-3.8,82-10.7,18.2-5.6,39.8-16.1,39.8-34V196.5A10.36,10.36,0,0,0,501.5,192.6Zm-315-163c20.2-6.2,47.2-9.7,76-9.7,28.6,0,56.6,3.5,77,9.7,21.7,6.6,26.4,13.4,26.4,14.8s-4.7,8.3-26.5,14.8c-20.3,6.1-48.3,9.7-76.9,9.7-27.6,0-53.8-3.2-73.7-9-21.5-6.2-27.5-13.1-28-15.3,0-.2,0-.3-.1-.3C160.8,42.9,165.4,36.1,186.5,29.6ZM367.2,69.4V95a8.09,8.09,0,0,0-1.3,4.8c0,1.3-4.7,8.2-26.5,14.8-20.3,6.1-48.4,9.7-77,9.7-24.7,0-48.9-2.6-68.1-7.5-.3-.1-.5-.1-.8-.2a118.08,118.08,0,0,0-31.3-17.7l-.7-28.2A110.79,110.79,0,0,0,183.1,79c21.7,6.3,49.8,9.7,79.3,9.7,30.9,0,60.3-3.7,82.7-10.5A108.39,108.39,0,0,0,367.2,69.4ZM186.8,284.5a99.67,99.67,0,1,1-67.1-173.4,102.52,102.52,0,0,1,29.6,4.4,100.59,100.59,0,0,1,68.2,75.1,104.58,104.58,0,0,1,2,20.1A99.44,99.44,0,0,1,186.8,284.5Zm25.4,2.2a120.75,120.75,0,0,0,19.2-32.9c8.5.7,17.5,1.2,26.7,1.3v1.8l.5,33.9A314.91,314.91,0,0,1,212.2,286.7Zm26.6-87.8c5.9.4,12,.6,18.2.7,0,.2.1.5.1.7l.6,34.7q-10.65-.15-20.7-.9a122.93,122.93,0,0,0,2.3-23.4A94,94,0,0,0,238.8,198.9Zm24.6-19.2h-.9c-9.6,0-18.9-.4-27.5-1a118.55,118.55,0,0,0-17.9-37.2,360.16,360.16,0,0,0,45.3,2.9c30.9,0,60.3-3.7,82.8-10.5a128.54,128.54,0,0,0,22-9v26.5C324.2,152.6,279.8,161.6,263.4,179.7Zm13.4,15.4c1-2.8,8.3-9.3,28.8-15.1,19.5-5.5,44.9-8.5,71.6-8.5h1.3c28.6,0,56.6,3.3,77,9.5,21.1,6.4,26.1,12.8,26.4,14.5v.1c-.1,1.5-5.1,8.4-27.3,15-20.5,6.1-47.5,9.4-76.1,9.4-27,0-52.8-3.1-72.6-8.6-19.1-5.4-26.8-11.5-28.7-14.6A8.47,8.47,0,0,0,276.8,195.1ZM482.2,306.4c0,1.4-4.5,8.3-25.7,14.9-20.3,6.3-47.3,9.8-76.1,9.8s-55.9-3.4-75.9-9.5c-21.2-6.5-25.5-13.2-25.5-14.7v-.2l-.5-28.9c23.8,12.1,63.5,17.6,99.9,17.6,30.9,0,60.1-3.7,82.5-10.5a116.53,116.53,0,0,0,21.3-8.8v30.3Zm-.9-55.4c0,1.4-4.6,8.2-26.2,14.8-20.5,6.2-47.7,9.6-76.7,9.6-54.9,0-92.1-12.3-100.3-22l-.2-8.6-.4-22.9a116.49,116.49,0,0,0,22.8,8.7c21.5,6,49.2,9.4,78,9.4,30.4,0,59.4-3.6,81.7-10.2a114.45,114.45,0,0,0,22.1-8.8v25.7h.1C482.2,248,481.3,249.5,481.3,251Z"/><path class="cls-1" d="M169.6,264.2a10,10,0,0,0-12.9-5.8v-.1a51,51,0,0,1-54.4-11.7,32.92,32.92,0,0,1-7.1-9.1h51.4a10,10,0,1,0,0-20H87.9a40.46,40.46,0,0,1-.3-11h64.2a10,10,0,0,0,0-20H93.5a58.94,58.94,0,0,1,8.7-11.8,51,51,0,0,1,54.4-11.5,10,10,0,1,0,7.2-18.6A71,71,0,0,0,88,160.7a68.73,68.73,0,0,0-16.5,25.9H57.3a10,10,0,1,0,0,20h10a67.37,67.37,0,0,0,.2,11H57.3a10,10,0,1,0,0,20H72.6A67.22,67.22,0,0,0,88,260.9a71,71,0,0,0,75.8,16.2A10,10,0,0,0,169.6,264.2Z"/></g></g></svg>