<svg xmlns="http://www.w3.org/2000/svg" viewBox="0 0 420.8 308"><defs><style>.cls-1{fill:#fff;}</style></defs><g id="Layer_2" data-name="Layer 2"><g id="Capa_1" data-name="Capa 1"><path class="cls-1" d="M413.6,147.6H378c14.8-33.6,13.2-60.8,7.6-79.2C376,35.6,343.6,0,295.6,0a112.53,112.53,0,0,0-38.8,7.2c-22.8,8.4-38,17.6-44.8,22.4-6.8-4.8-21.6-14-44.8-22.4A114.25,114.25,0,0,0,128.4,0c-48,0-80.4,35.6-90,68.4-5.6,19.6-7.6,49.2,11.2,86.4H6.4a6.4,6.4,0,1,0,0,12.8H57.2a84.44,84.44,0,0,0,7.2,10.8c41.6,60,132,125.2,148.4,129.2v.4a1.24,1.24,0,0,0,.8-.4h1.2v-.4c14-6.8,100.8-62.8,146.4-129.2a147.16,147.16,0,0,0,11.2-18h42a6.32,6.32,0,0,0,6.4-6.4C420.8,150,417.2,147.6,413.6,147.6Zm-64,23.6c-42.4,62-120.4,112-137.2,122.8-17.2-10.8-94.8-61.2-137.6-122.8l-2.4-3.6h58.8a6.6,6.6,0,0,0,6-3.6L164,111.2l42,107.6a6.55,6.55,0,0,0,6,4h.4a6.37,6.37,0,0,0,6-4.8L255.2,92l19.6,63.6A6.52,6.52,0,0,0,280,160a6.93,6.93,0,0,0,6.4-2.8L302,134.4l13.2,22.4a6.38,6.38,0,0,0,5.6,3.2h36C354.4,164,352,167.6,349.6,171.2ZM364,147.6H324.8l-16.4-28a6.38,6.38,0,0,0-5.6-3.2,6.05,6.05,0,0,0-5.6,2.8l-13.6,20-22-71.6c-.8-2.8-3.6-4.4-6.4-4.8a6.85,6.85,0,0,0-6.4,4.8L211.6,196,171.2,92.8a6,6,0,0,0-5.6-4,6.2,6.2,0,0,0-6,3.6l-31.6,62H64.4C48.4,125.2,44,97.2,51.2,72c8.4-28.4,36-58.8,77.6-58.8,11.2,0,22.8,2.4,34.4,6.4,29.2,10.8,44.8,23.2,45.2,23.2a6.08,6.08,0,0,0,8,0S232,30.4,261.6,19.6A96.7,96.7,0,0,1,296,13.2c41.2,0,69.2,30.4,77.6,58.8C380.4,95.2,376.8,120.8,364,147.6Z"/></g></g></svg>