<svg xmlns="http://www.w3.org/2000/svg" viewBox="0 0 512 427.06"><defs><style>.cls-1{fill:#fff;}</style></defs><g id="Layer_2" data-name="Layer 2"><g id="Capa_1" data-name="Capa 1"><path class="cls-1" d="M502,114.16a15,15,0,0,0,0-28.27L261,.85a15.11,15.11,0,0,0-10,0l-241,85a15,15,0,0,0,0,28.27l95.47,33.94V246c0,16.15,16.84,29.81,50.07,40.59,29,9.4,64.65,14.58,100.48,14.58s71.52-5.18,100.48-14.58c33.23-10.78,50.08-24.44,50.08-40.59V148.1l39.41-14V269.67a45.12,45.12,0,0,0,0,85.11v57.28a15,15,0,0,0,30,0V354.78a45.12,45.12,0,0,0,0-85.11V123.42ZM461,327.35a15.13,15.13,0,1,1,15.13-15.12A15.13,15.13,0,0,1,461,327.35ZM256,30.91l196.07,69.18L256,169.79,59.93,100.08ZM376.56,243.69c-2.88,2.9-13.17,9.84-36.4,16.47-24.78,7.07-54.67,11-84.16,11s-59.38-3.89-84.16-11c-23.23-6.63-33.52-13.57-36.4-16.47V158.77L251,199.84a14.95,14.95,0,0,0,10,0l115.53-41.07v84.92Z"/></g></g></svg>