<svg xmlns="http://www.w3.org/2000/svg" viewBox="0 0 401.93 473.43"><defs><style>.cls-1{fill:#3c1642;}.cls-2{fill:#086375;}</style></defs><g id="Layer_2" data-name="Layer 2"><g id="Layer_7" data-name="Layer 7"><g id="Layer_1-2" data-name="Layer 1"><path class="cls-1" d="M103.67,210.79c1.73-3.39,4.79-9.39,6.17-12.19C104.57,208.91,95,227.8,103.67,210.79Zm23.54-46.41c.52-1.13,2.3-4.65,4.27-8.51,0,0-.16.36-.42.89L130,158.87C129.15,160.55,128.08,162.65,127.21,164.38ZM97.4,223.05l-9.92,19.56c1.08-2.2,1.63-3.31,3-6.05C88.67,240.31,96.34,225,97.4,223.05ZM134,151c.11-.3,2.28-4.54,2.39-4.84-.25.35-1,2.08-2.49,4.89,1-2,2.15-4.38,4.24-8.48-.65,1.34-.47,1,.69-1.27a5.92,5.92,0,0,1-.41.91l-1.13,2.28ZM78.06,261c-2,4.14-7.64,15.11-9.92,19.54C70.76,275.25,74.76,267.56,78.06,261ZM101,215.81c-.59,1.23-6.43,12.79-6.24,12.25Zm-.73,1.29c-.59.93,9.8-19.33,14.82-29.29C110.52,197,105.26,207.12,100.25,217.1ZM45.09,325.83l-3.72,7.33c-.72,1.23,2.39-4.78,3.65-7.29Zm-6.27,12.25-4,8c-.86,1.71-1.71,3.36-2.33,4.59s-1.06,2-1.1,2.07C35.08,345.42,35.82,344,38.82,338.08Zm66.69,45.73c-4.49.08-17.85.05-27.33.05Zm130.29,0c-1.86.13-14.61,0-24.63,0H235.8Zm28.77,0c-4.19.13-15.26,0-20.47.05C245.69,383.76,258.4,383.84,264.57,383.81ZM143.9,130.57c4-8.16,8.49-16.56,13-25.66C155.67,107.62,148.77,121,143.9,130.57Zm20.71,253.32c-3.28.05-8.86.05-15,.05C152.21,383.89,158.63,383.9,164.61,383.89ZM202.79,14.5c-2.39,4.68-3.44,6.76-6.24,12.24C197.15,25.51,203,13.94,202.79,14.5Zm9.66,20.4c-2.8-5.38-7.35-14.46-10.56-20.76C203.76,17.6,209.42,28.94,212.45,34.9Zm-80.9,116.66c-.14.19.68-1.45.48-1.14l10.17-19.69C139.24,136.7,136.79,141.31,131.55,151.56Zm30.22-59.77c-.82,1.64-4.21,8.37-6.21,12.22C157,101.06,159.71,95.78,161.77,91.79ZM98.22,216.59c-2.42,5-8.68,17,0,0ZM216.27,41.25c-.54-1-4.32-8.46-5-9.77C212.31,33.31,214.1,37,216.27,41.25ZM58.45,294.85c1.49-3.08,2.92-5.81,5.55-11C62.45,287,60.19,291.49,58.45,294.85ZM236.16,80.25c-1.07-2-4.74-9.31-6.84-13.39,4.12,8,5.83,11.26,11.2,21.82-1.1-2-3.43-6.74-6.22-12.13C234.4,76.79,235.43,78.81,236.16,80.25ZM29.92,351.06c4.08-8.25,8.42-16.7,14.78-29.27C40.38,330.49,36.45,338.17,29.92,351.06Zm161,34.73c-6.71.11-19.77,0-30.12,0C168.83,385.75,176.83,385.82,190.93,385.79ZM97.31,218c-2,4-6.79,13.41-9.88,19.53ZM381.78,386c-2.69.11-8.86,0-16.37.06C366.38,386,375.81,385.9,381.78,386Zm-57.3-133.39c1.69,3.2,6,11.77,8.71,17.06C330.75,265,327.61,258.75,324.48,252.56Zm8.74,133.9,6.88,0C339,386.52,332.55,386.55,333.22,386.46ZM109.7,198.68c-2.46,4.85-4.23,8.36-7.41,14.65,0,0,.17-.38.42-.87l.79-1.57a12.45,12.45,0,0,0-.66,1.25C103.49,210.79,107.64,202.66,109.7,198.68Zm31.75-63.24c-.73,1.4.29-.7-2.54,4.92,0,.18,2.77-5.33-.52,1.16.24-.4,1.58-3.08,2.52-4.91-.25.52-.48,1-1.17,2.41.27-.47,1.09-2.16,1.2-2.43,2-3.85-2.39,5-4.13,8.43-1.54,3-.3.43-.14.09-2.37,4.69-3.5,7-3.83,7.39,1.59-3.13.79-1.51.7-1.27l4.3-8.53c-3.37,6.37-15.46,30.32-17.36,34.21-.19.47-3.07,5.89-4.35,8.56.56-1,2.11-4,4.45-8.62.9-1.66-5.82,11.5-8,15.86,0-.09,2-4,1.76-3.6-2,3.94-1.88,3.79-2.38,4.83L71.55,273.41c2.36-4.56-.07.23-1.76,3.6a21.45,21.45,0,0,1,1.17-2.4c-.52,1-1.43,2.76-2.21,4.32s-1.43,2.9-1.44,3c-1.18,2.22-2.21,4.27-4.41,8.59-6.79,13.31-4.17,8.23,3.65-7.28-2.13,4.17-6.83,13.42-10,19.57.78-1.71,1.95-4,3.68-7.31-3.46,6.37-15.7,30.9-24.36,47.76,3.06-5.9,8.46-16.58,13.1-25.71-1.06,2.24-2.48,4.92-4.93,9.76,1.81-3.21,10.86-21.48,13.24-25.79l-42,82.5H29c3,0,2,0,4.18,0,27.21-.13,50.35.05,89.14,0-1-.08,4.63,0,8.15,0,3.75,0-3.05.05-2.6.08,11.78,0,13.31-.12,27.37,0h38.41c-10.14-.05-24.43,0-8.3,0l15,0c2.46,0-1,0,1.5.09l49.16-.13c-.28,0-6,0-6.78,0,3.85.08,11.87,0,15.11,0,1.85,0,1-.06,1.23-.09,6,0,3.33,0,9.56,0-1.18,0-5,0-5.34.08h48c-.27,0-2.52,0-4.15,0,3.18-.09,13.46,0,20.52,0l-41.25-.08c-12.86,0,16.33,0,20.53,0l80.13.1q-5.09-10-10.49-20.63l4.91,9.53L388.68,384H375.89c1.12,0,3.8,0,6.69,0h6.17c-.15-.31-.24-.51-.18-.45l-1.81-3.5c-.53-1-1.14-2.17-2.42-4.72.22.37,1.1,2.08,1.25,2.32-2.61-5.15-3.34-6.57-6.21-12.22.19.43,1.55,3.09,2.48,4.92-1.65-3.15-8.51-16.65-6.21-12.25-19-37.56-43.74-86.25-67.68-133.46.38.86,3.82,7.51,4.34,8.63,1.22,2.43-4.13-8.1-5-9.77.94,2.05,7.67,15.22,10.55,20.89s6,11.76,9.32,18.32c-8.85-17.17-18.61-36.49-29.83-58.55.39.71,1.46,2.69-.61-1.35,1.69,3.2,6,11.77,8.7,17.06l-19.24-38c.25.6,3.3,6.48,3.72,7.41l-26.09-51.39c-1.29-2.42-6.55-13.23-8.66-17.43-3.59-7.13-9.78-19-11.17-22.18l2.48,4.92-4.32-8.75c2.3,4.72-9.18-17.74-8.7-17.06-2.2-4.27-2.88-5.6-5-9.69.35.62,1,1.8,1.87,3.54-.84-1.77-4.26-8.67-5.58-11.07-2.66-5.28-2.36-5-6.82-13.65-.6-1.48-3.36-7-6.79-13.84.54.95,4.32,8.51,5,9.69-3-5.92-1.85-3.92-4.95-10.06.08.12.54,1,1,1.89l.6,1.21c.17.33.28.55.28.57,1.34,2.56-2.28-4.65-2.46-5.13-3.16-6.18-3.17-6.21-5.6-10.95,6.93,13.22,20,38.76,29.25,56.92,1.56,3.13,3.51,7,4.33,8.71l3.11,6c-.12-.31-2.57-5.15,0-.09l-5-9.85c.12.13,1.7,3.18,3.78,7.24l6.79,13.36c4.77,9.28,9.34,18.06,15.55,30.38l2.5,4.67c-4.58-8.94-10.71-21.06-13.68-26.7,1.45,2.62-2.38-4.78-4.34-8.68,3.76,7.14,13.82,27.18,18.65,36.53-5.18-10.34,5.39,10,9.34,18.07,0,0,.46.83,1.13,2.11l2.62,5.06c-.28-.49-.81-1.48-1.87-3.58,5,10,13.71,27.15,21.72,42.91-.41-.61-4.12-8-6.84-13.32L356.73,316.6c3.23,6.37,6.5,12.83,9.32,18.41,1.92,3.79,2.4,4.86,3.71,7.49,9,17.82,14.29,28.16,22,43.35H383c-1.55,0-.72,0,0,0l-68.59,0,77.29,0-12.65-24.91,12.54,24.84-43,0-46.66,0c-15.46,0-32.92.05-41.14,0l-142.55,0h22l-24.63,0c-4.19,0-19.26,0-11,0h12.34c-16.54,0-31.17,0-37,0-5-.05-15.22-.05-27.29,0l-39.45,0h-.75c15.35-30.19,32.82-64.59,50.6-99.58,1-1.91-.6,1.1.55-1.19,1.78-3.39.74-1.4,2.59-4.94,1-1.91.42-1,2.41-4.85,0,0-.18.38-.42.86l-.79,1.57c4.69-9.09,12.83-25.29,16.3-31.88,1.86-3.89,11.64-22.91,17.34-34.2.25-.19-2.75,5.5-5.52,11,6.6-12.77,8-15.65,16.89-33.08-2.94,5.69-6,11.66-10.69,20.86,4-8.22,12.67-25,18-35.45-2.07,4-4.48,8.63-7,13.56,4.81-9.56,9.35-18,14.54-28.27-4,7.85-7.65,15.07-12.41,24.44l30.89-60.17c1.94-3.78,1.09-2.29,3-6.07-1.54,3.18,2.09-4,3.28-6.21-.27.61-3,5.91-4.38,8.57-.43,1,3.3-6.46,3.83-7.4-1,2.16-3.76,7.39-5,9.8,0,0,.41-.73,1-1.86l2.31-4.45c1.82-3.5,4-7.77,5.58-10.92-1.22,2.77,5.83-11.16,7.72-14.83-.58,1.25-3.88,7.67-5.54,11l3.2-6.17c-.47,1.22-4.58,9.13-6,12.12,3.16-6.18,7.56-14.79,11.3-22.08-.46.81-3.14,6.17-2.62,5,2.23-4.33,5.09-9.88,7.39-14.36l2.91-5.61.87-1.65a4.05,4.05,0,0,1,.35-.59c-.7,1.39-.31.66,0,0C170,78.27,165.36,87.19,160,98c1.22-2.24,2.71-5.34,5.61-11-2.65,5.42.7-1.33.76-1.3-3.59,7-4.19,8.22-6.23,12.24a10.44,10.44,0,0,0,.65-1.24c-3.49,7.25-17.14,34-23.22,46.22,1.32-2.49,3.81-7.58,5-9.82a21.67,21.67,0,0,1,1.33-2.72l4.18-8.23C146.51,125.31,143,132.13,141.45,135.44ZM262,134.09c-1.75-3.44-3.54-7.19-5-9.86C258.79,127.64,260.73,131.68,262,134.09Zm35.67,66.76c2.8,5.46,4.87,9.71,6.22,12.17C301.71,208.67,297.45,200.28,297.69,200.85Zm67.73,133c.07.18-1.72-3.34-3.8-7.45l-5.52-10.91c2.14,4.34,9.19,18.24,12.42,24.5C367.59,338.19,366,334.87,365.42,333.87ZM82.71,251.41l-.11.07c-1.43,2.79-4.11,8.15-2.41,4.84C80.63,255.32,81.21,254.44,82.71,251.41ZM65.2,285.71c2.24-4.36,3.27-6.23,6.93-13.5C69.62,276.93,68.42,279.48,65.2,285.71Zm21.06-41.52c.1-.36-6.63,12.88-5.62,11C82,252.58,85.29,246.16,86.26,244.19ZM29.05,356.69c-2,4-5.48,10.71-6.09,12.15C26.45,362,29.56,355.84,29.05,356.69Zm97.42-191.87c.49-1,.75-1.44.69-1.26,2.81-5.51,5.2-10.38,7.44-14.67C134.2,149.48,126.82,164.16,126.47,164.82ZM38.32,338.38q-3.41,6.72-6.82,13.45c0,.1-1.08,2.27.76-1.31C31.83,351.15,39.32,336.52,38.32,338.38Zm-21,41.53c1.08-1.93,3.39-6.61,5.07-9.84a8.28,8.28,0,0,0-.64,1.17l-1.48,2.88C19.1,376.33,17.83,378.82,17.27,379.91ZM275.06,159.78c-2.8-5.44-5.52-11-6.22-12.18C270.51,150.87,276.4,162.51,275.06,159.78ZM234.72,79.89c1.89,3.69,5.35,10.58,6.22,12.18C237.8,85.93,236.55,83.29,234.72,79.89Zm1.89,3.43c2,4-2.54-5-1.87-3.55,3.4,6.68,6.16,12.08,8.7,17.06C241.1,92.24,238.5,86.9,236.61,83.32Zm-210.23,275c1.86-3.7,5.38-10.55,6.16-12.19C30.68,349.79,27.16,356.63,26.38,358.28ZM287.73,181.56c-1.1-2.18-3.11-6.08-2.48-5-3.09-6.07-9.57-18.81-8.09-15.71C278.38,163.09,284.07,174.55,287.73,181.56Zm-32.31-63.44c7.2,14.15,4.79,9.16,0,0ZM377.83,358.46l-2.46-4.83-.89-1.73c-.23-.42-.37-.68-.39-.69l2.8,5.52,1.08,2.13c.27.54.45.88.47.9C378,358.81,377.72,358.31,377.83,358.46ZM266.65,139.58c.75,1.48.38.79,0,.08,1.89,3.74,5.36,10.46,6.21,12.26-2.12-4.16-.8-1.45-3.11-6.08a5.26,5.26,0,0,0,.28.62l.76,1.54,2.35,4.67c1.76,3.46,3.63,7.09,4.06,7.87-1.28-2.55-4.08-8-4.34-8.59,2.6,5.11-.35-.84,1.88,3.51C272,150,267.48,141.12,266.65,139.58ZM74.34,385.77c-1,.08-12.87,0-13.64.05C57.31,385.72,71.17,385.84,74.34,385.77ZM279.9,384c1.58-.09,5.63,0,9.53,0a6.88,6.88,0,0,0,1.43,0C289.37,384,285,384,279.9,384ZM131.78,154.83c0,.11-.19.41-.33.69s-.28.53-.29.54L125,168.26c.15-.43,3.51-6.93,1.79-3.63,0-.13,2.09-4.12,2.48-4.88.54-1.08,1.09-2.18,1.17-2.41-.11.14-2.82,5.66-1.31,2.49-2.05,4-.36.86-2.41,4.85.28-.72,2.87-5.8,5.48-10.94C131.41,155.4,130.85,156.61,131.78,154.83Zm65.62,229a3,3,0,0,1-.79.06l-2.16,0-7.84,0c-3,0,11,0,9.45-.09H135.72c-1-.09,7.49,0,10.91,0,.06,0-1.75,0-2.71,0Zm-19-321.53c-4.86,9.5-9.1,17.73-2.59,5,1.79-3.51,3.07-6,5.66-11a10.69,10.69,0,0,1-.59,1.2,9.92,9.92,0,0,0,.66-1.24c-2,4.08-5.17,10.09-8.1,15.91C174.47,69.86,176.42,66.23,178.39,62.28ZM329.68,267.71c-1.82-3.49,3.11,5.9,4.36,8.52ZM227.26,65.32c-.72-1.43-1.11-2.17-1.25-2.41-1.71-3.35-.56-1.29-1.85-3.83a3.25,3.25,0,0,1,.18.33l.42.82,1.2,2.38A20.53,20.53,0,0,1,227.26,65.32Zm-82.37,60.39c-1.83,3.78-3.15,6.06-5.65,11C140.85,133.43,142.77,129.91,144.89,125.71ZM88.26,236.17c.77-1.53.56-1.19-.07,0l10.58-20.79c-1,2.19-7.48,14.64-6.69,13.36C90.64,231.62,85.3,241.9,88.26,236.17Z"/><path class="cls-2" d="M176.89,369.41c0,.42-.16,1.15.32,1.5C177.49,369.64,176.94,367.32,176.89,369.41Zm.47,5.7c.54.14.59.57.56,1C177.17,376.14,177.42,375.53,177.36,375.11Zm0-7.2a3.68,3.68,0,0,1-.09-2.4c.23.27.69.41.81.74C176.92,365.79,178.11,367.67,177.37,367.91Zm.58,8.84c.54,0,.26.56.8.6s-.37-.26,0-.6c.44.25.82.54.83,1-.33-.16-.55-.12-.52.16C178,377.94,178.05,377.3,178,376.75Zm0-13.5c-.56-.51-.36-1.86-.09-2.4C178.72,361.51,177.78,362.45,178,363.25Zm.46,5.55c-.35-.15-.73-1.57.21-1.5C178.89,368,178.34,368.2,178.45,368.8Zm.78-.16c1.29-.11.24,2.38.66,3.6C178.56,371.11,179.9,369.87,179.23,368.64Zm-.74-13.34,0-.9c.94-.15.38.58.56.89Zm.47-1.51c-.33-.24-.76-1.79.2-1.8C179.08,352.89,179,353.07,179,353.79Zm.22-15.9c.93.5.62,2,.63,3C179.22,339.93,179.39,339.22,179.18,337.89Zm.28-14.26c1.5.22-.26,1.6.36,2.7C179.25,326.3,179.63,324.41,179.46,323.63Zm-.11-3.15c1.51.48.35,1.68.6,2.25C178.79,322.54,179.67,321.16,179.35,320.48Zm3.16,58.8c1.18,1-.81,2,.11,3.15C181.35,382.09,182.59,380.46,182.51,379.28Zm-2.24-47.85a1.8,1.8,0,0,1,.58,1.65C180.22,332.79,180.28,332.09,180.27,331.43Zm3,62.1c.33-.58-.15-.83.21-1.5C183.83,392.18,184.22,393.6,183.28,393.53Zm10.35-129.69c-.76-.67,0-1.78-.1-2.55C194.7,261.73,193.63,263.1,193.63,263.84Zm6.93,112.93c.47,0,.57.18,1.06.14-1,.6-1.14,1.63-1.75,2.42C199.08,378.59,200.18,378,200.56,376.77Zm1.58,7.34a1.22,1.22,0,0,1,0-1.5C202.87,383,202.48,383.62,202.14,384.11Zm1.56-15.31c-1.12-.61.39-2.09,0,0ZM200,264.7c-.55-.13-.32-1-.05-1.2C200.67,263.73,199.58,264.18,200,264.7Zm3.91,94.5c.78.38.28.71.31,1.34A1,1,0,0,1,203.88,359.2Zm-3.22-89.71c-.61-.25-.13-1.14-.32-1.64a3.51,3.51,0,0,1,1.15,2.69c-.9-.26-.1-.83-.58-1.5C200.6,269.07,200.7,269.32,200.66,269.49Zm3,82.81c1.15,1,.67,2.05.92,3.59C203.5,354.82,203.82,353.88,203.63,352.3Zm-.58-23.56c1.29.75.06,2.17.38,3.3C202.55,331.16,203.35,330.29,203.05,328.74Zm2.74,39.9c-.62-.5-.15-1.65-.34-2.4C206.07,366.74,205.6,367.89,205.79,368.64Zm-.59-60.76c1.27.3.44,1,.59,1.79C205.35,309.56,204.57,308.53,205.2,307.88Zm3.59-17.13c.62.4.15,1.45.34,2.1C208.45,292.27,208.6,291.51,208.79,290.75Zm2.38,22.49c-.23-.42.36-.39.24-.75C212,312.62,212.24,313.32,211.17,313.24ZM178.26,370.9c-.55-.6-.15-1-.33-1.8.26,0,.21.19.28.3s.24-.06.25-.15C178.89,369.42,178.69,370.41,178.26,370.9Zm4,7.78c.23-.17.74.09.51-.6-.74,0-.74.65-.8-.15-.35.05-.2.38-.24.6-.24-.06-.47-.13-.54-.29-.36.05,0,.26.28.29-.9.47-1.38-.61-1.62-1,0-.37.89-.05,1.05,0-.22-.58-.45-.86.76-.91,0,.39-.19.19-.52.16-.11.47.49.52.3,1,1.47-.77.62-3.71-.15-4.2-.49-.05.86-.71,0-1.05-.67.12-.89.49-.75,1.06-.53.2-.19-1.41-.33-1.95.5,0,.2.5.8.45.21-.49-.42-.47-.81-.6.1-3.37-.21-6.08.18-9.75-.51.55-.59,0-.81-.45.45-.06.5.12.54.3.71-.24,0-.88-.56-.9.51-.27.41-.52.49-1.05.25-1.63-.13-1,.56.89.59-.5,0-1.64.18-2.4,1,.22.71.49.29.9,2.49-.77.09-3.79,1.11-5.86-.74.73-.4,2-.42,3.16-.89-.28-.18-.61-.3-1.2-1.89.39.54,2.64-1.47,3.16.42-4.34,1.39-8.08,1.41-12-.15-.33.5-.22.51-.46-1.54-3,.58-5.5.18-9.75-1,.1.16-.5-.56-.9.22-.4.6.34,1.06.3-.27-1.29-1.48-1.47-.37-3,.2.75-.28,1.21.06,1.65a21.28,21.28,0,0,0,.06-5.85c-.61,1.1,0,2.67-.5.9a3.06,3.06,0,0,1-.32-1.65c.53-.26.52.11,1.05-.15-.54-2.11-.24-3.76-1.51-5.4.55,0,.1.66.55.75.9-.41-.53-1.3.21-1.65-.09-.2-.67-.12-1.06-.15.3-.65-.3-.36-.3-1,.47.13.45.55,1.07.59-.11-1.57.47-3.44-.19-5.25-.3,0-.21.27-.24.45-1-.35.37-1.47-.35-2.25-1,.79,0,3.27-.89,4.51-.32,1.4-.36-1.79-.34-2.25.17-3.71,1.58-7.45,1.16-11.71,1.23.86.3,3,.68,4.35,1-.33-.27-1.94,1-1.81,0-.46-.85-.42-.57-1,.35,0,.42.26.8.29-.34-.63-.12-.81-.05-1.5-.36.05-.2.38-.24.6-.5-.39-.46-2.05.2-1.5-.19-4.61,2.51-10.56,1.52-16.36-.62.1.08.92-.48,1.05-.18.3-.23-1,0-1.2-1.16.24-.7,1.86-.7,2.56a13.51,13.51,0,0,1,.09,2.25c-1.31-2.13-.76-4.49-.79-7.2.25.09,1,.34.78-.16.63.4.15,1.45.35,2.1.36-1.46.16-3.24.62-4.65-.59.06,0,.79-.5.9,0-1.87.75-5.16.3-6.3-.64-.31,1.81-1.6,2-2.12.38-.87-1.28-2.34,1.22-2.7a.58.58,0,0,0-.24.6c.67-.22.56-.87,1.28-1.06-1.06.57-1.69-2.2-.34-2.1-.53-.53-.32-.69-.57-1.19a1.26,1.26,0,0,1,.8.44c.66-.21,1.59-1,.48-1.35.25-.65,1.77-.59,1.25-1.66a2.71,2.71,0,0,0,2.57-1.67c.66.13,0,1,.57,1.2.61-.72,1.56-.46,1.8-1.21.34,0,.36.45,0,.45.43.32.92-.56,1.55-.61-.62-.76-.1-.76-.31-1.35,2.3,1.66,2.89,4.8,3.41,7-.28.39-.41.86-1,1.06.12.29.58.37.55.75.35,0,.47-.63.53,0,.19-.29.75-1.13.48-1.2,1.15.05,1.29,1.52,1.14,2.55.54,1.14,1.74,2.23,1.19,3.74.43.2.85.42,1.33.59-.38-1.1-.11-2.59-1.17-3.29,1.22.33.47-.58.76-1.06,1.34.9,0,3.34.94,4.5.75-1.26,3.14,1.27,1.66,2.24a1.51,1.51,0,0,1,1.09.89c-.33-.06-.55-.19-.54-.44-1.26,1.21-.91,3.32-.87,5.25-1.06-.09-.75-1-.85-1.64-.83,4.21,1.62,10.54,1.35,15.59,0,.78-.54,1.57-.44,2.26-.05.46-.71.58-1,.9a32.44,32.44,0,0,1-.31,6,.13.13,0,0,0,.26,0c.28,2.23-.28,5.43-.26,7.51a52.88,52.88,0,0,1-.14-11.26c-1.62,2-.69,4.79-.78,7.51-.06,1.75-.28,3.48-.34,5.1s.67,3.61-.11,4.51c.35,6-.15,10.26.3,15.6.37-.32.17-1.48.18-2.4.46.33.48,1.65.36,2.69-.06.46-.3,2.11-.49,1.21-.17-.7.33-.91,0-1.35-.44,1.8-.44,3.41.14,4-1.19,1.09-.15,4.46-.27,7.2-.16,3.68.59,7.89-.09,12.15.1.24.46-.13.53.15-.49.42-.08.18-.76.61.12.23.83.12.54.59-.25,0-.21-.18-.27-.3-.74,1.12.12,3.11-1.18,3.91,1.34.49,0,2.81.42,4.2-1.69,0-.52-.68-.58-1.35-1.19,1.57-.15,1.92-.9,4.06a3,3,0,0,0,1-2.56c1.59,1,.22,3.07-.11,4.36a7.18,7.18,0,0,0,1.52-1.66c.42,1.17-2.49,2.19-2,3.46-.75-1,.75-1.84-.11-3-1.57,2.44-1.4,5.1-3.42,7.37-.18.46.74.28.56.75-.79-.4-.9.48-1.29.76-.46-.08.26-.73.22-1.06-1-.13-.16.8-.75.91-.72-.27.11-.91.22-1.2-.65,0-2.18,1.33-1.51,2.11-2-.35-1.77,1.36-2,1.81-.61-.16-.14-.94-.32-1.35-.37.19-.37.58-.76.76-1.52-.16-.64-1.13-1.37-1.5a9.79,9.79,0,0,0-.95,2.71c.53-.1.05-.76,1-.61-.84,1.06-1.16,2.73-2.53,2.72a.14.14,0,0,0-.27,0c-.41-1.19,1.17-2.27.4-3.6-.87.27,0,.65-.22,1.35-1-.67-.24.16-1,.15-.41-.86.66-1,.21-1.5-.47,0-.54.15-.26.15-2-.89-1.45-4.18-2.83-5.68-.58.3.48.93-.49,1.2,1.33,0-.05.45.58,1.35C183.15,379.92,183.42,379.09,182.22,378.68Zm2.37-102.79c0-.42,1.25-.86.48-1.2C185.1,275.11,183.88,275.59,184.59,275.89Zm18.71,8.44c.2.68-.68,1.18.32,1.5C203.78,285.3,203.78,284.27,203.3,284.33Zm1.38,16.35c-.53,0,0-1.73.18-2.25-.83.52-.93,2.22-.42,3C204.43,301.21,205.39,300.81,204.68,300.68ZM180.4,364.44h.79c.19-.34-.33-1-.55-.59C181.42,364,180,364.06,180.4,364.44Zm.9-4.21c-.28.53-1.11.76-.73,1.66C181.8,361.31,180.75,361,181.3,360.23Zm.44,5.1c.77.05.83-1.58.22-1.35C181.65,364.3,181.38,365.09,181.74,365.33Zm.56-13.81c-.82-.49.51-1.31-.84-1.49C181.26,350.87,181.47,351.62,182.3,351.52Zm.58,23.56c0,.11-.21.17-.52.15-.14.67.77,1.27.07,1.8C183.46,377,182.75,375.16,182.88,375.08Zm-.24-21.31-.06-1.65c-.65,0-.83-.28-1,.16C182.71,352.2,182.07,354,182.64,353.77Zm-.44-5.1c-1.09.24-.35.81-.75,1.21C182.47,349.9,181.7,348.94,182.2,348.67ZM184.44,279c-.39-.67.75-1.34-.32-1.5C184.23,278,184,279.37,184.44,279Zm2.8-9.77c.19.46-.29,1.3.32,1.5C187.36,270,188.32,269.71,187.24,269.27Zm1.6.45c-.35.48-.14-.62-.81-.45.46.82-.17,1.48.34,2.1C188.34,270.8,189.55,270.16,188.84,269.72Zm13.44,81.68c.19.46-.28,1.3.32,1.5C202.42,352.45,202.89,351.61,202.28,351.4Zm-.64-69.46c.05-.26-.29-.75.5-.6,0-.75,0-2.31-1.12-1.95C202,279.68,200.57,281.07,201.64,281.94Zm-.81-7.8c.06,1.74,1.39,1.15,0,0Zm2.9,29.54c0-.39.11-.88-.56-.89.29.42-.39,1,0,1C203.26,303.72,203.42,303.66,203.73,303.68Zm.62-26.86c0,.19-.29.1-.53,0-.15.46.38,1.29-.21,1.5-.13-.51-.72-.19-.29-.75-1.19,0-.93,1.6-.2,1.8.15-.31-.36-1,.23-1.05.08.63.83-.09,1.07.45C204.56,278.11,204.81,277,204.35,276.82Zm-1.63,64.68c1,.12.26,1.41.58,1.5C202.1,343.36,203.48,341.85,202.72,341.5Zm-21.59-22.68c-1-.18,0-.61-.56-1.05.3,0,.46,0,.52-.15C181.48,317.79,181.24,318.26,181.13,318.82Zm-.84,57.47c-.29,0-.15-.15,0-.15a2.28,2.28,0,0,1-.32-1.5c.77.06.14.85.55.45.65,0,.09.51,0,.6a.75.75,0,0,0,.53.3c.51,0-.48-.7.52-.31.31-.48-.86-.11-.55-.59.89.09.87.71.84,1.34C181.19,376.22,180.6,376.07,180.29,376.29Zm-.94-48.46c1.1,0,1.45.48,1.35,1.2-.47.32,0-1.2-1.08-1,.55,2.91.11,3.83,0,6.61-1,.09-.34-.83-.57-1.2a.28.28,0,0,1,.28.3C179.69,332.42,179.16,329.85,179.35,327.83Zm5.3,59.84c.4-1.17,1-2.17.76-.61-.07.43-.57.73-.47,1.36-.23,0-.25-.06-.27-.15-.23,0-.25.06-.26.15-.72-.5.41-1.24.19-1.95C185.42,386.74,184.33,387.18,184.65,387.67ZM182,292.26c-.48-.43,1.18.74.3,1.05C181.93,293,182.24,292.85,182,292.26Zm4.63-24.78c0-.18-.06-.27-.27-.3-.13-.41,1-.15,1-.46C187.76,266.73,187.46,267.62,186.65,267.48Zm11.66,112.46c-.91-.47.77-.75.48-1.36C199.6,379,198.19,379.42,198.31,379.94Zm5.56-13.54c.08.19.53.15.53,0a25.47,25.47,0,0,1-.17,2.55c-.84-.27.44-1.8-1.11-1.65C203.18,367,204.39,365.7,203.87,366.4Z"/><path class="cls-2" d="M157.31,303.76c-.38-.05-1.05-.27-1.42.18C157,304.34,159.25,304,157.31,303.76Zm-5.34-.07c-.19.53-.6.54-1,.47C151,303.41,151.57,303.72,152,303.69Zm6.7.67a3.23,3.23,0,0,1,2.24.11c-.27.21-.44.66-.77.75C160.68,304.1,158.82,305.12,158.67,304.36Zm-8.3-.24c-.09.54-.54.21-.64.75s.28-.34.56,0c-.28.41-.59.75-1.06.71.19-.31.18-.53-.09-.53C149.26,304.07,149.85,304.18,150.37,304.12ZM163,305.36c.52-.51,1.76-.2,2.24.11C164.52,306.23,163.72,305.22,163,305.36Zm-5.22,0c.18-.33,1.54-.61,1.38.33C158.47,305.87,158.3,305.31,157.73,305.37Zm.07.79c0,1.29-2.24,0-3.42.31C155.57,305.27,156.59,306.71,157.8,306.16Zm12.53.29.85,0c.06,1-.58.35-.88.5Zm1.37.58c.25-.31,1.73-.64,1.67.32C172.53,307.21,172.37,307.14,171.7,307Zm14.87,1.1c-.51.9-1.87.53-2.84.49C184.65,308.07,185.31,308.27,186.57,308.13Zm13.34.76c-.24,1.49-1.49-.29-2.54.29C197.42,308.62,199.19,309,199.91,308.89Zm3,0c-.48,1.5-1.58.31-2.12.55C201,308.25,202.22,309.15,202.87,308.85Zm-55.35-.46c-1.07,1.07-1.81-1-3-.22C145,307,146.41,308.36,147.52,308.39Zm45.06,1.07A1.64,1.64,0,0,1,191,310C191.31,309.37,192,309.45,192.58,309.46Zm-58.5-1.9c.49.39.8-.05,1.38.38C135.27,308.26,133.89,308.48,134.08,307.56Zm122.75,14.38c.59-.8,1.69-.13,2.43-.24C258.92,322.89,257.52,321.9,256.83,321.94ZM148,326.61c0,.47-.23.54-.25,1-.47-1-1.44-1.31-2.14-2C146.36,324.94,146.78,326.1,148,326.61Zm-7.26.77a1.15,1.15,0,0,1,1.45.11C141.7,328.23,141.12,327.77,140.69,327.38Zm14.66,3.12c.7-1.06,2,.57,0,0Zm101-2.18c.08-.55,1-.37,1.15-.11C257.37,329,256.88,327.9,256.4,328.32Zm-91.74,3.16c-.43.75-.72.24-1.34.22A1,1,0,0,1,164.66,331.48Zm87.14-2.17c.21-.63,1.1-.21,1.58-.42a3.32,3.32,0,0,1-2.55,1.29c.21-.91.8-.14,1.42-.65C252.21,329.22,252,329.33,251.8,329.31Zm-80.42,2.43c-1.06,1.07-2,.52-3.56.66C168.94,331.42,169.83,331.81,171.38,331.74Zm22.94.59c-.77,1.26-2.11,0-3.22.26C192,331.74,192.8,332.57,194.32,332.33Zm-39,.27c.54-.58,1.62,0,2.37-.14C157.13,333,156.06,332.47,155.31,332.6Zm59.3,2.23c-.3,1.27-1,.44-1.75.59C213,335,214,334.21,214.61,334.83Zm16.8,3.41c-.38.63-1.42.18-2,.39C229.92,337.93,230.66,338.07,231.41,338.24Zm-22.1,2.54c.42-.23.38.36.74.24C209.92,341.6,209.22,341.84,209.31,340.78ZM155.79,305c.61-.49,1-.05,1.71-.15,0,.25-.19.19-.31.24,0,.22,0,.25.12.27C157.11,305.74,156.2,305.46,155.79,305Zm-7.68,3.19c.14.25-.16.73.51.57.11-.73-.53-.8.23-.77,0-.36-.33-.25-.54-.31.09-.23.17-.46.34-.5,0-.37-.25,0-.31.24-.34-.94.72-1.3,1.14-1.5.35.07,0,.89-.1,1.05.56-.15.85-.36.76.84-.36,0-.15-.2-.09-.53-.43-.16-.54.44-1,.19.57,1.55,3.42,1,4,.26.1-.48.58.92,1,.06,0-.68-.37-.94-.92-.85-.13-.55,1.34-.06,1.86-.15-.06.5-.48.15-.5.76.43.26.48-.37.64-.75,3.14.43,5.7.31,9.11,1-.48-.55.07-.58.48-.77,0,.45-.15.49-.32.51.16.73.82,0,.88-.48.21.53.46.45.95.57,1.51.36,1-.06-.89.49.43.62,1.54.14,2.24.34-.28,1-.52.68-.87.23.53,2.54,3.56.36,5.42,1.52-.63-.78-1.88-.54-2.93-.64.32-.86.58-.14,1.14-.22-.22-1.91-2.51.35-2.85-1.68,2,.36,3.89.85,5.71,1.28a34.16,34.16,0,0,0,5.46.9c.32-.13.17.51.39.54,2.9-1.35,5.14.84,9.16.66,0-1,.47.18.87-.52.37.23-.34.58-.32,1.05,1.23-.23,1.44-1.43,2.84-.27-.72.17-1.13-.33-1.56,0a18.75,18.75,0,0,0,5.51.26c-1-.65-2.52-.11-.84-.52a2.64,2.64,0,0,1,1.56-.27c.24.54-.12.52.12,1.06,2-.49,3.54-.15,5.11-1.39,0,.55-.62.09-.71.54.36.91,1.24-.5,1.54.24.2-.08.13-.66.16-1.05.61.32.36-.29,1-.28-.14.47-.53.44-.59,1.06,1.49-.06,3.23.52,4.94-.11,0-.3-.25-.21-.42-.25.35-1,1.38.39,2.12-.32-.72-1-3.07,0-4.22-.94-1.31-.33,1.69-.34,2.12-.32,3.47.23,7,1.64,11,1.22-.8,1.24-2.81.3-4.09.68.31,1,1.82-.27,1.7,1,.44,0,.4-.84,1-.56,0,.34-.24.42-.27.8.59-.35.76-.13,1.41-.06-.05-.35-.35-.2-.57-.24.37-.49,1.93-.46,1.42.21,4.33-.23,10,2.4,15.45,1.25-.11-.62-.87.1-1-.46-.28-.17.93-.25,1.13-.07-.26-1.16-1.77-.66-2.43-.64a11.72,11.72,0,0,1-2.11.13c2-1.36,4.2-.84,6.75-1-.08.25-.29,1,.17.78-.36.63-1.36.2-2,.41,1.39.33,3.06,0,4.41.46-.08-.59-.75.05-.87-.46,1.77-.06,4.9.58,6,.06.26-.66,1.59,1.73,2.09,1.93.84.33,2.15-1.39,2.62,1.09a.52.52,0,0,0-.58-.21c.24.65.85.51,1.07,1.22-.59-1,2-1.79,2-.44.47-.56.64-.36,1.1-.64a1.27,1.27,0,0,1-.38.83c.24.64,1.09,1.53,1.31.39.63.22.67,1.74,1.65,1.16a2.75,2.75,0,0,0,1.75,2.47c-.08.66-1,0-1.1.64.72.55.53,1.52,1.27,1.72,0,.34-.41.39-.43,0-.28.45.59.89.68,1.52.69-.67.73-.15,1.27-.39-1.43,2.39-4.42,3.16-6.55,3.82-.39-.26-.85-.36-1.08-1-.26.14-.33.6-.69.59,0,.35.63.44,0,.53.29.18,1.13.7,1.18.42,0,1.15-1.39,1.36-2.4,1.26-1.08.6-2.08,1.85-3.57,1.37-.17.44-.36.87-.51,1.36,1-.43,2.51-.24,3.14-1.33-.26,1.23.59.44,1.06.7-.8,1.39-3.23.22-4.32,1.17,1.26.68-1.1,3.2-2.11,1.75a1.51,1.51,0,0,1-.83,1.12c0-.33.16-.56.42-.56-1.24-1.21-3.28-.79-5.16-.67.05-1.07.93-.79,1.57-.91-2.06-.33-4.62.15-7.28.68a33.68,33.68,0,0,1-7.9,1c-.76,0-1.54-.52-2.2-.42-.46,0-.58-.7-.89-1a28.56,28.56,0,0,1-5.85-.3c-.17.05-.09.27,0,.26-2.18.3-5.29-.3-7.31-.31a55.15,55.15,0,0,1,11-.09c-1.91-1.62-4.66-.68-7.31-.79-1.7-.08-3.38-.32-5-.4s-3.52.62-4.37-.19c-5.87.22-10-.44-15.18-.21.3.39,1.44.24,2.33.28-.35.46-1.62.42-2.64.25-.44-.08-2-.41-1.15-.55.69-.14.87.38,1.32,0-1.74-.52-3.29-.6-3.94,0-1-1.23-4.33-.37-7-.67-3.56-.36-7.7.06-11.78-.93-.24.09.09.47-.19.52a2.69,2.69,0,0,1-.52-.81c-.24.1-.19.82-.63.49,0-.25.2-.19.31-.24-1-.83-3-.15-3.68-1.51-.59,1.29-2.72-.22-4.1.05.14-1.68.7-.44,1.36-.45-1.4-1.32-1.84-.33-3.83-1.29a2.8,2.8,0,0,0,2.37,1.21c-1.13,1.49-3-.08-4.19-.53a6.72,6.72,0,0,0,1.45,1.67c-1.18.31-1.87-2.69-3.15-2.3,1-.66,1.71.92,2.91.18-2.2-1.79-4.78-1.89-6.73-4.15-.43-.23-.36.7-.78.47.46-.74-.36-.94-.58-1.36.12-.45.66.34,1,.34.24-1-.74-.25-.78-.85.34-.69.85.21,1.12.35.06-.65-1-2.31-1.84-1.72.55-1.94-1.1-1.91-1.5-2.22.22-.59.92,0,1.32-.17-.13-.39-.5-.44-.63-.84.33-1.5,1.15-.52,1.58-1.2a8.94,8.94,0,0,0-2.45-1.23c0,.54.71.12.45,1.08-.91-.94-2.44-1.46-2.27-2.82a.14.14,0,0,0,0-.26c1.17-.26,2,1.42,3.36.8-.16-.9-.62-.07-1.25-.36.75-.92-.13-.27,0-1.06.87-.31.87.77,1.39.37.1-.46-.07-.55-.11-.27,1.08-1.93,4.11-1,5.67-2.21-.22-.61-.93.38-1.08-.61-.15,1.32-.41-.1-1.33.43C146.84,309,147.6,309.32,148.11,308.17Zm96.77,5.38c.4-.05.88,1.21,1.16.43C245.64,314,245.13,312.84,244.88,313.55Zm-7.35,19c-.65.21-1.17-.65-1.45.37C236.6,333.09,237.6,333.05,237.53,332.58Zm-15.89,1.71c0-.53,1.68,0,2.19.15a2.4,2.4,0,0,0-2.93-.38C221.12,334,221.51,335,221.64,334.29Zm-60-26.63-.06.79c.3.22,1-.25.6-.5C162,308.72,162,307.33,161.63,307.66Zm3.86,1.24c-.47-.31-.62-1.16-1.49-.86C164.44,309.31,164.82,308.3,165.49,308.9Zm-4.81,0c-.12.76,1.4,1,1.24.33C161.65,308.92,160.94,308.59,160.68,308.93Zm12.91,1.58c.53-.79,1.21.58,1.47-.75C174.28,309.51,173.56,309.68,173.59,310.51Zm-22.17-1.32c-.1-.07-.14-.23-.09-.53-.61-.21-1.27.64-1.69-.11C149.59,309.59,151.36,309.05,151.42,309.19Zm20,1.51,1.55.06c.06-.66.33-.81-.07-1.06C172.93,310.88,171.29,310.12,171.46,310.7Zm4.82-.12c-.15-1.1-.74-.4-1.08-.82C175.11,310.77,176.07,310.06,176.28,310.58Zm65.62,3c.62-.42,1.29.7,1.4-.37C242.93,313.3,241.57,313.06,241.9,313.54Zm9.37,2.35c-.42.21-1.24-.23-1.4.39C250.57,316,250.92,317,251.27,315.89Zm-.33,1.62c-.48-.33.57-.17.38-.83-.76.5-1.42-.11-2,.44C249.88,317.06,250.55,318.24,250.94,317.51Zm-78.6,12.94c-.45.16-1.23-.37-1.47.22C171.32,330.53,172.1,331.05,172.34,330.45Zm67.45.38c.26,0,.72-.32.6.48.73-.07,2.24-.14,1.84-1.19C242,331.12,240.6,329.73,239.79,330.83Zm7.52-1.13c-1.68.13-1,1.44,0,0Zm-28.61,3.66c.39,0,.86.12.87-.55-.41.29-1-.4-1,0C218.66,332.9,218.72,333.06,218.7,333.36Zm26.17,0c-.18,0-.1-.29,0-.53-.46-.13-1.24.45-1.47-.14.49-.15.15-.72.71-.32-.06-1.19-1.59-.87-1.76-.13.31.13.94-.39,1,.19-.6.1.13.82-.38,1.08C243.63,333.62,244.7,333.8,244.87,333.34Zm-62.94-1.88c-.16,1-1.38.19-1.48.51C180.16,330.75,181.55,332.2,181.93,331.46Zm22.46-20.79c.19-1,.58,0,1-.55,0,.3,0,.46.13.52C205.36,311,204.91,310.78,204.39,310.67Zm-53.83-4.17c.05-.29.15-.13.14,0a2,2,0,0,1,1.43-.17c-.13.76-.81.05-.47.49-.09.65-.49.05-.57,0a.77.77,0,0,0-.33.51c0,.5.7-.42.23.54.42.35.19-.84.61-.49-.17.87-.76.79-1.34.7C150.52,307.4,150.73,306.83,150.56,306.5ZM196,308.67c0,1.1-.49,1.44-1.16,1.32-.29-.49,1.12,0,1-1.06-2.74.46-3.59,0-6.19-.25,0-1,.79-.31,1.15-.53,0,.18-.19.3-.29.26C191.67,308.86,194.1,308.41,196,308.67Zm-56.58.93c1,.54,1.92,1.29.48.84-.4-.13-.62-.66-1.22-.64,0-.22.09-.24.18-.25,0-.22,0-.25-.11-.27.56-.65,1.11.55,1.8.42C140.18,310.48,139.9,309.34,139.4,309.6Zm90,1.91c.4-.49-.67,1.2-1,.32C228.64,311.44,228.82,311.75,229.37,311.51Zm23.57,3.69c.16,0,.25-.09.26-.29.39-.15.2,1,.5,1C253.71,316.25,252.85,316,252.94,315.2ZM145.15,324c.55-.85.63.85,1.25.62C145.92,325.41,145.66,324,145.15,324Zm12.51,6.85c-.18.06-.19.52,0,.53a23.22,23.22,0,0,1-2.46-.39c.34-.82,1.7.6,1.7-1C157.19,330.14,158.3,331.46,157.66,330.88Z"/><path class="cls-2" d="M235.25,94.64c-1.85-.72-5.19-1.82-6.86-1.81C234.12,94.55,244.49,98.2,235.25,94.64Zm-26.43-4.9c-.67.53-2.69.41-4.91.37C204,89.32,206.83,89.69,208.82,89.74Zm32.91,7.92a46.36,46.36,0,0,1,5,2c1.57.83,3.24,1.72,5.19,3-1.2-.46-2-.33-3.44-1,1.22,0-.25-.81-2.14-1.71S242.13,98.2,241.73,97.66ZM201.1,90.12c-.16.52-2.6.34-2.74.89.24.69,1.17-.46,2.79-.1a14.33,14.33,0,0,1-4.77,1c.73-.36.54-.57-.76-.48C195.55,90.42,198.53,90.26,201.1,90.12Zm59.36,19c2.29.91,7.12,5.09,8.75,7.07a23.42,23.42,0,0,1-4.21-3.3c-.72-.66-1.44-1.37-2.2-2A28.61,28.61,0,0,0,260.46,109.08Zm-23-12a16.68,16.68,0,0,1,3.74,1.12c1.6.64,3,1.49,2.63,1.84C241,98.91,240.1,98.07,237.48,97.09Zm.41,1c0,.68-2.54-.24-5.85-1.39A59.6,59.6,0,0,0,221.8,94a14.78,14.78,0,0,1,4,.33,26.29,26.29,0,0,1,4,1.07C232.5,96.29,235.12,97.4,237.89,98.1Zm47.54,38.34c.8,1.16,1.47,2.39,2.2,3.59-.47,1.1-1.67-2.18-2.62-3.28Zm3.14,6.31a20.65,20.65,0,0,1,2.42,3.92c.85,1.77,1.49,3.49,1.07,3.72l-1.79-4.15C289.79,145.19,289.32,144.26,288.57,142.75Zm8.08,71.79a9.37,9.37,0,0,1,.12-2.5c.15-1,.38-2.21.59-3.48.51-2.52,1-5.36,1.3-7.74,0,1.1-.05,2.13-.13,3.15a28,28,0,0,1-.37,3.09l-.61,3.4Zm-37,53.41c-.06-.88,1.47-1.89,3.4-3.26a29.6,29.6,0,0,0,5.95-5c.18.26-1.46,1.78-3.45,3.55S261.09,266.87,259.67,268Zm-12.36,7.83a4.81,4.81,0,0,1,1.58-1.61,19.66,19.66,0,0,1,2.42-1.49,33.71,33.71,0,0,0,4.63-2.71c0,.68-1.48,1.8-3.32,2.84l-2.84,1.58C248.86,274.9,248,275.34,247.31,275.78ZM190.06,95.48a12.91,12.91,0,0,1-3.28.86c-1.12.2-2.26.31-3.44.42a28.87,28.87,0,0,0-3.53.51,13.17,13.17,0,0,0-3.49,1.17,3.56,3.56,0,0,1,1.86-1.08,31.14,31.14,0,0,1,3.46-.8C184.3,96.13,187.46,95.85,190.06,95.48ZM283.6,241.37a19.66,19.66,0,0,1,1.28-3l2-3.78C286.89,236.05,285.21,238.82,283.6,241.37ZM134.86,124.21a18.39,18.39,0,0,0,2.31-2.16c.33-.36.67-.72,1.08-1.11s.92-.76,1.53-1.2C139.45,120.38,135.34,125.06,134.86,124.21Zm.07,14.17a13.42,13.42,0,0,1,2.83-4c1.23-1.37,2.67-2.61,3.67-3.79-.15,1.05-1.36,2.38-2.75,3.76A53.38,53.38,0,0,0,134.93,138.38Zm67-25.63c.09.47-.63.55-.48,1a14,14,0,0,0-4.13-.86l-4.72-.29C195.2,111.57,197.42,112.41,202,112.75Zm-25.43,6.13a11.73,11.73,0,0,1,5-1.69,4.66,4.66,0,0,1-2.24,1.14A18.83,18.83,0,0,1,176.54,118.88Zm52.56,2.06a5.43,5.43,0,0,1,3.34,1.11C232.94,122.52,232.39,122.46,229.1,120.94Zm-90.87,23.67c-.22-.7,2-3.29,2.58-3.6C140.92,142.15,139,142.81,138.23,144.61Zm118-4.76c-1.41-.46-1.91-1.57-3.47-3.13a9.24,9.24,0,0,1,1.92,1.33,10.22,10.22,0,0,1,.88.86A9.1,9.1,0,0,1,256.2,139.85ZM130.57,160.43a6,6,0,0,1,.71-2.6c.51-1.05,1.12-2.17,1.43-3.05-.39,1.81-.72,3.05-1.05,4.43-.18.69-.39,1.39-.67,2.2s-.55,1.74-.94,2.85c-.55-1.16.87-2.88,1.38-5.27C131.1,159,130.85,159.84,130.57,160.43Zm138.85-.72a25.37,25.37,0,0,1-3.13-4.61c-.46-.88-1-1.79-1.58-2.76-.29-.49-.59-1-.92-1.51l-1.1-1.56C265.58,151.76,267,154.78,269.42,159.71Zm-11,77.45c.31-1.44,1.55-2.85,2.82-4.48.67-.79,1.37-1.61,2-2.48a17,17,0,0,0,1.67-2.62C264,230.65,261.69,232.84,258.42,237.16Zm-29.53-114a9.76,9.76,0,0,1,3.55,1.18c1.37.62,2.75,1.44,3.91,2C234.59,126,231.35,123.82,228.89,123.12ZM192.81,260.49a2.83,2.83,0,0,1,2.45-.47,22.33,22.33,0,0,0,3.7.38,5.54,5.54,0,0,1-2.4.57A9.55,9.55,0,0,1,192.81,260.49Zm-46.33-31.27a10.29,10.29,0,0,1,2.14,2.26l1.19,1.54a15.46,15.46,0,0,0,1.22,1.29,7.38,7.38,0,0,1-1.29-.88,11.41,11.41,0,0,1-1.16-1.23c-.38-.44-.74-.92-1.11-1.41S146.81,229.75,146.48,229.22Zm63.77,25.34c-1.28.41-1.27-.23-2.37,0C208.22,254,210.35,253.5,210.25,254.56Zm17.93-160.7c2.82.26,4.66,1.18,8.12,2.26-.09.24-.87-.09-1.41-.21-.18.18.2.33.6.48a10.77,10.77,0,0,1-3.18-.86A35.6,35.6,0,0,1,228.18,93.86Zm-35.49,1c.79.15-.3.77,2.74.25,0-.74-3-.47.57-.83-.26-.36-1.72-.06-2.73,0a2,2,0,0,1,1.27-.66c-.29-.34-1.2.1-1.31.4-2.25-.67,2.6-1.69,4.56-1.94,1.71,0,.29.88.12,1.05,2.6-.37,3.89-.55,4.14.65-1.73,0-.85-.19-.72-.52-2.16-.11-2.35.57-4.73.46a15.88,15.88,0,0,0,4.18.54c1.77.14,3.81.08,5.82.16l5.57.06a29.21,29.21,0,0,0,3.41-.15c.33-.44,3.12,1.3,4.71.74a2.74,2.74,0,0,0-1.51-1,15.48,15.48,0,0,0-3.14-.54c-.43-.33,1.18-.15,3.2.16s4.42.88,5.62,1.15c-.08.23-.64.15-1.16.08s-1-.06-1,.26c2.11.66,2.14.07,2.8-.18a100.42,100.42,0,0,1,20.53,7.47,88.2,88.2,0,0,1,19,12.79c-1.68-2,.5-.41,2.05.71-.09.53-.69,0-1.36-.49.37,1.25,3,2.67,3.42,2.34.61,1.2,1.47,2,3.13,3.75,1.3,1.36,2.05,2.34,2.49,2.82s.48.54.18.22-.94-1-1.92-2-2.35-2.16-4-3.54a25.66,25.66,0,0,0,3.41,3.76,56.65,56.65,0,0,1,4,4.34c-1.35-.09-2-1.18-2.92-2.86.29,2.17,3.12,5.32,6.15,9.3s6.36,8.71,8,13.15c-.79-3.28-4-8.32-6.94-12.45,1.46.48,1.68,2.17,3.25,4.35a4.16,4.16,0,0,0-.84-2.65c-.31-.55-.69-1.13-1.11-1.73l-1.4-1.8-1.41-1.81c-.47-.59-.92-1.15-1.31-1.69a5.93,5.93,0,0,1-1.3-2.89,98.43,98.43,0,0,1,8.26,12,102.31,102.31,0,0,1,6,12.41A108.22,108.22,0,0,1,297,176.27c.36,1.47-.33,1-.23,2.12a54.56,54.56,0,0,1,.49,19.88,127.23,127.23,0,0,1-5.83,23.46c.54-.06.31.47,0,1.25a6.65,6.65,0,0,0-.91,2.72c-.91,1.63,0-1.64-.49-1.6-.49,1.37-.79,2.47-1.08,3.44s-.53,1.8-.82,2.65a12.61,12.61,0,0,1-1.22,2.71,23.9,23.9,0,0,1-2.42,3.51c.79-1.51,1.44-2.71,2.06-3.73a11.16,11.16,0,0,0,1.34-2.9,123.49,123.49,0,0,1-14.51,21.94c3.77-3.36,7.49-9.46,3-2.82-.58.83-1.17,1.67-1.85,2.66a33.31,33.31,0,0,1-2.81,3.17c-1.2.54-.05-.7-1.26-.17-1.58,1.74-3,3.43-4.63,4.88l-2.3,2.17-2.29,2c-1.47,1.34-3,2.49-4.44,3.75s-2.91,2.39-4.3,3.67c-.16-.53,2.47-1.72,2.54-2.31-1.06.14-2.18,1.09-3.34,2s-2.29,1.72-3.17,1.8c-.75.53-.14.83,0,1.23-2.8,1.11-1.33,1.05-4.13,2.47.34-.67,2-1.55,1.9-2.18a80.16,80.16,0,0,1-10.57,4.63c-3.83,1.31-7.79,2.64-11.73,3.84.2.27,1.28-.09,2.08-.25-.66.66-2.32,1-4.23,1.27a31.65,31.65,0,0,0-5.78,1.08,13.81,13.81,0,0,0,4-.22c.82-.13,1.72-.28,2.65-.47l2.86-.69c2-.44,3.94-1.12,5.81-1.6a50.77,50.77,0,0,1,5-1.32c1.54-.53,1.84-.58,1.39-.35a28.58,28.58,0,0,1-3.14,1.29c-1.48.54-3.23,1.16-4.76,1.58s-2.8.83-3.32.94a87.07,87.07,0,0,1-12.81,2.1,98.17,98.17,0,0,1-13.19.19,121.39,121.39,0,0,1-27.39-4.73,19.47,19.47,0,0,1,3.87.53c1.54.28,3.26.75,5.07,1.12s3.68.81,5.51,1.06c.91.14,1.81.28,2.67.38s1.69.13,2.46.16c-1.41-1-8.77-.9-8-2.11-2.06-.44-2,.52-4.74-.42.3-.29,1.23-.13,1.45-.47a21.8,21.8,0,0,1-3.22-.6c-.92-.24-1.84-.57-3.33-1.06.12.39,1.58.7,2.55,1a20.85,20.85,0,0,1-4.88-1.09c-1.69-.6-2.81-1.2-1.54-1.1-9.89-3.24-20.39-9.52-29.53-18a117.34,117.34,0,0,1-23.23-30.28c-.34.68,1.94,3.61,1.77,4.39.46,1.27-2.31-3.82-2.53-4.73-.29.75.52,2.7,1.61,4.79s2.56,4.26,3.46,5.54l1.32,2c.47.66,1,1.31,1.5,2l1.55,2.08c.55.68,1.11,1.38,1.65,2.1a47.07,47.07,0,0,1-5-5.48,64.59,64.59,0,0,1-4.37-6.57A94.26,94.26,0,0,1,112,220.7c.37.29,1.42,1.09.5-.95a20.41,20.41,0,0,1,1.8,3.9l1,2.5c.36.8.72,1.56,1.07,2.21-2.46-6.1-5.18-13.62-6-19.92-.52.44.84,3.45.46,4.06a84.66,84.66,0,0,1-2.3-15.14c-.36-5.35-.25-10.28-.32-12.83-.28-.68.2-2.47,1-4.32l1.11-2.71a14.1,14.1,0,0,0,.81-2.13c.42-1.86.62-4.42,1-6.68s1.16-4.17,2.62-4.6a6.71,6.71,0,0,0-.89,2.46,7.45,7.45,0,0,0,1.18-2.11,5.22,5.22,0,0,1,1.27-2c-.83,1-.66-1.36.14-3.87s2.06-5.11,2.58-4.67c.35-2.3.92-2.83,1.59-4.91a3.23,3.23,0,0,1-.07,2,7.58,7.58,0,0,0,2-2.09,4,4,0,0,0,1-2.86,7.06,7.06,0,0,1,2.21-2,5.82,5.82,0,0,0,1.14-1.14,19,19,0,0,0,1.34-2.23,3.94,3.94,0,0,0,2.81-1.09,27,27,0,0,0,3.3-3.11c.24.8-2.59,3.37-2.38,4.25,2.15-2.06,2.39-.64,4.33-2.91.2.31-.75,1.63-1,1.45-.4,1.25,2-1.26,2.69-1a10.82,10.82,0,0,1,1.59-2.41c.43-.5.86-.88,1.56-1.78-.68,1.53-1.5,3.37-2.56,5.26-.49,1-1,2-1.57,3s-1.07,2.11-1.64,3.17a105.6,105.6,0,0,0-5.62,12.84c-.81,1.21-1.59,2.81-2.39,3.36-.23,1.05.07,1.5-.39,2.82.35,0,1.2-2.08.51.13.54-1,2.1-3.76,2-4.06.48.26.34,1.68-.12,3.45-.25.88-.47,1.89-.77,2.88l-.44,1.48-.4,1.41c-.48,4.21,0,8.19-1,13.53a19,19,0,0,0,1.23,2.15c-.25-3.93.71-9.1.26-11.74.48.7.69.21.86-.65a15.06,15.06,0,0,1,.71-2.87c.26,1.68-.4,4.53-.86,7.55a26.76,26.76,0,0,0-.46,8.23c.49-2.2,1.2-1,1.62,1a16.91,16.91,0,0,1,.47,3.47,7.8,7.8,0,0,1-.33,3.23c.4,0,1,1.29,1.36,2.91-.34-.18-.6-.57-.67-1.44a13.82,13.82,0,0,0-.25,3.69c0,.69,0,1.42.15,2.16s.22,1.5.35,2.28a59.06,59.06,0,0,0,2.72,9.58c-.55,0-1-.69-1.43-1.71s-.7-2.36-1.07-3.44a50.91,50.91,0,0,0,4,11.49,64.41,64.41,0,0,0,7.35,11.63,87.07,87.07,0,0,0,20.63,18.46c1.1.75,2.2,1.5,3.26,2.29a29.72,29.72,0,0,0,3.21,1.91c1.43.71,1.54,1.5,2.43,2.25,4,1.63,7.06,2.69,10.07,3.64a72,72,0,0,0,9.9,2.31c.59,0,.31-.22,0-.26a109.07,109.07,0,0,0,13.22.58,66.59,66.59,0,0,0,12.77-1.49,62.66,62.66,0,0,1-18.49,2.15,73.8,73.8,0,0,1-10.47-1.12A74.81,74.81,0,0,1,179.4,259a32.06,32.06,0,0,0,11.68,3.68,81,81,0,0,0,14.26.53,83.79,83.79,0,0,0,9.16-.8,67.18,67.18,0,0,0,8.67-1.85,56.63,56.63,0,0,0,8.41-3.25c1.26-.64,2.47-1.18,3.54-1.67a15.11,15.11,0,0,1,2.8-1.09,78.1,78.1,0,0,0,21.76-18.26,67.82,67.82,0,0,0,12.72-23.22c-.71,1-1.88,4.87-3.34,7.76.12-1.24,1.92-5.44,3.17-8.9l1.29-3.69c.38-1.2.65-1.81.36-.25a11.76,11.76,0,0,1-.8,2.6,6.93,6.93,0,0,0-.51,2c2.46-5.93,3.32-11.64,3-13.92a15.85,15.85,0,0,0,.95-4.18c.08-.91.15-1.9.2-3s0-2.19,0-3.36a91,91,0,0,0-1.93-14.78,69.24,69.24,0,0,0-7.24-19.25,91,91,0,0,0-13-17.85c-.65-.51,0,.67-.73,0a16,16,0,0,1-1-2c-.69-.47-.86.34-1.91-1,.17-.19.61.27,1,.5a15.3,15.3,0,0,0-2.4-2.47c-.47-.41-1-.85-1.47-1.25l-1.57-1.2c-1-.81-2.07-1.54-3-2.26a12.59,12.59,0,0,1-1.18-1.07,6.07,6.07,0,0,1-.89-1,4.61,4.61,0,0,1-2.31-.71c-1-.47-2.17-1.11-3.42-1.84a40.16,40.16,0,0,0-7.93-3.51c.23-.81.85-.74,1.69-.35a27.25,27.25,0,0,0,3,1.56,27.28,27.28,0,0,0-3.12-1.85c-1-.42-1.83-.73-2.77-1.06-1.91-.6-4.06-1.2-7.76-2.44,1.17.59,2.36,1.18,3.74,1.72a47.33,47.33,0,0,0,4.88,1.74,12.91,12.91,0,0,1-3.34-.35c-.62-.14-1.26-.31-1.91-.52s-1.33-.37-2-.58c-2.71-.89-5.59-1.79-7.86-2.27.82.44,1.72.85,2.66,1.24s1.92.86,2.93,1.26a9.91,9.91,0,0,1-2.94-.78c-1-.35-1.88-.79-2.84-1.25a13,13,0,0,0-6.25-1.49,9.4,9.4,0,0,1,2.59-.07c.85.11,1.69.28,2.56.45s1.73.41,2.66.54a19.55,19.55,0,0,0,2.95.22,53,53,0,0,0-13.5-2.87c-4.63-.45-9.24-.54-13.65-.84-1.76.14-.91.91-2.65,1.06,1.28-1.05-2-.55-3.11-.63.08-.26.78-.36,1.59-.44a17.78,17.78,0,0,0,2.37-.17c.28-1.11-3,.39-3.55,0,.81-1,3.44-.58,4.56-.7-.09-.32-1.46-.61-3.19-.67a13.84,13.84,0,0,0-2.69.23,7.3,7.3,0,0,0-2.43.77c.36-1.14-1.06-1.19-2.82-.91s-3.77,1-4.67,1.19c.18-.39,1.06-.73,2.07-1.06s2.17-.65,2.93-.94c-.84-.17-2.33.33-3.14.21,0-.79,1-1.38,2.23-1.77A11.14,11.14,0,0,0,180,105.3,54.59,54.59,0,0,0,169.1,108c.59.33,2.94-1.13,2.73,0-1.09.21-2.31.51-3.55.83s-2.45.74-3.57,1c-2.22.65-3.94,1.15-4.28.53.61-.39.17-.4-.14-.23a19.77,19.77,0,0,1,3.3-1.69c1.15-.45,2.32-.84,3.5-1.24s2.41-.72,3.62-1.17a29.64,29.64,0,0,0,3.73-1.53c-1.38-.41-2.65.84-5.44,1.77,2.23-2-.73,0-1-.71,3.29-1.8,4.26-.91,6.09-2,0-.5-.77-.3-.7,0,1.44-1.61,5.69-3.27,10.4-4.54s9.9-2,13.14-2.9c-1.41-.55-4,.83-5.36,0,.09.65-.39.7-1.39.74a12.93,12.93,0,0,0-4.39.71,12.38,12.38,0,0,1,3.43-1.19A10.6,10.6,0,0,0,192.69,94.89Zm-83.38,87.64c.09-1.87,1.59-3.71,1-5.24C110.14,179.1,108.68,181.16,109.31,182.53Zm22.44,30.07c.91,2.18.82,4.18,2.15,4.81-.26-.9-.78-2.17-1.18-3.2S131.94,212.42,131.75,212.6Zm37.37,41.17c-.05.27-1.38-.43-2.88-1.32a43.74,43.74,0,0,1-3.75-2.72,13,13,0,0,0,3.81,3.15c.89.5,1.82,1,2.69,1.39a15.73,15.73,0,0,0,2.38.84C170.66,254.78,169.81,253.36,169.12,253.77ZM254.64,108l-.39.69c1.19,1,4,2.25,2.55,1C255.91,110.07,256.25,108.64,254.64,108Zm14.41,12.66c-.75-1-1.24-1.73-1.89-2.61a12.64,12.64,0,0,0-3.23-3,8.12,8.12,0,0,0,2.21,2.74A15.53,15.53,0,0,1,269.05,120.66ZM250.51,107c-.27.29,1.17,1.35,2.56,2.29s2.75,1.7,2.49,1.16a22.85,22.85,0,0,0-2.47-2.07A9.45,9.45,0,0,0,250.51,107ZM290,153.69c1.65,1.74,1.56,5.72,3.1,6a28.48,28.48,0,0,0-1.69-4.7C290.81,153.89,290.3,153.31,290,153.69ZM208.81,95.27c-.52-.08-.78-.25-.67-.55-3-.35-5.68.57-8-.11.18.5,2.26.6,4.35.57S208.63,95.2,208.81,95.27Zm76.62,49.43c.58,1.09,1.18,2.17,1.72,3.27l1.57,3.35c.62-.22,1.28.81.65-1.09-.46.41-1.38-1.3-2.22-2.94S285.45,144.1,285.43,144.7Zm8.64,21.14c.84-1.34-.64-3.63-.76-5.47C292.3,160.61,294.33,164.52,294.07,165.84ZM109.28,196.45a14.83,14.83,0,0,1-.15-4.16c0-1.2,0-2.11-.48-2.44,0,.89.11,2.91.18,4.53S109.12,197.2,109.28,196.45Zm9-41.41c-.14.47-.37,1-.61,1.59l-.68,1.8a5.71,5.71,0,0,0-.61,2.75C117.24,158,118.57,157.1,118.28,155Zm.8,2.27c-.5.9-.33.28-.11-.51s.5-1.72,0-1.51c-.87,3.4-2.35,5.88-2.58,8.52a16.58,16.58,0,0,1,1.56-3.38A6.54,6.54,0,0,0,119.08,157.31Zm152.75,4.76c-.39-.71-.73-1.81-1.12-2.77s-.83-1.78-1.26-2a20.48,20.48,0,0,1,1.23,2.71A4.3,4.3,0,0,0,271.83,162.07Zm-144,42.82c-.13-1-.79-2.6.08-2.25-.31-1.3-.56-3.35-.94-4.89s-.66-2.6-1.13-1.87C126.89,196.77,126.16,202,127.87,204.89Zm-1.58-28.08c-.47,3.14-.15,4.21,0,3.95a2.88,2.88,0,0,0,.17-1.27A12.56,12.56,0,0,0,126.29,176.81Zm52.11,81.87c-1.31-.46-2.88-1.12-3.13-.53,1.48.24,3.3,1.59,3.49,1.2C178.39,259.17,178.24,258.94,178.4,258.68Zm-49.51-72.14c-.07.64-.3.33-.52,0-.18,1.62.35,4.5-.16,5.28-.2-1.79-.79-.62-.36-2.62-1.27.06-.76,5.76.12,6.37,0-1.1-.6-3.44,0-3.72.19,2.2.82-.39,1.14,1.47C129.06,191,129.32,187.23,128.89,186.54Zm147.18,10c-.49-.25-.38-1.48-.31-2.7a10.23,10.23,0,0,0,.08-2.58C277.09,190,275.51,195.29,276.07,196.56Zm-36.5,80.93c-.35,1.22-2.61,1.06-4.24,2.28,0-.32-.33-.38-.85-.25C235.06,278.94,237.16,278.35,239.57,277.49Zm-36.24-185c.12-.3.68-.15.69,0a18.55,18.55,0,0,1,3.11-.17,33.5,33.5,0,0,1,3.75.22c-.28.7-3.89-.14-2.06.37-.1.65-2.31,0-2.74-.11-.6.09-1.21.17-1.34.47.07.5,3.15-.33,1.37.58,2.19.42.5-.83,2.71-.41-.22.43-1,.61-2.14.65-.56,0-1.19,0-1.85,0l-2.09,0C203.65,93.38,204.33,92.79,203.33,92.48ZM274.22,255c-.8-.79.4-2.48,2.53-5,.66-.42-.21.64-1.09,1.83s-1.85,2.41-1.18,2.49c1.09-1.27,2-2.49,2.89-3.62s1.68-2.16,2.4-3.18,1.41-1.95,2.07-2.87L283.7,242a91.23,91.23,0,0,0,7.44-13.1c1.13,0-1.26,3.63-1.91,5.25-.17-.06.15-.93.4-1.35-.78,1.26-1.65,2.89-2.69,4.71s-2.22,3.83-3.59,5.86-2.83,4.12-4.33,6.15S275.86,253.38,274.22,255Zm-118.3-145.7a39.47,39.47,0,0,1,5.4-2.21c.86-.25.37.1-2.71,1.56-.85.39-1.59.7-2.44,1a14.53,14.53,0,0,0-2.88,1.54c-.24-.11.06-.34.39-.57,0-.25-.36-.06-.7.15,1.47-1.78,4.86-2.48,7.53-4.06C159.86,108.05,157.58,108,155.92,109.34ZM129.7,251.12c-1.65-1.13,3.05,1.69,3.4,3.31C132,253.83,131.64,253,129.7,251.12Zm-8.79-103.37c.38-.65.48-1.05.35-1.26.73-1.64,1.18-.13,1.86-1.28C123.4,145.4,121.37,148.61,120.91,147.75Zm69.24-36.32c1.58-1.14,2.86.33,5.06-.14a3.08,3.08,0,0,1-2.34.25A7.94,7.94,0,0,0,190.15,111.43Zm46.43,13.16c-.61-.24-.69.24-.23.48l-1.72-.95-1.94-.93c-1.33-.68-2.8-1.25-4.24-1.94.57-.22,2,.47,3.23,1s2.34,1,2.42.22a8.46,8.46,0,0,1,1.13.77c.43.36.88.76,1.24,1.09C237.19,125,237.53,125.39,236.58,124.59Z"/><path class="cls-1" d="M201.69,472.08c85.93,0,160.12-35.55,194.82-87H6.88C41.58,436.53,115.76,472.08,201.69,472.08Z"/><path class="cls-1" d="M342.84,428.06l-4,2.51c-1.47.88-2.88,1.74-3.74,2.34C341.91,429.19,353.5,421,342.84,428.06Zm-30.78,16.46a17.36,17.36,0,0,1-2.15,1.13c-1,.45-2.34,1-3.69,1.52C306.18,446.9,309.7,445.62,312.06,444.52Zm38.53-21.45c4-3,7-5.15,11.62-8.93-1.22,1.09-1.73,1.78-3.33,3.05,1-1-.74.32-2.86,2A66,66,0,0,1,350.59,423.07ZM302.8,448.54c-.13.24-3.18,1.28-3.31,1.52.34.12,1.42-.66,3.46-1.29-1.39.67-3,1.4-5.9,2.49.9-.46.66-.41-1,.15C296,451.12,299.65,449.76,302.8,448.54Zm69.82-43.44c1.08-1.1,3-3.19,5-5.22l2.79-3,1.22-1.32.95-1.09a57.72,57.72,0,0,1-4.53,5.25c-.88.92-1.82,1.83-2.72,2.74S373.51,404.26,372.62,405.1Zm-26.3,21.32c.35-.31,2.31-1.69,4.15-3s3.51-2.49,3.45-2.25c-1.63,1.22-2.76,2-3.87,2.76S347.83,425.37,346.32,426.42Zm1-.34c.21,0-.43.49-1.61,1.33s-3,1.91-4.95,3.16-4.26,2.5-6.39,3.76-4.26,2.34-5.89,3.27C334.34,434,341.18,430.45,347.29,426.08Zm30.43-35.74h-5.66c-1-.31,3.68-.13,5.61-.19A1.21,1.21,0,0,1,377.72,390.34Zm-9.48-.16c-1.5.11-11.23.26-11.35-.06Zm-100.1,0c3.09-.31,12.29-.22,18.82-.22C281,390.14,276.54,390.08,268.14,390.16Zm-89.72-.06c1.28-.5,10.06.08,17-.12a15.23,15.23,0,0,1-2,.09l-4.69,0Zm-19.81,0c2.89-.51,10.51-.12,14.1-.21C171.61,390.33,162.86,390,158.61,390.15Zm130.2,64.91c-1.45.55-2.93,1.05-4.44,1.52s-3.07.83-4.65,1.24c-3.13.85-6.41,1.51-9.71,2.53a64.42,64.42,0,0,1,7.5-2.09l5.7-1.52C285.15,456.21,287.06,455.6,288.81,455.06Zm-61.37-65.25c2.26-.17,6.11-.2,10.33-.2C236,389.82,231.57,389.81,227.44,389.81Zm-25.73,78.71c3.57.05,5.16-.08,9.35-.09C210.14,468.63,201.31,468.83,201.71,468.52Zm-16,2.67c2.09,0,4.88.06,7.75.19s5.83.16,8.26.19a64.55,64.55,0,0,1-7.3.07Zm120.87-16c.21.09-1,.58-.67.64-1.85.51-4.3,1.34-6.91,2.2s-5.37,1.72-7.8,2.36C295.48,458.7,299,457.91,306.55,455.18Zm-44.46,13.58c1.25-.28,6.33-1.56,9.3-2.07A67.61,67.61,0,0,1,262.09,468.76Zm90-36.09c.75-.62,1.82-1.39,2.83-2.08s1.92-1.37,2.42-1.69.56-.32-.18.24S354.91,430.85,352.11,432.67ZM180.47,473c.78-.13,6.56.33,7.58.41C186.59,473.6,183.75,473.06,180.47,473Zm218.25-85.46a45.1,45.1,0,0,1-3.09,4.49l-2,2.69-1.18,1.56-.3.39-.23.28-.47.57.58-.78.85-1.2,2-2.69ZM150.34,469.62c.79,0,2.57.33,4.56.65s4.18.63,5.75.83a148.26,148.26,0,0,1-16.83-2.39,24.5,24.5,0,0,1,3.7.56c1.62.28,3.55.64,5.64.91A22.67,22.67,0,0,0,150.34,469.62ZM357.5,382c6.33-.38,12.88-.22,22.58-.31C373.39,382,367.44,381.9,357.5,382Zm-148.18.27c4.62-.44,13.62,0,20.74-.14C224.54,382.39,219,382.12,209.32,382.23ZM353.46,432.6c2.54-1.89,8.57-6.17,12.3-9.21-1.2,1-3.26,2.7-5.54,4.4S355.46,431.26,353.46,432.6Zm-275.56-51c1.86-.43,6.1-.15,11.28-.2A97.88,97.88,0,0,1,77.9,381.57ZM28,416.29a61.56,61.56,0,0,1-4.56-4.15c-1.82-1.77-3.68-3.8-5.19-5.28,1.38,1.26,2.92,2.79,4.54,4.43S26.16,414.62,28,416.29Zm83.38-36.73c-2.64.08-2.47-.12-4.74-.07C107.39,379.29,111.8,379.21,111.34,379.56Zm224,53.6c1.53-1,2.88-1.8,4.35-2.68s3-1.87,5-3.16a9.49,9.49,0,0,1-1.49,1.05c-.08.14.37-.13.85-.43-.39.33-1.89,1.29-3.62,2.37S336.65,432.45,335.32,433.16Zm-43,20.66c1-.27-.41.4,3.61-1.05,0-.27-3.94,1.08.72-.53a33.52,33.52,0,0,0-3.56,1.13,8.56,8.56,0,0,1,1.66-.76,5,5,0,0,0-1.71.69c-2.89.64,3.39-1.6,5.81-2.61,2.17-.8.43.15.21.29,3.31-1.32,4.91-2,5.37-1.75-2.21.87-1.1.35-1,.2-2.76,1-3,1.28-6,2.35,1.19-.31,3.14-1,5.44-1.77s4.89-1.92,7.45-3,5-2.23,6.95-3.2,3.45-1.77,4.08-2.14c.25-.25,4.15-1.73,5.79-2.92a40.15,40.15,0,0,0-6,2.72c-1.2.43,7.79-3.89,10.61-5.61,0,.17-2.63,1.52-2.25,1.53a9.65,9.65,0,0,0,3.06-2,193.34,193.34,0,0,0,24.51-16c1.89-1.47,3.8-2.93,5.65-4.51.94-.78,1.89-1.55,2.83-2.36l2.8-2.49c1.91-1.64,3.71-3.48,5.65-5.28l2.82-2.87,1.44-1.47,1.41-1.55c-2.42,2.44,0-.25,1.59-2.16.36-.19-.33.61-1.06,1.44a17.79,17.79,0,0,0,2.2-2.38,8.62,8.62,0,0,0,1.22-1.85c.6-.59,1.14-1.18,1.79-1.94l.54-.63.27-.33c.65-.78.75-1,.65-.83l-.36.56-.36.55-.11.16-.05.09-.15.19-1.3,1.63.9-1,.71-.83c.18-.22.38-.48.57-.74s.34-.51.51-.75l.24-.35c0-.05.12-.14.07-.15h-.19a3.89,3.89,0,0,1,.58-.17s0,.12-.09.21a5.79,5.79,0,0,1-.67.74,4.58,4.58,0,0,0,.75-.64c.13-.14.27-.29.4-.45a.5.5,0,0,0,.1-.11h-.11l-.25,0c-.72-.05-1.75,0-2.78,0l-10.53.09c-3.69,0-7.31,0-10.58-.08,4.58.24,12.82.13,19.87.13-1.7.3-3.79.06-7.53.1a20.8,20.8,0,0,0,3.72.25h2.82c.91,0,2.44,0,2.3,0,.89,0,2.08-.08,1.71.25l-1.71-.05-8.76-.07-18.93-.14c-12.4-.1-24.48-.17-36.85-.17-2.07.05-1.39-.17-2.88-.17-18.74.52-34.67-.18-61.38,0,.66.33-3.18-.05-5.61.19-2.58-.08,2.1-.2,1.79-.36-8.11.1-9.16.5-18.85.13,4.72-.06,7.65.1,10.38,0-11-.12-26.9-.07-36.83,0,7,.2,16.83,0,5.72.16-2.8,0-5.7.16-10.36.11-1.7-.17.66-.17-1-.35-13.2.19-23.63.09-33.85.52.19-.18,4.14,0,4.67-.18-2.65-.3-8.17.18-10.4-.07-1.28,0-.73.22-.85.35-4.12-.1-2.29.11-6.59.11.82-.16,3.44-.15,3.68-.36-9.9,0-21.68-.15-33,.08a21.9,21.9,0,0,0,2.85.08c-2.18.33-9.26-.12-14.13.12,5,.33,20.57,0,28.41.28,8.86.1-11.24.13-14.13.12-23.36,0-47-.5-73.75-.35,5.32-.41,18.8-.11,27.32-.24-2.1-.32-12.16.1-11.42-.32-2.93,0-2.62.28-6.56.19.3-.12,1.62-.14,1.82-.27-4,.12-5.08,0-9.44,0a34.5,34.5,0,0,0,3.8.08c-2.45.17-12.88.16-9.46-.06-7.25,0-15,0-23.21-.09l-6.2-.06-3.07,0-1,0L15,388.91l-.58,0,.29.44.59.9c.42.62.91,1.26,1.39,1.93l2,2.43c.69.84,1.36,1.7,2.09,2.53,2.89,3.3,5.89,6.56,9.1,9.66a166.25,166.25,0,0,0,20.68,17.09c-.39-.53-4.63-3.31-5.15-4-.7-.59.52.35,2.05,1.5s3.42,2.49,3.92,2.88c-.49-.62-2.84-2.29-5.37-4.27l-3.85-3L39,414.42c-3.22-2.68-6.72-5.81-10.24-9.28a217.84,217.84,0,0,0,35.13,26.75c-.51-.21-1.95-.77.73.73-2.23-1.05-7.62-4.65-11-6.88a223.83,223.83,0,0,0,24.7,14.78c-.3-.39-4.41-2.21-4.91-2.73,5.12,2.73,12.27,6.32,19.11,9.24,3.43,1.42,6.72,2.82,9.63,3.86,1.45.54,2.78,1,4,1.46l3.07,1c1.81.43,9.34,3.7,12.42,4.6,5.17,1.7,14.17,3.23,16.3,4.53-.82-.25-2.07-.55-3.65-.9,1.3.52,5.25,1.38,6.41,1.87-1.72-.53,1.65,0,5.37.69s7.82,1.37,7.5,1.57l7.39.91a15.9,15.9,0,0,1-2.75-.13,38.42,38.42,0,0,0,4,.87,22,22,0,0,0,4.42.39c4,.56,3.68,1,10.34,1.45a12.27,12.27,0,0,0,3.68.85c1.84.23,4.2.53,6.81.67-.77.24-6.54-.4-7.48-.25,4.53.47,2.94.76,7.66,1a10.46,10.46,0,0,1-2.83-.12c-1,0-.11.14,1.06.3a21.47,21.47,0,0,1,2.83.39c4.78,0,4.8.16,8.47.13a179.6,179.6,0,0,1-20.67-.18c-8-.45-16.42-1.48-23.4-2.49-2.37-.51-5.32-1-6.57-1.48-1.77-.31-2.33-.26-4.64-.73.2.16,3.88.93,0,.19l4.26,1a29.88,29.88,0,0,0,3.21.59c-.3.37-9.46-1.25-15.8-2.82a178.4,178.4,0,0,1-22.91-6c-1.26-.28-2.57-.58-3.63-.77,3.31,1.11,7.25,2.29,10.88,3.36s7,1.9,9.21,2.24c-2.11-.14,3.55,1.1,6.48,1.85-1.4-.18-3.37-.63-5.67-1.18-1.15-.29-2.39-.57-3.66-.92l-3.91-1.1c-5.31-1.5-10.75-3.31-14.25-4.38,3.77,1.42,1.81,1-1.82,0a84.94,84.94,0,0,1-11.65-4.45,28.75,28.75,0,0,1-5.35-1.86,13,13,0,0,1,2.66,1c-1.75-.88-3.83-1.87-6.15-2.94s-4.82-2.32-7.45-3.64c-5.25-2.64-10.94-5.69-16.24-8.87.62-.05,5.51,3,9.23,4.93A220.8,220.8,0,0,1,30.1,416.4a165.16,165.16,0,0,1-18.49-19l-.54-.63-.76-1-1.53-2-3.06-4.07-3-4.16-1.47-2.07-.73-1-.37-.51L0,381.61s.19,0,.28,0c3.3,0,6.53-.13,9.83-.15h9.21c4.91,0,9.9.18,14.2.15,2.93,0,3.74.23,5.76.33,15.6-.07,23.58,0,37.79.09,1.07,0,.5-.09,0-.09,14-.1,34.16.08,47.23.07-18.47.18-47.48.15-70.8.08,12.39.53,30.15.21,47.28.24l32.13.1c10.65,0,22.67-.24,28.33,0l98.16-.15c-2-.12-9.33,0-15.11,0,2.08-.16,10.34-.16,17-.13,2.88,0,13.26.1,7.59.16-4.37.06-5.73-.1-8.49,0,11.38.14,21.46.14,25.47-.06,6.93.4,28.07,0,45.35.07l36.86-.07,20.83,0c2.48,0,5,0,7.38,0l3.64.06,1.82,0h.22c.07,0,0,0,0,.07l-.07.09-.26.38-.54.76-4.31,6.05-4.44,5.87c-.63.87-.41.64-.22.45s.18-.18.14-.11a1.2,1.2,0,0,1-.15.24l-.17.25-.19.23c-1.84,2-.73.84-2.7,2.84a15.3,15.3,0,0,1-2.34,3,10.8,10.8,0,0,1,1.2-1.47c-1.25,1.29-2.69,2.86-4.24,4.54s-3.25,3.38-5,5-3.34,3.24-4.9,4.55-2.9,2.46-3.95,3.23a79.33,79.33,0,0,1-8.6,7.17c-2.07,1.59-4.38,3.15-6.55,4.72l-6.2,4.17c-.46-.34,3.49-2.49,7-4.94-4.22,2.69-6.77,4.37-9.75,6.22l-2.33,1.47-2.71,1.59-3.26,1.88-4.08,2.16c2-1,4.07-2,6.35-3.26l3.67-2.09c1.3-.79,2.69-1.67,4.2-2.64a92.15,92.15,0,0,1-11.19,6.95c-2.26,1.19-4.55,2.43-6.8,3.49s-4.35,2.12-6.22,2.94l2.26-.9,2.38-1.07c1.62-.75,3.35-1.49,5.08-2.37-6.54,3.62-12.95,5.63-20.24,8.93,2.74-1.36,5.48-2.41,8.28-3.7l4.34-2c1.48-.74,3-1.55,4.6-2.44-14,6.8-29.8,12.91-43.85,16.44-2.83.78-1.61.72-4.46,1.47,2.28-.93-3,.59-4.79.87.42-.22,4.45-1.13,6.43-1.69.65-.55-4.84,1.32-5.61,1.3a75.72,75.72,0,0,1,7.33-2,32.55,32.55,0,0,0-4.84.94c-2.64.65-5.89,1.33-8.2,2.05,1.87-1.11-8.56,1.45-11.38,1.83a34.6,34.6,0,0,1,3.53-.83c1.64-.36,3.47-.75,4.7-1.06-1.18.14-3.56.68-4.71.8.76-.71,6.8-1.7,8.93-2.55-4.64,1-11.13,2.37-16.66,3.32.65.05,4.66-.91,3.84-.41-1.65.24-3.52.59-5.43.86l-5.52.77c-3.42.42-6,.62-6.07.4,1-.17.48-.16,0-.08,7.29-1.12,14.17-1.86,22.19-3.85-1.75.13-4,.86-8.29,1.64,4-1.13-1,.11-1.07-.15,5.26-1.2,6.23-1,9.2-1.81.18-.2-1,0-1,.13,1.3-.48,3.53-1.08,6.27-1.81s6-1.6,9.32-2.63a188.62,188.62,0,0,0,18-6.12c-1.87.45-5.4,2-7.14,2.28.18.39-2.64.84-7.91,2.63,1.14-.42,2.94-1.05,4.75-1.66A35.7,35.7,0,0,0,292.3,453.82Zm-180.43.79c2.49.81,5.07,2,7.11,2.4C116.49,456.24,113.69,455,111.87,454.61ZM61.93,439c-1.87-1-3.45-2.09-4.79-3a24.36,24.36,0,0,0-3.38-2c1.42.94,3.53,2.27,5.24,3.33A15.44,15.44,0,0,0,61.93,439Zm-29.3-57.19c.26.18-10.89,0-14.18-.05,3.33.27,14.07.3,18.92.13C36,381.85,33.42,381.52,32.63,381.76ZM368,410.55l.23.15c1.65-1.32,4.4-4.26,2.56-2.58C370.4,408.82,369.58,409,368,410.55Zm18-18.44c-2.18,2.46-3.23,3.43-6.81,7.53a36.17,36.17,0,0,0,3.27-3.33C383.37,395.15,384.38,393.86,386,392.11Zm-21.78,22.33c0,.43,7.52-6.23,6.3-5.44C368.92,410.25,365.27,413.44,364.17,414.44Zm-10.4-25.36c-3.09.27-8.29-.17-9.36.28C349.69,389.43,354.45,389.35,353.77,389.08ZM313.24,446c-.67.28-1,.38-1,.23l-5.42,2.35a39.46,39.46,0,0,1-4.9,1.86C302.57,450.69,312.8,446.24,313.24,446ZM367.9,389l-10.38,0c-.06.22-1.73.28,1,.35C358,388.94,369.35,389.15,367.9,389Zm-32.06.16c1.52.36,5.11.11,7.62.25C343.55,389,337.52,389.29,335.84,389.12ZM93.54,447.75c1.95.71,3.86,1.55,5.41,2.22a14.06,14.06,0,0,0,3.27,1.08C99.84,450.29,91.71,446.8,93.54,447.75Zm58.21,17.57c-2.81-.37-7.94-1.55-9.19-1.6,2.31.42,3.94.82,5.33,1.11A24.13,24.13,0,0,0,151.75,465.32Zm-2.72.08c-3-.63,3.77.59,2.75.19-2.54-.34-4.82-.75-6.93-1.2s-4.07-.79-5.94-1.15l5.31,1.25A33.78,33.78,0,0,0,149,465.4Zm202.93-83c2.85-.06,8.16.09,9.41-.11C358.51,382.37,353.21,382.21,352,382.42Zm-276.5,63.3,2.59,1.3c.78.38,1.25.64.79.57,4.25,2.11,13.4,6,11.34,4.74A58.14,58.14,0,0,1,84,449.74C81.23,448.36,78,446.85,75.46,445.72Zm46.15,17.5c-5.32-1.45-7-2-6.6-1.75A47.47,47.47,0,0,0,121.61,463.22Zm-70-81.15c-2.5,0-5.58,0-5.62.19,2.65-.1,6.52.13,6.61,0C51.85,382.23,51.47,382.17,51.6,382.07Zm53.59,77.23c-1.09-.39-.54-.29,0-.18l-5-1.81a34.37,34.37,0,0,1-3.91-1.57,47.29,47.29,0,0,1,4.48,1.58c0-.22-2.36-1.13-4.86-2.14s-5.16-2-5.79-2.13c1.83.81,5.83,2.24,6.19,2.6-3.72-1.48.49.49-2.71-.71l3.3,1.37,3.54,1.35,3,1.1C104.26,459.05,104.89,459.23,105.19,459.3Zm184.42-77c.69-.33,8.86-.09,9.39-.2C301.33,382.5,291.79,382,289.61,382.3Zm-141.55,7.26c-1.09.34-3.88,0-6.56.19.12-.1-.25-.15-1-.17C141.54,389.45,144.55,389.53,148.06,389.56Zm157.79,58.61a1.93,1.93,0,0,1,.86-.35l8.46-3.71c-.17.35-4.79,2.15-2.43,1.26,0,.23-2.84,1.3-3.4,1.47a7.93,7.93,0,0,0-1.61.85c.18.11,3.91-1.76,1.83-.56,2.83-1.08.47-.5,3.29-1.62a10.83,10.83,0,0,1-2.52,1.39c-1.4.6-3.2,1.33-5,2.05C306.39,448.28,307.14,447.76,305.85,448.17Zm-101-58c0-.37,2.89-.49,7.43-.46,2,.16-7.56,0-6.51.37,18.23-.19,24.1-.05,41.55,0,.66.34-5.16.11-7.51.19a10.35,10.35,0,0,1,1.87-.09C233.7,390,217.55,390.19,204.87,390.13Zm33.31,76.61c1.81-.16,3.56-.36,5-.54l3.24-.37c1.26-.12.41,0-4.43.69-2.66.36-4.58.36-8.42.86-.2-.05.33-.12.9-.19.14-.1-.4,0-1,0,3-.6,7.69-.73,12.06-1.48C244,466.21,241.16,466.32,238.18,466.74ZM26.35,402.27c1,.89.13.16-1.11-1a30,30,0,0,1-3.32-3.64c.59.56,1.07,1.08,1.7,1.79l1.11,1.22ZM162.82,466.8a8.92,8.92,0,0,0,1.85.12c2.56.25.92.43,2.84.68C167.45,467.7,162,467,162.82,466.8Zm124.43-5.74c2.67-1.17,4.6-1.11,8.22-2.49C293.14,459.69,290.35,460.06,287.25,461.06Zm77.31-37.4c-.93.75-.62.7.14.11-1.83,1.38-3.84,3-6.12,4.62l-3.46,2.49-3.67,2.44c.61-.61,3.06-2.12,5.1-3.63s3.82-2.78,3.24-2.68C361.58,425.7,368.22,421,364.56,423.66Z"/></g><circle class="cls-1" cx="203.01" cy="13.58" r="11.5"/><path class="cls-1" d="M209,26.65a3.69,3.69,0,0,0,.9-.5C209.09,26.51,207.67,27.22,209,26.65Zm3.23-2.13c0-.13.22-.33.45-.55C212.74,24.07,212.4,24.32,212.2,24.52ZM208,27a5.5,5.5,0,0,1-1.56.5,2.42,2.42,0,0,1,.45-.26c-.12.13.11.07.4,0A2.2,2.2,0,0,1,208,27ZM213,23.7c0-.08.23-.3.18-.38s-.07.17-.28.29a2.1,2.1,0,0,1,.38-.6c0,.12,0,.12.13,0C213.48,23.11,213.2,23.43,213,23.7Zm-8,3.94a4.31,4.31,0,0,1-1.61.14C203.74,27.62,204.39,27.78,204.92,27.64Zm3.57-1.05c-.07.09-1,.48-1,.32C207.94,26.72,208.12,26.75,208.49,26.59Zm-.15-.08c-.16-.16,1.42-.67,2-1.2C209.88,25.91,209,26.08,208.34,26.51Zm-8.72.77-.59-.14c-.06-.18.4,0,.6.06Zm-1-.34c-.17,0-1.17-.29-1.12-.44Zm-8-6.61a14.35,14.35,0,0,1,1.17,1.6A7.8,7.8,0,0,1,190.7,20.33Zm-1.48-9.2c.23.18-.23,1-.13,1.79a1.8,1.8,0,0,1,0-.71Zm.49-2c.12.36-.24,1.08-.3,1.46C189.26,10.41,189.6,9.53,189.71,9.1ZM213.47,22c.23-.62.89-1,1.11-1.67,0,.15-.12.42-.34.73S213.69,21.67,213.47,22ZM189.4,16.25a5,5,0,0,1,.36,1A2.75,2.75,0,0,1,189.4,16.25Zm26.89-2.67c-.08.36,0,.52-.08.94C216.16,14.42,216.13,13.54,216.29,13.58Zm-1.64-1.42a4.37,4.37,0,0,1,.11,1.42C214.55,13.34,214.72,12.57,214.65,12.16Zm-4.41,8.91c-.06-.05,0-.13-.07-.17a4.83,4.83,0,0,0,1-.69C211.05,20.57,210.72,20.67,210.24,21.07Zm1.87-3a1.16,1.16,0,0,1-.32.64C211.77,18.46,212,18.22,212.11,18Zm-5.35,4.72c-.2.27-.95.27,0,0Zm6.78-10.87c.1,0,.13.52.1.6C213.5,12.38,213.64,12.14,213.54,11.88Zm-11.2,11.56c.18-.13.33,0,.63,0A1.12,1.12,0,0,1,202.34,23.44ZM212.78,9.6c.14.08.22.53.34.75a5.73,5.73,0,0,1-.68-1.17c.19.05.2.36.38.64C212.86,9.79,212.81,9.68,212.78,9.6Zm-13.6,13.16a11,11,0,0,1,1.65.35,2.44,2.44,0,0,1-.76-.06ZM193,14.16c.21.33.11,1,.26,1.54a1.41,1.41,0,0,1-.17-.64C193,14.81,193,14.53,193,14.16Zm13.58,8.29a3.13,3.13,0,0,1-1,.4C205.73,22.71,206.24,22.6,206.55,22.45Zm-9.33-16.7c0,.26-.32.31-.58.6A1,1,0,0,1,197.22,5.75Zm7.41-1.19c-.19.09-.62-.1-.91-.06A1.52,1.52,0,0,1,204.63,4.56Zm-8.41,3.51c.08-.16.16-.08.24-.21C196.49,8,196.34,8.2,196.22,8.07ZM209.77,26a6,6,0,0,1-1.06.58s.1-.08.16-.13-.05,0-.11,0A3.32,3.32,0,0,1,209.77,26Zm3.5-3.7c-.11.06-.06-.12-.32.23.08.1.37-.23,0,.16.07,0,.19-.16.29-.26a.25.25,0,0,1-.05.2c.07,0,.11-.13.09-.18.32-.13-.09.45-.25.68s-.13-.07-.13-.11c-.22.31-.34.45-.51.33.18-.17.11-.06.14,0,.24-.19.17-.3.43-.52a12.09,12.09,0,0,0-2,1.82c0,.08-.45.16-.55.39.13,0,.35,0,.63-.29.08,0-.09.14-.33.31s-.56.33-.7.43c0-.07.26-.19.18-.26-.29.13-.23.22-.26.32a12.86,12.86,0,0,1-6.08,1.82c.37.06,0,.1-.28.15-.05-.08.07-.09.19-.1-.17-.11-.58,0-.59.12a2.53,2.53,0,0,0-.69-.1c-1.08-.1-.66,0,.58-.07-.33-.1-1.07,0-1.56-.11.15-.14.32-.1.58,0-.47-.39-2.44-.29-3.66-.94a5.76,5.76,0,0,0,1.94.61c-.21.13-.39-.05-.77-.12.18.41,1.69.24,2,.61a14.32,14.32,0,0,1-7.11-3.13c-.18-.11-.06-.15-.18-.25-1.62-1.07-2.52-2.56-3.73-5-.13.12-.12-.31-.31-.5s.17.16.23.1c-.32-.75-.59-.79-.65-1.81a5.06,5.06,0,0,0,.31,1,17.75,17.75,0,0,1-.67-3.69c-.09.72.16,1.71-.06.59a6.34,6.34,0,0,1-.1-1.06c.08-.17.09.07.17-.11a27.78,27.78,0,0,1,.19-3.47c.08,0-.09.42,0,.49.21-.23.12-.84.3-1,0-.13-.08-.1-.14-.14.19-.38,0-.24.18-.66.05.11,0,.36,0,.42a21.17,21.17,0,0,1,1.45-3.08c-.05,0-.12.13-.19.23,0-.3.58-.77.79-1.24a12.09,12.09,0,0,0-1.68,2.45c-.46.82.45-1.1.66-1.34a11.92,11.92,0,0,1,2.47-2.8,17.65,17.65,0,0,1,3.3-2.23c-.42.4-1.68,1-2.34,1.62.27,0,1-.79,1.05-.56.26-.15.15-.26.52-.43,0,.07-.1.15-.09.21a2.75,2.75,0,0,1,.84-.48c-.06,0-.24.07-.37.14.18-.2,1.16-.65.88-.4a11.87,11.87,0,0,1,4.82-1,17.12,17.12,0,0,1,5.36.83c0-.12-.55-.19-.61-.3s.62.17.73.25c0-.12-.31-.25-.63-.37s-.69-.16-.91-.21c-.42-.13-.91-.14-1.42-.24a9.28,9.28,0,0,1,4.45,1.21c-.07,0-.26.05,0,.16-.28,0-.83-.41-1.25-.5.44.17.88.44,1.35.66a11.89,11.89,0,0,1,1.23.8c0-.11-.43-.26-.45-.37a16.59,16.59,0,0,1,3,2.61c.23.06.41,1,.57,1.25.27.46,1,1.12.71,1.52a.67.67,0,0,0-.15-.33c0,.16.18.5.12.67,0-.41.84,1.08.57,1.13a4.48,4.48,0,0,1,.34.65.48.48,0,0,1-.22-.21c-.05.16-.05.68.17.8.05.39-.18.42,0,1-.24.15-.28.55-.27,1-.12-.06-.09-.59-.2-.66,0,.42-.21.3-.19.72-.06,0-.1-.24,0-.25-.1-.16-.1.33-.21.37a3,3,0,0,1,.09.72c-.36-.88-.77-2.46-1.29-3.49a2,2,0,0,1,0-.57c-.08-.13-.17-.14-.25-.31-.05,0,.07.32-.08,0a2.92,2.92,0,0,0,.19.59c-.18.06-.5-.6-.74-1.06l-.59-.64A3.31,3.31,0,0,1,211,7c-.12,0-.24-.05-.36-.06a5.2,5.2,0,0,1,.59.64,3.47,3.47,0,0,0,.52.51c-.25,0,.08.29.16.51-.39-.26-.87-1.36-1.38-1.65.29.53-.75-.1-.93-.55-.05,0-.23,0-.42-.13.05,0,.12,0,.2.06a4.42,4.42,0,0,0-1.93-1.46c.12-.15.48.09.74.25a7.31,7.31,0,0,0-3.28-1.18,12.19,12.19,0,0,0-3.74.16c-.35.07-.72.09-1,.18s-.3,0-.46,0a11.62,11.62,0,0,0-2.51,1.29c-.06,0,0,0,0,0a11.5,11.5,0,0,0-2.46,2.52,8.9,8.9,0,0,1,3.93-3.49,6.16,6.16,0,0,0-2.94,2,10.1,10.1,0,0,0-1.51,1.93,10.12,10.12,0,0,0-.52,1.11,3,3,0,0,1-.37.87,10.71,10.71,0,0,0-.4,3.84,9.17,9.17,0,0,0,1,3.47c0-.15-.26-.66-.41-1.07a8.81,8.81,0,0,1,.55,1.16c.06.21.43.91.19.55s-.15-.41-.3-.57a3.76,3.76,0,0,0,1,1.64c.12.58,1.35,1.69,2.44,2.41a9.85,9.85,0,0,0,2.53,1.2,13.58,13.58,0,0,0,3,.52c.11,0-.07-.08.07-.08a2.24,2.24,0,0,1,.29.12c.11,0,.05-.14.28-.11,0,0-.08,0-.14.06.55.12,1.48-.16,1.9-.05a1.59,1.59,0,0,1,.8-.3,6,6,0,0,0,1.11-.4c.13.25-.26.22-.57.33a1.9,1.9,0,0,0,.86-.26l1-.48a5.29,5.29,0,0,0-1.18.45c.33-.44,1.3-.7,1.83-1.06-.25.06-.52.16-.81.24a2.56,2.56,0,0,1,.78-.32,1.47,1.47,0,0,0,.77-.42c-.27.42-.78.47-1.16.91a13,13,0,0,0,3.1-2.15c.17-.18,0-.19.16-.36,0,.24.27-.12.39-.22.05.08-.23.31-.34.44.1.15.28-.32.38-.32,0,.19-.3.38-.4.5.1.06.73-.38.83-.81.2.33.65-.51.77-.73.05.12-.19.5-.29.7.12-.06.21-.26.31-.32.21.2-.21.61-.21.85a7.36,7.36,0,0,0,.87-1.32c-.11,0-.2.39-.31.25.42-.48.76-1.4,1-1.33,0,.1,0,.06,0,0a4.78,4.78,0,0,1-.41,1,3.79,3.79,0,0,0-.48,1c.2-.08.17-.35.38-.71,0,.43.08-.07.2,0-.17.5-.36.5-.43.8.06.05.12,0,.08-.06a3.33,3.33,0,0,1-.57,1.5l-.56.87c-.19.28-.37.52-.49.73.21-.07.33-.48.57-.51-.17-.13.18-.21.43-.73C213.63,21.58,213.3,22,213.27,22.3Zm-.12-17.21c.17.2.17.56.39.64C213.38,5.53,213.36,5.15,213.15,5.09Zm-5.48-.46c-.3-.11-.47-.35-.67-.26C207.22,4.5,207.66,4.71,207.67,4.63Zm-7.53-.47a2.84,2.84,0,0,1,1-.22,2.29,2.29,0,0,0-1.37.3C199.9,4.2,200.12,4.28,200.14,4.16Zm5.48,23,0-.13c-.23,0-.63.16-.37.16C205.28,27,205.39,27.22,205.62,27.12Zm-2.74.11a2.45,2.45,0,0,0,1.08.08C203.57,27.12,203.38,27.32,202.88,27.23Zm3.25-.45c0-.11-1,.07-.86.13A1.58,1.58,0,0,0,206.13,26.78Zm-8.66-.9c-.35,0-.73-.44-.93-.29C197,25.86,197.47,26,197.47,25.88Zm14.1-2c.06-.05.1-.05.13,0,.33-.28.51-.64.83-.79C212.38,23,211.62,23.83,211.57,23.85Zm-12.75,2.5-1-.36c-.05.1-.22.07,0,.2C197.89,26,198.93,26.49,198.82,26.35Zm-3-1.32c0,.24.41.32.6.51C196.54,25.4,196,25.19,195.85,25ZM211.77,3.66c.36.24.55.65.73.61C212.32,4.09,211.67,3.46,211.77,3.66Zm3.1,5.15c-.1-.25-.28-.73-.42-.8C214.68,8.41,214.63,8.64,214.87,8.81Zm-.33-.14c-.06-.28.16.33.21.2a10.47,10.47,0,0,0-.57-1.12C214.33,8.05,214.32,8.49,214.54,8.67ZM198.71,22.78c.2.08.55.3.68.23C199.17,23,198.84,22.74,198.71,22.78ZM208.81,5c.1.09.32.18.19.25.15.11.38.27.56.38s.32.19.31.06C209.67,5.68,209.25,5.09,208.81,5Zm2.83,2.61c-.53-.69-.52-.32,0,0Zm-12.87-3c.17-.09.38-.18.35-.27-.17.12-.48.15-.45.22S198.76,4.48,198.77,4.54Zm11.61,2.4c-.06-.07,0-.07.06-.06-.13-.18-.45-.41-.47-.54.19.15.15,0,.29.21.15-.16-.47-.64-.61-.61.09.12.39.27.35.36-.24-.19-.06.14-.28,0C210,6.51,210.26,6.92,210.38,6.94ZM195.05,19.8c.14-.05.46.49.53.48C195.56,20.54,195.23,19.86,195.05,19.8ZM190.38,8.17c-.11-.17.17-.37.2-.66,0,0,.09,0,.13,0A2.57,2.57,0,0,1,190.38,8.17Zm22.06,15.46c0,.05-.05.09-.07.07a4.17,4.17,0,0,1-.7.69c0-.11.41-.38.17-.26-.07-.08.23-.23.28-.26s.1-.15.08-.2-.27.37-.2.07c-.27.18,0,.16-.22.33-.06-.15.24-.41.54-.69C212.31,23.55,212.3,23.69,212.44,23.63ZM189,13.91c.18,0,.25.3.26.77-.06.22,0-.79-.21-.67a17.08,17.08,0,0,0,.81,4.28c-.13.13-.25-.49-.34-.72,0,0,.08.11.09.18A16.68,16.68,0,0,1,189,13.91Zm26.55,3.26c-.25.68-.6,1.21-.22.33a4.32,4.32,0,0,0,.29-.79s0,0,0,.1.05,0,.07-.08c0,.33-.24.73-.37,1.15C215.26,17.68,215.54,17.48,215.55,17.17ZM204.3,0c.29-.06-.48.17-.67,0A3.07,3.07,0,0,1,204.3,0Zm11,9.8c0,.1,0,.15.09.16.08.24-.13.14-.1.32C215.28,10.3,215.19,9.77,215.34,9.81Zm-3.76,10.3c0,.29-.32.24-.5.49C211.12,20.37,211.44,20.34,211.58,20.11Zm-5.9,3c.09,0,0-.1,0-.08.33-.05.71-.25,1.13-.36-.07.17-.81.22-.66.44C206,23.15,205.34,23.07,205.68,23.08Z"/></g></g></svg>